%TF.GenerationSoftware,KiCad,Pcbnew,(5.1.9)-1*%
%TF.CreationDate,2021-05-01T22:48:59+01:00*%
%TF.ProjectId,Mirage,4d697261-6765-42e6-9b69-6361645f7063,rev?*%
%TF.SameCoordinates,Original*%
%TF.FileFunction,Soldermask,Top*%
%TF.FilePolarity,Negative*%
%FSLAX46Y46*%
G04 Gerber Fmt 4.6, Leading zero omitted, Abs format (unit mm)*
G04 Created by KiCad (PCBNEW (5.1.9)-1) date 2021-05-01 22:48:59*
%MOMM*%
%LPD*%
G01*
G04 APERTURE LIST*
%ADD10O,3.600000X1.800000*%
%ADD11O,1.800000X3.600000*%
%ADD12R,1.308000X1.308000*%
%ADD13C,3.650000*%
%ADD14R,1.500000X1.500000*%
%ADD15C,1.500000*%
%ADD16C,2.159000*%
%ADD17C,1.524000*%
%ADD18R,1.524000X1.524000*%
%ADD19O,1.700000X1.950000*%
%ADD20O,1.700000X1.700000*%
%ADD21R,1.700000X1.700000*%
%ADD22O,3.200000X3.200000*%
%ADD23R,3.200000X3.200000*%
%ADD24O,2.800000X2.800000*%
%ADD25R,2.800000X2.800000*%
%ADD26C,2.500000*%
%ADD27R,2.500000X2.500000*%
%ADD28O,1.700000X2.000000*%
%ADD29C,6.400000*%
%ADD30C,3.600000*%
%ADD31C,2.000000*%
G04 APERTURE END LIST*
D10*
%TO.C,J1*%
X98585000Y-70030000D03*
X98585000Y-66530000D03*
G36*
G01*
X97035000Y-62130000D02*
X100135000Y-62130000D01*
G75*
G02*
X100385000Y-62380000I0J-250000D01*
G01*
X100385000Y-63680000D01*
G75*
G02*
X100135000Y-63930000I-250000J0D01*
G01*
X97035000Y-63930000D01*
G75*
G02*
X96785000Y-63680000I0J250000D01*
G01*
X96785000Y-62380000D01*
G75*
G02*
X97035000Y-62130000I250000J0D01*
G01*
G37*
%TD*%
%TO.C,J2*%
X86110000Y-80590000D03*
X86110000Y-77090000D03*
G36*
G01*
X84560000Y-72690000D02*
X87660000Y-72690000D01*
G75*
G02*
X87910000Y-72940000I0J-250000D01*
G01*
X87910000Y-74240000D01*
G75*
G02*
X87660000Y-74490000I-250000J0D01*
G01*
X84560000Y-74490000D01*
G75*
G02*
X84310000Y-74240000I0J250000D01*
G01*
X84310000Y-72940000D01*
G75*
G02*
X84560000Y-72690000I250000J0D01*
G01*
G37*
%TD*%
%TO.C,J3*%
X98585000Y-85621666D03*
X98585000Y-82121666D03*
G36*
G01*
X97035000Y-77721666D02*
X100135000Y-77721666D01*
G75*
G02*
X100385000Y-77971666I0J-250000D01*
G01*
X100385000Y-79271666D01*
G75*
G02*
X100135000Y-79521666I-250000J0D01*
G01*
X97035000Y-79521666D01*
G75*
G02*
X96785000Y-79271666I0J250000D01*
G01*
X96785000Y-77971666D01*
G75*
G02*
X97035000Y-77721666I250000J0D01*
G01*
G37*
%TD*%
%TO.C,J4*%
X86110000Y-96528333D03*
X86110000Y-93028333D03*
G36*
G01*
X84560000Y-88628333D02*
X87660000Y-88628333D01*
G75*
G02*
X87910000Y-88878333I0J-250000D01*
G01*
X87910000Y-90178333D01*
G75*
G02*
X87660000Y-90428333I-250000J0D01*
G01*
X84560000Y-90428333D01*
G75*
G02*
X84310000Y-90178333I0J250000D01*
G01*
X84310000Y-88878333D01*
G75*
G02*
X84560000Y-88628333I250000J0D01*
G01*
G37*
%TD*%
%TO.C,J5*%
X98585000Y-101213332D03*
X98585000Y-97713332D03*
G36*
G01*
X97035000Y-93313332D02*
X100135000Y-93313332D01*
G75*
G02*
X100385000Y-93563332I0J-250000D01*
G01*
X100385000Y-94863332D01*
G75*
G02*
X100135000Y-95113332I-250000J0D01*
G01*
X97035000Y-95113332D01*
G75*
G02*
X96785000Y-94863332I0J250000D01*
G01*
X96785000Y-93563332D01*
G75*
G02*
X97035000Y-93313332I250000J0D01*
G01*
G37*
%TD*%
%TO.C,J6*%
X86110000Y-112466666D03*
X86110000Y-108966666D03*
G36*
G01*
X84560000Y-104566666D02*
X87660000Y-104566666D01*
G75*
G02*
X87910000Y-104816666I0J-250000D01*
G01*
X87910000Y-106116666D01*
G75*
G02*
X87660000Y-106366666I-250000J0D01*
G01*
X84560000Y-106366666D01*
G75*
G02*
X84310000Y-106116666I0J250000D01*
G01*
X84310000Y-104816666D01*
G75*
G02*
X84560000Y-104566666I250000J0D01*
G01*
G37*
%TD*%
%TO.C,J7*%
X98585000Y-116805000D03*
X98585000Y-113305000D03*
G36*
G01*
X97035000Y-108905000D02*
X100135000Y-108905000D01*
G75*
G02*
X100385000Y-109155000I0J-250000D01*
G01*
X100385000Y-110455000D01*
G75*
G02*
X100135000Y-110705000I-250000J0D01*
G01*
X97035000Y-110705000D01*
G75*
G02*
X96785000Y-110455000I0J250000D01*
G01*
X96785000Y-109155000D01*
G75*
G02*
X97035000Y-108905000I250000J0D01*
G01*
G37*
%TD*%
%TO.C,J8*%
X86110000Y-128405000D03*
X86110000Y-124905000D03*
G36*
G01*
X84560000Y-120505000D02*
X87660000Y-120505000D01*
G75*
G02*
X87910000Y-120755000I0J-250000D01*
G01*
X87910000Y-122055000D01*
G75*
G02*
X87660000Y-122305000I-250000J0D01*
G01*
X84560000Y-122305000D01*
G75*
G02*
X84310000Y-122055000I0J250000D01*
G01*
X84310000Y-120755000D01*
G75*
G02*
X84560000Y-120505000I250000J0D01*
G01*
G37*
%TD*%
D11*
%TO.C,J9*%
X117620000Y-111485000D03*
X114120000Y-111485000D03*
G36*
G01*
X109720000Y-113035000D02*
X109720000Y-109935000D01*
G75*
G02*
X109970000Y-109685000I250000J0D01*
G01*
X111270000Y-109685000D01*
G75*
G02*
X111520000Y-109935000I0J-250000D01*
G01*
X111520000Y-113035000D01*
G75*
G02*
X111270000Y-113285000I-250000J0D01*
G01*
X109970000Y-113285000D01*
G75*
G02*
X109720000Y-113035000I0J250000D01*
G01*
G37*
%TD*%
%TO.C,J10*%
X127230000Y-124800000D03*
X123730000Y-124800000D03*
G36*
G01*
X119330000Y-126350000D02*
X119330000Y-123250000D01*
G75*
G02*
X119580000Y-123000000I250000J0D01*
G01*
X120880000Y-123000000D01*
G75*
G02*
X121130000Y-123250000I0J-250000D01*
G01*
X121130000Y-126350000D01*
G75*
G02*
X120880000Y-126600000I-250000J0D01*
G01*
X119580000Y-126600000D01*
G75*
G02*
X119330000Y-126350000I0J250000D01*
G01*
G37*
%TD*%
%TO.C,J11*%
X133211666Y-111485000D03*
X129711666Y-111485000D03*
G36*
G01*
X125311666Y-113035000D02*
X125311666Y-109935000D01*
G75*
G02*
X125561666Y-109685000I250000J0D01*
G01*
X126861666Y-109685000D01*
G75*
G02*
X127111666Y-109935000I0J-250000D01*
G01*
X127111666Y-113035000D01*
G75*
G02*
X126861666Y-113285000I-250000J0D01*
G01*
X125561666Y-113285000D01*
G75*
G02*
X125311666Y-113035000I0J250000D01*
G01*
G37*
%TD*%
%TO.C,J12*%
X142638333Y-124800000D03*
X139138333Y-124800000D03*
G36*
G01*
X134738333Y-126350000D02*
X134738333Y-123250000D01*
G75*
G02*
X134988333Y-123000000I250000J0D01*
G01*
X136288333Y-123000000D01*
G75*
G02*
X136538333Y-123250000I0J-250000D01*
G01*
X136538333Y-126350000D01*
G75*
G02*
X136288333Y-126600000I-250000J0D01*
G01*
X134988333Y-126600000D01*
G75*
G02*
X134738333Y-126350000I0J250000D01*
G01*
G37*
%TD*%
%TO.C,J13*%
X148783332Y-111485000D03*
X145283332Y-111485000D03*
G36*
G01*
X140883332Y-113035000D02*
X140883332Y-109935000D01*
G75*
G02*
X141133332Y-109685000I250000J0D01*
G01*
X142433332Y-109685000D01*
G75*
G02*
X142683332Y-109935000I0J-250000D01*
G01*
X142683332Y-113035000D01*
G75*
G02*
X142433332Y-113285000I-250000J0D01*
G01*
X141133332Y-113285000D01*
G75*
G02*
X140883332Y-113035000I0J250000D01*
G01*
G37*
%TD*%
%TO.C,J14*%
X158046666Y-124800000D03*
X154546666Y-124800000D03*
G36*
G01*
X150146666Y-126350000D02*
X150146666Y-123250000D01*
G75*
G02*
X150396666Y-123000000I250000J0D01*
G01*
X151696666Y-123000000D01*
G75*
G02*
X151946666Y-123250000I0J-250000D01*
G01*
X151946666Y-126350000D01*
G75*
G02*
X151696666Y-126600000I-250000J0D01*
G01*
X150396666Y-126600000D01*
G75*
G02*
X150146666Y-126350000I0J250000D01*
G01*
G37*
%TD*%
%TO.C,J15*%
X164395000Y-111485000D03*
X160895000Y-111485000D03*
G36*
G01*
X156495000Y-113035000D02*
X156495000Y-109935000D01*
G75*
G02*
X156745000Y-109685000I250000J0D01*
G01*
X158045000Y-109685000D01*
G75*
G02*
X158295000Y-109935000I0J-250000D01*
G01*
X158295000Y-113035000D01*
G75*
G02*
X158045000Y-113285000I-250000J0D01*
G01*
X156745000Y-113285000D01*
G75*
G02*
X156495000Y-113035000I0J250000D01*
G01*
G37*
%TD*%
%TO.C,J16*%
X173455000Y-124800000D03*
X169955000Y-124800000D03*
G36*
G01*
X165555000Y-126350000D02*
X165555000Y-123250000D01*
G75*
G02*
X165805000Y-123000000I250000J0D01*
G01*
X167105000Y-123000000D01*
G75*
G02*
X167355000Y-123250000I0J-250000D01*
G01*
X167355000Y-126350000D01*
G75*
G02*
X167105000Y-126600000I-250000J0D01*
G01*
X165805000Y-126600000D01*
G75*
G02*
X165555000Y-126350000I0J250000D01*
G01*
G37*
%TD*%
%TO.C,J17*%
X193200000Y-111585000D03*
X189700000Y-111585000D03*
G36*
G01*
X185300000Y-113135000D02*
X185300000Y-110035000D01*
G75*
G02*
X185550000Y-109785000I250000J0D01*
G01*
X186850000Y-109785000D01*
G75*
G02*
X187100000Y-110035000I0J-250000D01*
G01*
X187100000Y-113135000D01*
G75*
G02*
X186850000Y-113385000I-250000J0D01*
G01*
X185550000Y-113385000D01*
G75*
G02*
X185300000Y-113135000I0J250000D01*
G01*
G37*
%TD*%
%TO.C,J18*%
X202740000Y-124900000D03*
X199240000Y-124900000D03*
G36*
G01*
X194840000Y-126450000D02*
X194840000Y-123350000D01*
G75*
G02*
X195090000Y-123100000I250000J0D01*
G01*
X196390000Y-123100000D01*
G75*
G02*
X196640000Y-123350000I0J-250000D01*
G01*
X196640000Y-126450000D01*
G75*
G02*
X196390000Y-126700000I-250000J0D01*
G01*
X195090000Y-126700000D01*
G75*
G02*
X194840000Y-126450000I0J250000D01*
G01*
G37*
%TD*%
%TO.C,J19*%
X208791666Y-111585000D03*
X205291666Y-111585000D03*
G36*
G01*
X200891666Y-113135000D02*
X200891666Y-110035000D01*
G75*
G02*
X201141666Y-109785000I250000J0D01*
G01*
X202441666Y-109785000D01*
G75*
G02*
X202691666Y-110035000I0J-250000D01*
G01*
X202691666Y-113135000D01*
G75*
G02*
X202441666Y-113385000I-250000J0D01*
G01*
X201141666Y-113385000D01*
G75*
G02*
X200891666Y-113135000I0J250000D01*
G01*
G37*
%TD*%
%TO.C,J20*%
X218148333Y-124900000D03*
X214648333Y-124900000D03*
G36*
G01*
X210248333Y-126450000D02*
X210248333Y-123350000D01*
G75*
G02*
X210498333Y-123100000I250000J0D01*
G01*
X211798333Y-123100000D01*
G75*
G02*
X212048333Y-123350000I0J-250000D01*
G01*
X212048333Y-126450000D01*
G75*
G02*
X211798333Y-126700000I-250000J0D01*
G01*
X210498333Y-126700000D01*
G75*
G02*
X210248333Y-126450000I0J250000D01*
G01*
G37*
%TD*%
%TO.C,J21*%
X224383332Y-111585000D03*
X220883332Y-111585000D03*
G36*
G01*
X216483332Y-113135000D02*
X216483332Y-110035000D01*
G75*
G02*
X216733332Y-109785000I250000J0D01*
G01*
X218033332Y-109785000D01*
G75*
G02*
X218283332Y-110035000I0J-250000D01*
G01*
X218283332Y-113135000D01*
G75*
G02*
X218033332Y-113385000I-250000J0D01*
G01*
X216733332Y-113385000D01*
G75*
G02*
X216483332Y-113135000I0J250000D01*
G01*
G37*
%TD*%
%TO.C,J22*%
X233556666Y-124900000D03*
X230056666Y-124900000D03*
G36*
G01*
X225656666Y-126450000D02*
X225656666Y-123350000D01*
G75*
G02*
X225906666Y-123100000I250000J0D01*
G01*
X227206666Y-123100000D01*
G75*
G02*
X227456666Y-123350000I0J-250000D01*
G01*
X227456666Y-126450000D01*
G75*
G02*
X227206666Y-126700000I-250000J0D01*
G01*
X225906666Y-126700000D01*
G75*
G02*
X225656666Y-126450000I0J250000D01*
G01*
G37*
%TD*%
%TO.C,J23*%
X239975000Y-111585000D03*
X236475000Y-111585000D03*
G36*
G01*
X232075000Y-113135000D02*
X232075000Y-110035000D01*
G75*
G02*
X232325000Y-109785000I250000J0D01*
G01*
X233625000Y-109785000D01*
G75*
G02*
X233875000Y-110035000I0J-250000D01*
G01*
X233875000Y-113135000D01*
G75*
G02*
X233625000Y-113385000I-250000J0D01*
G01*
X232325000Y-113385000D01*
G75*
G02*
X232075000Y-113135000I0J250000D01*
G01*
G37*
%TD*%
%TO.C,J24*%
X248965000Y-124900000D03*
X245465000Y-124900000D03*
G36*
G01*
X241065000Y-126450000D02*
X241065000Y-123350000D01*
G75*
G02*
X241315000Y-123100000I250000J0D01*
G01*
X242615000Y-123100000D01*
G75*
G02*
X242865000Y-123350000I0J-250000D01*
G01*
X242865000Y-126450000D01*
G75*
G02*
X242615000Y-126700000I-250000J0D01*
G01*
X241315000Y-126700000D01*
G75*
G02*
X241065000Y-126450000I0J250000D01*
G01*
G37*
%TD*%
D12*
%TO.C,U10*%
X210020000Y-49230000D03*
X208620000Y-49230000D03*
X221690000Y-49230000D03*
X223090000Y-49230000D03*
X221690000Y-30230000D03*
X223090000Y-30230000D03*
X210020000Y-30230000D03*
X208620000Y-30230000D03*
%TD*%
D13*
%TO.C,J37*%
X100812500Y-36710000D03*
X112242500Y-36710000D03*
D14*
X110972500Y-43060000D03*
D15*
X109702500Y-45600000D03*
X108432500Y-43060000D03*
X107162500Y-45600000D03*
X105892500Y-43060000D03*
X104622500Y-45600000D03*
X103352500Y-43060000D03*
X102082500Y-45600000D03*
%TD*%
D16*
%TO.C,F27*%
X189830000Y-150432004D03*
X189830000Y-147026002D03*
X189830000Y-142556001D03*
X189830000Y-139150000D03*
%TD*%
%TO.C,F26*%
X104100000Y-150452004D03*
X104100000Y-147046002D03*
X104100000Y-142576001D03*
X104100000Y-139170000D03*
%TD*%
%TO.C,F25*%
X61457996Y-55990000D03*
X64863998Y-55990000D03*
X69333999Y-55990000D03*
X72740000Y-55990000D03*
%TD*%
D17*
%TO.C,U11*%
X144955000Y-45940000D03*
X144955000Y-43400000D03*
X147495000Y-45940000D03*
X147495000Y-43400000D03*
X150035000Y-45940000D03*
X150035000Y-43400000D03*
X152575000Y-45940000D03*
X152575000Y-43400000D03*
X155115000Y-45940000D03*
X155115000Y-43400000D03*
X157655000Y-45940000D03*
X157655000Y-43400000D03*
X160195000Y-45940000D03*
X160195000Y-43400000D03*
X162735000Y-45940000D03*
X162735000Y-43400000D03*
X165275000Y-45940000D03*
X165275000Y-43400000D03*
X167815000Y-45940000D03*
X167815000Y-43400000D03*
X170355000Y-45940000D03*
X170355000Y-43400000D03*
X172895000Y-45940000D03*
X172895000Y-43400000D03*
X175435000Y-45940000D03*
X175435000Y-43400000D03*
X177975000Y-45940000D03*
X177975000Y-43400000D03*
X180515000Y-45940000D03*
X180515000Y-43400000D03*
X183055000Y-45940000D03*
X183055000Y-43400000D03*
X185595000Y-45940000D03*
X185595000Y-43400000D03*
X188135000Y-45940000D03*
X188135000Y-43400000D03*
X190675000Y-45940000D03*
X190675000Y-43400000D03*
X193215000Y-45940000D03*
X193215000Y-43400000D03*
X195755000Y-45940000D03*
X195755000Y-43400000D03*
X198295000Y-45940000D03*
X198295000Y-43400000D03*
X200835000Y-45940000D03*
D18*
X200835000Y-43400000D03*
D17*
X144955000Y-94200000D03*
X144955000Y-91660000D03*
X147495000Y-94200000D03*
X147495000Y-91660000D03*
X150035000Y-94200000D03*
X150035000Y-91660000D03*
X152575000Y-94200000D03*
X152575000Y-91660000D03*
X155115000Y-94200000D03*
X155115000Y-91660000D03*
X157655000Y-94200000D03*
X157655000Y-91660000D03*
X160195000Y-94200000D03*
X160195000Y-91660000D03*
X162735000Y-94200000D03*
X162735000Y-91660000D03*
X165275000Y-94200000D03*
X165275000Y-91660000D03*
X167815000Y-94200000D03*
X167815000Y-91660000D03*
X170355000Y-94200000D03*
X170355000Y-91660000D03*
X172895000Y-94200000D03*
X172895000Y-91660000D03*
X175435000Y-94200000D03*
X175435000Y-91660000D03*
X177975000Y-94200000D03*
X177975000Y-91660000D03*
X180515000Y-94200000D03*
X180515000Y-91660000D03*
X183055000Y-94200000D03*
X183055000Y-91660000D03*
X185595000Y-94200000D03*
X185595000Y-91660000D03*
X188135000Y-94200000D03*
X188135000Y-91660000D03*
X190675000Y-94200000D03*
X190675000Y-91660000D03*
X193215000Y-94200000D03*
X193215000Y-91660000D03*
X195755000Y-94200000D03*
X195755000Y-91660000D03*
X198295000Y-94200000D03*
X198295000Y-91660000D03*
X200835000Y-94200000D03*
D18*
X200835000Y-91660000D03*
%TD*%
D10*
%TO.C,J41*%
X62500000Y-151350000D03*
X62500000Y-147850000D03*
X62500000Y-144350000D03*
G36*
G01*
X60950000Y-139950000D02*
X64050000Y-139950000D01*
G75*
G02*
X64300000Y-140200000I0J-250000D01*
G01*
X64300000Y-141500000D01*
G75*
G02*
X64050000Y-141750000I-250000J0D01*
G01*
X60950000Y-141750000D01*
G75*
G02*
X60700000Y-141500000I0J250000D01*
G01*
X60700000Y-140200000D01*
G75*
G02*
X60950000Y-139950000I250000J0D01*
G01*
G37*
%TD*%
D19*
%TO.C,J44*%
X207120000Y-83610000D03*
X204620000Y-83610000D03*
X202120000Y-83610000D03*
G36*
G01*
X198770000Y-84335000D02*
X198770000Y-82885000D01*
G75*
G02*
X199020000Y-82635000I250000J0D01*
G01*
X200220000Y-82635000D01*
G75*
G02*
X200470000Y-82885000I0J-250000D01*
G01*
X200470000Y-84335000D01*
G75*
G02*
X200220000Y-84585000I-250000J0D01*
G01*
X199020000Y-84585000D01*
G75*
G02*
X198770000Y-84335000I0J250000D01*
G01*
G37*
%TD*%
D20*
%TO.C,J30*%
X182440000Y-30930000D03*
X182440000Y-33470000D03*
D21*
X182440000Y-36010000D03*
%TD*%
%TO.C,C2*%
G36*
G01*
X188415000Y-63540000D02*
X187465000Y-63540000D01*
G75*
G02*
X187215000Y-63290000I0J250000D01*
G01*
X187215000Y-62790000D01*
G75*
G02*
X187465000Y-62540000I250000J0D01*
G01*
X188415000Y-62540000D01*
G75*
G02*
X188665000Y-62790000I0J-250000D01*
G01*
X188665000Y-63290000D01*
G75*
G02*
X188415000Y-63540000I-250000J0D01*
G01*
G37*
G36*
G01*
X188415000Y-65440000D02*
X187465000Y-65440000D01*
G75*
G02*
X187215000Y-65190000I0J250000D01*
G01*
X187215000Y-64690000D01*
G75*
G02*
X187465000Y-64440000I250000J0D01*
G01*
X188415000Y-64440000D01*
G75*
G02*
X188665000Y-64690000I0J-250000D01*
G01*
X188665000Y-65190000D01*
G75*
G02*
X188415000Y-65440000I-250000J0D01*
G01*
G37*
%TD*%
%TO.C,C17*%
G36*
G01*
X222735000Y-82400000D02*
X221785000Y-82400000D01*
G75*
G02*
X221535000Y-82150000I0J250000D01*
G01*
X221535000Y-81650000D01*
G75*
G02*
X221785000Y-81400000I250000J0D01*
G01*
X222735000Y-81400000D01*
G75*
G02*
X222985000Y-81650000I0J-250000D01*
G01*
X222985000Y-82150000D01*
G75*
G02*
X222735000Y-82400000I-250000J0D01*
G01*
G37*
G36*
G01*
X222735000Y-84300000D02*
X221785000Y-84300000D01*
G75*
G02*
X221535000Y-84050000I0J250000D01*
G01*
X221535000Y-83550000D01*
G75*
G02*
X221785000Y-83300000I250000J0D01*
G01*
X222735000Y-83300000D01*
G75*
G02*
X222985000Y-83550000I0J-250000D01*
G01*
X222985000Y-84050000D01*
G75*
G02*
X222735000Y-84300000I-250000J0D01*
G01*
G37*
%TD*%
%TO.C,C9*%
G36*
G01*
X140840000Y-99045000D02*
X140840000Y-98095000D01*
G75*
G02*
X141090000Y-97845000I250000J0D01*
G01*
X141590000Y-97845000D01*
G75*
G02*
X141840000Y-98095000I0J-250000D01*
G01*
X141840000Y-99045000D01*
G75*
G02*
X141590000Y-99295000I-250000J0D01*
G01*
X141090000Y-99295000D01*
G75*
G02*
X140840000Y-99045000I0J250000D01*
G01*
G37*
G36*
G01*
X138940000Y-99045000D02*
X138940000Y-98095000D01*
G75*
G02*
X139190000Y-97845000I250000J0D01*
G01*
X139690000Y-97845000D01*
G75*
G02*
X139940000Y-98095000I0J-250000D01*
G01*
X139940000Y-99045000D01*
G75*
G02*
X139690000Y-99295000I-250000J0D01*
G01*
X139190000Y-99295000D01*
G75*
G02*
X138940000Y-99045000I0J250000D01*
G01*
G37*
%TD*%
%TO.C,C8*%
G36*
G01*
X102785000Y-127360000D02*
X101835000Y-127360000D01*
G75*
G02*
X101585000Y-127110000I0J250000D01*
G01*
X101585000Y-126610000D01*
G75*
G02*
X101835000Y-126360000I250000J0D01*
G01*
X102785000Y-126360000D01*
G75*
G02*
X103035000Y-126610000I0J-250000D01*
G01*
X103035000Y-127110000D01*
G75*
G02*
X102785000Y-127360000I-250000J0D01*
G01*
G37*
G36*
G01*
X102785000Y-129260000D02*
X101835000Y-129260000D01*
G75*
G02*
X101585000Y-129010000I0J250000D01*
G01*
X101585000Y-128510000D01*
G75*
G02*
X101835000Y-128260000I250000J0D01*
G01*
X102785000Y-128260000D01*
G75*
G02*
X103035000Y-128510000I0J-250000D01*
G01*
X103035000Y-129010000D01*
G75*
G02*
X102785000Y-129260000I-250000J0D01*
G01*
G37*
%TD*%
%TO.C,C7*%
G36*
G01*
X171750000Y-73725000D02*
X171750000Y-74675000D01*
G75*
G02*
X171500000Y-74925000I-250000J0D01*
G01*
X171000000Y-74925000D01*
G75*
G02*
X170750000Y-74675000I0J250000D01*
G01*
X170750000Y-73725000D01*
G75*
G02*
X171000000Y-73475000I250000J0D01*
G01*
X171500000Y-73475000D01*
G75*
G02*
X171750000Y-73725000I0J-250000D01*
G01*
G37*
G36*
G01*
X173650000Y-73725000D02*
X173650000Y-74675000D01*
G75*
G02*
X173400000Y-74925000I-250000J0D01*
G01*
X172900000Y-74925000D01*
G75*
G02*
X172650000Y-74675000I0J250000D01*
G01*
X172650000Y-73725000D01*
G75*
G02*
X172900000Y-73475000I250000J0D01*
G01*
X173400000Y-73475000D01*
G75*
G02*
X173650000Y-73725000I0J-250000D01*
G01*
G37*
%TD*%
%TO.C,C6*%
G36*
G01*
X155030000Y-73715000D02*
X155030000Y-74665000D01*
G75*
G02*
X154780000Y-74915000I-250000J0D01*
G01*
X154280000Y-74915000D01*
G75*
G02*
X154030000Y-74665000I0J250000D01*
G01*
X154030000Y-73715000D01*
G75*
G02*
X154280000Y-73465000I250000J0D01*
G01*
X154780000Y-73465000D01*
G75*
G02*
X155030000Y-73715000I0J-250000D01*
G01*
G37*
G36*
G01*
X156930000Y-73715000D02*
X156930000Y-74665000D01*
G75*
G02*
X156680000Y-74915000I-250000J0D01*
G01*
X156180000Y-74915000D01*
G75*
G02*
X155930000Y-74665000I0J250000D01*
G01*
X155930000Y-73715000D01*
G75*
G02*
X156180000Y-73465000I250000J0D01*
G01*
X156680000Y-73465000D01*
G75*
G02*
X156930000Y-73715000I0J-250000D01*
G01*
G37*
%TD*%
%TO.C,C5*%
G36*
G01*
X129640000Y-52075000D02*
X129640000Y-53025000D01*
G75*
G02*
X129390000Y-53275000I-250000J0D01*
G01*
X128890000Y-53275000D01*
G75*
G02*
X128640000Y-53025000I0J250000D01*
G01*
X128640000Y-52075000D01*
G75*
G02*
X128890000Y-51825000I250000J0D01*
G01*
X129390000Y-51825000D01*
G75*
G02*
X129640000Y-52075000I0J-250000D01*
G01*
G37*
G36*
G01*
X131540000Y-52075000D02*
X131540000Y-53025000D01*
G75*
G02*
X131290000Y-53275000I-250000J0D01*
G01*
X130790000Y-53275000D01*
G75*
G02*
X130540000Y-53025000I0J250000D01*
G01*
X130540000Y-52075000D01*
G75*
G02*
X130790000Y-51825000I250000J0D01*
G01*
X131290000Y-51825000D01*
G75*
G02*
X131540000Y-52075000I0J-250000D01*
G01*
G37*
%TD*%
%TO.C,C4*%
G36*
G01*
X112860000Y-52115000D02*
X112860000Y-53065000D01*
G75*
G02*
X112610000Y-53315000I-250000J0D01*
G01*
X112110000Y-53315000D01*
G75*
G02*
X111860000Y-53065000I0J250000D01*
G01*
X111860000Y-52115000D01*
G75*
G02*
X112110000Y-51865000I250000J0D01*
G01*
X112610000Y-51865000D01*
G75*
G02*
X112860000Y-52115000I0J-250000D01*
G01*
G37*
G36*
G01*
X114760000Y-52115000D02*
X114760000Y-53065000D01*
G75*
G02*
X114510000Y-53315000I-250000J0D01*
G01*
X114010000Y-53315000D01*
G75*
G02*
X113760000Y-53065000I0J250000D01*
G01*
X113760000Y-52115000D01*
G75*
G02*
X114010000Y-51865000I250000J0D01*
G01*
X114510000Y-51865000D01*
G75*
G02*
X114760000Y-52115000I0J-250000D01*
G01*
G37*
%TD*%
%TO.C,C3*%
G36*
G01*
X95480000Y-52235000D02*
X95480000Y-53185000D01*
G75*
G02*
X95230000Y-53435000I-250000J0D01*
G01*
X94730000Y-53435000D01*
G75*
G02*
X94480000Y-53185000I0J250000D01*
G01*
X94480000Y-52235000D01*
G75*
G02*
X94730000Y-51985000I250000J0D01*
G01*
X95230000Y-51985000D01*
G75*
G02*
X95480000Y-52235000I0J-250000D01*
G01*
G37*
G36*
G01*
X97380000Y-52235000D02*
X97380000Y-53185000D01*
G75*
G02*
X97130000Y-53435000I-250000J0D01*
G01*
X96630000Y-53435000D01*
G75*
G02*
X96380000Y-53185000I0J250000D01*
G01*
X96380000Y-52235000D01*
G75*
G02*
X96630000Y-51985000I250000J0D01*
G01*
X97130000Y-51985000D01*
G75*
G02*
X97380000Y-52235000I0J-250000D01*
G01*
G37*
%TD*%
%TO.C,C1*%
G36*
G01*
X119310000Y-82105000D02*
X119310000Y-83055000D01*
G75*
G02*
X119060000Y-83305000I-250000J0D01*
G01*
X118560000Y-83305000D01*
G75*
G02*
X118310000Y-83055000I0J250000D01*
G01*
X118310000Y-82105000D01*
G75*
G02*
X118560000Y-81855000I250000J0D01*
G01*
X119060000Y-81855000D01*
G75*
G02*
X119310000Y-82105000I0J-250000D01*
G01*
G37*
G36*
G01*
X121210000Y-82105000D02*
X121210000Y-83055000D01*
G75*
G02*
X120960000Y-83305000I-250000J0D01*
G01*
X120460000Y-83305000D01*
G75*
G02*
X120210000Y-83055000I0J250000D01*
G01*
X120210000Y-82105000D01*
G75*
G02*
X120460000Y-81855000I250000J0D01*
G01*
X120960000Y-81855000D01*
G75*
G02*
X121210000Y-82105000I0J-250000D01*
G01*
G37*
%TD*%
D22*
%TO.C,D33*%
X158274000Y-35694000D03*
D23*
X145574000Y-35694000D03*
%TD*%
D24*
%TO.C,D8*%
X162084000Y-36456000D03*
D25*
X172244000Y-36456000D03*
%TD*%
D22*
%TO.C,D7*%
X177160000Y-133050000D03*
D23*
X189860000Y-133050000D03*
%TD*%
D22*
%TO.C,D6*%
X111340000Y-138400000D03*
D23*
X111340000Y-151100000D03*
%TD*%
D22*
%TO.C,D5*%
X73720000Y-62750000D03*
D23*
X61020000Y-62750000D03*
%TD*%
D13*
%TO.C,J38*%
X119225000Y-36710000D03*
X130655000Y-36710000D03*
D14*
X129385000Y-43060000D03*
D15*
X128115000Y-45600000D03*
X126845000Y-43060000D03*
X125575000Y-45600000D03*
X124305000Y-43060000D03*
X123035000Y-45600000D03*
X121765000Y-43060000D03*
X120495000Y-45600000D03*
%TD*%
D26*
%TO.C,J28*%
X196510000Y-37460000D03*
D27*
X202860000Y-37460000D03*
%TD*%
%TO.C,R88*%
G36*
G01*
X190720000Y-68349998D02*
X190720000Y-69250002D01*
G75*
G02*
X190470002Y-69500000I-249998J0D01*
G01*
X189944998Y-69500000D01*
G75*
G02*
X189695000Y-69250002I0J249998D01*
G01*
X189695000Y-68349998D01*
G75*
G02*
X189944998Y-68100000I249998J0D01*
G01*
X190470002Y-68100000D01*
G75*
G02*
X190720000Y-68349998I0J-249998D01*
G01*
G37*
G36*
G01*
X192545000Y-68349998D02*
X192545000Y-69250002D01*
G75*
G02*
X192295002Y-69500000I-249998J0D01*
G01*
X191769998Y-69500000D01*
G75*
G02*
X191520000Y-69250002I0J249998D01*
G01*
X191520000Y-68349998D01*
G75*
G02*
X191769998Y-68100000I249998J0D01*
G01*
X192295002Y-68100000D01*
G75*
G02*
X192545000Y-68349998I0J-249998D01*
G01*
G37*
%TD*%
%TO.C,R75*%
G36*
G01*
X246309802Y-132820000D02*
X245409798Y-132820000D01*
G75*
G02*
X245159800Y-132570002I0J249998D01*
G01*
X245159800Y-132044998D01*
G75*
G02*
X245409798Y-131795000I249998J0D01*
G01*
X246309802Y-131795000D01*
G75*
G02*
X246559800Y-132044998I0J-249998D01*
G01*
X246559800Y-132570002D01*
G75*
G02*
X246309802Y-132820000I-249998J0D01*
G01*
G37*
G36*
G01*
X246309802Y-134645000D02*
X245409798Y-134645000D01*
G75*
G02*
X245159800Y-134395002I0J249998D01*
G01*
X245159800Y-133869998D01*
G75*
G02*
X245409798Y-133620000I249998J0D01*
G01*
X246309802Y-133620000D01*
G75*
G02*
X246559800Y-133869998I0J-249998D01*
G01*
X246559800Y-134395002D01*
G75*
G02*
X246309802Y-134645000I-249998J0D01*
G01*
G37*
%TD*%
%TO.C,R74*%
G36*
G01*
X238949086Y-132820000D02*
X238049082Y-132820000D01*
G75*
G02*
X237799084Y-132570002I0J249998D01*
G01*
X237799084Y-132044998D01*
G75*
G02*
X238049082Y-131795000I249998J0D01*
G01*
X238949086Y-131795000D01*
G75*
G02*
X239199084Y-132044998I0J-249998D01*
G01*
X239199084Y-132570002D01*
G75*
G02*
X238949086Y-132820000I-249998J0D01*
G01*
G37*
G36*
G01*
X238949086Y-134645000D02*
X238049082Y-134645000D01*
G75*
G02*
X237799084Y-134395002I0J249998D01*
G01*
X237799084Y-133869998D01*
G75*
G02*
X238049082Y-133620000I249998J0D01*
G01*
X238949086Y-133620000D01*
G75*
G02*
X239199084Y-133869998I0J-249998D01*
G01*
X239199084Y-134395002D01*
G75*
G02*
X238949086Y-134645000I-249998J0D01*
G01*
G37*
%TD*%
%TO.C,R73*%
G36*
G01*
X231588372Y-132820000D02*
X230688368Y-132820000D01*
G75*
G02*
X230438370Y-132570002I0J249998D01*
G01*
X230438370Y-132044998D01*
G75*
G02*
X230688368Y-131795000I249998J0D01*
G01*
X231588372Y-131795000D01*
G75*
G02*
X231838370Y-132044998I0J-249998D01*
G01*
X231838370Y-132570002D01*
G75*
G02*
X231588372Y-132820000I-249998J0D01*
G01*
G37*
G36*
G01*
X231588372Y-134645000D02*
X230688368Y-134645000D01*
G75*
G02*
X230438370Y-134395002I0J249998D01*
G01*
X230438370Y-133869998D01*
G75*
G02*
X230688368Y-133620000I249998J0D01*
G01*
X231588372Y-133620000D01*
G75*
G02*
X231838370Y-133869998I0J-249998D01*
G01*
X231838370Y-134395002D01*
G75*
G02*
X231588372Y-134645000I-249998J0D01*
G01*
G37*
%TD*%
%TO.C,R72*%
G36*
G01*
X224227658Y-132820000D02*
X223327654Y-132820000D01*
G75*
G02*
X223077656Y-132570002I0J249998D01*
G01*
X223077656Y-132044998D01*
G75*
G02*
X223327654Y-131795000I249998J0D01*
G01*
X224227658Y-131795000D01*
G75*
G02*
X224477656Y-132044998I0J-249998D01*
G01*
X224477656Y-132570002D01*
G75*
G02*
X224227658Y-132820000I-249998J0D01*
G01*
G37*
G36*
G01*
X224227658Y-134645000D02*
X223327654Y-134645000D01*
G75*
G02*
X223077656Y-134395002I0J249998D01*
G01*
X223077656Y-133869998D01*
G75*
G02*
X223327654Y-133620000I249998J0D01*
G01*
X224227658Y-133620000D01*
G75*
G02*
X224477656Y-133869998I0J-249998D01*
G01*
X224477656Y-134395002D01*
G75*
G02*
X224227658Y-134645000I-249998J0D01*
G01*
G37*
%TD*%
%TO.C,R71*%
G36*
G01*
X216866944Y-132820000D02*
X215966940Y-132820000D01*
G75*
G02*
X215716942Y-132570002I0J249998D01*
G01*
X215716942Y-132044998D01*
G75*
G02*
X215966940Y-131795000I249998J0D01*
G01*
X216866944Y-131795000D01*
G75*
G02*
X217116942Y-132044998I0J-249998D01*
G01*
X217116942Y-132570002D01*
G75*
G02*
X216866944Y-132820000I-249998J0D01*
G01*
G37*
G36*
G01*
X216866944Y-134645000D02*
X215966940Y-134645000D01*
G75*
G02*
X215716942Y-134395002I0J249998D01*
G01*
X215716942Y-133869998D01*
G75*
G02*
X215966940Y-133620000I249998J0D01*
G01*
X216866944Y-133620000D01*
G75*
G02*
X217116942Y-133869998I0J-249998D01*
G01*
X217116942Y-134395002D01*
G75*
G02*
X216866944Y-134645000I-249998J0D01*
G01*
G37*
%TD*%
%TO.C,R70*%
G36*
G01*
X209506230Y-132820000D02*
X208606226Y-132820000D01*
G75*
G02*
X208356228Y-132570002I0J249998D01*
G01*
X208356228Y-132044998D01*
G75*
G02*
X208606226Y-131795000I249998J0D01*
G01*
X209506230Y-131795000D01*
G75*
G02*
X209756228Y-132044998I0J-249998D01*
G01*
X209756228Y-132570002D01*
G75*
G02*
X209506230Y-132820000I-249998J0D01*
G01*
G37*
G36*
G01*
X209506230Y-134645000D02*
X208606226Y-134645000D01*
G75*
G02*
X208356228Y-134395002I0J249998D01*
G01*
X208356228Y-133869998D01*
G75*
G02*
X208606226Y-133620000I249998J0D01*
G01*
X209506230Y-133620000D01*
G75*
G02*
X209756228Y-133869998I0J-249998D01*
G01*
X209756228Y-134395002D01*
G75*
G02*
X209506230Y-134645000I-249998J0D01*
G01*
G37*
%TD*%
%TO.C,R69*%
G36*
G01*
X202145516Y-132820000D02*
X201245512Y-132820000D01*
G75*
G02*
X200995514Y-132570002I0J249998D01*
G01*
X200995514Y-132044998D01*
G75*
G02*
X201245512Y-131795000I249998J0D01*
G01*
X202145516Y-131795000D01*
G75*
G02*
X202395514Y-132044998I0J-249998D01*
G01*
X202395514Y-132570002D01*
G75*
G02*
X202145516Y-132820000I-249998J0D01*
G01*
G37*
G36*
G01*
X202145516Y-134645000D02*
X201245512Y-134645000D01*
G75*
G02*
X200995514Y-134395002I0J249998D01*
G01*
X200995514Y-133869998D01*
G75*
G02*
X201245512Y-133620000I249998J0D01*
G01*
X202145516Y-133620000D01*
G75*
G02*
X202395514Y-133869998I0J-249998D01*
G01*
X202395514Y-134395002D01*
G75*
G02*
X202145516Y-134645000I-249998J0D01*
G01*
G37*
%TD*%
%TO.C,R68*%
G36*
G01*
X194784802Y-132820000D02*
X193884798Y-132820000D01*
G75*
G02*
X193634800Y-132570002I0J249998D01*
G01*
X193634800Y-132044998D01*
G75*
G02*
X193884798Y-131795000I249998J0D01*
G01*
X194784802Y-131795000D01*
G75*
G02*
X195034800Y-132044998I0J-249998D01*
G01*
X195034800Y-132570002D01*
G75*
G02*
X194784802Y-132820000I-249998J0D01*
G01*
G37*
G36*
G01*
X194784802Y-134645000D02*
X193884798Y-134645000D01*
G75*
G02*
X193634800Y-134395002I0J249998D01*
G01*
X193634800Y-133869998D01*
G75*
G02*
X193884798Y-133620000I249998J0D01*
G01*
X194784802Y-133620000D01*
G75*
G02*
X195034800Y-133869998I0J-249998D01*
G01*
X195034800Y-134395002D01*
G75*
G02*
X194784802Y-134645000I-249998J0D01*
G01*
G37*
%TD*%
%TO.C,R67*%
G36*
G01*
X167629802Y-132740000D02*
X166729798Y-132740000D01*
G75*
G02*
X166479800Y-132490002I0J249998D01*
G01*
X166479800Y-131964998D01*
G75*
G02*
X166729798Y-131715000I249998J0D01*
G01*
X167629802Y-131715000D01*
G75*
G02*
X167879800Y-131964998I0J-249998D01*
G01*
X167879800Y-132490002D01*
G75*
G02*
X167629802Y-132740000I-249998J0D01*
G01*
G37*
G36*
G01*
X167629802Y-134565000D02*
X166729798Y-134565000D01*
G75*
G02*
X166479800Y-134315002I0J249998D01*
G01*
X166479800Y-133789998D01*
G75*
G02*
X166729798Y-133540000I249998J0D01*
G01*
X167629802Y-133540000D01*
G75*
G02*
X167879800Y-133789998I0J-249998D01*
G01*
X167879800Y-134315002D01*
G75*
G02*
X167629802Y-134565000I-249998J0D01*
G01*
G37*
%TD*%
%TO.C,R66*%
G36*
G01*
X160269086Y-132740000D02*
X159369082Y-132740000D01*
G75*
G02*
X159119084Y-132490002I0J249998D01*
G01*
X159119084Y-131964998D01*
G75*
G02*
X159369082Y-131715000I249998J0D01*
G01*
X160269086Y-131715000D01*
G75*
G02*
X160519084Y-131964998I0J-249998D01*
G01*
X160519084Y-132490002D01*
G75*
G02*
X160269086Y-132740000I-249998J0D01*
G01*
G37*
G36*
G01*
X160269086Y-134565000D02*
X159369082Y-134565000D01*
G75*
G02*
X159119084Y-134315002I0J249998D01*
G01*
X159119084Y-133789998D01*
G75*
G02*
X159369082Y-133540000I249998J0D01*
G01*
X160269086Y-133540000D01*
G75*
G02*
X160519084Y-133789998I0J-249998D01*
G01*
X160519084Y-134315002D01*
G75*
G02*
X160269086Y-134565000I-249998J0D01*
G01*
G37*
%TD*%
%TO.C,R65*%
G36*
G01*
X152908372Y-132740000D02*
X152008368Y-132740000D01*
G75*
G02*
X151758370Y-132490002I0J249998D01*
G01*
X151758370Y-131964998D01*
G75*
G02*
X152008368Y-131715000I249998J0D01*
G01*
X152908372Y-131715000D01*
G75*
G02*
X153158370Y-131964998I0J-249998D01*
G01*
X153158370Y-132490002D01*
G75*
G02*
X152908372Y-132740000I-249998J0D01*
G01*
G37*
G36*
G01*
X152908372Y-134565000D02*
X152008368Y-134565000D01*
G75*
G02*
X151758370Y-134315002I0J249998D01*
G01*
X151758370Y-133789998D01*
G75*
G02*
X152008368Y-133540000I249998J0D01*
G01*
X152908372Y-133540000D01*
G75*
G02*
X153158370Y-133789998I0J-249998D01*
G01*
X153158370Y-134315002D01*
G75*
G02*
X152908372Y-134565000I-249998J0D01*
G01*
G37*
%TD*%
%TO.C,R64*%
G36*
G01*
X145547658Y-132740000D02*
X144647654Y-132740000D01*
G75*
G02*
X144397656Y-132490002I0J249998D01*
G01*
X144397656Y-131964998D01*
G75*
G02*
X144647654Y-131715000I249998J0D01*
G01*
X145547658Y-131715000D01*
G75*
G02*
X145797656Y-131964998I0J-249998D01*
G01*
X145797656Y-132490002D01*
G75*
G02*
X145547658Y-132740000I-249998J0D01*
G01*
G37*
G36*
G01*
X145547658Y-134565000D02*
X144647654Y-134565000D01*
G75*
G02*
X144397656Y-134315002I0J249998D01*
G01*
X144397656Y-133789998D01*
G75*
G02*
X144647654Y-133540000I249998J0D01*
G01*
X145547658Y-133540000D01*
G75*
G02*
X145797656Y-133789998I0J-249998D01*
G01*
X145797656Y-134315002D01*
G75*
G02*
X145547658Y-134565000I-249998J0D01*
G01*
G37*
%TD*%
%TO.C,R63*%
G36*
G01*
X138186944Y-132740000D02*
X137286940Y-132740000D01*
G75*
G02*
X137036942Y-132490002I0J249998D01*
G01*
X137036942Y-131964998D01*
G75*
G02*
X137286940Y-131715000I249998J0D01*
G01*
X138186944Y-131715000D01*
G75*
G02*
X138436942Y-131964998I0J-249998D01*
G01*
X138436942Y-132490002D01*
G75*
G02*
X138186944Y-132740000I-249998J0D01*
G01*
G37*
G36*
G01*
X138186944Y-134565000D02*
X137286940Y-134565000D01*
G75*
G02*
X137036942Y-134315002I0J249998D01*
G01*
X137036942Y-133789998D01*
G75*
G02*
X137286940Y-133540000I249998J0D01*
G01*
X138186944Y-133540000D01*
G75*
G02*
X138436942Y-133789998I0J-249998D01*
G01*
X138436942Y-134315002D01*
G75*
G02*
X138186944Y-134565000I-249998J0D01*
G01*
G37*
%TD*%
%TO.C,R62*%
G36*
G01*
X130826230Y-132740000D02*
X129926226Y-132740000D01*
G75*
G02*
X129676228Y-132490002I0J249998D01*
G01*
X129676228Y-131964998D01*
G75*
G02*
X129926226Y-131715000I249998J0D01*
G01*
X130826230Y-131715000D01*
G75*
G02*
X131076228Y-131964998I0J-249998D01*
G01*
X131076228Y-132490002D01*
G75*
G02*
X130826230Y-132740000I-249998J0D01*
G01*
G37*
G36*
G01*
X130826230Y-134565000D02*
X129926226Y-134565000D01*
G75*
G02*
X129676228Y-134315002I0J249998D01*
G01*
X129676228Y-133789998D01*
G75*
G02*
X129926226Y-133540000I249998J0D01*
G01*
X130826230Y-133540000D01*
G75*
G02*
X131076228Y-133789998I0J-249998D01*
G01*
X131076228Y-134315002D01*
G75*
G02*
X130826230Y-134565000I-249998J0D01*
G01*
G37*
%TD*%
%TO.C,R61*%
G36*
G01*
X123465516Y-132740000D02*
X122565512Y-132740000D01*
G75*
G02*
X122315514Y-132490002I0J249998D01*
G01*
X122315514Y-131964998D01*
G75*
G02*
X122565512Y-131715000I249998J0D01*
G01*
X123465516Y-131715000D01*
G75*
G02*
X123715514Y-131964998I0J-249998D01*
G01*
X123715514Y-132490002D01*
G75*
G02*
X123465516Y-132740000I-249998J0D01*
G01*
G37*
G36*
G01*
X123465516Y-134565000D02*
X122565512Y-134565000D01*
G75*
G02*
X122315514Y-134315002I0J249998D01*
G01*
X122315514Y-133789998D01*
G75*
G02*
X122565512Y-133540000I249998J0D01*
G01*
X123465516Y-133540000D01*
G75*
G02*
X123715514Y-133789998I0J-249998D01*
G01*
X123715514Y-134315002D01*
G75*
G02*
X123465516Y-134565000I-249998J0D01*
G01*
G37*
%TD*%
%TO.C,R60*%
G36*
G01*
X116104802Y-132740000D02*
X115204798Y-132740000D01*
G75*
G02*
X114954800Y-132490002I0J249998D01*
G01*
X114954800Y-131964998D01*
G75*
G02*
X115204798Y-131715000I249998J0D01*
G01*
X116104802Y-131715000D01*
G75*
G02*
X116354800Y-131964998I0J-249998D01*
G01*
X116354800Y-132490002D01*
G75*
G02*
X116104802Y-132740000I-249998J0D01*
G01*
G37*
G36*
G01*
X116104802Y-134565000D02*
X115204798Y-134565000D01*
G75*
G02*
X114954800Y-134315002I0J249998D01*
G01*
X114954800Y-133789998D01*
G75*
G02*
X115204798Y-133540000I249998J0D01*
G01*
X116104802Y-133540000D01*
G75*
G02*
X116354800Y-133789998I0J-249998D01*
G01*
X116354800Y-134315002D01*
G75*
G02*
X116104802Y-134565000I-249998J0D01*
G01*
G37*
%TD*%
%TO.C,R59*%
G36*
G01*
X79399286Y-119585002D02*
X79399286Y-118684998D01*
G75*
G02*
X79649284Y-118435000I249998J0D01*
G01*
X80174288Y-118435000D01*
G75*
G02*
X80424286Y-118684998I0J-249998D01*
G01*
X80424286Y-119585002D01*
G75*
G02*
X80174288Y-119835000I-249998J0D01*
G01*
X79649284Y-119835000D01*
G75*
G02*
X79399286Y-119585002I0J249998D01*
G01*
G37*
G36*
G01*
X77574286Y-119585002D02*
X77574286Y-118684998D01*
G75*
G02*
X77824284Y-118435000I249998J0D01*
G01*
X78349288Y-118435000D01*
G75*
G02*
X78599286Y-118684998I0J-249998D01*
G01*
X78599286Y-119585002D01*
G75*
G02*
X78349288Y-119835000I-249998J0D01*
G01*
X77824284Y-119835000D01*
G75*
G02*
X77574286Y-119585002I0J249998D01*
G01*
G37*
%TD*%
%TO.C,R58*%
G36*
G01*
X79150000Y-112240002D02*
X79150000Y-111339998D01*
G75*
G02*
X79399998Y-111090000I249998J0D01*
G01*
X79925002Y-111090000D01*
G75*
G02*
X80175000Y-111339998I0J-249998D01*
G01*
X80175000Y-112240002D01*
G75*
G02*
X79925002Y-112490000I-249998J0D01*
G01*
X79399998Y-112490000D01*
G75*
G02*
X79150000Y-112240002I0J249998D01*
G01*
G37*
G36*
G01*
X77325000Y-112240002D02*
X77325000Y-111339998D01*
G75*
G02*
X77574998Y-111090000I249998J0D01*
G01*
X78100002Y-111090000D01*
G75*
G02*
X78350000Y-111339998I0J-249998D01*
G01*
X78350000Y-112240002D01*
G75*
G02*
X78100002Y-112490000I-249998J0D01*
G01*
X77574998Y-112490000D01*
G75*
G02*
X77325000Y-112240002I0J249998D01*
G01*
G37*
%TD*%
%TO.C,R57*%
G36*
G01*
X79399286Y-104863572D02*
X79399286Y-103963568D01*
G75*
G02*
X79649284Y-103713570I249998J0D01*
G01*
X80174288Y-103713570D01*
G75*
G02*
X80424286Y-103963568I0J-249998D01*
G01*
X80424286Y-104863572D01*
G75*
G02*
X80174288Y-105113570I-249998J0D01*
G01*
X79649284Y-105113570D01*
G75*
G02*
X79399286Y-104863572I0J249998D01*
G01*
G37*
G36*
G01*
X77574286Y-104863572D02*
X77574286Y-103963568D01*
G75*
G02*
X77824284Y-103713570I249998J0D01*
G01*
X78349288Y-103713570D01*
G75*
G02*
X78599286Y-103963568I0J-249998D01*
G01*
X78599286Y-104863572D01*
G75*
G02*
X78349288Y-105113570I-249998J0D01*
G01*
X77824284Y-105113570D01*
G75*
G02*
X77574286Y-104863572I0J249998D01*
G01*
G37*
%TD*%
%TO.C,R56*%
G36*
G01*
X79399286Y-97502858D02*
X79399286Y-96602854D01*
G75*
G02*
X79649284Y-96352856I249998J0D01*
G01*
X80174288Y-96352856D01*
G75*
G02*
X80424286Y-96602854I0J-249998D01*
G01*
X80424286Y-97502858D01*
G75*
G02*
X80174288Y-97752856I-249998J0D01*
G01*
X79649284Y-97752856D01*
G75*
G02*
X79399286Y-97502858I0J249998D01*
G01*
G37*
G36*
G01*
X77574286Y-97502858D02*
X77574286Y-96602854D01*
G75*
G02*
X77824284Y-96352856I249998J0D01*
G01*
X78349288Y-96352856D01*
G75*
G02*
X78599286Y-96602854I0J-249998D01*
G01*
X78599286Y-97502858D01*
G75*
G02*
X78349288Y-97752856I-249998J0D01*
G01*
X77824284Y-97752856D01*
G75*
G02*
X77574286Y-97502858I0J249998D01*
G01*
G37*
%TD*%
%TO.C,R55*%
G36*
G01*
X79399286Y-90142144D02*
X79399286Y-89242140D01*
G75*
G02*
X79649284Y-88992142I249998J0D01*
G01*
X80174288Y-88992142D01*
G75*
G02*
X80424286Y-89242140I0J-249998D01*
G01*
X80424286Y-90142144D01*
G75*
G02*
X80174288Y-90392142I-249998J0D01*
G01*
X79649284Y-90392142D01*
G75*
G02*
X79399286Y-90142144I0J249998D01*
G01*
G37*
G36*
G01*
X77574286Y-90142144D02*
X77574286Y-89242140D01*
G75*
G02*
X77824284Y-88992142I249998J0D01*
G01*
X78349288Y-88992142D01*
G75*
G02*
X78599286Y-89242140I0J-249998D01*
G01*
X78599286Y-90142144D01*
G75*
G02*
X78349288Y-90392142I-249998J0D01*
G01*
X77824284Y-90392142D01*
G75*
G02*
X77574286Y-90142144I0J249998D01*
G01*
G37*
%TD*%
%TO.C,R54*%
G36*
G01*
X79399286Y-82781430D02*
X79399286Y-81881426D01*
G75*
G02*
X79649284Y-81631428I249998J0D01*
G01*
X80174288Y-81631428D01*
G75*
G02*
X80424286Y-81881426I0J-249998D01*
G01*
X80424286Y-82781430D01*
G75*
G02*
X80174288Y-83031428I-249998J0D01*
G01*
X79649284Y-83031428D01*
G75*
G02*
X79399286Y-82781430I0J249998D01*
G01*
G37*
G36*
G01*
X77574286Y-82781430D02*
X77574286Y-81881426D01*
G75*
G02*
X77824284Y-81631428I249998J0D01*
G01*
X78349288Y-81631428D01*
G75*
G02*
X78599286Y-81881426I0J-249998D01*
G01*
X78599286Y-82781430D01*
G75*
G02*
X78349288Y-83031428I-249998J0D01*
G01*
X77824284Y-83031428D01*
G75*
G02*
X77574286Y-82781430I0J249998D01*
G01*
G37*
%TD*%
%TO.C,R53*%
G36*
G01*
X79399286Y-75420716D02*
X79399286Y-74520712D01*
G75*
G02*
X79649284Y-74270714I249998J0D01*
G01*
X80174288Y-74270714D01*
G75*
G02*
X80424286Y-74520712I0J-249998D01*
G01*
X80424286Y-75420716D01*
G75*
G02*
X80174288Y-75670714I-249998J0D01*
G01*
X79649284Y-75670714D01*
G75*
G02*
X79399286Y-75420716I0J249998D01*
G01*
G37*
G36*
G01*
X77574286Y-75420716D02*
X77574286Y-74520712D01*
G75*
G02*
X77824284Y-74270714I249998J0D01*
G01*
X78349288Y-74270714D01*
G75*
G02*
X78599286Y-74520712I0J-249998D01*
G01*
X78599286Y-75420716D01*
G75*
G02*
X78349288Y-75670714I-249998J0D01*
G01*
X77824284Y-75670714D01*
G75*
G02*
X77574286Y-75420716I0J249998D01*
G01*
G37*
%TD*%
%TO.C,R52*%
G36*
G01*
X79399286Y-68060002D02*
X79399286Y-67159998D01*
G75*
G02*
X79649284Y-66910000I249998J0D01*
G01*
X80174288Y-66910000D01*
G75*
G02*
X80424286Y-67159998I0J-249998D01*
G01*
X80424286Y-68060002D01*
G75*
G02*
X80174288Y-68310000I-249998J0D01*
G01*
X79649284Y-68310000D01*
G75*
G02*
X79399286Y-68060002I0J249998D01*
G01*
G37*
G36*
G01*
X77574286Y-68060002D02*
X77574286Y-67159998D01*
G75*
G02*
X77824284Y-66910000I249998J0D01*
G01*
X78349288Y-66910000D01*
G75*
G02*
X78599286Y-67159998I0J-249998D01*
G01*
X78599286Y-68060002D01*
G75*
G02*
X78349288Y-68310000I-249998J0D01*
G01*
X77824284Y-68310000D01*
G75*
G02*
X77574286Y-68060002I0J249998D01*
G01*
G37*
%TD*%
%TO.C,R51*%
G36*
G01*
X81200000Y-134550002D02*
X81200000Y-133649998D01*
G75*
G02*
X81449998Y-133400000I249998J0D01*
G01*
X81975002Y-133400000D01*
G75*
G02*
X82225000Y-133649998I0J-249998D01*
G01*
X82225000Y-134550002D01*
G75*
G02*
X81975002Y-134800000I-249998J0D01*
G01*
X81449998Y-134800000D01*
G75*
G02*
X81200000Y-134550002I0J249998D01*
G01*
G37*
G36*
G01*
X79375000Y-134550002D02*
X79375000Y-133649998D01*
G75*
G02*
X79624998Y-133400000I249998J0D01*
G01*
X80150002Y-133400000D01*
G75*
G02*
X80400000Y-133649998I0J-249998D01*
G01*
X80400000Y-134550002D01*
G75*
G02*
X80150002Y-134800000I-249998J0D01*
G01*
X79624998Y-134800000D01*
G75*
G02*
X79375000Y-134550002I0J249998D01*
G01*
G37*
%TD*%
%TO.C,R50*%
G36*
G01*
X73379998Y-133720000D02*
X74280002Y-133720000D01*
G75*
G02*
X74530000Y-133969998I0J-249998D01*
G01*
X74530000Y-134495002D01*
G75*
G02*
X74280002Y-134745000I-249998J0D01*
G01*
X73379998Y-134745000D01*
G75*
G02*
X73130000Y-134495002I0J249998D01*
G01*
X73130000Y-133969998D01*
G75*
G02*
X73379998Y-133720000I249998J0D01*
G01*
G37*
G36*
G01*
X73379998Y-131895000D02*
X74280002Y-131895000D01*
G75*
G02*
X74530000Y-132144998I0J-249998D01*
G01*
X74530000Y-132670002D01*
G75*
G02*
X74280002Y-132920000I-249998J0D01*
G01*
X73379998Y-132920000D01*
G75*
G02*
X73130000Y-132670002I0J249998D01*
G01*
X73130000Y-132144998D01*
G75*
G02*
X73379998Y-131895000I249998J0D01*
G01*
G37*
%TD*%
%TO.C,R49*%
G36*
G01*
X119558000Y-49060002D02*
X119558000Y-48159998D01*
G75*
G02*
X119807998Y-47910000I249998J0D01*
G01*
X120333002Y-47910000D01*
G75*
G02*
X120583000Y-48159998I0J-249998D01*
G01*
X120583000Y-49060002D01*
G75*
G02*
X120333002Y-49310000I-249998J0D01*
G01*
X119807998Y-49310000D01*
G75*
G02*
X119558000Y-49060002I0J249998D01*
G01*
G37*
G36*
G01*
X117733000Y-49060002D02*
X117733000Y-48159998D01*
G75*
G02*
X117982998Y-47910000I249998J0D01*
G01*
X118508002Y-47910000D01*
G75*
G02*
X118758000Y-48159998I0J-249998D01*
G01*
X118758000Y-49060002D01*
G75*
G02*
X118508002Y-49310000I-249998J0D01*
G01*
X117982998Y-49310000D01*
G75*
G02*
X117733000Y-49060002I0J249998D01*
G01*
G37*
%TD*%
%TO.C,R48*%
G36*
G01*
X131170000Y-48159998D02*
X131170000Y-49060002D01*
G75*
G02*
X130920002Y-49310000I-249998J0D01*
G01*
X130394998Y-49310000D01*
G75*
G02*
X130145000Y-49060002I0J249998D01*
G01*
X130145000Y-48159998D01*
G75*
G02*
X130394998Y-47910000I249998J0D01*
G01*
X130920002Y-47910000D01*
G75*
G02*
X131170000Y-48159998I0J-249998D01*
G01*
G37*
G36*
G01*
X132995000Y-48159998D02*
X132995000Y-49060002D01*
G75*
G02*
X132745002Y-49310000I-249998J0D01*
G01*
X132219998Y-49310000D01*
G75*
G02*
X131970000Y-49060002I0J249998D01*
G01*
X131970000Y-48159998D01*
G75*
G02*
X132219998Y-47910000I249998J0D01*
G01*
X132745002Y-47910000D01*
G75*
G02*
X132995000Y-48159998I0J-249998D01*
G01*
G37*
%TD*%
%TO.C,R47*%
G36*
G01*
X100685000Y-49060002D02*
X100685000Y-48159998D01*
G75*
G02*
X100934998Y-47910000I249998J0D01*
G01*
X101460002Y-47910000D01*
G75*
G02*
X101710000Y-48159998I0J-249998D01*
G01*
X101710000Y-49060002D01*
G75*
G02*
X101460002Y-49310000I-249998J0D01*
G01*
X100934998Y-49310000D01*
G75*
G02*
X100685000Y-49060002I0J249998D01*
G01*
G37*
G36*
G01*
X98860000Y-49060002D02*
X98860000Y-48159998D01*
G75*
G02*
X99109998Y-47910000I249998J0D01*
G01*
X99635002Y-47910000D01*
G75*
G02*
X99885000Y-48159998I0J-249998D01*
G01*
X99885000Y-49060002D01*
G75*
G02*
X99635002Y-49310000I-249998J0D01*
G01*
X99109998Y-49310000D01*
G75*
G02*
X98860000Y-49060002I0J249998D01*
G01*
G37*
%TD*%
%TO.C,R46*%
G36*
G01*
X112314000Y-48159998D02*
X112314000Y-49060002D01*
G75*
G02*
X112064002Y-49310000I-249998J0D01*
G01*
X111538998Y-49310000D01*
G75*
G02*
X111289000Y-49060002I0J249998D01*
G01*
X111289000Y-48159998D01*
G75*
G02*
X111538998Y-47910000I249998J0D01*
G01*
X112064002Y-47910000D01*
G75*
G02*
X112314000Y-48159998I0J-249998D01*
G01*
G37*
G36*
G01*
X114139000Y-48159998D02*
X114139000Y-49060002D01*
G75*
G02*
X113889002Y-49310000I-249998J0D01*
G01*
X113363998Y-49310000D01*
G75*
G02*
X113114000Y-49060002I0J249998D01*
G01*
X113114000Y-48159998D01*
G75*
G02*
X113363998Y-47910000I249998J0D01*
G01*
X113889002Y-47910000D01*
G75*
G02*
X114139000Y-48159998I0J-249998D01*
G01*
G37*
%TD*%
%TO.C,R45*%
G36*
G01*
X126828332Y-48159998D02*
X126828332Y-49060002D01*
G75*
G02*
X126578334Y-49310000I-249998J0D01*
G01*
X126053330Y-49310000D01*
G75*
G02*
X125803332Y-49060002I0J249998D01*
G01*
X125803332Y-48159998D01*
G75*
G02*
X126053330Y-47910000I249998J0D01*
G01*
X126578334Y-47910000D01*
G75*
G02*
X126828332Y-48159998I0J-249998D01*
G01*
G37*
G36*
G01*
X128653332Y-48159998D02*
X128653332Y-49060002D01*
G75*
G02*
X128403334Y-49310000I-249998J0D01*
G01*
X127878330Y-49310000D01*
G75*
G02*
X127628332Y-49060002I0J249998D01*
G01*
X127628332Y-48159998D01*
G75*
G02*
X127878330Y-47910000I249998J0D01*
G01*
X128403334Y-47910000D01*
G75*
G02*
X128653332Y-48159998I0J-249998D01*
G01*
G37*
%TD*%
%TO.C,R44*%
G36*
G01*
X122486666Y-48159998D02*
X122486666Y-49060002D01*
G75*
G02*
X122236668Y-49310000I-249998J0D01*
G01*
X121711664Y-49310000D01*
G75*
G02*
X121461666Y-49060002I0J249998D01*
G01*
X121461666Y-48159998D01*
G75*
G02*
X121711664Y-47910000I249998J0D01*
G01*
X122236668Y-47910000D01*
G75*
G02*
X122486666Y-48159998I0J-249998D01*
G01*
G37*
G36*
G01*
X124311666Y-48159998D02*
X124311666Y-49060002D01*
G75*
G02*
X124061668Y-49310000I-249998J0D01*
G01*
X123536664Y-49310000D01*
G75*
G02*
X123286666Y-49060002I0J249998D01*
G01*
X123286666Y-48159998D01*
G75*
G02*
X123536664Y-47910000I249998J0D01*
G01*
X124061668Y-47910000D01*
G75*
G02*
X124311666Y-48159998I0J-249998D01*
G01*
G37*
%TD*%
%TO.C,R43*%
G36*
G01*
X108568332Y-48159998D02*
X108568332Y-49060002D01*
G75*
G02*
X108318334Y-49310000I-249998J0D01*
G01*
X107793330Y-49310000D01*
G75*
G02*
X107543332Y-49060002I0J249998D01*
G01*
X107543332Y-48159998D01*
G75*
G02*
X107793330Y-47910000I249998J0D01*
G01*
X108318334Y-47910000D01*
G75*
G02*
X108568332Y-48159998I0J-249998D01*
G01*
G37*
G36*
G01*
X110393332Y-48159998D02*
X110393332Y-49060002D01*
G75*
G02*
X110143334Y-49310000I-249998J0D01*
G01*
X109618330Y-49310000D01*
G75*
G02*
X109368332Y-49060002I0J249998D01*
G01*
X109368332Y-48159998D01*
G75*
G02*
X109618330Y-47910000I249998J0D01*
G01*
X110143334Y-47910000D01*
G75*
G02*
X110393332Y-48159998I0J-249998D01*
G01*
G37*
%TD*%
%TO.C,R42*%
G36*
G01*
X104226666Y-48159998D02*
X104226666Y-49060002D01*
G75*
G02*
X103976668Y-49310000I-249998J0D01*
G01*
X103451664Y-49310000D01*
G75*
G02*
X103201666Y-49060002I0J249998D01*
G01*
X103201666Y-48159998D01*
G75*
G02*
X103451664Y-47910000I249998J0D01*
G01*
X103976668Y-47910000D01*
G75*
G02*
X104226666Y-48159998I0J-249998D01*
G01*
G37*
G36*
G01*
X106051666Y-48159998D02*
X106051666Y-49060002D01*
G75*
G02*
X105801668Y-49310000I-249998J0D01*
G01*
X105276664Y-49310000D01*
G75*
G02*
X105026666Y-49060002I0J249998D01*
G01*
X105026666Y-48159998D01*
G75*
G02*
X105276664Y-47910000I249998J0D01*
G01*
X105801668Y-47910000D01*
G75*
G02*
X106051666Y-48159998I0J-249998D01*
G01*
G37*
%TD*%
%TO.C,R41*%
G36*
G01*
X82130000Y-49060002D02*
X82130000Y-48159998D01*
G75*
G02*
X82379998Y-47910000I249998J0D01*
G01*
X82905002Y-47910000D01*
G75*
G02*
X83155000Y-48159998I0J-249998D01*
G01*
X83155000Y-49060002D01*
G75*
G02*
X82905002Y-49310000I-249998J0D01*
G01*
X82379998Y-49310000D01*
G75*
G02*
X82130000Y-49060002I0J249998D01*
G01*
G37*
G36*
G01*
X80305000Y-49060002D02*
X80305000Y-48159998D01*
G75*
G02*
X80554998Y-47910000I249998J0D01*
G01*
X81080002Y-47910000D01*
G75*
G02*
X81330000Y-48159998I0J-249998D01*
G01*
X81330000Y-49060002D01*
G75*
G02*
X81080002Y-49310000I-249998J0D01*
G01*
X80554998Y-49310000D01*
G75*
G02*
X80305000Y-49060002I0J249998D01*
G01*
G37*
%TD*%
%TO.C,R40*%
G36*
G01*
X94355000Y-48159998D02*
X94355000Y-49060002D01*
G75*
G02*
X94105002Y-49310000I-249998J0D01*
G01*
X93579998Y-49310000D01*
G75*
G02*
X93330000Y-49060002I0J249998D01*
G01*
X93330000Y-48159998D01*
G75*
G02*
X93579998Y-47910000I249998J0D01*
G01*
X94105002Y-47910000D01*
G75*
G02*
X94355000Y-48159998I0J-249998D01*
G01*
G37*
G36*
G01*
X96180000Y-48159998D02*
X96180000Y-49060002D01*
G75*
G02*
X95930002Y-49310000I-249998J0D01*
G01*
X95404998Y-49310000D01*
G75*
G02*
X95155000Y-49060002I0J249998D01*
G01*
X95155000Y-48159998D01*
G75*
G02*
X95404998Y-47910000I249998J0D01*
G01*
X95930002Y-47910000D01*
G75*
G02*
X96180000Y-48159998I0J-249998D01*
G01*
G37*
%TD*%
%TO.C,R39*%
G36*
G01*
X160860000Y-70840002D02*
X160860000Y-69939998D01*
G75*
G02*
X161109998Y-69690000I249998J0D01*
G01*
X161635002Y-69690000D01*
G75*
G02*
X161885000Y-69939998I0J-249998D01*
G01*
X161885000Y-70840002D01*
G75*
G02*
X161635002Y-71090000I-249998J0D01*
G01*
X161109998Y-71090000D01*
G75*
G02*
X160860000Y-70840002I0J249998D01*
G01*
G37*
G36*
G01*
X159035000Y-70840002D02*
X159035000Y-69939998D01*
G75*
G02*
X159284998Y-69690000I249998J0D01*
G01*
X159810002Y-69690000D01*
G75*
G02*
X160060000Y-69939998I0J-249998D01*
G01*
X160060000Y-70840002D01*
G75*
G02*
X159810002Y-71090000I-249998J0D01*
G01*
X159284998Y-71090000D01*
G75*
G02*
X159035000Y-70840002I0J249998D01*
G01*
G37*
%TD*%
%TO.C,R38*%
G36*
G01*
X173085000Y-69939998D02*
X173085000Y-70840002D01*
G75*
G02*
X172835002Y-71090000I-249998J0D01*
G01*
X172309998Y-71090000D01*
G75*
G02*
X172060000Y-70840002I0J249998D01*
G01*
X172060000Y-69939998D01*
G75*
G02*
X172309998Y-69690000I249998J0D01*
G01*
X172835002Y-69690000D01*
G75*
G02*
X173085000Y-69939998I0J-249998D01*
G01*
G37*
G36*
G01*
X174910000Y-69939998D02*
X174910000Y-70840002D01*
G75*
G02*
X174660002Y-71090000I-249998J0D01*
G01*
X174134998Y-71090000D01*
G75*
G02*
X173885000Y-70840002I0J249998D01*
G01*
X173885000Y-69939998D01*
G75*
G02*
X174134998Y-69690000I249998J0D01*
G01*
X174660002Y-69690000D01*
G75*
G02*
X174910000Y-69939998I0J-249998D01*
G01*
G37*
%TD*%
%TO.C,R37*%
G36*
G01*
X142440000Y-70840002D02*
X142440000Y-69939998D01*
G75*
G02*
X142689998Y-69690000I249998J0D01*
G01*
X143215002Y-69690000D01*
G75*
G02*
X143465000Y-69939998I0J-249998D01*
G01*
X143465000Y-70840002D01*
G75*
G02*
X143215002Y-71090000I-249998J0D01*
G01*
X142689998Y-71090000D01*
G75*
G02*
X142440000Y-70840002I0J249998D01*
G01*
G37*
G36*
G01*
X140615000Y-70840002D02*
X140615000Y-69939998D01*
G75*
G02*
X140864998Y-69690000I249998J0D01*
G01*
X141390002Y-69690000D01*
G75*
G02*
X141640000Y-69939998I0J-249998D01*
G01*
X141640000Y-70840002D01*
G75*
G02*
X141390002Y-71090000I-249998J0D01*
G01*
X140864998Y-71090000D01*
G75*
G02*
X140615000Y-70840002I0J249998D01*
G01*
G37*
%TD*%
%TO.C,R36*%
G36*
G01*
X154665000Y-69939998D02*
X154665000Y-70840002D01*
G75*
G02*
X154415002Y-71090000I-249998J0D01*
G01*
X153889998Y-71090000D01*
G75*
G02*
X153640000Y-70840002I0J249998D01*
G01*
X153640000Y-69939998D01*
G75*
G02*
X153889998Y-69690000I249998J0D01*
G01*
X154415002Y-69690000D01*
G75*
G02*
X154665000Y-69939998I0J-249998D01*
G01*
G37*
G36*
G01*
X156490000Y-69939998D02*
X156490000Y-70840002D01*
G75*
G02*
X156240002Y-71090000I-249998J0D01*
G01*
X155714998Y-71090000D01*
G75*
G02*
X155465000Y-70840002I0J249998D01*
G01*
X155465000Y-69939998D01*
G75*
G02*
X155714998Y-69690000I249998J0D01*
G01*
X156240002Y-69690000D01*
G75*
G02*
X156490000Y-69939998I0J-249998D01*
G01*
G37*
%TD*%
%TO.C,R35*%
G36*
G01*
X90013332Y-48159998D02*
X90013332Y-49060002D01*
G75*
G02*
X89763334Y-49310000I-249998J0D01*
G01*
X89238330Y-49310000D01*
G75*
G02*
X88988332Y-49060002I0J249998D01*
G01*
X88988332Y-48159998D01*
G75*
G02*
X89238330Y-47910000I249998J0D01*
G01*
X89763334Y-47910000D01*
G75*
G02*
X90013332Y-48159998I0J-249998D01*
G01*
G37*
G36*
G01*
X91838332Y-48159998D02*
X91838332Y-49060002D01*
G75*
G02*
X91588334Y-49310000I-249998J0D01*
G01*
X91063330Y-49310000D01*
G75*
G02*
X90813332Y-49060002I0J249998D01*
G01*
X90813332Y-48159998D01*
G75*
G02*
X91063330Y-47910000I249998J0D01*
G01*
X91588334Y-47910000D01*
G75*
G02*
X91838332Y-48159998I0J-249998D01*
G01*
G37*
%TD*%
%TO.C,R34*%
G36*
G01*
X85671666Y-48159998D02*
X85671666Y-49060002D01*
G75*
G02*
X85421668Y-49310000I-249998J0D01*
G01*
X84896664Y-49310000D01*
G75*
G02*
X84646666Y-49060002I0J249998D01*
G01*
X84646666Y-48159998D01*
G75*
G02*
X84896664Y-47910000I249998J0D01*
G01*
X85421668Y-47910000D01*
G75*
G02*
X85671666Y-48159998I0J-249998D01*
G01*
G37*
G36*
G01*
X87496666Y-48159998D02*
X87496666Y-49060002D01*
G75*
G02*
X87246668Y-49310000I-249998J0D01*
G01*
X86721664Y-49310000D01*
G75*
G02*
X86471666Y-49060002I0J249998D01*
G01*
X86471666Y-48159998D01*
G75*
G02*
X86721664Y-47910000I249998J0D01*
G01*
X87246668Y-47910000D01*
G75*
G02*
X87496666Y-48159998I0J-249998D01*
G01*
G37*
%TD*%
%TO.C,R33*%
G36*
G01*
X168743332Y-69939998D02*
X168743332Y-70840002D01*
G75*
G02*
X168493334Y-71090000I-249998J0D01*
G01*
X167968330Y-71090000D01*
G75*
G02*
X167718332Y-70840002I0J249998D01*
G01*
X167718332Y-69939998D01*
G75*
G02*
X167968330Y-69690000I249998J0D01*
G01*
X168493334Y-69690000D01*
G75*
G02*
X168743332Y-69939998I0J-249998D01*
G01*
G37*
G36*
G01*
X170568332Y-69939998D02*
X170568332Y-70840002D01*
G75*
G02*
X170318334Y-71090000I-249998J0D01*
G01*
X169793330Y-71090000D01*
G75*
G02*
X169543332Y-70840002I0J249998D01*
G01*
X169543332Y-69939998D01*
G75*
G02*
X169793330Y-69690000I249998J0D01*
G01*
X170318334Y-69690000D01*
G75*
G02*
X170568332Y-69939998I0J-249998D01*
G01*
G37*
%TD*%
%TO.C,R32*%
G36*
G01*
X164401666Y-69939998D02*
X164401666Y-70840002D01*
G75*
G02*
X164151668Y-71090000I-249998J0D01*
G01*
X163626664Y-71090000D01*
G75*
G02*
X163376666Y-70840002I0J249998D01*
G01*
X163376666Y-69939998D01*
G75*
G02*
X163626664Y-69690000I249998J0D01*
G01*
X164151668Y-69690000D01*
G75*
G02*
X164401666Y-69939998I0J-249998D01*
G01*
G37*
G36*
G01*
X166226666Y-69939998D02*
X166226666Y-70840002D01*
G75*
G02*
X165976668Y-71090000I-249998J0D01*
G01*
X165451664Y-71090000D01*
G75*
G02*
X165201666Y-70840002I0J249998D01*
G01*
X165201666Y-69939998D01*
G75*
G02*
X165451664Y-69690000I249998J0D01*
G01*
X165976668Y-69690000D01*
G75*
G02*
X166226666Y-69939998I0J-249998D01*
G01*
G37*
%TD*%
%TO.C,R31*%
G36*
G01*
X150323332Y-69939998D02*
X150323332Y-70840002D01*
G75*
G02*
X150073334Y-71090000I-249998J0D01*
G01*
X149548330Y-71090000D01*
G75*
G02*
X149298332Y-70840002I0J249998D01*
G01*
X149298332Y-69939998D01*
G75*
G02*
X149548330Y-69690000I249998J0D01*
G01*
X150073334Y-69690000D01*
G75*
G02*
X150323332Y-69939998I0J-249998D01*
G01*
G37*
G36*
G01*
X152148332Y-69939998D02*
X152148332Y-70840002D01*
G75*
G02*
X151898334Y-71090000I-249998J0D01*
G01*
X151373330Y-71090000D01*
G75*
G02*
X151123332Y-70840002I0J249998D01*
G01*
X151123332Y-69939998D01*
G75*
G02*
X151373330Y-69690000I249998J0D01*
G01*
X151898334Y-69690000D01*
G75*
G02*
X152148332Y-69939998I0J-249998D01*
G01*
G37*
%TD*%
%TO.C,R30*%
G36*
G01*
X145981666Y-69939998D02*
X145981666Y-70840002D01*
G75*
G02*
X145731668Y-71090000I-249998J0D01*
G01*
X145206664Y-71090000D01*
G75*
G02*
X144956666Y-70840002I0J249998D01*
G01*
X144956666Y-69939998D01*
G75*
G02*
X145206664Y-69690000I249998J0D01*
G01*
X145731668Y-69690000D01*
G75*
G02*
X145981666Y-69939998I0J-249998D01*
G01*
G37*
G36*
G01*
X147806666Y-69939998D02*
X147806666Y-70840002D01*
G75*
G02*
X147556668Y-71090000I-249998J0D01*
G01*
X147031664Y-71090000D01*
G75*
G02*
X146781666Y-70840002I0J249998D01*
G01*
X146781666Y-69939998D01*
G75*
G02*
X147031664Y-69690000I249998J0D01*
G01*
X147556668Y-69690000D01*
G75*
G02*
X147806666Y-69939998I0J-249998D01*
G01*
G37*
%TD*%
%TO.C,R29*%
G36*
G01*
X190720000Y-70249998D02*
X190720000Y-71150002D01*
G75*
G02*
X190470002Y-71400000I-249998J0D01*
G01*
X189944998Y-71400000D01*
G75*
G02*
X189695000Y-71150002I0J249998D01*
G01*
X189695000Y-70249998D01*
G75*
G02*
X189944998Y-70000000I249998J0D01*
G01*
X190470002Y-70000000D01*
G75*
G02*
X190720000Y-70249998I0J-249998D01*
G01*
G37*
G36*
G01*
X192545000Y-70249998D02*
X192545000Y-71150002D01*
G75*
G02*
X192295002Y-71400000I-249998J0D01*
G01*
X191769998Y-71400000D01*
G75*
G02*
X191520000Y-71150002I0J249998D01*
G01*
X191520000Y-70249998D01*
G75*
G02*
X191769998Y-70000000I249998J0D01*
G01*
X192295002Y-70000000D01*
G75*
G02*
X192545000Y-70249998I0J-249998D01*
G01*
G37*
%TD*%
%TO.C,R28*%
G36*
G01*
X175410002Y-34820000D02*
X174509998Y-34820000D01*
G75*
G02*
X174260000Y-34570002I0J249998D01*
G01*
X174260000Y-34044998D01*
G75*
G02*
X174509998Y-33795000I249998J0D01*
G01*
X175410002Y-33795000D01*
G75*
G02*
X175660000Y-34044998I0J-249998D01*
G01*
X175660000Y-34570002D01*
G75*
G02*
X175410002Y-34820000I-249998J0D01*
G01*
G37*
G36*
G01*
X175410002Y-36645000D02*
X174509998Y-36645000D01*
G75*
G02*
X174260000Y-36395002I0J249998D01*
G01*
X174260000Y-35869998D01*
G75*
G02*
X174509998Y-35620000I249998J0D01*
G01*
X175410002Y-35620000D01*
G75*
G02*
X175660000Y-35869998I0J-249998D01*
G01*
X175660000Y-36395002D01*
G75*
G02*
X175410002Y-36645000I-249998J0D01*
G01*
G37*
%TD*%
%TO.C,R27*%
G36*
G01*
X184120000Y-137099998D02*
X184120000Y-138000002D01*
G75*
G02*
X183870002Y-138250000I-249998J0D01*
G01*
X183344998Y-138250000D01*
G75*
G02*
X183095000Y-138000002I0J249998D01*
G01*
X183095000Y-137099998D01*
G75*
G02*
X183344998Y-136850000I249998J0D01*
G01*
X183870002Y-136850000D01*
G75*
G02*
X184120000Y-137099998I0J-249998D01*
G01*
G37*
G36*
G01*
X185945000Y-137099998D02*
X185945000Y-138000002D01*
G75*
G02*
X185695002Y-138250000I-249998J0D01*
G01*
X185169998Y-138250000D01*
G75*
G02*
X184920000Y-138000002I0J249998D01*
G01*
X184920000Y-137099998D01*
G75*
G02*
X185169998Y-136850000I249998J0D01*
G01*
X185695002Y-136850000D01*
G75*
G02*
X185945000Y-137099998I0J-249998D01*
G01*
G37*
%TD*%
%TO.C,R26*%
G36*
G01*
X101329998Y-133487500D02*
X102230002Y-133487500D01*
G75*
G02*
X102480000Y-133737498I0J-249998D01*
G01*
X102480000Y-134262502D01*
G75*
G02*
X102230002Y-134512500I-249998J0D01*
G01*
X101329998Y-134512500D01*
G75*
G02*
X101080000Y-134262502I0J249998D01*
G01*
X101080000Y-133737498D01*
G75*
G02*
X101329998Y-133487500I249998J0D01*
G01*
G37*
G36*
G01*
X101329998Y-131662500D02*
X102230002Y-131662500D01*
G75*
G02*
X102480000Y-131912498I0J-249998D01*
G01*
X102480000Y-132437502D01*
G75*
G02*
X102230002Y-132687500I-249998J0D01*
G01*
X101329998Y-132687500D01*
G75*
G02*
X101080000Y-132437502I0J249998D01*
G01*
X101080000Y-131912498D01*
G75*
G02*
X101329998Y-131662500I249998J0D01*
G01*
G37*
%TD*%
%TO.C,R25*%
G36*
G01*
X79260000Y-56400002D02*
X79260000Y-55499998D01*
G75*
G02*
X79509998Y-55250000I249998J0D01*
G01*
X80035002Y-55250000D01*
G75*
G02*
X80285000Y-55499998I0J-249998D01*
G01*
X80285000Y-56400002D01*
G75*
G02*
X80035002Y-56650000I-249998J0D01*
G01*
X79509998Y-56650000D01*
G75*
G02*
X79260000Y-56400002I0J249998D01*
G01*
G37*
G36*
G01*
X77435000Y-56400002D02*
X77435000Y-55499998D01*
G75*
G02*
X77684998Y-55250000I249998J0D01*
G01*
X78210002Y-55250000D01*
G75*
G02*
X78460000Y-55499998I0J-249998D01*
G01*
X78460000Y-56400002D01*
G75*
G02*
X78210002Y-56650000I-249998J0D01*
G01*
X77684998Y-56650000D01*
G75*
G02*
X77435000Y-56400002I0J249998D01*
G01*
G37*
%TD*%
%TO.C,R24*%
G36*
G01*
X231290002Y-101280000D02*
X230389998Y-101280000D01*
G75*
G02*
X230140000Y-101030002I0J249998D01*
G01*
X230140000Y-100504998D01*
G75*
G02*
X230389998Y-100255000I249998J0D01*
G01*
X231290002Y-100255000D01*
G75*
G02*
X231540000Y-100504998I0J-249998D01*
G01*
X231540000Y-101030002D01*
G75*
G02*
X231290002Y-101280000I-249998J0D01*
G01*
G37*
G36*
G01*
X231290002Y-103105000D02*
X230389998Y-103105000D01*
G75*
G02*
X230140000Y-102855002I0J249998D01*
G01*
X230140000Y-102329998D01*
G75*
G02*
X230389998Y-102080000I249998J0D01*
G01*
X231290002Y-102080000D01*
G75*
G02*
X231540000Y-102329998I0J-249998D01*
G01*
X231540000Y-102855002D01*
G75*
G02*
X231290002Y-103105000I-249998J0D01*
G01*
G37*
%TD*%
%TO.C,R23*%
G36*
G01*
X228984287Y-101280000D02*
X228084283Y-101280000D01*
G75*
G02*
X227834285Y-101030002I0J249998D01*
G01*
X227834285Y-100504998D01*
G75*
G02*
X228084283Y-100255000I249998J0D01*
G01*
X228984287Y-100255000D01*
G75*
G02*
X229234285Y-100504998I0J-249998D01*
G01*
X229234285Y-101030002D01*
G75*
G02*
X228984287Y-101280000I-249998J0D01*
G01*
G37*
G36*
G01*
X228984287Y-103105000D02*
X228084283Y-103105000D01*
G75*
G02*
X227834285Y-102855002I0J249998D01*
G01*
X227834285Y-102329998D01*
G75*
G02*
X228084283Y-102080000I249998J0D01*
G01*
X228984287Y-102080000D01*
G75*
G02*
X229234285Y-102329998I0J-249998D01*
G01*
X229234285Y-102855002D01*
G75*
G02*
X228984287Y-103105000I-249998J0D01*
G01*
G37*
%TD*%
%TO.C,R22*%
G36*
G01*
X226678572Y-101280000D02*
X225778568Y-101280000D01*
G75*
G02*
X225528570Y-101030002I0J249998D01*
G01*
X225528570Y-100504998D01*
G75*
G02*
X225778568Y-100255000I249998J0D01*
G01*
X226678572Y-100255000D01*
G75*
G02*
X226928570Y-100504998I0J-249998D01*
G01*
X226928570Y-101030002D01*
G75*
G02*
X226678572Y-101280000I-249998J0D01*
G01*
G37*
G36*
G01*
X226678572Y-103105000D02*
X225778568Y-103105000D01*
G75*
G02*
X225528570Y-102855002I0J249998D01*
G01*
X225528570Y-102329998D01*
G75*
G02*
X225778568Y-102080000I249998J0D01*
G01*
X226678572Y-102080000D01*
G75*
G02*
X226928570Y-102329998I0J-249998D01*
G01*
X226928570Y-102855002D01*
G75*
G02*
X226678572Y-103105000I-249998J0D01*
G01*
G37*
%TD*%
%TO.C,R21*%
G36*
G01*
X224372858Y-101280000D02*
X223472854Y-101280000D01*
G75*
G02*
X223222856Y-101030002I0J249998D01*
G01*
X223222856Y-100504998D01*
G75*
G02*
X223472854Y-100255000I249998J0D01*
G01*
X224372858Y-100255000D01*
G75*
G02*
X224622856Y-100504998I0J-249998D01*
G01*
X224622856Y-101030002D01*
G75*
G02*
X224372858Y-101280000I-249998J0D01*
G01*
G37*
G36*
G01*
X224372858Y-103105000D02*
X223472854Y-103105000D01*
G75*
G02*
X223222856Y-102855002I0J249998D01*
G01*
X223222856Y-102329998D01*
G75*
G02*
X223472854Y-102080000I249998J0D01*
G01*
X224372858Y-102080000D01*
G75*
G02*
X224622856Y-102329998I0J-249998D01*
G01*
X224622856Y-102855002D01*
G75*
G02*
X224372858Y-103105000I-249998J0D01*
G01*
G37*
%TD*%
%TO.C,R20*%
G36*
G01*
X222067144Y-101280000D02*
X221167140Y-101280000D01*
G75*
G02*
X220917142Y-101030002I0J249998D01*
G01*
X220917142Y-100504998D01*
G75*
G02*
X221167140Y-100255000I249998J0D01*
G01*
X222067144Y-100255000D01*
G75*
G02*
X222317142Y-100504998I0J-249998D01*
G01*
X222317142Y-101030002D01*
G75*
G02*
X222067144Y-101280000I-249998J0D01*
G01*
G37*
G36*
G01*
X222067144Y-103105000D02*
X221167140Y-103105000D01*
G75*
G02*
X220917142Y-102855002I0J249998D01*
G01*
X220917142Y-102329998D01*
G75*
G02*
X221167140Y-102080000I249998J0D01*
G01*
X222067144Y-102080000D01*
G75*
G02*
X222317142Y-102329998I0J-249998D01*
G01*
X222317142Y-102855002D01*
G75*
G02*
X222067144Y-103105000I-249998J0D01*
G01*
G37*
%TD*%
%TO.C,R19*%
G36*
G01*
X219761430Y-101280000D02*
X218861426Y-101280000D01*
G75*
G02*
X218611428Y-101030002I0J249998D01*
G01*
X218611428Y-100504998D01*
G75*
G02*
X218861426Y-100255000I249998J0D01*
G01*
X219761430Y-100255000D01*
G75*
G02*
X220011428Y-100504998I0J-249998D01*
G01*
X220011428Y-101030002D01*
G75*
G02*
X219761430Y-101280000I-249998J0D01*
G01*
G37*
G36*
G01*
X219761430Y-103105000D02*
X218861426Y-103105000D01*
G75*
G02*
X218611428Y-102855002I0J249998D01*
G01*
X218611428Y-102329998D01*
G75*
G02*
X218861426Y-102080000I249998J0D01*
G01*
X219761430Y-102080000D01*
G75*
G02*
X220011428Y-102329998I0J-249998D01*
G01*
X220011428Y-102855002D01*
G75*
G02*
X219761430Y-103105000I-249998J0D01*
G01*
G37*
%TD*%
%TO.C,R18*%
G36*
G01*
X217455716Y-101280000D02*
X216555712Y-101280000D01*
G75*
G02*
X216305714Y-101030002I0J249998D01*
G01*
X216305714Y-100504998D01*
G75*
G02*
X216555712Y-100255000I249998J0D01*
G01*
X217455716Y-100255000D01*
G75*
G02*
X217705714Y-100504998I0J-249998D01*
G01*
X217705714Y-101030002D01*
G75*
G02*
X217455716Y-101280000I-249998J0D01*
G01*
G37*
G36*
G01*
X217455716Y-103105000D02*
X216555712Y-103105000D01*
G75*
G02*
X216305714Y-102855002I0J249998D01*
G01*
X216305714Y-102329998D01*
G75*
G02*
X216555712Y-102080000I249998J0D01*
G01*
X217455716Y-102080000D01*
G75*
G02*
X217705714Y-102329998I0J-249998D01*
G01*
X217705714Y-102855002D01*
G75*
G02*
X217455716Y-103105000I-249998J0D01*
G01*
G37*
%TD*%
%TO.C,R17*%
G36*
G01*
X215150002Y-101280000D02*
X214249998Y-101280000D01*
G75*
G02*
X214000000Y-101030002I0J249998D01*
G01*
X214000000Y-100504998D01*
G75*
G02*
X214249998Y-100255000I249998J0D01*
G01*
X215150002Y-100255000D01*
G75*
G02*
X215400000Y-100504998I0J-249998D01*
G01*
X215400000Y-101030002D01*
G75*
G02*
X215150002Y-101280000I-249998J0D01*
G01*
G37*
G36*
G01*
X215150002Y-103105000D02*
X214249998Y-103105000D01*
G75*
G02*
X214000000Y-102855002I0J249998D01*
G01*
X214000000Y-102329998D01*
G75*
G02*
X214249998Y-102080000I249998J0D01*
G01*
X215150002Y-102080000D01*
G75*
G02*
X215400000Y-102329998I0J-249998D01*
G01*
X215400000Y-102855002D01*
G75*
G02*
X215150002Y-103105000I-249998J0D01*
G01*
G37*
%TD*%
%TO.C,R16*%
G36*
G01*
X124200002Y-101690000D02*
X123299998Y-101690000D01*
G75*
G02*
X123050000Y-101440002I0J249998D01*
G01*
X123050000Y-100914998D01*
G75*
G02*
X123299998Y-100665000I249998J0D01*
G01*
X124200002Y-100665000D01*
G75*
G02*
X124450000Y-100914998I0J-249998D01*
G01*
X124450000Y-101440002D01*
G75*
G02*
X124200002Y-101690000I-249998J0D01*
G01*
G37*
G36*
G01*
X124200002Y-103515000D02*
X123299998Y-103515000D01*
G75*
G02*
X123050000Y-103265002I0J249998D01*
G01*
X123050000Y-102739998D01*
G75*
G02*
X123299998Y-102490000I249998J0D01*
G01*
X124200002Y-102490000D01*
G75*
G02*
X124450000Y-102739998I0J-249998D01*
G01*
X124450000Y-103265002D01*
G75*
G02*
X124200002Y-103515000I-249998J0D01*
G01*
G37*
%TD*%
%TO.C,R15*%
G36*
G01*
X126192859Y-101690000D02*
X125292855Y-101690000D01*
G75*
G02*
X125042857Y-101440002I0J249998D01*
G01*
X125042857Y-100914998D01*
G75*
G02*
X125292855Y-100665000I249998J0D01*
G01*
X126192859Y-100665000D01*
G75*
G02*
X126442857Y-100914998I0J-249998D01*
G01*
X126442857Y-101440002D01*
G75*
G02*
X126192859Y-101690000I-249998J0D01*
G01*
G37*
G36*
G01*
X126192859Y-103515000D02*
X125292855Y-103515000D01*
G75*
G02*
X125042857Y-103265002I0J249998D01*
G01*
X125042857Y-102739998D01*
G75*
G02*
X125292855Y-102490000I249998J0D01*
G01*
X126192859Y-102490000D01*
G75*
G02*
X126442857Y-102739998I0J-249998D01*
G01*
X126442857Y-103265002D01*
G75*
G02*
X126192859Y-103515000I-249998J0D01*
G01*
G37*
%TD*%
%TO.C,R14*%
G36*
G01*
X128185716Y-101690000D02*
X127285712Y-101690000D01*
G75*
G02*
X127035714Y-101440002I0J249998D01*
G01*
X127035714Y-100914998D01*
G75*
G02*
X127285712Y-100665000I249998J0D01*
G01*
X128185716Y-100665000D01*
G75*
G02*
X128435714Y-100914998I0J-249998D01*
G01*
X128435714Y-101440002D01*
G75*
G02*
X128185716Y-101690000I-249998J0D01*
G01*
G37*
G36*
G01*
X128185716Y-103515000D02*
X127285712Y-103515000D01*
G75*
G02*
X127035714Y-103265002I0J249998D01*
G01*
X127035714Y-102739998D01*
G75*
G02*
X127285712Y-102490000I249998J0D01*
G01*
X128185716Y-102490000D01*
G75*
G02*
X128435714Y-102739998I0J-249998D01*
G01*
X128435714Y-103265002D01*
G75*
G02*
X128185716Y-103515000I-249998J0D01*
G01*
G37*
%TD*%
%TO.C,R13*%
G36*
G01*
X130178573Y-101690000D02*
X129278569Y-101690000D01*
G75*
G02*
X129028571Y-101440002I0J249998D01*
G01*
X129028571Y-100914998D01*
G75*
G02*
X129278569Y-100665000I249998J0D01*
G01*
X130178573Y-100665000D01*
G75*
G02*
X130428571Y-100914998I0J-249998D01*
G01*
X130428571Y-101440002D01*
G75*
G02*
X130178573Y-101690000I-249998J0D01*
G01*
G37*
G36*
G01*
X130178573Y-103515000D02*
X129278569Y-103515000D01*
G75*
G02*
X129028571Y-103265002I0J249998D01*
G01*
X129028571Y-102739998D01*
G75*
G02*
X129278569Y-102490000I249998J0D01*
G01*
X130178573Y-102490000D01*
G75*
G02*
X130428571Y-102739998I0J-249998D01*
G01*
X130428571Y-103265002D01*
G75*
G02*
X130178573Y-103515000I-249998J0D01*
G01*
G37*
%TD*%
%TO.C,R12*%
G36*
G01*
X132171430Y-101690000D02*
X131271426Y-101690000D01*
G75*
G02*
X131021428Y-101440002I0J249998D01*
G01*
X131021428Y-100914998D01*
G75*
G02*
X131271426Y-100665000I249998J0D01*
G01*
X132171430Y-100665000D01*
G75*
G02*
X132421428Y-100914998I0J-249998D01*
G01*
X132421428Y-101440002D01*
G75*
G02*
X132171430Y-101690000I-249998J0D01*
G01*
G37*
G36*
G01*
X132171430Y-103515000D02*
X131271426Y-103515000D01*
G75*
G02*
X131021428Y-103265002I0J249998D01*
G01*
X131021428Y-102739998D01*
G75*
G02*
X131271426Y-102490000I249998J0D01*
G01*
X132171430Y-102490000D01*
G75*
G02*
X132421428Y-102739998I0J-249998D01*
G01*
X132421428Y-103265002D01*
G75*
G02*
X132171430Y-103515000I-249998J0D01*
G01*
G37*
%TD*%
%TO.C,R11*%
G36*
G01*
X134164287Y-101690000D02*
X133264283Y-101690000D01*
G75*
G02*
X133014285Y-101440002I0J249998D01*
G01*
X133014285Y-100914998D01*
G75*
G02*
X133264283Y-100665000I249998J0D01*
G01*
X134164287Y-100665000D01*
G75*
G02*
X134414285Y-100914998I0J-249998D01*
G01*
X134414285Y-101440002D01*
G75*
G02*
X134164287Y-101690000I-249998J0D01*
G01*
G37*
G36*
G01*
X134164287Y-103515000D02*
X133264283Y-103515000D01*
G75*
G02*
X133014285Y-103265002I0J249998D01*
G01*
X133014285Y-102739998D01*
G75*
G02*
X133264283Y-102490000I249998J0D01*
G01*
X134164287Y-102490000D01*
G75*
G02*
X134414285Y-102739998I0J-249998D01*
G01*
X134414285Y-103265002D01*
G75*
G02*
X134164287Y-103515000I-249998J0D01*
G01*
G37*
%TD*%
%TO.C,R10*%
G36*
G01*
X136157144Y-101690000D02*
X135257140Y-101690000D01*
G75*
G02*
X135007142Y-101440002I0J249998D01*
G01*
X135007142Y-100914998D01*
G75*
G02*
X135257140Y-100665000I249998J0D01*
G01*
X136157144Y-100665000D01*
G75*
G02*
X136407142Y-100914998I0J-249998D01*
G01*
X136407142Y-101440002D01*
G75*
G02*
X136157144Y-101690000I-249998J0D01*
G01*
G37*
G36*
G01*
X136157144Y-103515000D02*
X135257140Y-103515000D01*
G75*
G02*
X135007142Y-103265002I0J249998D01*
G01*
X135007142Y-102739998D01*
G75*
G02*
X135257140Y-102490000I249998J0D01*
G01*
X136157144Y-102490000D01*
G75*
G02*
X136407142Y-102739998I0J-249998D01*
G01*
X136407142Y-103265002D01*
G75*
G02*
X136157144Y-103515000I-249998J0D01*
G01*
G37*
%TD*%
%TO.C,R9*%
G36*
G01*
X138150002Y-101690000D02*
X137249998Y-101690000D01*
G75*
G02*
X137000000Y-101440002I0J249998D01*
G01*
X137000000Y-100914998D01*
G75*
G02*
X137249998Y-100665000I249998J0D01*
G01*
X138150002Y-100665000D01*
G75*
G02*
X138400000Y-100914998I0J-249998D01*
G01*
X138400000Y-101440002D01*
G75*
G02*
X138150002Y-101690000I-249998J0D01*
G01*
G37*
G36*
G01*
X138150002Y-103515000D02*
X137249998Y-103515000D01*
G75*
G02*
X137000000Y-103265002I0J249998D01*
G01*
X137000000Y-102739998D01*
G75*
G02*
X137249998Y-102490000I249998J0D01*
G01*
X138150002Y-102490000D01*
G75*
G02*
X138400000Y-102739998I0J-249998D01*
G01*
X138400000Y-103265002D01*
G75*
G02*
X138150002Y-103515000I-249998J0D01*
G01*
G37*
%TD*%
%TO.C,R8*%
G36*
G01*
X110950000Y-66920002D02*
X110950000Y-66019998D01*
G75*
G02*
X111199998Y-65770000I249998J0D01*
G01*
X111725002Y-65770000D01*
G75*
G02*
X111975000Y-66019998I0J-249998D01*
G01*
X111975000Y-66920002D01*
G75*
G02*
X111725002Y-67170000I-249998J0D01*
G01*
X111199998Y-67170000D01*
G75*
G02*
X110950000Y-66920002I0J249998D01*
G01*
G37*
G36*
G01*
X109125000Y-66920002D02*
X109125000Y-66019998D01*
G75*
G02*
X109374998Y-65770000I249998J0D01*
G01*
X109900002Y-65770000D01*
G75*
G02*
X110150000Y-66019998I0J-249998D01*
G01*
X110150000Y-66920002D01*
G75*
G02*
X109900002Y-67170000I-249998J0D01*
G01*
X109374998Y-67170000D01*
G75*
G02*
X109125000Y-66920002I0J249998D01*
G01*
G37*
%TD*%
%TO.C,R7*%
G36*
G01*
X110950000Y-69212859D02*
X110950000Y-68312855D01*
G75*
G02*
X111199998Y-68062857I249998J0D01*
G01*
X111725002Y-68062857D01*
G75*
G02*
X111975000Y-68312855I0J-249998D01*
G01*
X111975000Y-69212859D01*
G75*
G02*
X111725002Y-69462857I-249998J0D01*
G01*
X111199998Y-69462857D01*
G75*
G02*
X110950000Y-69212859I0J249998D01*
G01*
G37*
G36*
G01*
X109125000Y-69212859D02*
X109125000Y-68312855D01*
G75*
G02*
X109374998Y-68062857I249998J0D01*
G01*
X109900002Y-68062857D01*
G75*
G02*
X110150000Y-68312855I0J-249998D01*
G01*
X110150000Y-69212859D01*
G75*
G02*
X109900002Y-69462857I-249998J0D01*
G01*
X109374998Y-69462857D01*
G75*
G02*
X109125000Y-69212859I0J249998D01*
G01*
G37*
%TD*%
%TO.C,R6*%
G36*
G01*
X110950000Y-71505716D02*
X110950000Y-70605712D01*
G75*
G02*
X111199998Y-70355714I249998J0D01*
G01*
X111725002Y-70355714D01*
G75*
G02*
X111975000Y-70605712I0J-249998D01*
G01*
X111975000Y-71505716D01*
G75*
G02*
X111725002Y-71755714I-249998J0D01*
G01*
X111199998Y-71755714D01*
G75*
G02*
X110950000Y-71505716I0J249998D01*
G01*
G37*
G36*
G01*
X109125000Y-71505716D02*
X109125000Y-70605712D01*
G75*
G02*
X109374998Y-70355714I249998J0D01*
G01*
X109900002Y-70355714D01*
G75*
G02*
X110150000Y-70605712I0J-249998D01*
G01*
X110150000Y-71505716D01*
G75*
G02*
X109900002Y-71755714I-249998J0D01*
G01*
X109374998Y-71755714D01*
G75*
G02*
X109125000Y-71505716I0J249998D01*
G01*
G37*
%TD*%
%TO.C,R5*%
G36*
G01*
X110950000Y-73798573D02*
X110950000Y-72898569D01*
G75*
G02*
X111199998Y-72648571I249998J0D01*
G01*
X111725002Y-72648571D01*
G75*
G02*
X111975000Y-72898569I0J-249998D01*
G01*
X111975000Y-73798573D01*
G75*
G02*
X111725002Y-74048571I-249998J0D01*
G01*
X111199998Y-74048571D01*
G75*
G02*
X110950000Y-73798573I0J249998D01*
G01*
G37*
G36*
G01*
X109125000Y-73798573D02*
X109125000Y-72898569D01*
G75*
G02*
X109374998Y-72648571I249998J0D01*
G01*
X109900002Y-72648571D01*
G75*
G02*
X110150000Y-72898569I0J-249998D01*
G01*
X110150000Y-73798573D01*
G75*
G02*
X109900002Y-74048571I-249998J0D01*
G01*
X109374998Y-74048571D01*
G75*
G02*
X109125000Y-73798573I0J249998D01*
G01*
G37*
%TD*%
%TO.C,R4*%
G36*
G01*
X110950000Y-76091430D02*
X110950000Y-75191426D01*
G75*
G02*
X111199998Y-74941428I249998J0D01*
G01*
X111725002Y-74941428D01*
G75*
G02*
X111975000Y-75191426I0J-249998D01*
G01*
X111975000Y-76091430D01*
G75*
G02*
X111725002Y-76341428I-249998J0D01*
G01*
X111199998Y-76341428D01*
G75*
G02*
X110950000Y-76091430I0J249998D01*
G01*
G37*
G36*
G01*
X109125000Y-76091430D02*
X109125000Y-75191426D01*
G75*
G02*
X109374998Y-74941428I249998J0D01*
G01*
X109900002Y-74941428D01*
G75*
G02*
X110150000Y-75191426I0J-249998D01*
G01*
X110150000Y-76091430D01*
G75*
G02*
X109900002Y-76341428I-249998J0D01*
G01*
X109374998Y-76341428D01*
G75*
G02*
X109125000Y-76091430I0J249998D01*
G01*
G37*
%TD*%
%TO.C,R3*%
G36*
G01*
X110950000Y-78384287D02*
X110950000Y-77484283D01*
G75*
G02*
X111199998Y-77234285I249998J0D01*
G01*
X111725002Y-77234285D01*
G75*
G02*
X111975000Y-77484283I0J-249998D01*
G01*
X111975000Y-78384287D01*
G75*
G02*
X111725002Y-78634285I-249998J0D01*
G01*
X111199998Y-78634285D01*
G75*
G02*
X110950000Y-78384287I0J249998D01*
G01*
G37*
G36*
G01*
X109125000Y-78384287D02*
X109125000Y-77484283D01*
G75*
G02*
X109374998Y-77234285I249998J0D01*
G01*
X109900002Y-77234285D01*
G75*
G02*
X110150000Y-77484283I0J-249998D01*
G01*
X110150000Y-78384287D01*
G75*
G02*
X109900002Y-78634285I-249998J0D01*
G01*
X109374998Y-78634285D01*
G75*
G02*
X109125000Y-78384287I0J249998D01*
G01*
G37*
%TD*%
%TO.C,R2*%
G36*
G01*
X110950000Y-80677144D02*
X110950000Y-79777140D01*
G75*
G02*
X111199998Y-79527142I249998J0D01*
G01*
X111725002Y-79527142D01*
G75*
G02*
X111975000Y-79777140I0J-249998D01*
G01*
X111975000Y-80677144D01*
G75*
G02*
X111725002Y-80927142I-249998J0D01*
G01*
X111199998Y-80927142D01*
G75*
G02*
X110950000Y-80677144I0J249998D01*
G01*
G37*
G36*
G01*
X109125000Y-80677144D02*
X109125000Y-79777140D01*
G75*
G02*
X109374998Y-79527142I249998J0D01*
G01*
X109900002Y-79527142D01*
G75*
G02*
X110150000Y-79777140I0J-249998D01*
G01*
X110150000Y-80677144D01*
G75*
G02*
X109900002Y-80927142I-249998J0D01*
G01*
X109374998Y-80927142D01*
G75*
G02*
X109125000Y-80677144I0J249998D01*
G01*
G37*
%TD*%
%TO.C,R1*%
G36*
G01*
X110950000Y-82970002D02*
X110950000Y-82069998D01*
G75*
G02*
X111199998Y-81820000I249998J0D01*
G01*
X111725002Y-81820000D01*
G75*
G02*
X111975000Y-82069998I0J-249998D01*
G01*
X111975000Y-82970002D01*
G75*
G02*
X111725002Y-83220000I-249998J0D01*
G01*
X111199998Y-83220000D01*
G75*
G02*
X110950000Y-82970002I0J249998D01*
G01*
G37*
G36*
G01*
X109125000Y-82970002D02*
X109125000Y-82069998D01*
G75*
G02*
X109374998Y-81820000I249998J0D01*
G01*
X109900002Y-81820000D01*
G75*
G02*
X110150000Y-82069998I0J-249998D01*
G01*
X110150000Y-82970002D01*
G75*
G02*
X109900002Y-83220000I-249998J0D01*
G01*
X109374998Y-83220000D01*
G75*
G02*
X109125000Y-82970002I0J249998D01*
G01*
G37*
%TD*%
%TO.C,D32*%
G36*
G01*
X245484800Y-136056250D02*
X245484800Y-135543750D01*
G75*
G02*
X245703550Y-135325000I218750J0D01*
G01*
X246141050Y-135325000D01*
G75*
G02*
X246359800Y-135543750I0J-218750D01*
G01*
X246359800Y-136056250D01*
G75*
G02*
X246141050Y-136275000I-218750J0D01*
G01*
X245703550Y-136275000D01*
G75*
G02*
X245484800Y-136056250I0J218750D01*
G01*
G37*
G36*
G01*
X247059800Y-136056250D02*
X247059800Y-135543750D01*
G75*
G02*
X247278550Y-135325000I218750J0D01*
G01*
X247716050Y-135325000D01*
G75*
G02*
X247934800Y-135543750I0J-218750D01*
G01*
X247934800Y-136056250D01*
G75*
G02*
X247716050Y-136275000I-218750J0D01*
G01*
X247278550Y-136275000D01*
G75*
G02*
X247059800Y-136056250I0J218750D01*
G01*
G37*
%TD*%
%TO.C,D31*%
G36*
G01*
X238124084Y-136056250D02*
X238124084Y-135543750D01*
G75*
G02*
X238342834Y-135325000I218750J0D01*
G01*
X238780334Y-135325000D01*
G75*
G02*
X238999084Y-135543750I0J-218750D01*
G01*
X238999084Y-136056250D01*
G75*
G02*
X238780334Y-136275000I-218750J0D01*
G01*
X238342834Y-136275000D01*
G75*
G02*
X238124084Y-136056250I0J218750D01*
G01*
G37*
G36*
G01*
X239699084Y-136056250D02*
X239699084Y-135543750D01*
G75*
G02*
X239917834Y-135325000I218750J0D01*
G01*
X240355334Y-135325000D01*
G75*
G02*
X240574084Y-135543750I0J-218750D01*
G01*
X240574084Y-136056250D01*
G75*
G02*
X240355334Y-136275000I-218750J0D01*
G01*
X239917834Y-136275000D01*
G75*
G02*
X239699084Y-136056250I0J218750D01*
G01*
G37*
%TD*%
%TO.C,D30*%
G36*
G01*
X230763370Y-136056250D02*
X230763370Y-135543750D01*
G75*
G02*
X230982120Y-135325000I218750J0D01*
G01*
X231419620Y-135325000D01*
G75*
G02*
X231638370Y-135543750I0J-218750D01*
G01*
X231638370Y-136056250D01*
G75*
G02*
X231419620Y-136275000I-218750J0D01*
G01*
X230982120Y-136275000D01*
G75*
G02*
X230763370Y-136056250I0J218750D01*
G01*
G37*
G36*
G01*
X232338370Y-136056250D02*
X232338370Y-135543750D01*
G75*
G02*
X232557120Y-135325000I218750J0D01*
G01*
X232994620Y-135325000D01*
G75*
G02*
X233213370Y-135543750I0J-218750D01*
G01*
X233213370Y-136056250D01*
G75*
G02*
X232994620Y-136275000I-218750J0D01*
G01*
X232557120Y-136275000D01*
G75*
G02*
X232338370Y-136056250I0J218750D01*
G01*
G37*
%TD*%
%TO.C,D29*%
G36*
G01*
X223402656Y-136056250D02*
X223402656Y-135543750D01*
G75*
G02*
X223621406Y-135325000I218750J0D01*
G01*
X224058906Y-135325000D01*
G75*
G02*
X224277656Y-135543750I0J-218750D01*
G01*
X224277656Y-136056250D01*
G75*
G02*
X224058906Y-136275000I-218750J0D01*
G01*
X223621406Y-136275000D01*
G75*
G02*
X223402656Y-136056250I0J218750D01*
G01*
G37*
G36*
G01*
X224977656Y-136056250D02*
X224977656Y-135543750D01*
G75*
G02*
X225196406Y-135325000I218750J0D01*
G01*
X225633906Y-135325000D01*
G75*
G02*
X225852656Y-135543750I0J-218750D01*
G01*
X225852656Y-136056250D01*
G75*
G02*
X225633906Y-136275000I-218750J0D01*
G01*
X225196406Y-136275000D01*
G75*
G02*
X224977656Y-136056250I0J218750D01*
G01*
G37*
%TD*%
%TO.C,D28*%
G36*
G01*
X216041942Y-136056250D02*
X216041942Y-135543750D01*
G75*
G02*
X216260692Y-135325000I218750J0D01*
G01*
X216698192Y-135325000D01*
G75*
G02*
X216916942Y-135543750I0J-218750D01*
G01*
X216916942Y-136056250D01*
G75*
G02*
X216698192Y-136275000I-218750J0D01*
G01*
X216260692Y-136275000D01*
G75*
G02*
X216041942Y-136056250I0J218750D01*
G01*
G37*
G36*
G01*
X217616942Y-136056250D02*
X217616942Y-135543750D01*
G75*
G02*
X217835692Y-135325000I218750J0D01*
G01*
X218273192Y-135325000D01*
G75*
G02*
X218491942Y-135543750I0J-218750D01*
G01*
X218491942Y-136056250D01*
G75*
G02*
X218273192Y-136275000I-218750J0D01*
G01*
X217835692Y-136275000D01*
G75*
G02*
X217616942Y-136056250I0J218750D01*
G01*
G37*
%TD*%
%TO.C,D27*%
G36*
G01*
X208681228Y-136056250D02*
X208681228Y-135543750D01*
G75*
G02*
X208899978Y-135325000I218750J0D01*
G01*
X209337478Y-135325000D01*
G75*
G02*
X209556228Y-135543750I0J-218750D01*
G01*
X209556228Y-136056250D01*
G75*
G02*
X209337478Y-136275000I-218750J0D01*
G01*
X208899978Y-136275000D01*
G75*
G02*
X208681228Y-136056250I0J218750D01*
G01*
G37*
G36*
G01*
X210256228Y-136056250D02*
X210256228Y-135543750D01*
G75*
G02*
X210474978Y-135325000I218750J0D01*
G01*
X210912478Y-135325000D01*
G75*
G02*
X211131228Y-135543750I0J-218750D01*
G01*
X211131228Y-136056250D01*
G75*
G02*
X210912478Y-136275000I-218750J0D01*
G01*
X210474978Y-136275000D01*
G75*
G02*
X210256228Y-136056250I0J218750D01*
G01*
G37*
%TD*%
%TO.C,D26*%
G36*
G01*
X201320514Y-136056250D02*
X201320514Y-135543750D01*
G75*
G02*
X201539264Y-135325000I218750J0D01*
G01*
X201976764Y-135325000D01*
G75*
G02*
X202195514Y-135543750I0J-218750D01*
G01*
X202195514Y-136056250D01*
G75*
G02*
X201976764Y-136275000I-218750J0D01*
G01*
X201539264Y-136275000D01*
G75*
G02*
X201320514Y-136056250I0J218750D01*
G01*
G37*
G36*
G01*
X202895514Y-136056250D02*
X202895514Y-135543750D01*
G75*
G02*
X203114264Y-135325000I218750J0D01*
G01*
X203551764Y-135325000D01*
G75*
G02*
X203770514Y-135543750I0J-218750D01*
G01*
X203770514Y-136056250D01*
G75*
G02*
X203551764Y-136275000I-218750J0D01*
G01*
X203114264Y-136275000D01*
G75*
G02*
X202895514Y-136056250I0J218750D01*
G01*
G37*
%TD*%
%TO.C,D25*%
G36*
G01*
X193959800Y-136056250D02*
X193959800Y-135543750D01*
G75*
G02*
X194178550Y-135325000I218750J0D01*
G01*
X194616050Y-135325000D01*
G75*
G02*
X194834800Y-135543750I0J-218750D01*
G01*
X194834800Y-136056250D01*
G75*
G02*
X194616050Y-136275000I-218750J0D01*
G01*
X194178550Y-136275000D01*
G75*
G02*
X193959800Y-136056250I0J218750D01*
G01*
G37*
G36*
G01*
X195534800Y-136056250D02*
X195534800Y-135543750D01*
G75*
G02*
X195753550Y-135325000I218750J0D01*
G01*
X196191050Y-135325000D01*
G75*
G02*
X196409800Y-135543750I0J-218750D01*
G01*
X196409800Y-136056250D01*
G75*
G02*
X196191050Y-136275000I-218750J0D01*
G01*
X195753550Y-136275000D01*
G75*
G02*
X195534800Y-136056250I0J218750D01*
G01*
G37*
%TD*%
%TO.C,D24*%
G36*
G01*
X166724800Y-135936250D02*
X166724800Y-135423750D01*
G75*
G02*
X166943550Y-135205000I218750J0D01*
G01*
X167381050Y-135205000D01*
G75*
G02*
X167599800Y-135423750I0J-218750D01*
G01*
X167599800Y-135936250D01*
G75*
G02*
X167381050Y-136155000I-218750J0D01*
G01*
X166943550Y-136155000D01*
G75*
G02*
X166724800Y-135936250I0J218750D01*
G01*
G37*
G36*
G01*
X168299800Y-135936250D02*
X168299800Y-135423750D01*
G75*
G02*
X168518550Y-135205000I218750J0D01*
G01*
X168956050Y-135205000D01*
G75*
G02*
X169174800Y-135423750I0J-218750D01*
G01*
X169174800Y-135936250D01*
G75*
G02*
X168956050Y-136155000I-218750J0D01*
G01*
X168518550Y-136155000D01*
G75*
G02*
X168299800Y-135936250I0J218750D01*
G01*
G37*
%TD*%
%TO.C,D23*%
G36*
G01*
X159364084Y-135936250D02*
X159364084Y-135423750D01*
G75*
G02*
X159582834Y-135205000I218750J0D01*
G01*
X160020334Y-135205000D01*
G75*
G02*
X160239084Y-135423750I0J-218750D01*
G01*
X160239084Y-135936250D01*
G75*
G02*
X160020334Y-136155000I-218750J0D01*
G01*
X159582834Y-136155000D01*
G75*
G02*
X159364084Y-135936250I0J218750D01*
G01*
G37*
G36*
G01*
X160939084Y-135936250D02*
X160939084Y-135423750D01*
G75*
G02*
X161157834Y-135205000I218750J0D01*
G01*
X161595334Y-135205000D01*
G75*
G02*
X161814084Y-135423750I0J-218750D01*
G01*
X161814084Y-135936250D01*
G75*
G02*
X161595334Y-136155000I-218750J0D01*
G01*
X161157834Y-136155000D01*
G75*
G02*
X160939084Y-135936250I0J218750D01*
G01*
G37*
%TD*%
%TO.C,D22*%
G36*
G01*
X152003370Y-135936250D02*
X152003370Y-135423750D01*
G75*
G02*
X152222120Y-135205000I218750J0D01*
G01*
X152659620Y-135205000D01*
G75*
G02*
X152878370Y-135423750I0J-218750D01*
G01*
X152878370Y-135936250D01*
G75*
G02*
X152659620Y-136155000I-218750J0D01*
G01*
X152222120Y-136155000D01*
G75*
G02*
X152003370Y-135936250I0J218750D01*
G01*
G37*
G36*
G01*
X153578370Y-135936250D02*
X153578370Y-135423750D01*
G75*
G02*
X153797120Y-135205000I218750J0D01*
G01*
X154234620Y-135205000D01*
G75*
G02*
X154453370Y-135423750I0J-218750D01*
G01*
X154453370Y-135936250D01*
G75*
G02*
X154234620Y-136155000I-218750J0D01*
G01*
X153797120Y-136155000D01*
G75*
G02*
X153578370Y-135936250I0J218750D01*
G01*
G37*
%TD*%
%TO.C,D21*%
G36*
G01*
X144642656Y-135936250D02*
X144642656Y-135423750D01*
G75*
G02*
X144861406Y-135205000I218750J0D01*
G01*
X145298906Y-135205000D01*
G75*
G02*
X145517656Y-135423750I0J-218750D01*
G01*
X145517656Y-135936250D01*
G75*
G02*
X145298906Y-136155000I-218750J0D01*
G01*
X144861406Y-136155000D01*
G75*
G02*
X144642656Y-135936250I0J218750D01*
G01*
G37*
G36*
G01*
X146217656Y-135936250D02*
X146217656Y-135423750D01*
G75*
G02*
X146436406Y-135205000I218750J0D01*
G01*
X146873906Y-135205000D01*
G75*
G02*
X147092656Y-135423750I0J-218750D01*
G01*
X147092656Y-135936250D01*
G75*
G02*
X146873906Y-136155000I-218750J0D01*
G01*
X146436406Y-136155000D01*
G75*
G02*
X146217656Y-135936250I0J218750D01*
G01*
G37*
%TD*%
%TO.C,D20*%
G36*
G01*
X137281942Y-135936250D02*
X137281942Y-135423750D01*
G75*
G02*
X137500692Y-135205000I218750J0D01*
G01*
X137938192Y-135205000D01*
G75*
G02*
X138156942Y-135423750I0J-218750D01*
G01*
X138156942Y-135936250D01*
G75*
G02*
X137938192Y-136155000I-218750J0D01*
G01*
X137500692Y-136155000D01*
G75*
G02*
X137281942Y-135936250I0J218750D01*
G01*
G37*
G36*
G01*
X138856942Y-135936250D02*
X138856942Y-135423750D01*
G75*
G02*
X139075692Y-135205000I218750J0D01*
G01*
X139513192Y-135205000D01*
G75*
G02*
X139731942Y-135423750I0J-218750D01*
G01*
X139731942Y-135936250D01*
G75*
G02*
X139513192Y-136155000I-218750J0D01*
G01*
X139075692Y-136155000D01*
G75*
G02*
X138856942Y-135936250I0J218750D01*
G01*
G37*
%TD*%
%TO.C,D19*%
G36*
G01*
X129921228Y-135936250D02*
X129921228Y-135423750D01*
G75*
G02*
X130139978Y-135205000I218750J0D01*
G01*
X130577478Y-135205000D01*
G75*
G02*
X130796228Y-135423750I0J-218750D01*
G01*
X130796228Y-135936250D01*
G75*
G02*
X130577478Y-136155000I-218750J0D01*
G01*
X130139978Y-136155000D01*
G75*
G02*
X129921228Y-135936250I0J218750D01*
G01*
G37*
G36*
G01*
X131496228Y-135936250D02*
X131496228Y-135423750D01*
G75*
G02*
X131714978Y-135205000I218750J0D01*
G01*
X132152478Y-135205000D01*
G75*
G02*
X132371228Y-135423750I0J-218750D01*
G01*
X132371228Y-135936250D01*
G75*
G02*
X132152478Y-136155000I-218750J0D01*
G01*
X131714978Y-136155000D01*
G75*
G02*
X131496228Y-135936250I0J218750D01*
G01*
G37*
%TD*%
%TO.C,D18*%
G36*
G01*
X122560514Y-135936250D02*
X122560514Y-135423750D01*
G75*
G02*
X122779264Y-135205000I218750J0D01*
G01*
X123216764Y-135205000D01*
G75*
G02*
X123435514Y-135423750I0J-218750D01*
G01*
X123435514Y-135936250D01*
G75*
G02*
X123216764Y-136155000I-218750J0D01*
G01*
X122779264Y-136155000D01*
G75*
G02*
X122560514Y-135936250I0J218750D01*
G01*
G37*
G36*
G01*
X124135514Y-135936250D02*
X124135514Y-135423750D01*
G75*
G02*
X124354264Y-135205000I218750J0D01*
G01*
X124791764Y-135205000D01*
G75*
G02*
X125010514Y-135423750I0J-218750D01*
G01*
X125010514Y-135936250D01*
G75*
G02*
X124791764Y-136155000I-218750J0D01*
G01*
X124354264Y-136155000D01*
G75*
G02*
X124135514Y-135936250I0J218750D01*
G01*
G37*
%TD*%
%TO.C,D17*%
G36*
G01*
X115199800Y-135936250D02*
X115199800Y-135423750D01*
G75*
G02*
X115418550Y-135205000I218750J0D01*
G01*
X115856050Y-135205000D01*
G75*
G02*
X116074800Y-135423750I0J-218750D01*
G01*
X116074800Y-135936250D01*
G75*
G02*
X115856050Y-136155000I-218750J0D01*
G01*
X115418550Y-136155000D01*
G75*
G02*
X115199800Y-135936250I0J218750D01*
G01*
G37*
G36*
G01*
X116774800Y-135936250D02*
X116774800Y-135423750D01*
G75*
G02*
X116993550Y-135205000I218750J0D01*
G01*
X117431050Y-135205000D01*
G75*
G02*
X117649800Y-135423750I0J-218750D01*
G01*
X117649800Y-135936250D01*
G75*
G02*
X117431050Y-136155000I-218750J0D01*
G01*
X116993550Y-136155000D01*
G75*
G02*
X116774800Y-135936250I0J218750D01*
G01*
G37*
%TD*%
%TO.C,D16*%
G36*
G01*
X75953750Y-118680000D02*
X76466250Y-118680000D01*
G75*
G02*
X76685000Y-118898750I0J-218750D01*
G01*
X76685000Y-119336250D01*
G75*
G02*
X76466250Y-119555000I-218750J0D01*
G01*
X75953750Y-119555000D01*
G75*
G02*
X75735000Y-119336250I0J218750D01*
G01*
X75735000Y-118898750D01*
G75*
G02*
X75953750Y-118680000I218750J0D01*
G01*
G37*
G36*
G01*
X75953750Y-120255000D02*
X76466250Y-120255000D01*
G75*
G02*
X76685000Y-120473750I0J-218750D01*
G01*
X76685000Y-120911250D01*
G75*
G02*
X76466250Y-121130000I-218750J0D01*
G01*
X75953750Y-121130000D01*
G75*
G02*
X75735000Y-120911250I0J218750D01*
G01*
X75735000Y-120473750D01*
G75*
G02*
X75953750Y-120255000I218750J0D01*
G01*
G37*
%TD*%
%TO.C,D15*%
G36*
G01*
X75953750Y-111319284D02*
X76466250Y-111319284D01*
G75*
G02*
X76685000Y-111538034I0J-218750D01*
G01*
X76685000Y-111975534D01*
G75*
G02*
X76466250Y-112194284I-218750J0D01*
G01*
X75953750Y-112194284D01*
G75*
G02*
X75735000Y-111975534I0J218750D01*
G01*
X75735000Y-111538034D01*
G75*
G02*
X75953750Y-111319284I218750J0D01*
G01*
G37*
G36*
G01*
X75953750Y-112894284D02*
X76466250Y-112894284D01*
G75*
G02*
X76685000Y-113113034I0J-218750D01*
G01*
X76685000Y-113550534D01*
G75*
G02*
X76466250Y-113769284I-218750J0D01*
G01*
X75953750Y-113769284D01*
G75*
G02*
X75735000Y-113550534I0J218750D01*
G01*
X75735000Y-113113034D01*
G75*
G02*
X75953750Y-112894284I218750J0D01*
G01*
G37*
%TD*%
%TO.C,D14*%
G36*
G01*
X75953750Y-103958570D02*
X76466250Y-103958570D01*
G75*
G02*
X76685000Y-104177320I0J-218750D01*
G01*
X76685000Y-104614820D01*
G75*
G02*
X76466250Y-104833570I-218750J0D01*
G01*
X75953750Y-104833570D01*
G75*
G02*
X75735000Y-104614820I0J218750D01*
G01*
X75735000Y-104177320D01*
G75*
G02*
X75953750Y-103958570I218750J0D01*
G01*
G37*
G36*
G01*
X75953750Y-105533570D02*
X76466250Y-105533570D01*
G75*
G02*
X76685000Y-105752320I0J-218750D01*
G01*
X76685000Y-106189820D01*
G75*
G02*
X76466250Y-106408570I-218750J0D01*
G01*
X75953750Y-106408570D01*
G75*
G02*
X75735000Y-106189820I0J218750D01*
G01*
X75735000Y-105752320D01*
G75*
G02*
X75953750Y-105533570I218750J0D01*
G01*
G37*
%TD*%
%TO.C,D13*%
G36*
G01*
X75953750Y-96597856D02*
X76466250Y-96597856D01*
G75*
G02*
X76685000Y-96816606I0J-218750D01*
G01*
X76685000Y-97254106D01*
G75*
G02*
X76466250Y-97472856I-218750J0D01*
G01*
X75953750Y-97472856D01*
G75*
G02*
X75735000Y-97254106I0J218750D01*
G01*
X75735000Y-96816606D01*
G75*
G02*
X75953750Y-96597856I218750J0D01*
G01*
G37*
G36*
G01*
X75953750Y-98172856D02*
X76466250Y-98172856D01*
G75*
G02*
X76685000Y-98391606I0J-218750D01*
G01*
X76685000Y-98829106D01*
G75*
G02*
X76466250Y-99047856I-218750J0D01*
G01*
X75953750Y-99047856D01*
G75*
G02*
X75735000Y-98829106I0J218750D01*
G01*
X75735000Y-98391606D01*
G75*
G02*
X75953750Y-98172856I218750J0D01*
G01*
G37*
%TD*%
%TO.C,D12*%
G36*
G01*
X75953750Y-89237142D02*
X76466250Y-89237142D01*
G75*
G02*
X76685000Y-89455892I0J-218750D01*
G01*
X76685000Y-89893392D01*
G75*
G02*
X76466250Y-90112142I-218750J0D01*
G01*
X75953750Y-90112142D01*
G75*
G02*
X75735000Y-89893392I0J218750D01*
G01*
X75735000Y-89455892D01*
G75*
G02*
X75953750Y-89237142I218750J0D01*
G01*
G37*
G36*
G01*
X75953750Y-90812142D02*
X76466250Y-90812142D01*
G75*
G02*
X76685000Y-91030892I0J-218750D01*
G01*
X76685000Y-91468392D01*
G75*
G02*
X76466250Y-91687142I-218750J0D01*
G01*
X75953750Y-91687142D01*
G75*
G02*
X75735000Y-91468392I0J218750D01*
G01*
X75735000Y-91030892D01*
G75*
G02*
X75953750Y-90812142I218750J0D01*
G01*
G37*
%TD*%
%TO.C,D11*%
G36*
G01*
X75953750Y-81876428D02*
X76466250Y-81876428D01*
G75*
G02*
X76685000Y-82095178I0J-218750D01*
G01*
X76685000Y-82532678D01*
G75*
G02*
X76466250Y-82751428I-218750J0D01*
G01*
X75953750Y-82751428D01*
G75*
G02*
X75735000Y-82532678I0J218750D01*
G01*
X75735000Y-82095178D01*
G75*
G02*
X75953750Y-81876428I218750J0D01*
G01*
G37*
G36*
G01*
X75953750Y-83451428D02*
X76466250Y-83451428D01*
G75*
G02*
X76685000Y-83670178I0J-218750D01*
G01*
X76685000Y-84107678D01*
G75*
G02*
X76466250Y-84326428I-218750J0D01*
G01*
X75953750Y-84326428D01*
G75*
G02*
X75735000Y-84107678I0J218750D01*
G01*
X75735000Y-83670178D01*
G75*
G02*
X75953750Y-83451428I218750J0D01*
G01*
G37*
%TD*%
%TO.C,D10*%
G36*
G01*
X75953750Y-74515714D02*
X76466250Y-74515714D01*
G75*
G02*
X76685000Y-74734464I0J-218750D01*
G01*
X76685000Y-75171964D01*
G75*
G02*
X76466250Y-75390714I-218750J0D01*
G01*
X75953750Y-75390714D01*
G75*
G02*
X75735000Y-75171964I0J218750D01*
G01*
X75735000Y-74734464D01*
G75*
G02*
X75953750Y-74515714I218750J0D01*
G01*
G37*
G36*
G01*
X75953750Y-76090714D02*
X76466250Y-76090714D01*
G75*
G02*
X76685000Y-76309464I0J-218750D01*
G01*
X76685000Y-76746964D01*
G75*
G02*
X76466250Y-76965714I-218750J0D01*
G01*
X75953750Y-76965714D01*
G75*
G02*
X75735000Y-76746964I0J218750D01*
G01*
X75735000Y-76309464D01*
G75*
G02*
X75953750Y-76090714I218750J0D01*
G01*
G37*
%TD*%
%TO.C,D9*%
G36*
G01*
X75953750Y-67155000D02*
X76466250Y-67155000D01*
G75*
G02*
X76685000Y-67373750I0J-218750D01*
G01*
X76685000Y-67811250D01*
G75*
G02*
X76466250Y-68030000I-218750J0D01*
G01*
X75953750Y-68030000D01*
G75*
G02*
X75735000Y-67811250I0J218750D01*
G01*
X75735000Y-67373750D01*
G75*
G02*
X75953750Y-67155000I218750J0D01*
G01*
G37*
G36*
G01*
X75953750Y-68730000D02*
X76466250Y-68730000D01*
G75*
G02*
X76685000Y-68948750I0J-218750D01*
G01*
X76685000Y-69386250D01*
G75*
G02*
X76466250Y-69605000I-218750J0D01*
G01*
X75953750Y-69605000D01*
G75*
G02*
X75735000Y-69386250I0J218750D01*
G01*
X75735000Y-68948750D01*
G75*
G02*
X75953750Y-68730000I218750J0D01*
G01*
G37*
%TD*%
%TO.C,D4*%
G36*
G01*
X177276250Y-36245000D02*
X176763750Y-36245000D01*
G75*
G02*
X176545000Y-36026250I0J218750D01*
G01*
X176545000Y-35588750D01*
G75*
G02*
X176763750Y-35370000I218750J0D01*
G01*
X177276250Y-35370000D01*
G75*
G02*
X177495000Y-35588750I0J-218750D01*
G01*
X177495000Y-36026250D01*
G75*
G02*
X177276250Y-36245000I-218750J0D01*
G01*
G37*
G36*
G01*
X177276250Y-34670000D02*
X176763750Y-34670000D01*
G75*
G02*
X176545000Y-34451250I0J218750D01*
G01*
X176545000Y-34013750D01*
G75*
G02*
X176763750Y-33795000I218750J0D01*
G01*
X177276250Y-33795000D01*
G75*
G02*
X177495000Y-34013750I0J-218750D01*
G01*
X177495000Y-34451250D01*
G75*
G02*
X177276250Y-34670000I-218750J0D01*
G01*
G37*
%TD*%
%TO.C,D3*%
G36*
G01*
X178775000Y-138626250D02*
X178775000Y-138113750D01*
G75*
G02*
X178993750Y-137895000I218750J0D01*
G01*
X179431250Y-137895000D01*
G75*
G02*
X179650000Y-138113750I0J-218750D01*
G01*
X179650000Y-138626250D01*
G75*
G02*
X179431250Y-138845000I-218750J0D01*
G01*
X178993750Y-138845000D01*
G75*
G02*
X178775000Y-138626250I0J218750D01*
G01*
G37*
G36*
G01*
X180350000Y-138626250D02*
X180350000Y-138113750D01*
G75*
G02*
X180568750Y-137895000I218750J0D01*
G01*
X181006250Y-137895000D01*
G75*
G02*
X181225000Y-138113750I0J-218750D01*
G01*
X181225000Y-138626250D01*
G75*
G02*
X181006250Y-138845000I-218750J0D01*
G01*
X180568750Y-138845000D01*
G75*
G02*
X180350000Y-138626250I0J218750D01*
G01*
G37*
%TD*%
%TO.C,D2*%
G36*
G01*
X103765000Y-135573750D02*
X103765000Y-136086250D01*
G75*
G02*
X103546250Y-136305000I-218750J0D01*
G01*
X103108750Y-136305000D01*
G75*
G02*
X102890000Y-136086250I0J218750D01*
G01*
X102890000Y-135573750D01*
G75*
G02*
X103108750Y-135355000I218750J0D01*
G01*
X103546250Y-135355000D01*
G75*
G02*
X103765000Y-135573750I0J-218750D01*
G01*
G37*
G36*
G01*
X102190000Y-135573750D02*
X102190000Y-136086250D01*
G75*
G02*
X101971250Y-136305000I-218750J0D01*
G01*
X101533750Y-136305000D01*
G75*
G02*
X101315000Y-136086250I0J218750D01*
G01*
X101315000Y-135573750D01*
G75*
G02*
X101533750Y-135355000I218750J0D01*
G01*
X101971250Y-135355000D01*
G75*
G02*
X102190000Y-135573750I0J-218750D01*
G01*
G37*
%TD*%
%TO.C,D1*%
G36*
G01*
X75973750Y-55605000D02*
X76486250Y-55605000D01*
G75*
G02*
X76705000Y-55823750I0J-218750D01*
G01*
X76705000Y-56261250D01*
G75*
G02*
X76486250Y-56480000I-218750J0D01*
G01*
X75973750Y-56480000D01*
G75*
G02*
X75755000Y-56261250I0J218750D01*
G01*
X75755000Y-55823750D01*
G75*
G02*
X75973750Y-55605000I218750J0D01*
G01*
G37*
G36*
G01*
X75973750Y-57180000D02*
X76486250Y-57180000D01*
G75*
G02*
X76705000Y-57398750I0J-218750D01*
G01*
X76705000Y-57836250D01*
G75*
G02*
X76486250Y-58055000I-218750J0D01*
G01*
X75973750Y-58055000D01*
G75*
G02*
X75755000Y-57836250I0J218750D01*
G01*
X75755000Y-57398750D01*
G75*
G02*
X75973750Y-57180000I218750J0D01*
G01*
G37*
%TD*%
D13*
%TO.C,J40*%
X71070000Y-142550000D03*
X82500000Y-142550000D03*
D14*
X81230000Y-148900000D03*
D15*
X79960000Y-151440000D03*
X78690000Y-148900000D03*
X77420000Y-151440000D03*
X76150000Y-148900000D03*
X74880000Y-151440000D03*
X73610000Y-148900000D03*
X72340000Y-151440000D03*
%TD*%
D13*
%TO.C,J36*%
X82400000Y-36710000D03*
X93830000Y-36710000D03*
D14*
X92560000Y-43060000D03*
D15*
X91290000Y-45600000D03*
X90020000Y-43060000D03*
X88750000Y-45600000D03*
X87480000Y-43060000D03*
X86210000Y-45600000D03*
X84940000Y-43060000D03*
X83670000Y-45600000D03*
%TD*%
D13*
%TO.C,J35*%
X161140000Y-58380000D03*
X172570000Y-58380000D03*
D14*
X171300000Y-64730000D03*
D15*
X170030000Y-67270000D03*
X168760000Y-64730000D03*
X167490000Y-67270000D03*
X166220000Y-64730000D03*
X164950000Y-67270000D03*
X163680000Y-64730000D03*
X162410000Y-67270000D03*
%TD*%
D13*
%TO.C,J34*%
X142720000Y-58480000D03*
X154150000Y-58480000D03*
D14*
X152880000Y-64830000D03*
D15*
X151610000Y-67370000D03*
X150340000Y-64830000D03*
X149070000Y-67370000D03*
X147800000Y-64830000D03*
X146530000Y-67370000D03*
X145260000Y-64830000D03*
X143990000Y-67370000D03*
%TD*%
D26*
%TO.C,J27*%
X182850000Y-144374000D03*
D27*
X176500000Y-144374000D03*
%TD*%
D26*
%TO.C,J26*%
X67479299Y-47500000D03*
D27*
X67479299Y-41150000D03*
%TD*%
D26*
%TO.C,J25*%
X96810000Y-144570000D03*
D27*
X90460000Y-144570000D03*
%TD*%
D16*
%TO.C,F24*%
X248259800Y-150525303D03*
X248259800Y-147119301D03*
X248259800Y-142649300D03*
X248259800Y-139243299D03*
%TD*%
%TO.C,F29*%
X72710003Y-127650000D03*
X69304001Y-127650000D03*
X64834000Y-127650000D03*
X61427999Y-127650000D03*
%TD*%
%TO.C,F7*%
X61427996Y-113944284D03*
X64833998Y-113944284D03*
X69303999Y-113944284D03*
X72710000Y-113944284D03*
%TD*%
%TO.C,F6*%
X61427996Y-106583570D03*
X64833998Y-106583570D03*
X69303999Y-106583570D03*
X72710000Y-106583570D03*
%TD*%
%TO.C,F5*%
X61427996Y-99222856D03*
X64833998Y-99222856D03*
X69303999Y-99222856D03*
X72710000Y-99222856D03*
%TD*%
%TO.C,F4*%
X61427996Y-91862142D03*
X64833998Y-91862142D03*
X69303999Y-91862142D03*
X72710000Y-91862142D03*
%TD*%
%TO.C,F3*%
X61427996Y-84501428D03*
X64833998Y-84501428D03*
X69303999Y-84501428D03*
X72710000Y-84501428D03*
%TD*%
%TO.C,F2*%
X61427996Y-77140714D03*
X64833998Y-77140714D03*
X69303999Y-77140714D03*
X72710000Y-77140714D03*
%TD*%
%TO.C,F8*%
X61427996Y-121305000D03*
X64833998Y-121305000D03*
X69303999Y-121305000D03*
X72710000Y-121305000D03*
%TD*%
%TO.C,F1*%
X61427996Y-69780000D03*
X64833998Y-69780000D03*
X69303999Y-69780000D03*
X72710000Y-69780000D03*
%TD*%
%TO.C,F28*%
X163277996Y-31090000D03*
X166683998Y-31090000D03*
X171153999Y-31090000D03*
X174560000Y-31090000D03*
%TD*%
%TO.C,F23*%
X240899084Y-150525303D03*
X240899084Y-147119301D03*
X240899084Y-142649300D03*
X240899084Y-139243299D03*
%TD*%
%TO.C,F22*%
X233538370Y-150525303D03*
X233538370Y-147119301D03*
X233538370Y-142649300D03*
X233538370Y-139243299D03*
%TD*%
%TO.C,F21*%
X226177656Y-150525303D03*
X226177656Y-147119301D03*
X226177656Y-142649300D03*
X226177656Y-139243299D03*
%TD*%
%TO.C,F20*%
X218816942Y-150525303D03*
X218816942Y-147119301D03*
X218816942Y-142649300D03*
X218816942Y-139243299D03*
%TD*%
%TO.C,F19*%
X211456228Y-150525303D03*
X211456228Y-147119301D03*
X211456228Y-142649300D03*
X211456228Y-139243299D03*
%TD*%
%TO.C,F18*%
X204095514Y-150525303D03*
X204095514Y-147119301D03*
X204095514Y-142649300D03*
X204095514Y-139243299D03*
%TD*%
%TO.C,F17*%
X196734800Y-150525303D03*
X196734800Y-147119301D03*
X196734800Y-142649300D03*
X196734800Y-139243299D03*
%TD*%
%TO.C,F16*%
X169369800Y-150425303D03*
X169369800Y-147019301D03*
X169369800Y-142549300D03*
X169369800Y-139143299D03*
%TD*%
%TO.C,F15*%
X162009086Y-150425303D03*
X162009086Y-147019301D03*
X162009086Y-142549300D03*
X162009086Y-139143299D03*
%TD*%
%TO.C,F14*%
X154648372Y-150425303D03*
X154648372Y-147019301D03*
X154648372Y-142549300D03*
X154648372Y-139143299D03*
%TD*%
%TO.C,F13*%
X147287658Y-150425303D03*
X147287658Y-147019301D03*
X147287658Y-142549300D03*
X147287658Y-139143299D03*
%TD*%
%TO.C,F12*%
X139926944Y-150425303D03*
X139926944Y-147019301D03*
X139926944Y-142549300D03*
X139926944Y-139143299D03*
%TD*%
%TO.C,F11*%
X132566230Y-150425303D03*
X132566230Y-147019301D03*
X132566230Y-142549300D03*
X132566230Y-139143299D03*
%TD*%
%TO.C,F10*%
X125205516Y-150425303D03*
X125205516Y-147019301D03*
X125205516Y-142549300D03*
X125205516Y-139143299D03*
%TD*%
%TO.C,F9*%
X117844800Y-150425303D03*
X117844800Y-147019301D03*
X117844800Y-142549300D03*
X117844800Y-139143299D03*
%TD*%
D28*
%TO.C,J31*%
X97500000Y-135190000D03*
G36*
G01*
X94150000Y-135940000D02*
X94150000Y-134440000D01*
G75*
G02*
X94400000Y-134190000I250000J0D01*
G01*
X95600000Y-134190000D01*
G75*
G02*
X95850000Y-134440000I0J-250000D01*
G01*
X95850000Y-135940000D01*
G75*
G02*
X95600000Y-136190000I-250000J0D01*
G01*
X94400000Y-136190000D01*
G75*
G02*
X94150000Y-135940000I0J250000D01*
G01*
G37*
%TD*%
D29*
%TO.C,H3*%
X76200000Y-35100000D03*
D30*
X76200000Y-35100000D03*
%TD*%
%TO.C,U8*%
G36*
G01*
X95990000Y-126625000D02*
X95990000Y-126925000D01*
G75*
G02*
X95840000Y-127075000I-150000J0D01*
G01*
X94190000Y-127075000D01*
G75*
G02*
X94040000Y-126925000I0J150000D01*
G01*
X94040000Y-126625000D01*
G75*
G02*
X94190000Y-126475000I150000J0D01*
G01*
X95840000Y-126475000D01*
G75*
G02*
X95990000Y-126625000I0J-150000D01*
G01*
G37*
G36*
G01*
X95990000Y-125355000D02*
X95990000Y-125655000D01*
G75*
G02*
X95840000Y-125805000I-150000J0D01*
G01*
X94190000Y-125805000D01*
G75*
G02*
X94040000Y-125655000I0J150000D01*
G01*
X94040000Y-125355000D01*
G75*
G02*
X94190000Y-125205000I150000J0D01*
G01*
X95840000Y-125205000D01*
G75*
G02*
X95990000Y-125355000I0J-150000D01*
G01*
G37*
G36*
G01*
X95990000Y-124085000D02*
X95990000Y-124385000D01*
G75*
G02*
X95840000Y-124535000I-150000J0D01*
G01*
X94190000Y-124535000D01*
G75*
G02*
X94040000Y-124385000I0J150000D01*
G01*
X94040000Y-124085000D01*
G75*
G02*
X94190000Y-123935000I150000J0D01*
G01*
X95840000Y-123935000D01*
G75*
G02*
X95990000Y-124085000I0J-150000D01*
G01*
G37*
G36*
G01*
X95990000Y-122815000D02*
X95990000Y-123115000D01*
G75*
G02*
X95840000Y-123265000I-150000J0D01*
G01*
X94190000Y-123265000D01*
G75*
G02*
X94040000Y-123115000I0J150000D01*
G01*
X94040000Y-122815000D01*
G75*
G02*
X94190000Y-122665000I150000J0D01*
G01*
X95840000Y-122665000D01*
G75*
G02*
X95990000Y-122815000I0J-150000D01*
G01*
G37*
G36*
G01*
X100940000Y-122815000D02*
X100940000Y-123115000D01*
G75*
G02*
X100790000Y-123265000I-150000J0D01*
G01*
X99140000Y-123265000D01*
G75*
G02*
X98990000Y-123115000I0J150000D01*
G01*
X98990000Y-122815000D01*
G75*
G02*
X99140000Y-122665000I150000J0D01*
G01*
X100790000Y-122665000D01*
G75*
G02*
X100940000Y-122815000I0J-150000D01*
G01*
G37*
G36*
G01*
X100940000Y-124085000D02*
X100940000Y-124385000D01*
G75*
G02*
X100790000Y-124535000I-150000J0D01*
G01*
X99140000Y-124535000D01*
G75*
G02*
X98990000Y-124385000I0J150000D01*
G01*
X98990000Y-124085000D01*
G75*
G02*
X99140000Y-123935000I150000J0D01*
G01*
X100790000Y-123935000D01*
G75*
G02*
X100940000Y-124085000I0J-150000D01*
G01*
G37*
G36*
G01*
X100940000Y-125355000D02*
X100940000Y-125655000D01*
G75*
G02*
X100790000Y-125805000I-150000J0D01*
G01*
X99140000Y-125805000D01*
G75*
G02*
X98990000Y-125655000I0J150000D01*
G01*
X98990000Y-125355000D01*
G75*
G02*
X99140000Y-125205000I150000J0D01*
G01*
X100790000Y-125205000D01*
G75*
G02*
X100940000Y-125355000I0J-150000D01*
G01*
G37*
G36*
G01*
X100940000Y-126625000D02*
X100940000Y-126925000D01*
G75*
G02*
X100790000Y-127075000I-150000J0D01*
G01*
X99140000Y-127075000D01*
G75*
G02*
X98990000Y-126925000I0J150000D01*
G01*
X98990000Y-126625000D01*
G75*
G02*
X99140000Y-126475000I150000J0D01*
G01*
X100790000Y-126475000D01*
G75*
G02*
X100940000Y-126625000I0J-150000D01*
G01*
G37*
%TD*%
%TO.C,U5*%
G36*
G01*
X91985000Y-52640000D02*
X91985000Y-52340000D01*
G75*
G02*
X92135000Y-52190000I150000J0D01*
G01*
X93785000Y-52190000D01*
G75*
G02*
X93935000Y-52340000I0J-150000D01*
G01*
X93935000Y-52640000D01*
G75*
G02*
X93785000Y-52790000I-150000J0D01*
G01*
X92135000Y-52790000D01*
G75*
G02*
X91985000Y-52640000I0J150000D01*
G01*
G37*
G36*
G01*
X91985000Y-53910000D02*
X91985000Y-53610000D01*
G75*
G02*
X92135000Y-53460000I150000J0D01*
G01*
X93785000Y-53460000D01*
G75*
G02*
X93935000Y-53610000I0J-150000D01*
G01*
X93935000Y-53910000D01*
G75*
G02*
X93785000Y-54060000I-150000J0D01*
G01*
X92135000Y-54060000D01*
G75*
G02*
X91985000Y-53910000I0J150000D01*
G01*
G37*
G36*
G01*
X91985000Y-55180000D02*
X91985000Y-54880000D01*
G75*
G02*
X92135000Y-54730000I150000J0D01*
G01*
X93785000Y-54730000D01*
G75*
G02*
X93935000Y-54880000I0J-150000D01*
G01*
X93935000Y-55180000D01*
G75*
G02*
X93785000Y-55330000I-150000J0D01*
G01*
X92135000Y-55330000D01*
G75*
G02*
X91985000Y-55180000I0J150000D01*
G01*
G37*
G36*
G01*
X91985000Y-56450000D02*
X91985000Y-56150000D01*
G75*
G02*
X92135000Y-56000000I150000J0D01*
G01*
X93785000Y-56000000D01*
G75*
G02*
X93935000Y-56150000I0J-150000D01*
G01*
X93935000Y-56450000D01*
G75*
G02*
X93785000Y-56600000I-150000J0D01*
G01*
X92135000Y-56600000D01*
G75*
G02*
X91985000Y-56450000I0J150000D01*
G01*
G37*
G36*
G01*
X91985000Y-57720000D02*
X91985000Y-57420000D01*
G75*
G02*
X92135000Y-57270000I150000J0D01*
G01*
X93785000Y-57270000D01*
G75*
G02*
X93935000Y-57420000I0J-150000D01*
G01*
X93935000Y-57720000D01*
G75*
G02*
X93785000Y-57870000I-150000J0D01*
G01*
X92135000Y-57870000D01*
G75*
G02*
X91985000Y-57720000I0J150000D01*
G01*
G37*
G36*
G01*
X91985000Y-58990000D02*
X91985000Y-58690000D01*
G75*
G02*
X92135000Y-58540000I150000J0D01*
G01*
X93785000Y-58540000D01*
G75*
G02*
X93935000Y-58690000I0J-150000D01*
G01*
X93935000Y-58990000D01*
G75*
G02*
X93785000Y-59140000I-150000J0D01*
G01*
X92135000Y-59140000D01*
G75*
G02*
X91985000Y-58990000I0J150000D01*
G01*
G37*
G36*
G01*
X91985000Y-60260000D02*
X91985000Y-59960000D01*
G75*
G02*
X92135000Y-59810000I150000J0D01*
G01*
X93785000Y-59810000D01*
G75*
G02*
X93935000Y-59960000I0J-150000D01*
G01*
X93935000Y-60260000D01*
G75*
G02*
X93785000Y-60410000I-150000J0D01*
G01*
X92135000Y-60410000D01*
G75*
G02*
X91985000Y-60260000I0J150000D01*
G01*
G37*
G36*
G01*
X91985000Y-61530000D02*
X91985000Y-61230000D01*
G75*
G02*
X92135000Y-61080000I150000J0D01*
G01*
X93785000Y-61080000D01*
G75*
G02*
X93935000Y-61230000I0J-150000D01*
G01*
X93935000Y-61530000D01*
G75*
G02*
X93785000Y-61680000I-150000J0D01*
G01*
X92135000Y-61680000D01*
G75*
G02*
X91985000Y-61530000I0J150000D01*
G01*
G37*
G36*
G01*
X87035000Y-61530000D02*
X87035000Y-61230000D01*
G75*
G02*
X87185000Y-61080000I150000J0D01*
G01*
X88835000Y-61080000D01*
G75*
G02*
X88985000Y-61230000I0J-150000D01*
G01*
X88985000Y-61530000D01*
G75*
G02*
X88835000Y-61680000I-150000J0D01*
G01*
X87185000Y-61680000D01*
G75*
G02*
X87035000Y-61530000I0J150000D01*
G01*
G37*
G36*
G01*
X87035000Y-60260000D02*
X87035000Y-59960000D01*
G75*
G02*
X87185000Y-59810000I150000J0D01*
G01*
X88835000Y-59810000D01*
G75*
G02*
X88985000Y-59960000I0J-150000D01*
G01*
X88985000Y-60260000D01*
G75*
G02*
X88835000Y-60410000I-150000J0D01*
G01*
X87185000Y-60410000D01*
G75*
G02*
X87035000Y-60260000I0J150000D01*
G01*
G37*
G36*
G01*
X87035000Y-58990000D02*
X87035000Y-58690000D01*
G75*
G02*
X87185000Y-58540000I150000J0D01*
G01*
X88835000Y-58540000D01*
G75*
G02*
X88985000Y-58690000I0J-150000D01*
G01*
X88985000Y-58990000D01*
G75*
G02*
X88835000Y-59140000I-150000J0D01*
G01*
X87185000Y-59140000D01*
G75*
G02*
X87035000Y-58990000I0J150000D01*
G01*
G37*
G36*
G01*
X87035000Y-57720000D02*
X87035000Y-57420000D01*
G75*
G02*
X87185000Y-57270000I150000J0D01*
G01*
X88835000Y-57270000D01*
G75*
G02*
X88985000Y-57420000I0J-150000D01*
G01*
X88985000Y-57720000D01*
G75*
G02*
X88835000Y-57870000I-150000J0D01*
G01*
X87185000Y-57870000D01*
G75*
G02*
X87035000Y-57720000I0J150000D01*
G01*
G37*
G36*
G01*
X87035000Y-56450000D02*
X87035000Y-56150000D01*
G75*
G02*
X87185000Y-56000000I150000J0D01*
G01*
X88835000Y-56000000D01*
G75*
G02*
X88985000Y-56150000I0J-150000D01*
G01*
X88985000Y-56450000D01*
G75*
G02*
X88835000Y-56600000I-150000J0D01*
G01*
X87185000Y-56600000D01*
G75*
G02*
X87035000Y-56450000I0J150000D01*
G01*
G37*
G36*
G01*
X87035000Y-55180000D02*
X87035000Y-54880000D01*
G75*
G02*
X87185000Y-54730000I150000J0D01*
G01*
X88835000Y-54730000D01*
G75*
G02*
X88985000Y-54880000I0J-150000D01*
G01*
X88985000Y-55180000D01*
G75*
G02*
X88835000Y-55330000I-150000J0D01*
G01*
X87185000Y-55330000D01*
G75*
G02*
X87035000Y-55180000I0J150000D01*
G01*
G37*
G36*
G01*
X87035000Y-53910000D02*
X87035000Y-53610000D01*
G75*
G02*
X87185000Y-53460000I150000J0D01*
G01*
X88835000Y-53460000D01*
G75*
G02*
X88985000Y-53610000I0J-150000D01*
G01*
X88985000Y-53910000D01*
G75*
G02*
X88835000Y-54060000I-150000J0D01*
G01*
X87185000Y-54060000D01*
G75*
G02*
X87035000Y-53910000I0J150000D01*
G01*
G37*
G36*
G01*
X87035000Y-52640000D02*
X87035000Y-52340000D01*
G75*
G02*
X87185000Y-52190000I150000J0D01*
G01*
X88835000Y-52190000D01*
G75*
G02*
X88985000Y-52340000I0J-150000D01*
G01*
X88985000Y-52640000D01*
G75*
G02*
X88835000Y-52790000I-150000J0D01*
G01*
X87185000Y-52790000D01*
G75*
G02*
X87035000Y-52640000I0J150000D01*
G01*
G37*
%TD*%
D28*
%TO.C,J33*%
X64429299Y-31160000D03*
G36*
G01*
X61079299Y-31910000D02*
X61079299Y-30410000D01*
G75*
G02*
X61329299Y-30160000I250000J0D01*
G01*
X62529299Y-30160000D01*
G75*
G02*
X62779299Y-30410000I0J-250000D01*
G01*
X62779299Y-31910000D01*
G75*
G02*
X62529299Y-32160000I-250000J0D01*
G01*
X61329299Y-32160000D01*
G75*
G02*
X61079299Y-31910000I0J250000D01*
G01*
G37*
%TD*%
D29*
%TO.C,H5*%
X247320000Y-112460000D03*
D30*
X247320000Y-112460000D03*
%TD*%
D29*
%TO.C,H4*%
X107982000Y-124848000D03*
D30*
X107982000Y-124848000D03*
%TD*%
D29*
%TO.C,H2*%
X138580000Y-35160000D03*
D30*
X138580000Y-35160000D03*
%TD*%
%TO.C,H1*%
X220740000Y-37340000D03*
D29*
X220740000Y-37340000D03*
%TD*%
%TO.C,H6*%
X175730000Y-111580000D03*
D30*
X175730000Y-111580000D03*
%TD*%
%TO.C,U3*%
G36*
G01*
X151410000Y-74295000D02*
X151410000Y-73995000D01*
G75*
G02*
X151560000Y-73845000I150000J0D01*
G01*
X153210000Y-73845000D01*
G75*
G02*
X153360000Y-73995000I0J-150000D01*
G01*
X153360000Y-74295000D01*
G75*
G02*
X153210000Y-74445000I-150000J0D01*
G01*
X151560000Y-74445000D01*
G75*
G02*
X151410000Y-74295000I0J150000D01*
G01*
G37*
G36*
G01*
X151410000Y-75565000D02*
X151410000Y-75265000D01*
G75*
G02*
X151560000Y-75115000I150000J0D01*
G01*
X153210000Y-75115000D01*
G75*
G02*
X153360000Y-75265000I0J-150000D01*
G01*
X153360000Y-75565000D01*
G75*
G02*
X153210000Y-75715000I-150000J0D01*
G01*
X151560000Y-75715000D01*
G75*
G02*
X151410000Y-75565000I0J150000D01*
G01*
G37*
G36*
G01*
X151410000Y-76835000D02*
X151410000Y-76535000D01*
G75*
G02*
X151560000Y-76385000I150000J0D01*
G01*
X153210000Y-76385000D01*
G75*
G02*
X153360000Y-76535000I0J-150000D01*
G01*
X153360000Y-76835000D01*
G75*
G02*
X153210000Y-76985000I-150000J0D01*
G01*
X151560000Y-76985000D01*
G75*
G02*
X151410000Y-76835000I0J150000D01*
G01*
G37*
G36*
G01*
X151410000Y-78105000D02*
X151410000Y-77805000D01*
G75*
G02*
X151560000Y-77655000I150000J0D01*
G01*
X153210000Y-77655000D01*
G75*
G02*
X153360000Y-77805000I0J-150000D01*
G01*
X153360000Y-78105000D01*
G75*
G02*
X153210000Y-78255000I-150000J0D01*
G01*
X151560000Y-78255000D01*
G75*
G02*
X151410000Y-78105000I0J150000D01*
G01*
G37*
G36*
G01*
X151410000Y-79375000D02*
X151410000Y-79075000D01*
G75*
G02*
X151560000Y-78925000I150000J0D01*
G01*
X153210000Y-78925000D01*
G75*
G02*
X153360000Y-79075000I0J-150000D01*
G01*
X153360000Y-79375000D01*
G75*
G02*
X153210000Y-79525000I-150000J0D01*
G01*
X151560000Y-79525000D01*
G75*
G02*
X151410000Y-79375000I0J150000D01*
G01*
G37*
G36*
G01*
X151410000Y-80645000D02*
X151410000Y-80345000D01*
G75*
G02*
X151560000Y-80195000I150000J0D01*
G01*
X153210000Y-80195000D01*
G75*
G02*
X153360000Y-80345000I0J-150000D01*
G01*
X153360000Y-80645000D01*
G75*
G02*
X153210000Y-80795000I-150000J0D01*
G01*
X151560000Y-80795000D01*
G75*
G02*
X151410000Y-80645000I0J150000D01*
G01*
G37*
G36*
G01*
X151410000Y-81915000D02*
X151410000Y-81615000D01*
G75*
G02*
X151560000Y-81465000I150000J0D01*
G01*
X153210000Y-81465000D01*
G75*
G02*
X153360000Y-81615000I0J-150000D01*
G01*
X153360000Y-81915000D01*
G75*
G02*
X153210000Y-82065000I-150000J0D01*
G01*
X151560000Y-82065000D01*
G75*
G02*
X151410000Y-81915000I0J150000D01*
G01*
G37*
G36*
G01*
X151410000Y-83185000D02*
X151410000Y-82885000D01*
G75*
G02*
X151560000Y-82735000I150000J0D01*
G01*
X153210000Y-82735000D01*
G75*
G02*
X153360000Y-82885000I0J-150000D01*
G01*
X153360000Y-83185000D01*
G75*
G02*
X153210000Y-83335000I-150000J0D01*
G01*
X151560000Y-83335000D01*
G75*
G02*
X151410000Y-83185000I0J150000D01*
G01*
G37*
G36*
G01*
X146460000Y-83185000D02*
X146460000Y-82885000D01*
G75*
G02*
X146610000Y-82735000I150000J0D01*
G01*
X148260000Y-82735000D01*
G75*
G02*
X148410000Y-82885000I0J-150000D01*
G01*
X148410000Y-83185000D01*
G75*
G02*
X148260000Y-83335000I-150000J0D01*
G01*
X146610000Y-83335000D01*
G75*
G02*
X146460000Y-83185000I0J150000D01*
G01*
G37*
G36*
G01*
X146460000Y-81915000D02*
X146460000Y-81615000D01*
G75*
G02*
X146610000Y-81465000I150000J0D01*
G01*
X148260000Y-81465000D01*
G75*
G02*
X148410000Y-81615000I0J-150000D01*
G01*
X148410000Y-81915000D01*
G75*
G02*
X148260000Y-82065000I-150000J0D01*
G01*
X146610000Y-82065000D01*
G75*
G02*
X146460000Y-81915000I0J150000D01*
G01*
G37*
G36*
G01*
X146460000Y-80645000D02*
X146460000Y-80345000D01*
G75*
G02*
X146610000Y-80195000I150000J0D01*
G01*
X148260000Y-80195000D01*
G75*
G02*
X148410000Y-80345000I0J-150000D01*
G01*
X148410000Y-80645000D01*
G75*
G02*
X148260000Y-80795000I-150000J0D01*
G01*
X146610000Y-80795000D01*
G75*
G02*
X146460000Y-80645000I0J150000D01*
G01*
G37*
G36*
G01*
X146460000Y-79375000D02*
X146460000Y-79075000D01*
G75*
G02*
X146610000Y-78925000I150000J0D01*
G01*
X148260000Y-78925000D01*
G75*
G02*
X148410000Y-79075000I0J-150000D01*
G01*
X148410000Y-79375000D01*
G75*
G02*
X148260000Y-79525000I-150000J0D01*
G01*
X146610000Y-79525000D01*
G75*
G02*
X146460000Y-79375000I0J150000D01*
G01*
G37*
G36*
G01*
X146460000Y-78105000D02*
X146460000Y-77805000D01*
G75*
G02*
X146610000Y-77655000I150000J0D01*
G01*
X148260000Y-77655000D01*
G75*
G02*
X148410000Y-77805000I0J-150000D01*
G01*
X148410000Y-78105000D01*
G75*
G02*
X148260000Y-78255000I-150000J0D01*
G01*
X146610000Y-78255000D01*
G75*
G02*
X146460000Y-78105000I0J150000D01*
G01*
G37*
G36*
G01*
X146460000Y-76835000D02*
X146460000Y-76535000D01*
G75*
G02*
X146610000Y-76385000I150000J0D01*
G01*
X148260000Y-76385000D01*
G75*
G02*
X148410000Y-76535000I0J-150000D01*
G01*
X148410000Y-76835000D01*
G75*
G02*
X148260000Y-76985000I-150000J0D01*
G01*
X146610000Y-76985000D01*
G75*
G02*
X146460000Y-76835000I0J150000D01*
G01*
G37*
G36*
G01*
X146460000Y-75565000D02*
X146460000Y-75265000D01*
G75*
G02*
X146610000Y-75115000I150000J0D01*
G01*
X148260000Y-75115000D01*
G75*
G02*
X148410000Y-75265000I0J-150000D01*
G01*
X148410000Y-75565000D01*
G75*
G02*
X148260000Y-75715000I-150000J0D01*
G01*
X146610000Y-75715000D01*
G75*
G02*
X146460000Y-75565000I0J150000D01*
G01*
G37*
G36*
G01*
X146460000Y-74295000D02*
X146460000Y-73995000D01*
G75*
G02*
X146610000Y-73845000I150000J0D01*
G01*
X148260000Y-73845000D01*
G75*
G02*
X148410000Y-73995000I0J-150000D01*
G01*
X148410000Y-74295000D01*
G75*
G02*
X148260000Y-74445000I-150000J0D01*
G01*
X146610000Y-74445000D01*
G75*
G02*
X146460000Y-74295000I0J150000D01*
G01*
G37*
%TD*%
%TO.C,U17*%
G36*
G01*
X225785000Y-85725000D02*
X225785000Y-85425000D01*
G75*
G02*
X225935000Y-85275000I150000J0D01*
G01*
X227685000Y-85275000D01*
G75*
G02*
X227835000Y-85425000I0J-150000D01*
G01*
X227835000Y-85725000D01*
G75*
G02*
X227685000Y-85875000I-150000J0D01*
G01*
X225935000Y-85875000D01*
G75*
G02*
X225785000Y-85725000I0J150000D01*
G01*
G37*
G36*
G01*
X225785000Y-86995000D02*
X225785000Y-86695000D01*
G75*
G02*
X225935000Y-86545000I150000J0D01*
G01*
X227685000Y-86545000D01*
G75*
G02*
X227835000Y-86695000I0J-150000D01*
G01*
X227835000Y-86995000D01*
G75*
G02*
X227685000Y-87145000I-150000J0D01*
G01*
X225935000Y-87145000D01*
G75*
G02*
X225785000Y-86995000I0J150000D01*
G01*
G37*
G36*
G01*
X225785000Y-88265000D02*
X225785000Y-87965000D01*
G75*
G02*
X225935000Y-87815000I150000J0D01*
G01*
X227685000Y-87815000D01*
G75*
G02*
X227835000Y-87965000I0J-150000D01*
G01*
X227835000Y-88265000D01*
G75*
G02*
X227685000Y-88415000I-150000J0D01*
G01*
X225935000Y-88415000D01*
G75*
G02*
X225785000Y-88265000I0J150000D01*
G01*
G37*
G36*
G01*
X225785000Y-89535000D02*
X225785000Y-89235000D01*
G75*
G02*
X225935000Y-89085000I150000J0D01*
G01*
X227685000Y-89085000D01*
G75*
G02*
X227835000Y-89235000I0J-150000D01*
G01*
X227835000Y-89535000D01*
G75*
G02*
X227685000Y-89685000I-150000J0D01*
G01*
X225935000Y-89685000D01*
G75*
G02*
X225785000Y-89535000I0J150000D01*
G01*
G37*
G36*
G01*
X225785000Y-90805000D02*
X225785000Y-90505000D01*
G75*
G02*
X225935000Y-90355000I150000J0D01*
G01*
X227685000Y-90355000D01*
G75*
G02*
X227835000Y-90505000I0J-150000D01*
G01*
X227835000Y-90805000D01*
G75*
G02*
X227685000Y-90955000I-150000J0D01*
G01*
X225935000Y-90955000D01*
G75*
G02*
X225785000Y-90805000I0J150000D01*
G01*
G37*
G36*
G01*
X225785000Y-92075000D02*
X225785000Y-91775000D01*
G75*
G02*
X225935000Y-91625000I150000J0D01*
G01*
X227685000Y-91625000D01*
G75*
G02*
X227835000Y-91775000I0J-150000D01*
G01*
X227835000Y-92075000D01*
G75*
G02*
X227685000Y-92225000I-150000J0D01*
G01*
X225935000Y-92225000D01*
G75*
G02*
X225785000Y-92075000I0J150000D01*
G01*
G37*
G36*
G01*
X225785000Y-93345000D02*
X225785000Y-93045000D01*
G75*
G02*
X225935000Y-92895000I150000J0D01*
G01*
X227685000Y-92895000D01*
G75*
G02*
X227835000Y-93045000I0J-150000D01*
G01*
X227835000Y-93345000D01*
G75*
G02*
X227685000Y-93495000I-150000J0D01*
G01*
X225935000Y-93495000D01*
G75*
G02*
X225785000Y-93345000I0J150000D01*
G01*
G37*
G36*
G01*
X225785000Y-94615000D02*
X225785000Y-94315000D01*
G75*
G02*
X225935000Y-94165000I150000J0D01*
G01*
X227685000Y-94165000D01*
G75*
G02*
X227835000Y-94315000I0J-150000D01*
G01*
X227835000Y-94615000D01*
G75*
G02*
X227685000Y-94765000I-150000J0D01*
G01*
X225935000Y-94765000D01*
G75*
G02*
X225785000Y-94615000I0J150000D01*
G01*
G37*
G36*
G01*
X225785000Y-95885000D02*
X225785000Y-95585000D01*
G75*
G02*
X225935000Y-95435000I150000J0D01*
G01*
X227685000Y-95435000D01*
G75*
G02*
X227835000Y-95585000I0J-150000D01*
G01*
X227835000Y-95885000D01*
G75*
G02*
X227685000Y-96035000I-150000J0D01*
G01*
X225935000Y-96035000D01*
G75*
G02*
X225785000Y-95885000I0J150000D01*
G01*
G37*
G36*
G01*
X225785000Y-97155000D02*
X225785000Y-96855000D01*
G75*
G02*
X225935000Y-96705000I150000J0D01*
G01*
X227685000Y-96705000D01*
G75*
G02*
X227835000Y-96855000I0J-150000D01*
G01*
X227835000Y-97155000D01*
G75*
G02*
X227685000Y-97305000I-150000J0D01*
G01*
X225935000Y-97305000D01*
G75*
G02*
X225785000Y-97155000I0J150000D01*
G01*
G37*
G36*
G01*
X216485000Y-97155000D02*
X216485000Y-96855000D01*
G75*
G02*
X216635000Y-96705000I150000J0D01*
G01*
X218385000Y-96705000D01*
G75*
G02*
X218535000Y-96855000I0J-150000D01*
G01*
X218535000Y-97155000D01*
G75*
G02*
X218385000Y-97305000I-150000J0D01*
G01*
X216635000Y-97305000D01*
G75*
G02*
X216485000Y-97155000I0J150000D01*
G01*
G37*
G36*
G01*
X216485000Y-95885000D02*
X216485000Y-95585000D01*
G75*
G02*
X216635000Y-95435000I150000J0D01*
G01*
X218385000Y-95435000D01*
G75*
G02*
X218535000Y-95585000I0J-150000D01*
G01*
X218535000Y-95885000D01*
G75*
G02*
X218385000Y-96035000I-150000J0D01*
G01*
X216635000Y-96035000D01*
G75*
G02*
X216485000Y-95885000I0J150000D01*
G01*
G37*
G36*
G01*
X216485000Y-94615000D02*
X216485000Y-94315000D01*
G75*
G02*
X216635000Y-94165000I150000J0D01*
G01*
X218385000Y-94165000D01*
G75*
G02*
X218535000Y-94315000I0J-150000D01*
G01*
X218535000Y-94615000D01*
G75*
G02*
X218385000Y-94765000I-150000J0D01*
G01*
X216635000Y-94765000D01*
G75*
G02*
X216485000Y-94615000I0J150000D01*
G01*
G37*
G36*
G01*
X216485000Y-93345000D02*
X216485000Y-93045000D01*
G75*
G02*
X216635000Y-92895000I150000J0D01*
G01*
X218385000Y-92895000D01*
G75*
G02*
X218535000Y-93045000I0J-150000D01*
G01*
X218535000Y-93345000D01*
G75*
G02*
X218385000Y-93495000I-150000J0D01*
G01*
X216635000Y-93495000D01*
G75*
G02*
X216485000Y-93345000I0J150000D01*
G01*
G37*
G36*
G01*
X216485000Y-92075000D02*
X216485000Y-91775000D01*
G75*
G02*
X216635000Y-91625000I150000J0D01*
G01*
X218385000Y-91625000D01*
G75*
G02*
X218535000Y-91775000I0J-150000D01*
G01*
X218535000Y-92075000D01*
G75*
G02*
X218385000Y-92225000I-150000J0D01*
G01*
X216635000Y-92225000D01*
G75*
G02*
X216485000Y-92075000I0J150000D01*
G01*
G37*
G36*
G01*
X216485000Y-90805000D02*
X216485000Y-90505000D01*
G75*
G02*
X216635000Y-90355000I150000J0D01*
G01*
X218385000Y-90355000D01*
G75*
G02*
X218535000Y-90505000I0J-150000D01*
G01*
X218535000Y-90805000D01*
G75*
G02*
X218385000Y-90955000I-150000J0D01*
G01*
X216635000Y-90955000D01*
G75*
G02*
X216485000Y-90805000I0J150000D01*
G01*
G37*
G36*
G01*
X216485000Y-89535000D02*
X216485000Y-89235000D01*
G75*
G02*
X216635000Y-89085000I150000J0D01*
G01*
X218385000Y-89085000D01*
G75*
G02*
X218535000Y-89235000I0J-150000D01*
G01*
X218535000Y-89535000D01*
G75*
G02*
X218385000Y-89685000I-150000J0D01*
G01*
X216635000Y-89685000D01*
G75*
G02*
X216485000Y-89535000I0J150000D01*
G01*
G37*
G36*
G01*
X216485000Y-88265000D02*
X216485000Y-87965000D01*
G75*
G02*
X216635000Y-87815000I150000J0D01*
G01*
X218385000Y-87815000D01*
G75*
G02*
X218535000Y-87965000I0J-150000D01*
G01*
X218535000Y-88265000D01*
G75*
G02*
X218385000Y-88415000I-150000J0D01*
G01*
X216635000Y-88415000D01*
G75*
G02*
X216485000Y-88265000I0J150000D01*
G01*
G37*
G36*
G01*
X216485000Y-86995000D02*
X216485000Y-86695000D01*
G75*
G02*
X216635000Y-86545000I150000J0D01*
G01*
X218385000Y-86545000D01*
G75*
G02*
X218535000Y-86695000I0J-150000D01*
G01*
X218535000Y-86995000D01*
G75*
G02*
X218385000Y-87145000I-150000J0D01*
G01*
X216635000Y-87145000D01*
G75*
G02*
X216485000Y-86995000I0J150000D01*
G01*
G37*
G36*
G01*
X216485000Y-85725000D02*
X216485000Y-85425000D01*
G75*
G02*
X216635000Y-85275000I150000J0D01*
G01*
X218385000Y-85275000D01*
G75*
G02*
X218535000Y-85425000I0J-150000D01*
G01*
X218535000Y-85725000D01*
G75*
G02*
X218385000Y-85875000I-150000J0D01*
G01*
X216635000Y-85875000D01*
G75*
G02*
X216485000Y-85725000I0J150000D01*
G01*
G37*
%TD*%
%TO.C,U9*%
G36*
G01*
X137535000Y-97245000D02*
X137835000Y-97245000D01*
G75*
G02*
X137985000Y-97395000I0J-150000D01*
G01*
X137985000Y-99145000D01*
G75*
G02*
X137835000Y-99295000I-150000J0D01*
G01*
X137535000Y-99295000D01*
G75*
G02*
X137385000Y-99145000I0J150000D01*
G01*
X137385000Y-97395000D01*
G75*
G02*
X137535000Y-97245000I150000J0D01*
G01*
G37*
G36*
G01*
X136265000Y-97245000D02*
X136565000Y-97245000D01*
G75*
G02*
X136715000Y-97395000I0J-150000D01*
G01*
X136715000Y-99145000D01*
G75*
G02*
X136565000Y-99295000I-150000J0D01*
G01*
X136265000Y-99295000D01*
G75*
G02*
X136115000Y-99145000I0J150000D01*
G01*
X136115000Y-97395000D01*
G75*
G02*
X136265000Y-97245000I150000J0D01*
G01*
G37*
G36*
G01*
X134995000Y-97245000D02*
X135295000Y-97245000D01*
G75*
G02*
X135445000Y-97395000I0J-150000D01*
G01*
X135445000Y-99145000D01*
G75*
G02*
X135295000Y-99295000I-150000J0D01*
G01*
X134995000Y-99295000D01*
G75*
G02*
X134845000Y-99145000I0J150000D01*
G01*
X134845000Y-97395000D01*
G75*
G02*
X134995000Y-97245000I150000J0D01*
G01*
G37*
G36*
G01*
X133725000Y-97245000D02*
X134025000Y-97245000D01*
G75*
G02*
X134175000Y-97395000I0J-150000D01*
G01*
X134175000Y-99145000D01*
G75*
G02*
X134025000Y-99295000I-150000J0D01*
G01*
X133725000Y-99295000D01*
G75*
G02*
X133575000Y-99145000I0J150000D01*
G01*
X133575000Y-97395000D01*
G75*
G02*
X133725000Y-97245000I150000J0D01*
G01*
G37*
G36*
G01*
X132455000Y-97245000D02*
X132755000Y-97245000D01*
G75*
G02*
X132905000Y-97395000I0J-150000D01*
G01*
X132905000Y-99145000D01*
G75*
G02*
X132755000Y-99295000I-150000J0D01*
G01*
X132455000Y-99295000D01*
G75*
G02*
X132305000Y-99145000I0J150000D01*
G01*
X132305000Y-97395000D01*
G75*
G02*
X132455000Y-97245000I150000J0D01*
G01*
G37*
G36*
G01*
X131185000Y-97245000D02*
X131485000Y-97245000D01*
G75*
G02*
X131635000Y-97395000I0J-150000D01*
G01*
X131635000Y-99145000D01*
G75*
G02*
X131485000Y-99295000I-150000J0D01*
G01*
X131185000Y-99295000D01*
G75*
G02*
X131035000Y-99145000I0J150000D01*
G01*
X131035000Y-97395000D01*
G75*
G02*
X131185000Y-97245000I150000J0D01*
G01*
G37*
G36*
G01*
X129915000Y-97245000D02*
X130215000Y-97245000D01*
G75*
G02*
X130365000Y-97395000I0J-150000D01*
G01*
X130365000Y-99145000D01*
G75*
G02*
X130215000Y-99295000I-150000J0D01*
G01*
X129915000Y-99295000D01*
G75*
G02*
X129765000Y-99145000I0J150000D01*
G01*
X129765000Y-97395000D01*
G75*
G02*
X129915000Y-97245000I150000J0D01*
G01*
G37*
G36*
G01*
X128645000Y-97245000D02*
X128945000Y-97245000D01*
G75*
G02*
X129095000Y-97395000I0J-150000D01*
G01*
X129095000Y-99145000D01*
G75*
G02*
X128945000Y-99295000I-150000J0D01*
G01*
X128645000Y-99295000D01*
G75*
G02*
X128495000Y-99145000I0J150000D01*
G01*
X128495000Y-97395000D01*
G75*
G02*
X128645000Y-97245000I150000J0D01*
G01*
G37*
G36*
G01*
X127375000Y-97245000D02*
X127675000Y-97245000D01*
G75*
G02*
X127825000Y-97395000I0J-150000D01*
G01*
X127825000Y-99145000D01*
G75*
G02*
X127675000Y-99295000I-150000J0D01*
G01*
X127375000Y-99295000D01*
G75*
G02*
X127225000Y-99145000I0J150000D01*
G01*
X127225000Y-97395000D01*
G75*
G02*
X127375000Y-97245000I150000J0D01*
G01*
G37*
G36*
G01*
X126105000Y-97245000D02*
X126405000Y-97245000D01*
G75*
G02*
X126555000Y-97395000I0J-150000D01*
G01*
X126555000Y-99145000D01*
G75*
G02*
X126405000Y-99295000I-150000J0D01*
G01*
X126105000Y-99295000D01*
G75*
G02*
X125955000Y-99145000I0J150000D01*
G01*
X125955000Y-97395000D01*
G75*
G02*
X126105000Y-97245000I150000J0D01*
G01*
G37*
G36*
G01*
X126105000Y-87945000D02*
X126405000Y-87945000D01*
G75*
G02*
X126555000Y-88095000I0J-150000D01*
G01*
X126555000Y-89845000D01*
G75*
G02*
X126405000Y-89995000I-150000J0D01*
G01*
X126105000Y-89995000D01*
G75*
G02*
X125955000Y-89845000I0J150000D01*
G01*
X125955000Y-88095000D01*
G75*
G02*
X126105000Y-87945000I150000J0D01*
G01*
G37*
G36*
G01*
X127375000Y-87945000D02*
X127675000Y-87945000D01*
G75*
G02*
X127825000Y-88095000I0J-150000D01*
G01*
X127825000Y-89845000D01*
G75*
G02*
X127675000Y-89995000I-150000J0D01*
G01*
X127375000Y-89995000D01*
G75*
G02*
X127225000Y-89845000I0J150000D01*
G01*
X127225000Y-88095000D01*
G75*
G02*
X127375000Y-87945000I150000J0D01*
G01*
G37*
G36*
G01*
X128645000Y-87945000D02*
X128945000Y-87945000D01*
G75*
G02*
X129095000Y-88095000I0J-150000D01*
G01*
X129095000Y-89845000D01*
G75*
G02*
X128945000Y-89995000I-150000J0D01*
G01*
X128645000Y-89995000D01*
G75*
G02*
X128495000Y-89845000I0J150000D01*
G01*
X128495000Y-88095000D01*
G75*
G02*
X128645000Y-87945000I150000J0D01*
G01*
G37*
G36*
G01*
X129915000Y-87945000D02*
X130215000Y-87945000D01*
G75*
G02*
X130365000Y-88095000I0J-150000D01*
G01*
X130365000Y-89845000D01*
G75*
G02*
X130215000Y-89995000I-150000J0D01*
G01*
X129915000Y-89995000D01*
G75*
G02*
X129765000Y-89845000I0J150000D01*
G01*
X129765000Y-88095000D01*
G75*
G02*
X129915000Y-87945000I150000J0D01*
G01*
G37*
G36*
G01*
X131185000Y-87945000D02*
X131485000Y-87945000D01*
G75*
G02*
X131635000Y-88095000I0J-150000D01*
G01*
X131635000Y-89845000D01*
G75*
G02*
X131485000Y-89995000I-150000J0D01*
G01*
X131185000Y-89995000D01*
G75*
G02*
X131035000Y-89845000I0J150000D01*
G01*
X131035000Y-88095000D01*
G75*
G02*
X131185000Y-87945000I150000J0D01*
G01*
G37*
G36*
G01*
X132455000Y-87945000D02*
X132755000Y-87945000D01*
G75*
G02*
X132905000Y-88095000I0J-150000D01*
G01*
X132905000Y-89845000D01*
G75*
G02*
X132755000Y-89995000I-150000J0D01*
G01*
X132455000Y-89995000D01*
G75*
G02*
X132305000Y-89845000I0J150000D01*
G01*
X132305000Y-88095000D01*
G75*
G02*
X132455000Y-87945000I150000J0D01*
G01*
G37*
G36*
G01*
X133725000Y-87945000D02*
X134025000Y-87945000D01*
G75*
G02*
X134175000Y-88095000I0J-150000D01*
G01*
X134175000Y-89845000D01*
G75*
G02*
X134025000Y-89995000I-150000J0D01*
G01*
X133725000Y-89995000D01*
G75*
G02*
X133575000Y-89845000I0J150000D01*
G01*
X133575000Y-88095000D01*
G75*
G02*
X133725000Y-87945000I150000J0D01*
G01*
G37*
G36*
G01*
X134995000Y-87945000D02*
X135295000Y-87945000D01*
G75*
G02*
X135445000Y-88095000I0J-150000D01*
G01*
X135445000Y-89845000D01*
G75*
G02*
X135295000Y-89995000I-150000J0D01*
G01*
X134995000Y-89995000D01*
G75*
G02*
X134845000Y-89845000I0J150000D01*
G01*
X134845000Y-88095000D01*
G75*
G02*
X134995000Y-87945000I150000J0D01*
G01*
G37*
G36*
G01*
X136265000Y-87945000D02*
X136565000Y-87945000D01*
G75*
G02*
X136715000Y-88095000I0J-150000D01*
G01*
X136715000Y-89845000D01*
G75*
G02*
X136565000Y-89995000I-150000J0D01*
G01*
X136265000Y-89995000D01*
G75*
G02*
X136115000Y-89845000I0J150000D01*
G01*
X136115000Y-88095000D01*
G75*
G02*
X136265000Y-87945000I150000J0D01*
G01*
G37*
G36*
G01*
X137535000Y-87945000D02*
X137835000Y-87945000D01*
G75*
G02*
X137985000Y-88095000I0J-150000D01*
G01*
X137985000Y-89845000D01*
G75*
G02*
X137835000Y-89995000I-150000J0D01*
G01*
X137535000Y-89995000D01*
G75*
G02*
X137385000Y-89845000I0J150000D01*
G01*
X137385000Y-88095000D01*
G75*
G02*
X137535000Y-87945000I150000J0D01*
G01*
G37*
%TD*%
%TO.C,U7*%
G36*
G01*
X126110000Y-52665000D02*
X126110000Y-52365000D01*
G75*
G02*
X126260000Y-52215000I150000J0D01*
G01*
X127910000Y-52215000D01*
G75*
G02*
X128060000Y-52365000I0J-150000D01*
G01*
X128060000Y-52665000D01*
G75*
G02*
X127910000Y-52815000I-150000J0D01*
G01*
X126260000Y-52815000D01*
G75*
G02*
X126110000Y-52665000I0J150000D01*
G01*
G37*
G36*
G01*
X126110000Y-53935000D02*
X126110000Y-53635000D01*
G75*
G02*
X126260000Y-53485000I150000J0D01*
G01*
X127910000Y-53485000D01*
G75*
G02*
X128060000Y-53635000I0J-150000D01*
G01*
X128060000Y-53935000D01*
G75*
G02*
X127910000Y-54085000I-150000J0D01*
G01*
X126260000Y-54085000D01*
G75*
G02*
X126110000Y-53935000I0J150000D01*
G01*
G37*
G36*
G01*
X126110000Y-55205000D02*
X126110000Y-54905000D01*
G75*
G02*
X126260000Y-54755000I150000J0D01*
G01*
X127910000Y-54755000D01*
G75*
G02*
X128060000Y-54905000I0J-150000D01*
G01*
X128060000Y-55205000D01*
G75*
G02*
X127910000Y-55355000I-150000J0D01*
G01*
X126260000Y-55355000D01*
G75*
G02*
X126110000Y-55205000I0J150000D01*
G01*
G37*
G36*
G01*
X126110000Y-56475000D02*
X126110000Y-56175000D01*
G75*
G02*
X126260000Y-56025000I150000J0D01*
G01*
X127910000Y-56025000D01*
G75*
G02*
X128060000Y-56175000I0J-150000D01*
G01*
X128060000Y-56475000D01*
G75*
G02*
X127910000Y-56625000I-150000J0D01*
G01*
X126260000Y-56625000D01*
G75*
G02*
X126110000Y-56475000I0J150000D01*
G01*
G37*
G36*
G01*
X126110000Y-57745000D02*
X126110000Y-57445000D01*
G75*
G02*
X126260000Y-57295000I150000J0D01*
G01*
X127910000Y-57295000D01*
G75*
G02*
X128060000Y-57445000I0J-150000D01*
G01*
X128060000Y-57745000D01*
G75*
G02*
X127910000Y-57895000I-150000J0D01*
G01*
X126260000Y-57895000D01*
G75*
G02*
X126110000Y-57745000I0J150000D01*
G01*
G37*
G36*
G01*
X126110000Y-59015000D02*
X126110000Y-58715000D01*
G75*
G02*
X126260000Y-58565000I150000J0D01*
G01*
X127910000Y-58565000D01*
G75*
G02*
X128060000Y-58715000I0J-150000D01*
G01*
X128060000Y-59015000D01*
G75*
G02*
X127910000Y-59165000I-150000J0D01*
G01*
X126260000Y-59165000D01*
G75*
G02*
X126110000Y-59015000I0J150000D01*
G01*
G37*
G36*
G01*
X126110000Y-60285000D02*
X126110000Y-59985000D01*
G75*
G02*
X126260000Y-59835000I150000J0D01*
G01*
X127910000Y-59835000D01*
G75*
G02*
X128060000Y-59985000I0J-150000D01*
G01*
X128060000Y-60285000D01*
G75*
G02*
X127910000Y-60435000I-150000J0D01*
G01*
X126260000Y-60435000D01*
G75*
G02*
X126110000Y-60285000I0J150000D01*
G01*
G37*
G36*
G01*
X126110000Y-61555000D02*
X126110000Y-61255000D01*
G75*
G02*
X126260000Y-61105000I150000J0D01*
G01*
X127910000Y-61105000D01*
G75*
G02*
X128060000Y-61255000I0J-150000D01*
G01*
X128060000Y-61555000D01*
G75*
G02*
X127910000Y-61705000I-150000J0D01*
G01*
X126260000Y-61705000D01*
G75*
G02*
X126110000Y-61555000I0J150000D01*
G01*
G37*
G36*
G01*
X121160000Y-61555000D02*
X121160000Y-61255000D01*
G75*
G02*
X121310000Y-61105000I150000J0D01*
G01*
X122960000Y-61105000D01*
G75*
G02*
X123110000Y-61255000I0J-150000D01*
G01*
X123110000Y-61555000D01*
G75*
G02*
X122960000Y-61705000I-150000J0D01*
G01*
X121310000Y-61705000D01*
G75*
G02*
X121160000Y-61555000I0J150000D01*
G01*
G37*
G36*
G01*
X121160000Y-60285000D02*
X121160000Y-59985000D01*
G75*
G02*
X121310000Y-59835000I150000J0D01*
G01*
X122960000Y-59835000D01*
G75*
G02*
X123110000Y-59985000I0J-150000D01*
G01*
X123110000Y-60285000D01*
G75*
G02*
X122960000Y-60435000I-150000J0D01*
G01*
X121310000Y-60435000D01*
G75*
G02*
X121160000Y-60285000I0J150000D01*
G01*
G37*
G36*
G01*
X121160000Y-59015000D02*
X121160000Y-58715000D01*
G75*
G02*
X121310000Y-58565000I150000J0D01*
G01*
X122960000Y-58565000D01*
G75*
G02*
X123110000Y-58715000I0J-150000D01*
G01*
X123110000Y-59015000D01*
G75*
G02*
X122960000Y-59165000I-150000J0D01*
G01*
X121310000Y-59165000D01*
G75*
G02*
X121160000Y-59015000I0J150000D01*
G01*
G37*
G36*
G01*
X121160000Y-57745000D02*
X121160000Y-57445000D01*
G75*
G02*
X121310000Y-57295000I150000J0D01*
G01*
X122960000Y-57295000D01*
G75*
G02*
X123110000Y-57445000I0J-150000D01*
G01*
X123110000Y-57745000D01*
G75*
G02*
X122960000Y-57895000I-150000J0D01*
G01*
X121310000Y-57895000D01*
G75*
G02*
X121160000Y-57745000I0J150000D01*
G01*
G37*
G36*
G01*
X121160000Y-56475000D02*
X121160000Y-56175000D01*
G75*
G02*
X121310000Y-56025000I150000J0D01*
G01*
X122960000Y-56025000D01*
G75*
G02*
X123110000Y-56175000I0J-150000D01*
G01*
X123110000Y-56475000D01*
G75*
G02*
X122960000Y-56625000I-150000J0D01*
G01*
X121310000Y-56625000D01*
G75*
G02*
X121160000Y-56475000I0J150000D01*
G01*
G37*
G36*
G01*
X121160000Y-55205000D02*
X121160000Y-54905000D01*
G75*
G02*
X121310000Y-54755000I150000J0D01*
G01*
X122960000Y-54755000D01*
G75*
G02*
X123110000Y-54905000I0J-150000D01*
G01*
X123110000Y-55205000D01*
G75*
G02*
X122960000Y-55355000I-150000J0D01*
G01*
X121310000Y-55355000D01*
G75*
G02*
X121160000Y-55205000I0J150000D01*
G01*
G37*
G36*
G01*
X121160000Y-53935000D02*
X121160000Y-53635000D01*
G75*
G02*
X121310000Y-53485000I150000J0D01*
G01*
X122960000Y-53485000D01*
G75*
G02*
X123110000Y-53635000I0J-150000D01*
G01*
X123110000Y-53935000D01*
G75*
G02*
X122960000Y-54085000I-150000J0D01*
G01*
X121310000Y-54085000D01*
G75*
G02*
X121160000Y-53935000I0J150000D01*
G01*
G37*
G36*
G01*
X121160000Y-52665000D02*
X121160000Y-52365000D01*
G75*
G02*
X121310000Y-52215000I150000J0D01*
G01*
X122960000Y-52215000D01*
G75*
G02*
X123110000Y-52365000I0J-150000D01*
G01*
X123110000Y-52665000D01*
G75*
G02*
X122960000Y-52815000I-150000J0D01*
G01*
X121310000Y-52815000D01*
G75*
G02*
X121160000Y-52665000I0J150000D01*
G01*
G37*
%TD*%
%TO.C,U6*%
G36*
G01*
X109155000Y-52665000D02*
X109155000Y-52365000D01*
G75*
G02*
X109305000Y-52215000I150000J0D01*
G01*
X110955000Y-52215000D01*
G75*
G02*
X111105000Y-52365000I0J-150000D01*
G01*
X111105000Y-52665000D01*
G75*
G02*
X110955000Y-52815000I-150000J0D01*
G01*
X109305000Y-52815000D01*
G75*
G02*
X109155000Y-52665000I0J150000D01*
G01*
G37*
G36*
G01*
X109155000Y-53935000D02*
X109155000Y-53635000D01*
G75*
G02*
X109305000Y-53485000I150000J0D01*
G01*
X110955000Y-53485000D01*
G75*
G02*
X111105000Y-53635000I0J-150000D01*
G01*
X111105000Y-53935000D01*
G75*
G02*
X110955000Y-54085000I-150000J0D01*
G01*
X109305000Y-54085000D01*
G75*
G02*
X109155000Y-53935000I0J150000D01*
G01*
G37*
G36*
G01*
X109155000Y-55205000D02*
X109155000Y-54905000D01*
G75*
G02*
X109305000Y-54755000I150000J0D01*
G01*
X110955000Y-54755000D01*
G75*
G02*
X111105000Y-54905000I0J-150000D01*
G01*
X111105000Y-55205000D01*
G75*
G02*
X110955000Y-55355000I-150000J0D01*
G01*
X109305000Y-55355000D01*
G75*
G02*
X109155000Y-55205000I0J150000D01*
G01*
G37*
G36*
G01*
X109155000Y-56475000D02*
X109155000Y-56175000D01*
G75*
G02*
X109305000Y-56025000I150000J0D01*
G01*
X110955000Y-56025000D01*
G75*
G02*
X111105000Y-56175000I0J-150000D01*
G01*
X111105000Y-56475000D01*
G75*
G02*
X110955000Y-56625000I-150000J0D01*
G01*
X109305000Y-56625000D01*
G75*
G02*
X109155000Y-56475000I0J150000D01*
G01*
G37*
G36*
G01*
X109155000Y-57745000D02*
X109155000Y-57445000D01*
G75*
G02*
X109305000Y-57295000I150000J0D01*
G01*
X110955000Y-57295000D01*
G75*
G02*
X111105000Y-57445000I0J-150000D01*
G01*
X111105000Y-57745000D01*
G75*
G02*
X110955000Y-57895000I-150000J0D01*
G01*
X109305000Y-57895000D01*
G75*
G02*
X109155000Y-57745000I0J150000D01*
G01*
G37*
G36*
G01*
X109155000Y-59015000D02*
X109155000Y-58715000D01*
G75*
G02*
X109305000Y-58565000I150000J0D01*
G01*
X110955000Y-58565000D01*
G75*
G02*
X111105000Y-58715000I0J-150000D01*
G01*
X111105000Y-59015000D01*
G75*
G02*
X110955000Y-59165000I-150000J0D01*
G01*
X109305000Y-59165000D01*
G75*
G02*
X109155000Y-59015000I0J150000D01*
G01*
G37*
G36*
G01*
X109155000Y-60285000D02*
X109155000Y-59985000D01*
G75*
G02*
X109305000Y-59835000I150000J0D01*
G01*
X110955000Y-59835000D01*
G75*
G02*
X111105000Y-59985000I0J-150000D01*
G01*
X111105000Y-60285000D01*
G75*
G02*
X110955000Y-60435000I-150000J0D01*
G01*
X109305000Y-60435000D01*
G75*
G02*
X109155000Y-60285000I0J150000D01*
G01*
G37*
G36*
G01*
X109155000Y-61555000D02*
X109155000Y-61255000D01*
G75*
G02*
X109305000Y-61105000I150000J0D01*
G01*
X110955000Y-61105000D01*
G75*
G02*
X111105000Y-61255000I0J-150000D01*
G01*
X111105000Y-61555000D01*
G75*
G02*
X110955000Y-61705000I-150000J0D01*
G01*
X109305000Y-61705000D01*
G75*
G02*
X109155000Y-61555000I0J150000D01*
G01*
G37*
G36*
G01*
X104205000Y-61555000D02*
X104205000Y-61255000D01*
G75*
G02*
X104355000Y-61105000I150000J0D01*
G01*
X106005000Y-61105000D01*
G75*
G02*
X106155000Y-61255000I0J-150000D01*
G01*
X106155000Y-61555000D01*
G75*
G02*
X106005000Y-61705000I-150000J0D01*
G01*
X104355000Y-61705000D01*
G75*
G02*
X104205000Y-61555000I0J150000D01*
G01*
G37*
G36*
G01*
X104205000Y-60285000D02*
X104205000Y-59985000D01*
G75*
G02*
X104355000Y-59835000I150000J0D01*
G01*
X106005000Y-59835000D01*
G75*
G02*
X106155000Y-59985000I0J-150000D01*
G01*
X106155000Y-60285000D01*
G75*
G02*
X106005000Y-60435000I-150000J0D01*
G01*
X104355000Y-60435000D01*
G75*
G02*
X104205000Y-60285000I0J150000D01*
G01*
G37*
G36*
G01*
X104205000Y-59015000D02*
X104205000Y-58715000D01*
G75*
G02*
X104355000Y-58565000I150000J0D01*
G01*
X106005000Y-58565000D01*
G75*
G02*
X106155000Y-58715000I0J-150000D01*
G01*
X106155000Y-59015000D01*
G75*
G02*
X106005000Y-59165000I-150000J0D01*
G01*
X104355000Y-59165000D01*
G75*
G02*
X104205000Y-59015000I0J150000D01*
G01*
G37*
G36*
G01*
X104205000Y-57745000D02*
X104205000Y-57445000D01*
G75*
G02*
X104355000Y-57295000I150000J0D01*
G01*
X106005000Y-57295000D01*
G75*
G02*
X106155000Y-57445000I0J-150000D01*
G01*
X106155000Y-57745000D01*
G75*
G02*
X106005000Y-57895000I-150000J0D01*
G01*
X104355000Y-57895000D01*
G75*
G02*
X104205000Y-57745000I0J150000D01*
G01*
G37*
G36*
G01*
X104205000Y-56475000D02*
X104205000Y-56175000D01*
G75*
G02*
X104355000Y-56025000I150000J0D01*
G01*
X106005000Y-56025000D01*
G75*
G02*
X106155000Y-56175000I0J-150000D01*
G01*
X106155000Y-56475000D01*
G75*
G02*
X106005000Y-56625000I-150000J0D01*
G01*
X104355000Y-56625000D01*
G75*
G02*
X104205000Y-56475000I0J150000D01*
G01*
G37*
G36*
G01*
X104205000Y-55205000D02*
X104205000Y-54905000D01*
G75*
G02*
X104355000Y-54755000I150000J0D01*
G01*
X106005000Y-54755000D01*
G75*
G02*
X106155000Y-54905000I0J-150000D01*
G01*
X106155000Y-55205000D01*
G75*
G02*
X106005000Y-55355000I-150000J0D01*
G01*
X104355000Y-55355000D01*
G75*
G02*
X104205000Y-55205000I0J150000D01*
G01*
G37*
G36*
G01*
X104205000Y-53935000D02*
X104205000Y-53635000D01*
G75*
G02*
X104355000Y-53485000I150000J0D01*
G01*
X106005000Y-53485000D01*
G75*
G02*
X106155000Y-53635000I0J-150000D01*
G01*
X106155000Y-53935000D01*
G75*
G02*
X106005000Y-54085000I-150000J0D01*
G01*
X104355000Y-54085000D01*
G75*
G02*
X104205000Y-53935000I0J150000D01*
G01*
G37*
G36*
G01*
X104205000Y-52665000D02*
X104205000Y-52365000D01*
G75*
G02*
X104355000Y-52215000I150000J0D01*
G01*
X106005000Y-52215000D01*
G75*
G02*
X106155000Y-52365000I0J-150000D01*
G01*
X106155000Y-52665000D01*
G75*
G02*
X106005000Y-52815000I-150000J0D01*
G01*
X104355000Y-52815000D01*
G75*
G02*
X104205000Y-52665000I0J150000D01*
G01*
G37*
%TD*%
%TO.C,U4*%
G36*
G01*
X168170000Y-74295000D02*
X168170000Y-73995000D01*
G75*
G02*
X168320000Y-73845000I150000J0D01*
G01*
X169970000Y-73845000D01*
G75*
G02*
X170120000Y-73995000I0J-150000D01*
G01*
X170120000Y-74295000D01*
G75*
G02*
X169970000Y-74445000I-150000J0D01*
G01*
X168320000Y-74445000D01*
G75*
G02*
X168170000Y-74295000I0J150000D01*
G01*
G37*
G36*
G01*
X168170000Y-75565000D02*
X168170000Y-75265000D01*
G75*
G02*
X168320000Y-75115000I150000J0D01*
G01*
X169970000Y-75115000D01*
G75*
G02*
X170120000Y-75265000I0J-150000D01*
G01*
X170120000Y-75565000D01*
G75*
G02*
X169970000Y-75715000I-150000J0D01*
G01*
X168320000Y-75715000D01*
G75*
G02*
X168170000Y-75565000I0J150000D01*
G01*
G37*
G36*
G01*
X168170000Y-76835000D02*
X168170000Y-76535000D01*
G75*
G02*
X168320000Y-76385000I150000J0D01*
G01*
X169970000Y-76385000D01*
G75*
G02*
X170120000Y-76535000I0J-150000D01*
G01*
X170120000Y-76835000D01*
G75*
G02*
X169970000Y-76985000I-150000J0D01*
G01*
X168320000Y-76985000D01*
G75*
G02*
X168170000Y-76835000I0J150000D01*
G01*
G37*
G36*
G01*
X168170000Y-78105000D02*
X168170000Y-77805000D01*
G75*
G02*
X168320000Y-77655000I150000J0D01*
G01*
X169970000Y-77655000D01*
G75*
G02*
X170120000Y-77805000I0J-150000D01*
G01*
X170120000Y-78105000D01*
G75*
G02*
X169970000Y-78255000I-150000J0D01*
G01*
X168320000Y-78255000D01*
G75*
G02*
X168170000Y-78105000I0J150000D01*
G01*
G37*
G36*
G01*
X168170000Y-79375000D02*
X168170000Y-79075000D01*
G75*
G02*
X168320000Y-78925000I150000J0D01*
G01*
X169970000Y-78925000D01*
G75*
G02*
X170120000Y-79075000I0J-150000D01*
G01*
X170120000Y-79375000D01*
G75*
G02*
X169970000Y-79525000I-150000J0D01*
G01*
X168320000Y-79525000D01*
G75*
G02*
X168170000Y-79375000I0J150000D01*
G01*
G37*
G36*
G01*
X168170000Y-80645000D02*
X168170000Y-80345000D01*
G75*
G02*
X168320000Y-80195000I150000J0D01*
G01*
X169970000Y-80195000D01*
G75*
G02*
X170120000Y-80345000I0J-150000D01*
G01*
X170120000Y-80645000D01*
G75*
G02*
X169970000Y-80795000I-150000J0D01*
G01*
X168320000Y-80795000D01*
G75*
G02*
X168170000Y-80645000I0J150000D01*
G01*
G37*
G36*
G01*
X168170000Y-81915000D02*
X168170000Y-81615000D01*
G75*
G02*
X168320000Y-81465000I150000J0D01*
G01*
X169970000Y-81465000D01*
G75*
G02*
X170120000Y-81615000I0J-150000D01*
G01*
X170120000Y-81915000D01*
G75*
G02*
X169970000Y-82065000I-150000J0D01*
G01*
X168320000Y-82065000D01*
G75*
G02*
X168170000Y-81915000I0J150000D01*
G01*
G37*
G36*
G01*
X168170000Y-83185000D02*
X168170000Y-82885000D01*
G75*
G02*
X168320000Y-82735000I150000J0D01*
G01*
X169970000Y-82735000D01*
G75*
G02*
X170120000Y-82885000I0J-150000D01*
G01*
X170120000Y-83185000D01*
G75*
G02*
X169970000Y-83335000I-150000J0D01*
G01*
X168320000Y-83335000D01*
G75*
G02*
X168170000Y-83185000I0J150000D01*
G01*
G37*
G36*
G01*
X163220000Y-83185000D02*
X163220000Y-82885000D01*
G75*
G02*
X163370000Y-82735000I150000J0D01*
G01*
X165020000Y-82735000D01*
G75*
G02*
X165170000Y-82885000I0J-150000D01*
G01*
X165170000Y-83185000D01*
G75*
G02*
X165020000Y-83335000I-150000J0D01*
G01*
X163370000Y-83335000D01*
G75*
G02*
X163220000Y-83185000I0J150000D01*
G01*
G37*
G36*
G01*
X163220000Y-81915000D02*
X163220000Y-81615000D01*
G75*
G02*
X163370000Y-81465000I150000J0D01*
G01*
X165020000Y-81465000D01*
G75*
G02*
X165170000Y-81615000I0J-150000D01*
G01*
X165170000Y-81915000D01*
G75*
G02*
X165020000Y-82065000I-150000J0D01*
G01*
X163370000Y-82065000D01*
G75*
G02*
X163220000Y-81915000I0J150000D01*
G01*
G37*
G36*
G01*
X163220000Y-80645000D02*
X163220000Y-80345000D01*
G75*
G02*
X163370000Y-80195000I150000J0D01*
G01*
X165020000Y-80195000D01*
G75*
G02*
X165170000Y-80345000I0J-150000D01*
G01*
X165170000Y-80645000D01*
G75*
G02*
X165020000Y-80795000I-150000J0D01*
G01*
X163370000Y-80795000D01*
G75*
G02*
X163220000Y-80645000I0J150000D01*
G01*
G37*
G36*
G01*
X163220000Y-79375000D02*
X163220000Y-79075000D01*
G75*
G02*
X163370000Y-78925000I150000J0D01*
G01*
X165020000Y-78925000D01*
G75*
G02*
X165170000Y-79075000I0J-150000D01*
G01*
X165170000Y-79375000D01*
G75*
G02*
X165020000Y-79525000I-150000J0D01*
G01*
X163370000Y-79525000D01*
G75*
G02*
X163220000Y-79375000I0J150000D01*
G01*
G37*
G36*
G01*
X163220000Y-78105000D02*
X163220000Y-77805000D01*
G75*
G02*
X163370000Y-77655000I150000J0D01*
G01*
X165020000Y-77655000D01*
G75*
G02*
X165170000Y-77805000I0J-150000D01*
G01*
X165170000Y-78105000D01*
G75*
G02*
X165020000Y-78255000I-150000J0D01*
G01*
X163370000Y-78255000D01*
G75*
G02*
X163220000Y-78105000I0J150000D01*
G01*
G37*
G36*
G01*
X163220000Y-76835000D02*
X163220000Y-76535000D01*
G75*
G02*
X163370000Y-76385000I150000J0D01*
G01*
X165020000Y-76385000D01*
G75*
G02*
X165170000Y-76535000I0J-150000D01*
G01*
X165170000Y-76835000D01*
G75*
G02*
X165020000Y-76985000I-150000J0D01*
G01*
X163370000Y-76985000D01*
G75*
G02*
X163220000Y-76835000I0J150000D01*
G01*
G37*
G36*
G01*
X163220000Y-75565000D02*
X163220000Y-75265000D01*
G75*
G02*
X163370000Y-75115000I150000J0D01*
G01*
X165020000Y-75115000D01*
G75*
G02*
X165170000Y-75265000I0J-150000D01*
G01*
X165170000Y-75565000D01*
G75*
G02*
X165020000Y-75715000I-150000J0D01*
G01*
X163370000Y-75715000D01*
G75*
G02*
X163220000Y-75565000I0J150000D01*
G01*
G37*
G36*
G01*
X163220000Y-74295000D02*
X163220000Y-73995000D01*
G75*
G02*
X163370000Y-73845000I150000J0D01*
G01*
X165020000Y-73845000D01*
G75*
G02*
X165170000Y-73995000I0J-150000D01*
G01*
X165170000Y-74295000D01*
G75*
G02*
X165020000Y-74445000I-150000J0D01*
G01*
X163370000Y-74445000D01*
G75*
G02*
X163220000Y-74295000I0J150000D01*
G01*
G37*
%TD*%
%TO.C,U2*%
G36*
G01*
X187010000Y-66725000D02*
X187010000Y-66425000D01*
G75*
G02*
X187160000Y-66275000I150000J0D01*
G01*
X188810000Y-66275000D01*
G75*
G02*
X188960000Y-66425000I0J-150000D01*
G01*
X188960000Y-66725000D01*
G75*
G02*
X188810000Y-66875000I-150000J0D01*
G01*
X187160000Y-66875000D01*
G75*
G02*
X187010000Y-66725000I0J150000D01*
G01*
G37*
G36*
G01*
X187010000Y-67995000D02*
X187010000Y-67695000D01*
G75*
G02*
X187160000Y-67545000I150000J0D01*
G01*
X188810000Y-67545000D01*
G75*
G02*
X188960000Y-67695000I0J-150000D01*
G01*
X188960000Y-67995000D01*
G75*
G02*
X188810000Y-68145000I-150000J0D01*
G01*
X187160000Y-68145000D01*
G75*
G02*
X187010000Y-67995000I0J150000D01*
G01*
G37*
G36*
G01*
X187010000Y-69265000D02*
X187010000Y-68965000D01*
G75*
G02*
X187160000Y-68815000I150000J0D01*
G01*
X188810000Y-68815000D01*
G75*
G02*
X188960000Y-68965000I0J-150000D01*
G01*
X188960000Y-69265000D01*
G75*
G02*
X188810000Y-69415000I-150000J0D01*
G01*
X187160000Y-69415000D01*
G75*
G02*
X187010000Y-69265000I0J150000D01*
G01*
G37*
G36*
G01*
X187010000Y-70535000D02*
X187010000Y-70235000D01*
G75*
G02*
X187160000Y-70085000I150000J0D01*
G01*
X188810000Y-70085000D01*
G75*
G02*
X188960000Y-70235000I0J-150000D01*
G01*
X188960000Y-70535000D01*
G75*
G02*
X188810000Y-70685000I-150000J0D01*
G01*
X187160000Y-70685000D01*
G75*
G02*
X187010000Y-70535000I0J150000D01*
G01*
G37*
G36*
G01*
X182060000Y-70535000D02*
X182060000Y-70235000D01*
G75*
G02*
X182210000Y-70085000I150000J0D01*
G01*
X183860000Y-70085000D01*
G75*
G02*
X184010000Y-70235000I0J-150000D01*
G01*
X184010000Y-70535000D01*
G75*
G02*
X183860000Y-70685000I-150000J0D01*
G01*
X182210000Y-70685000D01*
G75*
G02*
X182060000Y-70535000I0J150000D01*
G01*
G37*
G36*
G01*
X182060000Y-69265000D02*
X182060000Y-68965000D01*
G75*
G02*
X182210000Y-68815000I150000J0D01*
G01*
X183860000Y-68815000D01*
G75*
G02*
X184010000Y-68965000I0J-150000D01*
G01*
X184010000Y-69265000D01*
G75*
G02*
X183860000Y-69415000I-150000J0D01*
G01*
X182210000Y-69415000D01*
G75*
G02*
X182060000Y-69265000I0J150000D01*
G01*
G37*
G36*
G01*
X182060000Y-67995000D02*
X182060000Y-67695000D01*
G75*
G02*
X182210000Y-67545000I150000J0D01*
G01*
X183860000Y-67545000D01*
G75*
G02*
X184010000Y-67695000I0J-150000D01*
G01*
X184010000Y-67995000D01*
G75*
G02*
X183860000Y-68145000I-150000J0D01*
G01*
X182210000Y-68145000D01*
G75*
G02*
X182060000Y-67995000I0J150000D01*
G01*
G37*
G36*
G01*
X182060000Y-66725000D02*
X182060000Y-66425000D01*
G75*
G02*
X182210000Y-66275000I150000J0D01*
G01*
X183860000Y-66275000D01*
G75*
G02*
X184010000Y-66425000I0J-150000D01*
G01*
X184010000Y-66725000D01*
G75*
G02*
X183860000Y-66875000I-150000J0D01*
G01*
X182210000Y-66875000D01*
G75*
G02*
X182060000Y-66725000I0J150000D01*
G01*
G37*
%TD*%
%TO.C,U1*%
G36*
G01*
X116675000Y-80435000D02*
X116675000Y-80735000D01*
G75*
G02*
X116525000Y-80885000I-150000J0D01*
G01*
X114775000Y-80885000D01*
G75*
G02*
X114625000Y-80735000I0J150000D01*
G01*
X114625000Y-80435000D01*
G75*
G02*
X114775000Y-80285000I150000J0D01*
G01*
X116525000Y-80285000D01*
G75*
G02*
X116675000Y-80435000I0J-150000D01*
G01*
G37*
G36*
G01*
X116675000Y-79165000D02*
X116675000Y-79465000D01*
G75*
G02*
X116525000Y-79615000I-150000J0D01*
G01*
X114775000Y-79615000D01*
G75*
G02*
X114625000Y-79465000I0J150000D01*
G01*
X114625000Y-79165000D01*
G75*
G02*
X114775000Y-79015000I150000J0D01*
G01*
X116525000Y-79015000D01*
G75*
G02*
X116675000Y-79165000I0J-150000D01*
G01*
G37*
G36*
G01*
X116675000Y-77895000D02*
X116675000Y-78195000D01*
G75*
G02*
X116525000Y-78345000I-150000J0D01*
G01*
X114775000Y-78345000D01*
G75*
G02*
X114625000Y-78195000I0J150000D01*
G01*
X114625000Y-77895000D01*
G75*
G02*
X114775000Y-77745000I150000J0D01*
G01*
X116525000Y-77745000D01*
G75*
G02*
X116675000Y-77895000I0J-150000D01*
G01*
G37*
G36*
G01*
X116675000Y-76625000D02*
X116675000Y-76925000D01*
G75*
G02*
X116525000Y-77075000I-150000J0D01*
G01*
X114775000Y-77075000D01*
G75*
G02*
X114625000Y-76925000I0J150000D01*
G01*
X114625000Y-76625000D01*
G75*
G02*
X114775000Y-76475000I150000J0D01*
G01*
X116525000Y-76475000D01*
G75*
G02*
X116675000Y-76625000I0J-150000D01*
G01*
G37*
G36*
G01*
X116675000Y-75355000D02*
X116675000Y-75655000D01*
G75*
G02*
X116525000Y-75805000I-150000J0D01*
G01*
X114775000Y-75805000D01*
G75*
G02*
X114625000Y-75655000I0J150000D01*
G01*
X114625000Y-75355000D01*
G75*
G02*
X114775000Y-75205000I150000J0D01*
G01*
X116525000Y-75205000D01*
G75*
G02*
X116675000Y-75355000I0J-150000D01*
G01*
G37*
G36*
G01*
X116675000Y-74085000D02*
X116675000Y-74385000D01*
G75*
G02*
X116525000Y-74535000I-150000J0D01*
G01*
X114775000Y-74535000D01*
G75*
G02*
X114625000Y-74385000I0J150000D01*
G01*
X114625000Y-74085000D01*
G75*
G02*
X114775000Y-73935000I150000J0D01*
G01*
X116525000Y-73935000D01*
G75*
G02*
X116675000Y-74085000I0J-150000D01*
G01*
G37*
G36*
G01*
X116675000Y-72815000D02*
X116675000Y-73115000D01*
G75*
G02*
X116525000Y-73265000I-150000J0D01*
G01*
X114775000Y-73265000D01*
G75*
G02*
X114625000Y-73115000I0J150000D01*
G01*
X114625000Y-72815000D01*
G75*
G02*
X114775000Y-72665000I150000J0D01*
G01*
X116525000Y-72665000D01*
G75*
G02*
X116675000Y-72815000I0J-150000D01*
G01*
G37*
G36*
G01*
X116675000Y-71545000D02*
X116675000Y-71845000D01*
G75*
G02*
X116525000Y-71995000I-150000J0D01*
G01*
X114775000Y-71995000D01*
G75*
G02*
X114625000Y-71845000I0J150000D01*
G01*
X114625000Y-71545000D01*
G75*
G02*
X114775000Y-71395000I150000J0D01*
G01*
X116525000Y-71395000D01*
G75*
G02*
X116675000Y-71545000I0J-150000D01*
G01*
G37*
G36*
G01*
X116675000Y-70275000D02*
X116675000Y-70575000D01*
G75*
G02*
X116525000Y-70725000I-150000J0D01*
G01*
X114775000Y-70725000D01*
G75*
G02*
X114625000Y-70575000I0J150000D01*
G01*
X114625000Y-70275000D01*
G75*
G02*
X114775000Y-70125000I150000J0D01*
G01*
X116525000Y-70125000D01*
G75*
G02*
X116675000Y-70275000I0J-150000D01*
G01*
G37*
G36*
G01*
X116675000Y-69005000D02*
X116675000Y-69305000D01*
G75*
G02*
X116525000Y-69455000I-150000J0D01*
G01*
X114775000Y-69455000D01*
G75*
G02*
X114625000Y-69305000I0J150000D01*
G01*
X114625000Y-69005000D01*
G75*
G02*
X114775000Y-68855000I150000J0D01*
G01*
X116525000Y-68855000D01*
G75*
G02*
X116675000Y-69005000I0J-150000D01*
G01*
G37*
G36*
G01*
X125975000Y-69005000D02*
X125975000Y-69305000D01*
G75*
G02*
X125825000Y-69455000I-150000J0D01*
G01*
X124075000Y-69455000D01*
G75*
G02*
X123925000Y-69305000I0J150000D01*
G01*
X123925000Y-69005000D01*
G75*
G02*
X124075000Y-68855000I150000J0D01*
G01*
X125825000Y-68855000D01*
G75*
G02*
X125975000Y-69005000I0J-150000D01*
G01*
G37*
G36*
G01*
X125975000Y-70275000D02*
X125975000Y-70575000D01*
G75*
G02*
X125825000Y-70725000I-150000J0D01*
G01*
X124075000Y-70725000D01*
G75*
G02*
X123925000Y-70575000I0J150000D01*
G01*
X123925000Y-70275000D01*
G75*
G02*
X124075000Y-70125000I150000J0D01*
G01*
X125825000Y-70125000D01*
G75*
G02*
X125975000Y-70275000I0J-150000D01*
G01*
G37*
G36*
G01*
X125975000Y-71545000D02*
X125975000Y-71845000D01*
G75*
G02*
X125825000Y-71995000I-150000J0D01*
G01*
X124075000Y-71995000D01*
G75*
G02*
X123925000Y-71845000I0J150000D01*
G01*
X123925000Y-71545000D01*
G75*
G02*
X124075000Y-71395000I150000J0D01*
G01*
X125825000Y-71395000D01*
G75*
G02*
X125975000Y-71545000I0J-150000D01*
G01*
G37*
G36*
G01*
X125975000Y-72815000D02*
X125975000Y-73115000D01*
G75*
G02*
X125825000Y-73265000I-150000J0D01*
G01*
X124075000Y-73265000D01*
G75*
G02*
X123925000Y-73115000I0J150000D01*
G01*
X123925000Y-72815000D01*
G75*
G02*
X124075000Y-72665000I150000J0D01*
G01*
X125825000Y-72665000D01*
G75*
G02*
X125975000Y-72815000I0J-150000D01*
G01*
G37*
G36*
G01*
X125975000Y-74085000D02*
X125975000Y-74385000D01*
G75*
G02*
X125825000Y-74535000I-150000J0D01*
G01*
X124075000Y-74535000D01*
G75*
G02*
X123925000Y-74385000I0J150000D01*
G01*
X123925000Y-74085000D01*
G75*
G02*
X124075000Y-73935000I150000J0D01*
G01*
X125825000Y-73935000D01*
G75*
G02*
X125975000Y-74085000I0J-150000D01*
G01*
G37*
G36*
G01*
X125975000Y-75355000D02*
X125975000Y-75655000D01*
G75*
G02*
X125825000Y-75805000I-150000J0D01*
G01*
X124075000Y-75805000D01*
G75*
G02*
X123925000Y-75655000I0J150000D01*
G01*
X123925000Y-75355000D01*
G75*
G02*
X124075000Y-75205000I150000J0D01*
G01*
X125825000Y-75205000D01*
G75*
G02*
X125975000Y-75355000I0J-150000D01*
G01*
G37*
G36*
G01*
X125975000Y-76625000D02*
X125975000Y-76925000D01*
G75*
G02*
X125825000Y-77075000I-150000J0D01*
G01*
X124075000Y-77075000D01*
G75*
G02*
X123925000Y-76925000I0J150000D01*
G01*
X123925000Y-76625000D01*
G75*
G02*
X124075000Y-76475000I150000J0D01*
G01*
X125825000Y-76475000D01*
G75*
G02*
X125975000Y-76625000I0J-150000D01*
G01*
G37*
G36*
G01*
X125975000Y-77895000D02*
X125975000Y-78195000D01*
G75*
G02*
X125825000Y-78345000I-150000J0D01*
G01*
X124075000Y-78345000D01*
G75*
G02*
X123925000Y-78195000I0J150000D01*
G01*
X123925000Y-77895000D01*
G75*
G02*
X124075000Y-77745000I150000J0D01*
G01*
X125825000Y-77745000D01*
G75*
G02*
X125975000Y-77895000I0J-150000D01*
G01*
G37*
G36*
G01*
X125975000Y-79165000D02*
X125975000Y-79465000D01*
G75*
G02*
X125825000Y-79615000I-150000J0D01*
G01*
X124075000Y-79615000D01*
G75*
G02*
X123925000Y-79465000I0J150000D01*
G01*
X123925000Y-79165000D01*
G75*
G02*
X124075000Y-79015000I150000J0D01*
G01*
X125825000Y-79015000D01*
G75*
G02*
X125975000Y-79165000I0J-150000D01*
G01*
G37*
G36*
G01*
X125975000Y-80435000D02*
X125975000Y-80735000D01*
G75*
G02*
X125825000Y-80885000I-150000J0D01*
G01*
X124075000Y-80885000D01*
G75*
G02*
X123925000Y-80735000I0J150000D01*
G01*
X123925000Y-80435000D01*
G75*
G02*
X124075000Y-80285000I150000J0D01*
G01*
X125825000Y-80285000D01*
G75*
G02*
X125975000Y-80435000I0J-150000D01*
G01*
G37*
%TD*%
D31*
%TO.C,SW3*%
X193380000Y-81454000D03*
X193380000Y-85954000D03*
X186880000Y-81454000D03*
X186880000Y-85954000D03*
%TD*%
%TO.C,SW2*%
X182564000Y-81454000D03*
X182564000Y-85954000D03*
X176064000Y-81454000D03*
X176064000Y-85954000D03*
%TD*%
D28*
%TO.C,J32*%
X185430000Y-125920000D03*
G36*
G01*
X182080000Y-126670000D02*
X182080000Y-125170000D01*
G75*
G02*
X182330000Y-124920000I250000J0D01*
G01*
X183530000Y-124920000D01*
G75*
G02*
X183780000Y-125170000I0J-250000D01*
G01*
X183780000Y-126670000D01*
G75*
G02*
X183530000Y-126920000I-250000J0D01*
G01*
X182330000Y-126920000D01*
G75*
G02*
X182080000Y-126670000I0J250000D01*
G01*
G37*
%TD*%
D20*
%TO.C,J29*%
X194596000Y-76334000D03*
X192056000Y-76334000D03*
X189516000Y-76334000D03*
D21*
X186976000Y-76334000D03*
%TD*%
M02*
