%TF.GenerationSoftware,KiCad,Pcbnew,(5.1.9)-1*%
%TF.CreationDate,2021-05-01T22:48:59+01:00*%
%TF.ProjectId,Mirage,4d697261-6765-42e6-9b69-6361645f7063,rev?*%
%TF.SameCoordinates,Original*%
%TF.FileFunction,Legend,Bot*%
%TF.FilePolarity,Positive*%
%FSLAX46Y46*%
G04 Gerber Fmt 4.6, Leading zero omitted, Abs format (unit mm)*
G04 Created by KiCad (PCBNEW (5.1.9)-1) date 2021-05-01 22:48:59*
%MOMM*%
%LPD*%
G01*
G04 APERTURE LIST*
%ADD10C,0.304800*%
G04 APERTURE END LIST*
D10*
X206041428Y-103454028D02*
X206041428Y-101930028D01*
X205315714Y-102438028D02*
X205315714Y-103454028D01*
X205315714Y-102583171D02*
X205243142Y-102510600D01*
X205098000Y-102438028D01*
X204880285Y-102438028D01*
X204735142Y-102510600D01*
X204662571Y-102655742D01*
X204662571Y-103454028D01*
X204009428Y-103381457D02*
X203864285Y-103454028D01*
X203574000Y-103454028D01*
X203428857Y-103381457D01*
X203356285Y-103236314D01*
X203356285Y-103163742D01*
X203428857Y-103018600D01*
X203574000Y-102946028D01*
X203791714Y-102946028D01*
X203936857Y-102873457D01*
X204009428Y-102728314D01*
X204009428Y-102655742D01*
X203936857Y-102510600D01*
X203791714Y-102438028D01*
X203574000Y-102438028D01*
X203428857Y-102510600D01*
X202703142Y-102438028D02*
X202703142Y-103962028D01*
X202703142Y-102510600D02*
X202558000Y-102438028D01*
X202267714Y-102438028D01*
X202122571Y-102510600D01*
X202050000Y-102583171D01*
X201977428Y-102728314D01*
X201977428Y-103163742D01*
X202050000Y-103308885D01*
X202122571Y-103381457D01*
X202267714Y-103454028D01*
X202558000Y-103454028D01*
X202703142Y-103381457D01*
X201324285Y-103454028D02*
X201324285Y-102438028D01*
X201324285Y-101930028D02*
X201396857Y-102002600D01*
X201324285Y-102075171D01*
X201251714Y-102002600D01*
X201324285Y-101930028D01*
X201324285Y-102075171D01*
X200598571Y-103454028D02*
X200598571Y-102438028D01*
X200598571Y-102728314D02*
X200526000Y-102583171D01*
X200453428Y-102510600D01*
X200308285Y-102438028D01*
X200163142Y-102438028D01*
X199074571Y-103381457D02*
X199219714Y-103454028D01*
X199510000Y-103454028D01*
X199655142Y-103381457D01*
X199727714Y-103236314D01*
X199727714Y-102655742D01*
X199655142Y-102510600D01*
X199510000Y-102438028D01*
X199219714Y-102438028D01*
X199074571Y-102510600D01*
X199002000Y-102655742D01*
X199002000Y-102800885D01*
X199727714Y-102946028D01*
X197695714Y-103454028D02*
X197695714Y-101930028D01*
X197695714Y-103381457D02*
X197840857Y-103454028D01*
X198131142Y-103454028D01*
X198276285Y-103381457D01*
X198348857Y-103308885D01*
X198421428Y-103163742D01*
X198421428Y-102728314D01*
X198348857Y-102583171D01*
X198276285Y-102510600D01*
X198131142Y-102438028D01*
X197840857Y-102438028D01*
X197695714Y-102510600D01*
X195808857Y-103454028D02*
X195808857Y-101930028D01*
X195808857Y-102510600D02*
X195663714Y-102438028D01*
X195373428Y-102438028D01*
X195228285Y-102510600D01*
X195155714Y-102583171D01*
X195083142Y-102728314D01*
X195083142Y-103163742D01*
X195155714Y-103308885D01*
X195228285Y-103381457D01*
X195373428Y-103454028D01*
X195663714Y-103454028D01*
X195808857Y-103381457D01*
X194575142Y-102438028D02*
X194212285Y-103454028D01*
X193849428Y-102438028D02*
X194212285Y-103454028D01*
X194357428Y-103816885D01*
X194430000Y-103889457D01*
X194575142Y-103962028D01*
X192107714Y-103454028D02*
X192107714Y-101930028D01*
X191454571Y-103454028D02*
X191454571Y-102655742D01*
X191527142Y-102510600D01*
X191672285Y-102438028D01*
X191890000Y-102438028D01*
X192035142Y-102510600D01*
X192107714Y-102583171D01*
X190946571Y-102438028D02*
X190366000Y-102438028D01*
X190728857Y-101930028D02*
X190728857Y-103236314D01*
X190656285Y-103381457D01*
X190511142Y-103454028D01*
X190366000Y-103454028D01*
X190075714Y-102438028D02*
X189495142Y-102438028D01*
X189858000Y-101930028D02*
X189858000Y-103236314D01*
X189785428Y-103381457D01*
X189640285Y-103454028D01*
X189495142Y-103454028D01*
X188987142Y-102438028D02*
X188987142Y-103962028D01*
X188987142Y-102510600D02*
X188842000Y-102438028D01*
X188551714Y-102438028D01*
X188406571Y-102510600D01*
X188334000Y-102583171D01*
X188261428Y-102728314D01*
X188261428Y-103163742D01*
X188334000Y-103308885D01*
X188406571Y-103381457D01*
X188551714Y-103454028D01*
X188842000Y-103454028D01*
X188987142Y-103381457D01*
X187680857Y-103381457D02*
X187535714Y-103454028D01*
X187245428Y-103454028D01*
X187100285Y-103381457D01*
X187027714Y-103236314D01*
X187027714Y-103163742D01*
X187100285Y-103018600D01*
X187245428Y-102946028D01*
X187463142Y-102946028D01*
X187608285Y-102873457D01*
X187680857Y-102728314D01*
X187680857Y-102655742D01*
X187608285Y-102510600D01*
X187463142Y-102438028D01*
X187245428Y-102438028D01*
X187100285Y-102510600D01*
X186374571Y-103308885D02*
X186302000Y-103381457D01*
X186374571Y-103454028D01*
X186447142Y-103381457D01*
X186374571Y-103308885D01*
X186374571Y-103454028D01*
X186374571Y-102510600D02*
X186302000Y-102583171D01*
X186374571Y-102655742D01*
X186447142Y-102583171D01*
X186374571Y-102510600D01*
X186374571Y-102655742D01*
X184560285Y-101857457D02*
X185866571Y-103816885D01*
X182963714Y-101857457D02*
X184270000Y-103816885D01*
X181802571Y-102438028D02*
X181802571Y-103671742D01*
X181875142Y-103816885D01*
X181947714Y-103889457D01*
X182092857Y-103962028D01*
X182310571Y-103962028D01*
X182455714Y-103889457D01*
X181802571Y-103381457D02*
X181947714Y-103454028D01*
X182238000Y-103454028D01*
X182383142Y-103381457D01*
X182455714Y-103308885D01*
X182528285Y-103163742D01*
X182528285Y-102728314D01*
X182455714Y-102583171D01*
X182383142Y-102510600D01*
X182238000Y-102438028D01*
X181947714Y-102438028D01*
X181802571Y-102510600D01*
X181076857Y-103454028D02*
X181076857Y-102438028D01*
X181076857Y-101930028D02*
X181149428Y-102002600D01*
X181076857Y-102075171D01*
X181004285Y-102002600D01*
X181076857Y-101930028D01*
X181076857Y-102075171D01*
X180568857Y-102438028D02*
X179988285Y-102438028D01*
X180351142Y-101930028D02*
X180351142Y-103236314D01*
X180278571Y-103381457D01*
X180133428Y-103454028D01*
X179988285Y-103454028D01*
X179480285Y-103454028D02*
X179480285Y-101930028D01*
X178827142Y-103454028D02*
X178827142Y-102655742D01*
X178899714Y-102510600D01*
X179044857Y-102438028D01*
X179262571Y-102438028D01*
X179407714Y-102510600D01*
X179480285Y-102583171D01*
X177448285Y-102438028D02*
X177448285Y-103454028D01*
X178101428Y-102438028D02*
X178101428Y-103236314D01*
X178028857Y-103381457D01*
X177883714Y-103454028D01*
X177666000Y-103454028D01*
X177520857Y-103381457D01*
X177448285Y-103308885D01*
X176722571Y-103454028D02*
X176722571Y-101930028D01*
X176722571Y-102510600D02*
X176577428Y-102438028D01*
X176287142Y-102438028D01*
X176142000Y-102510600D01*
X176069428Y-102583171D01*
X175996857Y-102728314D01*
X175996857Y-103163742D01*
X176069428Y-103308885D01*
X176142000Y-103381457D01*
X176287142Y-103454028D01*
X176577428Y-103454028D01*
X176722571Y-103381457D01*
X175343714Y-103308885D02*
X175271142Y-103381457D01*
X175343714Y-103454028D01*
X175416285Y-103381457D01*
X175343714Y-103308885D01*
X175343714Y-103454028D01*
X173964857Y-103381457D02*
X174110000Y-103454028D01*
X174400285Y-103454028D01*
X174545428Y-103381457D01*
X174618000Y-103308885D01*
X174690571Y-103163742D01*
X174690571Y-102728314D01*
X174618000Y-102583171D01*
X174545428Y-102510600D01*
X174400285Y-102438028D01*
X174110000Y-102438028D01*
X173964857Y-102510600D01*
X173094000Y-103454028D02*
X173239142Y-103381457D01*
X173311714Y-103308885D01*
X173384285Y-103163742D01*
X173384285Y-102728314D01*
X173311714Y-102583171D01*
X173239142Y-102510600D01*
X173094000Y-102438028D01*
X172876285Y-102438028D01*
X172731142Y-102510600D01*
X172658571Y-102583171D01*
X172586000Y-102728314D01*
X172586000Y-103163742D01*
X172658571Y-103308885D01*
X172731142Y-103381457D01*
X172876285Y-103454028D01*
X173094000Y-103454028D01*
X171932857Y-103454028D02*
X171932857Y-102438028D01*
X171932857Y-102583171D02*
X171860285Y-102510600D01*
X171715142Y-102438028D01*
X171497428Y-102438028D01*
X171352285Y-102510600D01*
X171279714Y-102655742D01*
X171279714Y-103454028D01*
X171279714Y-102655742D02*
X171207142Y-102510600D01*
X171062000Y-102438028D01*
X170844285Y-102438028D01*
X170699142Y-102510600D01*
X170626571Y-102655742D01*
X170626571Y-103454028D01*
X168812285Y-101857457D02*
X170118571Y-103816885D01*
X167651142Y-103381457D02*
X167796285Y-103454028D01*
X168086571Y-103454028D01*
X168231714Y-103381457D01*
X168304285Y-103308885D01*
X168376857Y-103163742D01*
X168376857Y-102728314D01*
X168304285Y-102583171D01*
X168231714Y-102510600D01*
X168086571Y-102438028D01*
X167796285Y-102438028D01*
X167651142Y-102510600D01*
X166780285Y-103454028D02*
X166925428Y-103381457D01*
X166998000Y-103308885D01*
X167070571Y-103163742D01*
X167070571Y-102728314D01*
X166998000Y-102583171D01*
X166925428Y-102510600D01*
X166780285Y-102438028D01*
X166562571Y-102438028D01*
X166417428Y-102510600D01*
X166344857Y-102583171D01*
X166272285Y-102728314D01*
X166272285Y-103163742D01*
X166344857Y-103308885D01*
X166417428Y-103381457D01*
X166562571Y-103454028D01*
X166780285Y-103454028D01*
X165619142Y-103454028D02*
X165619142Y-102438028D01*
X165619142Y-102583171D02*
X165546571Y-102510600D01*
X165401428Y-102438028D01*
X165183714Y-102438028D01*
X165038571Y-102510600D01*
X164966000Y-102655742D01*
X164966000Y-103454028D01*
X164966000Y-102655742D02*
X164893428Y-102510600D01*
X164748285Y-102438028D01*
X164530571Y-102438028D01*
X164385428Y-102510600D01*
X164312857Y-102655742D01*
X164312857Y-103454028D01*
X163587142Y-102438028D02*
X163587142Y-103962028D01*
X163587142Y-102510600D02*
X163442000Y-102438028D01*
X163151714Y-102438028D01*
X163006571Y-102510600D01*
X162934000Y-102583171D01*
X162861428Y-102728314D01*
X162861428Y-103163742D01*
X162934000Y-103308885D01*
X163006571Y-103381457D01*
X163151714Y-103454028D01*
X163442000Y-103454028D01*
X163587142Y-103381457D01*
X161555142Y-102438028D02*
X161555142Y-103454028D01*
X162208285Y-102438028D02*
X162208285Y-103236314D01*
X162135714Y-103381457D01*
X161990571Y-103454028D01*
X161772857Y-103454028D01*
X161627714Y-103381457D01*
X161555142Y-103308885D01*
X161047142Y-102438028D02*
X160466571Y-102438028D01*
X160829428Y-101930028D02*
X160829428Y-103236314D01*
X160756857Y-103381457D01*
X160611714Y-103454028D01*
X160466571Y-103454028D01*
X159378000Y-103381457D02*
X159523142Y-103454028D01*
X159813428Y-103454028D01*
X159958571Y-103381457D01*
X160031142Y-103236314D01*
X160031142Y-102655742D01*
X159958571Y-102510600D01*
X159813428Y-102438028D01*
X159523142Y-102438028D01*
X159378000Y-102510600D01*
X159305428Y-102655742D01*
X159305428Y-102800885D01*
X160031142Y-102946028D01*
X158652285Y-103454028D02*
X158652285Y-102438028D01*
X158652285Y-102728314D02*
X158579714Y-102583171D01*
X158507142Y-102510600D01*
X158362000Y-102438028D01*
X158216857Y-102438028D01*
X157055714Y-102438028D02*
X157055714Y-103671742D01*
X157128285Y-103816885D01*
X157200857Y-103889457D01*
X157346000Y-103962028D01*
X157563714Y-103962028D01*
X157708857Y-103889457D01*
X157055714Y-103381457D02*
X157200857Y-103454028D01*
X157491142Y-103454028D01*
X157636285Y-103381457D01*
X157708857Y-103308885D01*
X157781428Y-103163742D01*
X157781428Y-102728314D01*
X157708857Y-102583171D01*
X157636285Y-102510600D01*
X157491142Y-102438028D01*
X157200857Y-102438028D01*
X157055714Y-102510600D01*
X155749428Y-103381457D02*
X155894571Y-103454028D01*
X156184857Y-103454028D01*
X156330000Y-103381457D01*
X156402571Y-103236314D01*
X156402571Y-102655742D01*
X156330000Y-102510600D01*
X156184857Y-102438028D01*
X155894571Y-102438028D01*
X155749428Y-102510600D01*
X155676857Y-102655742D01*
X155676857Y-102800885D01*
X156402571Y-102946028D01*
X154443142Y-103381457D02*
X154588285Y-103454028D01*
X154878571Y-103454028D01*
X155023714Y-103381457D01*
X155096285Y-103236314D01*
X155096285Y-102655742D01*
X155023714Y-102510600D01*
X154878571Y-102438028D01*
X154588285Y-102438028D01*
X154443142Y-102510600D01*
X154370571Y-102655742D01*
X154370571Y-102800885D01*
X155096285Y-102946028D01*
X153717428Y-103454028D02*
X153717428Y-101930028D01*
X153572285Y-102873457D02*
X153136857Y-103454028D01*
X153136857Y-102438028D02*
X153717428Y-103018600D01*
X151685428Y-103454028D02*
X152556285Y-103454028D01*
X152120857Y-103454028D02*
X152120857Y-101930028D01*
X152266000Y-102147742D01*
X152411142Y-102292885D01*
X152556285Y-102365457D01*
X150306571Y-101930028D02*
X151032285Y-101930028D01*
X151104857Y-102655742D01*
X151032285Y-102583171D01*
X150887142Y-102510600D01*
X150524285Y-102510600D01*
X150379142Y-102583171D01*
X150306571Y-102655742D01*
X150234000Y-102800885D01*
X150234000Y-103163742D01*
X150306571Y-103308885D01*
X150379142Y-103381457D01*
X150524285Y-103454028D01*
X150887142Y-103454028D01*
X151032285Y-103381457D01*
X151104857Y-103308885D01*
X149290571Y-101930028D02*
X149145428Y-101930028D01*
X149000285Y-102002600D01*
X148927714Y-102075171D01*
X148855142Y-102220314D01*
X148782571Y-102510600D01*
X148782571Y-102873457D01*
X148855142Y-103163742D01*
X148927714Y-103308885D01*
X149000285Y-103381457D01*
X149145428Y-103454028D01*
X149290571Y-103454028D01*
X149435714Y-103381457D01*
X149508285Y-103308885D01*
X149580857Y-103163742D01*
X149653428Y-102873457D01*
X149653428Y-102510600D01*
X149580857Y-102220314D01*
X149508285Y-102075171D01*
X149435714Y-102002600D01*
X149290571Y-101930028D01*
X148274571Y-101930028D02*
X147258571Y-101930028D01*
X147911714Y-103454028D01*
X145589428Y-101857457D02*
X146895714Y-103816885D01*
X145081428Y-103454028D02*
X145081428Y-101930028D01*
X144500857Y-101930028D01*
X144355714Y-102002600D01*
X144283142Y-102075171D01*
X144210571Y-102220314D01*
X144210571Y-102438028D01*
X144283142Y-102583171D01*
X144355714Y-102655742D01*
X144500857Y-102728314D01*
X145081428Y-102728314D01*
X143049428Y-102655742D02*
X142831714Y-102728314D01*
X142759142Y-102800885D01*
X142686571Y-102946028D01*
X142686571Y-103163742D01*
X142759142Y-103308885D01*
X142831714Y-103381457D01*
X142976857Y-103454028D01*
X143557428Y-103454028D01*
X143557428Y-101930028D01*
X143049428Y-101930028D01*
X142904285Y-102002600D01*
X142831714Y-102075171D01*
X142759142Y-102220314D01*
X142759142Y-102365457D01*
X142831714Y-102510600D01*
X142904285Y-102583171D01*
X143049428Y-102655742D01*
X143557428Y-102655742D01*
X142396285Y-103599171D02*
X141235142Y-103599171D01*
X140074000Y-103454028D02*
X140944857Y-103454028D01*
X140509428Y-103454028D02*
X140509428Y-101930028D01*
X140654571Y-102147742D01*
X140799714Y-102292885D01*
X140944857Y-102365457D01*
X138767714Y-101930028D02*
X139058000Y-101930028D01*
X139203142Y-102002600D01*
X139275714Y-102075171D01*
X139420857Y-102292885D01*
X139493428Y-102583171D01*
X139493428Y-103163742D01*
X139420857Y-103308885D01*
X139348285Y-103381457D01*
X139203142Y-103454028D01*
X138912857Y-103454028D01*
X138767714Y-103381457D01*
X138695142Y-103308885D01*
X138622571Y-103163742D01*
X138622571Y-102800885D01*
X138695142Y-102655742D01*
X138767714Y-102583171D01*
X138912857Y-102510600D01*
X139203142Y-102510600D01*
X139348285Y-102583171D01*
X139420857Y-102655742D01*
X139493428Y-102800885D01*
X136880857Y-101857457D02*
X138187142Y-103816885D01*
M02*
