M48
; DRILL file {KiCad (5.1.9)-1} date 05/01/21 22:49:04
; FORMAT={-:-/ absolute / metric / decimal}
; #@! TF.CreationDate,2021-05-01T22:49:04+01:00
; #@! TF.GenerationSoftware,Kicad,Pcbnew,(5.1.9)-1
; #@! TF.FileFunction,Plated,1,2,PTH
FMAT,2
METRIC
T1C0.300
T2C0.400
T3C0.762
T4C0.800
T5C0.900
T6C0.950
T7C1.000
T8C1.100
T9C1.200
T10C1.300
T11C1.400
T12C1.600
T13C1.651
T14C3.200
%
G90
G05
T1
X70.17Y-30.95
X76.05Y-110.31
X76.37Y-125.68
X76.75Y-137.33
X77.68Y-134.35
X78.81Y-42.79
X80.01Y-30.23
X80.96Y-82.3
X81.02Y-119.12
X81.05Y-89.68
X81.06Y-74.97
X81.19Y-63.97
X81.22Y-97.73
X82.19Y-104.46
X82.59Y-67.51
X83.37Y-133.58
X85.11Y-41.15
X86.21Y-59.56
X86.45Y-61.4
X86.66Y-56.32
X87.17Y-152.07
X88.385Y-47.355
X89.265Y-50.335
X89.42Y-56.28
X89.46Y-54.26
X89.51Y-53.019
X89.57Y-60.11
X91.14Y-64.1
X91.4Y-57.56
X91.46Y-52.06
X91.48Y-87.94
X91.665Y-62.205
X91.77Y-39.07
X93.61Y-51.03
X93.68Y-88.23
X94.67Y-57.57
X96.425Y-49.955
X97.32Y-44.62
X97.67Y-49.65
X97.83Y-56.72
X98.0Y-55.11
X98.1Y-52.84
X98.68Y-151.55
X99.07Y-57.96
X99.147Y-52.093
X99.98Y-121.66
X102.14Y-84.48
X102.79Y-101.63
X102.9Y-98.98
X103.83Y-56.3
X104.535Y-41.405
X106.65Y-60.94
X106.66Y-56.22
X106.81Y-53.785
X106.88Y-88.78
X106.91Y-54.96
X106.93Y-47.29
X107.17Y-60.13
X107.24Y-50.18
X107.54Y-134.07
X108.25Y-57.82
X109.24Y-51.45
X109.45Y-86.29
X109.73Y-119.19
X109.91Y-62.52
X110.315Y-50.785
X111.34Y-84.42
X111.62Y-127.29
X111.84Y-57.58
X113.457Y-55.037
X113.56Y-61.67
X113.88Y-53.98
X114.16Y-50.05
X114.37Y-144.01
X114.47Y-56.19
X114.55Y-65.11
X114.93Y-53.86
X114.94Y-83.37
X115.26Y-41.25
X116.78Y-82.69
X116.89Y-64.39
X117.065Y-38.935
X117.69Y-71.74
X117.71Y-77.28
X118.71Y-79.43
X119.01Y-74.34
X119.12Y-69.27
X120.51Y-56.35
X122.13Y-74.49
X122.4Y-71.16
X122.46Y-77.604
X123.035Y-50.31
X123.15Y-69.18
X123.475Y-60.135
X123.485Y-52.515
X123.58Y-56.33
X123.59Y-61.26
X123.667Y-54.177
X125.21Y-47.16
X125.53Y-57.61
X126.06Y-67.18
X126.37Y-36.08
X126.37Y-37.11
X127.18Y-51.4
X128.88Y-57.54
X129.0Y-62.94
X129.03Y-69.39
X129.53Y-50.31
X130.17Y-131.05
X130.22Y-60.13
X131.09Y-57.39
X131.37Y-55.78
X131.85Y-60.09
X132.75Y-52.38
X133.19Y-51.63
X134.148Y-52.742
X134.245Y-80.935
X134.268Y-81.928
X134.75Y-47.885
X135.37Y-63.66
X135.56Y-72.67
X135.72Y-83.14
X137.35Y-53.81
X137.358Y-59.362
X137.358Y-76.592
X138.05Y-90.48
X138.05Y-96.38
X138.09Y-85.4
X138.12Y-77.31
X143.65Y-100.47
X143.91Y-136.61
X144.34Y-76.54
X144.34Y-80.14
X144.42Y-72.71
X145.19Y-81.61
X145.45Y-131.24
X145.985Y-75.715
X146.53Y-68.73
X148.69Y-69.11
X148.845Y-81.705
X148.89Y-77.97
X148.947Y-76.207
X148.97Y-75.22
X150.15Y-79.57
X152.115Y-73.04
X152.44Y-100.06
X153.77Y-84.75
X153.97Y-79.26
X154.13Y-81.79
X154.2Y-72.1
X155.94Y-77.42
X157.57Y-73.68
X157.73Y-76.64
X157.84Y-84.2
X159.02Y-100.03
X159.7Y-74.1
X159.76Y-79.31
X160.06Y-131.14
X160.45Y-86.89
X162.54Y-78.48
X162.54Y-87.562
X163.94Y-96.16
X164.94Y-68.72
X165.68Y-77.95
X165.79Y-82.61
X165.93Y-75.47
X166.1Y-76.69
X166.475Y-80.655
X166.84Y-69.09
X167.43Y-86.54
X168.082Y-50.277
X169.83Y-72.96
X170.84Y-79.22
X170.84Y-72.84
X171.08Y-76.51
X171.7Y-72.12
X172.15Y-74.19
X172.58Y-86.89
X173.99Y-107.73
X175.46Y-73.08
X175.61Y-74.28
X176.418Y-49.482
X177.61Y-102.67
X177.77Y-36.79
X177.77Y-77.66
X180.18Y-112.3
X181.77Y-67.2
X182.91Y-55.65
X182.91Y-63.37
X182.92Y-71.21
X183.02Y-65.44
X183.555Y-54.855
X183.613Y-61.447
X184.46Y-69.76
X184.98Y-105.21
X185.04Y-71.64
X185.7Y-61.09
X187.94Y-63.32
X190.89Y-60.9
X192.74Y-132.54
X194.14Y-47.61
X194.62Y-102.99
X194.78Y-60.4
X194.78Y-71.75
X200.84Y-131.11
X203.06Y-103.35
X204.79Y-49.08
X207.72Y-131.58
X207.76Y-135.28
X211.23Y-103.39
X212.05Y-84.82
X213.19Y-99.22
X215.64Y-97.01
X216.22Y-81.86
X219.84Y-90.94
X220.25Y-87.27
X220.42Y-80.86
X221.65Y-89.66
X222.56Y-135.14
X222.81Y-131.62
X223.99Y-87.51
X226.96Y-82.77
X229.17Y-89.7
X229.23Y-84.61
X233.1Y-96.49
X237.47Y-132.79
X237.59Y-131.42
X238.78Y-102.56
X245.59Y-107.59
T2
X97.32Y-45.54
X97.67Y-48.73
X117.268Y-60.982
X120.71Y-66.64
X124.413Y-82.817
X124.413Y-85.877
X125.87Y-41.28
X126.318Y-38.152
X127.0Y-41.3
X177.22Y-62.01
X179.577Y-62.117
X184.365Y-57.345
X193.61Y-57.33
T3
X144.955Y-43.4
X144.955Y-45.94
X144.955Y-91.66
X144.955Y-94.2
X147.495Y-43.4
X147.495Y-45.94
X147.495Y-91.66
X147.495Y-94.2
X150.035Y-43.4
X150.035Y-45.94
X150.035Y-91.66
X150.035Y-94.2
X152.575Y-43.4
X152.575Y-45.94
X152.575Y-91.66
X152.575Y-94.2
X155.115Y-43.4
X155.115Y-45.94
X155.115Y-91.66
X155.115Y-94.2
X157.655Y-43.4
X157.655Y-45.94
X157.655Y-91.66
X157.655Y-94.2
X160.195Y-43.4
X160.195Y-45.94
X160.195Y-91.66
X160.195Y-94.2
X162.735Y-43.4
X162.735Y-45.94
X162.735Y-91.66
X162.735Y-94.2
X165.275Y-43.4
X165.275Y-45.94
X165.275Y-91.66
X165.275Y-94.2
X167.815Y-43.4
X167.815Y-45.94
X167.815Y-91.66
X167.815Y-94.2
X170.355Y-43.4
X170.355Y-45.94
X170.355Y-91.66
X170.355Y-94.2
X172.895Y-43.4
X172.895Y-45.94
X172.895Y-91.66
X172.895Y-94.2
X175.435Y-43.4
X175.435Y-45.94
X175.435Y-91.66
X175.435Y-94.2
X177.975Y-43.4
X177.975Y-45.94
X177.975Y-91.66
X177.975Y-94.2
X180.515Y-43.4
X180.515Y-45.94
X180.515Y-91.66
X180.515Y-94.2
X183.055Y-43.4
X183.055Y-45.94
X183.055Y-91.66
X183.055Y-94.2
X185.595Y-43.4
X185.595Y-45.94
X185.595Y-91.66
X185.595Y-94.2
X188.135Y-43.4
X188.135Y-45.94
X188.135Y-91.66
X188.135Y-94.2
X190.675Y-43.4
X190.675Y-45.94
X190.675Y-91.66
X190.675Y-94.2
X193.215Y-43.4
X193.215Y-45.94
X193.215Y-91.66
X193.215Y-94.2
X195.755Y-43.4
X195.755Y-45.94
X195.755Y-91.66
X195.755Y-94.2
X198.295Y-43.4
X198.295Y-45.94
X198.295Y-91.66
X198.295Y-94.2
X200.835Y-43.4
X200.835Y-45.94
X200.835Y-91.66
X200.835Y-94.2
T4
X208.62Y-30.23
X208.62Y-49.23
X210.02Y-30.23
X210.02Y-49.23
X221.69Y-30.23
X221.69Y-49.23
X223.09Y-30.23
X223.09Y-49.23
T5
X72.34Y-151.44
X73.61Y-148.9
X74.88Y-151.44
X76.15Y-148.9
X77.42Y-151.44
X78.69Y-148.9
X79.96Y-151.44
X81.23Y-148.9
X83.67Y-45.6
X84.94Y-43.06
X86.21Y-45.6
X87.48Y-43.06
X88.75Y-45.6
X90.02Y-43.06
X91.29Y-45.6
X92.56Y-43.06
X102.082Y-45.6
X103.352Y-43.06
X104.623Y-45.6
X105.892Y-43.06
X107.162Y-45.6
X108.432Y-43.06
X109.703Y-45.6
X110.972Y-43.06
X120.495Y-45.6
X121.765Y-43.06
X123.035Y-45.6
X124.305Y-43.06
X125.575Y-45.6
X126.845Y-43.06
X128.115Y-45.6
X129.385Y-43.06
X143.99Y-67.37
X145.26Y-64.83
X146.53Y-67.37
X147.8Y-64.83
X149.07Y-67.37
X150.34Y-64.83
X151.61Y-67.37
X152.88Y-64.83
X162.41Y-67.27
X163.68Y-64.73
X164.95Y-67.27
X166.22Y-64.73
X167.49Y-67.27
X168.76Y-64.73
X170.03Y-67.27
X171.3Y-64.73
T6
X199.62Y-83.61
X202.12Y-83.61
X204.62Y-83.61
X207.12Y-83.61
T7
X61.929Y-31.16
X64.429Y-31.16
X95.0Y-135.19
X97.5Y-135.19
X182.44Y-30.93
X182.44Y-33.47
X182.44Y-36.01
X182.93Y-125.92
X185.43Y-125.92
X186.976Y-76.334
X189.516Y-76.334
X192.056Y-76.334
X194.596Y-76.334
T8
X176.064Y-81.454
X176.064Y-85.954
X182.564Y-81.454
X182.564Y-85.954
X186.88Y-81.454
X186.88Y-85.954
X193.38Y-81.454
X193.38Y-85.954
T9
X62.5Y-140.85
X62.5Y-144.35
X62.5Y-147.85
X62.5Y-151.35
X86.11Y-73.59
X86.11Y-77.09
X86.11Y-80.59
X86.11Y-89.528
X86.11Y-93.028
X86.11Y-96.528
X86.11Y-105.467
X86.11Y-108.967
X86.11Y-112.467
X86.11Y-121.405
X86.11Y-124.905
X86.11Y-128.405
X98.585Y-63.03
X98.585Y-66.53
X98.585Y-70.03
X98.585Y-78.622
X98.585Y-82.122
X98.585Y-85.622
X98.585Y-94.213
X98.585Y-97.713
X98.585Y-101.213
X98.585Y-109.805
X98.585Y-113.305
X98.585Y-116.805
X110.62Y-111.485
X114.12Y-111.485
X117.62Y-111.485
X120.23Y-124.8
X123.73Y-124.8
X126.212Y-111.485
X127.23Y-124.8
X129.712Y-111.485
X133.212Y-111.485
X135.638Y-124.8
X139.138Y-124.8
X141.783Y-111.485
X142.638Y-124.8
X145.283Y-111.485
X148.783Y-111.485
X151.047Y-124.8
X154.547Y-124.8
X157.395Y-111.485
X158.047Y-124.8
X160.895Y-111.485
X164.395Y-111.485
X166.455Y-124.8
X169.955Y-124.8
X173.455Y-124.8
X186.2Y-111.585
X189.7Y-111.585
X193.2Y-111.585
X195.74Y-124.9
X199.24Y-124.9
X201.792Y-111.585
X202.74Y-124.9
X205.292Y-111.585
X208.792Y-111.585
X211.148Y-124.9
X214.648Y-124.9
X217.383Y-111.585
X218.148Y-124.9
X220.883Y-111.585
X224.383Y-111.585
X226.557Y-124.9
X230.057Y-124.9
X232.975Y-111.585
X233.557Y-124.9
X236.475Y-111.585
X239.975Y-111.585
X241.965Y-124.9
X245.465Y-124.9
X248.965Y-124.9
T10
X67.479Y-41.15
X67.479Y-47.5
X90.46Y-144.57
X96.81Y-144.57
X176.5Y-144.374
X182.85Y-144.374
X196.51Y-37.46
X202.86Y-37.46
T11
X162.084Y-36.456
X172.244Y-36.456
T12
X61.02Y-62.75
X73.72Y-62.75
X111.34Y-138.4
X111.34Y-151.1
X145.574Y-35.694
X158.274Y-35.694
X177.16Y-133.05
X189.86Y-133.05
T13
X61.428Y-69.78
X61.428Y-77.141
X61.428Y-84.501
X61.428Y-91.862
X61.428Y-99.223
X61.428Y-106.584
X61.428Y-113.944
X61.428Y-121.305
X61.428Y-127.65
X61.458Y-55.99
X64.834Y-69.78
X64.834Y-77.141
X64.834Y-84.501
X64.834Y-91.862
X64.834Y-99.223
X64.834Y-106.584
X64.834Y-113.944
X64.834Y-121.305
X64.834Y-127.65
X64.864Y-55.99
X69.304Y-69.78
X69.304Y-77.141
X69.304Y-84.501
X69.304Y-91.862
X69.304Y-99.223
X69.304Y-106.584
X69.304Y-113.944
X69.304Y-121.305
X69.304Y-127.65
X69.334Y-55.99
X72.71Y-69.78
X72.71Y-77.141
X72.71Y-84.501
X72.71Y-91.862
X72.71Y-99.223
X72.71Y-106.584
X72.71Y-113.944
X72.71Y-121.305
X72.71Y-127.65
X72.74Y-55.99
X104.1Y-139.17
X104.1Y-142.576
X104.1Y-147.046
X104.1Y-150.452
X117.845Y-139.143
X117.845Y-142.549
X117.845Y-147.019
X117.845Y-150.425
X125.206Y-139.143
X125.206Y-142.549
X125.206Y-147.019
X125.206Y-150.425
X132.566Y-139.143
X132.566Y-142.549
X132.566Y-147.019
X132.566Y-150.425
X139.927Y-139.143
X139.927Y-142.549
X139.927Y-147.019
X139.927Y-150.425
X147.288Y-139.143
X147.288Y-142.549
X147.288Y-147.019
X147.288Y-150.425
X154.648Y-139.143
X154.648Y-142.549
X154.648Y-147.019
X154.648Y-150.425
X162.009Y-139.143
X162.009Y-142.549
X162.009Y-147.019
X162.009Y-150.425
X163.278Y-31.09
X166.684Y-31.09
X169.37Y-139.143
X169.37Y-142.549
X169.37Y-147.019
X169.37Y-150.425
X171.154Y-31.09
X174.56Y-31.09
X189.83Y-139.15
X189.83Y-142.556
X189.83Y-147.026
X189.83Y-150.432
X196.735Y-139.243
X196.735Y-142.649
X196.735Y-147.119
X196.735Y-150.525
X204.096Y-139.243
X204.096Y-142.649
X204.096Y-147.119
X204.096Y-150.525
X211.456Y-139.243
X211.456Y-142.649
X211.456Y-147.119
X211.456Y-150.525
X218.817Y-139.243
X218.817Y-142.649
X218.817Y-147.119
X218.817Y-150.525
X226.178Y-139.243
X226.178Y-142.649
X226.178Y-147.119
X226.178Y-150.525
X233.538Y-139.243
X233.538Y-142.649
X233.538Y-147.119
X233.538Y-150.525
X240.899Y-139.243
X240.899Y-142.649
X240.899Y-147.119
X240.899Y-150.525
X248.26Y-139.243
X248.26Y-142.649
X248.26Y-147.119
X248.26Y-150.525
T14
X76.2Y-35.1
X107.982Y-124.848
X138.58Y-35.16
X175.73Y-111.58
X220.74Y-37.34
X247.32Y-112.46
T0
M30
