%TF.GenerationSoftware,KiCad,Pcbnew,(5.1.9)-1*%
%TF.CreationDate,2021-02-10T21:10:38+00:00*%
%TF.ProjectId,SD_FSEQ,53445f46-5345-4512-9e6b-696361645f70,rev?*%
%TF.SameCoordinates,Original*%
%TF.FileFunction,Legend,Bot*%
%TF.FilePolarity,Positive*%
%FSLAX46Y46*%
G04 Gerber Fmt 4.6, Leading zero omitted, Abs format (unit mm)*
G04 Created by KiCad (PCBNEW (5.1.9)-1) date 2021-02-10 21:10:38*
%MOMM*%
%LPD*%
G01*
G04 APERTURE LIST*
%ADD10C,0.010000*%
%ADD11C,0.120000*%
%ADD12C,0.150000*%
G04 APERTURE END LIST*
D10*
%TO.C,G\u002A\u002A\u002A*%
G36*
X125221782Y-87259182D02*
G01*
X125091796Y-87329687D01*
X124996668Y-87424729D01*
X124867006Y-87619856D01*
X124827859Y-87825226D01*
X124880484Y-88056725D01*
X125026137Y-88330236D01*
X125074019Y-88402350D01*
X125198072Y-88574769D01*
X125304266Y-88706553D01*
X125372192Y-88772648D01*
X125377827Y-88775350D01*
X125441855Y-88744550D01*
X125543727Y-88643275D01*
X125637197Y-88525714D01*
X125794208Y-88300992D01*
X125891811Y-88133910D01*
X125943086Y-87995569D01*
X125961116Y-87857069D01*
X125962000Y-87808157D01*
X125958601Y-87791645D01*
X125736222Y-87791645D01*
X125713532Y-87911234D01*
X125655779Y-88073868D01*
X125578435Y-88246765D01*
X125496975Y-88397143D01*
X125426874Y-88492222D01*
X125397555Y-88509111D01*
X125351719Y-88463676D01*
X125273957Y-88346498D01*
X125208971Y-88233362D01*
X125123498Y-88047994D01*
X125069144Y-87875672D01*
X125058889Y-87799555D01*
X125097086Y-87648617D01*
X125191211Y-87503487D01*
X125310566Y-87403088D01*
X125389646Y-87380222D01*
X125520912Y-87429056D01*
X125642593Y-87549821D01*
X125722169Y-87703913D01*
X125736222Y-87791645D01*
X125958601Y-87791645D01*
X125919906Y-87603689D01*
X125798443Y-87424729D01*
X125665391Y-87301219D01*
X125527814Y-87249550D01*
X125397555Y-87241677D01*
X125221782Y-87259182D01*
G37*
X125221782Y-87259182D02*
X125091796Y-87329687D01*
X124996668Y-87424729D01*
X124867006Y-87619856D01*
X124827859Y-87825226D01*
X124880484Y-88056725D01*
X125026137Y-88330236D01*
X125074019Y-88402350D01*
X125198072Y-88574769D01*
X125304266Y-88706553D01*
X125372192Y-88772648D01*
X125377827Y-88775350D01*
X125441855Y-88744550D01*
X125543727Y-88643275D01*
X125637197Y-88525714D01*
X125794208Y-88300992D01*
X125891811Y-88133910D01*
X125943086Y-87995569D01*
X125961116Y-87857069D01*
X125962000Y-87808157D01*
X125958601Y-87791645D01*
X125736222Y-87791645D01*
X125713532Y-87911234D01*
X125655779Y-88073868D01*
X125578435Y-88246765D01*
X125496975Y-88397143D01*
X125426874Y-88492222D01*
X125397555Y-88509111D01*
X125351719Y-88463676D01*
X125273957Y-88346498D01*
X125208971Y-88233362D01*
X125123498Y-88047994D01*
X125069144Y-87875672D01*
X125058889Y-87799555D01*
X125097086Y-87648617D01*
X125191211Y-87503487D01*
X125310566Y-87403088D01*
X125389646Y-87380222D01*
X125520912Y-87429056D01*
X125642593Y-87549821D01*
X125722169Y-87703913D01*
X125736222Y-87791645D01*
X125958601Y-87791645D01*
X125919906Y-87603689D01*
X125798443Y-87424729D01*
X125665391Y-87301219D01*
X125527814Y-87249550D01*
X125397555Y-87241677D01*
X125221782Y-87259182D01*
G36*
X132406077Y-87261768D02*
G01*
X132226249Y-87394620D01*
X132089976Y-87579679D01*
X132021190Y-87786964D01*
X132027401Y-87935340D01*
X132066060Y-88026078D01*
X132145813Y-88173689D01*
X132250442Y-88351963D01*
X132363728Y-88534693D01*
X132469453Y-88695671D01*
X132551399Y-88808687D01*
X132592048Y-88847778D01*
X132628718Y-88805212D01*
X132712496Y-88692891D01*
X132826242Y-88533881D01*
X132842319Y-88511007D01*
X133015763Y-88248031D01*
X133120059Y-88043662D01*
X133163037Y-87873929D01*
X133159633Y-87822410D01*
X132943065Y-87822410D01*
X132904150Y-88011144D01*
X132785595Y-88238558D01*
X132750333Y-88293190D01*
X132657998Y-88425495D01*
X132600603Y-88474768D01*
X132553835Y-88454066D01*
X132522358Y-88415623D01*
X132446419Y-88298830D01*
X132355033Y-88138327D01*
X132332323Y-88095316D01*
X132255189Y-87858676D01*
X132275479Y-87649800D01*
X132390519Y-87485844D01*
X132432106Y-87454970D01*
X132598950Y-87402945D01*
X132758304Y-87450811D01*
X132882278Y-87587427D01*
X132908930Y-87645437D01*
X132943065Y-87822410D01*
X133159633Y-87822410D01*
X133152526Y-87714863D01*
X133129559Y-87631540D01*
X133026546Y-87453711D01*
X132864140Y-87306385D01*
X132681491Y-87220973D01*
X132605530Y-87211100D01*
X132406077Y-87261768D01*
G37*
X132406077Y-87261768D02*
X132226249Y-87394620D01*
X132089976Y-87579679D01*
X132021190Y-87786964D01*
X132027401Y-87935340D01*
X132066060Y-88026078D01*
X132145813Y-88173689D01*
X132250442Y-88351963D01*
X132363728Y-88534693D01*
X132469453Y-88695671D01*
X132551399Y-88808687D01*
X132592048Y-88847778D01*
X132628718Y-88805212D01*
X132712496Y-88692891D01*
X132826242Y-88533881D01*
X132842319Y-88511007D01*
X133015763Y-88248031D01*
X133120059Y-88043662D01*
X133163037Y-87873929D01*
X133159633Y-87822410D01*
X132943065Y-87822410D01*
X132904150Y-88011144D01*
X132785595Y-88238558D01*
X132750333Y-88293190D01*
X132657998Y-88425495D01*
X132600603Y-88474768D01*
X132553835Y-88454066D01*
X132522358Y-88415623D01*
X132446419Y-88298830D01*
X132355033Y-88138327D01*
X132332323Y-88095316D01*
X132255189Y-87858676D01*
X132275479Y-87649800D01*
X132390519Y-87485844D01*
X132432106Y-87454970D01*
X132598950Y-87402945D01*
X132758304Y-87450811D01*
X132882278Y-87587427D01*
X132908930Y-87645437D01*
X132943065Y-87822410D01*
X133159633Y-87822410D01*
X133152526Y-87714863D01*
X133129559Y-87631540D01*
X133026546Y-87453711D01*
X132864140Y-87306385D01*
X132681491Y-87220973D01*
X132605530Y-87211100D01*
X132406077Y-87261768D01*
G36*
X128801359Y-88080509D02*
G01*
X128612123Y-88200069D01*
X128590437Y-88222723D01*
X128467427Y-88411230D01*
X128436595Y-88616122D01*
X128497234Y-88857796D01*
X128563408Y-89002282D01*
X128674186Y-89203577D01*
X128788958Y-89387681D01*
X128861351Y-89487338D01*
X128993291Y-89647120D01*
X129163853Y-89430894D01*
X129345746Y-89173845D01*
X129482639Y-88927267D01*
X129560973Y-88717856D01*
X129574233Y-88622836D01*
X129559303Y-88552263D01*
X129334834Y-88552263D01*
X129314780Y-88778313D01*
X129210065Y-89021241D01*
X129075727Y-89204296D01*
X129003016Y-89274538D01*
X128950653Y-89257501D01*
X128906843Y-89204296D01*
X128834483Y-89089348D01*
X128748463Y-88925208D01*
X128720952Y-88866799D01*
X128653310Y-88630067D01*
X128688638Y-88436048D01*
X128828557Y-88277736D01*
X128862584Y-88254052D01*
X128992396Y-88195199D01*
X129106773Y-88218464D01*
X129117810Y-88224171D01*
X129269440Y-88361434D01*
X129334834Y-88552263D01*
X129559303Y-88552263D01*
X129526314Y-88396333D01*
X129400003Y-88218656D01*
X129220364Y-88099996D01*
X129012461Y-88050550D01*
X128801359Y-88080509D01*
G37*
X128801359Y-88080509D02*
X128612123Y-88200069D01*
X128590437Y-88222723D01*
X128467427Y-88411230D01*
X128436595Y-88616122D01*
X128497234Y-88857796D01*
X128563408Y-89002282D01*
X128674186Y-89203577D01*
X128788958Y-89387681D01*
X128861351Y-89487338D01*
X128993291Y-89647120D01*
X129163853Y-89430894D01*
X129345746Y-89173845D01*
X129482639Y-88927267D01*
X129560973Y-88717856D01*
X129574233Y-88622836D01*
X129559303Y-88552263D01*
X129334834Y-88552263D01*
X129314780Y-88778313D01*
X129210065Y-89021241D01*
X129075727Y-89204296D01*
X129003016Y-89274538D01*
X128950653Y-89257501D01*
X128906843Y-89204296D01*
X128834483Y-89089348D01*
X128748463Y-88925208D01*
X128720952Y-88866799D01*
X128653310Y-88630067D01*
X128688638Y-88436048D01*
X128828557Y-88277736D01*
X128862584Y-88254052D01*
X128992396Y-88195199D01*
X129106773Y-88218464D01*
X129117810Y-88224171D01*
X129269440Y-88361434D01*
X129334834Y-88552263D01*
X129559303Y-88552263D01*
X129526314Y-88396333D01*
X129400003Y-88218656D01*
X129220364Y-88099996D01*
X129012461Y-88050550D01*
X128801359Y-88080509D01*
G36*
X124175491Y-89224409D02*
G01*
X124010438Y-89315727D01*
X123834403Y-89434674D01*
X123680057Y-89558389D01*
X123580073Y-89664009D01*
X123562060Y-89697757D01*
X123564821Y-89856339D01*
X123664773Y-89995030D01*
X123824342Y-90083619D01*
X123954678Y-90127205D01*
X124042774Y-90138261D01*
X124135259Y-90111874D01*
X124278762Y-90043134D01*
X124297644Y-90033776D01*
X124495693Y-89917120D01*
X124676315Y-89778630D01*
X124814496Y-89640858D01*
X124885228Y-89526356D01*
X124887567Y-89512142D01*
X124648859Y-89512142D01*
X124564693Y-89626396D01*
X124376456Y-89772031D01*
X124368198Y-89777612D01*
X124191165Y-89893979D01*
X124076877Y-89954546D01*
X123995280Y-89967791D01*
X123916322Y-89942196D01*
X123869845Y-89918236D01*
X123778182Y-89838957D01*
X123782358Y-89743990D01*
X123885957Y-89625452D01*
X124062120Y-89495444D01*
X124237196Y-89386103D01*
X124355907Y-89335586D01*
X124451063Y-89333496D01*
X124513675Y-89352359D01*
X124631128Y-89422915D01*
X124648859Y-89512142D01*
X124887567Y-89512142D01*
X124889555Y-89500071D01*
X124838491Y-89351085D01*
X124698942Y-89242589D01*
X124491372Y-89185511D01*
X124296889Y-89183581D01*
X124175491Y-89224409D01*
G37*
X124175491Y-89224409D02*
X124010438Y-89315727D01*
X123834403Y-89434674D01*
X123680057Y-89558389D01*
X123580073Y-89664009D01*
X123562060Y-89697757D01*
X123564821Y-89856339D01*
X123664773Y-89995030D01*
X123824342Y-90083619D01*
X123954678Y-90127205D01*
X124042774Y-90138261D01*
X124135259Y-90111874D01*
X124278762Y-90043134D01*
X124297644Y-90033776D01*
X124495693Y-89917120D01*
X124676315Y-89778630D01*
X124814496Y-89640858D01*
X124885228Y-89526356D01*
X124887567Y-89512142D01*
X124648859Y-89512142D01*
X124564693Y-89626396D01*
X124376456Y-89772031D01*
X124368198Y-89777612D01*
X124191165Y-89893979D01*
X124076877Y-89954546D01*
X123995280Y-89967791D01*
X123916322Y-89942196D01*
X123869845Y-89918236D01*
X123778182Y-89838957D01*
X123782358Y-89743990D01*
X123885957Y-89625452D01*
X124062120Y-89495444D01*
X124237196Y-89386103D01*
X124355907Y-89335586D01*
X124451063Y-89333496D01*
X124513675Y-89352359D01*
X124631128Y-89422915D01*
X124648859Y-89512142D01*
X124887567Y-89512142D01*
X124889555Y-89500071D01*
X124838491Y-89351085D01*
X124698942Y-89242589D01*
X124491372Y-89185511D01*
X124296889Y-89183581D01*
X124175491Y-89224409D01*
G36*
X133446354Y-89217841D02*
G01*
X133281259Y-89295528D01*
X133150837Y-89394753D01*
X133102998Y-89466223D01*
X133090991Y-89562393D01*
X133130469Y-89657333D01*
X133235874Y-89771995D01*
X133419759Y-89925840D01*
X133676270Y-90090959D01*
X133912561Y-90157070D01*
X134131030Y-90135460D01*
X134303288Y-90047802D01*
X134399180Y-89910914D01*
X134399970Y-89823717D01*
X134184816Y-89823717D01*
X134166988Y-89916972D01*
X134080079Y-89969519D01*
X133965253Y-89997085D01*
X133852488Y-89978945D01*
X133709317Y-89905088D01*
X133569670Y-89812132D01*
X133395626Y-89670426D01*
X133325316Y-89555878D01*
X133355136Y-89460683D01*
X133392161Y-89427823D01*
X133488528Y-89372630D01*
X133583574Y-89367630D01*
X133706446Y-89419525D01*
X133886291Y-89535019D01*
X133900392Y-89544712D01*
X134096174Y-89700159D01*
X134184816Y-89823717D01*
X134399970Y-89823717D01*
X134400626Y-89751460D01*
X134337615Y-89668828D01*
X134206170Y-89552973D01*
X134036620Y-89425352D01*
X133859292Y-89307419D01*
X133704515Y-89220633D01*
X133602618Y-89186448D01*
X133601977Y-89186445D01*
X133446354Y-89217841D01*
G37*
X133446354Y-89217841D02*
X133281259Y-89295528D01*
X133150837Y-89394753D01*
X133102998Y-89466223D01*
X133090991Y-89562393D01*
X133130469Y-89657333D01*
X133235874Y-89771995D01*
X133419759Y-89925840D01*
X133676270Y-90090959D01*
X133912561Y-90157070D01*
X134131030Y-90135460D01*
X134303288Y-90047802D01*
X134399180Y-89910914D01*
X134399970Y-89823717D01*
X134184816Y-89823717D01*
X134166988Y-89916972D01*
X134080079Y-89969519D01*
X133965253Y-89997085D01*
X133852488Y-89978945D01*
X133709317Y-89905088D01*
X133569670Y-89812132D01*
X133395626Y-89670426D01*
X133325316Y-89555878D01*
X133355136Y-89460683D01*
X133392161Y-89427823D01*
X133488528Y-89372630D01*
X133583574Y-89367630D01*
X133706446Y-89419525D01*
X133886291Y-89535019D01*
X133900392Y-89544712D01*
X134096174Y-89700159D01*
X134184816Y-89823717D01*
X134399970Y-89823717D01*
X134400626Y-89751460D01*
X134337615Y-89668828D01*
X134206170Y-89552973D01*
X134036620Y-89425352D01*
X133859292Y-89307419D01*
X133704515Y-89220633D01*
X133602618Y-89186448D01*
X133601977Y-89186445D01*
X133446354Y-89217841D01*
G36*
X132349340Y-89613069D02*
G01*
X132206913Y-89714860D01*
X132132003Y-89897805D01*
X132114444Y-90113681D01*
X132122512Y-90303519D01*
X132156291Y-90421926D01*
X132230145Y-90509788D01*
X132263168Y-90537015D01*
X132470018Y-90637871D01*
X132689891Y-90643966D01*
X132888521Y-90556399D01*
X132935454Y-90515455D01*
X133031547Y-90384378D01*
X133070453Y-90218542D01*
X133074000Y-90117778D01*
X133067246Y-90076339D01*
X132845365Y-90076339D01*
X132839509Y-90250493D01*
X132802157Y-90386484D01*
X132780489Y-90416934D01*
X132653837Y-90475797D01*
X132494603Y-90471614D01*
X132407524Y-90436127D01*
X132359784Y-90344876D01*
X132348223Y-90151974D01*
X132351079Y-90084214D01*
X132365443Y-89907565D01*
X132393338Y-89814089D01*
X132450927Y-89774102D01*
X132527080Y-89760922D01*
X132672806Y-89770021D01*
X132766969Y-89810166D01*
X132820820Y-89913177D01*
X132845365Y-90076339D01*
X133067246Y-90076339D01*
X133032721Y-89864520D01*
X132911586Y-89689212D01*
X132714646Y-89596152D01*
X132568566Y-89581556D01*
X132349340Y-89613069D01*
G37*
X132349340Y-89613069D02*
X132206913Y-89714860D01*
X132132003Y-89897805D01*
X132114444Y-90113681D01*
X132122512Y-90303519D01*
X132156291Y-90421926D01*
X132230145Y-90509788D01*
X132263168Y-90537015D01*
X132470018Y-90637871D01*
X132689891Y-90643966D01*
X132888521Y-90556399D01*
X132935454Y-90515455D01*
X133031547Y-90384378D01*
X133070453Y-90218542D01*
X133074000Y-90117778D01*
X133067246Y-90076339D01*
X132845365Y-90076339D01*
X132839509Y-90250493D01*
X132802157Y-90386484D01*
X132780489Y-90416934D01*
X132653837Y-90475797D01*
X132494603Y-90471614D01*
X132407524Y-90436127D01*
X132359784Y-90344876D01*
X132348223Y-90151974D01*
X132351079Y-90084214D01*
X132365443Y-89907565D01*
X132393338Y-89814089D01*
X132450927Y-89774102D01*
X132527080Y-89760922D01*
X132672806Y-89770021D01*
X132766969Y-89810166D01*
X132820820Y-89913177D01*
X132845365Y-90076339D01*
X133067246Y-90076339D01*
X133032721Y-89864520D01*
X132911586Y-89689212D01*
X132714646Y-89596152D01*
X132568566Y-89581556D01*
X132349340Y-89613069D01*
G36*
X127685627Y-90076371D02*
G01*
X127402173Y-90275554D01*
X127302555Y-90363197D01*
X127181313Y-90500540D01*
X127159807Y-90617869D01*
X127236865Y-90745774D01*
X127285879Y-90797677D01*
X127457909Y-90913407D01*
X127654331Y-90933263D01*
X127885555Y-90856152D01*
X128122276Y-90709949D01*
X128339347Y-90537281D01*
X128457098Y-90395404D01*
X128478419Y-90282975D01*
X128261674Y-90282975D01*
X128257145Y-90348614D01*
X128182967Y-90431714D01*
X128027205Y-90553341D01*
X128008111Y-90567386D01*
X127779470Y-90709895D01*
X127603234Y-90759920D01*
X127469700Y-90719245D01*
X127423361Y-90674758D01*
X127390661Y-90613955D01*
X127411597Y-90548090D01*
X127499783Y-90453239D01*
X127599894Y-90364466D01*
X127822875Y-90208697D01*
X128016348Y-90147353D01*
X128170455Y-90182876D01*
X128208489Y-90213734D01*
X128261674Y-90282975D01*
X128478419Y-90282975D01*
X128480514Y-90271930D01*
X128414581Y-90154473D01*
X128364974Y-90106974D01*
X128162836Y-89993092D01*
X127937784Y-89982554D01*
X127685627Y-90076371D01*
G37*
X127685627Y-90076371D02*
X127402173Y-90275554D01*
X127302555Y-90363197D01*
X127181313Y-90500540D01*
X127159807Y-90617869D01*
X127236865Y-90745774D01*
X127285879Y-90797677D01*
X127457909Y-90913407D01*
X127654331Y-90933263D01*
X127885555Y-90856152D01*
X128122276Y-90709949D01*
X128339347Y-90537281D01*
X128457098Y-90395404D01*
X128478419Y-90282975D01*
X128261674Y-90282975D01*
X128257145Y-90348614D01*
X128182967Y-90431714D01*
X128027205Y-90553341D01*
X128008111Y-90567386D01*
X127779470Y-90709895D01*
X127603234Y-90759920D01*
X127469700Y-90719245D01*
X127423361Y-90674758D01*
X127390661Y-90613955D01*
X127411597Y-90548090D01*
X127499783Y-90453239D01*
X127599894Y-90364466D01*
X127822875Y-90208697D01*
X128016348Y-90147353D01*
X128170455Y-90182876D01*
X128208489Y-90213734D01*
X128261674Y-90282975D01*
X128478419Y-90282975D01*
X128480514Y-90271930D01*
X128414581Y-90154473D01*
X128364974Y-90106974D01*
X128162836Y-89993092D01*
X127937784Y-89982554D01*
X127685627Y-90076371D01*
G36*
X129727275Y-90016437D02*
G01*
X129643448Y-90064534D01*
X129532935Y-90191891D01*
X129532309Y-90340262D01*
X129641045Y-90507129D01*
X129757889Y-90614537D01*
X130017558Y-90804952D01*
X130228393Y-90910570D01*
X130409231Y-90936957D01*
X130578906Y-90889674D01*
X130618667Y-90868774D01*
X130775504Y-90743539D01*
X130823615Y-90605220D01*
X130816071Y-90586181D01*
X130578055Y-90586181D01*
X130576609Y-90682110D01*
X130519889Y-90729507D01*
X130398038Y-90757832D01*
X130269968Y-90732371D01*
X130103964Y-90644012D01*
X130011596Y-90583445D01*
X129835207Y-90438976D01*
X129754983Y-90315108D01*
X129772412Y-90220870D01*
X129888985Y-90165292D01*
X129941333Y-90157715D01*
X130093114Y-90175880D01*
X130251104Y-90246020D01*
X130396875Y-90349925D01*
X130512001Y-90469382D01*
X130578055Y-90586181D01*
X130816071Y-90586181D01*
X130762466Y-90450910D01*
X130591521Y-90277700D01*
X130496589Y-90205551D01*
X130205998Y-90037072D01*
X129950629Y-89974211D01*
X129727275Y-90016437D01*
G37*
X129727275Y-90016437D02*
X129643448Y-90064534D01*
X129532935Y-90191891D01*
X129532309Y-90340262D01*
X129641045Y-90507129D01*
X129757889Y-90614537D01*
X130017558Y-90804952D01*
X130228393Y-90910570D01*
X130409231Y-90936957D01*
X130578906Y-90889674D01*
X130618667Y-90868774D01*
X130775504Y-90743539D01*
X130823615Y-90605220D01*
X130816071Y-90586181D01*
X130578055Y-90586181D01*
X130576609Y-90682110D01*
X130519889Y-90729507D01*
X130398038Y-90757832D01*
X130269968Y-90732371D01*
X130103964Y-90644012D01*
X130011596Y-90583445D01*
X129835207Y-90438976D01*
X129754983Y-90315108D01*
X129772412Y-90220870D01*
X129888985Y-90165292D01*
X129941333Y-90157715D01*
X130093114Y-90175880D01*
X130251104Y-90246020D01*
X130396875Y-90349925D01*
X130512001Y-90469382D01*
X130578055Y-90586181D01*
X130816071Y-90586181D01*
X130762466Y-90450910D01*
X130591521Y-90277700D01*
X130496589Y-90205551D01*
X130205998Y-90037072D01*
X129950629Y-89974211D01*
X129727275Y-90016437D01*
G36*
X124357983Y-85827485D02*
G01*
X124255763Y-85852513D01*
X124195485Y-85876008D01*
X124025468Y-85985115D01*
X123956356Y-86116479D01*
X123982578Y-86254846D01*
X124098564Y-86384962D01*
X124298745Y-86491574D01*
X124435361Y-86532923D01*
X124594957Y-86576800D01*
X124669020Y-86622323D01*
X124682952Y-86692056D01*
X124674815Y-86745640D01*
X124613110Y-86880310D01*
X124498577Y-87017585D01*
X124477741Y-87036050D01*
X124297055Y-87247233D01*
X124163826Y-87516238D01*
X124102190Y-87791953D01*
X124100573Y-87834807D01*
X124125759Y-88002742D01*
X124191323Y-88207307D01*
X124238804Y-88314584D01*
X124344250Y-88497937D01*
X124488760Y-88713003D01*
X124653770Y-88936076D01*
X124820716Y-89143448D01*
X124971031Y-89311411D01*
X125086152Y-89416258D01*
X125115375Y-89433973D01*
X125177666Y-89471959D01*
X125173473Y-89519255D01*
X125094716Y-89604232D01*
X125056680Y-89640064D01*
X124928036Y-89821823D01*
X124879847Y-90029414D01*
X124904351Y-90236807D01*
X124993783Y-90417975D01*
X125140381Y-90546888D01*
X125336381Y-90597518D01*
X125342256Y-90597556D01*
X125546678Y-90566023D01*
X125722916Y-90484778D01*
X125805913Y-90405661D01*
X125829869Y-90316753D01*
X125845270Y-90158278D01*
X125848200Y-90053001D01*
X125623333Y-90053001D01*
X125616767Y-90228348D01*
X125599927Y-90353994D01*
X125585704Y-90390593D01*
X125485777Y-90426275D01*
X125342341Y-90420218D01*
X125214121Y-90378554D01*
X125175240Y-90347727D01*
X125131664Y-90230337D01*
X125124852Y-90062468D01*
X125150325Y-89891216D01*
X125203602Y-89763674D01*
X125233597Y-89734215D01*
X125353856Y-89704632D01*
X125473486Y-89715431D01*
X125560894Y-89747109D01*
X125605517Y-89806456D01*
X125621539Y-89925421D01*
X125623333Y-90053001D01*
X125848200Y-90053001D01*
X125848247Y-90051319D01*
X125839786Y-89865537D01*
X125802222Y-89748174D01*
X125719365Y-89655502D01*
X125693889Y-89634438D01*
X125598952Y-89544608D01*
X125595080Y-89494376D01*
X125619973Y-89480942D01*
X125725966Y-89408139D01*
X125873052Y-89261165D01*
X126043820Y-89062393D01*
X126220855Y-88834196D01*
X126386745Y-88598950D01*
X126524079Y-88379026D01*
X126611061Y-88207494D01*
X126683242Y-87896225D01*
X126652927Y-87579882D01*
X126526539Y-87283060D01*
X126310503Y-87030354D01*
X126301611Y-87022790D01*
X126194394Y-86923145D01*
X126141917Y-86855264D01*
X126141743Y-86842997D01*
X126205240Y-86837439D01*
X126353287Y-86843880D01*
X126558349Y-86860866D01*
X126642720Y-86869485D01*
X126901243Y-86894009D01*
X127225820Y-86920180D01*
X127569734Y-86944416D01*
X127810555Y-86959072D01*
X128502000Y-86997586D01*
X128502000Y-87158696D01*
X128459695Y-87315918D01*
X128389111Y-87380222D01*
X128298442Y-87480874D01*
X128276222Y-87569149D01*
X128227482Y-87700180D01*
X128107347Y-87822514D01*
X127890022Y-88048946D01*
X127760505Y-88329517D01*
X127723199Y-88642287D01*
X127782509Y-88965315D01*
X127847110Y-89118597D01*
X127982078Y-89352914D01*
X128156647Y-89611495D01*
X128347426Y-89863442D01*
X128531025Y-90077860D01*
X128683553Y-90223461D01*
X128791339Y-90312023D01*
X128816688Y-90357975D01*
X128766867Y-90387240D01*
X128732613Y-90398466D01*
X128608190Y-90491662D01*
X128530249Y-90656099D01*
X128503328Y-90858214D01*
X128531964Y-91064440D01*
X128618986Y-91239055D01*
X128770994Y-91350140D01*
X128972065Y-91395075D01*
X129178263Y-91371702D01*
X129345653Y-91277862D01*
X129348667Y-91274889D01*
X129434404Y-91123666D01*
X129461365Y-90970367D01*
X129235836Y-90970367D01*
X129223669Y-91114942D01*
X129198148Y-91180815D01*
X129101149Y-91215093D01*
X128958965Y-91211813D01*
X128831192Y-91175432D01*
X128795511Y-91150711D01*
X128742994Y-91033831D01*
X128730362Y-90863943D01*
X128755731Y-90692919D01*
X128816476Y-90573365D01*
X128958432Y-90493446D01*
X129104848Y-90508079D01*
X129168044Y-90552400D01*
X129205843Y-90643559D01*
X129229167Y-90798060D01*
X129235836Y-90970367D01*
X129461365Y-90970367D01*
X129470168Y-90920319D01*
X129456965Y-90707150D01*
X129395800Y-90526462D01*
X129328931Y-90444983D01*
X129196307Y-90340660D01*
X129446040Y-90089352D01*
X129657571Y-89851406D01*
X129866354Y-89573204D01*
X130051451Y-89286519D01*
X130191927Y-89023125D01*
X130254842Y-88861889D01*
X130289404Y-88568853D01*
X130215206Y-88281050D01*
X130030527Y-87992860D01*
X129965639Y-87918733D01*
X129844558Y-87772959D01*
X129763975Y-87648318D01*
X129743778Y-87589674D01*
X129702523Y-87494936D01*
X129603264Y-87390777D01*
X129602667Y-87390307D01*
X129495528Y-87260833D01*
X129461555Y-87141355D01*
X129461555Y-87003402D01*
X130519889Y-86934527D01*
X130862081Y-86911077D01*
X131172138Y-86887614D01*
X131429762Y-86865851D01*
X131614653Y-86847500D01*
X131705222Y-86834596D01*
X131808586Y-86828780D01*
X131818578Y-86883085D01*
X131735710Y-86994943D01*
X131657850Y-87073329D01*
X131459735Y-87303632D01*
X131354183Y-87544397D01*
X131324222Y-87821164D01*
X131355196Y-88066200D01*
X131453086Y-88330048D01*
X131625346Y-88627406D01*
X131879428Y-88972972D01*
X131957054Y-89069166D01*
X132191450Y-89324043D01*
X132401569Y-89475819D01*
X132600531Y-89524142D01*
X132801460Y-89468661D01*
X133017476Y-89309023D01*
X133261702Y-89044876D01*
X133270748Y-89033945D01*
X133572721Y-88626454D01*
X133771471Y-88258301D01*
X133867634Y-87924590D01*
X133861849Y-87620427D01*
X133754752Y-87340915D01*
X133546983Y-87081159D01*
X133527557Y-87062524D01*
X133419587Y-86940891D01*
X133360194Y-86835640D01*
X133356222Y-86813139D01*
X133319956Y-86696435D01*
X133296113Y-86665357D01*
X133294244Y-86618313D01*
X133391063Y-86570559D01*
X133507779Y-86537501D01*
X133697206Y-86480006D01*
X133859101Y-86413711D01*
X133906555Y-86387465D01*
X134012897Y-86266387D01*
X134024257Y-86132072D01*
X133809847Y-86132072D01*
X133793137Y-86225143D01*
X133670847Y-86308012D01*
X133440068Y-86383281D01*
X133285667Y-86418349D01*
X133075240Y-86476899D01*
X132973915Y-86545920D01*
X132978075Y-86629743D01*
X133047052Y-86703947D01*
X133105377Y-86814616D01*
X133099693Y-86880191D01*
X133096956Y-86965164D01*
X133124759Y-86985111D01*
X133195747Y-87022148D01*
X133311066Y-87116418D01*
X133380279Y-87182264D01*
X133568860Y-87435828D01*
X133660499Y-87712519D01*
X133649057Y-87991353D01*
X133633342Y-88047119D01*
X133539292Y-88268855D01*
X133400930Y-88512616D01*
X133234216Y-88758226D01*
X133055109Y-88985509D01*
X132879569Y-89174290D01*
X132723557Y-89304395D01*
X132603032Y-89355647D01*
X132598106Y-89355778D01*
X132465017Y-89307276D01*
X132302687Y-89175781D01*
X132125759Y-88982309D01*
X131948878Y-88747875D01*
X131786688Y-88493496D01*
X131653834Y-88240188D01*
X131564961Y-88008966D01*
X131534606Y-87829579D01*
X131579937Y-87561364D01*
X131701223Y-87307633D01*
X131876403Y-87111538D01*
X131916459Y-87082708D01*
X132049005Y-86965396D01*
X132094735Y-86829235D01*
X132095630Y-86800916D01*
X132089606Y-86701433D01*
X132051449Y-86657395D01*
X131951031Y-86652800D01*
X131836926Y-86663506D01*
X131701587Y-86675291D01*
X131475350Y-86692420D01*
X131179996Y-86713354D01*
X130837307Y-86736557D01*
X130469063Y-86760490D01*
X130407000Y-86764425D01*
X129235778Y-86838413D01*
X129235778Y-87131421D01*
X129241033Y-87305369D01*
X129266407Y-87398882D01*
X129326313Y-87444267D01*
X129382972Y-87461372D01*
X129489139Y-87509471D01*
X129509387Y-87600313D01*
X129503852Y-87635964D01*
X129508270Y-87745290D01*
X129586963Y-87834094D01*
X129658764Y-87880539D01*
X129810020Y-88016845D01*
X129948335Y-88219237D01*
X130047575Y-88441687D01*
X130081893Y-88625710D01*
X130042629Y-88817688D01*
X129932885Y-89069345D01*
X129762855Y-89361393D01*
X129542733Y-89674548D01*
X129494567Y-89736778D01*
X129297712Y-89970408D01*
X129138657Y-90108640D01*
X128999180Y-90154084D01*
X128861058Y-90109349D01*
X128706066Y-89977043D01*
X128603909Y-89864283D01*
X128321129Y-89504506D01*
X128111141Y-89168474D01*
X127981011Y-88869320D01*
X127937766Y-88625879D01*
X127991494Y-88317424D01*
X128149069Y-88049047D01*
X128329292Y-87881792D01*
X128463717Y-87740787D01*
X128502000Y-87618323D01*
X128544118Y-87493339D01*
X128614889Y-87453022D01*
X128682903Y-87416813D01*
X128716936Y-87334451D01*
X128727540Y-87175886D01*
X128727778Y-87131512D01*
X128727778Y-86839523D01*
X127613000Y-86767813D01*
X127245925Y-86743652D01*
X126895720Y-86719600D01*
X126586310Y-86697374D01*
X126341617Y-86678694D01*
X126185562Y-86665278D01*
X126185083Y-86665231D01*
X125871945Y-86634359D01*
X125874639Y-86795545D01*
X125922503Y-86955836D01*
X126041477Y-87069699D01*
X126280276Y-87290080D01*
X126418460Y-87557048D01*
X126454622Y-87734421D01*
X126460712Y-87900988D01*
X126429025Y-88054604D01*
X126348186Y-88240126D01*
X126305715Y-88321761D01*
X126178501Y-88536454D01*
X126021740Y-88766347D01*
X125855307Y-88985754D01*
X125699078Y-89168990D01*
X125572928Y-89290369D01*
X125537373Y-89314729D01*
X125410519Y-89343114D01*
X125319905Y-89334360D01*
X125209367Y-89267375D01*
X125060545Y-89123607D01*
X124890940Y-88924418D01*
X124718053Y-88691167D01*
X124559385Y-88445214D01*
X124488326Y-88319424D01*
X124387665Y-88112319D01*
X124340343Y-87952455D01*
X124334932Y-87794608D01*
X124340489Y-87734421D01*
X124423881Y-87436399D01*
X124604252Y-87191040D01*
X124754590Y-87069778D01*
X124875792Y-86951979D01*
X124899329Y-86852116D01*
X124911684Y-86732857D01*
X124940707Y-86685605D01*
X124996877Y-86598469D01*
X124965833Y-86525664D01*
X124838984Y-86459357D01*
X124622333Y-86395355D01*
X124357154Y-86313399D01*
X124200488Y-86228692D01*
X124153639Y-86142583D01*
X124217910Y-86056422D01*
X124266222Y-86026864D01*
X124361800Y-86003473D01*
X124517753Y-86011372D01*
X124753659Y-86052201D01*
X124873000Y-86077723D01*
X125689167Y-86229055D01*
X126584007Y-86342230D01*
X127534809Y-86417333D01*
X128518860Y-86454448D01*
X129513449Y-86453660D01*
X130495867Y-86415052D01*
X131443400Y-86338708D01*
X132333339Y-86224713D01*
X133142972Y-86073150D01*
X133258218Y-86046678D01*
X133475665Y-86000858D01*
X133612940Y-85988457D01*
X133697319Y-86008276D01*
X133723884Y-86026197D01*
X133809847Y-86132072D01*
X134024257Y-86132072D01*
X134025100Y-86122110D01*
X133951054Y-85979749D01*
X133798648Y-85864419D01*
X133733643Y-85836978D01*
X133641037Y-85833810D01*
X133463317Y-85851766D01*
X133225590Y-85887567D01*
X132952960Y-85937933D01*
X132938309Y-85940886D01*
X132094250Y-86084510D01*
X131182573Y-86190327D01*
X130225478Y-86258432D01*
X129245167Y-86288920D01*
X128263842Y-86281886D01*
X127303703Y-86237425D01*
X126386954Y-86155631D01*
X125535795Y-86036601D01*
X124881490Y-85906456D01*
X124639568Y-85853068D01*
X124475492Y-85827208D01*
X124357983Y-85827485D01*
G37*
X124357983Y-85827485D02*
X124255763Y-85852513D01*
X124195485Y-85876008D01*
X124025468Y-85985115D01*
X123956356Y-86116479D01*
X123982578Y-86254846D01*
X124098564Y-86384962D01*
X124298745Y-86491574D01*
X124435361Y-86532923D01*
X124594957Y-86576800D01*
X124669020Y-86622323D01*
X124682952Y-86692056D01*
X124674815Y-86745640D01*
X124613110Y-86880310D01*
X124498577Y-87017585D01*
X124477741Y-87036050D01*
X124297055Y-87247233D01*
X124163826Y-87516238D01*
X124102190Y-87791953D01*
X124100573Y-87834807D01*
X124125759Y-88002742D01*
X124191323Y-88207307D01*
X124238804Y-88314584D01*
X124344250Y-88497937D01*
X124488760Y-88713003D01*
X124653770Y-88936076D01*
X124820716Y-89143448D01*
X124971031Y-89311411D01*
X125086152Y-89416258D01*
X125115375Y-89433973D01*
X125177666Y-89471959D01*
X125173473Y-89519255D01*
X125094716Y-89604232D01*
X125056680Y-89640064D01*
X124928036Y-89821823D01*
X124879847Y-90029414D01*
X124904351Y-90236807D01*
X124993783Y-90417975D01*
X125140381Y-90546888D01*
X125336381Y-90597518D01*
X125342256Y-90597556D01*
X125546678Y-90566023D01*
X125722916Y-90484778D01*
X125805913Y-90405661D01*
X125829869Y-90316753D01*
X125845270Y-90158278D01*
X125848200Y-90053001D01*
X125623333Y-90053001D01*
X125616767Y-90228348D01*
X125599927Y-90353994D01*
X125585704Y-90390593D01*
X125485777Y-90426275D01*
X125342341Y-90420218D01*
X125214121Y-90378554D01*
X125175240Y-90347727D01*
X125131664Y-90230337D01*
X125124852Y-90062468D01*
X125150325Y-89891216D01*
X125203602Y-89763674D01*
X125233597Y-89734215D01*
X125353856Y-89704632D01*
X125473486Y-89715431D01*
X125560894Y-89747109D01*
X125605517Y-89806456D01*
X125621539Y-89925421D01*
X125623333Y-90053001D01*
X125848200Y-90053001D01*
X125848247Y-90051319D01*
X125839786Y-89865537D01*
X125802222Y-89748174D01*
X125719365Y-89655502D01*
X125693889Y-89634438D01*
X125598952Y-89544608D01*
X125595080Y-89494376D01*
X125619973Y-89480942D01*
X125725966Y-89408139D01*
X125873052Y-89261165D01*
X126043820Y-89062393D01*
X126220855Y-88834196D01*
X126386745Y-88598950D01*
X126524079Y-88379026D01*
X126611061Y-88207494D01*
X126683242Y-87896225D01*
X126652927Y-87579882D01*
X126526539Y-87283060D01*
X126310503Y-87030354D01*
X126301611Y-87022790D01*
X126194394Y-86923145D01*
X126141917Y-86855264D01*
X126141743Y-86842997D01*
X126205240Y-86837439D01*
X126353287Y-86843880D01*
X126558349Y-86860866D01*
X126642720Y-86869485D01*
X126901243Y-86894009D01*
X127225820Y-86920180D01*
X127569734Y-86944416D01*
X127810555Y-86959072D01*
X128502000Y-86997586D01*
X128502000Y-87158696D01*
X128459695Y-87315918D01*
X128389111Y-87380222D01*
X128298442Y-87480874D01*
X128276222Y-87569149D01*
X128227482Y-87700180D01*
X128107347Y-87822514D01*
X127890022Y-88048946D01*
X127760505Y-88329517D01*
X127723199Y-88642287D01*
X127782509Y-88965315D01*
X127847110Y-89118597D01*
X127982078Y-89352914D01*
X128156647Y-89611495D01*
X128347426Y-89863442D01*
X128531025Y-90077860D01*
X128683553Y-90223461D01*
X128791339Y-90312023D01*
X128816688Y-90357975D01*
X128766867Y-90387240D01*
X128732613Y-90398466D01*
X128608190Y-90491662D01*
X128530249Y-90656099D01*
X128503328Y-90858214D01*
X128531964Y-91064440D01*
X128618986Y-91239055D01*
X128770994Y-91350140D01*
X128972065Y-91395075D01*
X129178263Y-91371702D01*
X129345653Y-91277862D01*
X129348667Y-91274889D01*
X129434404Y-91123666D01*
X129461365Y-90970367D01*
X129235836Y-90970367D01*
X129223669Y-91114942D01*
X129198148Y-91180815D01*
X129101149Y-91215093D01*
X128958965Y-91211813D01*
X128831192Y-91175432D01*
X128795511Y-91150711D01*
X128742994Y-91033831D01*
X128730362Y-90863943D01*
X128755731Y-90692919D01*
X128816476Y-90573365D01*
X128958432Y-90493446D01*
X129104848Y-90508079D01*
X129168044Y-90552400D01*
X129205843Y-90643559D01*
X129229167Y-90798060D01*
X129235836Y-90970367D01*
X129461365Y-90970367D01*
X129470168Y-90920319D01*
X129456965Y-90707150D01*
X129395800Y-90526462D01*
X129328931Y-90444983D01*
X129196307Y-90340660D01*
X129446040Y-90089352D01*
X129657571Y-89851406D01*
X129866354Y-89573204D01*
X130051451Y-89286519D01*
X130191927Y-89023125D01*
X130254842Y-88861889D01*
X130289404Y-88568853D01*
X130215206Y-88281050D01*
X130030527Y-87992860D01*
X129965639Y-87918733D01*
X129844558Y-87772959D01*
X129763975Y-87648318D01*
X129743778Y-87589674D01*
X129702523Y-87494936D01*
X129603264Y-87390777D01*
X129602667Y-87390307D01*
X129495528Y-87260833D01*
X129461555Y-87141355D01*
X129461555Y-87003402D01*
X130519889Y-86934527D01*
X130862081Y-86911077D01*
X131172138Y-86887614D01*
X131429762Y-86865851D01*
X131614653Y-86847500D01*
X131705222Y-86834596D01*
X131808586Y-86828780D01*
X131818578Y-86883085D01*
X131735710Y-86994943D01*
X131657850Y-87073329D01*
X131459735Y-87303632D01*
X131354183Y-87544397D01*
X131324222Y-87821164D01*
X131355196Y-88066200D01*
X131453086Y-88330048D01*
X131625346Y-88627406D01*
X131879428Y-88972972D01*
X131957054Y-89069166D01*
X132191450Y-89324043D01*
X132401569Y-89475819D01*
X132600531Y-89524142D01*
X132801460Y-89468661D01*
X133017476Y-89309023D01*
X133261702Y-89044876D01*
X133270748Y-89033945D01*
X133572721Y-88626454D01*
X133771471Y-88258301D01*
X133867634Y-87924590D01*
X133861849Y-87620427D01*
X133754752Y-87340915D01*
X133546983Y-87081159D01*
X133527557Y-87062524D01*
X133419587Y-86940891D01*
X133360194Y-86835640D01*
X133356222Y-86813139D01*
X133319956Y-86696435D01*
X133296113Y-86665357D01*
X133294244Y-86618313D01*
X133391063Y-86570559D01*
X133507779Y-86537501D01*
X133697206Y-86480006D01*
X133859101Y-86413711D01*
X133906555Y-86387465D01*
X134012897Y-86266387D01*
X134024257Y-86132072D01*
X133809847Y-86132072D01*
X133793137Y-86225143D01*
X133670847Y-86308012D01*
X133440068Y-86383281D01*
X133285667Y-86418349D01*
X133075240Y-86476899D01*
X132973915Y-86545920D01*
X132978075Y-86629743D01*
X133047052Y-86703947D01*
X133105377Y-86814616D01*
X133099693Y-86880191D01*
X133096956Y-86965164D01*
X133124759Y-86985111D01*
X133195747Y-87022148D01*
X133311066Y-87116418D01*
X133380279Y-87182264D01*
X133568860Y-87435828D01*
X133660499Y-87712519D01*
X133649057Y-87991353D01*
X133633342Y-88047119D01*
X133539292Y-88268855D01*
X133400930Y-88512616D01*
X133234216Y-88758226D01*
X133055109Y-88985509D01*
X132879569Y-89174290D01*
X132723557Y-89304395D01*
X132603032Y-89355647D01*
X132598106Y-89355778D01*
X132465017Y-89307276D01*
X132302687Y-89175781D01*
X132125759Y-88982309D01*
X131948878Y-88747875D01*
X131786688Y-88493496D01*
X131653834Y-88240188D01*
X131564961Y-88008966D01*
X131534606Y-87829579D01*
X131579937Y-87561364D01*
X131701223Y-87307633D01*
X131876403Y-87111538D01*
X131916459Y-87082708D01*
X132049005Y-86965396D01*
X132094735Y-86829235D01*
X132095630Y-86800916D01*
X132089606Y-86701433D01*
X132051449Y-86657395D01*
X131951031Y-86652800D01*
X131836926Y-86663506D01*
X131701587Y-86675291D01*
X131475350Y-86692420D01*
X131179996Y-86713354D01*
X130837307Y-86736557D01*
X130469063Y-86760490D01*
X130407000Y-86764425D01*
X129235778Y-86838413D01*
X129235778Y-87131421D01*
X129241033Y-87305369D01*
X129266407Y-87398882D01*
X129326313Y-87444267D01*
X129382972Y-87461372D01*
X129489139Y-87509471D01*
X129509387Y-87600313D01*
X129503852Y-87635964D01*
X129508270Y-87745290D01*
X129586963Y-87834094D01*
X129658764Y-87880539D01*
X129810020Y-88016845D01*
X129948335Y-88219237D01*
X130047575Y-88441687D01*
X130081893Y-88625710D01*
X130042629Y-88817688D01*
X129932885Y-89069345D01*
X129762855Y-89361393D01*
X129542733Y-89674548D01*
X129494567Y-89736778D01*
X129297712Y-89970408D01*
X129138657Y-90108640D01*
X128999180Y-90154084D01*
X128861058Y-90109349D01*
X128706066Y-89977043D01*
X128603909Y-89864283D01*
X128321129Y-89504506D01*
X128111141Y-89168474D01*
X127981011Y-88869320D01*
X127937766Y-88625879D01*
X127991494Y-88317424D01*
X128149069Y-88049047D01*
X128329292Y-87881792D01*
X128463717Y-87740787D01*
X128502000Y-87618323D01*
X128544118Y-87493339D01*
X128614889Y-87453022D01*
X128682903Y-87416813D01*
X128716936Y-87334451D01*
X128727540Y-87175886D01*
X128727778Y-87131512D01*
X128727778Y-86839523D01*
X127613000Y-86767813D01*
X127245925Y-86743652D01*
X126895720Y-86719600D01*
X126586310Y-86697374D01*
X126341617Y-86678694D01*
X126185562Y-86665278D01*
X126185083Y-86665231D01*
X125871945Y-86634359D01*
X125874639Y-86795545D01*
X125922503Y-86955836D01*
X126041477Y-87069699D01*
X126280276Y-87290080D01*
X126418460Y-87557048D01*
X126454622Y-87734421D01*
X126460712Y-87900988D01*
X126429025Y-88054604D01*
X126348186Y-88240126D01*
X126305715Y-88321761D01*
X126178501Y-88536454D01*
X126021740Y-88766347D01*
X125855307Y-88985754D01*
X125699078Y-89168990D01*
X125572928Y-89290369D01*
X125537373Y-89314729D01*
X125410519Y-89343114D01*
X125319905Y-89334360D01*
X125209367Y-89267375D01*
X125060545Y-89123607D01*
X124890940Y-88924418D01*
X124718053Y-88691167D01*
X124559385Y-88445214D01*
X124488326Y-88319424D01*
X124387665Y-88112319D01*
X124340343Y-87952455D01*
X124334932Y-87794608D01*
X124340489Y-87734421D01*
X124423881Y-87436399D01*
X124604252Y-87191040D01*
X124754590Y-87069778D01*
X124875792Y-86951979D01*
X124899329Y-86852116D01*
X124911684Y-86732857D01*
X124940707Y-86685605D01*
X124996877Y-86598469D01*
X124965833Y-86525664D01*
X124838984Y-86459357D01*
X124622333Y-86395355D01*
X124357154Y-86313399D01*
X124200488Y-86228692D01*
X124153639Y-86142583D01*
X124217910Y-86056422D01*
X124266222Y-86026864D01*
X124361800Y-86003473D01*
X124517753Y-86011372D01*
X124753659Y-86052201D01*
X124873000Y-86077723D01*
X125689167Y-86229055D01*
X126584007Y-86342230D01*
X127534809Y-86417333D01*
X128518860Y-86454448D01*
X129513449Y-86453660D01*
X130495867Y-86415052D01*
X131443400Y-86338708D01*
X132333339Y-86224713D01*
X133142972Y-86073150D01*
X133258218Y-86046678D01*
X133475665Y-86000858D01*
X133612940Y-85988457D01*
X133697319Y-86008276D01*
X133723884Y-86026197D01*
X133809847Y-86132072D01*
X134024257Y-86132072D01*
X134025100Y-86122110D01*
X133951054Y-85979749D01*
X133798648Y-85864419D01*
X133733643Y-85836978D01*
X133641037Y-85833810D01*
X133463317Y-85851766D01*
X133225590Y-85887567D01*
X132952960Y-85937933D01*
X132938309Y-85940886D01*
X132094250Y-86084510D01*
X131182573Y-86190327D01*
X130225478Y-86258432D01*
X129245167Y-86288920D01*
X128263842Y-86281886D01*
X127303703Y-86237425D01*
X126386954Y-86155631D01*
X125535795Y-86036601D01*
X124881490Y-85906456D01*
X124639568Y-85853068D01*
X124475492Y-85827208D01*
X124357983Y-85827485D01*
G36*
X131719939Y-92181382D02*
G01*
X131673235Y-92269975D01*
X131717294Y-92364599D01*
X131764575Y-92397783D01*
X131892354Y-92422397D01*
X131974707Y-92381531D01*
X132049003Y-92281826D01*
X132029115Y-92188919D01*
X131931052Y-92134139D01*
X131847137Y-92131887D01*
X131719939Y-92181382D01*
G37*
X131719939Y-92181382D02*
X131673235Y-92269975D01*
X131717294Y-92364599D01*
X131764575Y-92397783D01*
X131892354Y-92422397D01*
X131974707Y-92381531D01*
X132049003Y-92281826D01*
X132029115Y-92188919D01*
X131931052Y-92134139D01*
X131847137Y-92131887D01*
X131719939Y-92181382D01*
G36*
X125217190Y-92737509D02*
G01*
X125178836Y-92864346D01*
X125181492Y-92931444D01*
X125203423Y-93119298D01*
X125025713Y-92930872D01*
X124854545Y-92789550D01*
X124688034Y-92742574D01*
X124678135Y-92742445D01*
X124533354Y-92765672D01*
X124429974Y-92848556D01*
X124350888Y-93010898D01*
X124301987Y-93177835D01*
X124243696Y-93346160D01*
X124178567Y-93441526D01*
X124152141Y-93453310D01*
X124031364Y-93469147D01*
X124005249Y-93504036D01*
X124042889Y-93560889D01*
X124158465Y-93627555D01*
X124313270Y-93641538D01*
X124449949Y-93601587D01*
X124486402Y-93570580D01*
X124537874Y-93468620D01*
X124586229Y-93311611D01*
X124594555Y-93274545D01*
X124647546Y-93119303D01*
X124718549Y-93039734D01*
X124729777Y-93036290D01*
X124801214Y-93069414D01*
X124913811Y-93167023D01*
X125043003Y-93301817D01*
X125164226Y-93446498D01*
X125252914Y-93573768D01*
X125284667Y-93652929D01*
X125329233Y-93692304D01*
X125424406Y-93699677D01*
X125512390Y-93674571D01*
X125532842Y-93654981D01*
X125549102Y-93562056D01*
X125545479Y-93397064D01*
X125526485Y-93196199D01*
X125496632Y-92995653D01*
X125460430Y-92831616D01*
X125422391Y-92740283D01*
X125418321Y-92736256D01*
X125303944Y-92689104D01*
X125217190Y-92737509D01*
G37*
X125217190Y-92737509D02*
X125178836Y-92864346D01*
X125181492Y-92931444D01*
X125203423Y-93119298D01*
X125025713Y-92930872D01*
X124854545Y-92789550D01*
X124688034Y-92742574D01*
X124678135Y-92742445D01*
X124533354Y-92765672D01*
X124429974Y-92848556D01*
X124350888Y-93010898D01*
X124301987Y-93177835D01*
X124243696Y-93346160D01*
X124178567Y-93441526D01*
X124152141Y-93453310D01*
X124031364Y-93469147D01*
X124005249Y-93504036D01*
X124042889Y-93560889D01*
X124158465Y-93627555D01*
X124313270Y-93641538D01*
X124449949Y-93601587D01*
X124486402Y-93570580D01*
X124537874Y-93468620D01*
X124586229Y-93311611D01*
X124594555Y-93274545D01*
X124647546Y-93119303D01*
X124718549Y-93039734D01*
X124729777Y-93036290D01*
X124801214Y-93069414D01*
X124913811Y-93167023D01*
X125043003Y-93301817D01*
X125164226Y-93446498D01*
X125252914Y-93573768D01*
X125284667Y-93652929D01*
X125329233Y-93692304D01*
X125424406Y-93699677D01*
X125512390Y-93674571D01*
X125532842Y-93654981D01*
X125549102Y-93562056D01*
X125545479Y-93397064D01*
X125526485Y-93196199D01*
X125496632Y-92995653D01*
X125460430Y-92831616D01*
X125422391Y-92740283D01*
X125418321Y-92736256D01*
X125303944Y-92689104D01*
X125217190Y-92737509D01*
G36*
X125869728Y-92659249D02*
G01*
X125705434Y-92768101D01*
X125588404Y-92952993D01*
X125579708Y-93157736D01*
X125679110Y-93371263D01*
X125719476Y-93423122D01*
X125928354Y-93610714D01*
X126161904Y-93721916D01*
X126394598Y-93749765D01*
X126600913Y-93687300D01*
X126626774Y-93670577D01*
X126728636Y-93537678D01*
X126753996Y-93356922D01*
X126750896Y-93342332D01*
X126462689Y-93342332D01*
X126445341Y-93470381D01*
X126443760Y-93473014D01*
X126350505Y-93528668D01*
X126208741Y-93506351D01*
X126057615Y-93418306D01*
X125943943Y-93304436D01*
X125877543Y-93194660D01*
X125875365Y-93052861D01*
X125938015Y-92926051D01*
X126041021Y-92858050D01*
X126067036Y-92855334D01*
X126192996Y-92903278D01*
X126315161Y-93023767D01*
X126412177Y-93181790D01*
X126462689Y-93342332D01*
X126750896Y-93342332D01*
X126711098Y-93155032D01*
X126608187Y-92958731D01*
X126453505Y-92794740D01*
X126333580Y-92720232D01*
X126080466Y-92639095D01*
X125869728Y-92659249D01*
G37*
X125869728Y-92659249D02*
X125705434Y-92768101D01*
X125588404Y-92952993D01*
X125579708Y-93157736D01*
X125679110Y-93371263D01*
X125719476Y-93423122D01*
X125928354Y-93610714D01*
X126161904Y-93721916D01*
X126394598Y-93749765D01*
X126600913Y-93687300D01*
X126626774Y-93670577D01*
X126728636Y-93537678D01*
X126753996Y-93356922D01*
X126750896Y-93342332D01*
X126462689Y-93342332D01*
X126445341Y-93470381D01*
X126443760Y-93473014D01*
X126350505Y-93528668D01*
X126208741Y-93506351D01*
X126057615Y-93418306D01*
X125943943Y-93304436D01*
X125877543Y-93194660D01*
X125875365Y-93052861D01*
X125938015Y-92926051D01*
X126041021Y-92858050D01*
X126067036Y-92855334D01*
X126192996Y-92903278D01*
X126315161Y-93023767D01*
X126412177Y-93181790D01*
X126462689Y-93342332D01*
X126750896Y-93342332D01*
X126711098Y-93155032D01*
X126608187Y-92958731D01*
X126453505Y-92794740D01*
X126333580Y-92720232D01*
X126080466Y-92639095D01*
X125869728Y-92659249D01*
G36*
X128586187Y-92304542D02*
G01*
X128562150Y-92367102D01*
X128575257Y-92485516D01*
X128606841Y-92680144D01*
X128342754Y-92697338D01*
X128144413Y-92691931D01*
X127965466Y-92657700D01*
X127919850Y-92640513D01*
X127744868Y-92589074D01*
X127573358Y-92585856D01*
X127440728Y-92626924D01*
X127383546Y-92700111D01*
X127395521Y-92770629D01*
X127484637Y-92797175D01*
X127542016Y-92798889D01*
X127742784Y-92823082D01*
X127874589Y-92884786D01*
X127927503Y-92967693D01*
X127891596Y-93055493D01*
X127756938Y-93131875D01*
X127746825Y-93135303D01*
X127561739Y-93224487D01*
X127434254Y-93340528D01*
X127386003Y-93460784D01*
X127393694Y-93504891D01*
X127482550Y-93599580D01*
X127648472Y-93678345D01*
X127855994Y-93734227D01*
X128069649Y-93760270D01*
X128253971Y-93749514D01*
X128371762Y-93696771D01*
X128459283Y-93664135D01*
X128548674Y-93696771D01*
X128757097Y-93755166D01*
X128957403Y-93718770D01*
X129071336Y-93640664D01*
X129158552Y-93498599D01*
X129156002Y-93386664D01*
X129149744Y-93360908D01*
X128826883Y-93360908D01*
X128805026Y-93486110D01*
X128716592Y-93522919D01*
X128557928Y-93475177D01*
X128498183Y-93446026D01*
X128381470Y-93392726D01*
X128325036Y-93397333D01*
X128297391Y-93446026D01*
X128223068Y-93502550D01*
X128083543Y-93530418D01*
X127923519Y-93526761D01*
X127787697Y-93488713D01*
X127771967Y-93479731D01*
X127748756Y-93437739D01*
X127808481Y-93381394D01*
X127962898Y-93299799D01*
X127969523Y-93296655D01*
X128140951Y-93203864D01*
X128230790Y-93117456D01*
X128265567Y-93011336D01*
X128266388Y-93004595D01*
X128293981Y-92892822D01*
X128358533Y-92867474D01*
X128407499Y-92877320D01*
X128552291Y-92904989D01*
X128626824Y-92911007D01*
X128712157Y-92964876D01*
X128781318Y-93127209D01*
X128785815Y-93143472D01*
X128826883Y-93360908D01*
X129149744Y-93360908D01*
X129115222Y-93218827D01*
X129091216Y-93119966D01*
X129092720Y-93009679D01*
X129180667Y-92934843D01*
X129204105Y-92923620D01*
X129323354Y-92848998D01*
X129330462Y-92785708D01*
X129225713Y-92734842D01*
X129150773Y-92717883D01*
X128997524Y-92664273D01*
X128902085Y-92551670D01*
X128871431Y-92485824D01*
X128783618Y-92340011D01*
X128675798Y-92291096D01*
X128666828Y-92290889D01*
X128586187Y-92304542D01*
G37*
X128586187Y-92304542D02*
X128562150Y-92367102D01*
X128575257Y-92485516D01*
X128606841Y-92680144D01*
X128342754Y-92697338D01*
X128144413Y-92691931D01*
X127965466Y-92657700D01*
X127919850Y-92640513D01*
X127744868Y-92589074D01*
X127573358Y-92585856D01*
X127440728Y-92626924D01*
X127383546Y-92700111D01*
X127395521Y-92770629D01*
X127484637Y-92797175D01*
X127542016Y-92798889D01*
X127742784Y-92823082D01*
X127874589Y-92884786D01*
X127927503Y-92967693D01*
X127891596Y-93055493D01*
X127756938Y-93131875D01*
X127746825Y-93135303D01*
X127561739Y-93224487D01*
X127434254Y-93340528D01*
X127386003Y-93460784D01*
X127393694Y-93504891D01*
X127482550Y-93599580D01*
X127648472Y-93678345D01*
X127855994Y-93734227D01*
X128069649Y-93760270D01*
X128253971Y-93749514D01*
X128371762Y-93696771D01*
X128459283Y-93664135D01*
X128548674Y-93696771D01*
X128757097Y-93755166D01*
X128957403Y-93718770D01*
X129071336Y-93640664D01*
X129158552Y-93498599D01*
X129156002Y-93386664D01*
X129149744Y-93360908D01*
X128826883Y-93360908D01*
X128805026Y-93486110D01*
X128716592Y-93522919D01*
X128557928Y-93475177D01*
X128498183Y-93446026D01*
X128381470Y-93392726D01*
X128325036Y-93397333D01*
X128297391Y-93446026D01*
X128223068Y-93502550D01*
X128083543Y-93530418D01*
X127923519Y-93526761D01*
X127787697Y-93488713D01*
X127771967Y-93479731D01*
X127748756Y-93437739D01*
X127808481Y-93381394D01*
X127962898Y-93299799D01*
X127969523Y-93296655D01*
X128140951Y-93203864D01*
X128230790Y-93117456D01*
X128265567Y-93011336D01*
X128266388Y-93004595D01*
X128293981Y-92892822D01*
X128358533Y-92867474D01*
X128407499Y-92877320D01*
X128552291Y-92904989D01*
X128626824Y-92911007D01*
X128712157Y-92964876D01*
X128781318Y-93127209D01*
X128785815Y-93143472D01*
X128826883Y-93360908D01*
X129149744Y-93360908D01*
X129115222Y-93218827D01*
X129091216Y-93119966D01*
X129092720Y-93009679D01*
X129180667Y-92934843D01*
X129204105Y-92923620D01*
X129323354Y-92848998D01*
X129330462Y-92785708D01*
X129225713Y-92734842D01*
X129150773Y-92717883D01*
X128997524Y-92664273D01*
X128902085Y-92551670D01*
X128871431Y-92485824D01*
X128783618Y-92340011D01*
X128675798Y-92291096D01*
X128666828Y-92290889D01*
X128586187Y-92304542D01*
G36*
X130165478Y-92101771D02*
G01*
X130102109Y-92183368D01*
X130085724Y-92349270D01*
X130116296Y-92581147D01*
X130166500Y-92775807D01*
X130223700Y-92970623D01*
X130240860Y-93066998D01*
X130211269Y-93074345D01*
X130128218Y-93002079D01*
X130056147Y-92930636D01*
X129910803Y-92805000D01*
X129786082Y-92753961D01*
X129680839Y-92752836D01*
X129580307Y-92773939D01*
X129500335Y-92826095D01*
X129430907Y-92926560D01*
X129362010Y-93092589D01*
X129283631Y-93341436D01*
X129230215Y-93529315D01*
X129248259Y-93604919D01*
X129332637Y-93631918D01*
X129446181Y-93606776D01*
X129522200Y-93557088D01*
X129607530Y-93424705D01*
X129631753Y-93312252D01*
X129659020Y-93140913D01*
X129730006Y-93046491D01*
X129820872Y-93042173D01*
X129896732Y-93101240D01*
X130015647Y-93225986D01*
X130153802Y-93391133D01*
X130174293Y-93417287D01*
X130349265Y-93624316D01*
X130479069Y-93733951D01*
X130569424Y-93749567D01*
X130623231Y-93682237D01*
X130624752Y-93597447D01*
X130605486Y-93429731D01*
X130569096Y-93206372D01*
X130536793Y-93038371D01*
X130487835Y-92787342D01*
X130449140Y-92568409D01*
X130425739Y-92411214D01*
X130421111Y-92356610D01*
X130383565Y-92224383D01*
X130294004Y-92126041D01*
X130187042Y-92096091D01*
X130165478Y-92101771D01*
G37*
X130165478Y-92101771D02*
X130102109Y-92183368D01*
X130085724Y-92349270D01*
X130116296Y-92581147D01*
X130166500Y-92775807D01*
X130223700Y-92970623D01*
X130240860Y-93066998D01*
X130211269Y-93074345D01*
X130128218Y-93002079D01*
X130056147Y-92930636D01*
X129910803Y-92805000D01*
X129786082Y-92753961D01*
X129680839Y-92752836D01*
X129580307Y-92773939D01*
X129500335Y-92826095D01*
X129430907Y-92926560D01*
X129362010Y-93092589D01*
X129283631Y-93341436D01*
X129230215Y-93529315D01*
X129248259Y-93604919D01*
X129332637Y-93631918D01*
X129446181Y-93606776D01*
X129522200Y-93557088D01*
X129607530Y-93424705D01*
X129631753Y-93312252D01*
X129659020Y-93140913D01*
X129730006Y-93046491D01*
X129820872Y-93042173D01*
X129896732Y-93101240D01*
X130015647Y-93225986D01*
X130153802Y-93391133D01*
X130174293Y-93417287D01*
X130349265Y-93624316D01*
X130479069Y-93733951D01*
X130569424Y-93749567D01*
X130623231Y-93682237D01*
X130624752Y-93597447D01*
X130605486Y-93429731D01*
X130569096Y-93206372D01*
X130536793Y-93038371D01*
X130487835Y-92787342D01*
X130449140Y-92568409D01*
X130425739Y-92411214D01*
X130421111Y-92356610D01*
X130383565Y-92224383D01*
X130294004Y-92126041D01*
X130187042Y-92096091D01*
X130165478Y-92101771D01*
G36*
X133297550Y-92298857D02*
G01*
X133217562Y-92343367D01*
X133211930Y-92418900D01*
X133223747Y-92577934D01*
X133250512Y-92792858D01*
X133269625Y-92918270D01*
X133304928Y-93145817D01*
X133330058Y-93326080D01*
X133341660Y-93433946D01*
X133341060Y-93453314D01*
X133282863Y-93455656D01*
X133138379Y-93451197D01*
X132933943Y-93440892D01*
X132833175Y-93434841D01*
X132595767Y-93418193D01*
X132447628Y-93399389D01*
X132365288Y-93370500D01*
X132325274Y-93323596D01*
X132305403Y-93256541D01*
X132245859Y-92998393D01*
X132200179Y-92831966D01*
X132159455Y-92738412D01*
X132114781Y-92698883D01*
X132057247Y-92694531D01*
X132040766Y-92696595D01*
X131983018Y-92708173D01*
X131947173Y-92736265D01*
X131931581Y-92800468D01*
X131934591Y-92920380D01*
X131954550Y-93115596D01*
X131984589Y-93363334D01*
X132013908Y-93563927D01*
X132047416Y-93677928D01*
X132096766Y-93731389D01*
X132156778Y-93748259D01*
X132256523Y-93737085D01*
X132283778Y-93697571D01*
X132313883Y-93664898D01*
X132414535Y-93651052D01*
X132601236Y-93655072D01*
X132777667Y-93666933D01*
X133027348Y-93688354D01*
X133255504Y-93711709D01*
X133422461Y-93732827D01*
X133454350Y-93738043D01*
X133598228Y-93745302D01*
X133666168Y-93694647D01*
X133669371Y-93687084D01*
X133673071Y-93603435D01*
X133661509Y-93437452D01*
X133638498Y-93218069D01*
X133607851Y-92974216D01*
X133573380Y-92734828D01*
X133538898Y-92528837D01*
X133508216Y-92385173D01*
X133491607Y-92338067D01*
X133411894Y-92296574D01*
X133297550Y-92298857D01*
G37*
X133297550Y-92298857D02*
X133217562Y-92343367D01*
X133211930Y-92418900D01*
X133223747Y-92577934D01*
X133250512Y-92792858D01*
X133269625Y-92918270D01*
X133304928Y-93145817D01*
X133330058Y-93326080D01*
X133341660Y-93433946D01*
X133341060Y-93453314D01*
X133282863Y-93455656D01*
X133138379Y-93451197D01*
X132933943Y-93440892D01*
X132833175Y-93434841D01*
X132595767Y-93418193D01*
X132447628Y-93399389D01*
X132365288Y-93370500D01*
X132325274Y-93323596D01*
X132305403Y-93256541D01*
X132245859Y-92998393D01*
X132200179Y-92831966D01*
X132159455Y-92738412D01*
X132114781Y-92698883D01*
X132057247Y-92694531D01*
X132040766Y-92696595D01*
X131983018Y-92708173D01*
X131947173Y-92736265D01*
X131931581Y-92800468D01*
X131934591Y-92920380D01*
X131954550Y-93115596D01*
X131984589Y-93363334D01*
X132013908Y-93563927D01*
X132047416Y-93677928D01*
X132096766Y-93731389D01*
X132156778Y-93748259D01*
X132256523Y-93737085D01*
X132283778Y-93697571D01*
X132313883Y-93664898D01*
X132414535Y-93651052D01*
X132601236Y-93655072D01*
X132777667Y-93666933D01*
X133027348Y-93688354D01*
X133255504Y-93711709D01*
X133422461Y-93732827D01*
X133454350Y-93738043D01*
X133598228Y-93745302D01*
X133666168Y-93694647D01*
X133669371Y-93687084D01*
X133673071Y-93603435D01*
X133661509Y-93437452D01*
X133638498Y-93218069D01*
X133607851Y-92974216D01*
X133573380Y-92734828D01*
X133538898Y-92528837D01*
X133508216Y-92385173D01*
X133491607Y-92338067D01*
X133411894Y-92296574D01*
X133297550Y-92298857D01*
G36*
X130730682Y-92686332D02*
G01*
X130622434Y-92748021D01*
X130599144Y-92842687D01*
X130607244Y-92898651D01*
X130631745Y-93032887D01*
X130667291Y-93233875D01*
X130704442Y-93448000D01*
X130750337Y-93671679D01*
X130804126Y-93871097D01*
X130851670Y-93997378D01*
X131002020Y-94174654D01*
X131219511Y-94283665D01*
X131476320Y-94317186D01*
X131744626Y-94267993D01*
X131804022Y-94244662D01*
X131968477Y-94149786D01*
X132072955Y-94043739D01*
X132096663Y-93949231D01*
X132089428Y-93932965D01*
X132017092Y-93917838D01*
X131867055Y-93959032D01*
X131797667Y-93986937D01*
X131530379Y-94075216D01*
X131329733Y-94077417D01*
X131185795Y-93990410D01*
X131088634Y-93811068D01*
X131072420Y-93758445D01*
X131031953Y-93612984D01*
X131008036Y-93526562D01*
X131011768Y-93483651D01*
X131071175Y-93488876D01*
X131204198Y-93545766D01*
X131270893Y-93578252D01*
X131518446Y-93670803D01*
X131706468Y-93676645D01*
X131829209Y-93596942D01*
X131878902Y-93454885D01*
X131876193Y-93407919D01*
X131550000Y-93407919D01*
X131508000Y-93452516D01*
X131397273Y-93436340D01*
X131240727Y-93364545D01*
X131172922Y-93323054D01*
X131039700Y-93208883D01*
X130943078Y-93077274D01*
X130901848Y-92959734D01*
X130919724Y-92898587D01*
X131007167Y-92882325D01*
X131136491Y-92935041D01*
X131281560Y-93035614D01*
X131416239Y-93162923D01*
X131514392Y-93295848D01*
X131550000Y-93407919D01*
X131876193Y-93407919D01*
X131872752Y-93348288D01*
X131816811Y-93239363D01*
X131694428Y-93100404D01*
X131624512Y-93031525D01*
X131358355Y-92818855D01*
X131097359Y-92692713D01*
X130857597Y-92659306D01*
X130730682Y-92686332D01*
G37*
X130730682Y-92686332D02*
X130622434Y-92748021D01*
X130599144Y-92842687D01*
X130607244Y-92898651D01*
X130631745Y-93032887D01*
X130667291Y-93233875D01*
X130704442Y-93448000D01*
X130750337Y-93671679D01*
X130804126Y-93871097D01*
X130851670Y-93997378D01*
X131002020Y-94174654D01*
X131219511Y-94283665D01*
X131476320Y-94317186D01*
X131744626Y-94267993D01*
X131804022Y-94244662D01*
X131968477Y-94149786D01*
X132072955Y-94043739D01*
X132096663Y-93949231D01*
X132089428Y-93932965D01*
X132017092Y-93917838D01*
X131867055Y-93959032D01*
X131797667Y-93986937D01*
X131530379Y-94075216D01*
X131329733Y-94077417D01*
X131185795Y-93990410D01*
X131088634Y-93811068D01*
X131072420Y-93758445D01*
X131031953Y-93612984D01*
X131008036Y-93526562D01*
X131011768Y-93483651D01*
X131071175Y-93488876D01*
X131204198Y-93545766D01*
X131270893Y-93578252D01*
X131518446Y-93670803D01*
X131706468Y-93676645D01*
X131829209Y-93596942D01*
X131878902Y-93454885D01*
X131876193Y-93407919D01*
X131550000Y-93407919D01*
X131508000Y-93452516D01*
X131397273Y-93436340D01*
X131240727Y-93364545D01*
X131172922Y-93323054D01*
X131039700Y-93208883D01*
X130943078Y-93077274D01*
X130901848Y-92959734D01*
X130919724Y-92898587D01*
X131007167Y-92882325D01*
X131136491Y-92935041D01*
X131281560Y-93035614D01*
X131416239Y-93162923D01*
X131514392Y-93295848D01*
X131550000Y-93407919D01*
X131876193Y-93407919D01*
X131872752Y-93348288D01*
X131816811Y-93239363D01*
X131694428Y-93100404D01*
X131624512Y-93031525D01*
X131358355Y-92818855D01*
X131097359Y-92692713D01*
X130857597Y-92659306D01*
X130730682Y-92686332D01*
G36*
X135124848Y-94857341D02*
G01*
X135066319Y-94928411D01*
X135108052Y-95030917D01*
X135210141Y-95094907D01*
X135336541Y-95109917D01*
X135436341Y-95074257D01*
X135458535Y-95042556D01*
X135463224Y-94916133D01*
X135372903Y-94843916D01*
X135273961Y-94830889D01*
X135124848Y-94857341D01*
G37*
X135124848Y-94857341D02*
X135066319Y-94928411D01*
X135108052Y-95030917D01*
X135210141Y-95094907D01*
X135336541Y-95109917D01*
X135436341Y-95074257D01*
X135458535Y-95042556D01*
X135463224Y-94916133D01*
X135372903Y-94843916D01*
X135273961Y-94830889D01*
X135124848Y-94857341D01*
G36*
X120166885Y-95319882D02*
G01*
X120089520Y-95369154D01*
X120005529Y-95473331D01*
X119978889Y-95549535D01*
X120026220Y-95663562D01*
X120148372Y-95794849D01*
X120315584Y-95918153D01*
X120498095Y-96008232D01*
X120533496Y-96019944D01*
X120676663Y-96071524D01*
X120725589Y-96118496D01*
X120705352Y-96166147D01*
X120635412Y-96224700D01*
X120544940Y-96232863D01*
X120407224Y-96187292D01*
X120241378Y-96108021D01*
X120082968Y-96040055D01*
X119973517Y-96016622D01*
X119943676Y-96027533D01*
X119952772Y-96108148D01*
X120036943Y-96212568D01*
X120169154Y-96316459D01*
X120322370Y-96395486D01*
X120369809Y-96411105D01*
X120571323Y-96456720D01*
X120713029Y-96456255D01*
X120838604Y-96408737D01*
X120853778Y-96400330D01*
X120974250Y-96311757D01*
X121033125Y-96197831D01*
X121050286Y-96017623D01*
X121050469Y-95995471D01*
X121012936Y-95822997D01*
X120679507Y-95822997D01*
X120631421Y-95848626D01*
X120528056Y-95809467D01*
X120391259Y-95710580D01*
X120299102Y-95612648D01*
X120270065Y-95541549D01*
X120274984Y-95532078D01*
X120357201Y-95519233D01*
X120476885Y-95566636D01*
X120593432Y-95652993D01*
X120654725Y-95731203D01*
X120679507Y-95822997D01*
X121012936Y-95822997D01*
X121007250Y-95796873D01*
X120891475Y-95612511D01*
X120726347Y-95457507D01*
X120535070Y-95346985D01*
X120340848Y-95296069D01*
X120166885Y-95319882D01*
G37*
X120166885Y-95319882D02*
X120089520Y-95369154D01*
X120005529Y-95473331D01*
X119978889Y-95549535D01*
X120026220Y-95663562D01*
X120148372Y-95794849D01*
X120315584Y-95918153D01*
X120498095Y-96008232D01*
X120533496Y-96019944D01*
X120676663Y-96071524D01*
X120725589Y-96118496D01*
X120705352Y-96166147D01*
X120635412Y-96224700D01*
X120544940Y-96232863D01*
X120407224Y-96187292D01*
X120241378Y-96108021D01*
X120082968Y-96040055D01*
X119973517Y-96016622D01*
X119943676Y-96027533D01*
X119952772Y-96108148D01*
X120036943Y-96212568D01*
X120169154Y-96316459D01*
X120322370Y-96395486D01*
X120369809Y-96411105D01*
X120571323Y-96456720D01*
X120713029Y-96456255D01*
X120838604Y-96408737D01*
X120853778Y-96400330D01*
X120974250Y-96311757D01*
X121033125Y-96197831D01*
X121050286Y-96017623D01*
X121050469Y-95995471D01*
X121012936Y-95822997D01*
X120679507Y-95822997D01*
X120631421Y-95848626D01*
X120528056Y-95809467D01*
X120391259Y-95710580D01*
X120299102Y-95612648D01*
X120270065Y-95541549D01*
X120274984Y-95532078D01*
X120357201Y-95519233D01*
X120476885Y-95566636D01*
X120593432Y-95652993D01*
X120654725Y-95731203D01*
X120679507Y-95822997D01*
X121012936Y-95822997D01*
X121007250Y-95796873D01*
X120891475Y-95612511D01*
X120726347Y-95457507D01*
X120535070Y-95346985D01*
X120340848Y-95296069D01*
X120166885Y-95319882D01*
G36*
X120864422Y-95390334D02*
G01*
X120842876Y-95452147D01*
X120903529Y-95533891D01*
X120976411Y-95595198D01*
X121097610Y-95707556D01*
X121255028Y-95877015D01*
X121417699Y-96069958D01*
X121442364Y-96101041D01*
X121585723Y-96270828D01*
X121712780Y-96398914D01*
X121801581Y-96463831D01*
X121817392Y-96467778D01*
X121888806Y-96417757D01*
X121979636Y-96282265D01*
X122048683Y-96143222D01*
X122166932Y-95839190D01*
X122223589Y-95600963D01*
X122217488Y-95437470D01*
X122151132Y-95358968D01*
X122042363Y-95368832D01*
X121949290Y-95461293D01*
X121898432Y-95606579D01*
X121895454Y-95646011D01*
X121871447Y-95782988D01*
X121823966Y-95923620D01*
X121755023Y-96085018D01*
X121484232Y-95740344D01*
X121278144Y-95510533D01*
X121099198Y-95377891D01*
X120952464Y-95345279D01*
X120864422Y-95390334D01*
G37*
X120864422Y-95390334D02*
X120842876Y-95452147D01*
X120903529Y-95533891D01*
X120976411Y-95595198D01*
X121097610Y-95707556D01*
X121255028Y-95877015D01*
X121417699Y-96069958D01*
X121442364Y-96101041D01*
X121585723Y-96270828D01*
X121712780Y-96398914D01*
X121801581Y-96463831D01*
X121817392Y-96467778D01*
X121888806Y-96417757D01*
X121979636Y-96282265D01*
X122048683Y-96143222D01*
X122166932Y-95839190D01*
X122223589Y-95600963D01*
X122217488Y-95437470D01*
X122151132Y-95358968D01*
X122042363Y-95368832D01*
X121949290Y-95461293D01*
X121898432Y-95606579D01*
X121895454Y-95646011D01*
X121871447Y-95782988D01*
X121823966Y-95923620D01*
X121755023Y-96085018D01*
X121484232Y-95740344D01*
X121278144Y-95510533D01*
X121099198Y-95377891D01*
X120952464Y-95345279D01*
X120864422Y-95390334D01*
G36*
X122826332Y-95026450D02*
G01*
X122801111Y-95092167D01*
X122773989Y-95207790D01*
X122702548Y-95389127D01*
X122601672Y-95605776D01*
X122486248Y-95827334D01*
X122371161Y-96023399D01*
X122284156Y-96148007D01*
X122177284Y-96303463D01*
X122155698Y-96399655D01*
X122169585Y-96423274D01*
X122279271Y-96462393D01*
X122419149Y-96419870D01*
X122558973Y-96309410D01*
X122631719Y-96213873D01*
X122716222Y-96099008D01*
X122811390Y-96036048D01*
X122944147Y-96019577D01*
X123141417Y-96044180D01*
X123308385Y-96077784D01*
X123544999Y-96156086D01*
X123680624Y-96269365D01*
X123681438Y-96270600D01*
X123805029Y-96406376D01*
X123929267Y-96432001D01*
X124013052Y-96391272D01*
X124053724Y-96347863D01*
X124051879Y-96289379D01*
X123998233Y-96194371D01*
X123883502Y-96041389D01*
X123835094Y-95980114D01*
X123744461Y-95863522D01*
X123378164Y-95863522D01*
X123195471Y-95826983D01*
X123045678Y-95801344D01*
X122939147Y-95790448D01*
X122938103Y-95790445D01*
X122893280Y-95766925D01*
X122903664Y-95679164D01*
X122922494Y-95621008D01*
X122983807Y-95478495D01*
X123045251Y-95435626D01*
X123124046Y-95492933D01*
X123223861Y-95630354D01*
X123378164Y-95863522D01*
X123744461Y-95863522D01*
X123660769Y-95755861D01*
X123476244Y-95511070D01*
X123337333Y-95320758D01*
X123213742Y-95156992D01*
X123107178Y-95032908D01*
X123041000Y-94975565D01*
X122921597Y-94969451D01*
X122826332Y-95026450D01*
G37*
X122826332Y-95026450D02*
X122801111Y-95092167D01*
X122773989Y-95207790D01*
X122702548Y-95389127D01*
X122601672Y-95605776D01*
X122486248Y-95827334D01*
X122371161Y-96023399D01*
X122284156Y-96148007D01*
X122177284Y-96303463D01*
X122155698Y-96399655D01*
X122169585Y-96423274D01*
X122279271Y-96462393D01*
X122419149Y-96419870D01*
X122558973Y-96309410D01*
X122631719Y-96213873D01*
X122716222Y-96099008D01*
X122811390Y-96036048D01*
X122944147Y-96019577D01*
X123141417Y-96044180D01*
X123308385Y-96077784D01*
X123544999Y-96156086D01*
X123680624Y-96269365D01*
X123681438Y-96270600D01*
X123805029Y-96406376D01*
X123929267Y-96432001D01*
X124013052Y-96391272D01*
X124053724Y-96347863D01*
X124051879Y-96289379D01*
X123998233Y-96194371D01*
X123883502Y-96041389D01*
X123835094Y-95980114D01*
X123744461Y-95863522D01*
X123378164Y-95863522D01*
X123195471Y-95826983D01*
X123045678Y-95801344D01*
X122939147Y-95790448D01*
X122938103Y-95790445D01*
X122893280Y-95766925D01*
X122903664Y-95679164D01*
X122922494Y-95621008D01*
X122983807Y-95478495D01*
X123045251Y-95435626D01*
X123124046Y-95492933D01*
X123223861Y-95630354D01*
X123378164Y-95863522D01*
X123744461Y-95863522D01*
X123660769Y-95755861D01*
X123476244Y-95511070D01*
X123337333Y-95320758D01*
X123213742Y-95156992D01*
X123107178Y-95032908D01*
X123041000Y-94975565D01*
X122921597Y-94969451D01*
X122826332Y-95026450D01*
G36*
X124844487Y-95304932D02*
G01*
X124723789Y-95395784D01*
X124674799Y-95545048D01*
X124710794Y-95723758D01*
X124853005Y-95876216D01*
X125096915Y-95998122D01*
X125179420Y-96025181D01*
X125341131Y-96087533D01*
X125390645Y-96144630D01*
X125328482Y-96197457D01*
X125279632Y-96215376D01*
X125137429Y-96210249D01*
X124929890Y-96131781D01*
X124885779Y-96109646D01*
X124700478Y-96030934D01*
X124589714Y-96018115D01*
X124561983Y-96064153D01*
X124625783Y-96162014D01*
X124718267Y-96248335D01*
X124945718Y-96390661D01*
X125172372Y-96452277D01*
X125380000Y-96440579D01*
X125550375Y-96362961D01*
X125665269Y-96226816D01*
X125706455Y-96039540D01*
X125674881Y-95860274D01*
X125662653Y-95779768D01*
X125328145Y-95779768D01*
X125315800Y-95838362D01*
X125235990Y-95837688D01*
X125114322Y-95782366D01*
X125034253Y-95726737D01*
X124935001Y-95627183D01*
X124933418Y-95556008D01*
X124941821Y-95546268D01*
X125020665Y-95536718D01*
X125136812Y-95586607D01*
X125251140Y-95672289D01*
X125324528Y-95770119D01*
X125328145Y-95779768D01*
X125662653Y-95779768D01*
X125648801Y-95688578D01*
X125706655Y-95589961D01*
X125804896Y-95565531D01*
X125887259Y-95608082D01*
X126002471Y-95718637D01*
X126126237Y-95867841D01*
X126234266Y-96026338D01*
X126302264Y-96164774D01*
X126303239Y-96167719D01*
X126391110Y-96356420D01*
X126496663Y-96459429D01*
X126605936Y-96466423D01*
X126658148Y-96430148D01*
X126678072Y-96355787D01*
X126690080Y-96203585D01*
X126694075Y-96008319D01*
X126689961Y-95804766D01*
X126677638Y-95627704D01*
X126660690Y-95524203D01*
X126589933Y-95413338D01*
X126477284Y-95354675D01*
X126367255Y-95367742D01*
X126344417Y-95385450D01*
X126316617Y-95484655D01*
X126349465Y-95623439D01*
X126412288Y-95803654D01*
X126160183Y-95571271D01*
X125937078Y-95402853D01*
X125748092Y-95341098D01*
X125591568Y-95385604D01*
X125548333Y-95421953D01*
X125484329Y-95466840D01*
X125405188Y-95461253D01*
X125274643Y-95400397D01*
X125238943Y-95381046D01*
X125020970Y-95298635D01*
X124844487Y-95304932D01*
G37*
X124844487Y-95304932D02*
X124723789Y-95395784D01*
X124674799Y-95545048D01*
X124710794Y-95723758D01*
X124853005Y-95876216D01*
X125096915Y-95998122D01*
X125179420Y-96025181D01*
X125341131Y-96087533D01*
X125390645Y-96144630D01*
X125328482Y-96197457D01*
X125279632Y-96215376D01*
X125137429Y-96210249D01*
X124929890Y-96131781D01*
X124885779Y-96109646D01*
X124700478Y-96030934D01*
X124589714Y-96018115D01*
X124561983Y-96064153D01*
X124625783Y-96162014D01*
X124718267Y-96248335D01*
X124945718Y-96390661D01*
X125172372Y-96452277D01*
X125380000Y-96440579D01*
X125550375Y-96362961D01*
X125665269Y-96226816D01*
X125706455Y-96039540D01*
X125674881Y-95860274D01*
X125662653Y-95779768D01*
X125328145Y-95779768D01*
X125315800Y-95838362D01*
X125235990Y-95837688D01*
X125114322Y-95782366D01*
X125034253Y-95726737D01*
X124935001Y-95627183D01*
X124933418Y-95556008D01*
X124941821Y-95546268D01*
X125020665Y-95536718D01*
X125136812Y-95586607D01*
X125251140Y-95672289D01*
X125324528Y-95770119D01*
X125328145Y-95779768D01*
X125662653Y-95779768D01*
X125648801Y-95688578D01*
X125706655Y-95589961D01*
X125804896Y-95565531D01*
X125887259Y-95608082D01*
X126002471Y-95718637D01*
X126126237Y-95867841D01*
X126234266Y-96026338D01*
X126302264Y-96164774D01*
X126303239Y-96167719D01*
X126391110Y-96356420D01*
X126496663Y-96459429D01*
X126605936Y-96466423D01*
X126658148Y-96430148D01*
X126678072Y-96355787D01*
X126690080Y-96203585D01*
X126694075Y-96008319D01*
X126689961Y-95804766D01*
X126677638Y-95627704D01*
X126660690Y-95524203D01*
X126589933Y-95413338D01*
X126477284Y-95354675D01*
X126367255Y-95367742D01*
X126344417Y-95385450D01*
X126316617Y-95484655D01*
X126349465Y-95623439D01*
X126412288Y-95803654D01*
X126160183Y-95571271D01*
X125937078Y-95402853D01*
X125748092Y-95341098D01*
X125591568Y-95385604D01*
X125548333Y-95421953D01*
X125484329Y-95466840D01*
X125405188Y-95461253D01*
X125274643Y-95400397D01*
X125238943Y-95381046D01*
X125020970Y-95298635D01*
X124844487Y-95304932D01*
G36*
X132441896Y-94763082D02*
G01*
X132405765Y-94832832D01*
X132412297Y-94948853D01*
X132449569Y-95099330D01*
X132533976Y-95417450D01*
X132597391Y-95699603D01*
X132635927Y-95925101D01*
X132645695Y-96073261D01*
X132639490Y-96109660D01*
X132577258Y-96177717D01*
X132495642Y-96153687D01*
X132415819Y-96050832D01*
X132373498Y-95943078D01*
X132307498Y-95800284D01*
X132001555Y-95800284D01*
X131960644Y-95844084D01*
X131858313Y-95827177D01*
X131731893Y-95759022D01*
X131640362Y-95665309D01*
X131607292Y-95572329D01*
X131640630Y-95514136D01*
X131673362Y-95508222D01*
X131758523Y-95544915D01*
X131869003Y-95630600D01*
X131963686Y-95728688D01*
X132001555Y-95800284D01*
X132307498Y-95800284D01*
X132266790Y-95712213D01*
X132102570Y-95518226D01*
X131904445Y-95376527D01*
X131696019Y-95302524D01*
X131500900Y-95311627D01*
X131443054Y-95335708D01*
X131340801Y-95438728D01*
X131328290Y-95573705D01*
X131394547Y-95721609D01*
X131528597Y-95863406D01*
X131719467Y-95980065D01*
X131840789Y-96025458D01*
X132002276Y-96087947D01*
X132051325Y-96145274D01*
X131988242Y-96198002D01*
X131943574Y-96214266D01*
X131813317Y-96210991D01*
X131625778Y-96149375D01*
X131562574Y-96120355D01*
X131405071Y-96049063D01*
X131290195Y-96007430D01*
X131255528Y-96002554D01*
X131225875Y-95959525D01*
X131194210Y-95835846D01*
X131177832Y-95734364D01*
X131123495Y-95501415D01*
X131036932Y-95374029D01*
X130919309Y-95353746D01*
X130895438Y-95361393D01*
X130835444Y-95415297D01*
X130830382Y-95529479D01*
X130839889Y-95588460D01*
X130875896Y-95780393D01*
X130654590Y-95559087D01*
X130522430Y-95434440D01*
X130416143Y-95370159D01*
X130289062Y-95348773D01*
X130102642Y-95352446D01*
X129772000Y-95367111D01*
X129793102Y-95844157D01*
X129579624Y-95619745D01*
X129387091Y-95454229D01*
X129226375Y-95395453D01*
X129219626Y-95395334D01*
X129096229Y-95416514D01*
X129019011Y-95495304D01*
X128970891Y-95654577D01*
X128955534Y-95748956D01*
X128925333Y-95961468D01*
X128727236Y-95692512D01*
X128588420Y-95524970D01*
X128468397Y-95436697D01*
X128349987Y-95406148D01*
X128219227Y-95412687D01*
X128130672Y-95475552D01*
X128069649Y-95613923D01*
X128023866Y-95832482D01*
X127986222Y-95990585D01*
X127942115Y-96087728D01*
X127903451Y-96109505D01*
X127882137Y-96041513D01*
X127880900Y-96005442D01*
X127842773Y-95827493D01*
X127518840Y-95827493D01*
X127468455Y-95844814D01*
X127337318Y-95799684D01*
X127257419Y-95760773D01*
X127143054Y-95678767D01*
X127091168Y-95596409D01*
X127090889Y-95591440D01*
X127124215Y-95515632D01*
X127210448Y-95517216D01*
X127328968Y-95587924D01*
X127459154Y-95719486D01*
X127481571Y-95748111D01*
X127518840Y-95827493D01*
X127842773Y-95827493D01*
X127837645Y-95803562D01*
X127723443Y-95618232D01*
X127560637Y-95463304D01*
X127371571Y-95352629D01*
X127178591Y-95300059D01*
X127004040Y-95319445D01*
X126894550Y-95393989D01*
X126822312Y-95491193D01*
X126824007Y-95577394D01*
X126868176Y-95667302D01*
X126966389Y-95778809D01*
X127125658Y-95898327D01*
X127233192Y-95959778D01*
X127391703Y-96039829D01*
X127504225Y-96097511D01*
X127538681Y-96115941D01*
X127527237Y-96161354D01*
X127496986Y-96197147D01*
X127429204Y-96225835D01*
X127312098Y-96206338D01*
X127132769Y-96139762D01*
X126937150Y-96061182D01*
X126823089Y-96025747D01*
X126768886Y-96030978D01*
X126752842Y-96074397D01*
X126752222Y-96096285D01*
X126801154Y-96182782D01*
X126926633Y-96281182D01*
X127096683Y-96372295D01*
X127279329Y-96436931D01*
X127341481Y-96449937D01*
X127566335Y-96442230D01*
X127683038Y-96388641D01*
X127818738Y-96328323D01*
X127934042Y-96353009D01*
X128059139Y-96386526D01*
X128127078Y-96378383D01*
X128207941Y-96298387D01*
X128279535Y-96147550D01*
X128324959Y-95967665D01*
X128332667Y-95870020D01*
X128349443Y-95748930D01*
X128402226Y-95725420D01*
X128494699Y-95801046D01*
X128630542Y-95977364D01*
X128648744Y-96003633D01*
X128774271Y-96168701D01*
X128890196Y-96291347D01*
X128970855Y-96344758D01*
X129111287Y-96325837D01*
X129201177Y-96210379D01*
X129235572Y-96005122D01*
X129235778Y-95984420D01*
X129246435Y-95828156D01*
X129273198Y-95725628D01*
X129286017Y-95709613D01*
X129343616Y-95734093D01*
X129440469Y-95829581D01*
X129525906Y-95936136D01*
X129699813Y-96170700D01*
X129821157Y-96326381D01*
X129903761Y-96415601D01*
X129961449Y-96450782D01*
X130008045Y-96444345D01*
X130054492Y-96411110D01*
X130110025Y-96342272D01*
X130131475Y-96237053D01*
X130124050Y-96062376D01*
X130118417Y-96005164D01*
X130103507Y-95817667D01*
X130113149Y-95709375D01*
X130154316Y-95647984D01*
X130202092Y-95617494D01*
X130292493Y-95589100D01*
X130382368Y-95623425D01*
X130490591Y-95714830D01*
X130613158Y-95861159D01*
X130737092Y-96057467D01*
X130794582Y-96171445D01*
X130903232Y-96369466D01*
X131002020Y-96455700D01*
X131092591Y-96430661D01*
X131176590Y-96294864D01*
X131178094Y-96291308D01*
X131241419Y-96178933D01*
X131290579Y-96177601D01*
X131295222Y-96184297D01*
X131379816Y-96256381D01*
X131530681Y-96339154D01*
X131705255Y-96413316D01*
X131860976Y-96459567D01*
X131916889Y-96466191D01*
X132049100Y-96441064D01*
X132183264Y-96387011D01*
X132339426Y-96336669D01*
X132499496Y-96368370D01*
X132688113Y-96401901D01*
X132825441Y-96348938D01*
X132888386Y-96241715D01*
X132917765Y-96157445D01*
X132962070Y-96140382D01*
X133047261Y-96193457D01*
X133140738Y-96270222D01*
X133282190Y-96351776D01*
X133455540Y-96403022D01*
X133622265Y-96418236D01*
X133743839Y-96391692D01*
X133773739Y-96364300D01*
X133844481Y-96337672D01*
X133963725Y-96340884D01*
X134101246Y-96337074D01*
X134195895Y-96265971D01*
X134262835Y-96110282D01*
X134297839Y-95959778D01*
X134348395Y-95788370D01*
X134411393Y-95709216D01*
X134427983Y-95705778D01*
X134499771Y-95747200D01*
X134616479Y-95856780D01*
X134755129Y-96012488D01*
X134781231Y-96044445D01*
X134923739Y-96206612D01*
X135051644Y-96326439D01*
X135140737Y-96381726D01*
X135150589Y-96383111D01*
X135199622Y-96369672D01*
X135226285Y-96314202D01*
X135234732Y-96193974D01*
X135229114Y-95986259D01*
X135227937Y-95959778D01*
X135200086Y-95671605D01*
X135146078Y-95489058D01*
X135063686Y-95407440D01*
X134969266Y-95414066D01*
X134901446Y-95491392D01*
X134880222Y-95596135D01*
X134880222Y-95744035D01*
X134706558Y-95597907D01*
X134514963Y-95485253D01*
X134326067Y-95457611D01*
X134168307Y-95517329D01*
X134133115Y-95550556D01*
X134068735Y-95668106D01*
X134016272Y-95838686D01*
X134006517Y-95889222D01*
X133964704Y-96056076D01*
X133914815Y-96122719D01*
X133864208Y-96084661D01*
X133862668Y-96080279D01*
X133525555Y-96080279D01*
X133491867Y-96169912D01*
X133401640Y-96177970D01*
X133271130Y-96109159D01*
X133116597Y-95968187D01*
X133108790Y-95959615D01*
X132973753Y-95800426D01*
X132915734Y-95698971D01*
X132928730Y-95636492D01*
X132993422Y-95599130D01*
X133120891Y-95604132D01*
X133267263Y-95684281D01*
X133402920Y-95812796D01*
X133498243Y-95962894D01*
X133525555Y-96080279D01*
X133862668Y-96080279D01*
X133832778Y-95995259D01*
X133774003Y-95880354D01*
X133660395Y-95732820D01*
X133577632Y-95645068D01*
X133404346Y-95499929D01*
X133235735Y-95424269D01*
X133090365Y-95397920D01*
X132927520Y-95372887D01*
X132838662Y-95325688D01*
X132785332Y-95224202D01*
X132751884Y-95115242D01*
X132669420Y-94894119D01*
X132579429Y-94764340D01*
X132489160Y-94734139D01*
X132441896Y-94763082D01*
G37*
X132441896Y-94763082D02*
X132405765Y-94832832D01*
X132412297Y-94948853D01*
X132449569Y-95099330D01*
X132533976Y-95417450D01*
X132597391Y-95699603D01*
X132635927Y-95925101D01*
X132645695Y-96073261D01*
X132639490Y-96109660D01*
X132577258Y-96177717D01*
X132495642Y-96153687D01*
X132415819Y-96050832D01*
X132373498Y-95943078D01*
X132307498Y-95800284D01*
X132001555Y-95800284D01*
X131960644Y-95844084D01*
X131858313Y-95827177D01*
X131731893Y-95759022D01*
X131640362Y-95665309D01*
X131607292Y-95572329D01*
X131640630Y-95514136D01*
X131673362Y-95508222D01*
X131758523Y-95544915D01*
X131869003Y-95630600D01*
X131963686Y-95728688D01*
X132001555Y-95800284D01*
X132307498Y-95800284D01*
X132266790Y-95712213D01*
X132102570Y-95518226D01*
X131904445Y-95376527D01*
X131696019Y-95302524D01*
X131500900Y-95311627D01*
X131443054Y-95335708D01*
X131340801Y-95438728D01*
X131328290Y-95573705D01*
X131394547Y-95721609D01*
X131528597Y-95863406D01*
X131719467Y-95980065D01*
X131840789Y-96025458D01*
X132002276Y-96087947D01*
X132051325Y-96145274D01*
X131988242Y-96198002D01*
X131943574Y-96214266D01*
X131813317Y-96210991D01*
X131625778Y-96149375D01*
X131562574Y-96120355D01*
X131405071Y-96049063D01*
X131290195Y-96007430D01*
X131255528Y-96002554D01*
X131225875Y-95959525D01*
X131194210Y-95835846D01*
X131177832Y-95734364D01*
X131123495Y-95501415D01*
X131036932Y-95374029D01*
X130919309Y-95353746D01*
X130895438Y-95361393D01*
X130835444Y-95415297D01*
X130830382Y-95529479D01*
X130839889Y-95588460D01*
X130875896Y-95780393D01*
X130654590Y-95559087D01*
X130522430Y-95434440D01*
X130416143Y-95370159D01*
X130289062Y-95348773D01*
X130102642Y-95352446D01*
X129772000Y-95367111D01*
X129793102Y-95844157D01*
X129579624Y-95619745D01*
X129387091Y-95454229D01*
X129226375Y-95395453D01*
X129219626Y-95395334D01*
X129096229Y-95416514D01*
X129019011Y-95495304D01*
X128970891Y-95654577D01*
X128955534Y-95748956D01*
X128925333Y-95961468D01*
X128727236Y-95692512D01*
X128588420Y-95524970D01*
X128468397Y-95436697D01*
X128349987Y-95406148D01*
X128219227Y-95412687D01*
X128130672Y-95475552D01*
X128069649Y-95613923D01*
X128023866Y-95832482D01*
X127986222Y-95990585D01*
X127942115Y-96087728D01*
X127903451Y-96109505D01*
X127882137Y-96041513D01*
X127880900Y-96005442D01*
X127842773Y-95827493D01*
X127518840Y-95827493D01*
X127468455Y-95844814D01*
X127337318Y-95799684D01*
X127257419Y-95760773D01*
X127143054Y-95678767D01*
X127091168Y-95596409D01*
X127090889Y-95591440D01*
X127124215Y-95515632D01*
X127210448Y-95517216D01*
X127328968Y-95587924D01*
X127459154Y-95719486D01*
X127481571Y-95748111D01*
X127518840Y-95827493D01*
X127842773Y-95827493D01*
X127837645Y-95803562D01*
X127723443Y-95618232D01*
X127560637Y-95463304D01*
X127371571Y-95352629D01*
X127178591Y-95300059D01*
X127004040Y-95319445D01*
X126894550Y-95393989D01*
X126822312Y-95491193D01*
X126824007Y-95577394D01*
X126868176Y-95667302D01*
X126966389Y-95778809D01*
X127125658Y-95898327D01*
X127233192Y-95959778D01*
X127391703Y-96039829D01*
X127504225Y-96097511D01*
X127538681Y-96115941D01*
X127527237Y-96161354D01*
X127496986Y-96197147D01*
X127429204Y-96225835D01*
X127312098Y-96206338D01*
X127132769Y-96139762D01*
X126937150Y-96061182D01*
X126823089Y-96025747D01*
X126768886Y-96030978D01*
X126752842Y-96074397D01*
X126752222Y-96096285D01*
X126801154Y-96182782D01*
X126926633Y-96281182D01*
X127096683Y-96372295D01*
X127279329Y-96436931D01*
X127341481Y-96449937D01*
X127566335Y-96442230D01*
X127683038Y-96388641D01*
X127818738Y-96328323D01*
X127934042Y-96353009D01*
X128059139Y-96386526D01*
X128127078Y-96378383D01*
X128207941Y-96298387D01*
X128279535Y-96147550D01*
X128324959Y-95967665D01*
X128332667Y-95870020D01*
X128349443Y-95748930D01*
X128402226Y-95725420D01*
X128494699Y-95801046D01*
X128630542Y-95977364D01*
X128648744Y-96003633D01*
X128774271Y-96168701D01*
X128890196Y-96291347D01*
X128970855Y-96344758D01*
X129111287Y-96325837D01*
X129201177Y-96210379D01*
X129235572Y-96005122D01*
X129235778Y-95984420D01*
X129246435Y-95828156D01*
X129273198Y-95725628D01*
X129286017Y-95709613D01*
X129343616Y-95734093D01*
X129440469Y-95829581D01*
X129525906Y-95936136D01*
X129699813Y-96170700D01*
X129821157Y-96326381D01*
X129903761Y-96415601D01*
X129961449Y-96450782D01*
X130008045Y-96444345D01*
X130054492Y-96411110D01*
X130110025Y-96342272D01*
X130131475Y-96237053D01*
X130124050Y-96062376D01*
X130118417Y-96005164D01*
X130103507Y-95817667D01*
X130113149Y-95709375D01*
X130154316Y-95647984D01*
X130202092Y-95617494D01*
X130292493Y-95589100D01*
X130382368Y-95623425D01*
X130490591Y-95714830D01*
X130613158Y-95861159D01*
X130737092Y-96057467D01*
X130794582Y-96171445D01*
X130903232Y-96369466D01*
X131002020Y-96455700D01*
X131092591Y-96430661D01*
X131176590Y-96294864D01*
X131178094Y-96291308D01*
X131241419Y-96178933D01*
X131290579Y-96177601D01*
X131295222Y-96184297D01*
X131379816Y-96256381D01*
X131530681Y-96339154D01*
X131705255Y-96413316D01*
X131860976Y-96459567D01*
X131916889Y-96466191D01*
X132049100Y-96441064D01*
X132183264Y-96387011D01*
X132339426Y-96336669D01*
X132499496Y-96368370D01*
X132688113Y-96401901D01*
X132825441Y-96348938D01*
X132888386Y-96241715D01*
X132917765Y-96157445D01*
X132962070Y-96140382D01*
X133047261Y-96193457D01*
X133140738Y-96270222D01*
X133282190Y-96351776D01*
X133455540Y-96403022D01*
X133622265Y-96418236D01*
X133743839Y-96391692D01*
X133773739Y-96364300D01*
X133844481Y-96337672D01*
X133963725Y-96340884D01*
X134101246Y-96337074D01*
X134195895Y-96265971D01*
X134262835Y-96110282D01*
X134297839Y-95959778D01*
X134348395Y-95788370D01*
X134411393Y-95709216D01*
X134427983Y-95705778D01*
X134499771Y-95747200D01*
X134616479Y-95856780D01*
X134755129Y-96012488D01*
X134781231Y-96044445D01*
X134923739Y-96206612D01*
X135051644Y-96326439D01*
X135140737Y-96381726D01*
X135150589Y-96383111D01*
X135199622Y-96369672D01*
X135226285Y-96314202D01*
X135234732Y-96193974D01*
X135229114Y-95986259D01*
X135227937Y-95959778D01*
X135200086Y-95671605D01*
X135146078Y-95489058D01*
X135063686Y-95407440D01*
X134969266Y-95414066D01*
X134901446Y-95491392D01*
X134880222Y-95596135D01*
X134880222Y-95744035D01*
X134706558Y-95597907D01*
X134514963Y-95485253D01*
X134326067Y-95457611D01*
X134168307Y-95517329D01*
X134133115Y-95550556D01*
X134068735Y-95668106D01*
X134016272Y-95838686D01*
X134006517Y-95889222D01*
X133964704Y-96056076D01*
X133914815Y-96122719D01*
X133864208Y-96084661D01*
X133862668Y-96080279D01*
X133525555Y-96080279D01*
X133491867Y-96169912D01*
X133401640Y-96177970D01*
X133271130Y-96109159D01*
X133116597Y-95968187D01*
X133108790Y-95959615D01*
X132973753Y-95800426D01*
X132915734Y-95698971D01*
X132928730Y-95636492D01*
X132993422Y-95599130D01*
X133120891Y-95604132D01*
X133267263Y-95684281D01*
X133402920Y-95812796D01*
X133498243Y-95962894D01*
X133525555Y-96080279D01*
X133862668Y-96080279D01*
X133832778Y-95995259D01*
X133774003Y-95880354D01*
X133660395Y-95732820D01*
X133577632Y-95645068D01*
X133404346Y-95499929D01*
X133235735Y-95424269D01*
X133090365Y-95397920D01*
X132927520Y-95372887D01*
X132838662Y-95325688D01*
X132785332Y-95224202D01*
X132751884Y-95115242D01*
X132669420Y-94894119D01*
X132579429Y-94764340D01*
X132489160Y-94734139D01*
X132441896Y-94763082D01*
G36*
X135353781Y-95413424D02*
G01*
X135305902Y-95480347D01*
X135322615Y-95615079D01*
X135363193Y-95742101D01*
X135414485Y-95933513D01*
X135436912Y-96113267D01*
X135435926Y-96158146D01*
X135449002Y-96329985D01*
X135508337Y-96440191D01*
X135593997Y-96474417D01*
X135686045Y-96418317D01*
X135722005Y-96364015D01*
X135758099Y-96225629D01*
X135754291Y-96152348D01*
X135731049Y-96038737D01*
X135695743Y-95860107D01*
X135668521Y-95719889D01*
X135627735Y-95535954D01*
X135585678Y-95438011D01*
X135526641Y-95400093D01*
X135472218Y-95395334D01*
X135353781Y-95413424D01*
G37*
X135353781Y-95413424D02*
X135305902Y-95480347D01*
X135322615Y-95615079D01*
X135363193Y-95742101D01*
X135414485Y-95933513D01*
X135436912Y-96113267D01*
X135435926Y-96158146D01*
X135449002Y-96329985D01*
X135508337Y-96440191D01*
X135593997Y-96474417D01*
X135686045Y-96418317D01*
X135722005Y-96364015D01*
X135758099Y-96225629D01*
X135754291Y-96152348D01*
X135731049Y-96038737D01*
X135695743Y-95860107D01*
X135668521Y-95719889D01*
X135627735Y-95535954D01*
X135585678Y-95438011D01*
X135526641Y-95400093D01*
X135472218Y-95395334D01*
X135353781Y-95413424D01*
G36*
X135709018Y-95019606D02*
G01*
X135681854Y-95089661D01*
X135695497Y-95237250D01*
X135758534Y-95449139D01*
X135858986Y-95694875D01*
X135984877Y-95944010D01*
X136079600Y-96100889D01*
X136228478Y-96296019D01*
X136357384Y-96384134D01*
X136478489Y-96364480D01*
X136603963Y-96236304D01*
X136712009Y-96061748D01*
X136889955Y-95740385D01*
X137153719Y-96104081D01*
X137330198Y-96324548D01*
X137470468Y-96443625D01*
X137582537Y-96463793D01*
X137674414Y-96387531D01*
X137729267Y-96282279D01*
X137791192Y-96110481D01*
X137857012Y-95890378D01*
X137919830Y-95650775D01*
X137972748Y-95420479D01*
X138008868Y-95228295D01*
X138021294Y-95103029D01*
X138017795Y-95077320D01*
X137943941Y-95007984D01*
X137836447Y-95020372D01*
X137765192Y-95077294D01*
X137724739Y-95166360D01*
X137674016Y-95334586D01*
X137622340Y-95549956D01*
X137609136Y-95613516D01*
X137561967Y-95823679D01*
X137516596Y-95983270D01*
X137480748Y-96066412D01*
X137472100Y-96072667D01*
X137421976Y-96028759D01*
X137329652Y-95912411D01*
X137213116Y-95746688D01*
X137185939Y-95705778D01*
X137042561Y-95507528D01*
X136922528Y-95380169D01*
X136844585Y-95338889D01*
X136755924Y-95392798D01*
X136641410Y-95555051D01*
X136553407Y-95717830D01*
X136362369Y-96096771D01*
X136232962Y-95844830D01*
X136138882Y-95636686D01*
X136046894Y-95394186D01*
X136010640Y-95282445D01*
X135944681Y-95095219D01*
X135881098Y-94998740D01*
X135808196Y-94972000D01*
X135709018Y-95019606D01*
G37*
X135709018Y-95019606D02*
X135681854Y-95089661D01*
X135695497Y-95237250D01*
X135758534Y-95449139D01*
X135858986Y-95694875D01*
X135984877Y-95944010D01*
X136079600Y-96100889D01*
X136228478Y-96296019D01*
X136357384Y-96384134D01*
X136478489Y-96364480D01*
X136603963Y-96236304D01*
X136712009Y-96061748D01*
X136889955Y-95740385D01*
X137153719Y-96104081D01*
X137330198Y-96324548D01*
X137470468Y-96443625D01*
X137582537Y-96463793D01*
X137674414Y-96387531D01*
X137729267Y-96282279D01*
X137791192Y-96110481D01*
X137857012Y-95890378D01*
X137919830Y-95650775D01*
X137972748Y-95420479D01*
X138008868Y-95228295D01*
X138021294Y-95103029D01*
X138017795Y-95077320D01*
X137943941Y-95007984D01*
X137836447Y-95020372D01*
X137765192Y-95077294D01*
X137724739Y-95166360D01*
X137674016Y-95334586D01*
X137622340Y-95549956D01*
X137609136Y-95613516D01*
X137561967Y-95823679D01*
X137516596Y-95983270D01*
X137480748Y-96066412D01*
X137472100Y-96072667D01*
X137421976Y-96028759D01*
X137329652Y-95912411D01*
X137213116Y-95746688D01*
X137185939Y-95705778D01*
X137042561Y-95507528D01*
X136922528Y-95380169D01*
X136844585Y-95338889D01*
X136755924Y-95392798D01*
X136641410Y-95555051D01*
X136553407Y-95717830D01*
X136362369Y-96096771D01*
X136232962Y-95844830D01*
X136138882Y-95636686D01*
X136046894Y-95394186D01*
X136010640Y-95282445D01*
X135944681Y-95095219D01*
X135881098Y-94998740D01*
X135808196Y-94972000D01*
X135709018Y-95019606D01*
G36*
X127849696Y-84840367D02*
G01*
X126825486Y-84840831D01*
X125904131Y-84841662D01*
X125080615Y-84842909D01*
X124349921Y-84844618D01*
X123707032Y-84846837D01*
X123146932Y-84849614D01*
X122664604Y-84852996D01*
X122255031Y-84857030D01*
X121913197Y-84861765D01*
X121634085Y-84867247D01*
X121412679Y-84873524D01*
X121243961Y-84880644D01*
X121122916Y-84888654D01*
X121044526Y-84897602D01*
X121003775Y-84907535D01*
X120994889Y-84915874D01*
X120970921Y-85001880D01*
X120908068Y-85154828D01*
X120819904Y-85341700D01*
X120819358Y-85342793D01*
X120579737Y-85701890D01*
X120261839Y-85992087D01*
X119886002Y-86195640D01*
X119810711Y-86222727D01*
X119527333Y-86316850D01*
X119527333Y-97079594D01*
X119810711Y-97173717D01*
X120195150Y-97359044D01*
X120525465Y-97634343D01*
X120781316Y-97981869D01*
X120819358Y-98053651D01*
X120907626Y-98240622D01*
X120970661Y-98393855D01*
X120994888Y-98480334D01*
X120994889Y-98480571D01*
X121010107Y-98491294D01*
X121059106Y-98500995D01*
X121146903Y-98509722D01*
X121278514Y-98517523D01*
X121458956Y-98524444D01*
X121693245Y-98530533D01*
X121986398Y-98535838D01*
X122343433Y-98540407D01*
X122769364Y-98544286D01*
X123269210Y-98547524D01*
X123847987Y-98550168D01*
X124510711Y-98552265D01*
X125262399Y-98553863D01*
X126108067Y-98555010D01*
X127052733Y-98555752D01*
X128101413Y-98556138D01*
X128981778Y-98556222D01*
X130113860Y-98556078D01*
X131138070Y-98555614D01*
X132059424Y-98554783D01*
X132882940Y-98553536D01*
X133613634Y-98551827D01*
X134256523Y-98549608D01*
X134816623Y-98546831D01*
X135298951Y-98543449D01*
X135708524Y-98539415D01*
X136050358Y-98534680D01*
X136329470Y-98529198D01*
X136550876Y-98522921D01*
X136719594Y-98515801D01*
X136840640Y-98507791D01*
X136919030Y-98498843D01*
X136959781Y-98488910D01*
X136968667Y-98480571D01*
X136992634Y-98394565D01*
X137055488Y-98241617D01*
X137143651Y-98054745D01*
X137144198Y-98053651D01*
X137383818Y-97694555D01*
X137701717Y-97404358D01*
X138077554Y-97200805D01*
X138152844Y-97173717D01*
X138436222Y-97079594D01*
X138436222Y-91698222D01*
X138266889Y-91698222D01*
X138266799Y-92585430D01*
X138266443Y-93366529D01*
X138265694Y-94048301D01*
X138264426Y-94637526D01*
X138262510Y-95140985D01*
X138259818Y-95565459D01*
X138256225Y-95917728D01*
X138251602Y-96204573D01*
X138245821Y-96432775D01*
X138238756Y-96609115D01*
X138230279Y-96740372D01*
X138220263Y-96833329D01*
X138208581Y-96894765D01*
X138195104Y-96931461D01*
X138179706Y-96950199D01*
X138168111Y-96956129D01*
X137746779Y-97149538D01*
X137379756Y-97420840D01*
X137086934Y-97752883D01*
X136932417Y-98021674D01*
X136791058Y-98330445D01*
X121172498Y-98330445D01*
X121031138Y-98021674D01*
X120804503Y-97656337D01*
X120489256Y-97339315D01*
X120105288Y-97087758D01*
X119795444Y-96956129D01*
X119778671Y-96945709D01*
X119763906Y-96921926D01*
X119751021Y-96878000D01*
X119739889Y-96807149D01*
X119730383Y-96702593D01*
X119722375Y-96557552D01*
X119715738Y-96365244D01*
X119710344Y-96118889D01*
X119706067Y-95811706D01*
X119702778Y-95436915D01*
X119700350Y-94987735D01*
X119698656Y-94457385D01*
X119697569Y-93839084D01*
X119696961Y-93126052D01*
X119696705Y-92311508D01*
X119696667Y-91698222D01*
X119696757Y-90811015D01*
X119697113Y-90029916D01*
X119697861Y-89348144D01*
X119699130Y-88758919D01*
X119701046Y-88255460D01*
X119703737Y-87830986D01*
X119707331Y-87478717D01*
X119711954Y-87191871D01*
X119717734Y-86963669D01*
X119724799Y-86787330D01*
X119733276Y-86656072D01*
X119743292Y-86563116D01*
X119754975Y-86501680D01*
X119768452Y-86464983D01*
X119783850Y-86446246D01*
X119795444Y-86440316D01*
X120216777Y-86246907D01*
X120583799Y-85975605D01*
X120876621Y-85643562D01*
X121031138Y-85374770D01*
X121172498Y-85066000D01*
X136791058Y-85066000D01*
X136932417Y-85374770D01*
X137159052Y-85740107D01*
X137474299Y-86057130D01*
X137858268Y-86308687D01*
X138168111Y-86440316D01*
X138184884Y-86450736D01*
X138199649Y-86474519D01*
X138212534Y-86518445D01*
X138223666Y-86589296D01*
X138233172Y-86693852D01*
X138241180Y-86838893D01*
X138247818Y-87031201D01*
X138253211Y-87277556D01*
X138257489Y-87584738D01*
X138260778Y-87959529D01*
X138263205Y-88408710D01*
X138264899Y-88939060D01*
X138265986Y-89557361D01*
X138266594Y-90270393D01*
X138266851Y-91084937D01*
X138266889Y-91698222D01*
X138436222Y-91698222D01*
X138436222Y-86316850D01*
X138152844Y-86222727D01*
X137768405Y-86037400D01*
X137438091Y-85762102D01*
X137182239Y-85414576D01*
X137144198Y-85342793D01*
X137055929Y-85155823D01*
X136992894Y-85002590D01*
X136968667Y-84916111D01*
X136968667Y-84915874D01*
X136953448Y-84905151D01*
X136904449Y-84895449D01*
X136816652Y-84886722D01*
X136685042Y-84878922D01*
X136504600Y-84872001D01*
X136270310Y-84865912D01*
X135977157Y-84860606D01*
X135620123Y-84856038D01*
X135194191Y-84852158D01*
X134694345Y-84848921D01*
X134115569Y-84846277D01*
X133452845Y-84844180D01*
X132701157Y-84842582D01*
X131855488Y-84841435D01*
X130910822Y-84840693D01*
X129862142Y-84840307D01*
X128981778Y-84840222D01*
X127849696Y-84840367D01*
G37*
X127849696Y-84840367D02*
X126825486Y-84840831D01*
X125904131Y-84841662D01*
X125080615Y-84842909D01*
X124349921Y-84844618D01*
X123707032Y-84846837D01*
X123146932Y-84849614D01*
X122664604Y-84852996D01*
X122255031Y-84857030D01*
X121913197Y-84861765D01*
X121634085Y-84867247D01*
X121412679Y-84873524D01*
X121243961Y-84880644D01*
X121122916Y-84888654D01*
X121044526Y-84897602D01*
X121003775Y-84907535D01*
X120994889Y-84915874D01*
X120970921Y-85001880D01*
X120908068Y-85154828D01*
X120819904Y-85341700D01*
X120819358Y-85342793D01*
X120579737Y-85701890D01*
X120261839Y-85992087D01*
X119886002Y-86195640D01*
X119810711Y-86222727D01*
X119527333Y-86316850D01*
X119527333Y-97079594D01*
X119810711Y-97173717D01*
X120195150Y-97359044D01*
X120525465Y-97634343D01*
X120781316Y-97981869D01*
X120819358Y-98053651D01*
X120907626Y-98240622D01*
X120970661Y-98393855D01*
X120994888Y-98480334D01*
X120994889Y-98480571D01*
X121010107Y-98491294D01*
X121059106Y-98500995D01*
X121146903Y-98509722D01*
X121278514Y-98517523D01*
X121458956Y-98524444D01*
X121693245Y-98530533D01*
X121986398Y-98535838D01*
X122343433Y-98540407D01*
X122769364Y-98544286D01*
X123269210Y-98547524D01*
X123847987Y-98550168D01*
X124510711Y-98552265D01*
X125262399Y-98553863D01*
X126108067Y-98555010D01*
X127052733Y-98555752D01*
X128101413Y-98556138D01*
X128981778Y-98556222D01*
X130113860Y-98556078D01*
X131138070Y-98555614D01*
X132059424Y-98554783D01*
X132882940Y-98553536D01*
X133613634Y-98551827D01*
X134256523Y-98549608D01*
X134816623Y-98546831D01*
X135298951Y-98543449D01*
X135708524Y-98539415D01*
X136050358Y-98534680D01*
X136329470Y-98529198D01*
X136550876Y-98522921D01*
X136719594Y-98515801D01*
X136840640Y-98507791D01*
X136919030Y-98498843D01*
X136959781Y-98488910D01*
X136968667Y-98480571D01*
X136992634Y-98394565D01*
X137055488Y-98241617D01*
X137143651Y-98054745D01*
X137144198Y-98053651D01*
X137383818Y-97694555D01*
X137701717Y-97404358D01*
X138077554Y-97200805D01*
X138152844Y-97173717D01*
X138436222Y-97079594D01*
X138436222Y-91698222D01*
X138266889Y-91698222D01*
X138266799Y-92585430D01*
X138266443Y-93366529D01*
X138265694Y-94048301D01*
X138264426Y-94637526D01*
X138262510Y-95140985D01*
X138259818Y-95565459D01*
X138256225Y-95917728D01*
X138251602Y-96204573D01*
X138245821Y-96432775D01*
X138238756Y-96609115D01*
X138230279Y-96740372D01*
X138220263Y-96833329D01*
X138208581Y-96894765D01*
X138195104Y-96931461D01*
X138179706Y-96950199D01*
X138168111Y-96956129D01*
X137746779Y-97149538D01*
X137379756Y-97420840D01*
X137086934Y-97752883D01*
X136932417Y-98021674D01*
X136791058Y-98330445D01*
X121172498Y-98330445D01*
X121031138Y-98021674D01*
X120804503Y-97656337D01*
X120489256Y-97339315D01*
X120105288Y-97087758D01*
X119795444Y-96956129D01*
X119778671Y-96945709D01*
X119763906Y-96921926D01*
X119751021Y-96878000D01*
X119739889Y-96807149D01*
X119730383Y-96702593D01*
X119722375Y-96557552D01*
X119715738Y-96365244D01*
X119710344Y-96118889D01*
X119706067Y-95811706D01*
X119702778Y-95436915D01*
X119700350Y-94987735D01*
X119698656Y-94457385D01*
X119697569Y-93839084D01*
X119696961Y-93126052D01*
X119696705Y-92311508D01*
X119696667Y-91698222D01*
X119696757Y-90811015D01*
X119697113Y-90029916D01*
X119697861Y-89348144D01*
X119699130Y-88758919D01*
X119701046Y-88255460D01*
X119703737Y-87830986D01*
X119707331Y-87478717D01*
X119711954Y-87191871D01*
X119717734Y-86963669D01*
X119724799Y-86787330D01*
X119733276Y-86656072D01*
X119743292Y-86563116D01*
X119754975Y-86501680D01*
X119768452Y-86464983D01*
X119783850Y-86446246D01*
X119795444Y-86440316D01*
X120216777Y-86246907D01*
X120583799Y-85975605D01*
X120876621Y-85643562D01*
X121031138Y-85374770D01*
X121172498Y-85066000D01*
X136791058Y-85066000D01*
X136932417Y-85374770D01*
X137159052Y-85740107D01*
X137474299Y-86057130D01*
X137858268Y-86308687D01*
X138168111Y-86440316D01*
X138184884Y-86450736D01*
X138199649Y-86474519D01*
X138212534Y-86518445D01*
X138223666Y-86589296D01*
X138233172Y-86693852D01*
X138241180Y-86838893D01*
X138247818Y-87031201D01*
X138253211Y-87277556D01*
X138257489Y-87584738D01*
X138260778Y-87959529D01*
X138263205Y-88408710D01*
X138264899Y-88939060D01*
X138265986Y-89557361D01*
X138266594Y-90270393D01*
X138266851Y-91084937D01*
X138266889Y-91698222D01*
X138436222Y-91698222D01*
X138436222Y-86316850D01*
X138152844Y-86222727D01*
X137768405Y-86037400D01*
X137438091Y-85762102D01*
X137182239Y-85414576D01*
X137144198Y-85342793D01*
X137055929Y-85155823D01*
X136992894Y-85002590D01*
X136968667Y-84916111D01*
X136968667Y-84915874D01*
X136953448Y-84905151D01*
X136904449Y-84895449D01*
X136816652Y-84886722D01*
X136685042Y-84878922D01*
X136504600Y-84872001D01*
X136270310Y-84865912D01*
X135977157Y-84860606D01*
X135620123Y-84856038D01*
X135194191Y-84852158D01*
X134694345Y-84848921D01*
X134115569Y-84846277D01*
X133452845Y-84844180D01*
X132701157Y-84842582D01*
X131855488Y-84841435D01*
X130910822Y-84840693D01*
X129862142Y-84840307D01*
X128981778Y-84840222D01*
X127849696Y-84840367D01*
G36*
X132126321Y-83721579D02*
G01*
X131101179Y-83722415D01*
X129971176Y-83723786D01*
X128975809Y-83725271D01*
X120019986Y-83739556D01*
X119943863Y-84037010D01*
X119844218Y-84354399D01*
X119717629Y-84601680D01*
X119541102Y-84821565D01*
X119497230Y-84866563D01*
X119224445Y-85091841D01*
X118916755Y-85243920D01*
X118652444Y-85320275D01*
X118370222Y-85384975D01*
X118341512Y-97987295D01*
X118581645Y-98045971D01*
X118955958Y-98174495D01*
X119290751Y-98360211D01*
X119554577Y-98584524D01*
X119615940Y-98657553D01*
X119726459Y-98823722D01*
X119822235Y-99021570D01*
X119914323Y-99277769D01*
X120012570Y-99614556D01*
X120035607Y-99624172D01*
X120102181Y-99632931D01*
X120216702Y-99640868D01*
X120383578Y-99648017D01*
X120607221Y-99654414D01*
X120892041Y-99660092D01*
X121242447Y-99665088D01*
X121662850Y-99669434D01*
X122157659Y-99673167D01*
X122731285Y-99676321D01*
X123388138Y-99678930D01*
X124132627Y-99681030D01*
X124969163Y-99682655D01*
X125902156Y-99683839D01*
X126936016Y-99684619D01*
X128075153Y-99685027D01*
X128970599Y-99685111D01*
X129966460Y-99684878D01*
X130931648Y-99684194D01*
X131860124Y-99683085D01*
X132745850Y-99681576D01*
X133582787Y-99679693D01*
X134364897Y-99677461D01*
X135086139Y-99674904D01*
X135740477Y-99672050D01*
X136321870Y-99668922D01*
X136824281Y-99665547D01*
X137241671Y-99661949D01*
X137568000Y-99658153D01*
X137797231Y-99654186D01*
X137923324Y-99650073D01*
X137947037Y-99647482D01*
X137979583Y-99564293D01*
X137984667Y-99508488D01*
X138020289Y-99309389D01*
X138114616Y-99066465D01*
X138248834Y-98817961D01*
X138404133Y-98602121D01*
X138460763Y-98540593D01*
X138725184Y-98320548D01*
X139029694Y-98160495D01*
X139381667Y-98048165D01*
X139621555Y-97987427D01*
X139621555Y-97229972D01*
X138662000Y-97229972D01*
X138398386Y-97369819D01*
X138046567Y-97604210D01*
X137713587Y-97912878D01*
X137437401Y-98258841D01*
X137363022Y-98378668D01*
X137166222Y-98722198D01*
X120797333Y-98722198D01*
X120600534Y-98378668D01*
X120352374Y-98028445D01*
X120034485Y-97702913D01*
X119684823Y-97439055D01*
X119565169Y-97369819D01*
X119301555Y-97229972D01*
X119301555Y-86166473D01*
X119565169Y-86026626D01*
X119916989Y-85792235D01*
X120249968Y-85483567D01*
X120526154Y-85137604D01*
X120600534Y-85017776D01*
X120797333Y-84674246D01*
X128981875Y-84672568D01*
X137166416Y-84670889D01*
X137306263Y-84934503D01*
X137540654Y-85286322D01*
X137849322Y-85619302D01*
X138195285Y-85895488D01*
X138315113Y-85969867D01*
X138658643Y-86166667D01*
X138660321Y-91698319D01*
X138662000Y-97229972D01*
X139621555Y-97229972D01*
X139621555Y-85415662D01*
X139240555Y-85299796D01*
X138896094Y-85172849D01*
X138621423Y-85014530D01*
X138402429Y-84808225D01*
X138225000Y-84537322D01*
X138075025Y-84185211D01*
X137950919Y-83781715D01*
X137928262Y-83772127D01*
X137862819Y-83763464D01*
X137750159Y-83755699D01*
X137585845Y-83748805D01*
X137365445Y-83742752D01*
X137084525Y-83737514D01*
X136738649Y-83733063D01*
X136323385Y-83729369D01*
X135834297Y-83726407D01*
X135266952Y-83724147D01*
X134616916Y-83722563D01*
X133879755Y-83721625D01*
X133051035Y-83721306D01*
X132126321Y-83721579D01*
G37*
X132126321Y-83721579D02*
X131101179Y-83722415D01*
X129971176Y-83723786D01*
X128975809Y-83725271D01*
X120019986Y-83739556D01*
X119943863Y-84037010D01*
X119844218Y-84354399D01*
X119717629Y-84601680D01*
X119541102Y-84821565D01*
X119497230Y-84866563D01*
X119224445Y-85091841D01*
X118916755Y-85243920D01*
X118652444Y-85320275D01*
X118370222Y-85384975D01*
X118341512Y-97987295D01*
X118581645Y-98045971D01*
X118955958Y-98174495D01*
X119290751Y-98360211D01*
X119554577Y-98584524D01*
X119615940Y-98657553D01*
X119726459Y-98823722D01*
X119822235Y-99021570D01*
X119914323Y-99277769D01*
X120012570Y-99614556D01*
X120035607Y-99624172D01*
X120102181Y-99632931D01*
X120216702Y-99640868D01*
X120383578Y-99648017D01*
X120607221Y-99654414D01*
X120892041Y-99660092D01*
X121242447Y-99665088D01*
X121662850Y-99669434D01*
X122157659Y-99673167D01*
X122731285Y-99676321D01*
X123388138Y-99678930D01*
X124132627Y-99681030D01*
X124969163Y-99682655D01*
X125902156Y-99683839D01*
X126936016Y-99684619D01*
X128075153Y-99685027D01*
X128970599Y-99685111D01*
X129966460Y-99684878D01*
X130931648Y-99684194D01*
X131860124Y-99683085D01*
X132745850Y-99681576D01*
X133582787Y-99679693D01*
X134364897Y-99677461D01*
X135086139Y-99674904D01*
X135740477Y-99672050D01*
X136321870Y-99668922D01*
X136824281Y-99665547D01*
X137241671Y-99661949D01*
X137568000Y-99658153D01*
X137797231Y-99654186D01*
X137923324Y-99650073D01*
X137947037Y-99647482D01*
X137979583Y-99564293D01*
X137984667Y-99508488D01*
X138020289Y-99309389D01*
X138114616Y-99066465D01*
X138248834Y-98817961D01*
X138404133Y-98602121D01*
X138460763Y-98540593D01*
X138725184Y-98320548D01*
X139029694Y-98160495D01*
X139381667Y-98048165D01*
X139621555Y-97987427D01*
X139621555Y-97229972D01*
X138662000Y-97229972D01*
X138398386Y-97369819D01*
X138046567Y-97604210D01*
X137713587Y-97912878D01*
X137437401Y-98258841D01*
X137363022Y-98378668D01*
X137166222Y-98722198D01*
X120797333Y-98722198D01*
X120600534Y-98378668D01*
X120352374Y-98028445D01*
X120034485Y-97702913D01*
X119684823Y-97439055D01*
X119565169Y-97369819D01*
X119301555Y-97229972D01*
X119301555Y-86166473D01*
X119565169Y-86026626D01*
X119916989Y-85792235D01*
X120249968Y-85483567D01*
X120526154Y-85137604D01*
X120600534Y-85017776D01*
X120797333Y-84674246D01*
X128981875Y-84672568D01*
X137166416Y-84670889D01*
X137306263Y-84934503D01*
X137540654Y-85286322D01*
X137849322Y-85619302D01*
X138195285Y-85895488D01*
X138315113Y-85969867D01*
X138658643Y-86166667D01*
X138660321Y-91698319D01*
X138662000Y-97229972D01*
X139621555Y-97229972D01*
X139621555Y-85415662D01*
X139240555Y-85299796D01*
X138896094Y-85172849D01*
X138621423Y-85014530D01*
X138402429Y-84808225D01*
X138225000Y-84537322D01*
X138075025Y-84185211D01*
X137950919Y-83781715D01*
X137928262Y-83772127D01*
X137862819Y-83763464D01*
X137750159Y-83755699D01*
X137585845Y-83748805D01*
X137365445Y-83742752D01*
X137084525Y-83737514D01*
X136738649Y-83733063D01*
X136323385Y-83729369D01*
X135834297Y-83726407D01*
X135266952Y-83724147D01*
X134616916Y-83722563D01*
X133879755Y-83721625D01*
X133051035Y-83721306D01*
X132126321Y-83721579D01*
D11*
%TO.C,J2*%
X136680000Y-51160000D02*
X136680000Y-50050000D01*
X136680000Y-50050000D02*
X135350000Y-50050000D01*
X136680000Y-61250000D02*
X121320000Y-61250000D01*
X121320000Y-61250000D02*
X121320000Y-52620000D01*
X136680000Y-52620000D02*
X121320000Y-52620000D01*
X136680000Y-61250000D02*
X136680000Y-52620000D01*
X123920000Y-61250000D02*
X123920000Y-52620000D01*
X126460000Y-61250000D02*
X126460000Y-52620000D01*
X129000000Y-61250000D02*
X129000000Y-52620000D01*
X131540000Y-61250000D02*
X131540000Y-52620000D01*
X134080000Y-61250000D02*
X134080000Y-52620000D01*
X122290000Y-52620000D02*
X122290000Y-52210000D01*
X123010000Y-52620000D02*
X123010000Y-52210000D01*
X124830000Y-52620000D02*
X124830000Y-52210000D01*
X125550000Y-52620000D02*
X125550000Y-52210000D01*
X127370000Y-52620000D02*
X127370000Y-52210000D01*
X128090000Y-52620000D02*
X128090000Y-52210000D01*
X129910000Y-52620000D02*
X129910000Y-52210000D01*
X130630000Y-52620000D02*
X130630000Y-52210000D01*
X132450000Y-52620000D02*
X132450000Y-52210000D01*
X133170000Y-52620000D02*
X133170000Y-52210000D01*
X134990000Y-52620000D02*
X134990000Y-52270000D01*
X135710000Y-52620000D02*
X135710000Y-52270000D01*
X134198100Y-61250000D02*
X134198100Y-52620000D01*
X134316195Y-61250000D02*
X134316195Y-52620000D01*
X134434290Y-61250000D02*
X134434290Y-52620000D01*
X134552385Y-61250000D02*
X134552385Y-52620000D01*
X134670480Y-61250000D02*
X134670480Y-52620000D01*
X134788575Y-61250000D02*
X134788575Y-52620000D01*
X134906670Y-61250000D02*
X134906670Y-52620000D01*
X135024765Y-61250000D02*
X135024765Y-52620000D01*
X135142860Y-61250000D02*
X135142860Y-52620000D01*
X135260955Y-61250000D02*
X135260955Y-52620000D01*
X135379050Y-61250000D02*
X135379050Y-52620000D01*
X135497145Y-61250000D02*
X135497145Y-52620000D01*
X135615240Y-61250000D02*
X135615240Y-52620000D01*
X135733335Y-61250000D02*
X135733335Y-52620000D01*
X135851430Y-61250000D02*
X135851430Y-52620000D01*
X135969525Y-61250000D02*
X135969525Y-52620000D01*
X136087620Y-61250000D02*
X136087620Y-52620000D01*
X136205715Y-61250000D02*
X136205715Y-52620000D01*
X136323810Y-61250000D02*
X136323810Y-52620000D01*
X136441905Y-61250000D02*
X136441905Y-52620000D01*
X136560000Y-61250000D02*
X136560000Y-52620000D01*
D12*
X132152380Y-54716666D02*
X132866666Y-54716666D01*
X133009523Y-54669047D01*
X133104761Y-54573809D01*
X133152380Y-54430952D01*
X133152380Y-54335714D01*
X132247619Y-55145238D02*
X132200000Y-55192857D01*
X132152380Y-55288095D01*
X132152380Y-55526190D01*
X132200000Y-55621428D01*
X132247619Y-55669047D01*
X132342857Y-55716666D01*
X132438095Y-55716666D01*
X132580952Y-55669047D01*
X133152380Y-55097619D01*
X133152380Y-55716666D01*
%TD*%
M02*
