M48
; DRILL file {KiCad (5.1.9)-1} date 02/10/21 21:10:41
; FORMAT={-:-/ absolute / inch / decimal}
; #@! TF.CreationDate,2021-02-10T21:10:41+00:00
; #@! TF.GenerationSoftware,Kicad,Pcbnew,(5.1.9)-1
; #@! TF.FileFunction,Plated,1,2,PTH
FMAT,2
INCH
T1C0.0118
T2C0.0217
T3C0.0335
T4C0.0394
T5C0.0472
%
G90
G05
T1
X4.4776Y-4.1717
X4.4929Y-3.5693
X4.5209Y-3.8398
X4.6106Y-4.1374
X4.6854Y-2.3386
X4.687Y-2.5772
X4.6886Y-2.4528
X4.6886Y-2.6827
X4.6921Y-2.228
X4.6941Y-2.8071
X4.6957Y-2.0913
X4.6972Y-1.9965
X4.7217Y-4.087
X4.7508Y-3.089
X4.7543Y-2.9819
X4.7736Y-3.2567
X4.7787Y-3.1598
X4.7917Y-4.1547
X4.8047Y-2.8087
X4.815Y-2.5787
X4.8185Y-2.6898
X4.8339Y-2.3437
X4.8339Y-2.4476
X4.8358Y-3.0819
X4.8461Y-3.3846
X4.865Y-2.9799
X4.865Y-3.1614
X4.8669Y-3.2598
X4.9256Y-2.8106
X4.9256Y-2.9142
X4.9272Y-2.6929
X4.9378Y-2.5787
X4.9409Y-2.4441
X4.9524Y-4.0016
X4.9563Y-4.1634
X4.9894Y-3.089
X4.9949Y-3.1614
X5.0067Y-2.9886
X5.0311Y-3.2685
X5.0327Y-3.3791
X5.0689Y-2.911
X5.0776Y-2.8055
X5.0827Y-2.6898
X5.0898Y-3.5417
X5.0913Y-2.5843
X5.098Y-3.9992
X5.1Y-3.172
X5.1102Y-4.161
X5.1421Y-2.1394
X5.152Y-2.987
X5.1555Y-3.0839
X5.1709Y-3.2791
X5.185Y-3.5437
X5.2075Y-2.9177
X5.2106Y-3.3862
X5.2228Y-2.7949
X5.2248Y-3.172
X5.228Y-2.6843
X5.2748Y-3.6543
X5.2764Y-3.5469
X5.3059Y-2.9764
X5.3075Y-3.1634
X5.3181Y-3.3811
X5.3232Y-3.0752
X5.337Y-3.2685
X5.3492Y-2.7949
X5.3594Y-3.5488
X5.3594Y-3.6524
X5.3941Y-2.9764
X5.3941Y-3.172
X5.3996Y-3.7661
X5.4028Y-3.0783
X5.4087Y-2.015
X5.4406Y-3.5488
X5.4406Y-3.7614
X5.4461Y-3.6594
X5.4787Y-2.7933
X5.4909Y-1.9697
X5.5272Y-3.5555
X5.5272Y-3.6524
X5.5287Y-3.839
X5.5307Y-3.7563
X5.6276Y-3.5524
X5.6327Y-3.6488
X5.6343Y-3.7441
X5.6343Y-3.8323
T4
X4.5768Y-2.0079
X4.5768Y-2.1079
X4.5768Y-2.2079
X4.5768Y-2.3079
X4.5768Y-2.4079
X4.5768Y-2.5079
X4.5768Y-2.6079
X4.5768Y-2.7079
X4.5768Y-2.8079
X4.5768Y-2.9079
X4.5768Y-3.0079
X4.5768Y-3.1079
X4.5768Y-3.2079
X4.5768Y-3.3079
X4.5768Y-3.4079
X4.8287Y-2.0142
X4.9287Y-2.0142
X5.0287Y-2.0142
X5.1287Y-2.0142
X5.2287Y-2.0142
X5.3287Y-2.0142
X5.5846Y-2.0079
X5.5846Y-2.1079
X5.5846Y-2.2079
X5.5846Y-2.3079
X5.5846Y-2.4079
X5.5846Y-2.5079
X5.5846Y-2.6079
X5.5846Y-2.7079
X5.5846Y-2.8079
X5.5846Y-2.9079
X5.5846Y-3.0079
X5.5846Y-3.1079
X5.5846Y-3.2079
X5.5846Y-3.3079
X5.5846Y-3.4079
T5
X5.2618Y-4.0783
X5.3996Y-4.0783
X5.5374Y-4.0783
T2
G00X4.5474Y-4.1333
M15
G01X4.5474Y-4.1589
M16
G05
G00X4.8526Y-4.1333
M15
G01X4.8526Y-4.1589
M16
G05
T3
G00X4.5533Y-3.9856
M15
G01X4.5533Y-4.0073
M16
G05
G00X4.8467Y-3.9856
M15
G01X4.8467Y-4.0073
M16
G05
T0
M30
