%TF.GenerationSoftware,KiCad,Pcbnew,(5.1.9)-1*%
%TF.CreationDate,2021-02-10T21:10:38+00:00*%
%TF.ProjectId,SD_FSEQ,53445f46-5345-4512-9e6b-696361645f70,rev?*%
%TF.SameCoordinates,Original*%
%TF.FileFunction,Copper,L2,Bot*%
%TF.FilePolarity,Positive*%
%FSLAX46Y46*%
G04 Gerber Fmt 4.6, Leading zero omitted, Abs format (unit mm)*
G04 Created by KiCad (PCBNEW (5.1.9)-1) date 2021-02-10 21:10:38*
%MOMM*%
%LPD*%
G01*
G04 APERTURE LIST*
%TA.AperFunction,ComponentPad*%
%ADD10O,1.150000X1.800000*%
%TD*%
%TA.AperFunction,ComponentPad*%
%ADD11O,1.450000X2.000000*%
%TD*%
%TA.AperFunction,ComponentPad*%
%ADD12O,1.800000X3.600000*%
%TD*%
%TA.AperFunction,ComponentPad*%
%ADD13O,1.700000X1.700000*%
%TD*%
%TA.AperFunction,ComponentPad*%
%ADD14R,1.700000X1.700000*%
%TD*%
%TA.AperFunction,ViaPad*%
%ADD15C,0.600000*%
%TD*%
%TA.AperFunction,Conductor*%
%ADD16C,0.400000*%
%TD*%
%TA.AperFunction,Conductor*%
%ADD17C,0.600000*%
%TD*%
%TA.AperFunction,Conductor*%
%ADD18C,0.254000*%
%TD*%
%TA.AperFunction,Conductor*%
%ADD19C,0.100000*%
%TD*%
G04 APERTURE END LIST*
D10*
%TO.P,J3,6*%
%TO.N,N/C*%
X123255000Y-105310000D03*
X115505000Y-105310000D03*
D11*
X123105000Y-101510000D03*
X115655000Y-101510000D03*
%TD*%
D12*
%TO.P,J5,3*%
%TO.N,+5V*%
X140650000Y-103590000D03*
%TO.P,J5,2*%
%TO.N,LED_Data*%
X137150000Y-103590000D03*
%TO.P,J5,1*%
%TO.N,GND*%
%TA.AperFunction,ComponentPad*%
G36*
G01*
X132750000Y-105140000D02*
X132750000Y-102040000D01*
G75*
G02*
X133000000Y-101790000I250000J0D01*
G01*
X134300000Y-101790000D01*
G75*
G02*
X134550000Y-102040000I0J-250000D01*
G01*
X134550000Y-105140000D01*
G75*
G02*
X134300000Y-105390000I-250000J0D01*
G01*
X133000000Y-105390000D01*
G75*
G02*
X132750000Y-105140000I0J250000D01*
G01*
G37*
%TD.AperFunction*%
%TD*%
D13*
%TO.P,J4,15*%
%TO.N,Net-(J4-Pad15)*%
X141850000Y-86560000D03*
%TO.P,J4,14*%
%TO.N,Net-(J4-Pad14)*%
X141850000Y-84020000D03*
%TO.P,J4,13*%
%TO.N,Net-(J4-Pad13)*%
X141850000Y-81480000D03*
%TO.P,J4,12*%
%TO.N,Net-(J4-Pad12)*%
X141850000Y-78940000D03*
%TO.P,J4,11*%
%TO.N,Net-(J4-Pad11)*%
X141850000Y-76400000D03*
%TO.P,J4,10*%
%TO.N,Net-(J4-Pad10)*%
X141850000Y-73860000D03*
%TO.P,J4,9*%
%TO.N,Net-(J4-Pad9)*%
X141850000Y-71320000D03*
%TO.P,J4,8*%
%TO.N,CS*%
X141850000Y-68780000D03*
%TO.P,J4,7*%
%TO.N,SCK*%
X141850000Y-66240000D03*
%TO.P,J4,6*%
%TO.N,MISO*%
X141850000Y-63700000D03*
%TO.P,J4,5*%
%TO.N,Net-(J4-Pad5)*%
X141850000Y-61160000D03*
%TO.P,J4,4*%
%TO.N,Net-(J4-Pad4)*%
X141850000Y-58620000D03*
%TO.P,J4,3*%
%TO.N,Net-(J4-Pad3)*%
X141850000Y-56080000D03*
%TO.P,J4,2*%
%TO.N,Net-(J4-Pad2)*%
X141850000Y-53540000D03*
D14*
%TO.P,J4,1*%
%TO.N,MOSI*%
X141850000Y-51000000D03*
%TD*%
D13*
%TO.P,J2,6*%
%TO.N,CS*%
X122650000Y-51160000D03*
%TO.P,J2,5*%
%TO.N,SCK*%
X125190000Y-51160000D03*
%TO.P,J2,4*%
%TO.N,MOSI*%
X127730000Y-51160000D03*
%TO.P,J2,3*%
%TO.N,MISO*%
X130270000Y-51160000D03*
%TO.P,J2,2*%
%TO.N,+5V*%
X132810000Y-51160000D03*
D14*
%TO.P,J2,1*%
%TO.N,GND*%
X135350000Y-51160000D03*
%TD*%
D13*
%TO.P,J1,15*%
%TO.N,+5V*%
X116250000Y-86560000D03*
%TO.P,J1,14*%
%TO.N,GND*%
X116250000Y-84020000D03*
%TO.P,J1,13*%
%TO.N,LED_Data*%
X116250000Y-81480000D03*
%TO.P,J1,12*%
%TO.N,Net-(J1-Pad12)*%
X116250000Y-78940000D03*
%TO.P,J1,11*%
%TO.N,Net-(J1-Pad11)*%
X116250000Y-76400000D03*
%TO.P,J1,10*%
%TO.N,Net-(J1-Pad10)*%
X116250000Y-73860000D03*
%TO.P,J1,9*%
%TO.N,Net-(J1-Pad9)*%
X116250000Y-71320000D03*
%TO.P,J1,8*%
%TO.N,Net-(J1-Pad8)*%
X116250000Y-68780000D03*
%TO.P,J1,7*%
%TO.N,Net-(J1-Pad7)*%
X116250000Y-66240000D03*
%TO.P,J1,6*%
%TO.N,Net-(J1-Pad6)*%
X116250000Y-63700000D03*
%TO.P,J1,5*%
%TO.N,Net-(J1-Pad5)*%
X116250000Y-61160000D03*
%TO.P,J1,4*%
%TO.N,Net-(J1-Pad4)*%
X116250000Y-58620000D03*
%TO.P,J1,3*%
%TO.N,Net-(J1-Pad3)*%
X116250000Y-56080000D03*
%TO.P,J1,2*%
%TO.N,Net-(J1-Pad2)*%
X116250000Y-53540000D03*
D14*
%TO.P,J1,1*%
%TO.N,Net-(J1-Pad1)*%
X116250000Y-51000000D03*
%TD*%
D15*
%TO.N,*%
X113730000Y-105960000D03*
%TO.N,GND*%
X125790000Y-101640000D03*
X129490000Y-101580000D03*
X125890000Y-105750000D03*
X129800000Y-105690000D03*
X114830000Y-97530000D03*
X114120000Y-90660000D03*
X117110000Y-105090000D03*
X119930000Y-103810000D03*
X121710000Y-105530000D03*
X143110000Y-97340000D03*
X143110000Y-95100000D03*
X143070000Y-92680000D03*
X142940000Y-90230000D03*
X140390000Y-90310000D03*
X140390000Y-92770000D03*
X140480000Y-95410000D03*
X140430000Y-97510000D03*
X138190000Y-95540000D03*
X138330000Y-92950000D03*
X138190000Y-90140000D03*
X136130000Y-90140000D03*
X136130000Y-92770000D03*
X133980000Y-92820000D03*
X134020000Y-90090000D03*
X131700000Y-90010000D03*
X129280000Y-89960000D03*
X135080000Y-85880000D03*
X132350000Y-86010000D03*
X127830000Y-85830000D03*
X123090000Y-85970000D03*
X121250000Y-82720000D03*
X123620000Y-82800000D03*
X127790000Y-83020000D03*
X131340000Y-83290000D03*
X135560000Y-83020000D03*
X137010000Y-80570000D03*
X134810000Y-80350000D03*
X132710000Y-80570000D03*
X129540000Y-80570000D03*
X126870000Y-80300000D03*
X123570000Y-80300000D03*
X121380000Y-80260000D03*
X120670000Y-78460000D03*
X122830000Y-78280000D03*
X126730000Y-78460000D03*
X130950000Y-78330000D03*
X135210000Y-78110000D03*
X137230000Y-78190000D03*
X137010000Y-75600000D03*
X134770000Y-75600000D03*
X130860000Y-75870000D03*
X127170000Y-75910000D03*
X123570000Y-75690000D03*
X120760000Y-75740000D03*
X128750000Y-73940000D03*
X125110000Y-74020000D03*
X132270000Y-74110000D03*
X119230000Y-71300000D03*
X122040000Y-71340000D03*
X125110000Y-71390000D03*
X128970000Y-71260000D03*
X132660000Y-70990000D03*
X135870000Y-70990000D03*
X139160000Y-70950000D03*
X132790000Y-68180000D03*
X129100000Y-68320000D03*
X125150000Y-68400000D03*
X122390000Y-68320000D03*
X119090000Y-68140000D03*
X119050000Y-65460000D03*
X122300000Y-65500000D03*
X125420000Y-65500000D03*
X129320000Y-65640000D03*
X125500000Y-62080000D03*
X122780000Y-62170000D03*
X119090000Y-62300000D03*
X119010000Y-59400000D03*
X119180000Y-56590000D03*
X119270000Y-53120000D03*
X119310000Y-50710000D03*
X122780000Y-59530000D03*
X139470000Y-50030000D03*
X137380000Y-51180000D03*
%TO.N,LED_Data*%
X137150000Y-95660000D03*
%TO.N,MISO*%
X130610000Y-54340000D03*
%TD*%
D16*
%TO.N,LED_Data*%
X137150000Y-95660000D02*
X137150000Y-103590000D01*
D17*
%TO.N,MISO*%
X130610000Y-51180000D02*
X130630000Y-51160000D01*
X130610000Y-54340000D02*
X130610000Y-51180000D01*
%TD*%
D18*
%TO.N,GND*%
X143485001Y-106515000D02*
X124090051Y-106515000D01*
X124114739Y-106494739D01*
X124265946Y-106310492D01*
X124378303Y-106100287D01*
X124447492Y-105872200D01*
X124465000Y-105694436D01*
X124465000Y-104925563D01*
X124447492Y-104747799D01*
X124378303Y-104519713D01*
X124265946Y-104309508D01*
X124114739Y-104125261D01*
X123930491Y-103974054D01*
X123720286Y-103861697D01*
X123492200Y-103792508D01*
X123255000Y-103769146D01*
X123017799Y-103792508D01*
X122789713Y-103861697D01*
X122579508Y-103974054D01*
X122395261Y-104125261D01*
X122244054Y-104309509D01*
X122131697Y-104519714D01*
X122062508Y-104747800D01*
X122045000Y-104925564D01*
X122045000Y-105694437D01*
X122062508Y-105872201D01*
X122131697Y-106100287D01*
X122244055Y-106310492D01*
X122395262Y-106494739D01*
X122419950Y-106515000D01*
X116340051Y-106515000D01*
X116364739Y-106494739D01*
X116515946Y-106310492D01*
X116628303Y-106100287D01*
X116697492Y-105872200D01*
X116715000Y-105694436D01*
X116715000Y-104925563D01*
X116697492Y-104747799D01*
X116628303Y-104519713D01*
X116515946Y-104309508D01*
X116364739Y-104125261D01*
X116180491Y-103974054D01*
X115970286Y-103861697D01*
X115742200Y-103792508D01*
X115505000Y-103769146D01*
X115267799Y-103792508D01*
X115039713Y-103861697D01*
X114829508Y-103974054D01*
X114645261Y-104125261D01*
X114494054Y-104309509D01*
X114381697Y-104519714D01*
X114312508Y-104747800D01*
X114295000Y-104925564D01*
X114295000Y-105213006D01*
X114172889Y-105131414D01*
X114002729Y-105060932D01*
X113865000Y-105033536D01*
X113865000Y-101168192D01*
X114295000Y-101168192D01*
X114295000Y-101851809D01*
X114314678Y-102051607D01*
X114392445Y-102307968D01*
X114518730Y-102544231D01*
X114688683Y-102751318D01*
X114895770Y-102921270D01*
X115132033Y-103047555D01*
X115388394Y-103125322D01*
X115655000Y-103151580D01*
X115921607Y-103125322D01*
X116177968Y-103047555D01*
X116414231Y-102921270D01*
X116621318Y-102751318D01*
X116791270Y-102544231D01*
X116917555Y-102307968D01*
X116995322Y-102051606D01*
X117015000Y-101851808D01*
X117015000Y-101168192D01*
X121745000Y-101168192D01*
X121745000Y-101851809D01*
X121764678Y-102051607D01*
X121842445Y-102307968D01*
X121968730Y-102544231D01*
X122138683Y-102751318D01*
X122345770Y-102921270D01*
X122582033Y-103047555D01*
X122838394Y-103125322D01*
X123105000Y-103151580D01*
X123371607Y-103125322D01*
X123627968Y-103047555D01*
X123864231Y-102921270D01*
X124071318Y-102751318D01*
X124183525Y-102614593D01*
X135615000Y-102614593D01*
X135615000Y-104565408D01*
X135637211Y-104790913D01*
X135724984Y-105080261D01*
X135867520Y-105346927D01*
X136059340Y-105580661D01*
X136293074Y-105772481D01*
X136559740Y-105915017D01*
X136849088Y-106002790D01*
X137150000Y-106032427D01*
X137450913Y-106002790D01*
X137740261Y-105915017D01*
X138006927Y-105772481D01*
X138240661Y-105580661D01*
X138432481Y-105346927D01*
X138575017Y-105080261D01*
X138662790Y-104790913D01*
X138685000Y-104565408D01*
X138685000Y-102614593D01*
X139115000Y-102614593D01*
X139115000Y-104565408D01*
X139137211Y-104790913D01*
X139224984Y-105080261D01*
X139367520Y-105346927D01*
X139559340Y-105580661D01*
X139793074Y-105772481D01*
X140059740Y-105915017D01*
X140349088Y-106002790D01*
X140650000Y-106032427D01*
X140950913Y-106002790D01*
X141240261Y-105915017D01*
X141506927Y-105772481D01*
X141740661Y-105580661D01*
X141932481Y-105346927D01*
X142075017Y-105080261D01*
X142162790Y-104790913D01*
X142185000Y-104565408D01*
X142185000Y-102614592D01*
X142162790Y-102389087D01*
X142075017Y-102099739D01*
X141932481Y-101833073D01*
X141740661Y-101599339D01*
X141506926Y-101407519D01*
X141240260Y-101264983D01*
X140950912Y-101177210D01*
X140650000Y-101147573D01*
X140349087Y-101177210D01*
X140059739Y-101264983D01*
X139793073Y-101407519D01*
X139559339Y-101599339D01*
X139367519Y-101833074D01*
X139224983Y-102099740D01*
X139137210Y-102389088D01*
X139115000Y-102614593D01*
X138685000Y-102614593D01*
X138685000Y-102614592D01*
X138662790Y-102389087D01*
X138575017Y-102099739D01*
X138432481Y-101833073D01*
X138240661Y-101599339D01*
X138006926Y-101407519D01*
X137985000Y-101395799D01*
X137985000Y-96087404D01*
X138049068Y-95932729D01*
X138085000Y-95752089D01*
X138085000Y-95567911D01*
X138049068Y-95387271D01*
X137978586Y-95217111D01*
X137876262Y-95063972D01*
X137746028Y-94933738D01*
X137592889Y-94831414D01*
X137422729Y-94760932D01*
X137242089Y-94725000D01*
X137057911Y-94725000D01*
X136877271Y-94760932D01*
X136707111Y-94831414D01*
X136553972Y-94933738D01*
X136423738Y-95063972D01*
X136321414Y-95217111D01*
X136250932Y-95387271D01*
X136215000Y-95567911D01*
X136215000Y-95752089D01*
X136250932Y-95932729D01*
X136315000Y-96087404D01*
X136315001Y-101395798D01*
X136293073Y-101407519D01*
X136059339Y-101599339D01*
X135867519Y-101833074D01*
X135724983Y-102099740D01*
X135637210Y-102389088D01*
X135615000Y-102614593D01*
X124183525Y-102614593D01*
X124241270Y-102544231D01*
X124367555Y-102307968D01*
X124445322Y-102051606D01*
X124465000Y-101851808D01*
X124465000Y-101168191D01*
X124445322Y-100968393D01*
X124367555Y-100712032D01*
X124241270Y-100475769D01*
X124071317Y-100268682D01*
X123864230Y-100098730D01*
X123627967Y-99972445D01*
X123371606Y-99894678D01*
X123105000Y-99868420D01*
X122838393Y-99894678D01*
X122582032Y-99972445D01*
X122345769Y-100098730D01*
X122138682Y-100268683D01*
X121968730Y-100475770D01*
X121842445Y-100712033D01*
X121764678Y-100968394D01*
X121745000Y-101168192D01*
X117015000Y-101168192D01*
X117015000Y-101168191D01*
X116995322Y-100968393D01*
X116917555Y-100712032D01*
X116791270Y-100475769D01*
X116621317Y-100268682D01*
X116414230Y-100098730D01*
X116177967Y-99972445D01*
X115921606Y-99894678D01*
X115655000Y-99868420D01*
X115388393Y-99894678D01*
X115132032Y-99972445D01*
X114895769Y-100098730D01*
X114688682Y-100268683D01*
X114518730Y-100475770D01*
X114392445Y-100712033D01*
X114314678Y-100968394D01*
X114295000Y-101168192D01*
X113865000Y-101168192D01*
X113865000Y-86413740D01*
X114765000Y-86413740D01*
X114765000Y-86706260D01*
X114822068Y-86993158D01*
X114934010Y-87263411D01*
X115096525Y-87506632D01*
X115303368Y-87713475D01*
X115546589Y-87875990D01*
X115816842Y-87987932D01*
X116103740Y-88045000D01*
X116396260Y-88045000D01*
X116683158Y-87987932D01*
X116953411Y-87875990D01*
X117196632Y-87713475D01*
X117403475Y-87506632D01*
X117565990Y-87263411D01*
X117677932Y-86993158D01*
X117735000Y-86706260D01*
X117735000Y-86413740D01*
X117677932Y-86126842D01*
X117565990Y-85856589D01*
X117403475Y-85613368D01*
X117196632Y-85406525D01*
X116953411Y-85244010D01*
X116683158Y-85132068D01*
X116396260Y-85075000D01*
X116103740Y-85075000D01*
X115816842Y-85132068D01*
X115546589Y-85244010D01*
X115303368Y-85406525D01*
X115096525Y-85613368D01*
X114934010Y-85856589D01*
X114822068Y-86126842D01*
X114765000Y-86413740D01*
X113865000Y-86413740D01*
X113865000Y-50150000D01*
X114761928Y-50150000D01*
X114761928Y-51850000D01*
X114774188Y-51974482D01*
X114810498Y-52094180D01*
X114869463Y-52204494D01*
X114948815Y-52301185D01*
X115045506Y-52380537D01*
X115155820Y-52439502D01*
X115228380Y-52461513D01*
X115096525Y-52593368D01*
X114934010Y-52836589D01*
X114822068Y-53106842D01*
X114765000Y-53393740D01*
X114765000Y-53686260D01*
X114822068Y-53973158D01*
X114934010Y-54243411D01*
X115096525Y-54486632D01*
X115303368Y-54693475D01*
X115477760Y-54810000D01*
X115303368Y-54926525D01*
X115096525Y-55133368D01*
X114934010Y-55376589D01*
X114822068Y-55646842D01*
X114765000Y-55933740D01*
X114765000Y-56226260D01*
X114822068Y-56513158D01*
X114934010Y-56783411D01*
X115096525Y-57026632D01*
X115303368Y-57233475D01*
X115477760Y-57350000D01*
X115303368Y-57466525D01*
X115096525Y-57673368D01*
X114934010Y-57916589D01*
X114822068Y-58186842D01*
X114765000Y-58473740D01*
X114765000Y-58766260D01*
X114822068Y-59053158D01*
X114934010Y-59323411D01*
X115096525Y-59566632D01*
X115303368Y-59773475D01*
X115477760Y-59890000D01*
X115303368Y-60006525D01*
X115096525Y-60213368D01*
X114934010Y-60456589D01*
X114822068Y-60726842D01*
X114765000Y-61013740D01*
X114765000Y-61306260D01*
X114822068Y-61593158D01*
X114934010Y-61863411D01*
X115096525Y-62106632D01*
X115303368Y-62313475D01*
X115477760Y-62430000D01*
X115303368Y-62546525D01*
X115096525Y-62753368D01*
X114934010Y-62996589D01*
X114822068Y-63266842D01*
X114765000Y-63553740D01*
X114765000Y-63846260D01*
X114822068Y-64133158D01*
X114934010Y-64403411D01*
X115096525Y-64646632D01*
X115303368Y-64853475D01*
X115477760Y-64970000D01*
X115303368Y-65086525D01*
X115096525Y-65293368D01*
X114934010Y-65536589D01*
X114822068Y-65806842D01*
X114765000Y-66093740D01*
X114765000Y-66386260D01*
X114822068Y-66673158D01*
X114934010Y-66943411D01*
X115096525Y-67186632D01*
X115303368Y-67393475D01*
X115477760Y-67510000D01*
X115303368Y-67626525D01*
X115096525Y-67833368D01*
X114934010Y-68076589D01*
X114822068Y-68346842D01*
X114765000Y-68633740D01*
X114765000Y-68926260D01*
X114822068Y-69213158D01*
X114934010Y-69483411D01*
X115096525Y-69726632D01*
X115303368Y-69933475D01*
X115477760Y-70050000D01*
X115303368Y-70166525D01*
X115096525Y-70373368D01*
X114934010Y-70616589D01*
X114822068Y-70886842D01*
X114765000Y-71173740D01*
X114765000Y-71466260D01*
X114822068Y-71753158D01*
X114934010Y-72023411D01*
X115096525Y-72266632D01*
X115303368Y-72473475D01*
X115477760Y-72590000D01*
X115303368Y-72706525D01*
X115096525Y-72913368D01*
X114934010Y-73156589D01*
X114822068Y-73426842D01*
X114765000Y-73713740D01*
X114765000Y-74006260D01*
X114822068Y-74293158D01*
X114934010Y-74563411D01*
X115096525Y-74806632D01*
X115303368Y-75013475D01*
X115477760Y-75130000D01*
X115303368Y-75246525D01*
X115096525Y-75453368D01*
X114934010Y-75696589D01*
X114822068Y-75966842D01*
X114765000Y-76253740D01*
X114765000Y-76546260D01*
X114822068Y-76833158D01*
X114934010Y-77103411D01*
X115096525Y-77346632D01*
X115303368Y-77553475D01*
X115477760Y-77670000D01*
X115303368Y-77786525D01*
X115096525Y-77993368D01*
X114934010Y-78236589D01*
X114822068Y-78506842D01*
X114765000Y-78793740D01*
X114765000Y-79086260D01*
X114822068Y-79373158D01*
X114934010Y-79643411D01*
X115096525Y-79886632D01*
X115303368Y-80093475D01*
X115477760Y-80210000D01*
X115303368Y-80326525D01*
X115096525Y-80533368D01*
X114934010Y-80776589D01*
X114822068Y-81046842D01*
X114765000Y-81333740D01*
X114765000Y-81626260D01*
X114822068Y-81913158D01*
X114934010Y-82183411D01*
X115096525Y-82426632D01*
X115303368Y-82633475D01*
X115546589Y-82795990D01*
X115816842Y-82907932D01*
X116103740Y-82965000D01*
X116396260Y-82965000D01*
X116683158Y-82907932D01*
X116953411Y-82795990D01*
X117196632Y-82633475D01*
X117403475Y-82426632D01*
X117565990Y-82183411D01*
X117677932Y-81913158D01*
X117735000Y-81626260D01*
X117735000Y-81333740D01*
X117677932Y-81046842D01*
X117565990Y-80776589D01*
X117403475Y-80533368D01*
X117196632Y-80326525D01*
X117022240Y-80210000D01*
X117196632Y-80093475D01*
X117403475Y-79886632D01*
X117565990Y-79643411D01*
X117677932Y-79373158D01*
X117735000Y-79086260D01*
X117735000Y-78793740D01*
X117677932Y-78506842D01*
X117565990Y-78236589D01*
X117403475Y-77993368D01*
X117196632Y-77786525D01*
X117022240Y-77670000D01*
X117196632Y-77553475D01*
X117403475Y-77346632D01*
X117565990Y-77103411D01*
X117677932Y-76833158D01*
X117735000Y-76546260D01*
X117735000Y-76253740D01*
X117677932Y-75966842D01*
X117565990Y-75696589D01*
X117403475Y-75453368D01*
X117196632Y-75246525D01*
X117022240Y-75130000D01*
X117196632Y-75013475D01*
X117403475Y-74806632D01*
X117565990Y-74563411D01*
X117677932Y-74293158D01*
X117735000Y-74006260D01*
X117735000Y-73713740D01*
X117677932Y-73426842D01*
X117565990Y-73156589D01*
X117403475Y-72913368D01*
X117196632Y-72706525D01*
X117022240Y-72590000D01*
X117196632Y-72473475D01*
X117403475Y-72266632D01*
X117565990Y-72023411D01*
X117677932Y-71753158D01*
X117735000Y-71466260D01*
X117735000Y-71173740D01*
X117677932Y-70886842D01*
X117565990Y-70616589D01*
X117403475Y-70373368D01*
X117196632Y-70166525D01*
X117022240Y-70050000D01*
X117196632Y-69933475D01*
X117403475Y-69726632D01*
X117565990Y-69483411D01*
X117677932Y-69213158D01*
X117735000Y-68926260D01*
X117735000Y-68633740D01*
X117677932Y-68346842D01*
X117565990Y-68076589D01*
X117403475Y-67833368D01*
X117196632Y-67626525D01*
X117022240Y-67510000D01*
X117196632Y-67393475D01*
X117403475Y-67186632D01*
X117565990Y-66943411D01*
X117677932Y-66673158D01*
X117735000Y-66386260D01*
X117735000Y-66093740D01*
X117677932Y-65806842D01*
X117565990Y-65536589D01*
X117403475Y-65293368D01*
X117196632Y-65086525D01*
X117022240Y-64970000D01*
X117196632Y-64853475D01*
X117403475Y-64646632D01*
X117565990Y-64403411D01*
X117677932Y-64133158D01*
X117735000Y-63846260D01*
X117735000Y-63553740D01*
X117677932Y-63266842D01*
X117565990Y-62996589D01*
X117403475Y-62753368D01*
X117196632Y-62546525D01*
X117022240Y-62430000D01*
X117196632Y-62313475D01*
X117403475Y-62106632D01*
X117565990Y-61863411D01*
X117677932Y-61593158D01*
X117735000Y-61306260D01*
X117735000Y-61013740D01*
X117677932Y-60726842D01*
X117565990Y-60456589D01*
X117403475Y-60213368D01*
X117196632Y-60006525D01*
X117022240Y-59890000D01*
X117196632Y-59773475D01*
X117403475Y-59566632D01*
X117565990Y-59323411D01*
X117677932Y-59053158D01*
X117735000Y-58766260D01*
X117735000Y-58473740D01*
X117677932Y-58186842D01*
X117565990Y-57916589D01*
X117403475Y-57673368D01*
X117196632Y-57466525D01*
X117022240Y-57350000D01*
X117196632Y-57233475D01*
X117403475Y-57026632D01*
X117565990Y-56783411D01*
X117677932Y-56513158D01*
X117735000Y-56226260D01*
X117735000Y-55933740D01*
X117677932Y-55646842D01*
X117565990Y-55376589D01*
X117403475Y-55133368D01*
X117196632Y-54926525D01*
X117022240Y-54810000D01*
X117196632Y-54693475D01*
X117403475Y-54486632D01*
X117565990Y-54243411D01*
X117677932Y-53973158D01*
X117735000Y-53686260D01*
X117735000Y-53393740D01*
X117677932Y-53106842D01*
X117565990Y-52836589D01*
X117403475Y-52593368D01*
X117271620Y-52461513D01*
X117344180Y-52439502D01*
X117454494Y-52380537D01*
X117551185Y-52301185D01*
X117630537Y-52204494D01*
X117689502Y-52094180D01*
X117725812Y-51974482D01*
X117738072Y-51850000D01*
X117738072Y-51013740D01*
X121165000Y-51013740D01*
X121165000Y-51306260D01*
X121222068Y-51593158D01*
X121334010Y-51863411D01*
X121496525Y-52106632D01*
X121703368Y-52313475D01*
X121946589Y-52475990D01*
X122216842Y-52587932D01*
X122503740Y-52645000D01*
X122796260Y-52645000D01*
X123083158Y-52587932D01*
X123353411Y-52475990D01*
X123596632Y-52313475D01*
X123803475Y-52106632D01*
X123920000Y-51932240D01*
X124036525Y-52106632D01*
X124243368Y-52313475D01*
X124486589Y-52475990D01*
X124756842Y-52587932D01*
X125043740Y-52645000D01*
X125336260Y-52645000D01*
X125623158Y-52587932D01*
X125893411Y-52475990D01*
X126136632Y-52313475D01*
X126343475Y-52106632D01*
X126460000Y-51932240D01*
X126576525Y-52106632D01*
X126783368Y-52313475D01*
X127026589Y-52475990D01*
X127296842Y-52587932D01*
X127583740Y-52645000D01*
X127876260Y-52645000D01*
X128163158Y-52587932D01*
X128433411Y-52475990D01*
X128676632Y-52313475D01*
X128883475Y-52106632D01*
X129000000Y-51932240D01*
X129116525Y-52106632D01*
X129323368Y-52313475D01*
X129566589Y-52475990D01*
X129675001Y-52520895D01*
X129675000Y-54247911D01*
X129675000Y-54432089D01*
X129684005Y-54477360D01*
X129688529Y-54523291D01*
X129701927Y-54567459D01*
X129710932Y-54612729D01*
X129728595Y-54655372D01*
X129741993Y-54699539D01*
X129763750Y-54740243D01*
X129781414Y-54782889D01*
X129807058Y-54821268D01*
X129828814Y-54861971D01*
X129858094Y-54897649D01*
X129883738Y-54936028D01*
X129916376Y-54968666D01*
X129945656Y-55004344D01*
X129981335Y-55033625D01*
X130013972Y-55066262D01*
X130052347Y-55091903D01*
X130088028Y-55121186D01*
X130128736Y-55142945D01*
X130167111Y-55168586D01*
X130209752Y-55186248D01*
X130250460Y-55208007D01*
X130294631Y-55221406D01*
X130337271Y-55239068D01*
X130382538Y-55248072D01*
X130426708Y-55261471D01*
X130472641Y-55265995D01*
X130517911Y-55275000D01*
X130564068Y-55275000D01*
X130610000Y-55279524D01*
X130655932Y-55275000D01*
X130702089Y-55275000D01*
X130747360Y-55265995D01*
X130793291Y-55261471D01*
X130837459Y-55248073D01*
X130882729Y-55239068D01*
X130925372Y-55221405D01*
X130969539Y-55208007D01*
X131010243Y-55186250D01*
X131052889Y-55168586D01*
X131091268Y-55142942D01*
X131131971Y-55121186D01*
X131167649Y-55091906D01*
X131206028Y-55066262D01*
X131238666Y-55033624D01*
X131274344Y-55004344D01*
X131303625Y-54968665D01*
X131336262Y-54936028D01*
X131361903Y-54897653D01*
X131391186Y-54861972D01*
X131412945Y-54821264D01*
X131438586Y-54782889D01*
X131456248Y-54740248D01*
X131478007Y-54699540D01*
X131491406Y-54655369D01*
X131509068Y-54612729D01*
X131518072Y-54567462D01*
X131531471Y-54523292D01*
X131535995Y-54477359D01*
X131545000Y-54432089D01*
X131545000Y-51939723D01*
X131656525Y-52106632D01*
X131863368Y-52313475D01*
X132106589Y-52475990D01*
X132376842Y-52587932D01*
X132663740Y-52645000D01*
X132956260Y-52645000D01*
X133243158Y-52587932D01*
X133513411Y-52475990D01*
X133756632Y-52313475D01*
X133963475Y-52106632D01*
X134125990Y-51863411D01*
X134237932Y-51593158D01*
X134295000Y-51306260D01*
X134295000Y-51013740D01*
X134237932Y-50726842D01*
X134125990Y-50456589D01*
X133963475Y-50213368D01*
X133900107Y-50150000D01*
X140361928Y-50150000D01*
X140361928Y-51850000D01*
X140374188Y-51974482D01*
X140410498Y-52094180D01*
X140469463Y-52204494D01*
X140548815Y-52301185D01*
X140645506Y-52380537D01*
X140755820Y-52439502D01*
X140828380Y-52461513D01*
X140696525Y-52593368D01*
X140534010Y-52836589D01*
X140422068Y-53106842D01*
X140365000Y-53393740D01*
X140365000Y-53686260D01*
X140422068Y-53973158D01*
X140534010Y-54243411D01*
X140696525Y-54486632D01*
X140903368Y-54693475D01*
X141077760Y-54810000D01*
X140903368Y-54926525D01*
X140696525Y-55133368D01*
X140534010Y-55376589D01*
X140422068Y-55646842D01*
X140365000Y-55933740D01*
X140365000Y-56226260D01*
X140422068Y-56513158D01*
X140534010Y-56783411D01*
X140696525Y-57026632D01*
X140903368Y-57233475D01*
X141077760Y-57350000D01*
X140903368Y-57466525D01*
X140696525Y-57673368D01*
X140534010Y-57916589D01*
X140422068Y-58186842D01*
X140365000Y-58473740D01*
X140365000Y-58766260D01*
X140422068Y-59053158D01*
X140534010Y-59323411D01*
X140696525Y-59566632D01*
X140903368Y-59773475D01*
X141077760Y-59890000D01*
X140903368Y-60006525D01*
X140696525Y-60213368D01*
X140534010Y-60456589D01*
X140422068Y-60726842D01*
X140365000Y-61013740D01*
X140365000Y-61306260D01*
X140422068Y-61593158D01*
X140534010Y-61863411D01*
X140696525Y-62106632D01*
X140903368Y-62313475D01*
X141077760Y-62430000D01*
X140903368Y-62546525D01*
X140696525Y-62753368D01*
X140534010Y-62996589D01*
X140422068Y-63266842D01*
X140365000Y-63553740D01*
X140365000Y-63846260D01*
X140422068Y-64133158D01*
X140534010Y-64403411D01*
X140696525Y-64646632D01*
X140903368Y-64853475D01*
X141077760Y-64970000D01*
X140903368Y-65086525D01*
X140696525Y-65293368D01*
X140534010Y-65536589D01*
X140422068Y-65806842D01*
X140365000Y-66093740D01*
X140365000Y-66386260D01*
X140422068Y-66673158D01*
X140534010Y-66943411D01*
X140696525Y-67186632D01*
X140903368Y-67393475D01*
X141077760Y-67510000D01*
X140903368Y-67626525D01*
X140696525Y-67833368D01*
X140534010Y-68076589D01*
X140422068Y-68346842D01*
X140365000Y-68633740D01*
X140365000Y-68926260D01*
X140422068Y-69213158D01*
X140534010Y-69483411D01*
X140696525Y-69726632D01*
X140903368Y-69933475D01*
X141077760Y-70050000D01*
X140903368Y-70166525D01*
X140696525Y-70373368D01*
X140534010Y-70616589D01*
X140422068Y-70886842D01*
X140365000Y-71173740D01*
X140365000Y-71466260D01*
X140422068Y-71753158D01*
X140534010Y-72023411D01*
X140696525Y-72266632D01*
X140903368Y-72473475D01*
X141077760Y-72590000D01*
X140903368Y-72706525D01*
X140696525Y-72913368D01*
X140534010Y-73156589D01*
X140422068Y-73426842D01*
X140365000Y-73713740D01*
X140365000Y-74006260D01*
X140422068Y-74293158D01*
X140534010Y-74563411D01*
X140696525Y-74806632D01*
X140903368Y-75013475D01*
X141077760Y-75130000D01*
X140903368Y-75246525D01*
X140696525Y-75453368D01*
X140534010Y-75696589D01*
X140422068Y-75966842D01*
X140365000Y-76253740D01*
X140365000Y-76546260D01*
X140422068Y-76833158D01*
X140534010Y-77103411D01*
X140696525Y-77346632D01*
X140903368Y-77553475D01*
X141077760Y-77670000D01*
X140903368Y-77786525D01*
X140696525Y-77993368D01*
X140534010Y-78236589D01*
X140422068Y-78506842D01*
X140365000Y-78793740D01*
X140365000Y-79086260D01*
X140422068Y-79373158D01*
X140534010Y-79643411D01*
X140696525Y-79886632D01*
X140903368Y-80093475D01*
X141077760Y-80210000D01*
X140903368Y-80326525D01*
X140696525Y-80533368D01*
X140534010Y-80776589D01*
X140422068Y-81046842D01*
X140365000Y-81333740D01*
X140365000Y-81626260D01*
X140422068Y-81913158D01*
X140534010Y-82183411D01*
X140696525Y-82426632D01*
X140903368Y-82633475D01*
X141077760Y-82750000D01*
X140903368Y-82866525D01*
X140696525Y-83073368D01*
X140534010Y-83316589D01*
X140422068Y-83586842D01*
X140365000Y-83873740D01*
X140365000Y-84166260D01*
X140422068Y-84453158D01*
X140534010Y-84723411D01*
X140696525Y-84966632D01*
X140903368Y-85173475D01*
X141077760Y-85290000D01*
X140903368Y-85406525D01*
X140696525Y-85613368D01*
X140534010Y-85856589D01*
X140422068Y-86126842D01*
X140365000Y-86413740D01*
X140365000Y-86706260D01*
X140422068Y-86993158D01*
X140534010Y-87263411D01*
X140696525Y-87506632D01*
X140903368Y-87713475D01*
X141146589Y-87875990D01*
X141416842Y-87987932D01*
X141703740Y-88045000D01*
X141996260Y-88045000D01*
X142283158Y-87987932D01*
X142553411Y-87875990D01*
X142796632Y-87713475D01*
X143003475Y-87506632D01*
X143165990Y-87263411D01*
X143277932Y-86993158D01*
X143335000Y-86706260D01*
X143335000Y-86413740D01*
X143277932Y-86126842D01*
X143165990Y-85856589D01*
X143003475Y-85613368D01*
X142796632Y-85406525D01*
X142622240Y-85290000D01*
X142796632Y-85173475D01*
X143003475Y-84966632D01*
X143165990Y-84723411D01*
X143277932Y-84453158D01*
X143335000Y-84166260D01*
X143335000Y-83873740D01*
X143277932Y-83586842D01*
X143165990Y-83316589D01*
X143003475Y-83073368D01*
X142796632Y-82866525D01*
X142622240Y-82750000D01*
X142796632Y-82633475D01*
X143003475Y-82426632D01*
X143165990Y-82183411D01*
X143277932Y-81913158D01*
X143335000Y-81626260D01*
X143335000Y-81333740D01*
X143277932Y-81046842D01*
X143165990Y-80776589D01*
X143003475Y-80533368D01*
X142796632Y-80326525D01*
X142622240Y-80210000D01*
X142796632Y-80093475D01*
X143003475Y-79886632D01*
X143165990Y-79643411D01*
X143277932Y-79373158D01*
X143335000Y-79086260D01*
X143335000Y-78793740D01*
X143277932Y-78506842D01*
X143165990Y-78236589D01*
X143003475Y-77993368D01*
X142796632Y-77786525D01*
X142622240Y-77670000D01*
X142796632Y-77553475D01*
X143003475Y-77346632D01*
X143165990Y-77103411D01*
X143277932Y-76833158D01*
X143335000Y-76546260D01*
X143335000Y-76253740D01*
X143277932Y-75966842D01*
X143165990Y-75696589D01*
X143003475Y-75453368D01*
X142796632Y-75246525D01*
X142622240Y-75130000D01*
X142796632Y-75013475D01*
X143003475Y-74806632D01*
X143165990Y-74563411D01*
X143277932Y-74293158D01*
X143335000Y-74006260D01*
X143335000Y-73713740D01*
X143277932Y-73426842D01*
X143165990Y-73156589D01*
X143003475Y-72913368D01*
X142796632Y-72706525D01*
X142622240Y-72590000D01*
X142796632Y-72473475D01*
X143003475Y-72266632D01*
X143165990Y-72023411D01*
X143277932Y-71753158D01*
X143335000Y-71466260D01*
X143335000Y-71173740D01*
X143277932Y-70886842D01*
X143165990Y-70616589D01*
X143003475Y-70373368D01*
X142796632Y-70166525D01*
X142622240Y-70050000D01*
X142796632Y-69933475D01*
X143003475Y-69726632D01*
X143165990Y-69483411D01*
X143277932Y-69213158D01*
X143335000Y-68926260D01*
X143335000Y-68633740D01*
X143277932Y-68346842D01*
X143165990Y-68076589D01*
X143003475Y-67833368D01*
X142796632Y-67626525D01*
X142622240Y-67510000D01*
X142796632Y-67393475D01*
X143003475Y-67186632D01*
X143165990Y-66943411D01*
X143277932Y-66673158D01*
X143335000Y-66386260D01*
X143335000Y-66093740D01*
X143277932Y-65806842D01*
X143165990Y-65536589D01*
X143003475Y-65293368D01*
X142796632Y-65086525D01*
X142622240Y-64970000D01*
X142796632Y-64853475D01*
X143003475Y-64646632D01*
X143165990Y-64403411D01*
X143277932Y-64133158D01*
X143335000Y-63846260D01*
X143335000Y-63553740D01*
X143277932Y-63266842D01*
X143165990Y-62996589D01*
X143003475Y-62753368D01*
X142796632Y-62546525D01*
X142622240Y-62430000D01*
X142796632Y-62313475D01*
X143003475Y-62106632D01*
X143165990Y-61863411D01*
X143277932Y-61593158D01*
X143335000Y-61306260D01*
X143335000Y-61013740D01*
X143277932Y-60726842D01*
X143165990Y-60456589D01*
X143003475Y-60213368D01*
X142796632Y-60006525D01*
X142622240Y-59890000D01*
X142796632Y-59773475D01*
X143003475Y-59566632D01*
X143165990Y-59323411D01*
X143277932Y-59053158D01*
X143335000Y-58766260D01*
X143335000Y-58473740D01*
X143277932Y-58186842D01*
X143165990Y-57916589D01*
X143003475Y-57673368D01*
X142796632Y-57466525D01*
X142622240Y-57350000D01*
X142796632Y-57233475D01*
X143003475Y-57026632D01*
X143165990Y-56783411D01*
X143277932Y-56513158D01*
X143335000Y-56226260D01*
X143335000Y-55933740D01*
X143277932Y-55646842D01*
X143165990Y-55376589D01*
X143003475Y-55133368D01*
X142796632Y-54926525D01*
X142622240Y-54810000D01*
X142796632Y-54693475D01*
X143003475Y-54486632D01*
X143165990Y-54243411D01*
X143277932Y-53973158D01*
X143335000Y-53686260D01*
X143335000Y-53393740D01*
X143277932Y-53106842D01*
X143165990Y-52836589D01*
X143003475Y-52593368D01*
X142871620Y-52461513D01*
X142944180Y-52439502D01*
X143054494Y-52380537D01*
X143151185Y-52301185D01*
X143230537Y-52204494D01*
X143289502Y-52094180D01*
X143325812Y-51974482D01*
X143338072Y-51850000D01*
X143338072Y-50150000D01*
X143325812Y-50025518D01*
X143289502Y-49905820D01*
X143230537Y-49795506D01*
X143151185Y-49698815D01*
X143054494Y-49619463D01*
X142944180Y-49560498D01*
X142824482Y-49524188D01*
X142700000Y-49511928D01*
X141000000Y-49511928D01*
X140875518Y-49524188D01*
X140755820Y-49560498D01*
X140645506Y-49619463D01*
X140548815Y-49698815D01*
X140469463Y-49795506D01*
X140410498Y-49905820D01*
X140374188Y-50025518D01*
X140361928Y-50150000D01*
X133900107Y-50150000D01*
X133756632Y-50006525D01*
X133513411Y-49844010D01*
X133243158Y-49732068D01*
X132956260Y-49675000D01*
X132663740Y-49675000D01*
X132376842Y-49732068D01*
X132106589Y-49844010D01*
X131863368Y-50006525D01*
X131656525Y-50213368D01*
X131540000Y-50387760D01*
X131423475Y-50213368D01*
X131216632Y-50006525D01*
X130973411Y-49844010D01*
X130703158Y-49732068D01*
X130416260Y-49675000D01*
X130123740Y-49675000D01*
X129836842Y-49732068D01*
X129566589Y-49844010D01*
X129323368Y-50006525D01*
X129116525Y-50213368D01*
X129000000Y-50387760D01*
X128883475Y-50213368D01*
X128676632Y-50006525D01*
X128433411Y-49844010D01*
X128163158Y-49732068D01*
X127876260Y-49675000D01*
X127583740Y-49675000D01*
X127296842Y-49732068D01*
X127026589Y-49844010D01*
X126783368Y-50006525D01*
X126576525Y-50213368D01*
X126460000Y-50387760D01*
X126343475Y-50213368D01*
X126136632Y-50006525D01*
X125893411Y-49844010D01*
X125623158Y-49732068D01*
X125336260Y-49675000D01*
X125043740Y-49675000D01*
X124756842Y-49732068D01*
X124486589Y-49844010D01*
X124243368Y-50006525D01*
X124036525Y-50213368D01*
X123920000Y-50387760D01*
X123803475Y-50213368D01*
X123596632Y-50006525D01*
X123353411Y-49844010D01*
X123083158Y-49732068D01*
X122796260Y-49675000D01*
X122503740Y-49675000D01*
X122216842Y-49732068D01*
X121946589Y-49844010D01*
X121703368Y-50006525D01*
X121496525Y-50213368D01*
X121334010Y-50456589D01*
X121222068Y-50726842D01*
X121165000Y-51013740D01*
X117738072Y-51013740D01*
X117738072Y-50150000D01*
X117725812Y-50025518D01*
X117689502Y-49905820D01*
X117630537Y-49795506D01*
X117551185Y-49698815D01*
X117454494Y-49619463D01*
X117344180Y-49560498D01*
X117224482Y-49524188D01*
X117100000Y-49511928D01*
X115400000Y-49511928D01*
X115275518Y-49524188D01*
X115155820Y-49560498D01*
X115045506Y-49619463D01*
X114948815Y-49698815D01*
X114869463Y-49795506D01*
X114810498Y-49905820D01*
X114774188Y-50025518D01*
X114761928Y-50150000D01*
X113865000Y-50150000D01*
X113865000Y-49265000D01*
X143485000Y-49265000D01*
X143485001Y-106515000D01*
%TA.AperFunction,Conductor*%
D19*
G36*
X143485001Y-106515000D02*
G01*
X124090051Y-106515000D01*
X124114739Y-106494739D01*
X124265946Y-106310492D01*
X124378303Y-106100287D01*
X124447492Y-105872200D01*
X124465000Y-105694436D01*
X124465000Y-104925563D01*
X124447492Y-104747799D01*
X124378303Y-104519713D01*
X124265946Y-104309508D01*
X124114739Y-104125261D01*
X123930491Y-103974054D01*
X123720286Y-103861697D01*
X123492200Y-103792508D01*
X123255000Y-103769146D01*
X123017799Y-103792508D01*
X122789713Y-103861697D01*
X122579508Y-103974054D01*
X122395261Y-104125261D01*
X122244054Y-104309509D01*
X122131697Y-104519714D01*
X122062508Y-104747800D01*
X122045000Y-104925564D01*
X122045000Y-105694437D01*
X122062508Y-105872201D01*
X122131697Y-106100287D01*
X122244055Y-106310492D01*
X122395262Y-106494739D01*
X122419950Y-106515000D01*
X116340051Y-106515000D01*
X116364739Y-106494739D01*
X116515946Y-106310492D01*
X116628303Y-106100287D01*
X116697492Y-105872200D01*
X116715000Y-105694436D01*
X116715000Y-104925563D01*
X116697492Y-104747799D01*
X116628303Y-104519713D01*
X116515946Y-104309508D01*
X116364739Y-104125261D01*
X116180491Y-103974054D01*
X115970286Y-103861697D01*
X115742200Y-103792508D01*
X115505000Y-103769146D01*
X115267799Y-103792508D01*
X115039713Y-103861697D01*
X114829508Y-103974054D01*
X114645261Y-104125261D01*
X114494054Y-104309509D01*
X114381697Y-104519714D01*
X114312508Y-104747800D01*
X114295000Y-104925564D01*
X114295000Y-105213006D01*
X114172889Y-105131414D01*
X114002729Y-105060932D01*
X113865000Y-105033536D01*
X113865000Y-101168192D01*
X114295000Y-101168192D01*
X114295000Y-101851809D01*
X114314678Y-102051607D01*
X114392445Y-102307968D01*
X114518730Y-102544231D01*
X114688683Y-102751318D01*
X114895770Y-102921270D01*
X115132033Y-103047555D01*
X115388394Y-103125322D01*
X115655000Y-103151580D01*
X115921607Y-103125322D01*
X116177968Y-103047555D01*
X116414231Y-102921270D01*
X116621318Y-102751318D01*
X116791270Y-102544231D01*
X116917555Y-102307968D01*
X116995322Y-102051606D01*
X117015000Y-101851808D01*
X117015000Y-101168192D01*
X121745000Y-101168192D01*
X121745000Y-101851809D01*
X121764678Y-102051607D01*
X121842445Y-102307968D01*
X121968730Y-102544231D01*
X122138683Y-102751318D01*
X122345770Y-102921270D01*
X122582033Y-103047555D01*
X122838394Y-103125322D01*
X123105000Y-103151580D01*
X123371607Y-103125322D01*
X123627968Y-103047555D01*
X123864231Y-102921270D01*
X124071318Y-102751318D01*
X124183525Y-102614593D01*
X135615000Y-102614593D01*
X135615000Y-104565408D01*
X135637211Y-104790913D01*
X135724984Y-105080261D01*
X135867520Y-105346927D01*
X136059340Y-105580661D01*
X136293074Y-105772481D01*
X136559740Y-105915017D01*
X136849088Y-106002790D01*
X137150000Y-106032427D01*
X137450913Y-106002790D01*
X137740261Y-105915017D01*
X138006927Y-105772481D01*
X138240661Y-105580661D01*
X138432481Y-105346927D01*
X138575017Y-105080261D01*
X138662790Y-104790913D01*
X138685000Y-104565408D01*
X138685000Y-102614593D01*
X139115000Y-102614593D01*
X139115000Y-104565408D01*
X139137211Y-104790913D01*
X139224984Y-105080261D01*
X139367520Y-105346927D01*
X139559340Y-105580661D01*
X139793074Y-105772481D01*
X140059740Y-105915017D01*
X140349088Y-106002790D01*
X140650000Y-106032427D01*
X140950913Y-106002790D01*
X141240261Y-105915017D01*
X141506927Y-105772481D01*
X141740661Y-105580661D01*
X141932481Y-105346927D01*
X142075017Y-105080261D01*
X142162790Y-104790913D01*
X142185000Y-104565408D01*
X142185000Y-102614592D01*
X142162790Y-102389087D01*
X142075017Y-102099739D01*
X141932481Y-101833073D01*
X141740661Y-101599339D01*
X141506926Y-101407519D01*
X141240260Y-101264983D01*
X140950912Y-101177210D01*
X140650000Y-101147573D01*
X140349087Y-101177210D01*
X140059739Y-101264983D01*
X139793073Y-101407519D01*
X139559339Y-101599339D01*
X139367519Y-101833074D01*
X139224983Y-102099740D01*
X139137210Y-102389088D01*
X139115000Y-102614593D01*
X138685000Y-102614593D01*
X138685000Y-102614592D01*
X138662790Y-102389087D01*
X138575017Y-102099739D01*
X138432481Y-101833073D01*
X138240661Y-101599339D01*
X138006926Y-101407519D01*
X137985000Y-101395799D01*
X137985000Y-96087404D01*
X138049068Y-95932729D01*
X138085000Y-95752089D01*
X138085000Y-95567911D01*
X138049068Y-95387271D01*
X137978586Y-95217111D01*
X137876262Y-95063972D01*
X137746028Y-94933738D01*
X137592889Y-94831414D01*
X137422729Y-94760932D01*
X137242089Y-94725000D01*
X137057911Y-94725000D01*
X136877271Y-94760932D01*
X136707111Y-94831414D01*
X136553972Y-94933738D01*
X136423738Y-95063972D01*
X136321414Y-95217111D01*
X136250932Y-95387271D01*
X136215000Y-95567911D01*
X136215000Y-95752089D01*
X136250932Y-95932729D01*
X136315000Y-96087404D01*
X136315001Y-101395798D01*
X136293073Y-101407519D01*
X136059339Y-101599339D01*
X135867519Y-101833074D01*
X135724983Y-102099740D01*
X135637210Y-102389088D01*
X135615000Y-102614593D01*
X124183525Y-102614593D01*
X124241270Y-102544231D01*
X124367555Y-102307968D01*
X124445322Y-102051606D01*
X124465000Y-101851808D01*
X124465000Y-101168191D01*
X124445322Y-100968393D01*
X124367555Y-100712032D01*
X124241270Y-100475769D01*
X124071317Y-100268682D01*
X123864230Y-100098730D01*
X123627967Y-99972445D01*
X123371606Y-99894678D01*
X123105000Y-99868420D01*
X122838393Y-99894678D01*
X122582032Y-99972445D01*
X122345769Y-100098730D01*
X122138682Y-100268683D01*
X121968730Y-100475770D01*
X121842445Y-100712033D01*
X121764678Y-100968394D01*
X121745000Y-101168192D01*
X117015000Y-101168192D01*
X117015000Y-101168191D01*
X116995322Y-100968393D01*
X116917555Y-100712032D01*
X116791270Y-100475769D01*
X116621317Y-100268682D01*
X116414230Y-100098730D01*
X116177967Y-99972445D01*
X115921606Y-99894678D01*
X115655000Y-99868420D01*
X115388393Y-99894678D01*
X115132032Y-99972445D01*
X114895769Y-100098730D01*
X114688682Y-100268683D01*
X114518730Y-100475770D01*
X114392445Y-100712033D01*
X114314678Y-100968394D01*
X114295000Y-101168192D01*
X113865000Y-101168192D01*
X113865000Y-86413740D01*
X114765000Y-86413740D01*
X114765000Y-86706260D01*
X114822068Y-86993158D01*
X114934010Y-87263411D01*
X115096525Y-87506632D01*
X115303368Y-87713475D01*
X115546589Y-87875990D01*
X115816842Y-87987932D01*
X116103740Y-88045000D01*
X116396260Y-88045000D01*
X116683158Y-87987932D01*
X116953411Y-87875990D01*
X117196632Y-87713475D01*
X117403475Y-87506632D01*
X117565990Y-87263411D01*
X117677932Y-86993158D01*
X117735000Y-86706260D01*
X117735000Y-86413740D01*
X117677932Y-86126842D01*
X117565990Y-85856589D01*
X117403475Y-85613368D01*
X117196632Y-85406525D01*
X116953411Y-85244010D01*
X116683158Y-85132068D01*
X116396260Y-85075000D01*
X116103740Y-85075000D01*
X115816842Y-85132068D01*
X115546589Y-85244010D01*
X115303368Y-85406525D01*
X115096525Y-85613368D01*
X114934010Y-85856589D01*
X114822068Y-86126842D01*
X114765000Y-86413740D01*
X113865000Y-86413740D01*
X113865000Y-50150000D01*
X114761928Y-50150000D01*
X114761928Y-51850000D01*
X114774188Y-51974482D01*
X114810498Y-52094180D01*
X114869463Y-52204494D01*
X114948815Y-52301185D01*
X115045506Y-52380537D01*
X115155820Y-52439502D01*
X115228380Y-52461513D01*
X115096525Y-52593368D01*
X114934010Y-52836589D01*
X114822068Y-53106842D01*
X114765000Y-53393740D01*
X114765000Y-53686260D01*
X114822068Y-53973158D01*
X114934010Y-54243411D01*
X115096525Y-54486632D01*
X115303368Y-54693475D01*
X115477760Y-54810000D01*
X115303368Y-54926525D01*
X115096525Y-55133368D01*
X114934010Y-55376589D01*
X114822068Y-55646842D01*
X114765000Y-55933740D01*
X114765000Y-56226260D01*
X114822068Y-56513158D01*
X114934010Y-56783411D01*
X115096525Y-57026632D01*
X115303368Y-57233475D01*
X115477760Y-57350000D01*
X115303368Y-57466525D01*
X115096525Y-57673368D01*
X114934010Y-57916589D01*
X114822068Y-58186842D01*
X114765000Y-58473740D01*
X114765000Y-58766260D01*
X114822068Y-59053158D01*
X114934010Y-59323411D01*
X115096525Y-59566632D01*
X115303368Y-59773475D01*
X115477760Y-59890000D01*
X115303368Y-60006525D01*
X115096525Y-60213368D01*
X114934010Y-60456589D01*
X114822068Y-60726842D01*
X114765000Y-61013740D01*
X114765000Y-61306260D01*
X114822068Y-61593158D01*
X114934010Y-61863411D01*
X115096525Y-62106632D01*
X115303368Y-62313475D01*
X115477760Y-62430000D01*
X115303368Y-62546525D01*
X115096525Y-62753368D01*
X114934010Y-62996589D01*
X114822068Y-63266842D01*
X114765000Y-63553740D01*
X114765000Y-63846260D01*
X114822068Y-64133158D01*
X114934010Y-64403411D01*
X115096525Y-64646632D01*
X115303368Y-64853475D01*
X115477760Y-64970000D01*
X115303368Y-65086525D01*
X115096525Y-65293368D01*
X114934010Y-65536589D01*
X114822068Y-65806842D01*
X114765000Y-66093740D01*
X114765000Y-66386260D01*
X114822068Y-66673158D01*
X114934010Y-66943411D01*
X115096525Y-67186632D01*
X115303368Y-67393475D01*
X115477760Y-67510000D01*
X115303368Y-67626525D01*
X115096525Y-67833368D01*
X114934010Y-68076589D01*
X114822068Y-68346842D01*
X114765000Y-68633740D01*
X114765000Y-68926260D01*
X114822068Y-69213158D01*
X114934010Y-69483411D01*
X115096525Y-69726632D01*
X115303368Y-69933475D01*
X115477760Y-70050000D01*
X115303368Y-70166525D01*
X115096525Y-70373368D01*
X114934010Y-70616589D01*
X114822068Y-70886842D01*
X114765000Y-71173740D01*
X114765000Y-71466260D01*
X114822068Y-71753158D01*
X114934010Y-72023411D01*
X115096525Y-72266632D01*
X115303368Y-72473475D01*
X115477760Y-72590000D01*
X115303368Y-72706525D01*
X115096525Y-72913368D01*
X114934010Y-73156589D01*
X114822068Y-73426842D01*
X114765000Y-73713740D01*
X114765000Y-74006260D01*
X114822068Y-74293158D01*
X114934010Y-74563411D01*
X115096525Y-74806632D01*
X115303368Y-75013475D01*
X115477760Y-75130000D01*
X115303368Y-75246525D01*
X115096525Y-75453368D01*
X114934010Y-75696589D01*
X114822068Y-75966842D01*
X114765000Y-76253740D01*
X114765000Y-76546260D01*
X114822068Y-76833158D01*
X114934010Y-77103411D01*
X115096525Y-77346632D01*
X115303368Y-77553475D01*
X115477760Y-77670000D01*
X115303368Y-77786525D01*
X115096525Y-77993368D01*
X114934010Y-78236589D01*
X114822068Y-78506842D01*
X114765000Y-78793740D01*
X114765000Y-79086260D01*
X114822068Y-79373158D01*
X114934010Y-79643411D01*
X115096525Y-79886632D01*
X115303368Y-80093475D01*
X115477760Y-80210000D01*
X115303368Y-80326525D01*
X115096525Y-80533368D01*
X114934010Y-80776589D01*
X114822068Y-81046842D01*
X114765000Y-81333740D01*
X114765000Y-81626260D01*
X114822068Y-81913158D01*
X114934010Y-82183411D01*
X115096525Y-82426632D01*
X115303368Y-82633475D01*
X115546589Y-82795990D01*
X115816842Y-82907932D01*
X116103740Y-82965000D01*
X116396260Y-82965000D01*
X116683158Y-82907932D01*
X116953411Y-82795990D01*
X117196632Y-82633475D01*
X117403475Y-82426632D01*
X117565990Y-82183411D01*
X117677932Y-81913158D01*
X117735000Y-81626260D01*
X117735000Y-81333740D01*
X117677932Y-81046842D01*
X117565990Y-80776589D01*
X117403475Y-80533368D01*
X117196632Y-80326525D01*
X117022240Y-80210000D01*
X117196632Y-80093475D01*
X117403475Y-79886632D01*
X117565990Y-79643411D01*
X117677932Y-79373158D01*
X117735000Y-79086260D01*
X117735000Y-78793740D01*
X117677932Y-78506842D01*
X117565990Y-78236589D01*
X117403475Y-77993368D01*
X117196632Y-77786525D01*
X117022240Y-77670000D01*
X117196632Y-77553475D01*
X117403475Y-77346632D01*
X117565990Y-77103411D01*
X117677932Y-76833158D01*
X117735000Y-76546260D01*
X117735000Y-76253740D01*
X117677932Y-75966842D01*
X117565990Y-75696589D01*
X117403475Y-75453368D01*
X117196632Y-75246525D01*
X117022240Y-75130000D01*
X117196632Y-75013475D01*
X117403475Y-74806632D01*
X117565990Y-74563411D01*
X117677932Y-74293158D01*
X117735000Y-74006260D01*
X117735000Y-73713740D01*
X117677932Y-73426842D01*
X117565990Y-73156589D01*
X117403475Y-72913368D01*
X117196632Y-72706525D01*
X117022240Y-72590000D01*
X117196632Y-72473475D01*
X117403475Y-72266632D01*
X117565990Y-72023411D01*
X117677932Y-71753158D01*
X117735000Y-71466260D01*
X117735000Y-71173740D01*
X117677932Y-70886842D01*
X117565990Y-70616589D01*
X117403475Y-70373368D01*
X117196632Y-70166525D01*
X117022240Y-70050000D01*
X117196632Y-69933475D01*
X117403475Y-69726632D01*
X117565990Y-69483411D01*
X117677932Y-69213158D01*
X117735000Y-68926260D01*
X117735000Y-68633740D01*
X117677932Y-68346842D01*
X117565990Y-68076589D01*
X117403475Y-67833368D01*
X117196632Y-67626525D01*
X117022240Y-67510000D01*
X117196632Y-67393475D01*
X117403475Y-67186632D01*
X117565990Y-66943411D01*
X117677932Y-66673158D01*
X117735000Y-66386260D01*
X117735000Y-66093740D01*
X117677932Y-65806842D01*
X117565990Y-65536589D01*
X117403475Y-65293368D01*
X117196632Y-65086525D01*
X117022240Y-64970000D01*
X117196632Y-64853475D01*
X117403475Y-64646632D01*
X117565990Y-64403411D01*
X117677932Y-64133158D01*
X117735000Y-63846260D01*
X117735000Y-63553740D01*
X117677932Y-63266842D01*
X117565990Y-62996589D01*
X117403475Y-62753368D01*
X117196632Y-62546525D01*
X117022240Y-62430000D01*
X117196632Y-62313475D01*
X117403475Y-62106632D01*
X117565990Y-61863411D01*
X117677932Y-61593158D01*
X117735000Y-61306260D01*
X117735000Y-61013740D01*
X117677932Y-60726842D01*
X117565990Y-60456589D01*
X117403475Y-60213368D01*
X117196632Y-60006525D01*
X117022240Y-59890000D01*
X117196632Y-59773475D01*
X117403475Y-59566632D01*
X117565990Y-59323411D01*
X117677932Y-59053158D01*
X117735000Y-58766260D01*
X117735000Y-58473740D01*
X117677932Y-58186842D01*
X117565990Y-57916589D01*
X117403475Y-57673368D01*
X117196632Y-57466525D01*
X117022240Y-57350000D01*
X117196632Y-57233475D01*
X117403475Y-57026632D01*
X117565990Y-56783411D01*
X117677932Y-56513158D01*
X117735000Y-56226260D01*
X117735000Y-55933740D01*
X117677932Y-55646842D01*
X117565990Y-55376589D01*
X117403475Y-55133368D01*
X117196632Y-54926525D01*
X117022240Y-54810000D01*
X117196632Y-54693475D01*
X117403475Y-54486632D01*
X117565990Y-54243411D01*
X117677932Y-53973158D01*
X117735000Y-53686260D01*
X117735000Y-53393740D01*
X117677932Y-53106842D01*
X117565990Y-52836589D01*
X117403475Y-52593368D01*
X117271620Y-52461513D01*
X117344180Y-52439502D01*
X117454494Y-52380537D01*
X117551185Y-52301185D01*
X117630537Y-52204494D01*
X117689502Y-52094180D01*
X117725812Y-51974482D01*
X117738072Y-51850000D01*
X117738072Y-51013740D01*
X121165000Y-51013740D01*
X121165000Y-51306260D01*
X121222068Y-51593158D01*
X121334010Y-51863411D01*
X121496525Y-52106632D01*
X121703368Y-52313475D01*
X121946589Y-52475990D01*
X122216842Y-52587932D01*
X122503740Y-52645000D01*
X122796260Y-52645000D01*
X123083158Y-52587932D01*
X123353411Y-52475990D01*
X123596632Y-52313475D01*
X123803475Y-52106632D01*
X123920000Y-51932240D01*
X124036525Y-52106632D01*
X124243368Y-52313475D01*
X124486589Y-52475990D01*
X124756842Y-52587932D01*
X125043740Y-52645000D01*
X125336260Y-52645000D01*
X125623158Y-52587932D01*
X125893411Y-52475990D01*
X126136632Y-52313475D01*
X126343475Y-52106632D01*
X126460000Y-51932240D01*
X126576525Y-52106632D01*
X126783368Y-52313475D01*
X127026589Y-52475990D01*
X127296842Y-52587932D01*
X127583740Y-52645000D01*
X127876260Y-52645000D01*
X128163158Y-52587932D01*
X128433411Y-52475990D01*
X128676632Y-52313475D01*
X128883475Y-52106632D01*
X129000000Y-51932240D01*
X129116525Y-52106632D01*
X129323368Y-52313475D01*
X129566589Y-52475990D01*
X129675001Y-52520895D01*
X129675000Y-54247911D01*
X129675000Y-54432089D01*
X129684005Y-54477360D01*
X129688529Y-54523291D01*
X129701927Y-54567459D01*
X129710932Y-54612729D01*
X129728595Y-54655372D01*
X129741993Y-54699539D01*
X129763750Y-54740243D01*
X129781414Y-54782889D01*
X129807058Y-54821268D01*
X129828814Y-54861971D01*
X129858094Y-54897649D01*
X129883738Y-54936028D01*
X129916376Y-54968666D01*
X129945656Y-55004344D01*
X129981335Y-55033625D01*
X130013972Y-55066262D01*
X130052347Y-55091903D01*
X130088028Y-55121186D01*
X130128736Y-55142945D01*
X130167111Y-55168586D01*
X130209752Y-55186248D01*
X130250460Y-55208007D01*
X130294631Y-55221406D01*
X130337271Y-55239068D01*
X130382538Y-55248072D01*
X130426708Y-55261471D01*
X130472641Y-55265995D01*
X130517911Y-55275000D01*
X130564068Y-55275000D01*
X130610000Y-55279524D01*
X130655932Y-55275000D01*
X130702089Y-55275000D01*
X130747360Y-55265995D01*
X130793291Y-55261471D01*
X130837459Y-55248073D01*
X130882729Y-55239068D01*
X130925372Y-55221405D01*
X130969539Y-55208007D01*
X131010243Y-55186250D01*
X131052889Y-55168586D01*
X131091268Y-55142942D01*
X131131971Y-55121186D01*
X131167649Y-55091906D01*
X131206028Y-55066262D01*
X131238666Y-55033624D01*
X131274344Y-55004344D01*
X131303625Y-54968665D01*
X131336262Y-54936028D01*
X131361903Y-54897653D01*
X131391186Y-54861972D01*
X131412945Y-54821264D01*
X131438586Y-54782889D01*
X131456248Y-54740248D01*
X131478007Y-54699540D01*
X131491406Y-54655369D01*
X131509068Y-54612729D01*
X131518072Y-54567462D01*
X131531471Y-54523292D01*
X131535995Y-54477359D01*
X131545000Y-54432089D01*
X131545000Y-51939723D01*
X131656525Y-52106632D01*
X131863368Y-52313475D01*
X132106589Y-52475990D01*
X132376842Y-52587932D01*
X132663740Y-52645000D01*
X132956260Y-52645000D01*
X133243158Y-52587932D01*
X133513411Y-52475990D01*
X133756632Y-52313475D01*
X133963475Y-52106632D01*
X134125990Y-51863411D01*
X134237932Y-51593158D01*
X134295000Y-51306260D01*
X134295000Y-51013740D01*
X134237932Y-50726842D01*
X134125990Y-50456589D01*
X133963475Y-50213368D01*
X133900107Y-50150000D01*
X140361928Y-50150000D01*
X140361928Y-51850000D01*
X140374188Y-51974482D01*
X140410498Y-52094180D01*
X140469463Y-52204494D01*
X140548815Y-52301185D01*
X140645506Y-52380537D01*
X140755820Y-52439502D01*
X140828380Y-52461513D01*
X140696525Y-52593368D01*
X140534010Y-52836589D01*
X140422068Y-53106842D01*
X140365000Y-53393740D01*
X140365000Y-53686260D01*
X140422068Y-53973158D01*
X140534010Y-54243411D01*
X140696525Y-54486632D01*
X140903368Y-54693475D01*
X141077760Y-54810000D01*
X140903368Y-54926525D01*
X140696525Y-55133368D01*
X140534010Y-55376589D01*
X140422068Y-55646842D01*
X140365000Y-55933740D01*
X140365000Y-56226260D01*
X140422068Y-56513158D01*
X140534010Y-56783411D01*
X140696525Y-57026632D01*
X140903368Y-57233475D01*
X141077760Y-57350000D01*
X140903368Y-57466525D01*
X140696525Y-57673368D01*
X140534010Y-57916589D01*
X140422068Y-58186842D01*
X140365000Y-58473740D01*
X140365000Y-58766260D01*
X140422068Y-59053158D01*
X140534010Y-59323411D01*
X140696525Y-59566632D01*
X140903368Y-59773475D01*
X141077760Y-59890000D01*
X140903368Y-60006525D01*
X140696525Y-60213368D01*
X140534010Y-60456589D01*
X140422068Y-60726842D01*
X140365000Y-61013740D01*
X140365000Y-61306260D01*
X140422068Y-61593158D01*
X140534010Y-61863411D01*
X140696525Y-62106632D01*
X140903368Y-62313475D01*
X141077760Y-62430000D01*
X140903368Y-62546525D01*
X140696525Y-62753368D01*
X140534010Y-62996589D01*
X140422068Y-63266842D01*
X140365000Y-63553740D01*
X140365000Y-63846260D01*
X140422068Y-64133158D01*
X140534010Y-64403411D01*
X140696525Y-64646632D01*
X140903368Y-64853475D01*
X141077760Y-64970000D01*
X140903368Y-65086525D01*
X140696525Y-65293368D01*
X140534010Y-65536589D01*
X140422068Y-65806842D01*
X140365000Y-66093740D01*
X140365000Y-66386260D01*
X140422068Y-66673158D01*
X140534010Y-66943411D01*
X140696525Y-67186632D01*
X140903368Y-67393475D01*
X141077760Y-67510000D01*
X140903368Y-67626525D01*
X140696525Y-67833368D01*
X140534010Y-68076589D01*
X140422068Y-68346842D01*
X140365000Y-68633740D01*
X140365000Y-68926260D01*
X140422068Y-69213158D01*
X140534010Y-69483411D01*
X140696525Y-69726632D01*
X140903368Y-69933475D01*
X141077760Y-70050000D01*
X140903368Y-70166525D01*
X140696525Y-70373368D01*
X140534010Y-70616589D01*
X140422068Y-70886842D01*
X140365000Y-71173740D01*
X140365000Y-71466260D01*
X140422068Y-71753158D01*
X140534010Y-72023411D01*
X140696525Y-72266632D01*
X140903368Y-72473475D01*
X141077760Y-72590000D01*
X140903368Y-72706525D01*
X140696525Y-72913368D01*
X140534010Y-73156589D01*
X140422068Y-73426842D01*
X140365000Y-73713740D01*
X140365000Y-74006260D01*
X140422068Y-74293158D01*
X140534010Y-74563411D01*
X140696525Y-74806632D01*
X140903368Y-75013475D01*
X141077760Y-75130000D01*
X140903368Y-75246525D01*
X140696525Y-75453368D01*
X140534010Y-75696589D01*
X140422068Y-75966842D01*
X140365000Y-76253740D01*
X140365000Y-76546260D01*
X140422068Y-76833158D01*
X140534010Y-77103411D01*
X140696525Y-77346632D01*
X140903368Y-77553475D01*
X141077760Y-77670000D01*
X140903368Y-77786525D01*
X140696525Y-77993368D01*
X140534010Y-78236589D01*
X140422068Y-78506842D01*
X140365000Y-78793740D01*
X140365000Y-79086260D01*
X140422068Y-79373158D01*
X140534010Y-79643411D01*
X140696525Y-79886632D01*
X140903368Y-80093475D01*
X141077760Y-80210000D01*
X140903368Y-80326525D01*
X140696525Y-80533368D01*
X140534010Y-80776589D01*
X140422068Y-81046842D01*
X140365000Y-81333740D01*
X140365000Y-81626260D01*
X140422068Y-81913158D01*
X140534010Y-82183411D01*
X140696525Y-82426632D01*
X140903368Y-82633475D01*
X141077760Y-82750000D01*
X140903368Y-82866525D01*
X140696525Y-83073368D01*
X140534010Y-83316589D01*
X140422068Y-83586842D01*
X140365000Y-83873740D01*
X140365000Y-84166260D01*
X140422068Y-84453158D01*
X140534010Y-84723411D01*
X140696525Y-84966632D01*
X140903368Y-85173475D01*
X141077760Y-85290000D01*
X140903368Y-85406525D01*
X140696525Y-85613368D01*
X140534010Y-85856589D01*
X140422068Y-86126842D01*
X140365000Y-86413740D01*
X140365000Y-86706260D01*
X140422068Y-86993158D01*
X140534010Y-87263411D01*
X140696525Y-87506632D01*
X140903368Y-87713475D01*
X141146589Y-87875990D01*
X141416842Y-87987932D01*
X141703740Y-88045000D01*
X141996260Y-88045000D01*
X142283158Y-87987932D01*
X142553411Y-87875990D01*
X142796632Y-87713475D01*
X143003475Y-87506632D01*
X143165990Y-87263411D01*
X143277932Y-86993158D01*
X143335000Y-86706260D01*
X143335000Y-86413740D01*
X143277932Y-86126842D01*
X143165990Y-85856589D01*
X143003475Y-85613368D01*
X142796632Y-85406525D01*
X142622240Y-85290000D01*
X142796632Y-85173475D01*
X143003475Y-84966632D01*
X143165990Y-84723411D01*
X143277932Y-84453158D01*
X143335000Y-84166260D01*
X143335000Y-83873740D01*
X143277932Y-83586842D01*
X143165990Y-83316589D01*
X143003475Y-83073368D01*
X142796632Y-82866525D01*
X142622240Y-82750000D01*
X142796632Y-82633475D01*
X143003475Y-82426632D01*
X143165990Y-82183411D01*
X143277932Y-81913158D01*
X143335000Y-81626260D01*
X143335000Y-81333740D01*
X143277932Y-81046842D01*
X143165990Y-80776589D01*
X143003475Y-80533368D01*
X142796632Y-80326525D01*
X142622240Y-80210000D01*
X142796632Y-80093475D01*
X143003475Y-79886632D01*
X143165990Y-79643411D01*
X143277932Y-79373158D01*
X143335000Y-79086260D01*
X143335000Y-78793740D01*
X143277932Y-78506842D01*
X143165990Y-78236589D01*
X143003475Y-77993368D01*
X142796632Y-77786525D01*
X142622240Y-77670000D01*
X142796632Y-77553475D01*
X143003475Y-77346632D01*
X143165990Y-77103411D01*
X143277932Y-76833158D01*
X143335000Y-76546260D01*
X143335000Y-76253740D01*
X143277932Y-75966842D01*
X143165990Y-75696589D01*
X143003475Y-75453368D01*
X142796632Y-75246525D01*
X142622240Y-75130000D01*
X142796632Y-75013475D01*
X143003475Y-74806632D01*
X143165990Y-74563411D01*
X143277932Y-74293158D01*
X143335000Y-74006260D01*
X143335000Y-73713740D01*
X143277932Y-73426842D01*
X143165990Y-73156589D01*
X143003475Y-72913368D01*
X142796632Y-72706525D01*
X142622240Y-72590000D01*
X142796632Y-72473475D01*
X143003475Y-72266632D01*
X143165990Y-72023411D01*
X143277932Y-71753158D01*
X143335000Y-71466260D01*
X143335000Y-71173740D01*
X143277932Y-70886842D01*
X143165990Y-70616589D01*
X143003475Y-70373368D01*
X142796632Y-70166525D01*
X142622240Y-70050000D01*
X142796632Y-69933475D01*
X143003475Y-69726632D01*
X143165990Y-69483411D01*
X143277932Y-69213158D01*
X143335000Y-68926260D01*
X143335000Y-68633740D01*
X143277932Y-68346842D01*
X143165990Y-68076589D01*
X143003475Y-67833368D01*
X142796632Y-67626525D01*
X142622240Y-67510000D01*
X142796632Y-67393475D01*
X143003475Y-67186632D01*
X143165990Y-66943411D01*
X143277932Y-66673158D01*
X143335000Y-66386260D01*
X143335000Y-66093740D01*
X143277932Y-65806842D01*
X143165990Y-65536589D01*
X143003475Y-65293368D01*
X142796632Y-65086525D01*
X142622240Y-64970000D01*
X142796632Y-64853475D01*
X143003475Y-64646632D01*
X143165990Y-64403411D01*
X143277932Y-64133158D01*
X143335000Y-63846260D01*
X143335000Y-63553740D01*
X143277932Y-63266842D01*
X143165990Y-62996589D01*
X143003475Y-62753368D01*
X142796632Y-62546525D01*
X142622240Y-62430000D01*
X142796632Y-62313475D01*
X143003475Y-62106632D01*
X143165990Y-61863411D01*
X143277932Y-61593158D01*
X143335000Y-61306260D01*
X143335000Y-61013740D01*
X143277932Y-60726842D01*
X143165990Y-60456589D01*
X143003475Y-60213368D01*
X142796632Y-60006525D01*
X142622240Y-59890000D01*
X142796632Y-59773475D01*
X143003475Y-59566632D01*
X143165990Y-59323411D01*
X143277932Y-59053158D01*
X143335000Y-58766260D01*
X143335000Y-58473740D01*
X143277932Y-58186842D01*
X143165990Y-57916589D01*
X143003475Y-57673368D01*
X142796632Y-57466525D01*
X142622240Y-57350000D01*
X142796632Y-57233475D01*
X143003475Y-57026632D01*
X143165990Y-56783411D01*
X143277932Y-56513158D01*
X143335000Y-56226260D01*
X143335000Y-55933740D01*
X143277932Y-55646842D01*
X143165990Y-55376589D01*
X143003475Y-55133368D01*
X142796632Y-54926525D01*
X142622240Y-54810000D01*
X142796632Y-54693475D01*
X143003475Y-54486632D01*
X143165990Y-54243411D01*
X143277932Y-53973158D01*
X143335000Y-53686260D01*
X143335000Y-53393740D01*
X143277932Y-53106842D01*
X143165990Y-52836589D01*
X143003475Y-52593368D01*
X142871620Y-52461513D01*
X142944180Y-52439502D01*
X143054494Y-52380537D01*
X143151185Y-52301185D01*
X143230537Y-52204494D01*
X143289502Y-52094180D01*
X143325812Y-51974482D01*
X143338072Y-51850000D01*
X143338072Y-50150000D01*
X143325812Y-50025518D01*
X143289502Y-49905820D01*
X143230537Y-49795506D01*
X143151185Y-49698815D01*
X143054494Y-49619463D01*
X142944180Y-49560498D01*
X142824482Y-49524188D01*
X142700000Y-49511928D01*
X141000000Y-49511928D01*
X140875518Y-49524188D01*
X140755820Y-49560498D01*
X140645506Y-49619463D01*
X140548815Y-49698815D01*
X140469463Y-49795506D01*
X140410498Y-49905820D01*
X140374188Y-50025518D01*
X140361928Y-50150000D01*
X133900107Y-50150000D01*
X133756632Y-50006525D01*
X133513411Y-49844010D01*
X133243158Y-49732068D01*
X132956260Y-49675000D01*
X132663740Y-49675000D01*
X132376842Y-49732068D01*
X132106589Y-49844010D01*
X131863368Y-50006525D01*
X131656525Y-50213368D01*
X131540000Y-50387760D01*
X131423475Y-50213368D01*
X131216632Y-50006525D01*
X130973411Y-49844010D01*
X130703158Y-49732068D01*
X130416260Y-49675000D01*
X130123740Y-49675000D01*
X129836842Y-49732068D01*
X129566589Y-49844010D01*
X129323368Y-50006525D01*
X129116525Y-50213368D01*
X129000000Y-50387760D01*
X128883475Y-50213368D01*
X128676632Y-50006525D01*
X128433411Y-49844010D01*
X128163158Y-49732068D01*
X127876260Y-49675000D01*
X127583740Y-49675000D01*
X127296842Y-49732068D01*
X127026589Y-49844010D01*
X126783368Y-50006525D01*
X126576525Y-50213368D01*
X126460000Y-50387760D01*
X126343475Y-50213368D01*
X126136632Y-50006525D01*
X125893411Y-49844010D01*
X125623158Y-49732068D01*
X125336260Y-49675000D01*
X125043740Y-49675000D01*
X124756842Y-49732068D01*
X124486589Y-49844010D01*
X124243368Y-50006525D01*
X124036525Y-50213368D01*
X123920000Y-50387760D01*
X123803475Y-50213368D01*
X123596632Y-50006525D01*
X123353411Y-49844010D01*
X123083158Y-49732068D01*
X122796260Y-49675000D01*
X122503740Y-49675000D01*
X122216842Y-49732068D01*
X121946589Y-49844010D01*
X121703368Y-50006525D01*
X121496525Y-50213368D01*
X121334010Y-50456589D01*
X121222068Y-50726842D01*
X121165000Y-51013740D01*
X117738072Y-51013740D01*
X117738072Y-50150000D01*
X117725812Y-50025518D01*
X117689502Y-49905820D01*
X117630537Y-49795506D01*
X117551185Y-49698815D01*
X117454494Y-49619463D01*
X117344180Y-49560498D01*
X117224482Y-49524188D01*
X117100000Y-49511928D01*
X115400000Y-49511928D01*
X115275518Y-49524188D01*
X115155820Y-49560498D01*
X115045506Y-49619463D01*
X114948815Y-49698815D01*
X114869463Y-49795506D01*
X114810498Y-49905820D01*
X114774188Y-50025518D01*
X114761928Y-50150000D01*
X113865000Y-50150000D01*
X113865000Y-49265000D01*
X143485000Y-49265000D01*
X143485001Y-106515000D01*
G37*
%TD.AperFunction*%
%TD*%
M02*
