%TF.GenerationSoftware,KiCad,Pcbnew,(5.1.9)-1*%
%TF.CreationDate,2021-02-10T21:10:38+00:00*%
%TF.ProjectId,SD_FSEQ,53445f46-5345-4512-9e6b-696361645f70,rev?*%
%TF.SameCoordinates,Original*%
%TF.FileFunction,Copper,L1,Top*%
%TF.FilePolarity,Positive*%
%FSLAX46Y46*%
G04 Gerber Fmt 4.6, Leading zero omitted, Abs format (unit mm)*
G04 Created by KiCad (PCBNEW (5.1.9)-1) date 2021-02-10 21:10:38*
%MOMM*%
%LPD*%
G01*
G04 APERTURE LIST*
%TA.AperFunction,ComponentPad*%
%ADD10O,1.150000X1.800000*%
%TD*%
%TA.AperFunction,ComponentPad*%
%ADD11O,1.450000X2.000000*%
%TD*%
%TA.AperFunction,SMDPad,CuDef*%
%ADD12R,0.450000X1.300000*%
%TD*%
%TA.AperFunction,ComponentPad*%
%ADD13O,1.800000X3.600000*%
%TD*%
%TA.AperFunction,ComponentPad*%
%ADD14O,1.700000X1.700000*%
%TD*%
%TA.AperFunction,ComponentPad*%
%ADD15R,1.700000X1.700000*%
%TD*%
%TA.AperFunction,ViaPad*%
%ADD16C,0.600000*%
%TD*%
%TA.AperFunction,Conductor*%
%ADD17C,0.600000*%
%TD*%
%TA.AperFunction,Conductor*%
%ADD18C,1.000000*%
%TD*%
%TA.AperFunction,Conductor*%
%ADD19C,0.400000*%
%TD*%
%TA.AperFunction,Conductor*%
%ADD20C,0.254000*%
%TD*%
%TA.AperFunction,Conductor*%
%ADD21C,0.100000*%
%TD*%
G04 APERTURE END LIST*
D10*
%TO.P,J3,6*%
%TO.N,N/C*%
X123255000Y-105310000D03*
X115505000Y-105310000D03*
D11*
X123105000Y-101510000D03*
X115655000Y-101510000D03*
D12*
%TO.P,J3,5*%
%TO.N,GND*%
X120680000Y-101460000D03*
%TO.P,J3,4*%
%TO.N,Net-(J3-Pad4)*%
X120030000Y-101460000D03*
%TO.P,J3,3*%
%TO.N,Net-(J3-Pad3)*%
X119380000Y-101460000D03*
%TO.P,J3,2*%
%TO.N,Net-(J3-Pad2)*%
X118730000Y-101460000D03*
%TO.P,J3,1*%
%TO.N,+5V*%
X118080000Y-101460000D03*
%TD*%
D13*
%TO.P,J5,3*%
%TO.N,+5V*%
X140650000Y-103590000D03*
%TO.P,J5,2*%
%TO.N,LED_Data*%
X137150000Y-103590000D03*
%TO.P,J5,1*%
%TO.N,GND*%
%TA.AperFunction,ComponentPad*%
G36*
G01*
X132750000Y-105140000D02*
X132750000Y-102040000D01*
G75*
G02*
X133000000Y-101790000I250000J0D01*
G01*
X134300000Y-101790000D01*
G75*
G02*
X134550000Y-102040000I0J-250000D01*
G01*
X134550000Y-105140000D01*
G75*
G02*
X134300000Y-105390000I-250000J0D01*
G01*
X133000000Y-105390000D01*
G75*
G02*
X132750000Y-105140000I0J250000D01*
G01*
G37*
%TD.AperFunction*%
%TD*%
D14*
%TO.P,J4,15*%
%TO.N,Net-(J4-Pad15)*%
X141850000Y-86560000D03*
%TO.P,J4,14*%
%TO.N,Net-(J4-Pad14)*%
X141850000Y-84020000D03*
%TO.P,J4,13*%
%TO.N,Net-(J4-Pad13)*%
X141850000Y-81480000D03*
%TO.P,J4,12*%
%TO.N,Net-(J4-Pad12)*%
X141850000Y-78940000D03*
%TO.P,J4,11*%
%TO.N,Net-(J4-Pad11)*%
X141850000Y-76400000D03*
%TO.P,J4,10*%
%TO.N,Net-(J4-Pad10)*%
X141850000Y-73860000D03*
%TO.P,J4,9*%
%TO.N,Net-(J4-Pad9)*%
X141850000Y-71320000D03*
%TO.P,J4,8*%
%TO.N,CS*%
X141850000Y-68780000D03*
%TO.P,J4,7*%
%TO.N,SCK*%
X141850000Y-66240000D03*
%TO.P,J4,6*%
%TO.N,MISO*%
X141850000Y-63700000D03*
%TO.P,J4,5*%
%TO.N,Net-(J4-Pad5)*%
X141850000Y-61160000D03*
%TO.P,J4,4*%
%TO.N,Net-(J4-Pad4)*%
X141850000Y-58620000D03*
%TO.P,J4,3*%
%TO.N,Net-(J4-Pad3)*%
X141850000Y-56080000D03*
%TO.P,J4,2*%
%TO.N,Net-(J4-Pad2)*%
X141850000Y-53540000D03*
D15*
%TO.P,J4,1*%
%TO.N,MOSI*%
X141850000Y-51000000D03*
%TD*%
D14*
%TO.P,J2,6*%
%TO.N,CS*%
X122650000Y-51160000D03*
%TO.P,J2,5*%
%TO.N,SCK*%
X125190000Y-51160000D03*
%TO.P,J2,4*%
%TO.N,MOSI*%
X127730000Y-51160000D03*
%TO.P,J2,3*%
%TO.N,MISO*%
X130270000Y-51160000D03*
%TO.P,J2,2*%
%TO.N,+5V*%
X132810000Y-51160000D03*
D15*
%TO.P,J2,1*%
%TO.N,GND*%
X135350000Y-51160000D03*
%TD*%
D14*
%TO.P,J1,15*%
%TO.N,+5V*%
X116250000Y-86560000D03*
%TO.P,J1,14*%
%TO.N,GND*%
X116250000Y-84020000D03*
%TO.P,J1,13*%
%TO.N,LED_Data*%
X116250000Y-81480000D03*
%TO.P,J1,12*%
%TO.N,Net-(J1-Pad12)*%
X116250000Y-78940000D03*
%TO.P,J1,11*%
%TO.N,Net-(J1-Pad11)*%
X116250000Y-76400000D03*
%TO.P,J1,10*%
%TO.N,Net-(J1-Pad10)*%
X116250000Y-73860000D03*
%TO.P,J1,9*%
%TO.N,Net-(J1-Pad9)*%
X116250000Y-71320000D03*
%TO.P,J1,8*%
%TO.N,Net-(J1-Pad8)*%
X116250000Y-68780000D03*
%TO.P,J1,7*%
%TO.N,Net-(J1-Pad7)*%
X116250000Y-66240000D03*
%TO.P,J1,6*%
%TO.N,Net-(J1-Pad6)*%
X116250000Y-63700000D03*
%TO.P,J1,5*%
%TO.N,Net-(J1-Pad5)*%
X116250000Y-61160000D03*
%TO.P,J1,4*%
%TO.N,Net-(J1-Pad4)*%
X116250000Y-58620000D03*
%TO.P,J1,3*%
%TO.N,Net-(J1-Pad3)*%
X116250000Y-56080000D03*
%TO.P,J1,2*%
%TO.N,Net-(J1-Pad2)*%
X116250000Y-53540000D03*
D15*
%TO.P,J1,1*%
%TO.N,Net-(J1-Pad1)*%
X116250000Y-51000000D03*
%TD*%
D16*
%TO.N,*%
X113730000Y-105960000D03*
%TO.N,GND*%
X125790000Y-101640000D03*
X129490000Y-101580000D03*
X125890000Y-105750000D03*
X129800000Y-105690000D03*
X114830000Y-97530000D03*
X114120000Y-90660000D03*
X117110000Y-105090000D03*
X119930000Y-103810000D03*
X121710000Y-105530000D03*
X143110000Y-97340000D03*
X143110000Y-95100000D03*
X143070000Y-92680000D03*
X142940000Y-90230000D03*
X140390000Y-90310000D03*
X140390000Y-92770000D03*
X140480000Y-95410000D03*
X140430000Y-97510000D03*
X138190000Y-95540000D03*
X138330000Y-92950000D03*
X138190000Y-90140000D03*
X136130000Y-90140000D03*
X136130000Y-92770000D03*
X133980000Y-92820000D03*
X134020000Y-90090000D03*
X131700000Y-90010000D03*
X129280000Y-89960000D03*
X135080000Y-85880000D03*
X132350000Y-86010000D03*
X127830000Y-85830000D03*
X123090000Y-85970000D03*
X121250000Y-82720000D03*
X123620000Y-82800000D03*
X127790000Y-83020000D03*
X131340000Y-83290000D03*
X135560000Y-83020000D03*
X137010000Y-80570000D03*
X134810000Y-80350000D03*
X132710000Y-80570000D03*
X129540000Y-80570000D03*
X126870000Y-80300000D03*
X123570000Y-80300000D03*
X121380000Y-80260000D03*
X120670000Y-78460000D03*
X122830000Y-78280000D03*
X126730000Y-78460000D03*
X130950000Y-78330000D03*
X135210000Y-78110000D03*
X137230000Y-78190000D03*
X137010000Y-75600000D03*
X134770000Y-75600000D03*
X130860000Y-75870000D03*
X127170000Y-75910000D03*
X123570000Y-75690000D03*
X120760000Y-75740000D03*
X128750000Y-73940000D03*
X125110000Y-74020000D03*
X132270000Y-74110000D03*
X119230000Y-71300000D03*
X122040000Y-71340000D03*
X125110000Y-71390000D03*
X128970000Y-71260000D03*
X132660000Y-70990000D03*
X135870000Y-70990000D03*
X139160000Y-70950000D03*
X132790000Y-68180000D03*
X129100000Y-68320000D03*
X125150000Y-68400000D03*
X122390000Y-68320000D03*
X119090000Y-68140000D03*
X119050000Y-65460000D03*
X122300000Y-65500000D03*
X125420000Y-65500000D03*
X129320000Y-65640000D03*
X125500000Y-62080000D03*
X122780000Y-62170000D03*
X119090000Y-62300000D03*
X119010000Y-59400000D03*
X119180000Y-56590000D03*
X119270000Y-53120000D03*
X119310000Y-50710000D03*
X122780000Y-59530000D03*
X139470000Y-50030000D03*
X137380000Y-51180000D03*
%TO.N,LED_Data*%
X137150000Y-95660000D03*
%TO.N,MISO*%
X130610000Y-54340000D03*
%TD*%
D17*
%TO.N,+5V*%
X116250000Y-86560000D02*
X114390000Y-84700000D01*
X114390000Y-84700000D02*
X114390000Y-50120000D01*
X114390000Y-50120000D02*
X115310000Y-49200000D01*
X131210000Y-49200000D02*
X133170000Y-51160000D01*
X115310000Y-49200000D02*
X131210000Y-49200000D01*
D18*
X119347999Y-89657999D02*
X116250000Y-86560000D01*
X119197999Y-89807999D02*
X119347999Y-89657999D01*
X117830000Y-102100000D02*
X117830000Y-90697999D01*
%TO.N,GND*%
X120960000Y-102552001D02*
X120960000Y-101670000D01*
D19*
%TO.N,LED_Data*%
X131950000Y-81480000D02*
X116250000Y-81480000D01*
X137150000Y-86680000D02*
X131950000Y-81480000D01*
X137150000Y-95660000D02*
X137150000Y-86680000D01*
D17*
%TO.N,CS*%
X141850000Y-68780000D02*
X135540000Y-68780000D01*
X123010000Y-56250000D02*
X123010000Y-51160000D01*
X135540000Y-68780000D02*
X123010000Y-56250000D01*
%TO.N,SCK*%
X141850000Y-66240000D02*
X140510000Y-66240000D01*
X141850000Y-66240000D02*
X136810000Y-66240000D01*
X125550000Y-54980000D02*
X125550000Y-51160000D01*
X136810000Y-66240000D02*
X125550000Y-54980000D01*
%TO.N,MOSI*%
X141850000Y-51000000D02*
X140750000Y-51000000D01*
X140750000Y-51000000D02*
X138670000Y-53080000D01*
X130010000Y-53080000D02*
X128090000Y-51160000D01*
X138670000Y-53080000D02*
X130010000Y-53080000D01*
%TO.N,MISO*%
X141850000Y-63700000D02*
X139970000Y-63700000D01*
X139970000Y-63700000D02*
X130610000Y-54340000D01*
X130610000Y-54340000D02*
X130610000Y-54340000D01*
%TD*%
D20*
%TO.N,+5V*%
X115143259Y-85013366D02*
X115303368Y-85173475D01*
X115546589Y-85335990D01*
X115816842Y-85447932D01*
X116103740Y-85505000D01*
X116396260Y-85505000D01*
X116683158Y-85447932D01*
X116953411Y-85335990D01*
X117190820Y-85177359D01*
X118303510Y-85266476D01*
X118396147Y-85284969D01*
X118481959Y-85324457D01*
X136498850Y-96331140D01*
X136553972Y-96386262D01*
X136707111Y-96488586D01*
X136860734Y-96552218D01*
X142880611Y-100229816D01*
X142960196Y-100293498D01*
X143016456Y-100368582D01*
X143052138Y-100455353D01*
X143066082Y-100556321D01*
X143122852Y-105817025D01*
X143122525Y-105839259D01*
X143106012Y-106249725D01*
X143085315Y-106351774D01*
X143038709Y-106433193D01*
X142968870Y-106495832D01*
X142924926Y-106515000D01*
X142372394Y-106515000D01*
X137838332Y-106204502D01*
X137731248Y-106182336D01*
X137641781Y-106136257D01*
X137567950Y-106067875D01*
X137515733Y-105983127D01*
X137740261Y-105915017D01*
X138006927Y-105772481D01*
X138240661Y-105580661D01*
X138432481Y-105346927D01*
X138575017Y-105080261D01*
X138662790Y-104790913D01*
X138685000Y-104565408D01*
X138685000Y-102614592D01*
X138662790Y-102389087D01*
X138575017Y-102099739D01*
X138432481Y-101833073D01*
X138240661Y-101599339D01*
X138006926Y-101407519D01*
X137740260Y-101264983D01*
X137450912Y-101177210D01*
X137150000Y-101147573D01*
X136849087Y-101177210D01*
X136559739Y-101264983D01*
X136293073Y-101407519D01*
X136059339Y-101599339D01*
X135867519Y-101833074D01*
X135764122Y-102026516D01*
X134968935Y-100228826D01*
X134960277Y-100212558D01*
X134883193Y-100090069D01*
X134859316Y-100062117D01*
X134750379Y-99966837D01*
X134719498Y-99946896D01*
X134587836Y-99886807D01*
X134552537Y-99876545D01*
X134409180Y-99856682D01*
X134390791Y-99855484D01*
X123513305Y-99937662D01*
X123371606Y-99894678D01*
X123105000Y-99868420D01*
X122838393Y-99894678D01*
X122675837Y-99943989D01*
X120641058Y-99959362D01*
X120621661Y-99961000D01*
X120470817Y-99985494D01*
X120446752Y-99991874D01*
X120433904Y-99997498D01*
X120297505Y-100066410D01*
X120276491Y-100079760D01*
X120265941Y-100089002D01*
X120181214Y-100171928D01*
X119805000Y-100171928D01*
X119705000Y-100181777D01*
X119605000Y-100171928D01*
X119155000Y-100171928D01*
X119055000Y-100181777D01*
X118955000Y-100171928D01*
X118505000Y-100171928D01*
X118380518Y-100184188D01*
X118260820Y-100220498D01*
X118150506Y-100279463D01*
X118053815Y-100358815D01*
X117974463Y-100455506D01*
X117915498Y-100565820D01*
X117879188Y-100685518D01*
X117866928Y-100810000D01*
X117866928Y-102110000D01*
X117879188Y-102234482D01*
X117915498Y-102354180D01*
X117974463Y-102464494D01*
X117982846Y-102474708D01*
X117233978Y-102510907D01*
X117116355Y-102499277D01*
X117015858Y-102457703D01*
X116931708Y-102388821D01*
X116899771Y-102341240D01*
X116917555Y-102307968D01*
X116995322Y-102051606D01*
X117015000Y-101851808D01*
X117015000Y-101168191D01*
X116995322Y-100968393D01*
X116917555Y-100712032D01*
X116791270Y-100475769D01*
X116621317Y-100268682D01*
X116534836Y-100197709D01*
X114291645Y-85414173D01*
X114291588Y-85293387D01*
X114324401Y-85187211D01*
X114387147Y-85095489D01*
X114474207Y-85026426D01*
X114577800Y-84986198D01*
X114698286Y-84977727D01*
X115143259Y-85013366D01*
%TA.AperFunction,Conductor*%
D21*
G36*
X115143259Y-85013366D02*
G01*
X115303368Y-85173475D01*
X115546589Y-85335990D01*
X115816842Y-85447932D01*
X116103740Y-85505000D01*
X116396260Y-85505000D01*
X116683158Y-85447932D01*
X116953411Y-85335990D01*
X117190820Y-85177359D01*
X118303510Y-85266476D01*
X118396147Y-85284969D01*
X118481959Y-85324457D01*
X136498850Y-96331140D01*
X136553972Y-96386262D01*
X136707111Y-96488586D01*
X136860734Y-96552218D01*
X142880611Y-100229816D01*
X142960196Y-100293498D01*
X143016456Y-100368582D01*
X143052138Y-100455353D01*
X143066082Y-100556321D01*
X143122852Y-105817025D01*
X143122525Y-105839259D01*
X143106012Y-106249725D01*
X143085315Y-106351774D01*
X143038709Y-106433193D01*
X142968870Y-106495832D01*
X142924926Y-106515000D01*
X142372394Y-106515000D01*
X137838332Y-106204502D01*
X137731248Y-106182336D01*
X137641781Y-106136257D01*
X137567950Y-106067875D01*
X137515733Y-105983127D01*
X137740261Y-105915017D01*
X138006927Y-105772481D01*
X138240661Y-105580661D01*
X138432481Y-105346927D01*
X138575017Y-105080261D01*
X138662790Y-104790913D01*
X138685000Y-104565408D01*
X138685000Y-102614592D01*
X138662790Y-102389087D01*
X138575017Y-102099739D01*
X138432481Y-101833073D01*
X138240661Y-101599339D01*
X138006926Y-101407519D01*
X137740260Y-101264983D01*
X137450912Y-101177210D01*
X137150000Y-101147573D01*
X136849087Y-101177210D01*
X136559739Y-101264983D01*
X136293073Y-101407519D01*
X136059339Y-101599339D01*
X135867519Y-101833074D01*
X135764122Y-102026516D01*
X134968935Y-100228826D01*
X134960277Y-100212558D01*
X134883193Y-100090069D01*
X134859316Y-100062117D01*
X134750379Y-99966837D01*
X134719498Y-99946896D01*
X134587836Y-99886807D01*
X134552537Y-99876545D01*
X134409180Y-99856682D01*
X134390791Y-99855484D01*
X123513305Y-99937662D01*
X123371606Y-99894678D01*
X123105000Y-99868420D01*
X122838393Y-99894678D01*
X122675837Y-99943989D01*
X120641058Y-99959362D01*
X120621661Y-99961000D01*
X120470817Y-99985494D01*
X120446752Y-99991874D01*
X120433904Y-99997498D01*
X120297505Y-100066410D01*
X120276491Y-100079760D01*
X120265941Y-100089002D01*
X120181214Y-100171928D01*
X119805000Y-100171928D01*
X119705000Y-100181777D01*
X119605000Y-100171928D01*
X119155000Y-100171928D01*
X119055000Y-100181777D01*
X118955000Y-100171928D01*
X118505000Y-100171928D01*
X118380518Y-100184188D01*
X118260820Y-100220498D01*
X118150506Y-100279463D01*
X118053815Y-100358815D01*
X117974463Y-100455506D01*
X117915498Y-100565820D01*
X117879188Y-100685518D01*
X117866928Y-100810000D01*
X117866928Y-102110000D01*
X117879188Y-102234482D01*
X117915498Y-102354180D01*
X117974463Y-102464494D01*
X117982846Y-102474708D01*
X117233978Y-102510907D01*
X117116355Y-102499277D01*
X117015858Y-102457703D01*
X116931708Y-102388821D01*
X116899771Y-102341240D01*
X116917555Y-102307968D01*
X116995322Y-102051606D01*
X117015000Y-101851808D01*
X117015000Y-101168191D01*
X116995322Y-100968393D01*
X116917555Y-100712032D01*
X116791270Y-100475769D01*
X116621317Y-100268682D01*
X116534836Y-100197709D01*
X114291645Y-85414173D01*
X114291588Y-85293387D01*
X114324401Y-85187211D01*
X114387147Y-85095489D01*
X114474207Y-85026426D01*
X114577800Y-84986198D01*
X114698286Y-84977727D01*
X115143259Y-85013366D01*
G37*
%TD.AperFunction*%
%TD*%
D20*
%TO.N,GND*%
X115715046Y-99874334D02*
X115655000Y-99868420D01*
X115388393Y-99894678D01*
X115132032Y-99972445D01*
X114895769Y-100098730D01*
X114688682Y-100268683D01*
X114518730Y-100475770D01*
X114392445Y-100712033D01*
X114314678Y-100968394D01*
X114295000Y-101168192D01*
X114295000Y-101851809D01*
X114314678Y-102051607D01*
X114392445Y-102307968D01*
X114518730Y-102544231D01*
X114688683Y-102751318D01*
X114895770Y-102921270D01*
X115132033Y-103047555D01*
X115388394Y-103125322D01*
X115655000Y-103151580D01*
X115921607Y-103125322D01*
X116177968Y-103047555D01*
X116400157Y-102928792D01*
X116434510Y-102966567D01*
X116547737Y-103059250D01*
X116707214Y-103154651D01*
X116842425Y-103210586D01*
X117022686Y-103255732D01*
X117168299Y-103270129D01*
X117261437Y-103272469D01*
X119658446Y-103156602D01*
X119752477Y-103144981D01*
X119898372Y-103115764D01*
X119961331Y-103099767D01*
X120076075Y-103051501D01*
X120206912Y-102980645D01*
X120262376Y-102946830D01*
X120357836Y-102866937D01*
X120462029Y-102760717D01*
X120505086Y-102712078D01*
X120520698Y-102688000D01*
X120609494Y-102640537D01*
X120706185Y-102561185D01*
X120785537Y-102464494D01*
X120844502Y-102354180D01*
X120880812Y-102234482D01*
X120893072Y-102110000D01*
X120893072Y-100810000D01*
X120884163Y-100719547D01*
X121842362Y-100712308D01*
X121764678Y-100968394D01*
X121745000Y-101168192D01*
X121745000Y-101851809D01*
X121764678Y-102051607D01*
X121842445Y-102307968D01*
X121968730Y-102544231D01*
X122138683Y-102751318D01*
X122345770Y-102921270D01*
X122582033Y-103047555D01*
X122838394Y-103125322D01*
X123105000Y-103151580D01*
X123371607Y-103125322D01*
X123627968Y-103047555D01*
X123864231Y-102921270D01*
X124071318Y-102751318D01*
X124241270Y-102544231D01*
X124367555Y-102307968D01*
X124445322Y-102051606D01*
X124465000Y-101851808D01*
X124465000Y-101168191D01*
X124445322Y-100968393D01*
X124367555Y-100712032D01*
X124357546Y-100693306D01*
X134307921Y-100618132D01*
X135615000Y-103573064D01*
X135615000Y-104565408D01*
X135637211Y-104790913D01*
X135724984Y-105080261D01*
X135867520Y-105346927D01*
X136059340Y-105580661D01*
X136293074Y-105772481D01*
X136559740Y-105915017D01*
X136665068Y-105946968D01*
X136817213Y-106290924D01*
X136857318Y-106367150D01*
X136928307Y-106482364D01*
X136955131Y-106515000D01*
X124090051Y-106515000D01*
X124114739Y-106494739D01*
X124265946Y-106310492D01*
X124378303Y-106100287D01*
X124447492Y-105872200D01*
X124465000Y-105694436D01*
X124465000Y-104925563D01*
X124447492Y-104747799D01*
X124378303Y-104519713D01*
X124265946Y-104309508D01*
X124114739Y-104125261D01*
X123930491Y-103974054D01*
X123720286Y-103861697D01*
X123492200Y-103792508D01*
X123255000Y-103769146D01*
X123017799Y-103792508D01*
X122789713Y-103861697D01*
X122579508Y-103974054D01*
X122395261Y-104125261D01*
X122244054Y-104309509D01*
X122131697Y-104519714D01*
X122062508Y-104747800D01*
X122045000Y-104925564D01*
X122045000Y-105694437D01*
X122062508Y-105872201D01*
X122131697Y-106100287D01*
X122244055Y-106310492D01*
X122395262Y-106494739D01*
X122419950Y-106515000D01*
X116340051Y-106515000D01*
X116364739Y-106494739D01*
X116515946Y-106310492D01*
X116628303Y-106100287D01*
X116697492Y-105872200D01*
X116715000Y-105694436D01*
X116715000Y-104925563D01*
X116697492Y-104747799D01*
X116628303Y-104519713D01*
X116515946Y-104309508D01*
X116364739Y-104125261D01*
X116180491Y-103974054D01*
X115970286Y-103861697D01*
X115742200Y-103792508D01*
X115505000Y-103769146D01*
X115267799Y-103792508D01*
X115039713Y-103861697D01*
X114829508Y-103974054D01*
X114645261Y-104125261D01*
X114494054Y-104309509D01*
X114381697Y-104519714D01*
X114312508Y-104747800D01*
X114295000Y-104925564D01*
X114295000Y-105213006D01*
X114172889Y-105131414D01*
X114002729Y-105060932D01*
X113865000Y-105033536D01*
X113865000Y-87681780D01*
X115715046Y-99874334D01*
%TA.AperFunction,Conductor*%
D21*
G36*
X115715046Y-99874334D02*
G01*
X115655000Y-99868420D01*
X115388393Y-99894678D01*
X115132032Y-99972445D01*
X114895769Y-100098730D01*
X114688682Y-100268683D01*
X114518730Y-100475770D01*
X114392445Y-100712033D01*
X114314678Y-100968394D01*
X114295000Y-101168192D01*
X114295000Y-101851809D01*
X114314678Y-102051607D01*
X114392445Y-102307968D01*
X114518730Y-102544231D01*
X114688683Y-102751318D01*
X114895770Y-102921270D01*
X115132033Y-103047555D01*
X115388394Y-103125322D01*
X115655000Y-103151580D01*
X115921607Y-103125322D01*
X116177968Y-103047555D01*
X116400157Y-102928792D01*
X116434510Y-102966567D01*
X116547737Y-103059250D01*
X116707214Y-103154651D01*
X116842425Y-103210586D01*
X117022686Y-103255732D01*
X117168299Y-103270129D01*
X117261437Y-103272469D01*
X119658446Y-103156602D01*
X119752477Y-103144981D01*
X119898372Y-103115764D01*
X119961331Y-103099767D01*
X120076075Y-103051501D01*
X120206912Y-102980645D01*
X120262376Y-102946830D01*
X120357836Y-102866937D01*
X120462029Y-102760717D01*
X120505086Y-102712078D01*
X120520698Y-102688000D01*
X120609494Y-102640537D01*
X120706185Y-102561185D01*
X120785537Y-102464494D01*
X120844502Y-102354180D01*
X120880812Y-102234482D01*
X120893072Y-102110000D01*
X120893072Y-100810000D01*
X120884163Y-100719547D01*
X121842362Y-100712308D01*
X121764678Y-100968394D01*
X121745000Y-101168192D01*
X121745000Y-101851809D01*
X121764678Y-102051607D01*
X121842445Y-102307968D01*
X121968730Y-102544231D01*
X122138683Y-102751318D01*
X122345770Y-102921270D01*
X122582033Y-103047555D01*
X122838394Y-103125322D01*
X123105000Y-103151580D01*
X123371607Y-103125322D01*
X123627968Y-103047555D01*
X123864231Y-102921270D01*
X124071318Y-102751318D01*
X124241270Y-102544231D01*
X124367555Y-102307968D01*
X124445322Y-102051606D01*
X124465000Y-101851808D01*
X124465000Y-101168191D01*
X124445322Y-100968393D01*
X124367555Y-100712032D01*
X124357546Y-100693306D01*
X134307921Y-100618132D01*
X135615000Y-103573064D01*
X135615000Y-104565408D01*
X135637211Y-104790913D01*
X135724984Y-105080261D01*
X135867520Y-105346927D01*
X136059340Y-105580661D01*
X136293074Y-105772481D01*
X136559740Y-105915017D01*
X136665068Y-105946968D01*
X136817213Y-106290924D01*
X136857318Y-106367150D01*
X136928307Y-106482364D01*
X136955131Y-106515000D01*
X124090051Y-106515000D01*
X124114739Y-106494739D01*
X124265946Y-106310492D01*
X124378303Y-106100287D01*
X124447492Y-105872200D01*
X124465000Y-105694436D01*
X124465000Y-104925563D01*
X124447492Y-104747799D01*
X124378303Y-104519713D01*
X124265946Y-104309508D01*
X124114739Y-104125261D01*
X123930491Y-103974054D01*
X123720286Y-103861697D01*
X123492200Y-103792508D01*
X123255000Y-103769146D01*
X123017799Y-103792508D01*
X122789713Y-103861697D01*
X122579508Y-103974054D01*
X122395261Y-104125261D01*
X122244054Y-104309509D01*
X122131697Y-104519714D01*
X122062508Y-104747800D01*
X122045000Y-104925564D01*
X122045000Y-105694437D01*
X122062508Y-105872201D01*
X122131697Y-106100287D01*
X122244055Y-106310492D01*
X122395262Y-106494739D01*
X122419950Y-106515000D01*
X116340051Y-106515000D01*
X116364739Y-106494739D01*
X116515946Y-106310492D01*
X116628303Y-106100287D01*
X116697492Y-105872200D01*
X116715000Y-105694436D01*
X116715000Y-104925563D01*
X116697492Y-104747799D01*
X116628303Y-104519713D01*
X116515946Y-104309508D01*
X116364739Y-104125261D01*
X116180491Y-103974054D01*
X115970286Y-103861697D01*
X115742200Y-103792508D01*
X115505000Y-103769146D01*
X115267799Y-103792508D01*
X115039713Y-103861697D01*
X114829508Y-103974054D01*
X114645261Y-104125261D01*
X114494054Y-104309509D01*
X114381697Y-104519714D01*
X114312508Y-104747800D01*
X114295000Y-104925564D01*
X114295000Y-105213006D01*
X114172889Y-105131414D01*
X114002729Y-105060932D01*
X113865000Y-105033536D01*
X113865000Y-87681780D01*
X115715046Y-99874334D01*
G37*
%TD.AperFunction*%
D20*
X143485001Y-99745899D02*
X143448885Y-99708615D01*
X143350416Y-99629822D01*
X143284721Y-99583747D01*
X137861586Y-96270704D01*
X137876262Y-96256028D01*
X137978586Y-96102889D01*
X138049068Y-95932729D01*
X138085000Y-95752089D01*
X138085000Y-95567911D01*
X138049068Y-95387271D01*
X137985000Y-95232596D01*
X137985000Y-86721018D01*
X137989040Y-86680000D01*
X137972918Y-86516312D01*
X137941804Y-86413740D01*
X137925172Y-86358913D01*
X137847636Y-86213854D01*
X137795251Y-86150023D01*
X137769439Y-86118570D01*
X137769437Y-86118568D01*
X137743291Y-86086709D01*
X137711432Y-86060563D01*
X132569446Y-80918579D01*
X132543291Y-80886709D01*
X132416146Y-80782364D01*
X132271087Y-80704828D01*
X132113689Y-80657082D01*
X131991019Y-80645000D01*
X131991018Y-80645000D01*
X131950000Y-80640960D01*
X131908982Y-80645000D01*
X117478065Y-80645000D01*
X117403475Y-80533368D01*
X117196632Y-80326525D01*
X117022240Y-80210000D01*
X117196632Y-80093475D01*
X117403475Y-79886632D01*
X117565990Y-79643411D01*
X117677932Y-79373158D01*
X117735000Y-79086260D01*
X117735000Y-78793740D01*
X117677932Y-78506842D01*
X117565990Y-78236589D01*
X117403475Y-77993368D01*
X117196632Y-77786525D01*
X117022240Y-77670000D01*
X117196632Y-77553475D01*
X117403475Y-77346632D01*
X117565990Y-77103411D01*
X117677932Y-76833158D01*
X117735000Y-76546260D01*
X117735000Y-76253740D01*
X117677932Y-75966842D01*
X117565990Y-75696589D01*
X117403475Y-75453368D01*
X117196632Y-75246525D01*
X117022240Y-75130000D01*
X117196632Y-75013475D01*
X117403475Y-74806632D01*
X117565990Y-74563411D01*
X117677932Y-74293158D01*
X117735000Y-74006260D01*
X117735000Y-73713740D01*
X117677932Y-73426842D01*
X117565990Y-73156589D01*
X117403475Y-72913368D01*
X117196632Y-72706525D01*
X117022240Y-72590000D01*
X117196632Y-72473475D01*
X117403475Y-72266632D01*
X117565990Y-72023411D01*
X117677932Y-71753158D01*
X117735000Y-71466260D01*
X117735000Y-71173740D01*
X117677932Y-70886842D01*
X117565990Y-70616589D01*
X117403475Y-70373368D01*
X117196632Y-70166525D01*
X117022240Y-70050000D01*
X117196632Y-69933475D01*
X117403475Y-69726632D01*
X117565990Y-69483411D01*
X117677932Y-69213158D01*
X117735000Y-68926260D01*
X117735000Y-68633740D01*
X117677932Y-68346842D01*
X117565990Y-68076589D01*
X117403475Y-67833368D01*
X117196632Y-67626525D01*
X117022240Y-67510000D01*
X117196632Y-67393475D01*
X117403475Y-67186632D01*
X117565990Y-66943411D01*
X117677932Y-66673158D01*
X117735000Y-66386260D01*
X117735000Y-66093740D01*
X117677932Y-65806842D01*
X117565990Y-65536589D01*
X117403475Y-65293368D01*
X117196632Y-65086525D01*
X117022240Y-64970000D01*
X117196632Y-64853475D01*
X117403475Y-64646632D01*
X117565990Y-64403411D01*
X117677932Y-64133158D01*
X117735000Y-63846260D01*
X117735000Y-63553740D01*
X117677932Y-63266842D01*
X117565990Y-62996589D01*
X117403475Y-62753368D01*
X117196632Y-62546525D01*
X117022240Y-62430000D01*
X117196632Y-62313475D01*
X117403475Y-62106632D01*
X117565990Y-61863411D01*
X117677932Y-61593158D01*
X117735000Y-61306260D01*
X117735000Y-61013740D01*
X117677932Y-60726842D01*
X117565990Y-60456589D01*
X117403475Y-60213368D01*
X117196632Y-60006525D01*
X117022240Y-59890000D01*
X117196632Y-59773475D01*
X117403475Y-59566632D01*
X117565990Y-59323411D01*
X117677932Y-59053158D01*
X117735000Y-58766260D01*
X117735000Y-58473740D01*
X117677932Y-58186842D01*
X117565990Y-57916589D01*
X117403475Y-57673368D01*
X117196632Y-57466525D01*
X117022240Y-57350000D01*
X117196632Y-57233475D01*
X117403475Y-57026632D01*
X117565990Y-56783411D01*
X117677932Y-56513158D01*
X117735000Y-56226260D01*
X117735000Y-55933740D01*
X117677932Y-55646842D01*
X117565990Y-55376589D01*
X117403475Y-55133368D01*
X117196632Y-54926525D01*
X117022240Y-54810000D01*
X117196632Y-54693475D01*
X117403475Y-54486632D01*
X117565990Y-54243411D01*
X117677932Y-53973158D01*
X117735000Y-53686260D01*
X117735000Y-53393740D01*
X117677932Y-53106842D01*
X117565990Y-52836589D01*
X117403475Y-52593368D01*
X117271620Y-52461513D01*
X117344180Y-52439502D01*
X117454494Y-52380537D01*
X117551185Y-52301185D01*
X117630537Y-52204494D01*
X117689502Y-52094180D01*
X117725812Y-51974482D01*
X117738072Y-51850000D01*
X117738072Y-50150000D01*
X117736595Y-50135000D01*
X121574893Y-50135000D01*
X121496525Y-50213368D01*
X121334010Y-50456589D01*
X121222068Y-50726842D01*
X121165000Y-51013740D01*
X121165000Y-51306260D01*
X121222068Y-51593158D01*
X121334010Y-51863411D01*
X121496525Y-52106632D01*
X121703368Y-52313475D01*
X121946589Y-52475990D01*
X122075001Y-52529180D01*
X122075000Y-56204068D01*
X122070476Y-56250000D01*
X122075000Y-56295931D01*
X122088529Y-56433291D01*
X122141993Y-56609539D01*
X122228814Y-56771971D01*
X122345656Y-56914344D01*
X122381341Y-56943630D01*
X134846370Y-69408659D01*
X134875656Y-69444344D01*
X135018028Y-69561186D01*
X135180460Y-69648007D01*
X135356708Y-69701471D01*
X135540000Y-69719524D01*
X135585932Y-69715000D01*
X140688753Y-69715000D01*
X140696525Y-69726632D01*
X140903368Y-69933475D01*
X141077760Y-70050000D01*
X140903368Y-70166525D01*
X140696525Y-70373368D01*
X140534010Y-70616589D01*
X140422068Y-70886842D01*
X140365000Y-71173740D01*
X140365000Y-71466260D01*
X140422068Y-71753158D01*
X140534010Y-72023411D01*
X140696525Y-72266632D01*
X140903368Y-72473475D01*
X141077760Y-72590000D01*
X140903368Y-72706525D01*
X140696525Y-72913368D01*
X140534010Y-73156589D01*
X140422068Y-73426842D01*
X140365000Y-73713740D01*
X140365000Y-74006260D01*
X140422068Y-74293158D01*
X140534010Y-74563411D01*
X140696525Y-74806632D01*
X140903368Y-75013475D01*
X141077760Y-75130000D01*
X140903368Y-75246525D01*
X140696525Y-75453368D01*
X140534010Y-75696589D01*
X140422068Y-75966842D01*
X140365000Y-76253740D01*
X140365000Y-76546260D01*
X140422068Y-76833158D01*
X140534010Y-77103411D01*
X140696525Y-77346632D01*
X140903368Y-77553475D01*
X141077760Y-77670000D01*
X140903368Y-77786525D01*
X140696525Y-77993368D01*
X140534010Y-78236589D01*
X140422068Y-78506842D01*
X140365000Y-78793740D01*
X140365000Y-79086260D01*
X140422068Y-79373158D01*
X140534010Y-79643411D01*
X140696525Y-79886632D01*
X140903368Y-80093475D01*
X141077760Y-80210000D01*
X140903368Y-80326525D01*
X140696525Y-80533368D01*
X140534010Y-80776589D01*
X140422068Y-81046842D01*
X140365000Y-81333740D01*
X140365000Y-81626260D01*
X140422068Y-81913158D01*
X140534010Y-82183411D01*
X140696525Y-82426632D01*
X140903368Y-82633475D01*
X141077760Y-82750000D01*
X140903368Y-82866525D01*
X140696525Y-83073368D01*
X140534010Y-83316589D01*
X140422068Y-83586842D01*
X140365000Y-83873740D01*
X140365000Y-84166260D01*
X140422068Y-84453158D01*
X140534010Y-84723411D01*
X140696525Y-84966632D01*
X140903368Y-85173475D01*
X141077760Y-85290000D01*
X140903368Y-85406525D01*
X140696525Y-85613368D01*
X140534010Y-85856589D01*
X140422068Y-86126842D01*
X140365000Y-86413740D01*
X140365000Y-86706260D01*
X140422068Y-86993158D01*
X140534010Y-87263411D01*
X140696525Y-87506632D01*
X140903368Y-87713475D01*
X141146589Y-87875990D01*
X141416842Y-87987932D01*
X141703740Y-88045000D01*
X141996260Y-88045000D01*
X142283158Y-87987932D01*
X142553411Y-87875990D01*
X142796632Y-87713475D01*
X143003475Y-87506632D01*
X143165990Y-87263411D01*
X143277932Y-86993158D01*
X143335000Y-86706260D01*
X143335000Y-86413740D01*
X143277932Y-86126842D01*
X143165990Y-85856589D01*
X143003475Y-85613368D01*
X142796632Y-85406525D01*
X142622240Y-85290000D01*
X142796632Y-85173475D01*
X143003475Y-84966632D01*
X143165990Y-84723411D01*
X143277932Y-84453158D01*
X143335000Y-84166260D01*
X143335000Y-83873740D01*
X143277932Y-83586842D01*
X143165990Y-83316589D01*
X143003475Y-83073368D01*
X142796632Y-82866525D01*
X142622240Y-82750000D01*
X142796632Y-82633475D01*
X143003475Y-82426632D01*
X143165990Y-82183411D01*
X143277932Y-81913158D01*
X143335000Y-81626260D01*
X143335000Y-81333740D01*
X143277932Y-81046842D01*
X143165990Y-80776589D01*
X143003475Y-80533368D01*
X142796632Y-80326525D01*
X142622240Y-80210000D01*
X142796632Y-80093475D01*
X143003475Y-79886632D01*
X143165990Y-79643411D01*
X143277932Y-79373158D01*
X143335000Y-79086260D01*
X143335000Y-78793740D01*
X143277932Y-78506842D01*
X143165990Y-78236589D01*
X143003475Y-77993368D01*
X142796632Y-77786525D01*
X142622240Y-77670000D01*
X142796632Y-77553475D01*
X143003475Y-77346632D01*
X143165990Y-77103411D01*
X143277932Y-76833158D01*
X143335000Y-76546260D01*
X143335000Y-76253740D01*
X143277932Y-75966842D01*
X143165990Y-75696589D01*
X143003475Y-75453368D01*
X142796632Y-75246525D01*
X142622240Y-75130000D01*
X142796632Y-75013475D01*
X143003475Y-74806632D01*
X143165990Y-74563411D01*
X143277932Y-74293158D01*
X143335000Y-74006260D01*
X143335000Y-73713740D01*
X143277932Y-73426842D01*
X143165990Y-73156589D01*
X143003475Y-72913368D01*
X142796632Y-72706525D01*
X142622240Y-72590000D01*
X142796632Y-72473475D01*
X143003475Y-72266632D01*
X143165990Y-72023411D01*
X143277932Y-71753158D01*
X143335000Y-71466260D01*
X143335000Y-71173740D01*
X143277932Y-70886842D01*
X143165990Y-70616589D01*
X143003475Y-70373368D01*
X142796632Y-70166525D01*
X142622240Y-70050000D01*
X142796632Y-69933475D01*
X143003475Y-69726632D01*
X143165990Y-69483411D01*
X143277932Y-69213158D01*
X143335000Y-68926260D01*
X143335000Y-68633740D01*
X143277932Y-68346842D01*
X143165990Y-68076589D01*
X143003475Y-67833368D01*
X142796632Y-67626525D01*
X142622240Y-67510000D01*
X142796632Y-67393475D01*
X143003475Y-67186632D01*
X143165990Y-66943411D01*
X143277932Y-66673158D01*
X143335000Y-66386260D01*
X143335000Y-66093740D01*
X143277932Y-65806842D01*
X143165990Y-65536589D01*
X143003475Y-65293368D01*
X142796632Y-65086525D01*
X142622240Y-64970000D01*
X142796632Y-64853475D01*
X143003475Y-64646632D01*
X143165990Y-64403411D01*
X143277932Y-64133158D01*
X143335000Y-63846260D01*
X143335000Y-63553740D01*
X143277932Y-63266842D01*
X143165990Y-62996589D01*
X143003475Y-62753368D01*
X142796632Y-62546525D01*
X142622240Y-62430000D01*
X142796632Y-62313475D01*
X143003475Y-62106632D01*
X143165990Y-61863411D01*
X143277932Y-61593158D01*
X143335000Y-61306260D01*
X143335000Y-61013740D01*
X143277932Y-60726842D01*
X143165990Y-60456589D01*
X143003475Y-60213368D01*
X142796632Y-60006525D01*
X142622240Y-59890000D01*
X142796632Y-59773475D01*
X143003475Y-59566632D01*
X143165990Y-59323411D01*
X143277932Y-59053158D01*
X143335000Y-58766260D01*
X143335000Y-58473740D01*
X143277932Y-58186842D01*
X143165990Y-57916589D01*
X143003475Y-57673368D01*
X142796632Y-57466525D01*
X142622240Y-57350000D01*
X142796632Y-57233475D01*
X143003475Y-57026632D01*
X143165990Y-56783411D01*
X143277932Y-56513158D01*
X143335000Y-56226260D01*
X143335000Y-55933740D01*
X143277932Y-55646842D01*
X143165990Y-55376589D01*
X143003475Y-55133368D01*
X142796632Y-54926525D01*
X142622240Y-54810000D01*
X142796632Y-54693475D01*
X143003475Y-54486632D01*
X143165990Y-54243411D01*
X143277932Y-53973158D01*
X143335000Y-53686260D01*
X143335000Y-53393740D01*
X143277932Y-53106842D01*
X143165990Y-52836589D01*
X143003475Y-52593368D01*
X142871620Y-52461513D01*
X142944180Y-52439502D01*
X143054494Y-52380537D01*
X143151185Y-52301185D01*
X143230537Y-52204494D01*
X143289502Y-52094180D01*
X143325812Y-51974482D01*
X143338072Y-51850000D01*
X143338072Y-50150000D01*
X143325812Y-50025518D01*
X143289502Y-49905820D01*
X143230537Y-49795506D01*
X143151185Y-49698815D01*
X143054494Y-49619463D01*
X142944180Y-49560498D01*
X142824482Y-49524188D01*
X142700000Y-49511928D01*
X141000000Y-49511928D01*
X140875518Y-49524188D01*
X140755820Y-49560498D01*
X140645506Y-49619463D01*
X140548815Y-49698815D01*
X140469463Y-49795506D01*
X140410498Y-49905820D01*
X140374188Y-50025518D01*
X140362215Y-50147090D01*
X140228028Y-50218814D01*
X140085656Y-50335656D01*
X140056374Y-50371336D01*
X138282711Y-52145000D01*
X133925107Y-52145000D01*
X133963475Y-52106632D01*
X134125990Y-51863411D01*
X134237932Y-51593158D01*
X134295000Y-51306260D01*
X134295000Y-51013740D01*
X134237932Y-50726842D01*
X134125990Y-50456589D01*
X133963475Y-50213368D01*
X133756632Y-50006525D01*
X133513411Y-49844010D01*
X133243158Y-49732068D01*
X133019960Y-49687671D01*
X132597289Y-49265000D01*
X143485000Y-49265000D01*
X143485001Y-99745899D01*
%TA.AperFunction,Conductor*%
D21*
G36*
X143485001Y-99745899D02*
G01*
X143448885Y-99708615D01*
X143350416Y-99629822D01*
X143284721Y-99583747D01*
X137861586Y-96270704D01*
X137876262Y-96256028D01*
X137978586Y-96102889D01*
X138049068Y-95932729D01*
X138085000Y-95752089D01*
X138085000Y-95567911D01*
X138049068Y-95387271D01*
X137985000Y-95232596D01*
X137985000Y-86721018D01*
X137989040Y-86680000D01*
X137972918Y-86516312D01*
X137941804Y-86413740D01*
X137925172Y-86358913D01*
X137847636Y-86213854D01*
X137795251Y-86150023D01*
X137769439Y-86118570D01*
X137769437Y-86118568D01*
X137743291Y-86086709D01*
X137711432Y-86060563D01*
X132569446Y-80918579D01*
X132543291Y-80886709D01*
X132416146Y-80782364D01*
X132271087Y-80704828D01*
X132113689Y-80657082D01*
X131991019Y-80645000D01*
X131991018Y-80645000D01*
X131950000Y-80640960D01*
X131908982Y-80645000D01*
X117478065Y-80645000D01*
X117403475Y-80533368D01*
X117196632Y-80326525D01*
X117022240Y-80210000D01*
X117196632Y-80093475D01*
X117403475Y-79886632D01*
X117565990Y-79643411D01*
X117677932Y-79373158D01*
X117735000Y-79086260D01*
X117735000Y-78793740D01*
X117677932Y-78506842D01*
X117565990Y-78236589D01*
X117403475Y-77993368D01*
X117196632Y-77786525D01*
X117022240Y-77670000D01*
X117196632Y-77553475D01*
X117403475Y-77346632D01*
X117565990Y-77103411D01*
X117677932Y-76833158D01*
X117735000Y-76546260D01*
X117735000Y-76253740D01*
X117677932Y-75966842D01*
X117565990Y-75696589D01*
X117403475Y-75453368D01*
X117196632Y-75246525D01*
X117022240Y-75130000D01*
X117196632Y-75013475D01*
X117403475Y-74806632D01*
X117565990Y-74563411D01*
X117677932Y-74293158D01*
X117735000Y-74006260D01*
X117735000Y-73713740D01*
X117677932Y-73426842D01*
X117565990Y-73156589D01*
X117403475Y-72913368D01*
X117196632Y-72706525D01*
X117022240Y-72590000D01*
X117196632Y-72473475D01*
X117403475Y-72266632D01*
X117565990Y-72023411D01*
X117677932Y-71753158D01*
X117735000Y-71466260D01*
X117735000Y-71173740D01*
X117677932Y-70886842D01*
X117565990Y-70616589D01*
X117403475Y-70373368D01*
X117196632Y-70166525D01*
X117022240Y-70050000D01*
X117196632Y-69933475D01*
X117403475Y-69726632D01*
X117565990Y-69483411D01*
X117677932Y-69213158D01*
X117735000Y-68926260D01*
X117735000Y-68633740D01*
X117677932Y-68346842D01*
X117565990Y-68076589D01*
X117403475Y-67833368D01*
X117196632Y-67626525D01*
X117022240Y-67510000D01*
X117196632Y-67393475D01*
X117403475Y-67186632D01*
X117565990Y-66943411D01*
X117677932Y-66673158D01*
X117735000Y-66386260D01*
X117735000Y-66093740D01*
X117677932Y-65806842D01*
X117565990Y-65536589D01*
X117403475Y-65293368D01*
X117196632Y-65086525D01*
X117022240Y-64970000D01*
X117196632Y-64853475D01*
X117403475Y-64646632D01*
X117565990Y-64403411D01*
X117677932Y-64133158D01*
X117735000Y-63846260D01*
X117735000Y-63553740D01*
X117677932Y-63266842D01*
X117565990Y-62996589D01*
X117403475Y-62753368D01*
X117196632Y-62546525D01*
X117022240Y-62430000D01*
X117196632Y-62313475D01*
X117403475Y-62106632D01*
X117565990Y-61863411D01*
X117677932Y-61593158D01*
X117735000Y-61306260D01*
X117735000Y-61013740D01*
X117677932Y-60726842D01*
X117565990Y-60456589D01*
X117403475Y-60213368D01*
X117196632Y-60006525D01*
X117022240Y-59890000D01*
X117196632Y-59773475D01*
X117403475Y-59566632D01*
X117565990Y-59323411D01*
X117677932Y-59053158D01*
X117735000Y-58766260D01*
X117735000Y-58473740D01*
X117677932Y-58186842D01*
X117565990Y-57916589D01*
X117403475Y-57673368D01*
X117196632Y-57466525D01*
X117022240Y-57350000D01*
X117196632Y-57233475D01*
X117403475Y-57026632D01*
X117565990Y-56783411D01*
X117677932Y-56513158D01*
X117735000Y-56226260D01*
X117735000Y-55933740D01*
X117677932Y-55646842D01*
X117565990Y-55376589D01*
X117403475Y-55133368D01*
X117196632Y-54926525D01*
X117022240Y-54810000D01*
X117196632Y-54693475D01*
X117403475Y-54486632D01*
X117565990Y-54243411D01*
X117677932Y-53973158D01*
X117735000Y-53686260D01*
X117735000Y-53393740D01*
X117677932Y-53106842D01*
X117565990Y-52836589D01*
X117403475Y-52593368D01*
X117271620Y-52461513D01*
X117344180Y-52439502D01*
X117454494Y-52380537D01*
X117551185Y-52301185D01*
X117630537Y-52204494D01*
X117689502Y-52094180D01*
X117725812Y-51974482D01*
X117738072Y-51850000D01*
X117738072Y-50150000D01*
X117736595Y-50135000D01*
X121574893Y-50135000D01*
X121496525Y-50213368D01*
X121334010Y-50456589D01*
X121222068Y-50726842D01*
X121165000Y-51013740D01*
X121165000Y-51306260D01*
X121222068Y-51593158D01*
X121334010Y-51863411D01*
X121496525Y-52106632D01*
X121703368Y-52313475D01*
X121946589Y-52475990D01*
X122075001Y-52529180D01*
X122075000Y-56204068D01*
X122070476Y-56250000D01*
X122075000Y-56295931D01*
X122088529Y-56433291D01*
X122141993Y-56609539D01*
X122228814Y-56771971D01*
X122345656Y-56914344D01*
X122381341Y-56943630D01*
X134846370Y-69408659D01*
X134875656Y-69444344D01*
X135018028Y-69561186D01*
X135180460Y-69648007D01*
X135356708Y-69701471D01*
X135540000Y-69719524D01*
X135585932Y-69715000D01*
X140688753Y-69715000D01*
X140696525Y-69726632D01*
X140903368Y-69933475D01*
X141077760Y-70050000D01*
X140903368Y-70166525D01*
X140696525Y-70373368D01*
X140534010Y-70616589D01*
X140422068Y-70886842D01*
X140365000Y-71173740D01*
X140365000Y-71466260D01*
X140422068Y-71753158D01*
X140534010Y-72023411D01*
X140696525Y-72266632D01*
X140903368Y-72473475D01*
X141077760Y-72590000D01*
X140903368Y-72706525D01*
X140696525Y-72913368D01*
X140534010Y-73156589D01*
X140422068Y-73426842D01*
X140365000Y-73713740D01*
X140365000Y-74006260D01*
X140422068Y-74293158D01*
X140534010Y-74563411D01*
X140696525Y-74806632D01*
X140903368Y-75013475D01*
X141077760Y-75130000D01*
X140903368Y-75246525D01*
X140696525Y-75453368D01*
X140534010Y-75696589D01*
X140422068Y-75966842D01*
X140365000Y-76253740D01*
X140365000Y-76546260D01*
X140422068Y-76833158D01*
X140534010Y-77103411D01*
X140696525Y-77346632D01*
X140903368Y-77553475D01*
X141077760Y-77670000D01*
X140903368Y-77786525D01*
X140696525Y-77993368D01*
X140534010Y-78236589D01*
X140422068Y-78506842D01*
X140365000Y-78793740D01*
X140365000Y-79086260D01*
X140422068Y-79373158D01*
X140534010Y-79643411D01*
X140696525Y-79886632D01*
X140903368Y-80093475D01*
X141077760Y-80210000D01*
X140903368Y-80326525D01*
X140696525Y-80533368D01*
X140534010Y-80776589D01*
X140422068Y-81046842D01*
X140365000Y-81333740D01*
X140365000Y-81626260D01*
X140422068Y-81913158D01*
X140534010Y-82183411D01*
X140696525Y-82426632D01*
X140903368Y-82633475D01*
X141077760Y-82750000D01*
X140903368Y-82866525D01*
X140696525Y-83073368D01*
X140534010Y-83316589D01*
X140422068Y-83586842D01*
X140365000Y-83873740D01*
X140365000Y-84166260D01*
X140422068Y-84453158D01*
X140534010Y-84723411D01*
X140696525Y-84966632D01*
X140903368Y-85173475D01*
X141077760Y-85290000D01*
X140903368Y-85406525D01*
X140696525Y-85613368D01*
X140534010Y-85856589D01*
X140422068Y-86126842D01*
X140365000Y-86413740D01*
X140365000Y-86706260D01*
X140422068Y-86993158D01*
X140534010Y-87263411D01*
X140696525Y-87506632D01*
X140903368Y-87713475D01*
X141146589Y-87875990D01*
X141416842Y-87987932D01*
X141703740Y-88045000D01*
X141996260Y-88045000D01*
X142283158Y-87987932D01*
X142553411Y-87875990D01*
X142796632Y-87713475D01*
X143003475Y-87506632D01*
X143165990Y-87263411D01*
X143277932Y-86993158D01*
X143335000Y-86706260D01*
X143335000Y-86413740D01*
X143277932Y-86126842D01*
X143165990Y-85856589D01*
X143003475Y-85613368D01*
X142796632Y-85406525D01*
X142622240Y-85290000D01*
X142796632Y-85173475D01*
X143003475Y-84966632D01*
X143165990Y-84723411D01*
X143277932Y-84453158D01*
X143335000Y-84166260D01*
X143335000Y-83873740D01*
X143277932Y-83586842D01*
X143165990Y-83316589D01*
X143003475Y-83073368D01*
X142796632Y-82866525D01*
X142622240Y-82750000D01*
X142796632Y-82633475D01*
X143003475Y-82426632D01*
X143165990Y-82183411D01*
X143277932Y-81913158D01*
X143335000Y-81626260D01*
X143335000Y-81333740D01*
X143277932Y-81046842D01*
X143165990Y-80776589D01*
X143003475Y-80533368D01*
X142796632Y-80326525D01*
X142622240Y-80210000D01*
X142796632Y-80093475D01*
X143003475Y-79886632D01*
X143165990Y-79643411D01*
X143277932Y-79373158D01*
X143335000Y-79086260D01*
X143335000Y-78793740D01*
X143277932Y-78506842D01*
X143165990Y-78236589D01*
X143003475Y-77993368D01*
X142796632Y-77786525D01*
X142622240Y-77670000D01*
X142796632Y-77553475D01*
X143003475Y-77346632D01*
X143165990Y-77103411D01*
X143277932Y-76833158D01*
X143335000Y-76546260D01*
X143335000Y-76253740D01*
X143277932Y-75966842D01*
X143165990Y-75696589D01*
X143003475Y-75453368D01*
X142796632Y-75246525D01*
X142622240Y-75130000D01*
X142796632Y-75013475D01*
X143003475Y-74806632D01*
X143165990Y-74563411D01*
X143277932Y-74293158D01*
X143335000Y-74006260D01*
X143335000Y-73713740D01*
X143277932Y-73426842D01*
X143165990Y-73156589D01*
X143003475Y-72913368D01*
X142796632Y-72706525D01*
X142622240Y-72590000D01*
X142796632Y-72473475D01*
X143003475Y-72266632D01*
X143165990Y-72023411D01*
X143277932Y-71753158D01*
X143335000Y-71466260D01*
X143335000Y-71173740D01*
X143277932Y-70886842D01*
X143165990Y-70616589D01*
X143003475Y-70373368D01*
X142796632Y-70166525D01*
X142622240Y-70050000D01*
X142796632Y-69933475D01*
X143003475Y-69726632D01*
X143165990Y-69483411D01*
X143277932Y-69213158D01*
X143335000Y-68926260D01*
X143335000Y-68633740D01*
X143277932Y-68346842D01*
X143165990Y-68076589D01*
X143003475Y-67833368D01*
X142796632Y-67626525D01*
X142622240Y-67510000D01*
X142796632Y-67393475D01*
X143003475Y-67186632D01*
X143165990Y-66943411D01*
X143277932Y-66673158D01*
X143335000Y-66386260D01*
X143335000Y-66093740D01*
X143277932Y-65806842D01*
X143165990Y-65536589D01*
X143003475Y-65293368D01*
X142796632Y-65086525D01*
X142622240Y-64970000D01*
X142796632Y-64853475D01*
X143003475Y-64646632D01*
X143165990Y-64403411D01*
X143277932Y-64133158D01*
X143335000Y-63846260D01*
X143335000Y-63553740D01*
X143277932Y-63266842D01*
X143165990Y-62996589D01*
X143003475Y-62753368D01*
X142796632Y-62546525D01*
X142622240Y-62430000D01*
X142796632Y-62313475D01*
X143003475Y-62106632D01*
X143165990Y-61863411D01*
X143277932Y-61593158D01*
X143335000Y-61306260D01*
X143335000Y-61013740D01*
X143277932Y-60726842D01*
X143165990Y-60456589D01*
X143003475Y-60213368D01*
X142796632Y-60006525D01*
X142622240Y-59890000D01*
X142796632Y-59773475D01*
X143003475Y-59566632D01*
X143165990Y-59323411D01*
X143277932Y-59053158D01*
X143335000Y-58766260D01*
X143335000Y-58473740D01*
X143277932Y-58186842D01*
X143165990Y-57916589D01*
X143003475Y-57673368D01*
X142796632Y-57466525D01*
X142622240Y-57350000D01*
X142796632Y-57233475D01*
X143003475Y-57026632D01*
X143165990Y-56783411D01*
X143277932Y-56513158D01*
X143335000Y-56226260D01*
X143335000Y-55933740D01*
X143277932Y-55646842D01*
X143165990Y-55376589D01*
X143003475Y-55133368D01*
X142796632Y-54926525D01*
X142622240Y-54810000D01*
X142796632Y-54693475D01*
X143003475Y-54486632D01*
X143165990Y-54243411D01*
X143277932Y-53973158D01*
X143335000Y-53686260D01*
X143335000Y-53393740D01*
X143277932Y-53106842D01*
X143165990Y-52836589D01*
X143003475Y-52593368D01*
X142871620Y-52461513D01*
X142944180Y-52439502D01*
X143054494Y-52380537D01*
X143151185Y-52301185D01*
X143230537Y-52204494D01*
X143289502Y-52094180D01*
X143325812Y-51974482D01*
X143338072Y-51850000D01*
X143338072Y-50150000D01*
X143325812Y-50025518D01*
X143289502Y-49905820D01*
X143230537Y-49795506D01*
X143151185Y-49698815D01*
X143054494Y-49619463D01*
X142944180Y-49560498D01*
X142824482Y-49524188D01*
X142700000Y-49511928D01*
X141000000Y-49511928D01*
X140875518Y-49524188D01*
X140755820Y-49560498D01*
X140645506Y-49619463D01*
X140548815Y-49698815D01*
X140469463Y-49795506D01*
X140410498Y-49905820D01*
X140374188Y-50025518D01*
X140362215Y-50147090D01*
X140228028Y-50218814D01*
X140085656Y-50335656D01*
X140056374Y-50371336D01*
X138282711Y-52145000D01*
X133925107Y-52145000D01*
X133963475Y-52106632D01*
X134125990Y-51863411D01*
X134237932Y-51593158D01*
X134295000Y-51306260D01*
X134295000Y-51013740D01*
X134237932Y-50726842D01*
X134125990Y-50456589D01*
X133963475Y-50213368D01*
X133756632Y-50006525D01*
X133513411Y-49844010D01*
X133243158Y-49732068D01*
X133019960Y-49687671D01*
X132597289Y-49265000D01*
X143485000Y-49265000D01*
X143485001Y-99745899D01*
G37*
%TD.AperFunction*%
D20*
X136315001Y-87025870D02*
X136315000Y-95232596D01*
X136284163Y-95307043D01*
X118872856Y-84670316D01*
X118807264Y-84635344D01*
X118701111Y-84586496D01*
X118559974Y-84540638D01*
X118445382Y-84517762D01*
X118371766Y-84507502D01*
X115325000Y-84263481D01*
X115325000Y-82647929D01*
X115546589Y-82795990D01*
X115816842Y-82907932D01*
X116103740Y-82965000D01*
X116396260Y-82965000D01*
X116683158Y-82907932D01*
X116953411Y-82795990D01*
X117196632Y-82633475D01*
X117403475Y-82426632D01*
X117478065Y-82315000D01*
X131604133Y-82315000D01*
X136315001Y-87025870D01*
%TA.AperFunction,Conductor*%
D21*
G36*
X136315001Y-87025870D02*
G01*
X136315000Y-95232596D01*
X136284163Y-95307043D01*
X118872856Y-84670316D01*
X118807264Y-84635344D01*
X118701111Y-84586496D01*
X118559974Y-84540638D01*
X118445382Y-84517762D01*
X118371766Y-84507502D01*
X115325000Y-84263481D01*
X115325000Y-82647929D01*
X115546589Y-82795990D01*
X115816842Y-82907932D01*
X116103740Y-82965000D01*
X116396260Y-82965000D01*
X116683158Y-82907932D01*
X116953411Y-82795990D01*
X117196632Y-82633475D01*
X117403475Y-82426632D01*
X117478065Y-82315000D01*
X131604133Y-82315000D01*
X136315001Y-87025870D01*
G37*
%TD.AperFunction*%
%TD*%
M02*
