%TF.GenerationSoftware,KiCad,Pcbnew,(5.1.9)-1*%
%TF.CreationDate,2021-02-13T21:43:23+00:00*%
%TF.ProjectId,T24_5_2-BBB,5432345f-355f-4322-9d42-42422e6b6963,rev?*%
%TF.SameCoordinates,Original*%
%TF.FileFunction,Paste,Top*%
%TF.FilePolarity,Positive*%
%FSLAX46Y46*%
G04 Gerber Fmt 4.6, Leading zero omitted, Abs format (unit mm)*
G04 Created by KiCad (PCBNEW (5.1.9)-1) date 2021-02-13 21:43:23*
%MOMM*%
%LPD*%
G01*
G04 APERTURE LIST*
G04 APERTURE END LIST*
%TO.C,C2*%
G36*
G01*
X188415000Y-63540000D02*
X187465000Y-63540000D01*
G75*
G02*
X187215000Y-63290000I0J250000D01*
G01*
X187215000Y-62790000D01*
G75*
G02*
X187465000Y-62540000I250000J0D01*
G01*
X188415000Y-62540000D01*
G75*
G02*
X188665000Y-62790000I0J-250000D01*
G01*
X188665000Y-63290000D01*
G75*
G02*
X188415000Y-63540000I-250000J0D01*
G01*
G37*
G36*
G01*
X188415000Y-65440000D02*
X187465000Y-65440000D01*
G75*
G02*
X187215000Y-65190000I0J250000D01*
G01*
X187215000Y-64690000D01*
G75*
G02*
X187465000Y-64440000I250000J0D01*
G01*
X188415000Y-64440000D01*
G75*
G02*
X188665000Y-64690000I0J-250000D01*
G01*
X188665000Y-65190000D01*
G75*
G02*
X188415000Y-65440000I-250000J0D01*
G01*
G37*
%TD*%
%TO.C,C17*%
G36*
G01*
X222735000Y-82400000D02*
X221785000Y-82400000D01*
G75*
G02*
X221535000Y-82150000I0J250000D01*
G01*
X221535000Y-81650000D01*
G75*
G02*
X221785000Y-81400000I250000J0D01*
G01*
X222735000Y-81400000D01*
G75*
G02*
X222985000Y-81650000I0J-250000D01*
G01*
X222985000Y-82150000D01*
G75*
G02*
X222735000Y-82400000I-250000J0D01*
G01*
G37*
G36*
G01*
X222735000Y-84300000D02*
X221785000Y-84300000D01*
G75*
G02*
X221535000Y-84050000I0J250000D01*
G01*
X221535000Y-83550000D01*
G75*
G02*
X221785000Y-83300000I250000J0D01*
G01*
X222735000Y-83300000D01*
G75*
G02*
X222985000Y-83550000I0J-250000D01*
G01*
X222985000Y-84050000D01*
G75*
G02*
X222735000Y-84300000I-250000J0D01*
G01*
G37*
%TD*%
%TO.C,C9*%
G36*
G01*
X123320000Y-99855000D02*
X123320000Y-100805000D01*
G75*
G02*
X123070000Y-101055000I-250000J0D01*
G01*
X122570000Y-101055000D01*
G75*
G02*
X122320000Y-100805000I0J250000D01*
G01*
X122320000Y-99855000D01*
G75*
G02*
X122570000Y-99605000I250000J0D01*
G01*
X123070000Y-99605000D01*
G75*
G02*
X123320000Y-99855000I0J-250000D01*
G01*
G37*
G36*
G01*
X125220000Y-99855000D02*
X125220000Y-100805000D01*
G75*
G02*
X124970000Y-101055000I-250000J0D01*
G01*
X124470000Y-101055000D01*
G75*
G02*
X124220000Y-100805000I0J250000D01*
G01*
X124220000Y-99855000D01*
G75*
G02*
X124470000Y-99605000I250000J0D01*
G01*
X124970000Y-99605000D01*
G75*
G02*
X125220000Y-99855000I0J-250000D01*
G01*
G37*
%TD*%
%TO.C,C8*%
G36*
G01*
X85885000Y-132510000D02*
X84935000Y-132510000D01*
G75*
G02*
X84685000Y-132260000I0J250000D01*
G01*
X84685000Y-131760000D01*
G75*
G02*
X84935000Y-131510000I250000J0D01*
G01*
X85885000Y-131510000D01*
G75*
G02*
X86135000Y-131760000I0J-250000D01*
G01*
X86135000Y-132260000D01*
G75*
G02*
X85885000Y-132510000I-250000J0D01*
G01*
G37*
G36*
G01*
X85885000Y-134410000D02*
X84935000Y-134410000D01*
G75*
G02*
X84685000Y-134160000I0J250000D01*
G01*
X84685000Y-133660000D01*
G75*
G02*
X84935000Y-133410000I250000J0D01*
G01*
X85885000Y-133410000D01*
G75*
G02*
X86135000Y-133660000I0J-250000D01*
G01*
X86135000Y-134160000D01*
G75*
G02*
X85885000Y-134410000I-250000J0D01*
G01*
G37*
%TD*%
%TO.C,C7*%
G36*
G01*
X171750000Y-73725000D02*
X171750000Y-74675000D01*
G75*
G02*
X171500000Y-74925000I-250000J0D01*
G01*
X171000000Y-74925000D01*
G75*
G02*
X170750000Y-74675000I0J250000D01*
G01*
X170750000Y-73725000D01*
G75*
G02*
X171000000Y-73475000I250000J0D01*
G01*
X171500000Y-73475000D01*
G75*
G02*
X171750000Y-73725000I0J-250000D01*
G01*
G37*
G36*
G01*
X173650000Y-73725000D02*
X173650000Y-74675000D01*
G75*
G02*
X173400000Y-74925000I-250000J0D01*
G01*
X172900000Y-74925000D01*
G75*
G02*
X172650000Y-74675000I0J250000D01*
G01*
X172650000Y-73725000D01*
G75*
G02*
X172900000Y-73475000I250000J0D01*
G01*
X173400000Y-73475000D01*
G75*
G02*
X173650000Y-73725000I0J-250000D01*
G01*
G37*
%TD*%
%TO.C,C6*%
G36*
G01*
X155030000Y-73715000D02*
X155030000Y-74665000D01*
G75*
G02*
X154780000Y-74915000I-250000J0D01*
G01*
X154280000Y-74915000D01*
G75*
G02*
X154030000Y-74665000I0J250000D01*
G01*
X154030000Y-73715000D01*
G75*
G02*
X154280000Y-73465000I250000J0D01*
G01*
X154780000Y-73465000D01*
G75*
G02*
X155030000Y-73715000I0J-250000D01*
G01*
G37*
G36*
G01*
X156930000Y-73715000D02*
X156930000Y-74665000D01*
G75*
G02*
X156680000Y-74915000I-250000J0D01*
G01*
X156180000Y-74915000D01*
G75*
G02*
X155930000Y-74665000I0J250000D01*
G01*
X155930000Y-73715000D01*
G75*
G02*
X156180000Y-73465000I250000J0D01*
G01*
X156680000Y-73465000D01*
G75*
G02*
X156930000Y-73715000I0J-250000D01*
G01*
G37*
%TD*%
%TO.C,C5*%
G36*
G01*
X129640000Y-52075000D02*
X129640000Y-53025000D01*
G75*
G02*
X129390000Y-53275000I-250000J0D01*
G01*
X128890000Y-53275000D01*
G75*
G02*
X128640000Y-53025000I0J250000D01*
G01*
X128640000Y-52075000D01*
G75*
G02*
X128890000Y-51825000I250000J0D01*
G01*
X129390000Y-51825000D01*
G75*
G02*
X129640000Y-52075000I0J-250000D01*
G01*
G37*
G36*
G01*
X131540000Y-52075000D02*
X131540000Y-53025000D01*
G75*
G02*
X131290000Y-53275000I-250000J0D01*
G01*
X130790000Y-53275000D01*
G75*
G02*
X130540000Y-53025000I0J250000D01*
G01*
X130540000Y-52075000D01*
G75*
G02*
X130790000Y-51825000I250000J0D01*
G01*
X131290000Y-51825000D01*
G75*
G02*
X131540000Y-52075000I0J-250000D01*
G01*
G37*
%TD*%
%TO.C,C4*%
G36*
G01*
X112860000Y-52115000D02*
X112860000Y-53065000D01*
G75*
G02*
X112610000Y-53315000I-250000J0D01*
G01*
X112110000Y-53315000D01*
G75*
G02*
X111860000Y-53065000I0J250000D01*
G01*
X111860000Y-52115000D01*
G75*
G02*
X112110000Y-51865000I250000J0D01*
G01*
X112610000Y-51865000D01*
G75*
G02*
X112860000Y-52115000I0J-250000D01*
G01*
G37*
G36*
G01*
X114760000Y-52115000D02*
X114760000Y-53065000D01*
G75*
G02*
X114510000Y-53315000I-250000J0D01*
G01*
X114010000Y-53315000D01*
G75*
G02*
X113760000Y-53065000I0J250000D01*
G01*
X113760000Y-52115000D01*
G75*
G02*
X114010000Y-51865000I250000J0D01*
G01*
X114510000Y-51865000D01*
G75*
G02*
X114760000Y-52115000I0J-250000D01*
G01*
G37*
%TD*%
%TO.C,C3*%
G36*
G01*
X95510000Y-52015000D02*
X95510000Y-52965000D01*
G75*
G02*
X95260000Y-53215000I-250000J0D01*
G01*
X94760000Y-53215000D01*
G75*
G02*
X94510000Y-52965000I0J250000D01*
G01*
X94510000Y-52015000D01*
G75*
G02*
X94760000Y-51765000I250000J0D01*
G01*
X95260000Y-51765000D01*
G75*
G02*
X95510000Y-52015000I0J-250000D01*
G01*
G37*
G36*
G01*
X97410000Y-52015000D02*
X97410000Y-52965000D01*
G75*
G02*
X97160000Y-53215000I-250000J0D01*
G01*
X96660000Y-53215000D01*
G75*
G02*
X96410000Y-52965000I0J250000D01*
G01*
X96410000Y-52015000D01*
G75*
G02*
X96660000Y-51765000I250000J0D01*
G01*
X97160000Y-51765000D01*
G75*
G02*
X97410000Y-52015000I0J-250000D01*
G01*
G37*
%TD*%
%TO.C,C1*%
G36*
G01*
X119310000Y-82105000D02*
X119310000Y-83055000D01*
G75*
G02*
X119060000Y-83305000I-250000J0D01*
G01*
X118560000Y-83305000D01*
G75*
G02*
X118310000Y-83055000I0J250000D01*
G01*
X118310000Y-82105000D01*
G75*
G02*
X118560000Y-81855000I250000J0D01*
G01*
X119060000Y-81855000D01*
G75*
G02*
X119310000Y-82105000I0J-250000D01*
G01*
G37*
G36*
G01*
X121210000Y-82105000D02*
X121210000Y-83055000D01*
G75*
G02*
X120960000Y-83305000I-250000J0D01*
G01*
X120460000Y-83305000D01*
G75*
G02*
X120210000Y-83055000I0J250000D01*
G01*
X120210000Y-82105000D01*
G75*
G02*
X120460000Y-81855000I250000J0D01*
G01*
X120960000Y-81855000D01*
G75*
G02*
X121210000Y-82105000I0J-250000D01*
G01*
G37*
%TD*%
%TO.C,R88*%
G36*
G01*
X190720000Y-68349998D02*
X190720000Y-69250002D01*
G75*
G02*
X190470002Y-69500000I-249998J0D01*
G01*
X189944998Y-69500000D01*
G75*
G02*
X189695000Y-69250002I0J249998D01*
G01*
X189695000Y-68349998D01*
G75*
G02*
X189944998Y-68100000I249998J0D01*
G01*
X190470002Y-68100000D01*
G75*
G02*
X190720000Y-68349998I0J-249998D01*
G01*
G37*
G36*
G01*
X192545000Y-68349998D02*
X192545000Y-69250002D01*
G75*
G02*
X192295002Y-69500000I-249998J0D01*
G01*
X191769998Y-69500000D01*
G75*
G02*
X191520000Y-69250002I0J249998D01*
G01*
X191520000Y-68349998D01*
G75*
G02*
X191769998Y-68100000I249998J0D01*
G01*
X192295002Y-68100000D01*
G75*
G02*
X192545000Y-68349998I0J-249998D01*
G01*
G37*
%TD*%
%TO.C,R75*%
G36*
G01*
X246629802Y-131100000D02*
X245729798Y-131100000D01*
G75*
G02*
X245479800Y-130850002I0J249998D01*
G01*
X245479800Y-130324998D01*
G75*
G02*
X245729798Y-130075000I249998J0D01*
G01*
X246629802Y-130075000D01*
G75*
G02*
X246879800Y-130324998I0J-249998D01*
G01*
X246879800Y-130850002D01*
G75*
G02*
X246629802Y-131100000I-249998J0D01*
G01*
G37*
G36*
G01*
X246629802Y-132925000D02*
X245729798Y-132925000D01*
G75*
G02*
X245479800Y-132675002I0J249998D01*
G01*
X245479800Y-132149998D01*
G75*
G02*
X245729798Y-131900000I249998J0D01*
G01*
X246629802Y-131900000D01*
G75*
G02*
X246879800Y-132149998I0J-249998D01*
G01*
X246879800Y-132675002D01*
G75*
G02*
X246629802Y-132925000I-249998J0D01*
G01*
G37*
%TD*%
%TO.C,R74*%
G36*
G01*
X239269086Y-131100000D02*
X238369082Y-131100000D01*
G75*
G02*
X238119084Y-130850002I0J249998D01*
G01*
X238119084Y-130324998D01*
G75*
G02*
X238369082Y-130075000I249998J0D01*
G01*
X239269086Y-130075000D01*
G75*
G02*
X239519084Y-130324998I0J-249998D01*
G01*
X239519084Y-130850002D01*
G75*
G02*
X239269086Y-131100000I-249998J0D01*
G01*
G37*
G36*
G01*
X239269086Y-132925000D02*
X238369082Y-132925000D01*
G75*
G02*
X238119084Y-132675002I0J249998D01*
G01*
X238119084Y-132149998D01*
G75*
G02*
X238369082Y-131900000I249998J0D01*
G01*
X239269086Y-131900000D01*
G75*
G02*
X239519084Y-132149998I0J-249998D01*
G01*
X239519084Y-132675002D01*
G75*
G02*
X239269086Y-132925000I-249998J0D01*
G01*
G37*
%TD*%
%TO.C,R73*%
G36*
G01*
X231908372Y-131100000D02*
X231008368Y-131100000D01*
G75*
G02*
X230758370Y-130850002I0J249998D01*
G01*
X230758370Y-130324998D01*
G75*
G02*
X231008368Y-130075000I249998J0D01*
G01*
X231908372Y-130075000D01*
G75*
G02*
X232158370Y-130324998I0J-249998D01*
G01*
X232158370Y-130850002D01*
G75*
G02*
X231908372Y-131100000I-249998J0D01*
G01*
G37*
G36*
G01*
X231908372Y-132925000D02*
X231008368Y-132925000D01*
G75*
G02*
X230758370Y-132675002I0J249998D01*
G01*
X230758370Y-132149998D01*
G75*
G02*
X231008368Y-131900000I249998J0D01*
G01*
X231908372Y-131900000D01*
G75*
G02*
X232158370Y-132149998I0J-249998D01*
G01*
X232158370Y-132675002D01*
G75*
G02*
X231908372Y-132925000I-249998J0D01*
G01*
G37*
%TD*%
%TO.C,R72*%
G36*
G01*
X224547658Y-131100000D02*
X223647654Y-131100000D01*
G75*
G02*
X223397656Y-130850002I0J249998D01*
G01*
X223397656Y-130324998D01*
G75*
G02*
X223647654Y-130075000I249998J0D01*
G01*
X224547658Y-130075000D01*
G75*
G02*
X224797656Y-130324998I0J-249998D01*
G01*
X224797656Y-130850002D01*
G75*
G02*
X224547658Y-131100000I-249998J0D01*
G01*
G37*
G36*
G01*
X224547658Y-132925000D02*
X223647654Y-132925000D01*
G75*
G02*
X223397656Y-132675002I0J249998D01*
G01*
X223397656Y-132149998D01*
G75*
G02*
X223647654Y-131900000I249998J0D01*
G01*
X224547658Y-131900000D01*
G75*
G02*
X224797656Y-132149998I0J-249998D01*
G01*
X224797656Y-132675002D01*
G75*
G02*
X224547658Y-132925000I-249998J0D01*
G01*
G37*
%TD*%
%TO.C,R71*%
G36*
G01*
X217186944Y-131100000D02*
X216286940Y-131100000D01*
G75*
G02*
X216036942Y-130850002I0J249998D01*
G01*
X216036942Y-130324998D01*
G75*
G02*
X216286940Y-130075000I249998J0D01*
G01*
X217186944Y-130075000D01*
G75*
G02*
X217436942Y-130324998I0J-249998D01*
G01*
X217436942Y-130850002D01*
G75*
G02*
X217186944Y-131100000I-249998J0D01*
G01*
G37*
G36*
G01*
X217186944Y-132925000D02*
X216286940Y-132925000D01*
G75*
G02*
X216036942Y-132675002I0J249998D01*
G01*
X216036942Y-132149998D01*
G75*
G02*
X216286940Y-131900000I249998J0D01*
G01*
X217186944Y-131900000D01*
G75*
G02*
X217436942Y-132149998I0J-249998D01*
G01*
X217436942Y-132675002D01*
G75*
G02*
X217186944Y-132925000I-249998J0D01*
G01*
G37*
%TD*%
%TO.C,R70*%
G36*
G01*
X209826230Y-131100000D02*
X208926226Y-131100000D01*
G75*
G02*
X208676228Y-130850002I0J249998D01*
G01*
X208676228Y-130324998D01*
G75*
G02*
X208926226Y-130075000I249998J0D01*
G01*
X209826230Y-130075000D01*
G75*
G02*
X210076228Y-130324998I0J-249998D01*
G01*
X210076228Y-130850002D01*
G75*
G02*
X209826230Y-131100000I-249998J0D01*
G01*
G37*
G36*
G01*
X209826230Y-132925000D02*
X208926226Y-132925000D01*
G75*
G02*
X208676228Y-132675002I0J249998D01*
G01*
X208676228Y-132149998D01*
G75*
G02*
X208926226Y-131900000I249998J0D01*
G01*
X209826230Y-131900000D01*
G75*
G02*
X210076228Y-132149998I0J-249998D01*
G01*
X210076228Y-132675002D01*
G75*
G02*
X209826230Y-132925000I-249998J0D01*
G01*
G37*
%TD*%
%TO.C,R69*%
G36*
G01*
X202465516Y-131100000D02*
X201565512Y-131100000D01*
G75*
G02*
X201315514Y-130850002I0J249998D01*
G01*
X201315514Y-130324998D01*
G75*
G02*
X201565512Y-130075000I249998J0D01*
G01*
X202465516Y-130075000D01*
G75*
G02*
X202715514Y-130324998I0J-249998D01*
G01*
X202715514Y-130850002D01*
G75*
G02*
X202465516Y-131100000I-249998J0D01*
G01*
G37*
G36*
G01*
X202465516Y-132925000D02*
X201565512Y-132925000D01*
G75*
G02*
X201315514Y-132675002I0J249998D01*
G01*
X201315514Y-132149998D01*
G75*
G02*
X201565512Y-131900000I249998J0D01*
G01*
X202465516Y-131900000D01*
G75*
G02*
X202715514Y-132149998I0J-249998D01*
G01*
X202715514Y-132675002D01*
G75*
G02*
X202465516Y-132925000I-249998J0D01*
G01*
G37*
%TD*%
%TO.C,R68*%
G36*
G01*
X195104802Y-131100000D02*
X194204798Y-131100000D01*
G75*
G02*
X193954800Y-130850002I0J249998D01*
G01*
X193954800Y-130324998D01*
G75*
G02*
X194204798Y-130075000I249998J0D01*
G01*
X195104802Y-130075000D01*
G75*
G02*
X195354800Y-130324998I0J-249998D01*
G01*
X195354800Y-130850002D01*
G75*
G02*
X195104802Y-131100000I-249998J0D01*
G01*
G37*
G36*
G01*
X195104802Y-132925000D02*
X194204798Y-132925000D01*
G75*
G02*
X193954800Y-132675002I0J249998D01*
G01*
X193954800Y-132149998D01*
G75*
G02*
X194204798Y-131900000I249998J0D01*
G01*
X195104802Y-131900000D01*
G75*
G02*
X195354800Y-132149998I0J-249998D01*
G01*
X195354800Y-132675002D01*
G75*
G02*
X195104802Y-132925000I-249998J0D01*
G01*
G37*
%TD*%
%TO.C,R67*%
G36*
G01*
X167739802Y-131000000D02*
X166839798Y-131000000D01*
G75*
G02*
X166589800Y-130750002I0J249998D01*
G01*
X166589800Y-130224998D01*
G75*
G02*
X166839798Y-129975000I249998J0D01*
G01*
X167739802Y-129975000D01*
G75*
G02*
X167989800Y-130224998I0J-249998D01*
G01*
X167989800Y-130750002D01*
G75*
G02*
X167739802Y-131000000I-249998J0D01*
G01*
G37*
G36*
G01*
X167739802Y-132825000D02*
X166839798Y-132825000D01*
G75*
G02*
X166589800Y-132575002I0J249998D01*
G01*
X166589800Y-132049998D01*
G75*
G02*
X166839798Y-131800000I249998J0D01*
G01*
X167739802Y-131800000D01*
G75*
G02*
X167989800Y-132049998I0J-249998D01*
G01*
X167989800Y-132575002D01*
G75*
G02*
X167739802Y-132825000I-249998J0D01*
G01*
G37*
%TD*%
%TO.C,R66*%
G36*
G01*
X160379086Y-131000000D02*
X159479082Y-131000000D01*
G75*
G02*
X159229084Y-130750002I0J249998D01*
G01*
X159229084Y-130224998D01*
G75*
G02*
X159479082Y-129975000I249998J0D01*
G01*
X160379086Y-129975000D01*
G75*
G02*
X160629084Y-130224998I0J-249998D01*
G01*
X160629084Y-130750002D01*
G75*
G02*
X160379086Y-131000000I-249998J0D01*
G01*
G37*
G36*
G01*
X160379086Y-132825000D02*
X159479082Y-132825000D01*
G75*
G02*
X159229084Y-132575002I0J249998D01*
G01*
X159229084Y-132049998D01*
G75*
G02*
X159479082Y-131800000I249998J0D01*
G01*
X160379086Y-131800000D01*
G75*
G02*
X160629084Y-132049998I0J-249998D01*
G01*
X160629084Y-132575002D01*
G75*
G02*
X160379086Y-132825000I-249998J0D01*
G01*
G37*
%TD*%
%TO.C,R65*%
G36*
G01*
X153018372Y-131000000D02*
X152118368Y-131000000D01*
G75*
G02*
X151868370Y-130750002I0J249998D01*
G01*
X151868370Y-130224998D01*
G75*
G02*
X152118368Y-129975000I249998J0D01*
G01*
X153018372Y-129975000D01*
G75*
G02*
X153268370Y-130224998I0J-249998D01*
G01*
X153268370Y-130750002D01*
G75*
G02*
X153018372Y-131000000I-249998J0D01*
G01*
G37*
G36*
G01*
X153018372Y-132825000D02*
X152118368Y-132825000D01*
G75*
G02*
X151868370Y-132575002I0J249998D01*
G01*
X151868370Y-132049998D01*
G75*
G02*
X152118368Y-131800000I249998J0D01*
G01*
X153018372Y-131800000D01*
G75*
G02*
X153268370Y-132049998I0J-249998D01*
G01*
X153268370Y-132575002D01*
G75*
G02*
X153018372Y-132825000I-249998J0D01*
G01*
G37*
%TD*%
%TO.C,R64*%
G36*
G01*
X145657658Y-131000000D02*
X144757654Y-131000000D01*
G75*
G02*
X144507656Y-130750002I0J249998D01*
G01*
X144507656Y-130224998D01*
G75*
G02*
X144757654Y-129975000I249998J0D01*
G01*
X145657658Y-129975000D01*
G75*
G02*
X145907656Y-130224998I0J-249998D01*
G01*
X145907656Y-130750002D01*
G75*
G02*
X145657658Y-131000000I-249998J0D01*
G01*
G37*
G36*
G01*
X145657658Y-132825000D02*
X144757654Y-132825000D01*
G75*
G02*
X144507656Y-132575002I0J249998D01*
G01*
X144507656Y-132049998D01*
G75*
G02*
X144757654Y-131800000I249998J0D01*
G01*
X145657658Y-131800000D01*
G75*
G02*
X145907656Y-132049998I0J-249998D01*
G01*
X145907656Y-132575002D01*
G75*
G02*
X145657658Y-132825000I-249998J0D01*
G01*
G37*
%TD*%
%TO.C,R63*%
G36*
G01*
X138296944Y-131000000D02*
X137396940Y-131000000D01*
G75*
G02*
X137146942Y-130750002I0J249998D01*
G01*
X137146942Y-130224998D01*
G75*
G02*
X137396940Y-129975000I249998J0D01*
G01*
X138296944Y-129975000D01*
G75*
G02*
X138546942Y-130224998I0J-249998D01*
G01*
X138546942Y-130750002D01*
G75*
G02*
X138296944Y-131000000I-249998J0D01*
G01*
G37*
G36*
G01*
X138296944Y-132825000D02*
X137396940Y-132825000D01*
G75*
G02*
X137146942Y-132575002I0J249998D01*
G01*
X137146942Y-132049998D01*
G75*
G02*
X137396940Y-131800000I249998J0D01*
G01*
X138296944Y-131800000D01*
G75*
G02*
X138546942Y-132049998I0J-249998D01*
G01*
X138546942Y-132575002D01*
G75*
G02*
X138296944Y-132825000I-249998J0D01*
G01*
G37*
%TD*%
%TO.C,R62*%
G36*
G01*
X130936230Y-131000000D02*
X130036226Y-131000000D01*
G75*
G02*
X129786228Y-130750002I0J249998D01*
G01*
X129786228Y-130224998D01*
G75*
G02*
X130036226Y-129975000I249998J0D01*
G01*
X130936230Y-129975000D01*
G75*
G02*
X131186228Y-130224998I0J-249998D01*
G01*
X131186228Y-130750002D01*
G75*
G02*
X130936230Y-131000000I-249998J0D01*
G01*
G37*
G36*
G01*
X130936230Y-132825000D02*
X130036226Y-132825000D01*
G75*
G02*
X129786228Y-132575002I0J249998D01*
G01*
X129786228Y-132049998D01*
G75*
G02*
X130036226Y-131800000I249998J0D01*
G01*
X130936230Y-131800000D01*
G75*
G02*
X131186228Y-132049998I0J-249998D01*
G01*
X131186228Y-132575002D01*
G75*
G02*
X130936230Y-132825000I-249998J0D01*
G01*
G37*
%TD*%
%TO.C,R61*%
G36*
G01*
X123575516Y-131000000D02*
X122675512Y-131000000D01*
G75*
G02*
X122425514Y-130750002I0J249998D01*
G01*
X122425514Y-130224998D01*
G75*
G02*
X122675512Y-129975000I249998J0D01*
G01*
X123575516Y-129975000D01*
G75*
G02*
X123825514Y-130224998I0J-249998D01*
G01*
X123825514Y-130750002D01*
G75*
G02*
X123575516Y-131000000I-249998J0D01*
G01*
G37*
G36*
G01*
X123575516Y-132825000D02*
X122675512Y-132825000D01*
G75*
G02*
X122425514Y-132575002I0J249998D01*
G01*
X122425514Y-132049998D01*
G75*
G02*
X122675512Y-131800000I249998J0D01*
G01*
X123575516Y-131800000D01*
G75*
G02*
X123825514Y-132049998I0J-249998D01*
G01*
X123825514Y-132575002D01*
G75*
G02*
X123575516Y-132825000I-249998J0D01*
G01*
G37*
%TD*%
%TO.C,R60*%
G36*
G01*
X116214802Y-131000000D02*
X115314798Y-131000000D01*
G75*
G02*
X115064800Y-130750002I0J249998D01*
G01*
X115064800Y-130224998D01*
G75*
G02*
X115314798Y-129975000I249998J0D01*
G01*
X116214802Y-129975000D01*
G75*
G02*
X116464800Y-130224998I0J-249998D01*
G01*
X116464800Y-130750002D01*
G75*
G02*
X116214802Y-131000000I-249998J0D01*
G01*
G37*
G36*
G01*
X116214802Y-132825000D02*
X115314798Y-132825000D01*
G75*
G02*
X115064800Y-132575002I0J249998D01*
G01*
X115064800Y-132049998D01*
G75*
G02*
X115314798Y-131800000I249998J0D01*
G01*
X116214802Y-131800000D01*
G75*
G02*
X116464800Y-132049998I0J-249998D01*
G01*
X116464800Y-132575002D01*
G75*
G02*
X116214802Y-132825000I-249998J0D01*
G01*
G37*
%TD*%
%TO.C,R59*%
G36*
G01*
X80449286Y-119675002D02*
X80449286Y-118774998D01*
G75*
G02*
X80699284Y-118525000I249998J0D01*
G01*
X81224288Y-118525000D01*
G75*
G02*
X81474286Y-118774998I0J-249998D01*
G01*
X81474286Y-119675002D01*
G75*
G02*
X81224288Y-119925000I-249998J0D01*
G01*
X80699284Y-119925000D01*
G75*
G02*
X80449286Y-119675002I0J249998D01*
G01*
G37*
G36*
G01*
X78624286Y-119675002D02*
X78624286Y-118774998D01*
G75*
G02*
X78874284Y-118525000I249998J0D01*
G01*
X79399288Y-118525000D01*
G75*
G02*
X79649286Y-118774998I0J-249998D01*
G01*
X79649286Y-119675002D01*
G75*
G02*
X79399288Y-119925000I-249998J0D01*
G01*
X78874284Y-119925000D01*
G75*
G02*
X78624286Y-119675002I0J249998D01*
G01*
G37*
%TD*%
%TO.C,R58*%
G36*
G01*
X80449286Y-112314286D02*
X80449286Y-111414282D01*
G75*
G02*
X80699284Y-111164284I249998J0D01*
G01*
X81224288Y-111164284D01*
G75*
G02*
X81474286Y-111414282I0J-249998D01*
G01*
X81474286Y-112314286D01*
G75*
G02*
X81224288Y-112564284I-249998J0D01*
G01*
X80699284Y-112564284D01*
G75*
G02*
X80449286Y-112314286I0J249998D01*
G01*
G37*
G36*
G01*
X78624286Y-112314286D02*
X78624286Y-111414282D01*
G75*
G02*
X78874284Y-111164284I249998J0D01*
G01*
X79399288Y-111164284D01*
G75*
G02*
X79649286Y-111414282I0J-249998D01*
G01*
X79649286Y-112314286D01*
G75*
G02*
X79399288Y-112564284I-249998J0D01*
G01*
X78874284Y-112564284D01*
G75*
G02*
X78624286Y-112314286I0J249998D01*
G01*
G37*
%TD*%
%TO.C,R57*%
G36*
G01*
X80449286Y-104953572D02*
X80449286Y-104053568D01*
G75*
G02*
X80699284Y-103803570I249998J0D01*
G01*
X81224288Y-103803570D01*
G75*
G02*
X81474286Y-104053568I0J-249998D01*
G01*
X81474286Y-104953572D01*
G75*
G02*
X81224288Y-105203570I-249998J0D01*
G01*
X80699284Y-105203570D01*
G75*
G02*
X80449286Y-104953572I0J249998D01*
G01*
G37*
G36*
G01*
X78624286Y-104953572D02*
X78624286Y-104053568D01*
G75*
G02*
X78874284Y-103803570I249998J0D01*
G01*
X79399288Y-103803570D01*
G75*
G02*
X79649286Y-104053568I0J-249998D01*
G01*
X79649286Y-104953572D01*
G75*
G02*
X79399288Y-105203570I-249998J0D01*
G01*
X78874284Y-105203570D01*
G75*
G02*
X78624286Y-104953572I0J249998D01*
G01*
G37*
%TD*%
%TO.C,R56*%
G36*
G01*
X80449286Y-97592858D02*
X80449286Y-96692854D01*
G75*
G02*
X80699284Y-96442856I249998J0D01*
G01*
X81224288Y-96442856D01*
G75*
G02*
X81474286Y-96692854I0J-249998D01*
G01*
X81474286Y-97592858D01*
G75*
G02*
X81224288Y-97842856I-249998J0D01*
G01*
X80699284Y-97842856D01*
G75*
G02*
X80449286Y-97592858I0J249998D01*
G01*
G37*
G36*
G01*
X78624286Y-97592858D02*
X78624286Y-96692854D01*
G75*
G02*
X78874284Y-96442856I249998J0D01*
G01*
X79399288Y-96442856D01*
G75*
G02*
X79649286Y-96692854I0J-249998D01*
G01*
X79649286Y-97592858D01*
G75*
G02*
X79399288Y-97842856I-249998J0D01*
G01*
X78874284Y-97842856D01*
G75*
G02*
X78624286Y-97592858I0J249998D01*
G01*
G37*
%TD*%
%TO.C,R55*%
G36*
G01*
X80449286Y-90232144D02*
X80449286Y-89332140D01*
G75*
G02*
X80699284Y-89082142I249998J0D01*
G01*
X81224288Y-89082142D01*
G75*
G02*
X81474286Y-89332140I0J-249998D01*
G01*
X81474286Y-90232144D01*
G75*
G02*
X81224288Y-90482142I-249998J0D01*
G01*
X80699284Y-90482142D01*
G75*
G02*
X80449286Y-90232144I0J249998D01*
G01*
G37*
G36*
G01*
X78624286Y-90232144D02*
X78624286Y-89332140D01*
G75*
G02*
X78874284Y-89082142I249998J0D01*
G01*
X79399288Y-89082142D01*
G75*
G02*
X79649286Y-89332140I0J-249998D01*
G01*
X79649286Y-90232144D01*
G75*
G02*
X79399288Y-90482142I-249998J0D01*
G01*
X78874284Y-90482142D01*
G75*
G02*
X78624286Y-90232144I0J249998D01*
G01*
G37*
%TD*%
%TO.C,R54*%
G36*
G01*
X80449286Y-82871430D02*
X80449286Y-81971426D01*
G75*
G02*
X80699284Y-81721428I249998J0D01*
G01*
X81224288Y-81721428D01*
G75*
G02*
X81474286Y-81971426I0J-249998D01*
G01*
X81474286Y-82871430D01*
G75*
G02*
X81224288Y-83121428I-249998J0D01*
G01*
X80699284Y-83121428D01*
G75*
G02*
X80449286Y-82871430I0J249998D01*
G01*
G37*
G36*
G01*
X78624286Y-82871430D02*
X78624286Y-81971426D01*
G75*
G02*
X78874284Y-81721428I249998J0D01*
G01*
X79399288Y-81721428D01*
G75*
G02*
X79649286Y-81971426I0J-249998D01*
G01*
X79649286Y-82871430D01*
G75*
G02*
X79399288Y-83121428I-249998J0D01*
G01*
X78874284Y-83121428D01*
G75*
G02*
X78624286Y-82871430I0J249998D01*
G01*
G37*
%TD*%
%TO.C,R53*%
G36*
G01*
X80449286Y-75510716D02*
X80449286Y-74610712D01*
G75*
G02*
X80699284Y-74360714I249998J0D01*
G01*
X81224288Y-74360714D01*
G75*
G02*
X81474286Y-74610712I0J-249998D01*
G01*
X81474286Y-75510716D01*
G75*
G02*
X81224288Y-75760714I-249998J0D01*
G01*
X80699284Y-75760714D01*
G75*
G02*
X80449286Y-75510716I0J249998D01*
G01*
G37*
G36*
G01*
X78624286Y-75510716D02*
X78624286Y-74610712D01*
G75*
G02*
X78874284Y-74360714I249998J0D01*
G01*
X79399288Y-74360714D01*
G75*
G02*
X79649286Y-74610712I0J-249998D01*
G01*
X79649286Y-75510716D01*
G75*
G02*
X79399288Y-75760714I-249998J0D01*
G01*
X78874284Y-75760714D01*
G75*
G02*
X78624286Y-75510716I0J249998D01*
G01*
G37*
%TD*%
%TO.C,R52*%
G36*
G01*
X80449286Y-68150002D02*
X80449286Y-67249998D01*
G75*
G02*
X80699284Y-67000000I249998J0D01*
G01*
X81224288Y-67000000D01*
G75*
G02*
X81474286Y-67249998I0J-249998D01*
G01*
X81474286Y-68150002D01*
G75*
G02*
X81224288Y-68400000I-249998J0D01*
G01*
X80699284Y-68400000D01*
G75*
G02*
X80449286Y-68150002I0J249998D01*
G01*
G37*
G36*
G01*
X78624286Y-68150002D02*
X78624286Y-67249998D01*
G75*
G02*
X78874284Y-67000000I249998J0D01*
G01*
X79399288Y-67000000D01*
G75*
G02*
X79649286Y-67249998I0J-249998D01*
G01*
X79649286Y-68150002D01*
G75*
G02*
X79399288Y-68400000I-249998J0D01*
G01*
X78874284Y-68400000D01*
G75*
G02*
X78624286Y-68150002I0J249998D01*
G01*
G37*
%TD*%
%TO.C,R51*%
G36*
G01*
X81200000Y-134550002D02*
X81200000Y-133649998D01*
G75*
G02*
X81449998Y-133400000I249998J0D01*
G01*
X81975002Y-133400000D01*
G75*
G02*
X82225000Y-133649998I0J-249998D01*
G01*
X82225000Y-134550002D01*
G75*
G02*
X81975002Y-134800000I-249998J0D01*
G01*
X81449998Y-134800000D01*
G75*
G02*
X81200000Y-134550002I0J249998D01*
G01*
G37*
G36*
G01*
X79375000Y-134550002D02*
X79375000Y-133649998D01*
G75*
G02*
X79624998Y-133400000I249998J0D01*
G01*
X80150002Y-133400000D01*
G75*
G02*
X80400000Y-133649998I0J-249998D01*
G01*
X80400000Y-134550002D01*
G75*
G02*
X80150002Y-134800000I-249998J0D01*
G01*
X79624998Y-134800000D01*
G75*
G02*
X79375000Y-134550002I0J249998D01*
G01*
G37*
%TD*%
%TO.C,R50*%
G36*
G01*
X74765998Y-132868000D02*
X75666002Y-132868000D01*
G75*
G02*
X75916000Y-133117998I0J-249998D01*
G01*
X75916000Y-133643002D01*
G75*
G02*
X75666002Y-133893000I-249998J0D01*
G01*
X74765998Y-133893000D01*
G75*
G02*
X74516000Y-133643002I0J249998D01*
G01*
X74516000Y-133117998D01*
G75*
G02*
X74765998Y-132868000I249998J0D01*
G01*
G37*
G36*
G01*
X74765998Y-131043000D02*
X75666002Y-131043000D01*
G75*
G02*
X75916000Y-131292998I0J-249998D01*
G01*
X75916000Y-131818002D01*
G75*
G02*
X75666002Y-132068000I-249998J0D01*
G01*
X74765998Y-132068000D01*
G75*
G02*
X74516000Y-131818002I0J249998D01*
G01*
X74516000Y-131292998D01*
G75*
G02*
X74765998Y-131043000I249998J0D01*
G01*
G37*
%TD*%
%TO.C,R49*%
G36*
G01*
X119558000Y-49060002D02*
X119558000Y-48159998D01*
G75*
G02*
X119807998Y-47910000I249998J0D01*
G01*
X120333002Y-47910000D01*
G75*
G02*
X120583000Y-48159998I0J-249998D01*
G01*
X120583000Y-49060002D01*
G75*
G02*
X120333002Y-49310000I-249998J0D01*
G01*
X119807998Y-49310000D01*
G75*
G02*
X119558000Y-49060002I0J249998D01*
G01*
G37*
G36*
G01*
X117733000Y-49060002D02*
X117733000Y-48159998D01*
G75*
G02*
X117982998Y-47910000I249998J0D01*
G01*
X118508002Y-47910000D01*
G75*
G02*
X118758000Y-48159998I0J-249998D01*
G01*
X118758000Y-49060002D01*
G75*
G02*
X118508002Y-49310000I-249998J0D01*
G01*
X117982998Y-49310000D01*
G75*
G02*
X117733000Y-49060002I0J249998D01*
G01*
G37*
%TD*%
%TO.C,R48*%
G36*
G01*
X131170000Y-48159998D02*
X131170000Y-49060002D01*
G75*
G02*
X130920002Y-49310000I-249998J0D01*
G01*
X130394998Y-49310000D01*
G75*
G02*
X130145000Y-49060002I0J249998D01*
G01*
X130145000Y-48159998D01*
G75*
G02*
X130394998Y-47910000I249998J0D01*
G01*
X130920002Y-47910000D01*
G75*
G02*
X131170000Y-48159998I0J-249998D01*
G01*
G37*
G36*
G01*
X132995000Y-48159998D02*
X132995000Y-49060002D01*
G75*
G02*
X132745002Y-49310000I-249998J0D01*
G01*
X132219998Y-49310000D01*
G75*
G02*
X131970000Y-49060002I0J249998D01*
G01*
X131970000Y-48159998D01*
G75*
G02*
X132219998Y-47910000I249998J0D01*
G01*
X132745002Y-47910000D01*
G75*
G02*
X132995000Y-48159998I0J-249998D01*
G01*
G37*
%TD*%
%TO.C,R47*%
G36*
G01*
X101795000Y-49060002D02*
X101795000Y-48159998D01*
G75*
G02*
X102044998Y-47910000I249998J0D01*
G01*
X102570002Y-47910000D01*
G75*
G02*
X102820000Y-48159998I0J-249998D01*
G01*
X102820000Y-49060002D01*
G75*
G02*
X102570002Y-49310000I-249998J0D01*
G01*
X102044998Y-49310000D01*
G75*
G02*
X101795000Y-49060002I0J249998D01*
G01*
G37*
G36*
G01*
X99970000Y-49060002D02*
X99970000Y-48159998D01*
G75*
G02*
X100219998Y-47910000I249998J0D01*
G01*
X100745002Y-47910000D01*
G75*
G02*
X100995000Y-48159998I0J-249998D01*
G01*
X100995000Y-49060002D01*
G75*
G02*
X100745002Y-49310000I-249998J0D01*
G01*
X100219998Y-49310000D01*
G75*
G02*
X99970000Y-49060002I0J249998D01*
G01*
G37*
%TD*%
%TO.C,R46*%
G36*
G01*
X113424000Y-48159998D02*
X113424000Y-49060002D01*
G75*
G02*
X113174002Y-49310000I-249998J0D01*
G01*
X112648998Y-49310000D01*
G75*
G02*
X112399000Y-49060002I0J249998D01*
G01*
X112399000Y-48159998D01*
G75*
G02*
X112648998Y-47910000I249998J0D01*
G01*
X113174002Y-47910000D01*
G75*
G02*
X113424000Y-48159998I0J-249998D01*
G01*
G37*
G36*
G01*
X115249000Y-48159998D02*
X115249000Y-49060002D01*
G75*
G02*
X114999002Y-49310000I-249998J0D01*
G01*
X114473998Y-49310000D01*
G75*
G02*
X114224000Y-49060002I0J249998D01*
G01*
X114224000Y-48159998D01*
G75*
G02*
X114473998Y-47910000I249998J0D01*
G01*
X114999002Y-47910000D01*
G75*
G02*
X115249000Y-48159998I0J-249998D01*
G01*
G37*
%TD*%
%TO.C,R45*%
G36*
G01*
X126828332Y-48159998D02*
X126828332Y-49060002D01*
G75*
G02*
X126578334Y-49310000I-249998J0D01*
G01*
X126053330Y-49310000D01*
G75*
G02*
X125803332Y-49060002I0J249998D01*
G01*
X125803332Y-48159998D01*
G75*
G02*
X126053330Y-47910000I249998J0D01*
G01*
X126578334Y-47910000D01*
G75*
G02*
X126828332Y-48159998I0J-249998D01*
G01*
G37*
G36*
G01*
X128653332Y-48159998D02*
X128653332Y-49060002D01*
G75*
G02*
X128403334Y-49310000I-249998J0D01*
G01*
X127878330Y-49310000D01*
G75*
G02*
X127628332Y-49060002I0J249998D01*
G01*
X127628332Y-48159998D01*
G75*
G02*
X127878330Y-47910000I249998J0D01*
G01*
X128403334Y-47910000D01*
G75*
G02*
X128653332Y-48159998I0J-249998D01*
G01*
G37*
%TD*%
%TO.C,R44*%
G36*
G01*
X122486666Y-48159998D02*
X122486666Y-49060002D01*
G75*
G02*
X122236668Y-49310000I-249998J0D01*
G01*
X121711664Y-49310000D01*
G75*
G02*
X121461666Y-49060002I0J249998D01*
G01*
X121461666Y-48159998D01*
G75*
G02*
X121711664Y-47910000I249998J0D01*
G01*
X122236668Y-47910000D01*
G75*
G02*
X122486666Y-48159998I0J-249998D01*
G01*
G37*
G36*
G01*
X124311666Y-48159998D02*
X124311666Y-49060002D01*
G75*
G02*
X124061668Y-49310000I-249998J0D01*
G01*
X123536664Y-49310000D01*
G75*
G02*
X123286666Y-49060002I0J249998D01*
G01*
X123286666Y-48159998D01*
G75*
G02*
X123536664Y-47910000I249998J0D01*
G01*
X124061668Y-47910000D01*
G75*
G02*
X124311666Y-48159998I0J-249998D01*
G01*
G37*
%TD*%
%TO.C,R43*%
G36*
G01*
X109678332Y-48159998D02*
X109678332Y-49060002D01*
G75*
G02*
X109428334Y-49310000I-249998J0D01*
G01*
X108903330Y-49310000D01*
G75*
G02*
X108653332Y-49060002I0J249998D01*
G01*
X108653332Y-48159998D01*
G75*
G02*
X108903330Y-47910000I249998J0D01*
G01*
X109428334Y-47910000D01*
G75*
G02*
X109678332Y-48159998I0J-249998D01*
G01*
G37*
G36*
G01*
X111503332Y-48159998D02*
X111503332Y-49060002D01*
G75*
G02*
X111253334Y-49310000I-249998J0D01*
G01*
X110728330Y-49310000D01*
G75*
G02*
X110478332Y-49060002I0J249998D01*
G01*
X110478332Y-48159998D01*
G75*
G02*
X110728330Y-47910000I249998J0D01*
G01*
X111253334Y-47910000D01*
G75*
G02*
X111503332Y-48159998I0J-249998D01*
G01*
G37*
%TD*%
%TO.C,R42*%
G36*
G01*
X105336666Y-48159998D02*
X105336666Y-49060002D01*
G75*
G02*
X105086668Y-49310000I-249998J0D01*
G01*
X104561664Y-49310000D01*
G75*
G02*
X104311666Y-49060002I0J249998D01*
G01*
X104311666Y-48159998D01*
G75*
G02*
X104561664Y-47910000I249998J0D01*
G01*
X105086668Y-47910000D01*
G75*
G02*
X105336666Y-48159998I0J-249998D01*
G01*
G37*
G36*
G01*
X107161666Y-48159998D02*
X107161666Y-49060002D01*
G75*
G02*
X106911668Y-49310000I-249998J0D01*
G01*
X106386664Y-49310000D01*
G75*
G02*
X106136666Y-49060002I0J249998D01*
G01*
X106136666Y-48159998D01*
G75*
G02*
X106386664Y-47910000I249998J0D01*
G01*
X106911668Y-47910000D01*
G75*
G02*
X107161666Y-48159998I0J-249998D01*
G01*
G37*
%TD*%
%TO.C,R41*%
G36*
G01*
X84620000Y-49035002D02*
X84620000Y-48134998D01*
G75*
G02*
X84869998Y-47885000I249998J0D01*
G01*
X85395002Y-47885000D01*
G75*
G02*
X85645000Y-48134998I0J-249998D01*
G01*
X85645000Y-49035002D01*
G75*
G02*
X85395002Y-49285000I-249998J0D01*
G01*
X84869998Y-49285000D01*
G75*
G02*
X84620000Y-49035002I0J249998D01*
G01*
G37*
G36*
G01*
X82795000Y-49035002D02*
X82795000Y-48134998D01*
G75*
G02*
X83044998Y-47885000I249998J0D01*
G01*
X83570002Y-47885000D01*
G75*
G02*
X83820000Y-48134998I0J-249998D01*
G01*
X83820000Y-49035002D01*
G75*
G02*
X83570002Y-49285000I-249998J0D01*
G01*
X83044998Y-49285000D01*
G75*
G02*
X82795000Y-49035002I0J249998D01*
G01*
G37*
%TD*%
%TO.C,R40*%
G36*
G01*
X96845000Y-48134998D02*
X96845000Y-49035002D01*
G75*
G02*
X96595002Y-49285000I-249998J0D01*
G01*
X96069998Y-49285000D01*
G75*
G02*
X95820000Y-49035002I0J249998D01*
G01*
X95820000Y-48134998D01*
G75*
G02*
X96069998Y-47885000I249998J0D01*
G01*
X96595002Y-47885000D01*
G75*
G02*
X96845000Y-48134998I0J-249998D01*
G01*
G37*
G36*
G01*
X98670000Y-48134998D02*
X98670000Y-49035002D01*
G75*
G02*
X98420002Y-49285000I-249998J0D01*
G01*
X97894998Y-49285000D01*
G75*
G02*
X97645000Y-49035002I0J249998D01*
G01*
X97645000Y-48134998D01*
G75*
G02*
X97894998Y-47885000I249998J0D01*
G01*
X98420002Y-47885000D01*
G75*
G02*
X98670000Y-48134998I0J-249998D01*
G01*
G37*
%TD*%
%TO.C,R39*%
G36*
G01*
X160860000Y-70840002D02*
X160860000Y-69939998D01*
G75*
G02*
X161109998Y-69690000I249998J0D01*
G01*
X161635002Y-69690000D01*
G75*
G02*
X161885000Y-69939998I0J-249998D01*
G01*
X161885000Y-70840002D01*
G75*
G02*
X161635002Y-71090000I-249998J0D01*
G01*
X161109998Y-71090000D01*
G75*
G02*
X160860000Y-70840002I0J249998D01*
G01*
G37*
G36*
G01*
X159035000Y-70840002D02*
X159035000Y-69939998D01*
G75*
G02*
X159284998Y-69690000I249998J0D01*
G01*
X159810002Y-69690000D01*
G75*
G02*
X160060000Y-69939998I0J-249998D01*
G01*
X160060000Y-70840002D01*
G75*
G02*
X159810002Y-71090000I-249998J0D01*
G01*
X159284998Y-71090000D01*
G75*
G02*
X159035000Y-70840002I0J249998D01*
G01*
G37*
%TD*%
%TO.C,R38*%
G36*
G01*
X173085000Y-69939998D02*
X173085000Y-70840002D01*
G75*
G02*
X172835002Y-71090000I-249998J0D01*
G01*
X172309998Y-71090000D01*
G75*
G02*
X172060000Y-70840002I0J249998D01*
G01*
X172060000Y-69939998D01*
G75*
G02*
X172309998Y-69690000I249998J0D01*
G01*
X172835002Y-69690000D01*
G75*
G02*
X173085000Y-69939998I0J-249998D01*
G01*
G37*
G36*
G01*
X174910000Y-69939998D02*
X174910000Y-70840002D01*
G75*
G02*
X174660002Y-71090000I-249998J0D01*
G01*
X174134998Y-71090000D01*
G75*
G02*
X173885000Y-70840002I0J249998D01*
G01*
X173885000Y-69939998D01*
G75*
G02*
X174134998Y-69690000I249998J0D01*
G01*
X174660002Y-69690000D01*
G75*
G02*
X174910000Y-69939998I0J-249998D01*
G01*
G37*
%TD*%
%TO.C,R37*%
G36*
G01*
X142440000Y-70840002D02*
X142440000Y-69939998D01*
G75*
G02*
X142689998Y-69690000I249998J0D01*
G01*
X143215002Y-69690000D01*
G75*
G02*
X143465000Y-69939998I0J-249998D01*
G01*
X143465000Y-70840002D01*
G75*
G02*
X143215002Y-71090000I-249998J0D01*
G01*
X142689998Y-71090000D01*
G75*
G02*
X142440000Y-70840002I0J249998D01*
G01*
G37*
G36*
G01*
X140615000Y-70840002D02*
X140615000Y-69939998D01*
G75*
G02*
X140864998Y-69690000I249998J0D01*
G01*
X141390002Y-69690000D01*
G75*
G02*
X141640000Y-69939998I0J-249998D01*
G01*
X141640000Y-70840002D01*
G75*
G02*
X141390002Y-71090000I-249998J0D01*
G01*
X140864998Y-71090000D01*
G75*
G02*
X140615000Y-70840002I0J249998D01*
G01*
G37*
%TD*%
%TO.C,R36*%
G36*
G01*
X154665000Y-69939998D02*
X154665000Y-70840002D01*
G75*
G02*
X154415002Y-71090000I-249998J0D01*
G01*
X153889998Y-71090000D01*
G75*
G02*
X153640000Y-70840002I0J249998D01*
G01*
X153640000Y-69939998D01*
G75*
G02*
X153889998Y-69690000I249998J0D01*
G01*
X154415002Y-69690000D01*
G75*
G02*
X154665000Y-69939998I0J-249998D01*
G01*
G37*
G36*
G01*
X156490000Y-69939998D02*
X156490000Y-70840002D01*
G75*
G02*
X156240002Y-71090000I-249998J0D01*
G01*
X155714998Y-71090000D01*
G75*
G02*
X155465000Y-70840002I0J249998D01*
G01*
X155465000Y-69939998D01*
G75*
G02*
X155714998Y-69690000I249998J0D01*
G01*
X156240002Y-69690000D01*
G75*
G02*
X156490000Y-69939998I0J-249998D01*
G01*
G37*
%TD*%
%TO.C,R35*%
G36*
G01*
X92503332Y-48134998D02*
X92503332Y-49035002D01*
G75*
G02*
X92253334Y-49285000I-249998J0D01*
G01*
X91728330Y-49285000D01*
G75*
G02*
X91478332Y-49035002I0J249998D01*
G01*
X91478332Y-48134998D01*
G75*
G02*
X91728330Y-47885000I249998J0D01*
G01*
X92253334Y-47885000D01*
G75*
G02*
X92503332Y-48134998I0J-249998D01*
G01*
G37*
G36*
G01*
X94328332Y-48134998D02*
X94328332Y-49035002D01*
G75*
G02*
X94078334Y-49285000I-249998J0D01*
G01*
X93553330Y-49285000D01*
G75*
G02*
X93303332Y-49035002I0J249998D01*
G01*
X93303332Y-48134998D01*
G75*
G02*
X93553330Y-47885000I249998J0D01*
G01*
X94078334Y-47885000D01*
G75*
G02*
X94328332Y-48134998I0J-249998D01*
G01*
G37*
%TD*%
%TO.C,R34*%
G36*
G01*
X88161666Y-48134998D02*
X88161666Y-49035002D01*
G75*
G02*
X87911668Y-49285000I-249998J0D01*
G01*
X87386664Y-49285000D01*
G75*
G02*
X87136666Y-49035002I0J249998D01*
G01*
X87136666Y-48134998D01*
G75*
G02*
X87386664Y-47885000I249998J0D01*
G01*
X87911668Y-47885000D01*
G75*
G02*
X88161666Y-48134998I0J-249998D01*
G01*
G37*
G36*
G01*
X89986666Y-48134998D02*
X89986666Y-49035002D01*
G75*
G02*
X89736668Y-49285000I-249998J0D01*
G01*
X89211664Y-49285000D01*
G75*
G02*
X88961666Y-49035002I0J249998D01*
G01*
X88961666Y-48134998D01*
G75*
G02*
X89211664Y-47885000I249998J0D01*
G01*
X89736668Y-47885000D01*
G75*
G02*
X89986666Y-48134998I0J-249998D01*
G01*
G37*
%TD*%
%TO.C,R33*%
G36*
G01*
X168743332Y-69939998D02*
X168743332Y-70840002D01*
G75*
G02*
X168493334Y-71090000I-249998J0D01*
G01*
X167968330Y-71090000D01*
G75*
G02*
X167718332Y-70840002I0J249998D01*
G01*
X167718332Y-69939998D01*
G75*
G02*
X167968330Y-69690000I249998J0D01*
G01*
X168493334Y-69690000D01*
G75*
G02*
X168743332Y-69939998I0J-249998D01*
G01*
G37*
G36*
G01*
X170568332Y-69939998D02*
X170568332Y-70840002D01*
G75*
G02*
X170318334Y-71090000I-249998J0D01*
G01*
X169793330Y-71090000D01*
G75*
G02*
X169543332Y-70840002I0J249998D01*
G01*
X169543332Y-69939998D01*
G75*
G02*
X169793330Y-69690000I249998J0D01*
G01*
X170318334Y-69690000D01*
G75*
G02*
X170568332Y-69939998I0J-249998D01*
G01*
G37*
%TD*%
%TO.C,R32*%
G36*
G01*
X164401666Y-69939998D02*
X164401666Y-70840002D01*
G75*
G02*
X164151668Y-71090000I-249998J0D01*
G01*
X163626664Y-71090000D01*
G75*
G02*
X163376666Y-70840002I0J249998D01*
G01*
X163376666Y-69939998D01*
G75*
G02*
X163626664Y-69690000I249998J0D01*
G01*
X164151668Y-69690000D01*
G75*
G02*
X164401666Y-69939998I0J-249998D01*
G01*
G37*
G36*
G01*
X166226666Y-69939998D02*
X166226666Y-70840002D01*
G75*
G02*
X165976668Y-71090000I-249998J0D01*
G01*
X165451664Y-71090000D01*
G75*
G02*
X165201666Y-70840002I0J249998D01*
G01*
X165201666Y-69939998D01*
G75*
G02*
X165451664Y-69690000I249998J0D01*
G01*
X165976668Y-69690000D01*
G75*
G02*
X166226666Y-69939998I0J-249998D01*
G01*
G37*
%TD*%
%TO.C,R31*%
G36*
G01*
X150323332Y-69939998D02*
X150323332Y-70840002D01*
G75*
G02*
X150073334Y-71090000I-249998J0D01*
G01*
X149548330Y-71090000D01*
G75*
G02*
X149298332Y-70840002I0J249998D01*
G01*
X149298332Y-69939998D01*
G75*
G02*
X149548330Y-69690000I249998J0D01*
G01*
X150073334Y-69690000D01*
G75*
G02*
X150323332Y-69939998I0J-249998D01*
G01*
G37*
G36*
G01*
X152148332Y-69939998D02*
X152148332Y-70840002D01*
G75*
G02*
X151898334Y-71090000I-249998J0D01*
G01*
X151373330Y-71090000D01*
G75*
G02*
X151123332Y-70840002I0J249998D01*
G01*
X151123332Y-69939998D01*
G75*
G02*
X151373330Y-69690000I249998J0D01*
G01*
X151898334Y-69690000D01*
G75*
G02*
X152148332Y-69939998I0J-249998D01*
G01*
G37*
%TD*%
%TO.C,R30*%
G36*
G01*
X145981666Y-69939998D02*
X145981666Y-70840002D01*
G75*
G02*
X145731668Y-71090000I-249998J0D01*
G01*
X145206664Y-71090000D01*
G75*
G02*
X144956666Y-70840002I0J249998D01*
G01*
X144956666Y-69939998D01*
G75*
G02*
X145206664Y-69690000I249998J0D01*
G01*
X145731668Y-69690000D01*
G75*
G02*
X145981666Y-69939998I0J-249998D01*
G01*
G37*
G36*
G01*
X147806666Y-69939998D02*
X147806666Y-70840002D01*
G75*
G02*
X147556668Y-71090000I-249998J0D01*
G01*
X147031664Y-71090000D01*
G75*
G02*
X146781666Y-70840002I0J249998D01*
G01*
X146781666Y-69939998D01*
G75*
G02*
X147031664Y-69690000I249998J0D01*
G01*
X147556668Y-69690000D01*
G75*
G02*
X147806666Y-69939998I0J-249998D01*
G01*
G37*
%TD*%
%TO.C,R29*%
G36*
G01*
X190720000Y-70249998D02*
X190720000Y-71150002D01*
G75*
G02*
X190470002Y-71400000I-249998J0D01*
G01*
X189944998Y-71400000D01*
G75*
G02*
X189695000Y-71150002I0J249998D01*
G01*
X189695000Y-70249998D01*
G75*
G02*
X189944998Y-70000000I249998J0D01*
G01*
X190470002Y-70000000D01*
G75*
G02*
X190720000Y-70249998I0J-249998D01*
G01*
G37*
G36*
G01*
X192545000Y-70249998D02*
X192545000Y-71150002D01*
G75*
G02*
X192295002Y-71400000I-249998J0D01*
G01*
X191769998Y-71400000D01*
G75*
G02*
X191520000Y-71150002I0J249998D01*
G01*
X191520000Y-70249998D01*
G75*
G02*
X191769998Y-70000000I249998J0D01*
G01*
X192295002Y-70000000D01*
G75*
G02*
X192545000Y-70249998I0J-249998D01*
G01*
G37*
%TD*%
%TO.C,R28*%
G36*
G01*
X175410002Y-34820000D02*
X174509998Y-34820000D01*
G75*
G02*
X174260000Y-34570002I0J249998D01*
G01*
X174260000Y-34044998D01*
G75*
G02*
X174509998Y-33795000I249998J0D01*
G01*
X175410002Y-33795000D01*
G75*
G02*
X175660000Y-34044998I0J-249998D01*
G01*
X175660000Y-34570002D01*
G75*
G02*
X175410002Y-34820000I-249998J0D01*
G01*
G37*
G36*
G01*
X175410002Y-36645000D02*
X174509998Y-36645000D01*
G75*
G02*
X174260000Y-36395002I0J249998D01*
G01*
X174260000Y-35869998D01*
G75*
G02*
X174509998Y-35620000I249998J0D01*
G01*
X175410002Y-35620000D01*
G75*
G02*
X175660000Y-35869998I0J-249998D01*
G01*
X175660000Y-36395002D01*
G75*
G02*
X175410002Y-36645000I-249998J0D01*
G01*
G37*
%TD*%
%TO.C,R27*%
G36*
G01*
X174519998Y-130990000D02*
X175420002Y-130990000D01*
G75*
G02*
X175670000Y-131239998I0J-249998D01*
G01*
X175670000Y-131765002D01*
G75*
G02*
X175420002Y-132015000I-249998J0D01*
G01*
X174519998Y-132015000D01*
G75*
G02*
X174270000Y-131765002I0J249998D01*
G01*
X174270000Y-131239998D01*
G75*
G02*
X174519998Y-130990000I249998J0D01*
G01*
G37*
G36*
G01*
X174519998Y-129165000D02*
X175420002Y-129165000D01*
G75*
G02*
X175670000Y-129414998I0J-249998D01*
G01*
X175670000Y-129940002D01*
G75*
G02*
X175420002Y-130190000I-249998J0D01*
G01*
X174519998Y-130190000D01*
G75*
G02*
X174270000Y-129940002I0J249998D01*
G01*
X174270000Y-129414998D01*
G75*
G02*
X174519998Y-129165000I249998J0D01*
G01*
G37*
%TD*%
%TO.C,R26*%
G36*
G01*
X96355998Y-136170000D02*
X97256002Y-136170000D01*
G75*
G02*
X97506000Y-136419998I0J-249998D01*
G01*
X97506000Y-136945002D01*
G75*
G02*
X97256002Y-137195000I-249998J0D01*
G01*
X96355998Y-137195000D01*
G75*
G02*
X96106000Y-136945002I0J249998D01*
G01*
X96106000Y-136419998D01*
G75*
G02*
X96355998Y-136170000I249998J0D01*
G01*
G37*
G36*
G01*
X96355998Y-134345000D02*
X97256002Y-134345000D01*
G75*
G02*
X97506000Y-134594998I0J-249998D01*
G01*
X97506000Y-135120002D01*
G75*
G02*
X97256002Y-135370000I-249998J0D01*
G01*
X96355998Y-135370000D01*
G75*
G02*
X96106000Y-135120002I0J249998D01*
G01*
X96106000Y-134594998D01*
G75*
G02*
X96355998Y-134345000I249998J0D01*
G01*
G37*
%TD*%
%TO.C,R25*%
G36*
G01*
X77080002Y-43960000D02*
X76179998Y-43960000D01*
G75*
G02*
X75930000Y-43710002I0J249998D01*
G01*
X75930000Y-43184998D01*
G75*
G02*
X76179998Y-42935000I249998J0D01*
G01*
X77080002Y-42935000D01*
G75*
G02*
X77330000Y-43184998I0J-249998D01*
G01*
X77330000Y-43710002D01*
G75*
G02*
X77080002Y-43960000I-249998J0D01*
G01*
G37*
G36*
G01*
X77080002Y-45785000D02*
X76179998Y-45785000D01*
G75*
G02*
X75930000Y-45535002I0J249998D01*
G01*
X75930000Y-45009998D01*
G75*
G02*
X76179998Y-44760000I249998J0D01*
G01*
X77080002Y-44760000D01*
G75*
G02*
X77330000Y-45009998I0J-249998D01*
G01*
X77330000Y-45535002D01*
G75*
G02*
X77080002Y-45785000I-249998J0D01*
G01*
G37*
%TD*%
%TO.C,R24*%
G36*
G01*
X231290002Y-101280000D02*
X230389998Y-101280000D01*
G75*
G02*
X230140000Y-101030002I0J249998D01*
G01*
X230140000Y-100504998D01*
G75*
G02*
X230389998Y-100255000I249998J0D01*
G01*
X231290002Y-100255000D01*
G75*
G02*
X231540000Y-100504998I0J-249998D01*
G01*
X231540000Y-101030002D01*
G75*
G02*
X231290002Y-101280000I-249998J0D01*
G01*
G37*
G36*
G01*
X231290002Y-103105000D02*
X230389998Y-103105000D01*
G75*
G02*
X230140000Y-102855002I0J249998D01*
G01*
X230140000Y-102329998D01*
G75*
G02*
X230389998Y-102080000I249998J0D01*
G01*
X231290002Y-102080000D01*
G75*
G02*
X231540000Y-102329998I0J-249998D01*
G01*
X231540000Y-102855002D01*
G75*
G02*
X231290002Y-103105000I-249998J0D01*
G01*
G37*
%TD*%
%TO.C,R23*%
G36*
G01*
X228984287Y-101210000D02*
X228084283Y-101210000D01*
G75*
G02*
X227834285Y-100960002I0J249998D01*
G01*
X227834285Y-100434998D01*
G75*
G02*
X228084283Y-100185000I249998J0D01*
G01*
X228984287Y-100185000D01*
G75*
G02*
X229234285Y-100434998I0J-249998D01*
G01*
X229234285Y-100960002D01*
G75*
G02*
X228984287Y-101210000I-249998J0D01*
G01*
G37*
G36*
G01*
X228984287Y-103035000D02*
X228084283Y-103035000D01*
G75*
G02*
X227834285Y-102785002I0J249998D01*
G01*
X227834285Y-102259998D01*
G75*
G02*
X228084283Y-102010000I249998J0D01*
G01*
X228984287Y-102010000D01*
G75*
G02*
X229234285Y-102259998I0J-249998D01*
G01*
X229234285Y-102785002D01*
G75*
G02*
X228984287Y-103035000I-249998J0D01*
G01*
G37*
%TD*%
%TO.C,R22*%
G36*
G01*
X226678572Y-101280000D02*
X225778568Y-101280000D01*
G75*
G02*
X225528570Y-101030002I0J249998D01*
G01*
X225528570Y-100504998D01*
G75*
G02*
X225778568Y-100255000I249998J0D01*
G01*
X226678572Y-100255000D01*
G75*
G02*
X226928570Y-100504998I0J-249998D01*
G01*
X226928570Y-101030002D01*
G75*
G02*
X226678572Y-101280000I-249998J0D01*
G01*
G37*
G36*
G01*
X226678572Y-103105000D02*
X225778568Y-103105000D01*
G75*
G02*
X225528570Y-102855002I0J249998D01*
G01*
X225528570Y-102329998D01*
G75*
G02*
X225778568Y-102080000I249998J0D01*
G01*
X226678572Y-102080000D01*
G75*
G02*
X226928570Y-102329998I0J-249998D01*
G01*
X226928570Y-102855002D01*
G75*
G02*
X226678572Y-103105000I-249998J0D01*
G01*
G37*
%TD*%
%TO.C,R21*%
G36*
G01*
X224372858Y-101280000D02*
X223472854Y-101280000D01*
G75*
G02*
X223222856Y-101030002I0J249998D01*
G01*
X223222856Y-100504998D01*
G75*
G02*
X223472854Y-100255000I249998J0D01*
G01*
X224372858Y-100255000D01*
G75*
G02*
X224622856Y-100504998I0J-249998D01*
G01*
X224622856Y-101030002D01*
G75*
G02*
X224372858Y-101280000I-249998J0D01*
G01*
G37*
G36*
G01*
X224372858Y-103105000D02*
X223472854Y-103105000D01*
G75*
G02*
X223222856Y-102855002I0J249998D01*
G01*
X223222856Y-102329998D01*
G75*
G02*
X223472854Y-102080000I249998J0D01*
G01*
X224372858Y-102080000D01*
G75*
G02*
X224622856Y-102329998I0J-249998D01*
G01*
X224622856Y-102855002D01*
G75*
G02*
X224372858Y-103105000I-249998J0D01*
G01*
G37*
%TD*%
%TO.C,R20*%
G36*
G01*
X222067144Y-101280000D02*
X221167140Y-101280000D01*
G75*
G02*
X220917142Y-101030002I0J249998D01*
G01*
X220917142Y-100504998D01*
G75*
G02*
X221167140Y-100255000I249998J0D01*
G01*
X222067144Y-100255000D01*
G75*
G02*
X222317142Y-100504998I0J-249998D01*
G01*
X222317142Y-101030002D01*
G75*
G02*
X222067144Y-101280000I-249998J0D01*
G01*
G37*
G36*
G01*
X222067144Y-103105000D02*
X221167140Y-103105000D01*
G75*
G02*
X220917142Y-102855002I0J249998D01*
G01*
X220917142Y-102329998D01*
G75*
G02*
X221167140Y-102080000I249998J0D01*
G01*
X222067144Y-102080000D01*
G75*
G02*
X222317142Y-102329998I0J-249998D01*
G01*
X222317142Y-102855002D01*
G75*
G02*
X222067144Y-103105000I-249998J0D01*
G01*
G37*
%TD*%
%TO.C,R19*%
G36*
G01*
X219761430Y-101280000D02*
X218861426Y-101280000D01*
G75*
G02*
X218611428Y-101030002I0J249998D01*
G01*
X218611428Y-100504998D01*
G75*
G02*
X218861426Y-100255000I249998J0D01*
G01*
X219761430Y-100255000D01*
G75*
G02*
X220011428Y-100504998I0J-249998D01*
G01*
X220011428Y-101030002D01*
G75*
G02*
X219761430Y-101280000I-249998J0D01*
G01*
G37*
G36*
G01*
X219761430Y-103105000D02*
X218861426Y-103105000D01*
G75*
G02*
X218611428Y-102855002I0J249998D01*
G01*
X218611428Y-102329998D01*
G75*
G02*
X218861426Y-102080000I249998J0D01*
G01*
X219761430Y-102080000D01*
G75*
G02*
X220011428Y-102329998I0J-249998D01*
G01*
X220011428Y-102855002D01*
G75*
G02*
X219761430Y-103105000I-249998J0D01*
G01*
G37*
%TD*%
%TO.C,R18*%
G36*
G01*
X217455716Y-101280000D02*
X216555712Y-101280000D01*
G75*
G02*
X216305714Y-101030002I0J249998D01*
G01*
X216305714Y-100504998D01*
G75*
G02*
X216555712Y-100255000I249998J0D01*
G01*
X217455716Y-100255000D01*
G75*
G02*
X217705714Y-100504998I0J-249998D01*
G01*
X217705714Y-101030002D01*
G75*
G02*
X217455716Y-101280000I-249998J0D01*
G01*
G37*
G36*
G01*
X217455716Y-103105000D02*
X216555712Y-103105000D01*
G75*
G02*
X216305714Y-102855002I0J249998D01*
G01*
X216305714Y-102329998D01*
G75*
G02*
X216555712Y-102080000I249998J0D01*
G01*
X217455716Y-102080000D01*
G75*
G02*
X217705714Y-102329998I0J-249998D01*
G01*
X217705714Y-102855002D01*
G75*
G02*
X217455716Y-103105000I-249998J0D01*
G01*
G37*
%TD*%
%TO.C,R17*%
G36*
G01*
X215150002Y-101280000D02*
X214249998Y-101280000D01*
G75*
G02*
X214000000Y-101030002I0J249998D01*
G01*
X214000000Y-100504998D01*
G75*
G02*
X214249998Y-100255000I249998J0D01*
G01*
X215150002Y-100255000D01*
G75*
G02*
X215400000Y-100504998I0J-249998D01*
G01*
X215400000Y-101030002D01*
G75*
G02*
X215150002Y-101280000I-249998J0D01*
G01*
G37*
G36*
G01*
X215150002Y-103105000D02*
X214249998Y-103105000D01*
G75*
G02*
X214000000Y-102855002I0J249998D01*
G01*
X214000000Y-102329998D01*
G75*
G02*
X214249998Y-102080000I249998J0D01*
G01*
X215150002Y-102080000D01*
G75*
G02*
X215400000Y-102329998I0J-249998D01*
G01*
X215400000Y-102855002D01*
G75*
G02*
X215150002Y-103105000I-249998J0D01*
G01*
G37*
%TD*%
%TO.C,R16*%
G36*
G01*
X110060000Y-104729998D02*
X110060000Y-105630002D01*
G75*
G02*
X109810002Y-105880000I-249998J0D01*
G01*
X109284998Y-105880000D01*
G75*
G02*
X109035000Y-105630002I0J249998D01*
G01*
X109035000Y-104729998D01*
G75*
G02*
X109284998Y-104480000I249998J0D01*
G01*
X109810002Y-104480000D01*
G75*
G02*
X110060000Y-104729998I0J-249998D01*
G01*
G37*
G36*
G01*
X111885000Y-104729998D02*
X111885000Y-105630002D01*
G75*
G02*
X111635002Y-105880000I-249998J0D01*
G01*
X111109998Y-105880000D01*
G75*
G02*
X110860000Y-105630002I0J249998D01*
G01*
X110860000Y-104729998D01*
G75*
G02*
X111109998Y-104480000I249998J0D01*
G01*
X111635002Y-104480000D01*
G75*
G02*
X111885000Y-104729998I0J-249998D01*
G01*
G37*
%TD*%
%TO.C,R15*%
G36*
G01*
X122230002Y-112735000D02*
X121329998Y-112735000D01*
G75*
G02*
X121080000Y-112485002I0J249998D01*
G01*
X121080000Y-111959998D01*
G75*
G02*
X121329998Y-111710000I249998J0D01*
G01*
X122230002Y-111710000D01*
G75*
G02*
X122480000Y-111959998I0J-249998D01*
G01*
X122480000Y-112485002D01*
G75*
G02*
X122230002Y-112735000I-249998J0D01*
G01*
G37*
G36*
G01*
X122230002Y-114560000D02*
X121329998Y-114560000D01*
G75*
G02*
X121080000Y-114310002I0J249998D01*
G01*
X121080000Y-113784998D01*
G75*
G02*
X121329998Y-113535000I249998J0D01*
G01*
X122230002Y-113535000D01*
G75*
G02*
X122480000Y-113784998I0J-249998D01*
G01*
X122480000Y-114310002D01*
G75*
G02*
X122230002Y-114560000I-249998J0D01*
G01*
G37*
%TD*%
%TO.C,R14*%
G36*
G01*
X124676666Y-104729998D02*
X124676666Y-105630002D01*
G75*
G02*
X124426668Y-105880000I-249998J0D01*
G01*
X123901664Y-105880000D01*
G75*
G02*
X123651666Y-105630002I0J249998D01*
G01*
X123651666Y-104729998D01*
G75*
G02*
X123901664Y-104480000I249998J0D01*
G01*
X124426668Y-104480000D01*
G75*
G02*
X124676666Y-104729998I0J-249998D01*
G01*
G37*
G36*
G01*
X126501666Y-104729998D02*
X126501666Y-105630002D01*
G75*
G02*
X126251668Y-105880000I-249998J0D01*
G01*
X125726664Y-105880000D01*
G75*
G02*
X125476666Y-105630002I0J249998D01*
G01*
X125476666Y-104729998D01*
G75*
G02*
X125726664Y-104480000I249998J0D01*
G01*
X126251668Y-104480000D01*
G75*
G02*
X126501666Y-104729998I0J-249998D01*
G01*
G37*
%TD*%
%TO.C,R13*%
G36*
G01*
X137750002Y-112735000D02*
X136849998Y-112735000D01*
G75*
G02*
X136600000Y-112485002I0J249998D01*
G01*
X136600000Y-111959998D01*
G75*
G02*
X136849998Y-111710000I249998J0D01*
G01*
X137750002Y-111710000D01*
G75*
G02*
X138000000Y-111959998I0J-249998D01*
G01*
X138000000Y-112485002D01*
G75*
G02*
X137750002Y-112735000I-249998J0D01*
G01*
G37*
G36*
G01*
X137750002Y-114560000D02*
X136849998Y-114560000D01*
G75*
G02*
X136600000Y-114310002I0J249998D01*
G01*
X136600000Y-113784998D01*
G75*
G02*
X136849998Y-113535000I249998J0D01*
G01*
X137750002Y-113535000D01*
G75*
G02*
X138000000Y-113784998I0J-249998D01*
G01*
X138000000Y-114310002D01*
G75*
G02*
X137750002Y-114560000I-249998J0D01*
G01*
G37*
%TD*%
%TO.C,R12*%
G36*
G01*
X140248332Y-104729998D02*
X140248332Y-105630002D01*
G75*
G02*
X139998334Y-105880000I-249998J0D01*
G01*
X139473330Y-105880000D01*
G75*
G02*
X139223332Y-105630002I0J249998D01*
G01*
X139223332Y-104729998D01*
G75*
G02*
X139473330Y-104480000I249998J0D01*
G01*
X139998334Y-104480000D01*
G75*
G02*
X140248332Y-104729998I0J-249998D01*
G01*
G37*
G36*
G01*
X142073332Y-104729998D02*
X142073332Y-105630002D01*
G75*
G02*
X141823334Y-105880000I-249998J0D01*
G01*
X141298330Y-105880000D01*
G75*
G02*
X141048332Y-105630002I0J249998D01*
G01*
X141048332Y-104729998D01*
G75*
G02*
X141298330Y-104480000I249998J0D01*
G01*
X141823334Y-104480000D01*
G75*
G02*
X142073332Y-104729998I0J-249998D01*
G01*
G37*
%TD*%
%TO.C,R11*%
G36*
G01*
X153340002Y-112735000D02*
X152439998Y-112735000D01*
G75*
G02*
X152190000Y-112485002I0J249998D01*
G01*
X152190000Y-111959998D01*
G75*
G02*
X152439998Y-111710000I249998J0D01*
G01*
X153340002Y-111710000D01*
G75*
G02*
X153590000Y-111959998I0J-249998D01*
G01*
X153590000Y-112485002D01*
G75*
G02*
X153340002Y-112735000I-249998J0D01*
G01*
G37*
G36*
G01*
X153340002Y-114560000D02*
X152439998Y-114560000D01*
G75*
G02*
X152190000Y-114310002I0J249998D01*
G01*
X152190000Y-113784998D01*
G75*
G02*
X152439998Y-113535000I249998J0D01*
G01*
X153340002Y-113535000D01*
G75*
G02*
X153590000Y-113784998I0J-249998D01*
G01*
X153590000Y-114310002D01*
G75*
G02*
X153340002Y-114560000I-249998J0D01*
G01*
G37*
%TD*%
%TO.C,R10*%
G36*
G01*
X155860000Y-104729998D02*
X155860000Y-105630002D01*
G75*
G02*
X155610002Y-105880000I-249998J0D01*
G01*
X155084998Y-105880000D01*
G75*
G02*
X154835000Y-105630002I0J249998D01*
G01*
X154835000Y-104729998D01*
G75*
G02*
X155084998Y-104480000I249998J0D01*
G01*
X155610002Y-104480000D01*
G75*
G02*
X155860000Y-104729998I0J-249998D01*
G01*
G37*
G36*
G01*
X157685000Y-104729998D02*
X157685000Y-105630002D01*
G75*
G02*
X157435002Y-105880000I-249998J0D01*
G01*
X156909998Y-105880000D01*
G75*
G02*
X156660000Y-105630002I0J249998D01*
G01*
X156660000Y-104729998D01*
G75*
G02*
X156909998Y-104480000I249998J0D01*
G01*
X157435002Y-104480000D01*
G75*
G02*
X157685000Y-104729998I0J-249998D01*
G01*
G37*
%TD*%
%TO.C,R9*%
G36*
G01*
X169040002Y-112735000D02*
X168139998Y-112735000D01*
G75*
G02*
X167890000Y-112485002I0J249998D01*
G01*
X167890000Y-111959998D01*
G75*
G02*
X168139998Y-111710000I249998J0D01*
G01*
X169040002Y-111710000D01*
G75*
G02*
X169290000Y-111959998I0J-249998D01*
G01*
X169290000Y-112485002D01*
G75*
G02*
X169040002Y-112735000I-249998J0D01*
G01*
G37*
G36*
G01*
X169040002Y-114560000D02*
X168139998Y-114560000D01*
G75*
G02*
X167890000Y-114310002I0J249998D01*
G01*
X167890000Y-113784998D01*
G75*
G02*
X168139998Y-113535000I249998J0D01*
G01*
X169040002Y-113535000D01*
G75*
G02*
X169290000Y-113784998I0J-249998D01*
G01*
X169290000Y-114310002D01*
G75*
G02*
X169040002Y-114560000I-249998J0D01*
G01*
G37*
%TD*%
%TO.C,R8*%
G36*
G01*
X110950000Y-66920002D02*
X110950000Y-66019998D01*
G75*
G02*
X111199998Y-65770000I249998J0D01*
G01*
X111725002Y-65770000D01*
G75*
G02*
X111975000Y-66019998I0J-249998D01*
G01*
X111975000Y-66920002D01*
G75*
G02*
X111725002Y-67170000I-249998J0D01*
G01*
X111199998Y-67170000D01*
G75*
G02*
X110950000Y-66920002I0J249998D01*
G01*
G37*
G36*
G01*
X109125000Y-66920002D02*
X109125000Y-66019998D01*
G75*
G02*
X109374998Y-65770000I249998J0D01*
G01*
X109900002Y-65770000D01*
G75*
G02*
X110150000Y-66019998I0J-249998D01*
G01*
X110150000Y-66920002D01*
G75*
G02*
X109900002Y-67170000I-249998J0D01*
G01*
X109374998Y-67170000D01*
G75*
G02*
X109125000Y-66920002I0J249998D01*
G01*
G37*
%TD*%
%TO.C,R7*%
G36*
G01*
X110950000Y-69212859D02*
X110950000Y-68312855D01*
G75*
G02*
X111199998Y-68062857I249998J0D01*
G01*
X111725002Y-68062857D01*
G75*
G02*
X111975000Y-68312855I0J-249998D01*
G01*
X111975000Y-69212859D01*
G75*
G02*
X111725002Y-69462857I-249998J0D01*
G01*
X111199998Y-69462857D01*
G75*
G02*
X110950000Y-69212859I0J249998D01*
G01*
G37*
G36*
G01*
X109125000Y-69212859D02*
X109125000Y-68312855D01*
G75*
G02*
X109374998Y-68062857I249998J0D01*
G01*
X109900002Y-68062857D01*
G75*
G02*
X110150000Y-68312855I0J-249998D01*
G01*
X110150000Y-69212859D01*
G75*
G02*
X109900002Y-69462857I-249998J0D01*
G01*
X109374998Y-69462857D01*
G75*
G02*
X109125000Y-69212859I0J249998D01*
G01*
G37*
%TD*%
%TO.C,R6*%
G36*
G01*
X110950000Y-71505716D02*
X110950000Y-70605712D01*
G75*
G02*
X111199998Y-70355714I249998J0D01*
G01*
X111725002Y-70355714D01*
G75*
G02*
X111975000Y-70605712I0J-249998D01*
G01*
X111975000Y-71505716D01*
G75*
G02*
X111725002Y-71755714I-249998J0D01*
G01*
X111199998Y-71755714D01*
G75*
G02*
X110950000Y-71505716I0J249998D01*
G01*
G37*
G36*
G01*
X109125000Y-71505716D02*
X109125000Y-70605712D01*
G75*
G02*
X109374998Y-70355714I249998J0D01*
G01*
X109900002Y-70355714D01*
G75*
G02*
X110150000Y-70605712I0J-249998D01*
G01*
X110150000Y-71505716D01*
G75*
G02*
X109900002Y-71755714I-249998J0D01*
G01*
X109374998Y-71755714D01*
G75*
G02*
X109125000Y-71505716I0J249998D01*
G01*
G37*
%TD*%
%TO.C,R5*%
G36*
G01*
X110950000Y-73798573D02*
X110950000Y-72898569D01*
G75*
G02*
X111199998Y-72648571I249998J0D01*
G01*
X111725002Y-72648571D01*
G75*
G02*
X111975000Y-72898569I0J-249998D01*
G01*
X111975000Y-73798573D01*
G75*
G02*
X111725002Y-74048571I-249998J0D01*
G01*
X111199998Y-74048571D01*
G75*
G02*
X110950000Y-73798573I0J249998D01*
G01*
G37*
G36*
G01*
X109125000Y-73798573D02*
X109125000Y-72898569D01*
G75*
G02*
X109374998Y-72648571I249998J0D01*
G01*
X109900002Y-72648571D01*
G75*
G02*
X110150000Y-72898569I0J-249998D01*
G01*
X110150000Y-73798573D01*
G75*
G02*
X109900002Y-74048571I-249998J0D01*
G01*
X109374998Y-74048571D01*
G75*
G02*
X109125000Y-73798573I0J249998D01*
G01*
G37*
%TD*%
%TO.C,R4*%
G36*
G01*
X110950000Y-76091430D02*
X110950000Y-75191426D01*
G75*
G02*
X111199998Y-74941428I249998J0D01*
G01*
X111725002Y-74941428D01*
G75*
G02*
X111975000Y-75191426I0J-249998D01*
G01*
X111975000Y-76091430D01*
G75*
G02*
X111725002Y-76341428I-249998J0D01*
G01*
X111199998Y-76341428D01*
G75*
G02*
X110950000Y-76091430I0J249998D01*
G01*
G37*
G36*
G01*
X109125000Y-76091430D02*
X109125000Y-75191426D01*
G75*
G02*
X109374998Y-74941428I249998J0D01*
G01*
X109900002Y-74941428D01*
G75*
G02*
X110150000Y-75191426I0J-249998D01*
G01*
X110150000Y-76091430D01*
G75*
G02*
X109900002Y-76341428I-249998J0D01*
G01*
X109374998Y-76341428D01*
G75*
G02*
X109125000Y-76091430I0J249998D01*
G01*
G37*
%TD*%
%TO.C,R3*%
G36*
G01*
X110950000Y-78384287D02*
X110950000Y-77484283D01*
G75*
G02*
X111199998Y-77234285I249998J0D01*
G01*
X111725002Y-77234285D01*
G75*
G02*
X111975000Y-77484283I0J-249998D01*
G01*
X111975000Y-78384287D01*
G75*
G02*
X111725002Y-78634285I-249998J0D01*
G01*
X111199998Y-78634285D01*
G75*
G02*
X110950000Y-78384287I0J249998D01*
G01*
G37*
G36*
G01*
X109125000Y-78384287D02*
X109125000Y-77484283D01*
G75*
G02*
X109374998Y-77234285I249998J0D01*
G01*
X109900002Y-77234285D01*
G75*
G02*
X110150000Y-77484283I0J-249998D01*
G01*
X110150000Y-78384287D01*
G75*
G02*
X109900002Y-78634285I-249998J0D01*
G01*
X109374998Y-78634285D01*
G75*
G02*
X109125000Y-78384287I0J249998D01*
G01*
G37*
%TD*%
%TO.C,R2*%
G36*
G01*
X110950000Y-80677144D02*
X110950000Y-79777140D01*
G75*
G02*
X111199998Y-79527142I249998J0D01*
G01*
X111725002Y-79527142D01*
G75*
G02*
X111975000Y-79777140I0J-249998D01*
G01*
X111975000Y-80677144D01*
G75*
G02*
X111725002Y-80927142I-249998J0D01*
G01*
X111199998Y-80927142D01*
G75*
G02*
X110950000Y-80677144I0J249998D01*
G01*
G37*
G36*
G01*
X109125000Y-80677144D02*
X109125000Y-79777140D01*
G75*
G02*
X109374998Y-79527142I249998J0D01*
G01*
X109900002Y-79527142D01*
G75*
G02*
X110150000Y-79777140I0J-249998D01*
G01*
X110150000Y-80677144D01*
G75*
G02*
X109900002Y-80927142I-249998J0D01*
G01*
X109374998Y-80927142D01*
G75*
G02*
X109125000Y-80677144I0J249998D01*
G01*
G37*
%TD*%
%TO.C,R1*%
G36*
G01*
X110950000Y-82970002D02*
X110950000Y-82069998D01*
G75*
G02*
X111199998Y-81820000I249998J0D01*
G01*
X111725002Y-81820000D01*
G75*
G02*
X111975000Y-82069998I0J-249998D01*
G01*
X111975000Y-82970002D01*
G75*
G02*
X111725002Y-83220000I-249998J0D01*
G01*
X111199998Y-83220000D01*
G75*
G02*
X110950000Y-82970002I0J249998D01*
G01*
G37*
G36*
G01*
X109125000Y-82970002D02*
X109125000Y-82069998D01*
G75*
G02*
X109374998Y-81820000I249998J0D01*
G01*
X109900002Y-81820000D01*
G75*
G02*
X110150000Y-82069998I0J-249998D01*
G01*
X110150000Y-82970002D01*
G75*
G02*
X109900002Y-83220000I-249998J0D01*
G01*
X109374998Y-83220000D01*
G75*
G02*
X109125000Y-82970002I0J249998D01*
G01*
G37*
%TD*%
%TO.C,D32*%
G36*
G01*
X245724800Y-135096250D02*
X245724800Y-134583750D01*
G75*
G02*
X245943550Y-134365000I218750J0D01*
G01*
X246381050Y-134365000D01*
G75*
G02*
X246599800Y-134583750I0J-218750D01*
G01*
X246599800Y-135096250D01*
G75*
G02*
X246381050Y-135315000I-218750J0D01*
G01*
X245943550Y-135315000D01*
G75*
G02*
X245724800Y-135096250I0J218750D01*
G01*
G37*
G36*
G01*
X247299800Y-135096250D02*
X247299800Y-134583750D01*
G75*
G02*
X247518550Y-134365000I218750J0D01*
G01*
X247956050Y-134365000D01*
G75*
G02*
X248174800Y-134583750I0J-218750D01*
G01*
X248174800Y-135096250D01*
G75*
G02*
X247956050Y-135315000I-218750J0D01*
G01*
X247518550Y-135315000D01*
G75*
G02*
X247299800Y-135096250I0J218750D01*
G01*
G37*
%TD*%
%TO.C,D31*%
G36*
G01*
X238364084Y-135096250D02*
X238364084Y-134583750D01*
G75*
G02*
X238582834Y-134365000I218750J0D01*
G01*
X239020334Y-134365000D01*
G75*
G02*
X239239084Y-134583750I0J-218750D01*
G01*
X239239084Y-135096250D01*
G75*
G02*
X239020334Y-135315000I-218750J0D01*
G01*
X238582834Y-135315000D01*
G75*
G02*
X238364084Y-135096250I0J218750D01*
G01*
G37*
G36*
G01*
X239939084Y-135096250D02*
X239939084Y-134583750D01*
G75*
G02*
X240157834Y-134365000I218750J0D01*
G01*
X240595334Y-134365000D01*
G75*
G02*
X240814084Y-134583750I0J-218750D01*
G01*
X240814084Y-135096250D01*
G75*
G02*
X240595334Y-135315000I-218750J0D01*
G01*
X240157834Y-135315000D01*
G75*
G02*
X239939084Y-135096250I0J218750D01*
G01*
G37*
%TD*%
%TO.C,D30*%
G36*
G01*
X231003370Y-135096250D02*
X231003370Y-134583750D01*
G75*
G02*
X231222120Y-134365000I218750J0D01*
G01*
X231659620Y-134365000D01*
G75*
G02*
X231878370Y-134583750I0J-218750D01*
G01*
X231878370Y-135096250D01*
G75*
G02*
X231659620Y-135315000I-218750J0D01*
G01*
X231222120Y-135315000D01*
G75*
G02*
X231003370Y-135096250I0J218750D01*
G01*
G37*
G36*
G01*
X232578370Y-135096250D02*
X232578370Y-134583750D01*
G75*
G02*
X232797120Y-134365000I218750J0D01*
G01*
X233234620Y-134365000D01*
G75*
G02*
X233453370Y-134583750I0J-218750D01*
G01*
X233453370Y-135096250D01*
G75*
G02*
X233234620Y-135315000I-218750J0D01*
G01*
X232797120Y-135315000D01*
G75*
G02*
X232578370Y-135096250I0J218750D01*
G01*
G37*
%TD*%
%TO.C,D29*%
G36*
G01*
X223642656Y-135096250D02*
X223642656Y-134583750D01*
G75*
G02*
X223861406Y-134365000I218750J0D01*
G01*
X224298906Y-134365000D01*
G75*
G02*
X224517656Y-134583750I0J-218750D01*
G01*
X224517656Y-135096250D01*
G75*
G02*
X224298906Y-135315000I-218750J0D01*
G01*
X223861406Y-135315000D01*
G75*
G02*
X223642656Y-135096250I0J218750D01*
G01*
G37*
G36*
G01*
X225217656Y-135096250D02*
X225217656Y-134583750D01*
G75*
G02*
X225436406Y-134365000I218750J0D01*
G01*
X225873906Y-134365000D01*
G75*
G02*
X226092656Y-134583750I0J-218750D01*
G01*
X226092656Y-135096250D01*
G75*
G02*
X225873906Y-135315000I-218750J0D01*
G01*
X225436406Y-135315000D01*
G75*
G02*
X225217656Y-135096250I0J218750D01*
G01*
G37*
%TD*%
%TO.C,D28*%
G36*
G01*
X216281942Y-135096250D02*
X216281942Y-134583750D01*
G75*
G02*
X216500692Y-134365000I218750J0D01*
G01*
X216938192Y-134365000D01*
G75*
G02*
X217156942Y-134583750I0J-218750D01*
G01*
X217156942Y-135096250D01*
G75*
G02*
X216938192Y-135315000I-218750J0D01*
G01*
X216500692Y-135315000D01*
G75*
G02*
X216281942Y-135096250I0J218750D01*
G01*
G37*
G36*
G01*
X217856942Y-135096250D02*
X217856942Y-134583750D01*
G75*
G02*
X218075692Y-134365000I218750J0D01*
G01*
X218513192Y-134365000D01*
G75*
G02*
X218731942Y-134583750I0J-218750D01*
G01*
X218731942Y-135096250D01*
G75*
G02*
X218513192Y-135315000I-218750J0D01*
G01*
X218075692Y-135315000D01*
G75*
G02*
X217856942Y-135096250I0J218750D01*
G01*
G37*
%TD*%
%TO.C,D27*%
G36*
G01*
X208921228Y-135096250D02*
X208921228Y-134583750D01*
G75*
G02*
X209139978Y-134365000I218750J0D01*
G01*
X209577478Y-134365000D01*
G75*
G02*
X209796228Y-134583750I0J-218750D01*
G01*
X209796228Y-135096250D01*
G75*
G02*
X209577478Y-135315000I-218750J0D01*
G01*
X209139978Y-135315000D01*
G75*
G02*
X208921228Y-135096250I0J218750D01*
G01*
G37*
G36*
G01*
X210496228Y-135096250D02*
X210496228Y-134583750D01*
G75*
G02*
X210714978Y-134365000I218750J0D01*
G01*
X211152478Y-134365000D01*
G75*
G02*
X211371228Y-134583750I0J-218750D01*
G01*
X211371228Y-135096250D01*
G75*
G02*
X211152478Y-135315000I-218750J0D01*
G01*
X210714978Y-135315000D01*
G75*
G02*
X210496228Y-135096250I0J218750D01*
G01*
G37*
%TD*%
%TO.C,D26*%
G36*
G01*
X201560514Y-135096250D02*
X201560514Y-134583750D01*
G75*
G02*
X201779264Y-134365000I218750J0D01*
G01*
X202216764Y-134365000D01*
G75*
G02*
X202435514Y-134583750I0J-218750D01*
G01*
X202435514Y-135096250D01*
G75*
G02*
X202216764Y-135315000I-218750J0D01*
G01*
X201779264Y-135315000D01*
G75*
G02*
X201560514Y-135096250I0J218750D01*
G01*
G37*
G36*
G01*
X203135514Y-135096250D02*
X203135514Y-134583750D01*
G75*
G02*
X203354264Y-134365000I218750J0D01*
G01*
X203791764Y-134365000D01*
G75*
G02*
X204010514Y-134583750I0J-218750D01*
G01*
X204010514Y-135096250D01*
G75*
G02*
X203791764Y-135315000I-218750J0D01*
G01*
X203354264Y-135315000D01*
G75*
G02*
X203135514Y-135096250I0J218750D01*
G01*
G37*
%TD*%
%TO.C,D25*%
G36*
G01*
X194199800Y-135096250D02*
X194199800Y-134583750D01*
G75*
G02*
X194418550Y-134365000I218750J0D01*
G01*
X194856050Y-134365000D01*
G75*
G02*
X195074800Y-134583750I0J-218750D01*
G01*
X195074800Y-135096250D01*
G75*
G02*
X194856050Y-135315000I-218750J0D01*
G01*
X194418550Y-135315000D01*
G75*
G02*
X194199800Y-135096250I0J218750D01*
G01*
G37*
G36*
G01*
X195774800Y-135096250D02*
X195774800Y-134583750D01*
G75*
G02*
X195993550Y-134365000I218750J0D01*
G01*
X196431050Y-134365000D01*
G75*
G02*
X196649800Y-134583750I0J-218750D01*
G01*
X196649800Y-135096250D01*
G75*
G02*
X196431050Y-135315000I-218750J0D01*
G01*
X195993550Y-135315000D01*
G75*
G02*
X195774800Y-135096250I0J218750D01*
G01*
G37*
%TD*%
%TO.C,D24*%
G36*
G01*
X166834800Y-134996250D02*
X166834800Y-134483750D01*
G75*
G02*
X167053550Y-134265000I218750J0D01*
G01*
X167491050Y-134265000D01*
G75*
G02*
X167709800Y-134483750I0J-218750D01*
G01*
X167709800Y-134996250D01*
G75*
G02*
X167491050Y-135215000I-218750J0D01*
G01*
X167053550Y-135215000D01*
G75*
G02*
X166834800Y-134996250I0J218750D01*
G01*
G37*
G36*
G01*
X168409800Y-134996250D02*
X168409800Y-134483750D01*
G75*
G02*
X168628550Y-134265000I218750J0D01*
G01*
X169066050Y-134265000D01*
G75*
G02*
X169284800Y-134483750I0J-218750D01*
G01*
X169284800Y-134996250D01*
G75*
G02*
X169066050Y-135215000I-218750J0D01*
G01*
X168628550Y-135215000D01*
G75*
G02*
X168409800Y-134996250I0J218750D01*
G01*
G37*
%TD*%
%TO.C,D23*%
G36*
G01*
X159474084Y-134996250D02*
X159474084Y-134483750D01*
G75*
G02*
X159692834Y-134265000I218750J0D01*
G01*
X160130334Y-134265000D01*
G75*
G02*
X160349084Y-134483750I0J-218750D01*
G01*
X160349084Y-134996250D01*
G75*
G02*
X160130334Y-135215000I-218750J0D01*
G01*
X159692834Y-135215000D01*
G75*
G02*
X159474084Y-134996250I0J218750D01*
G01*
G37*
G36*
G01*
X161049084Y-134996250D02*
X161049084Y-134483750D01*
G75*
G02*
X161267834Y-134265000I218750J0D01*
G01*
X161705334Y-134265000D01*
G75*
G02*
X161924084Y-134483750I0J-218750D01*
G01*
X161924084Y-134996250D01*
G75*
G02*
X161705334Y-135215000I-218750J0D01*
G01*
X161267834Y-135215000D01*
G75*
G02*
X161049084Y-134996250I0J218750D01*
G01*
G37*
%TD*%
%TO.C,D22*%
G36*
G01*
X152113370Y-134996250D02*
X152113370Y-134483750D01*
G75*
G02*
X152332120Y-134265000I218750J0D01*
G01*
X152769620Y-134265000D01*
G75*
G02*
X152988370Y-134483750I0J-218750D01*
G01*
X152988370Y-134996250D01*
G75*
G02*
X152769620Y-135215000I-218750J0D01*
G01*
X152332120Y-135215000D01*
G75*
G02*
X152113370Y-134996250I0J218750D01*
G01*
G37*
G36*
G01*
X153688370Y-134996250D02*
X153688370Y-134483750D01*
G75*
G02*
X153907120Y-134265000I218750J0D01*
G01*
X154344620Y-134265000D01*
G75*
G02*
X154563370Y-134483750I0J-218750D01*
G01*
X154563370Y-134996250D01*
G75*
G02*
X154344620Y-135215000I-218750J0D01*
G01*
X153907120Y-135215000D01*
G75*
G02*
X153688370Y-134996250I0J218750D01*
G01*
G37*
%TD*%
%TO.C,D21*%
G36*
G01*
X144752656Y-134996250D02*
X144752656Y-134483750D01*
G75*
G02*
X144971406Y-134265000I218750J0D01*
G01*
X145408906Y-134265000D01*
G75*
G02*
X145627656Y-134483750I0J-218750D01*
G01*
X145627656Y-134996250D01*
G75*
G02*
X145408906Y-135215000I-218750J0D01*
G01*
X144971406Y-135215000D01*
G75*
G02*
X144752656Y-134996250I0J218750D01*
G01*
G37*
G36*
G01*
X146327656Y-134996250D02*
X146327656Y-134483750D01*
G75*
G02*
X146546406Y-134265000I218750J0D01*
G01*
X146983906Y-134265000D01*
G75*
G02*
X147202656Y-134483750I0J-218750D01*
G01*
X147202656Y-134996250D01*
G75*
G02*
X146983906Y-135215000I-218750J0D01*
G01*
X146546406Y-135215000D01*
G75*
G02*
X146327656Y-134996250I0J218750D01*
G01*
G37*
%TD*%
%TO.C,D20*%
G36*
G01*
X137391942Y-134996250D02*
X137391942Y-134483750D01*
G75*
G02*
X137610692Y-134265000I218750J0D01*
G01*
X138048192Y-134265000D01*
G75*
G02*
X138266942Y-134483750I0J-218750D01*
G01*
X138266942Y-134996250D01*
G75*
G02*
X138048192Y-135215000I-218750J0D01*
G01*
X137610692Y-135215000D01*
G75*
G02*
X137391942Y-134996250I0J218750D01*
G01*
G37*
G36*
G01*
X138966942Y-134996250D02*
X138966942Y-134483750D01*
G75*
G02*
X139185692Y-134265000I218750J0D01*
G01*
X139623192Y-134265000D01*
G75*
G02*
X139841942Y-134483750I0J-218750D01*
G01*
X139841942Y-134996250D01*
G75*
G02*
X139623192Y-135215000I-218750J0D01*
G01*
X139185692Y-135215000D01*
G75*
G02*
X138966942Y-134996250I0J218750D01*
G01*
G37*
%TD*%
%TO.C,D19*%
G36*
G01*
X130031228Y-134996250D02*
X130031228Y-134483750D01*
G75*
G02*
X130249978Y-134265000I218750J0D01*
G01*
X130687478Y-134265000D01*
G75*
G02*
X130906228Y-134483750I0J-218750D01*
G01*
X130906228Y-134996250D01*
G75*
G02*
X130687478Y-135215000I-218750J0D01*
G01*
X130249978Y-135215000D01*
G75*
G02*
X130031228Y-134996250I0J218750D01*
G01*
G37*
G36*
G01*
X131606228Y-134996250D02*
X131606228Y-134483750D01*
G75*
G02*
X131824978Y-134265000I218750J0D01*
G01*
X132262478Y-134265000D01*
G75*
G02*
X132481228Y-134483750I0J-218750D01*
G01*
X132481228Y-134996250D01*
G75*
G02*
X132262478Y-135215000I-218750J0D01*
G01*
X131824978Y-135215000D01*
G75*
G02*
X131606228Y-134996250I0J218750D01*
G01*
G37*
%TD*%
%TO.C,D18*%
G36*
G01*
X122670514Y-134996250D02*
X122670514Y-134483750D01*
G75*
G02*
X122889264Y-134265000I218750J0D01*
G01*
X123326764Y-134265000D01*
G75*
G02*
X123545514Y-134483750I0J-218750D01*
G01*
X123545514Y-134996250D01*
G75*
G02*
X123326764Y-135215000I-218750J0D01*
G01*
X122889264Y-135215000D01*
G75*
G02*
X122670514Y-134996250I0J218750D01*
G01*
G37*
G36*
G01*
X124245514Y-134996250D02*
X124245514Y-134483750D01*
G75*
G02*
X124464264Y-134265000I218750J0D01*
G01*
X124901764Y-134265000D01*
G75*
G02*
X125120514Y-134483750I0J-218750D01*
G01*
X125120514Y-134996250D01*
G75*
G02*
X124901764Y-135215000I-218750J0D01*
G01*
X124464264Y-135215000D01*
G75*
G02*
X124245514Y-134996250I0J218750D01*
G01*
G37*
%TD*%
%TO.C,D17*%
G36*
G01*
X115309800Y-134996250D02*
X115309800Y-134483750D01*
G75*
G02*
X115528550Y-134265000I218750J0D01*
G01*
X115966050Y-134265000D01*
G75*
G02*
X116184800Y-134483750I0J-218750D01*
G01*
X116184800Y-134996250D01*
G75*
G02*
X115966050Y-135215000I-218750J0D01*
G01*
X115528550Y-135215000D01*
G75*
G02*
X115309800Y-134996250I0J218750D01*
G01*
G37*
G36*
G01*
X116884800Y-134996250D02*
X116884800Y-134483750D01*
G75*
G02*
X117103550Y-134265000I218750J0D01*
G01*
X117541050Y-134265000D01*
G75*
G02*
X117759800Y-134483750I0J-218750D01*
G01*
X117759800Y-134996250D01*
G75*
G02*
X117541050Y-135215000I-218750J0D01*
G01*
X117103550Y-135215000D01*
G75*
G02*
X116884800Y-134996250I0J218750D01*
G01*
G37*
%TD*%
%TO.C,D16*%
G36*
G01*
X77003750Y-118770000D02*
X77516250Y-118770000D01*
G75*
G02*
X77735000Y-118988750I0J-218750D01*
G01*
X77735000Y-119426250D01*
G75*
G02*
X77516250Y-119645000I-218750J0D01*
G01*
X77003750Y-119645000D01*
G75*
G02*
X76785000Y-119426250I0J218750D01*
G01*
X76785000Y-118988750D01*
G75*
G02*
X77003750Y-118770000I218750J0D01*
G01*
G37*
G36*
G01*
X77003750Y-120345000D02*
X77516250Y-120345000D01*
G75*
G02*
X77735000Y-120563750I0J-218750D01*
G01*
X77735000Y-121001250D01*
G75*
G02*
X77516250Y-121220000I-218750J0D01*
G01*
X77003750Y-121220000D01*
G75*
G02*
X76785000Y-121001250I0J218750D01*
G01*
X76785000Y-120563750D01*
G75*
G02*
X77003750Y-120345000I218750J0D01*
G01*
G37*
%TD*%
%TO.C,D15*%
G36*
G01*
X77003750Y-111409284D02*
X77516250Y-111409284D01*
G75*
G02*
X77735000Y-111628034I0J-218750D01*
G01*
X77735000Y-112065534D01*
G75*
G02*
X77516250Y-112284284I-218750J0D01*
G01*
X77003750Y-112284284D01*
G75*
G02*
X76785000Y-112065534I0J218750D01*
G01*
X76785000Y-111628034D01*
G75*
G02*
X77003750Y-111409284I218750J0D01*
G01*
G37*
G36*
G01*
X77003750Y-112984284D02*
X77516250Y-112984284D01*
G75*
G02*
X77735000Y-113203034I0J-218750D01*
G01*
X77735000Y-113640534D01*
G75*
G02*
X77516250Y-113859284I-218750J0D01*
G01*
X77003750Y-113859284D01*
G75*
G02*
X76785000Y-113640534I0J218750D01*
G01*
X76785000Y-113203034D01*
G75*
G02*
X77003750Y-112984284I218750J0D01*
G01*
G37*
%TD*%
%TO.C,D14*%
G36*
G01*
X77003750Y-104048570D02*
X77516250Y-104048570D01*
G75*
G02*
X77735000Y-104267320I0J-218750D01*
G01*
X77735000Y-104704820D01*
G75*
G02*
X77516250Y-104923570I-218750J0D01*
G01*
X77003750Y-104923570D01*
G75*
G02*
X76785000Y-104704820I0J218750D01*
G01*
X76785000Y-104267320D01*
G75*
G02*
X77003750Y-104048570I218750J0D01*
G01*
G37*
G36*
G01*
X77003750Y-105623570D02*
X77516250Y-105623570D01*
G75*
G02*
X77735000Y-105842320I0J-218750D01*
G01*
X77735000Y-106279820D01*
G75*
G02*
X77516250Y-106498570I-218750J0D01*
G01*
X77003750Y-106498570D01*
G75*
G02*
X76785000Y-106279820I0J218750D01*
G01*
X76785000Y-105842320D01*
G75*
G02*
X77003750Y-105623570I218750J0D01*
G01*
G37*
%TD*%
%TO.C,D13*%
G36*
G01*
X77003750Y-96687856D02*
X77516250Y-96687856D01*
G75*
G02*
X77735000Y-96906606I0J-218750D01*
G01*
X77735000Y-97344106D01*
G75*
G02*
X77516250Y-97562856I-218750J0D01*
G01*
X77003750Y-97562856D01*
G75*
G02*
X76785000Y-97344106I0J218750D01*
G01*
X76785000Y-96906606D01*
G75*
G02*
X77003750Y-96687856I218750J0D01*
G01*
G37*
G36*
G01*
X77003750Y-98262856D02*
X77516250Y-98262856D01*
G75*
G02*
X77735000Y-98481606I0J-218750D01*
G01*
X77735000Y-98919106D01*
G75*
G02*
X77516250Y-99137856I-218750J0D01*
G01*
X77003750Y-99137856D01*
G75*
G02*
X76785000Y-98919106I0J218750D01*
G01*
X76785000Y-98481606D01*
G75*
G02*
X77003750Y-98262856I218750J0D01*
G01*
G37*
%TD*%
%TO.C,D12*%
G36*
G01*
X77003750Y-89327142D02*
X77516250Y-89327142D01*
G75*
G02*
X77735000Y-89545892I0J-218750D01*
G01*
X77735000Y-89983392D01*
G75*
G02*
X77516250Y-90202142I-218750J0D01*
G01*
X77003750Y-90202142D01*
G75*
G02*
X76785000Y-89983392I0J218750D01*
G01*
X76785000Y-89545892D01*
G75*
G02*
X77003750Y-89327142I218750J0D01*
G01*
G37*
G36*
G01*
X77003750Y-90902142D02*
X77516250Y-90902142D01*
G75*
G02*
X77735000Y-91120892I0J-218750D01*
G01*
X77735000Y-91558392D01*
G75*
G02*
X77516250Y-91777142I-218750J0D01*
G01*
X77003750Y-91777142D01*
G75*
G02*
X76785000Y-91558392I0J218750D01*
G01*
X76785000Y-91120892D01*
G75*
G02*
X77003750Y-90902142I218750J0D01*
G01*
G37*
%TD*%
%TO.C,D11*%
G36*
G01*
X77003750Y-81966428D02*
X77516250Y-81966428D01*
G75*
G02*
X77735000Y-82185178I0J-218750D01*
G01*
X77735000Y-82622678D01*
G75*
G02*
X77516250Y-82841428I-218750J0D01*
G01*
X77003750Y-82841428D01*
G75*
G02*
X76785000Y-82622678I0J218750D01*
G01*
X76785000Y-82185178D01*
G75*
G02*
X77003750Y-81966428I218750J0D01*
G01*
G37*
G36*
G01*
X77003750Y-83541428D02*
X77516250Y-83541428D01*
G75*
G02*
X77735000Y-83760178I0J-218750D01*
G01*
X77735000Y-84197678D01*
G75*
G02*
X77516250Y-84416428I-218750J0D01*
G01*
X77003750Y-84416428D01*
G75*
G02*
X76785000Y-84197678I0J218750D01*
G01*
X76785000Y-83760178D01*
G75*
G02*
X77003750Y-83541428I218750J0D01*
G01*
G37*
%TD*%
%TO.C,D10*%
G36*
G01*
X77003750Y-74605714D02*
X77516250Y-74605714D01*
G75*
G02*
X77735000Y-74824464I0J-218750D01*
G01*
X77735000Y-75261964D01*
G75*
G02*
X77516250Y-75480714I-218750J0D01*
G01*
X77003750Y-75480714D01*
G75*
G02*
X76785000Y-75261964I0J218750D01*
G01*
X76785000Y-74824464D01*
G75*
G02*
X77003750Y-74605714I218750J0D01*
G01*
G37*
G36*
G01*
X77003750Y-76180714D02*
X77516250Y-76180714D01*
G75*
G02*
X77735000Y-76399464I0J-218750D01*
G01*
X77735000Y-76836964D01*
G75*
G02*
X77516250Y-77055714I-218750J0D01*
G01*
X77003750Y-77055714D01*
G75*
G02*
X76785000Y-76836964I0J218750D01*
G01*
X76785000Y-76399464D01*
G75*
G02*
X77003750Y-76180714I218750J0D01*
G01*
G37*
%TD*%
%TO.C,D9*%
G36*
G01*
X77003750Y-67245000D02*
X77516250Y-67245000D01*
G75*
G02*
X77735000Y-67463750I0J-218750D01*
G01*
X77735000Y-67901250D01*
G75*
G02*
X77516250Y-68120000I-218750J0D01*
G01*
X77003750Y-68120000D01*
G75*
G02*
X76785000Y-67901250I0J218750D01*
G01*
X76785000Y-67463750D01*
G75*
G02*
X77003750Y-67245000I218750J0D01*
G01*
G37*
G36*
G01*
X77003750Y-68820000D02*
X77516250Y-68820000D01*
G75*
G02*
X77735000Y-69038750I0J-218750D01*
G01*
X77735000Y-69476250D01*
G75*
G02*
X77516250Y-69695000I-218750J0D01*
G01*
X77003750Y-69695000D01*
G75*
G02*
X76785000Y-69476250I0J218750D01*
G01*
X76785000Y-69038750D01*
G75*
G02*
X77003750Y-68820000I218750J0D01*
G01*
G37*
%TD*%
%TO.C,D4*%
G36*
G01*
X177276250Y-36245000D02*
X176763750Y-36245000D01*
G75*
G02*
X176545000Y-36026250I0J218750D01*
G01*
X176545000Y-35588750D01*
G75*
G02*
X176763750Y-35370000I218750J0D01*
G01*
X177276250Y-35370000D01*
G75*
G02*
X177495000Y-35588750I0J-218750D01*
G01*
X177495000Y-36026250D01*
G75*
G02*
X177276250Y-36245000I-218750J0D01*
G01*
G37*
G36*
G01*
X177276250Y-34670000D02*
X176763750Y-34670000D01*
G75*
G02*
X176545000Y-34451250I0J218750D01*
G01*
X176545000Y-34013750D01*
G75*
G02*
X176763750Y-33795000I218750J0D01*
G01*
X177276250Y-33795000D01*
G75*
G02*
X177495000Y-34013750I0J-218750D01*
G01*
X177495000Y-34451250D01*
G75*
G02*
X177276250Y-34670000I-218750J0D01*
G01*
G37*
%TD*%
%TO.C,D3*%
G36*
G01*
X175226250Y-137090000D02*
X174713750Y-137090000D01*
G75*
G02*
X174495000Y-136871250I0J218750D01*
G01*
X174495000Y-136433750D01*
G75*
G02*
X174713750Y-136215000I218750J0D01*
G01*
X175226250Y-136215000D01*
G75*
G02*
X175445000Y-136433750I0J-218750D01*
G01*
X175445000Y-136871250D01*
G75*
G02*
X175226250Y-137090000I-218750J0D01*
G01*
G37*
G36*
G01*
X175226250Y-135515000D02*
X174713750Y-135515000D01*
G75*
G02*
X174495000Y-135296250I0J218750D01*
G01*
X174495000Y-134858750D01*
G75*
G02*
X174713750Y-134640000I218750J0D01*
G01*
X175226250Y-134640000D01*
G75*
G02*
X175445000Y-134858750I0J-218750D01*
G01*
X175445000Y-135296250D01*
G75*
G02*
X175226250Y-135515000I-218750J0D01*
G01*
G37*
%TD*%
%TO.C,D2*%
G36*
G01*
X93501750Y-134545000D02*
X94014250Y-134545000D01*
G75*
G02*
X94233000Y-134763750I0J-218750D01*
G01*
X94233000Y-135201250D01*
G75*
G02*
X94014250Y-135420000I-218750J0D01*
G01*
X93501750Y-135420000D01*
G75*
G02*
X93283000Y-135201250I0J218750D01*
G01*
X93283000Y-134763750D01*
G75*
G02*
X93501750Y-134545000I218750J0D01*
G01*
G37*
G36*
G01*
X93501750Y-136120000D02*
X94014250Y-136120000D01*
G75*
G02*
X94233000Y-136338750I0J-218750D01*
G01*
X94233000Y-136776250D01*
G75*
G02*
X94014250Y-136995000I-218750J0D01*
G01*
X93501750Y-136995000D01*
G75*
G02*
X93283000Y-136776250I0J218750D01*
G01*
X93283000Y-136338750D01*
G75*
G02*
X93501750Y-136120000I218750J0D01*
G01*
G37*
%TD*%
%TO.C,D1*%
G36*
G01*
X76373750Y-47505000D02*
X76886250Y-47505000D01*
G75*
G02*
X77105000Y-47723750I0J-218750D01*
G01*
X77105000Y-48161250D01*
G75*
G02*
X76886250Y-48380000I-218750J0D01*
G01*
X76373750Y-48380000D01*
G75*
G02*
X76155000Y-48161250I0J218750D01*
G01*
X76155000Y-47723750D01*
G75*
G02*
X76373750Y-47505000I218750J0D01*
G01*
G37*
G36*
G01*
X76373750Y-49080000D02*
X76886250Y-49080000D01*
G75*
G02*
X77105000Y-49298750I0J-218750D01*
G01*
X77105000Y-49736250D01*
G75*
G02*
X76886250Y-49955000I-218750J0D01*
G01*
X76373750Y-49955000D01*
G75*
G02*
X76155000Y-49736250I0J218750D01*
G01*
X76155000Y-49298750D01*
G75*
G02*
X76373750Y-49080000I218750J0D01*
G01*
G37*
%TD*%
%TO.C,U8*%
G36*
G01*
X79090000Y-131775000D02*
X79090000Y-132075000D01*
G75*
G02*
X78940000Y-132225000I-150000J0D01*
G01*
X77290000Y-132225000D01*
G75*
G02*
X77140000Y-132075000I0J150000D01*
G01*
X77140000Y-131775000D01*
G75*
G02*
X77290000Y-131625000I150000J0D01*
G01*
X78940000Y-131625000D01*
G75*
G02*
X79090000Y-131775000I0J-150000D01*
G01*
G37*
G36*
G01*
X79090000Y-130505000D02*
X79090000Y-130805000D01*
G75*
G02*
X78940000Y-130955000I-150000J0D01*
G01*
X77290000Y-130955000D01*
G75*
G02*
X77140000Y-130805000I0J150000D01*
G01*
X77140000Y-130505000D01*
G75*
G02*
X77290000Y-130355000I150000J0D01*
G01*
X78940000Y-130355000D01*
G75*
G02*
X79090000Y-130505000I0J-150000D01*
G01*
G37*
G36*
G01*
X79090000Y-129235000D02*
X79090000Y-129535000D01*
G75*
G02*
X78940000Y-129685000I-150000J0D01*
G01*
X77290000Y-129685000D01*
G75*
G02*
X77140000Y-129535000I0J150000D01*
G01*
X77140000Y-129235000D01*
G75*
G02*
X77290000Y-129085000I150000J0D01*
G01*
X78940000Y-129085000D01*
G75*
G02*
X79090000Y-129235000I0J-150000D01*
G01*
G37*
G36*
G01*
X79090000Y-127965000D02*
X79090000Y-128265000D01*
G75*
G02*
X78940000Y-128415000I-150000J0D01*
G01*
X77290000Y-128415000D01*
G75*
G02*
X77140000Y-128265000I0J150000D01*
G01*
X77140000Y-127965000D01*
G75*
G02*
X77290000Y-127815000I150000J0D01*
G01*
X78940000Y-127815000D01*
G75*
G02*
X79090000Y-127965000I0J-150000D01*
G01*
G37*
G36*
G01*
X84040000Y-127965000D02*
X84040000Y-128265000D01*
G75*
G02*
X83890000Y-128415000I-150000J0D01*
G01*
X82240000Y-128415000D01*
G75*
G02*
X82090000Y-128265000I0J150000D01*
G01*
X82090000Y-127965000D01*
G75*
G02*
X82240000Y-127815000I150000J0D01*
G01*
X83890000Y-127815000D01*
G75*
G02*
X84040000Y-127965000I0J-150000D01*
G01*
G37*
G36*
G01*
X84040000Y-129235000D02*
X84040000Y-129535000D01*
G75*
G02*
X83890000Y-129685000I-150000J0D01*
G01*
X82240000Y-129685000D01*
G75*
G02*
X82090000Y-129535000I0J150000D01*
G01*
X82090000Y-129235000D01*
G75*
G02*
X82240000Y-129085000I150000J0D01*
G01*
X83890000Y-129085000D01*
G75*
G02*
X84040000Y-129235000I0J-150000D01*
G01*
G37*
G36*
G01*
X84040000Y-130505000D02*
X84040000Y-130805000D01*
G75*
G02*
X83890000Y-130955000I-150000J0D01*
G01*
X82240000Y-130955000D01*
G75*
G02*
X82090000Y-130805000I0J150000D01*
G01*
X82090000Y-130505000D01*
G75*
G02*
X82240000Y-130355000I150000J0D01*
G01*
X83890000Y-130355000D01*
G75*
G02*
X84040000Y-130505000I0J-150000D01*
G01*
G37*
G36*
G01*
X84040000Y-131775000D02*
X84040000Y-132075000D01*
G75*
G02*
X83890000Y-132225000I-150000J0D01*
G01*
X82240000Y-132225000D01*
G75*
G02*
X82090000Y-132075000I0J150000D01*
G01*
X82090000Y-131775000D01*
G75*
G02*
X82240000Y-131625000I150000J0D01*
G01*
X83890000Y-131625000D01*
G75*
G02*
X84040000Y-131775000I0J-150000D01*
G01*
G37*
%TD*%
%TO.C,U5*%
G36*
G01*
X91985000Y-52640000D02*
X91985000Y-52340000D01*
G75*
G02*
X92135000Y-52190000I150000J0D01*
G01*
X93785000Y-52190000D01*
G75*
G02*
X93935000Y-52340000I0J-150000D01*
G01*
X93935000Y-52640000D01*
G75*
G02*
X93785000Y-52790000I-150000J0D01*
G01*
X92135000Y-52790000D01*
G75*
G02*
X91985000Y-52640000I0J150000D01*
G01*
G37*
G36*
G01*
X91985000Y-53910000D02*
X91985000Y-53610000D01*
G75*
G02*
X92135000Y-53460000I150000J0D01*
G01*
X93785000Y-53460000D01*
G75*
G02*
X93935000Y-53610000I0J-150000D01*
G01*
X93935000Y-53910000D01*
G75*
G02*
X93785000Y-54060000I-150000J0D01*
G01*
X92135000Y-54060000D01*
G75*
G02*
X91985000Y-53910000I0J150000D01*
G01*
G37*
G36*
G01*
X91985000Y-55180000D02*
X91985000Y-54880000D01*
G75*
G02*
X92135000Y-54730000I150000J0D01*
G01*
X93785000Y-54730000D01*
G75*
G02*
X93935000Y-54880000I0J-150000D01*
G01*
X93935000Y-55180000D01*
G75*
G02*
X93785000Y-55330000I-150000J0D01*
G01*
X92135000Y-55330000D01*
G75*
G02*
X91985000Y-55180000I0J150000D01*
G01*
G37*
G36*
G01*
X91985000Y-56450000D02*
X91985000Y-56150000D01*
G75*
G02*
X92135000Y-56000000I150000J0D01*
G01*
X93785000Y-56000000D01*
G75*
G02*
X93935000Y-56150000I0J-150000D01*
G01*
X93935000Y-56450000D01*
G75*
G02*
X93785000Y-56600000I-150000J0D01*
G01*
X92135000Y-56600000D01*
G75*
G02*
X91985000Y-56450000I0J150000D01*
G01*
G37*
G36*
G01*
X91985000Y-57720000D02*
X91985000Y-57420000D01*
G75*
G02*
X92135000Y-57270000I150000J0D01*
G01*
X93785000Y-57270000D01*
G75*
G02*
X93935000Y-57420000I0J-150000D01*
G01*
X93935000Y-57720000D01*
G75*
G02*
X93785000Y-57870000I-150000J0D01*
G01*
X92135000Y-57870000D01*
G75*
G02*
X91985000Y-57720000I0J150000D01*
G01*
G37*
G36*
G01*
X91985000Y-58990000D02*
X91985000Y-58690000D01*
G75*
G02*
X92135000Y-58540000I150000J0D01*
G01*
X93785000Y-58540000D01*
G75*
G02*
X93935000Y-58690000I0J-150000D01*
G01*
X93935000Y-58990000D01*
G75*
G02*
X93785000Y-59140000I-150000J0D01*
G01*
X92135000Y-59140000D01*
G75*
G02*
X91985000Y-58990000I0J150000D01*
G01*
G37*
G36*
G01*
X91985000Y-60260000D02*
X91985000Y-59960000D01*
G75*
G02*
X92135000Y-59810000I150000J0D01*
G01*
X93785000Y-59810000D01*
G75*
G02*
X93935000Y-59960000I0J-150000D01*
G01*
X93935000Y-60260000D01*
G75*
G02*
X93785000Y-60410000I-150000J0D01*
G01*
X92135000Y-60410000D01*
G75*
G02*
X91985000Y-60260000I0J150000D01*
G01*
G37*
G36*
G01*
X91985000Y-61530000D02*
X91985000Y-61230000D01*
G75*
G02*
X92135000Y-61080000I150000J0D01*
G01*
X93785000Y-61080000D01*
G75*
G02*
X93935000Y-61230000I0J-150000D01*
G01*
X93935000Y-61530000D01*
G75*
G02*
X93785000Y-61680000I-150000J0D01*
G01*
X92135000Y-61680000D01*
G75*
G02*
X91985000Y-61530000I0J150000D01*
G01*
G37*
G36*
G01*
X87035000Y-61530000D02*
X87035000Y-61230000D01*
G75*
G02*
X87185000Y-61080000I150000J0D01*
G01*
X88835000Y-61080000D01*
G75*
G02*
X88985000Y-61230000I0J-150000D01*
G01*
X88985000Y-61530000D01*
G75*
G02*
X88835000Y-61680000I-150000J0D01*
G01*
X87185000Y-61680000D01*
G75*
G02*
X87035000Y-61530000I0J150000D01*
G01*
G37*
G36*
G01*
X87035000Y-60260000D02*
X87035000Y-59960000D01*
G75*
G02*
X87185000Y-59810000I150000J0D01*
G01*
X88835000Y-59810000D01*
G75*
G02*
X88985000Y-59960000I0J-150000D01*
G01*
X88985000Y-60260000D01*
G75*
G02*
X88835000Y-60410000I-150000J0D01*
G01*
X87185000Y-60410000D01*
G75*
G02*
X87035000Y-60260000I0J150000D01*
G01*
G37*
G36*
G01*
X87035000Y-58990000D02*
X87035000Y-58690000D01*
G75*
G02*
X87185000Y-58540000I150000J0D01*
G01*
X88835000Y-58540000D01*
G75*
G02*
X88985000Y-58690000I0J-150000D01*
G01*
X88985000Y-58990000D01*
G75*
G02*
X88835000Y-59140000I-150000J0D01*
G01*
X87185000Y-59140000D01*
G75*
G02*
X87035000Y-58990000I0J150000D01*
G01*
G37*
G36*
G01*
X87035000Y-57720000D02*
X87035000Y-57420000D01*
G75*
G02*
X87185000Y-57270000I150000J0D01*
G01*
X88835000Y-57270000D01*
G75*
G02*
X88985000Y-57420000I0J-150000D01*
G01*
X88985000Y-57720000D01*
G75*
G02*
X88835000Y-57870000I-150000J0D01*
G01*
X87185000Y-57870000D01*
G75*
G02*
X87035000Y-57720000I0J150000D01*
G01*
G37*
G36*
G01*
X87035000Y-56450000D02*
X87035000Y-56150000D01*
G75*
G02*
X87185000Y-56000000I150000J0D01*
G01*
X88835000Y-56000000D01*
G75*
G02*
X88985000Y-56150000I0J-150000D01*
G01*
X88985000Y-56450000D01*
G75*
G02*
X88835000Y-56600000I-150000J0D01*
G01*
X87185000Y-56600000D01*
G75*
G02*
X87035000Y-56450000I0J150000D01*
G01*
G37*
G36*
G01*
X87035000Y-55180000D02*
X87035000Y-54880000D01*
G75*
G02*
X87185000Y-54730000I150000J0D01*
G01*
X88835000Y-54730000D01*
G75*
G02*
X88985000Y-54880000I0J-150000D01*
G01*
X88985000Y-55180000D01*
G75*
G02*
X88835000Y-55330000I-150000J0D01*
G01*
X87185000Y-55330000D01*
G75*
G02*
X87035000Y-55180000I0J150000D01*
G01*
G37*
G36*
G01*
X87035000Y-53910000D02*
X87035000Y-53610000D01*
G75*
G02*
X87185000Y-53460000I150000J0D01*
G01*
X88835000Y-53460000D01*
G75*
G02*
X88985000Y-53610000I0J-150000D01*
G01*
X88985000Y-53910000D01*
G75*
G02*
X88835000Y-54060000I-150000J0D01*
G01*
X87185000Y-54060000D01*
G75*
G02*
X87035000Y-53910000I0J150000D01*
G01*
G37*
G36*
G01*
X87035000Y-52640000D02*
X87035000Y-52340000D01*
G75*
G02*
X87185000Y-52190000I150000J0D01*
G01*
X88835000Y-52190000D01*
G75*
G02*
X88985000Y-52340000I0J-150000D01*
G01*
X88985000Y-52640000D01*
G75*
G02*
X88835000Y-52790000I-150000J0D01*
G01*
X87185000Y-52790000D01*
G75*
G02*
X87035000Y-52640000I0J150000D01*
G01*
G37*
%TD*%
%TO.C,U3*%
G36*
G01*
X151410000Y-74295000D02*
X151410000Y-73995000D01*
G75*
G02*
X151560000Y-73845000I150000J0D01*
G01*
X153210000Y-73845000D01*
G75*
G02*
X153360000Y-73995000I0J-150000D01*
G01*
X153360000Y-74295000D01*
G75*
G02*
X153210000Y-74445000I-150000J0D01*
G01*
X151560000Y-74445000D01*
G75*
G02*
X151410000Y-74295000I0J150000D01*
G01*
G37*
G36*
G01*
X151410000Y-75565000D02*
X151410000Y-75265000D01*
G75*
G02*
X151560000Y-75115000I150000J0D01*
G01*
X153210000Y-75115000D01*
G75*
G02*
X153360000Y-75265000I0J-150000D01*
G01*
X153360000Y-75565000D01*
G75*
G02*
X153210000Y-75715000I-150000J0D01*
G01*
X151560000Y-75715000D01*
G75*
G02*
X151410000Y-75565000I0J150000D01*
G01*
G37*
G36*
G01*
X151410000Y-76835000D02*
X151410000Y-76535000D01*
G75*
G02*
X151560000Y-76385000I150000J0D01*
G01*
X153210000Y-76385000D01*
G75*
G02*
X153360000Y-76535000I0J-150000D01*
G01*
X153360000Y-76835000D01*
G75*
G02*
X153210000Y-76985000I-150000J0D01*
G01*
X151560000Y-76985000D01*
G75*
G02*
X151410000Y-76835000I0J150000D01*
G01*
G37*
G36*
G01*
X151410000Y-78105000D02*
X151410000Y-77805000D01*
G75*
G02*
X151560000Y-77655000I150000J0D01*
G01*
X153210000Y-77655000D01*
G75*
G02*
X153360000Y-77805000I0J-150000D01*
G01*
X153360000Y-78105000D01*
G75*
G02*
X153210000Y-78255000I-150000J0D01*
G01*
X151560000Y-78255000D01*
G75*
G02*
X151410000Y-78105000I0J150000D01*
G01*
G37*
G36*
G01*
X151410000Y-79375000D02*
X151410000Y-79075000D01*
G75*
G02*
X151560000Y-78925000I150000J0D01*
G01*
X153210000Y-78925000D01*
G75*
G02*
X153360000Y-79075000I0J-150000D01*
G01*
X153360000Y-79375000D01*
G75*
G02*
X153210000Y-79525000I-150000J0D01*
G01*
X151560000Y-79525000D01*
G75*
G02*
X151410000Y-79375000I0J150000D01*
G01*
G37*
G36*
G01*
X151410000Y-80645000D02*
X151410000Y-80345000D01*
G75*
G02*
X151560000Y-80195000I150000J0D01*
G01*
X153210000Y-80195000D01*
G75*
G02*
X153360000Y-80345000I0J-150000D01*
G01*
X153360000Y-80645000D01*
G75*
G02*
X153210000Y-80795000I-150000J0D01*
G01*
X151560000Y-80795000D01*
G75*
G02*
X151410000Y-80645000I0J150000D01*
G01*
G37*
G36*
G01*
X151410000Y-81915000D02*
X151410000Y-81615000D01*
G75*
G02*
X151560000Y-81465000I150000J0D01*
G01*
X153210000Y-81465000D01*
G75*
G02*
X153360000Y-81615000I0J-150000D01*
G01*
X153360000Y-81915000D01*
G75*
G02*
X153210000Y-82065000I-150000J0D01*
G01*
X151560000Y-82065000D01*
G75*
G02*
X151410000Y-81915000I0J150000D01*
G01*
G37*
G36*
G01*
X151410000Y-83185000D02*
X151410000Y-82885000D01*
G75*
G02*
X151560000Y-82735000I150000J0D01*
G01*
X153210000Y-82735000D01*
G75*
G02*
X153360000Y-82885000I0J-150000D01*
G01*
X153360000Y-83185000D01*
G75*
G02*
X153210000Y-83335000I-150000J0D01*
G01*
X151560000Y-83335000D01*
G75*
G02*
X151410000Y-83185000I0J150000D01*
G01*
G37*
G36*
G01*
X146460000Y-83185000D02*
X146460000Y-82885000D01*
G75*
G02*
X146610000Y-82735000I150000J0D01*
G01*
X148260000Y-82735000D01*
G75*
G02*
X148410000Y-82885000I0J-150000D01*
G01*
X148410000Y-83185000D01*
G75*
G02*
X148260000Y-83335000I-150000J0D01*
G01*
X146610000Y-83335000D01*
G75*
G02*
X146460000Y-83185000I0J150000D01*
G01*
G37*
G36*
G01*
X146460000Y-81915000D02*
X146460000Y-81615000D01*
G75*
G02*
X146610000Y-81465000I150000J0D01*
G01*
X148260000Y-81465000D01*
G75*
G02*
X148410000Y-81615000I0J-150000D01*
G01*
X148410000Y-81915000D01*
G75*
G02*
X148260000Y-82065000I-150000J0D01*
G01*
X146610000Y-82065000D01*
G75*
G02*
X146460000Y-81915000I0J150000D01*
G01*
G37*
G36*
G01*
X146460000Y-80645000D02*
X146460000Y-80345000D01*
G75*
G02*
X146610000Y-80195000I150000J0D01*
G01*
X148260000Y-80195000D01*
G75*
G02*
X148410000Y-80345000I0J-150000D01*
G01*
X148410000Y-80645000D01*
G75*
G02*
X148260000Y-80795000I-150000J0D01*
G01*
X146610000Y-80795000D01*
G75*
G02*
X146460000Y-80645000I0J150000D01*
G01*
G37*
G36*
G01*
X146460000Y-79375000D02*
X146460000Y-79075000D01*
G75*
G02*
X146610000Y-78925000I150000J0D01*
G01*
X148260000Y-78925000D01*
G75*
G02*
X148410000Y-79075000I0J-150000D01*
G01*
X148410000Y-79375000D01*
G75*
G02*
X148260000Y-79525000I-150000J0D01*
G01*
X146610000Y-79525000D01*
G75*
G02*
X146460000Y-79375000I0J150000D01*
G01*
G37*
G36*
G01*
X146460000Y-78105000D02*
X146460000Y-77805000D01*
G75*
G02*
X146610000Y-77655000I150000J0D01*
G01*
X148260000Y-77655000D01*
G75*
G02*
X148410000Y-77805000I0J-150000D01*
G01*
X148410000Y-78105000D01*
G75*
G02*
X148260000Y-78255000I-150000J0D01*
G01*
X146610000Y-78255000D01*
G75*
G02*
X146460000Y-78105000I0J150000D01*
G01*
G37*
G36*
G01*
X146460000Y-76835000D02*
X146460000Y-76535000D01*
G75*
G02*
X146610000Y-76385000I150000J0D01*
G01*
X148260000Y-76385000D01*
G75*
G02*
X148410000Y-76535000I0J-150000D01*
G01*
X148410000Y-76835000D01*
G75*
G02*
X148260000Y-76985000I-150000J0D01*
G01*
X146610000Y-76985000D01*
G75*
G02*
X146460000Y-76835000I0J150000D01*
G01*
G37*
G36*
G01*
X146460000Y-75565000D02*
X146460000Y-75265000D01*
G75*
G02*
X146610000Y-75115000I150000J0D01*
G01*
X148260000Y-75115000D01*
G75*
G02*
X148410000Y-75265000I0J-150000D01*
G01*
X148410000Y-75565000D01*
G75*
G02*
X148260000Y-75715000I-150000J0D01*
G01*
X146610000Y-75715000D01*
G75*
G02*
X146460000Y-75565000I0J150000D01*
G01*
G37*
G36*
G01*
X146460000Y-74295000D02*
X146460000Y-73995000D01*
G75*
G02*
X146610000Y-73845000I150000J0D01*
G01*
X148260000Y-73845000D01*
G75*
G02*
X148410000Y-73995000I0J-150000D01*
G01*
X148410000Y-74295000D01*
G75*
G02*
X148260000Y-74445000I-150000J0D01*
G01*
X146610000Y-74445000D01*
G75*
G02*
X146460000Y-74295000I0J150000D01*
G01*
G37*
%TD*%
%TO.C,U17*%
G36*
G01*
X225785000Y-85725000D02*
X225785000Y-85425000D01*
G75*
G02*
X225935000Y-85275000I150000J0D01*
G01*
X227685000Y-85275000D01*
G75*
G02*
X227835000Y-85425000I0J-150000D01*
G01*
X227835000Y-85725000D01*
G75*
G02*
X227685000Y-85875000I-150000J0D01*
G01*
X225935000Y-85875000D01*
G75*
G02*
X225785000Y-85725000I0J150000D01*
G01*
G37*
G36*
G01*
X225785000Y-86995000D02*
X225785000Y-86695000D01*
G75*
G02*
X225935000Y-86545000I150000J0D01*
G01*
X227685000Y-86545000D01*
G75*
G02*
X227835000Y-86695000I0J-150000D01*
G01*
X227835000Y-86995000D01*
G75*
G02*
X227685000Y-87145000I-150000J0D01*
G01*
X225935000Y-87145000D01*
G75*
G02*
X225785000Y-86995000I0J150000D01*
G01*
G37*
G36*
G01*
X225785000Y-88265000D02*
X225785000Y-87965000D01*
G75*
G02*
X225935000Y-87815000I150000J0D01*
G01*
X227685000Y-87815000D01*
G75*
G02*
X227835000Y-87965000I0J-150000D01*
G01*
X227835000Y-88265000D01*
G75*
G02*
X227685000Y-88415000I-150000J0D01*
G01*
X225935000Y-88415000D01*
G75*
G02*
X225785000Y-88265000I0J150000D01*
G01*
G37*
G36*
G01*
X225785000Y-89535000D02*
X225785000Y-89235000D01*
G75*
G02*
X225935000Y-89085000I150000J0D01*
G01*
X227685000Y-89085000D01*
G75*
G02*
X227835000Y-89235000I0J-150000D01*
G01*
X227835000Y-89535000D01*
G75*
G02*
X227685000Y-89685000I-150000J0D01*
G01*
X225935000Y-89685000D01*
G75*
G02*
X225785000Y-89535000I0J150000D01*
G01*
G37*
G36*
G01*
X225785000Y-90805000D02*
X225785000Y-90505000D01*
G75*
G02*
X225935000Y-90355000I150000J0D01*
G01*
X227685000Y-90355000D01*
G75*
G02*
X227835000Y-90505000I0J-150000D01*
G01*
X227835000Y-90805000D01*
G75*
G02*
X227685000Y-90955000I-150000J0D01*
G01*
X225935000Y-90955000D01*
G75*
G02*
X225785000Y-90805000I0J150000D01*
G01*
G37*
G36*
G01*
X225785000Y-92075000D02*
X225785000Y-91775000D01*
G75*
G02*
X225935000Y-91625000I150000J0D01*
G01*
X227685000Y-91625000D01*
G75*
G02*
X227835000Y-91775000I0J-150000D01*
G01*
X227835000Y-92075000D01*
G75*
G02*
X227685000Y-92225000I-150000J0D01*
G01*
X225935000Y-92225000D01*
G75*
G02*
X225785000Y-92075000I0J150000D01*
G01*
G37*
G36*
G01*
X225785000Y-93345000D02*
X225785000Y-93045000D01*
G75*
G02*
X225935000Y-92895000I150000J0D01*
G01*
X227685000Y-92895000D01*
G75*
G02*
X227835000Y-93045000I0J-150000D01*
G01*
X227835000Y-93345000D01*
G75*
G02*
X227685000Y-93495000I-150000J0D01*
G01*
X225935000Y-93495000D01*
G75*
G02*
X225785000Y-93345000I0J150000D01*
G01*
G37*
G36*
G01*
X225785000Y-94615000D02*
X225785000Y-94315000D01*
G75*
G02*
X225935000Y-94165000I150000J0D01*
G01*
X227685000Y-94165000D01*
G75*
G02*
X227835000Y-94315000I0J-150000D01*
G01*
X227835000Y-94615000D01*
G75*
G02*
X227685000Y-94765000I-150000J0D01*
G01*
X225935000Y-94765000D01*
G75*
G02*
X225785000Y-94615000I0J150000D01*
G01*
G37*
G36*
G01*
X225785000Y-95885000D02*
X225785000Y-95585000D01*
G75*
G02*
X225935000Y-95435000I150000J0D01*
G01*
X227685000Y-95435000D01*
G75*
G02*
X227835000Y-95585000I0J-150000D01*
G01*
X227835000Y-95885000D01*
G75*
G02*
X227685000Y-96035000I-150000J0D01*
G01*
X225935000Y-96035000D01*
G75*
G02*
X225785000Y-95885000I0J150000D01*
G01*
G37*
G36*
G01*
X225785000Y-97155000D02*
X225785000Y-96855000D01*
G75*
G02*
X225935000Y-96705000I150000J0D01*
G01*
X227685000Y-96705000D01*
G75*
G02*
X227835000Y-96855000I0J-150000D01*
G01*
X227835000Y-97155000D01*
G75*
G02*
X227685000Y-97305000I-150000J0D01*
G01*
X225935000Y-97305000D01*
G75*
G02*
X225785000Y-97155000I0J150000D01*
G01*
G37*
G36*
G01*
X216485000Y-97155000D02*
X216485000Y-96855000D01*
G75*
G02*
X216635000Y-96705000I150000J0D01*
G01*
X218385000Y-96705000D01*
G75*
G02*
X218535000Y-96855000I0J-150000D01*
G01*
X218535000Y-97155000D01*
G75*
G02*
X218385000Y-97305000I-150000J0D01*
G01*
X216635000Y-97305000D01*
G75*
G02*
X216485000Y-97155000I0J150000D01*
G01*
G37*
G36*
G01*
X216485000Y-95885000D02*
X216485000Y-95585000D01*
G75*
G02*
X216635000Y-95435000I150000J0D01*
G01*
X218385000Y-95435000D01*
G75*
G02*
X218535000Y-95585000I0J-150000D01*
G01*
X218535000Y-95885000D01*
G75*
G02*
X218385000Y-96035000I-150000J0D01*
G01*
X216635000Y-96035000D01*
G75*
G02*
X216485000Y-95885000I0J150000D01*
G01*
G37*
G36*
G01*
X216485000Y-94615000D02*
X216485000Y-94315000D01*
G75*
G02*
X216635000Y-94165000I150000J0D01*
G01*
X218385000Y-94165000D01*
G75*
G02*
X218535000Y-94315000I0J-150000D01*
G01*
X218535000Y-94615000D01*
G75*
G02*
X218385000Y-94765000I-150000J0D01*
G01*
X216635000Y-94765000D01*
G75*
G02*
X216485000Y-94615000I0J150000D01*
G01*
G37*
G36*
G01*
X216485000Y-93345000D02*
X216485000Y-93045000D01*
G75*
G02*
X216635000Y-92895000I150000J0D01*
G01*
X218385000Y-92895000D01*
G75*
G02*
X218535000Y-93045000I0J-150000D01*
G01*
X218535000Y-93345000D01*
G75*
G02*
X218385000Y-93495000I-150000J0D01*
G01*
X216635000Y-93495000D01*
G75*
G02*
X216485000Y-93345000I0J150000D01*
G01*
G37*
G36*
G01*
X216485000Y-92075000D02*
X216485000Y-91775000D01*
G75*
G02*
X216635000Y-91625000I150000J0D01*
G01*
X218385000Y-91625000D01*
G75*
G02*
X218535000Y-91775000I0J-150000D01*
G01*
X218535000Y-92075000D01*
G75*
G02*
X218385000Y-92225000I-150000J0D01*
G01*
X216635000Y-92225000D01*
G75*
G02*
X216485000Y-92075000I0J150000D01*
G01*
G37*
G36*
G01*
X216485000Y-90805000D02*
X216485000Y-90505000D01*
G75*
G02*
X216635000Y-90355000I150000J0D01*
G01*
X218385000Y-90355000D01*
G75*
G02*
X218535000Y-90505000I0J-150000D01*
G01*
X218535000Y-90805000D01*
G75*
G02*
X218385000Y-90955000I-150000J0D01*
G01*
X216635000Y-90955000D01*
G75*
G02*
X216485000Y-90805000I0J150000D01*
G01*
G37*
G36*
G01*
X216485000Y-89535000D02*
X216485000Y-89235000D01*
G75*
G02*
X216635000Y-89085000I150000J0D01*
G01*
X218385000Y-89085000D01*
G75*
G02*
X218535000Y-89235000I0J-150000D01*
G01*
X218535000Y-89535000D01*
G75*
G02*
X218385000Y-89685000I-150000J0D01*
G01*
X216635000Y-89685000D01*
G75*
G02*
X216485000Y-89535000I0J150000D01*
G01*
G37*
G36*
G01*
X216485000Y-88265000D02*
X216485000Y-87965000D01*
G75*
G02*
X216635000Y-87815000I150000J0D01*
G01*
X218385000Y-87815000D01*
G75*
G02*
X218535000Y-87965000I0J-150000D01*
G01*
X218535000Y-88265000D01*
G75*
G02*
X218385000Y-88415000I-150000J0D01*
G01*
X216635000Y-88415000D01*
G75*
G02*
X216485000Y-88265000I0J150000D01*
G01*
G37*
G36*
G01*
X216485000Y-86995000D02*
X216485000Y-86695000D01*
G75*
G02*
X216635000Y-86545000I150000J0D01*
G01*
X218385000Y-86545000D01*
G75*
G02*
X218535000Y-86695000I0J-150000D01*
G01*
X218535000Y-86995000D01*
G75*
G02*
X218385000Y-87145000I-150000J0D01*
G01*
X216635000Y-87145000D01*
G75*
G02*
X216485000Y-86995000I0J150000D01*
G01*
G37*
G36*
G01*
X216485000Y-85725000D02*
X216485000Y-85425000D01*
G75*
G02*
X216635000Y-85275000I150000J0D01*
G01*
X218385000Y-85275000D01*
G75*
G02*
X218535000Y-85425000I0J-150000D01*
G01*
X218535000Y-85725000D01*
G75*
G02*
X218385000Y-85875000I-150000J0D01*
G01*
X216635000Y-85875000D01*
G75*
G02*
X216485000Y-85725000I0J150000D01*
G01*
G37*
%TD*%
%TO.C,U9*%
G36*
G01*
X121139000Y-98139000D02*
X121139000Y-98439000D01*
G75*
G02*
X120989000Y-98589000I-150000J0D01*
G01*
X119239000Y-98589000D01*
G75*
G02*
X119089000Y-98439000I0J150000D01*
G01*
X119089000Y-98139000D01*
G75*
G02*
X119239000Y-97989000I150000J0D01*
G01*
X120989000Y-97989000D01*
G75*
G02*
X121139000Y-98139000I0J-150000D01*
G01*
G37*
G36*
G01*
X121139000Y-96869000D02*
X121139000Y-97169000D01*
G75*
G02*
X120989000Y-97319000I-150000J0D01*
G01*
X119239000Y-97319000D01*
G75*
G02*
X119089000Y-97169000I0J150000D01*
G01*
X119089000Y-96869000D01*
G75*
G02*
X119239000Y-96719000I150000J0D01*
G01*
X120989000Y-96719000D01*
G75*
G02*
X121139000Y-96869000I0J-150000D01*
G01*
G37*
G36*
G01*
X121139000Y-95599000D02*
X121139000Y-95899000D01*
G75*
G02*
X120989000Y-96049000I-150000J0D01*
G01*
X119239000Y-96049000D01*
G75*
G02*
X119089000Y-95899000I0J150000D01*
G01*
X119089000Y-95599000D01*
G75*
G02*
X119239000Y-95449000I150000J0D01*
G01*
X120989000Y-95449000D01*
G75*
G02*
X121139000Y-95599000I0J-150000D01*
G01*
G37*
G36*
G01*
X121139000Y-94329000D02*
X121139000Y-94629000D01*
G75*
G02*
X120989000Y-94779000I-150000J0D01*
G01*
X119239000Y-94779000D01*
G75*
G02*
X119089000Y-94629000I0J150000D01*
G01*
X119089000Y-94329000D01*
G75*
G02*
X119239000Y-94179000I150000J0D01*
G01*
X120989000Y-94179000D01*
G75*
G02*
X121139000Y-94329000I0J-150000D01*
G01*
G37*
G36*
G01*
X121139000Y-93059000D02*
X121139000Y-93359000D01*
G75*
G02*
X120989000Y-93509000I-150000J0D01*
G01*
X119239000Y-93509000D01*
G75*
G02*
X119089000Y-93359000I0J150000D01*
G01*
X119089000Y-93059000D01*
G75*
G02*
X119239000Y-92909000I150000J0D01*
G01*
X120989000Y-92909000D01*
G75*
G02*
X121139000Y-93059000I0J-150000D01*
G01*
G37*
G36*
G01*
X121139000Y-91789000D02*
X121139000Y-92089000D01*
G75*
G02*
X120989000Y-92239000I-150000J0D01*
G01*
X119239000Y-92239000D01*
G75*
G02*
X119089000Y-92089000I0J150000D01*
G01*
X119089000Y-91789000D01*
G75*
G02*
X119239000Y-91639000I150000J0D01*
G01*
X120989000Y-91639000D01*
G75*
G02*
X121139000Y-91789000I0J-150000D01*
G01*
G37*
G36*
G01*
X121139000Y-90519000D02*
X121139000Y-90819000D01*
G75*
G02*
X120989000Y-90969000I-150000J0D01*
G01*
X119239000Y-90969000D01*
G75*
G02*
X119089000Y-90819000I0J150000D01*
G01*
X119089000Y-90519000D01*
G75*
G02*
X119239000Y-90369000I150000J0D01*
G01*
X120989000Y-90369000D01*
G75*
G02*
X121139000Y-90519000I0J-150000D01*
G01*
G37*
G36*
G01*
X121139000Y-89249000D02*
X121139000Y-89549000D01*
G75*
G02*
X120989000Y-89699000I-150000J0D01*
G01*
X119239000Y-89699000D01*
G75*
G02*
X119089000Y-89549000I0J150000D01*
G01*
X119089000Y-89249000D01*
G75*
G02*
X119239000Y-89099000I150000J0D01*
G01*
X120989000Y-89099000D01*
G75*
G02*
X121139000Y-89249000I0J-150000D01*
G01*
G37*
G36*
G01*
X121139000Y-87979000D02*
X121139000Y-88279000D01*
G75*
G02*
X120989000Y-88429000I-150000J0D01*
G01*
X119239000Y-88429000D01*
G75*
G02*
X119089000Y-88279000I0J150000D01*
G01*
X119089000Y-87979000D01*
G75*
G02*
X119239000Y-87829000I150000J0D01*
G01*
X120989000Y-87829000D01*
G75*
G02*
X121139000Y-87979000I0J-150000D01*
G01*
G37*
G36*
G01*
X121139000Y-86709000D02*
X121139000Y-87009000D01*
G75*
G02*
X120989000Y-87159000I-150000J0D01*
G01*
X119239000Y-87159000D01*
G75*
G02*
X119089000Y-87009000I0J150000D01*
G01*
X119089000Y-86709000D01*
G75*
G02*
X119239000Y-86559000I150000J0D01*
G01*
X120989000Y-86559000D01*
G75*
G02*
X121139000Y-86709000I0J-150000D01*
G01*
G37*
G36*
G01*
X130439000Y-86709000D02*
X130439000Y-87009000D01*
G75*
G02*
X130289000Y-87159000I-150000J0D01*
G01*
X128539000Y-87159000D01*
G75*
G02*
X128389000Y-87009000I0J150000D01*
G01*
X128389000Y-86709000D01*
G75*
G02*
X128539000Y-86559000I150000J0D01*
G01*
X130289000Y-86559000D01*
G75*
G02*
X130439000Y-86709000I0J-150000D01*
G01*
G37*
G36*
G01*
X130439000Y-87979000D02*
X130439000Y-88279000D01*
G75*
G02*
X130289000Y-88429000I-150000J0D01*
G01*
X128539000Y-88429000D01*
G75*
G02*
X128389000Y-88279000I0J150000D01*
G01*
X128389000Y-87979000D01*
G75*
G02*
X128539000Y-87829000I150000J0D01*
G01*
X130289000Y-87829000D01*
G75*
G02*
X130439000Y-87979000I0J-150000D01*
G01*
G37*
G36*
G01*
X130439000Y-89249000D02*
X130439000Y-89549000D01*
G75*
G02*
X130289000Y-89699000I-150000J0D01*
G01*
X128539000Y-89699000D01*
G75*
G02*
X128389000Y-89549000I0J150000D01*
G01*
X128389000Y-89249000D01*
G75*
G02*
X128539000Y-89099000I150000J0D01*
G01*
X130289000Y-89099000D01*
G75*
G02*
X130439000Y-89249000I0J-150000D01*
G01*
G37*
G36*
G01*
X130439000Y-90519000D02*
X130439000Y-90819000D01*
G75*
G02*
X130289000Y-90969000I-150000J0D01*
G01*
X128539000Y-90969000D01*
G75*
G02*
X128389000Y-90819000I0J150000D01*
G01*
X128389000Y-90519000D01*
G75*
G02*
X128539000Y-90369000I150000J0D01*
G01*
X130289000Y-90369000D01*
G75*
G02*
X130439000Y-90519000I0J-150000D01*
G01*
G37*
G36*
G01*
X130439000Y-91789000D02*
X130439000Y-92089000D01*
G75*
G02*
X130289000Y-92239000I-150000J0D01*
G01*
X128539000Y-92239000D01*
G75*
G02*
X128389000Y-92089000I0J150000D01*
G01*
X128389000Y-91789000D01*
G75*
G02*
X128539000Y-91639000I150000J0D01*
G01*
X130289000Y-91639000D01*
G75*
G02*
X130439000Y-91789000I0J-150000D01*
G01*
G37*
G36*
G01*
X130439000Y-93059000D02*
X130439000Y-93359000D01*
G75*
G02*
X130289000Y-93509000I-150000J0D01*
G01*
X128539000Y-93509000D01*
G75*
G02*
X128389000Y-93359000I0J150000D01*
G01*
X128389000Y-93059000D01*
G75*
G02*
X128539000Y-92909000I150000J0D01*
G01*
X130289000Y-92909000D01*
G75*
G02*
X130439000Y-93059000I0J-150000D01*
G01*
G37*
G36*
G01*
X130439000Y-94329000D02*
X130439000Y-94629000D01*
G75*
G02*
X130289000Y-94779000I-150000J0D01*
G01*
X128539000Y-94779000D01*
G75*
G02*
X128389000Y-94629000I0J150000D01*
G01*
X128389000Y-94329000D01*
G75*
G02*
X128539000Y-94179000I150000J0D01*
G01*
X130289000Y-94179000D01*
G75*
G02*
X130439000Y-94329000I0J-150000D01*
G01*
G37*
G36*
G01*
X130439000Y-95599000D02*
X130439000Y-95899000D01*
G75*
G02*
X130289000Y-96049000I-150000J0D01*
G01*
X128539000Y-96049000D01*
G75*
G02*
X128389000Y-95899000I0J150000D01*
G01*
X128389000Y-95599000D01*
G75*
G02*
X128539000Y-95449000I150000J0D01*
G01*
X130289000Y-95449000D01*
G75*
G02*
X130439000Y-95599000I0J-150000D01*
G01*
G37*
G36*
G01*
X130439000Y-96869000D02*
X130439000Y-97169000D01*
G75*
G02*
X130289000Y-97319000I-150000J0D01*
G01*
X128539000Y-97319000D01*
G75*
G02*
X128389000Y-97169000I0J150000D01*
G01*
X128389000Y-96869000D01*
G75*
G02*
X128539000Y-96719000I150000J0D01*
G01*
X130289000Y-96719000D01*
G75*
G02*
X130439000Y-96869000I0J-150000D01*
G01*
G37*
G36*
G01*
X130439000Y-98139000D02*
X130439000Y-98439000D01*
G75*
G02*
X130289000Y-98589000I-150000J0D01*
G01*
X128539000Y-98589000D01*
G75*
G02*
X128389000Y-98439000I0J150000D01*
G01*
X128389000Y-98139000D01*
G75*
G02*
X128539000Y-97989000I150000J0D01*
G01*
X130289000Y-97989000D01*
G75*
G02*
X130439000Y-98139000I0J-150000D01*
G01*
G37*
%TD*%
%TO.C,U7*%
G36*
G01*
X126110000Y-52665000D02*
X126110000Y-52365000D01*
G75*
G02*
X126260000Y-52215000I150000J0D01*
G01*
X127910000Y-52215000D01*
G75*
G02*
X128060000Y-52365000I0J-150000D01*
G01*
X128060000Y-52665000D01*
G75*
G02*
X127910000Y-52815000I-150000J0D01*
G01*
X126260000Y-52815000D01*
G75*
G02*
X126110000Y-52665000I0J150000D01*
G01*
G37*
G36*
G01*
X126110000Y-53935000D02*
X126110000Y-53635000D01*
G75*
G02*
X126260000Y-53485000I150000J0D01*
G01*
X127910000Y-53485000D01*
G75*
G02*
X128060000Y-53635000I0J-150000D01*
G01*
X128060000Y-53935000D01*
G75*
G02*
X127910000Y-54085000I-150000J0D01*
G01*
X126260000Y-54085000D01*
G75*
G02*
X126110000Y-53935000I0J150000D01*
G01*
G37*
G36*
G01*
X126110000Y-55205000D02*
X126110000Y-54905000D01*
G75*
G02*
X126260000Y-54755000I150000J0D01*
G01*
X127910000Y-54755000D01*
G75*
G02*
X128060000Y-54905000I0J-150000D01*
G01*
X128060000Y-55205000D01*
G75*
G02*
X127910000Y-55355000I-150000J0D01*
G01*
X126260000Y-55355000D01*
G75*
G02*
X126110000Y-55205000I0J150000D01*
G01*
G37*
G36*
G01*
X126110000Y-56475000D02*
X126110000Y-56175000D01*
G75*
G02*
X126260000Y-56025000I150000J0D01*
G01*
X127910000Y-56025000D01*
G75*
G02*
X128060000Y-56175000I0J-150000D01*
G01*
X128060000Y-56475000D01*
G75*
G02*
X127910000Y-56625000I-150000J0D01*
G01*
X126260000Y-56625000D01*
G75*
G02*
X126110000Y-56475000I0J150000D01*
G01*
G37*
G36*
G01*
X126110000Y-57745000D02*
X126110000Y-57445000D01*
G75*
G02*
X126260000Y-57295000I150000J0D01*
G01*
X127910000Y-57295000D01*
G75*
G02*
X128060000Y-57445000I0J-150000D01*
G01*
X128060000Y-57745000D01*
G75*
G02*
X127910000Y-57895000I-150000J0D01*
G01*
X126260000Y-57895000D01*
G75*
G02*
X126110000Y-57745000I0J150000D01*
G01*
G37*
G36*
G01*
X126110000Y-59015000D02*
X126110000Y-58715000D01*
G75*
G02*
X126260000Y-58565000I150000J0D01*
G01*
X127910000Y-58565000D01*
G75*
G02*
X128060000Y-58715000I0J-150000D01*
G01*
X128060000Y-59015000D01*
G75*
G02*
X127910000Y-59165000I-150000J0D01*
G01*
X126260000Y-59165000D01*
G75*
G02*
X126110000Y-59015000I0J150000D01*
G01*
G37*
G36*
G01*
X126110000Y-60285000D02*
X126110000Y-59985000D01*
G75*
G02*
X126260000Y-59835000I150000J0D01*
G01*
X127910000Y-59835000D01*
G75*
G02*
X128060000Y-59985000I0J-150000D01*
G01*
X128060000Y-60285000D01*
G75*
G02*
X127910000Y-60435000I-150000J0D01*
G01*
X126260000Y-60435000D01*
G75*
G02*
X126110000Y-60285000I0J150000D01*
G01*
G37*
G36*
G01*
X126110000Y-61555000D02*
X126110000Y-61255000D01*
G75*
G02*
X126260000Y-61105000I150000J0D01*
G01*
X127910000Y-61105000D01*
G75*
G02*
X128060000Y-61255000I0J-150000D01*
G01*
X128060000Y-61555000D01*
G75*
G02*
X127910000Y-61705000I-150000J0D01*
G01*
X126260000Y-61705000D01*
G75*
G02*
X126110000Y-61555000I0J150000D01*
G01*
G37*
G36*
G01*
X121160000Y-61555000D02*
X121160000Y-61255000D01*
G75*
G02*
X121310000Y-61105000I150000J0D01*
G01*
X122960000Y-61105000D01*
G75*
G02*
X123110000Y-61255000I0J-150000D01*
G01*
X123110000Y-61555000D01*
G75*
G02*
X122960000Y-61705000I-150000J0D01*
G01*
X121310000Y-61705000D01*
G75*
G02*
X121160000Y-61555000I0J150000D01*
G01*
G37*
G36*
G01*
X121160000Y-60285000D02*
X121160000Y-59985000D01*
G75*
G02*
X121310000Y-59835000I150000J0D01*
G01*
X122960000Y-59835000D01*
G75*
G02*
X123110000Y-59985000I0J-150000D01*
G01*
X123110000Y-60285000D01*
G75*
G02*
X122960000Y-60435000I-150000J0D01*
G01*
X121310000Y-60435000D01*
G75*
G02*
X121160000Y-60285000I0J150000D01*
G01*
G37*
G36*
G01*
X121160000Y-59015000D02*
X121160000Y-58715000D01*
G75*
G02*
X121310000Y-58565000I150000J0D01*
G01*
X122960000Y-58565000D01*
G75*
G02*
X123110000Y-58715000I0J-150000D01*
G01*
X123110000Y-59015000D01*
G75*
G02*
X122960000Y-59165000I-150000J0D01*
G01*
X121310000Y-59165000D01*
G75*
G02*
X121160000Y-59015000I0J150000D01*
G01*
G37*
G36*
G01*
X121160000Y-57745000D02*
X121160000Y-57445000D01*
G75*
G02*
X121310000Y-57295000I150000J0D01*
G01*
X122960000Y-57295000D01*
G75*
G02*
X123110000Y-57445000I0J-150000D01*
G01*
X123110000Y-57745000D01*
G75*
G02*
X122960000Y-57895000I-150000J0D01*
G01*
X121310000Y-57895000D01*
G75*
G02*
X121160000Y-57745000I0J150000D01*
G01*
G37*
G36*
G01*
X121160000Y-56475000D02*
X121160000Y-56175000D01*
G75*
G02*
X121310000Y-56025000I150000J0D01*
G01*
X122960000Y-56025000D01*
G75*
G02*
X123110000Y-56175000I0J-150000D01*
G01*
X123110000Y-56475000D01*
G75*
G02*
X122960000Y-56625000I-150000J0D01*
G01*
X121310000Y-56625000D01*
G75*
G02*
X121160000Y-56475000I0J150000D01*
G01*
G37*
G36*
G01*
X121160000Y-55205000D02*
X121160000Y-54905000D01*
G75*
G02*
X121310000Y-54755000I150000J0D01*
G01*
X122960000Y-54755000D01*
G75*
G02*
X123110000Y-54905000I0J-150000D01*
G01*
X123110000Y-55205000D01*
G75*
G02*
X122960000Y-55355000I-150000J0D01*
G01*
X121310000Y-55355000D01*
G75*
G02*
X121160000Y-55205000I0J150000D01*
G01*
G37*
G36*
G01*
X121160000Y-53935000D02*
X121160000Y-53635000D01*
G75*
G02*
X121310000Y-53485000I150000J0D01*
G01*
X122960000Y-53485000D01*
G75*
G02*
X123110000Y-53635000I0J-150000D01*
G01*
X123110000Y-53935000D01*
G75*
G02*
X122960000Y-54085000I-150000J0D01*
G01*
X121310000Y-54085000D01*
G75*
G02*
X121160000Y-53935000I0J150000D01*
G01*
G37*
G36*
G01*
X121160000Y-52665000D02*
X121160000Y-52365000D01*
G75*
G02*
X121310000Y-52215000I150000J0D01*
G01*
X122960000Y-52215000D01*
G75*
G02*
X123110000Y-52365000I0J-150000D01*
G01*
X123110000Y-52665000D01*
G75*
G02*
X122960000Y-52815000I-150000J0D01*
G01*
X121310000Y-52815000D01*
G75*
G02*
X121160000Y-52665000I0J150000D01*
G01*
G37*
%TD*%
%TO.C,U6*%
G36*
G01*
X109155000Y-52665000D02*
X109155000Y-52365000D01*
G75*
G02*
X109305000Y-52215000I150000J0D01*
G01*
X110955000Y-52215000D01*
G75*
G02*
X111105000Y-52365000I0J-150000D01*
G01*
X111105000Y-52665000D01*
G75*
G02*
X110955000Y-52815000I-150000J0D01*
G01*
X109305000Y-52815000D01*
G75*
G02*
X109155000Y-52665000I0J150000D01*
G01*
G37*
G36*
G01*
X109155000Y-53935000D02*
X109155000Y-53635000D01*
G75*
G02*
X109305000Y-53485000I150000J0D01*
G01*
X110955000Y-53485000D01*
G75*
G02*
X111105000Y-53635000I0J-150000D01*
G01*
X111105000Y-53935000D01*
G75*
G02*
X110955000Y-54085000I-150000J0D01*
G01*
X109305000Y-54085000D01*
G75*
G02*
X109155000Y-53935000I0J150000D01*
G01*
G37*
G36*
G01*
X109155000Y-55205000D02*
X109155000Y-54905000D01*
G75*
G02*
X109305000Y-54755000I150000J0D01*
G01*
X110955000Y-54755000D01*
G75*
G02*
X111105000Y-54905000I0J-150000D01*
G01*
X111105000Y-55205000D01*
G75*
G02*
X110955000Y-55355000I-150000J0D01*
G01*
X109305000Y-55355000D01*
G75*
G02*
X109155000Y-55205000I0J150000D01*
G01*
G37*
G36*
G01*
X109155000Y-56475000D02*
X109155000Y-56175000D01*
G75*
G02*
X109305000Y-56025000I150000J0D01*
G01*
X110955000Y-56025000D01*
G75*
G02*
X111105000Y-56175000I0J-150000D01*
G01*
X111105000Y-56475000D01*
G75*
G02*
X110955000Y-56625000I-150000J0D01*
G01*
X109305000Y-56625000D01*
G75*
G02*
X109155000Y-56475000I0J150000D01*
G01*
G37*
G36*
G01*
X109155000Y-57745000D02*
X109155000Y-57445000D01*
G75*
G02*
X109305000Y-57295000I150000J0D01*
G01*
X110955000Y-57295000D01*
G75*
G02*
X111105000Y-57445000I0J-150000D01*
G01*
X111105000Y-57745000D01*
G75*
G02*
X110955000Y-57895000I-150000J0D01*
G01*
X109305000Y-57895000D01*
G75*
G02*
X109155000Y-57745000I0J150000D01*
G01*
G37*
G36*
G01*
X109155000Y-59015000D02*
X109155000Y-58715000D01*
G75*
G02*
X109305000Y-58565000I150000J0D01*
G01*
X110955000Y-58565000D01*
G75*
G02*
X111105000Y-58715000I0J-150000D01*
G01*
X111105000Y-59015000D01*
G75*
G02*
X110955000Y-59165000I-150000J0D01*
G01*
X109305000Y-59165000D01*
G75*
G02*
X109155000Y-59015000I0J150000D01*
G01*
G37*
G36*
G01*
X109155000Y-60285000D02*
X109155000Y-59985000D01*
G75*
G02*
X109305000Y-59835000I150000J0D01*
G01*
X110955000Y-59835000D01*
G75*
G02*
X111105000Y-59985000I0J-150000D01*
G01*
X111105000Y-60285000D01*
G75*
G02*
X110955000Y-60435000I-150000J0D01*
G01*
X109305000Y-60435000D01*
G75*
G02*
X109155000Y-60285000I0J150000D01*
G01*
G37*
G36*
G01*
X109155000Y-61555000D02*
X109155000Y-61255000D01*
G75*
G02*
X109305000Y-61105000I150000J0D01*
G01*
X110955000Y-61105000D01*
G75*
G02*
X111105000Y-61255000I0J-150000D01*
G01*
X111105000Y-61555000D01*
G75*
G02*
X110955000Y-61705000I-150000J0D01*
G01*
X109305000Y-61705000D01*
G75*
G02*
X109155000Y-61555000I0J150000D01*
G01*
G37*
G36*
G01*
X104205000Y-61555000D02*
X104205000Y-61255000D01*
G75*
G02*
X104355000Y-61105000I150000J0D01*
G01*
X106005000Y-61105000D01*
G75*
G02*
X106155000Y-61255000I0J-150000D01*
G01*
X106155000Y-61555000D01*
G75*
G02*
X106005000Y-61705000I-150000J0D01*
G01*
X104355000Y-61705000D01*
G75*
G02*
X104205000Y-61555000I0J150000D01*
G01*
G37*
G36*
G01*
X104205000Y-60285000D02*
X104205000Y-59985000D01*
G75*
G02*
X104355000Y-59835000I150000J0D01*
G01*
X106005000Y-59835000D01*
G75*
G02*
X106155000Y-59985000I0J-150000D01*
G01*
X106155000Y-60285000D01*
G75*
G02*
X106005000Y-60435000I-150000J0D01*
G01*
X104355000Y-60435000D01*
G75*
G02*
X104205000Y-60285000I0J150000D01*
G01*
G37*
G36*
G01*
X104205000Y-59015000D02*
X104205000Y-58715000D01*
G75*
G02*
X104355000Y-58565000I150000J0D01*
G01*
X106005000Y-58565000D01*
G75*
G02*
X106155000Y-58715000I0J-150000D01*
G01*
X106155000Y-59015000D01*
G75*
G02*
X106005000Y-59165000I-150000J0D01*
G01*
X104355000Y-59165000D01*
G75*
G02*
X104205000Y-59015000I0J150000D01*
G01*
G37*
G36*
G01*
X104205000Y-57745000D02*
X104205000Y-57445000D01*
G75*
G02*
X104355000Y-57295000I150000J0D01*
G01*
X106005000Y-57295000D01*
G75*
G02*
X106155000Y-57445000I0J-150000D01*
G01*
X106155000Y-57745000D01*
G75*
G02*
X106005000Y-57895000I-150000J0D01*
G01*
X104355000Y-57895000D01*
G75*
G02*
X104205000Y-57745000I0J150000D01*
G01*
G37*
G36*
G01*
X104205000Y-56475000D02*
X104205000Y-56175000D01*
G75*
G02*
X104355000Y-56025000I150000J0D01*
G01*
X106005000Y-56025000D01*
G75*
G02*
X106155000Y-56175000I0J-150000D01*
G01*
X106155000Y-56475000D01*
G75*
G02*
X106005000Y-56625000I-150000J0D01*
G01*
X104355000Y-56625000D01*
G75*
G02*
X104205000Y-56475000I0J150000D01*
G01*
G37*
G36*
G01*
X104205000Y-55205000D02*
X104205000Y-54905000D01*
G75*
G02*
X104355000Y-54755000I150000J0D01*
G01*
X106005000Y-54755000D01*
G75*
G02*
X106155000Y-54905000I0J-150000D01*
G01*
X106155000Y-55205000D01*
G75*
G02*
X106005000Y-55355000I-150000J0D01*
G01*
X104355000Y-55355000D01*
G75*
G02*
X104205000Y-55205000I0J150000D01*
G01*
G37*
G36*
G01*
X104205000Y-53935000D02*
X104205000Y-53635000D01*
G75*
G02*
X104355000Y-53485000I150000J0D01*
G01*
X106005000Y-53485000D01*
G75*
G02*
X106155000Y-53635000I0J-150000D01*
G01*
X106155000Y-53935000D01*
G75*
G02*
X106005000Y-54085000I-150000J0D01*
G01*
X104355000Y-54085000D01*
G75*
G02*
X104205000Y-53935000I0J150000D01*
G01*
G37*
G36*
G01*
X104205000Y-52665000D02*
X104205000Y-52365000D01*
G75*
G02*
X104355000Y-52215000I150000J0D01*
G01*
X106005000Y-52215000D01*
G75*
G02*
X106155000Y-52365000I0J-150000D01*
G01*
X106155000Y-52665000D01*
G75*
G02*
X106005000Y-52815000I-150000J0D01*
G01*
X104355000Y-52815000D01*
G75*
G02*
X104205000Y-52665000I0J150000D01*
G01*
G37*
%TD*%
%TO.C,U4*%
G36*
G01*
X168170000Y-74295000D02*
X168170000Y-73995000D01*
G75*
G02*
X168320000Y-73845000I150000J0D01*
G01*
X169970000Y-73845000D01*
G75*
G02*
X170120000Y-73995000I0J-150000D01*
G01*
X170120000Y-74295000D01*
G75*
G02*
X169970000Y-74445000I-150000J0D01*
G01*
X168320000Y-74445000D01*
G75*
G02*
X168170000Y-74295000I0J150000D01*
G01*
G37*
G36*
G01*
X168170000Y-75565000D02*
X168170000Y-75265000D01*
G75*
G02*
X168320000Y-75115000I150000J0D01*
G01*
X169970000Y-75115000D01*
G75*
G02*
X170120000Y-75265000I0J-150000D01*
G01*
X170120000Y-75565000D01*
G75*
G02*
X169970000Y-75715000I-150000J0D01*
G01*
X168320000Y-75715000D01*
G75*
G02*
X168170000Y-75565000I0J150000D01*
G01*
G37*
G36*
G01*
X168170000Y-76835000D02*
X168170000Y-76535000D01*
G75*
G02*
X168320000Y-76385000I150000J0D01*
G01*
X169970000Y-76385000D01*
G75*
G02*
X170120000Y-76535000I0J-150000D01*
G01*
X170120000Y-76835000D01*
G75*
G02*
X169970000Y-76985000I-150000J0D01*
G01*
X168320000Y-76985000D01*
G75*
G02*
X168170000Y-76835000I0J150000D01*
G01*
G37*
G36*
G01*
X168170000Y-78105000D02*
X168170000Y-77805000D01*
G75*
G02*
X168320000Y-77655000I150000J0D01*
G01*
X169970000Y-77655000D01*
G75*
G02*
X170120000Y-77805000I0J-150000D01*
G01*
X170120000Y-78105000D01*
G75*
G02*
X169970000Y-78255000I-150000J0D01*
G01*
X168320000Y-78255000D01*
G75*
G02*
X168170000Y-78105000I0J150000D01*
G01*
G37*
G36*
G01*
X168170000Y-79375000D02*
X168170000Y-79075000D01*
G75*
G02*
X168320000Y-78925000I150000J0D01*
G01*
X169970000Y-78925000D01*
G75*
G02*
X170120000Y-79075000I0J-150000D01*
G01*
X170120000Y-79375000D01*
G75*
G02*
X169970000Y-79525000I-150000J0D01*
G01*
X168320000Y-79525000D01*
G75*
G02*
X168170000Y-79375000I0J150000D01*
G01*
G37*
G36*
G01*
X168170000Y-80645000D02*
X168170000Y-80345000D01*
G75*
G02*
X168320000Y-80195000I150000J0D01*
G01*
X169970000Y-80195000D01*
G75*
G02*
X170120000Y-80345000I0J-150000D01*
G01*
X170120000Y-80645000D01*
G75*
G02*
X169970000Y-80795000I-150000J0D01*
G01*
X168320000Y-80795000D01*
G75*
G02*
X168170000Y-80645000I0J150000D01*
G01*
G37*
G36*
G01*
X168170000Y-81915000D02*
X168170000Y-81615000D01*
G75*
G02*
X168320000Y-81465000I150000J0D01*
G01*
X169970000Y-81465000D01*
G75*
G02*
X170120000Y-81615000I0J-150000D01*
G01*
X170120000Y-81915000D01*
G75*
G02*
X169970000Y-82065000I-150000J0D01*
G01*
X168320000Y-82065000D01*
G75*
G02*
X168170000Y-81915000I0J150000D01*
G01*
G37*
G36*
G01*
X168170000Y-83185000D02*
X168170000Y-82885000D01*
G75*
G02*
X168320000Y-82735000I150000J0D01*
G01*
X169970000Y-82735000D01*
G75*
G02*
X170120000Y-82885000I0J-150000D01*
G01*
X170120000Y-83185000D01*
G75*
G02*
X169970000Y-83335000I-150000J0D01*
G01*
X168320000Y-83335000D01*
G75*
G02*
X168170000Y-83185000I0J150000D01*
G01*
G37*
G36*
G01*
X163220000Y-83185000D02*
X163220000Y-82885000D01*
G75*
G02*
X163370000Y-82735000I150000J0D01*
G01*
X165020000Y-82735000D01*
G75*
G02*
X165170000Y-82885000I0J-150000D01*
G01*
X165170000Y-83185000D01*
G75*
G02*
X165020000Y-83335000I-150000J0D01*
G01*
X163370000Y-83335000D01*
G75*
G02*
X163220000Y-83185000I0J150000D01*
G01*
G37*
G36*
G01*
X163220000Y-81915000D02*
X163220000Y-81615000D01*
G75*
G02*
X163370000Y-81465000I150000J0D01*
G01*
X165020000Y-81465000D01*
G75*
G02*
X165170000Y-81615000I0J-150000D01*
G01*
X165170000Y-81915000D01*
G75*
G02*
X165020000Y-82065000I-150000J0D01*
G01*
X163370000Y-82065000D01*
G75*
G02*
X163220000Y-81915000I0J150000D01*
G01*
G37*
G36*
G01*
X163220000Y-80645000D02*
X163220000Y-80345000D01*
G75*
G02*
X163370000Y-80195000I150000J0D01*
G01*
X165020000Y-80195000D01*
G75*
G02*
X165170000Y-80345000I0J-150000D01*
G01*
X165170000Y-80645000D01*
G75*
G02*
X165020000Y-80795000I-150000J0D01*
G01*
X163370000Y-80795000D01*
G75*
G02*
X163220000Y-80645000I0J150000D01*
G01*
G37*
G36*
G01*
X163220000Y-79375000D02*
X163220000Y-79075000D01*
G75*
G02*
X163370000Y-78925000I150000J0D01*
G01*
X165020000Y-78925000D01*
G75*
G02*
X165170000Y-79075000I0J-150000D01*
G01*
X165170000Y-79375000D01*
G75*
G02*
X165020000Y-79525000I-150000J0D01*
G01*
X163370000Y-79525000D01*
G75*
G02*
X163220000Y-79375000I0J150000D01*
G01*
G37*
G36*
G01*
X163220000Y-78105000D02*
X163220000Y-77805000D01*
G75*
G02*
X163370000Y-77655000I150000J0D01*
G01*
X165020000Y-77655000D01*
G75*
G02*
X165170000Y-77805000I0J-150000D01*
G01*
X165170000Y-78105000D01*
G75*
G02*
X165020000Y-78255000I-150000J0D01*
G01*
X163370000Y-78255000D01*
G75*
G02*
X163220000Y-78105000I0J150000D01*
G01*
G37*
G36*
G01*
X163220000Y-76835000D02*
X163220000Y-76535000D01*
G75*
G02*
X163370000Y-76385000I150000J0D01*
G01*
X165020000Y-76385000D01*
G75*
G02*
X165170000Y-76535000I0J-150000D01*
G01*
X165170000Y-76835000D01*
G75*
G02*
X165020000Y-76985000I-150000J0D01*
G01*
X163370000Y-76985000D01*
G75*
G02*
X163220000Y-76835000I0J150000D01*
G01*
G37*
G36*
G01*
X163220000Y-75565000D02*
X163220000Y-75265000D01*
G75*
G02*
X163370000Y-75115000I150000J0D01*
G01*
X165020000Y-75115000D01*
G75*
G02*
X165170000Y-75265000I0J-150000D01*
G01*
X165170000Y-75565000D01*
G75*
G02*
X165020000Y-75715000I-150000J0D01*
G01*
X163370000Y-75715000D01*
G75*
G02*
X163220000Y-75565000I0J150000D01*
G01*
G37*
G36*
G01*
X163220000Y-74295000D02*
X163220000Y-73995000D01*
G75*
G02*
X163370000Y-73845000I150000J0D01*
G01*
X165020000Y-73845000D01*
G75*
G02*
X165170000Y-73995000I0J-150000D01*
G01*
X165170000Y-74295000D01*
G75*
G02*
X165020000Y-74445000I-150000J0D01*
G01*
X163370000Y-74445000D01*
G75*
G02*
X163220000Y-74295000I0J150000D01*
G01*
G37*
%TD*%
%TO.C,U2*%
G36*
G01*
X187010000Y-66725000D02*
X187010000Y-66425000D01*
G75*
G02*
X187160000Y-66275000I150000J0D01*
G01*
X188810000Y-66275000D01*
G75*
G02*
X188960000Y-66425000I0J-150000D01*
G01*
X188960000Y-66725000D01*
G75*
G02*
X188810000Y-66875000I-150000J0D01*
G01*
X187160000Y-66875000D01*
G75*
G02*
X187010000Y-66725000I0J150000D01*
G01*
G37*
G36*
G01*
X187010000Y-67995000D02*
X187010000Y-67695000D01*
G75*
G02*
X187160000Y-67545000I150000J0D01*
G01*
X188810000Y-67545000D01*
G75*
G02*
X188960000Y-67695000I0J-150000D01*
G01*
X188960000Y-67995000D01*
G75*
G02*
X188810000Y-68145000I-150000J0D01*
G01*
X187160000Y-68145000D01*
G75*
G02*
X187010000Y-67995000I0J150000D01*
G01*
G37*
G36*
G01*
X187010000Y-69265000D02*
X187010000Y-68965000D01*
G75*
G02*
X187160000Y-68815000I150000J0D01*
G01*
X188810000Y-68815000D01*
G75*
G02*
X188960000Y-68965000I0J-150000D01*
G01*
X188960000Y-69265000D01*
G75*
G02*
X188810000Y-69415000I-150000J0D01*
G01*
X187160000Y-69415000D01*
G75*
G02*
X187010000Y-69265000I0J150000D01*
G01*
G37*
G36*
G01*
X187010000Y-70535000D02*
X187010000Y-70235000D01*
G75*
G02*
X187160000Y-70085000I150000J0D01*
G01*
X188810000Y-70085000D01*
G75*
G02*
X188960000Y-70235000I0J-150000D01*
G01*
X188960000Y-70535000D01*
G75*
G02*
X188810000Y-70685000I-150000J0D01*
G01*
X187160000Y-70685000D01*
G75*
G02*
X187010000Y-70535000I0J150000D01*
G01*
G37*
G36*
G01*
X182060000Y-70535000D02*
X182060000Y-70235000D01*
G75*
G02*
X182210000Y-70085000I150000J0D01*
G01*
X183860000Y-70085000D01*
G75*
G02*
X184010000Y-70235000I0J-150000D01*
G01*
X184010000Y-70535000D01*
G75*
G02*
X183860000Y-70685000I-150000J0D01*
G01*
X182210000Y-70685000D01*
G75*
G02*
X182060000Y-70535000I0J150000D01*
G01*
G37*
G36*
G01*
X182060000Y-69265000D02*
X182060000Y-68965000D01*
G75*
G02*
X182210000Y-68815000I150000J0D01*
G01*
X183860000Y-68815000D01*
G75*
G02*
X184010000Y-68965000I0J-150000D01*
G01*
X184010000Y-69265000D01*
G75*
G02*
X183860000Y-69415000I-150000J0D01*
G01*
X182210000Y-69415000D01*
G75*
G02*
X182060000Y-69265000I0J150000D01*
G01*
G37*
G36*
G01*
X182060000Y-67995000D02*
X182060000Y-67695000D01*
G75*
G02*
X182210000Y-67545000I150000J0D01*
G01*
X183860000Y-67545000D01*
G75*
G02*
X184010000Y-67695000I0J-150000D01*
G01*
X184010000Y-67995000D01*
G75*
G02*
X183860000Y-68145000I-150000J0D01*
G01*
X182210000Y-68145000D01*
G75*
G02*
X182060000Y-67995000I0J150000D01*
G01*
G37*
G36*
G01*
X182060000Y-66725000D02*
X182060000Y-66425000D01*
G75*
G02*
X182210000Y-66275000I150000J0D01*
G01*
X183860000Y-66275000D01*
G75*
G02*
X184010000Y-66425000I0J-150000D01*
G01*
X184010000Y-66725000D01*
G75*
G02*
X183860000Y-66875000I-150000J0D01*
G01*
X182210000Y-66875000D01*
G75*
G02*
X182060000Y-66725000I0J150000D01*
G01*
G37*
%TD*%
%TO.C,U1*%
G36*
G01*
X116675000Y-80435000D02*
X116675000Y-80735000D01*
G75*
G02*
X116525000Y-80885000I-150000J0D01*
G01*
X114775000Y-80885000D01*
G75*
G02*
X114625000Y-80735000I0J150000D01*
G01*
X114625000Y-80435000D01*
G75*
G02*
X114775000Y-80285000I150000J0D01*
G01*
X116525000Y-80285000D01*
G75*
G02*
X116675000Y-80435000I0J-150000D01*
G01*
G37*
G36*
G01*
X116675000Y-79165000D02*
X116675000Y-79465000D01*
G75*
G02*
X116525000Y-79615000I-150000J0D01*
G01*
X114775000Y-79615000D01*
G75*
G02*
X114625000Y-79465000I0J150000D01*
G01*
X114625000Y-79165000D01*
G75*
G02*
X114775000Y-79015000I150000J0D01*
G01*
X116525000Y-79015000D01*
G75*
G02*
X116675000Y-79165000I0J-150000D01*
G01*
G37*
G36*
G01*
X116675000Y-77895000D02*
X116675000Y-78195000D01*
G75*
G02*
X116525000Y-78345000I-150000J0D01*
G01*
X114775000Y-78345000D01*
G75*
G02*
X114625000Y-78195000I0J150000D01*
G01*
X114625000Y-77895000D01*
G75*
G02*
X114775000Y-77745000I150000J0D01*
G01*
X116525000Y-77745000D01*
G75*
G02*
X116675000Y-77895000I0J-150000D01*
G01*
G37*
G36*
G01*
X116675000Y-76625000D02*
X116675000Y-76925000D01*
G75*
G02*
X116525000Y-77075000I-150000J0D01*
G01*
X114775000Y-77075000D01*
G75*
G02*
X114625000Y-76925000I0J150000D01*
G01*
X114625000Y-76625000D01*
G75*
G02*
X114775000Y-76475000I150000J0D01*
G01*
X116525000Y-76475000D01*
G75*
G02*
X116675000Y-76625000I0J-150000D01*
G01*
G37*
G36*
G01*
X116675000Y-75355000D02*
X116675000Y-75655000D01*
G75*
G02*
X116525000Y-75805000I-150000J0D01*
G01*
X114775000Y-75805000D01*
G75*
G02*
X114625000Y-75655000I0J150000D01*
G01*
X114625000Y-75355000D01*
G75*
G02*
X114775000Y-75205000I150000J0D01*
G01*
X116525000Y-75205000D01*
G75*
G02*
X116675000Y-75355000I0J-150000D01*
G01*
G37*
G36*
G01*
X116675000Y-74085000D02*
X116675000Y-74385000D01*
G75*
G02*
X116525000Y-74535000I-150000J0D01*
G01*
X114775000Y-74535000D01*
G75*
G02*
X114625000Y-74385000I0J150000D01*
G01*
X114625000Y-74085000D01*
G75*
G02*
X114775000Y-73935000I150000J0D01*
G01*
X116525000Y-73935000D01*
G75*
G02*
X116675000Y-74085000I0J-150000D01*
G01*
G37*
G36*
G01*
X116675000Y-72815000D02*
X116675000Y-73115000D01*
G75*
G02*
X116525000Y-73265000I-150000J0D01*
G01*
X114775000Y-73265000D01*
G75*
G02*
X114625000Y-73115000I0J150000D01*
G01*
X114625000Y-72815000D01*
G75*
G02*
X114775000Y-72665000I150000J0D01*
G01*
X116525000Y-72665000D01*
G75*
G02*
X116675000Y-72815000I0J-150000D01*
G01*
G37*
G36*
G01*
X116675000Y-71545000D02*
X116675000Y-71845000D01*
G75*
G02*
X116525000Y-71995000I-150000J0D01*
G01*
X114775000Y-71995000D01*
G75*
G02*
X114625000Y-71845000I0J150000D01*
G01*
X114625000Y-71545000D01*
G75*
G02*
X114775000Y-71395000I150000J0D01*
G01*
X116525000Y-71395000D01*
G75*
G02*
X116675000Y-71545000I0J-150000D01*
G01*
G37*
G36*
G01*
X116675000Y-70275000D02*
X116675000Y-70575000D01*
G75*
G02*
X116525000Y-70725000I-150000J0D01*
G01*
X114775000Y-70725000D01*
G75*
G02*
X114625000Y-70575000I0J150000D01*
G01*
X114625000Y-70275000D01*
G75*
G02*
X114775000Y-70125000I150000J0D01*
G01*
X116525000Y-70125000D01*
G75*
G02*
X116675000Y-70275000I0J-150000D01*
G01*
G37*
G36*
G01*
X116675000Y-69005000D02*
X116675000Y-69305000D01*
G75*
G02*
X116525000Y-69455000I-150000J0D01*
G01*
X114775000Y-69455000D01*
G75*
G02*
X114625000Y-69305000I0J150000D01*
G01*
X114625000Y-69005000D01*
G75*
G02*
X114775000Y-68855000I150000J0D01*
G01*
X116525000Y-68855000D01*
G75*
G02*
X116675000Y-69005000I0J-150000D01*
G01*
G37*
G36*
G01*
X125975000Y-69005000D02*
X125975000Y-69305000D01*
G75*
G02*
X125825000Y-69455000I-150000J0D01*
G01*
X124075000Y-69455000D01*
G75*
G02*
X123925000Y-69305000I0J150000D01*
G01*
X123925000Y-69005000D01*
G75*
G02*
X124075000Y-68855000I150000J0D01*
G01*
X125825000Y-68855000D01*
G75*
G02*
X125975000Y-69005000I0J-150000D01*
G01*
G37*
G36*
G01*
X125975000Y-70275000D02*
X125975000Y-70575000D01*
G75*
G02*
X125825000Y-70725000I-150000J0D01*
G01*
X124075000Y-70725000D01*
G75*
G02*
X123925000Y-70575000I0J150000D01*
G01*
X123925000Y-70275000D01*
G75*
G02*
X124075000Y-70125000I150000J0D01*
G01*
X125825000Y-70125000D01*
G75*
G02*
X125975000Y-70275000I0J-150000D01*
G01*
G37*
G36*
G01*
X125975000Y-71545000D02*
X125975000Y-71845000D01*
G75*
G02*
X125825000Y-71995000I-150000J0D01*
G01*
X124075000Y-71995000D01*
G75*
G02*
X123925000Y-71845000I0J150000D01*
G01*
X123925000Y-71545000D01*
G75*
G02*
X124075000Y-71395000I150000J0D01*
G01*
X125825000Y-71395000D01*
G75*
G02*
X125975000Y-71545000I0J-150000D01*
G01*
G37*
G36*
G01*
X125975000Y-72815000D02*
X125975000Y-73115000D01*
G75*
G02*
X125825000Y-73265000I-150000J0D01*
G01*
X124075000Y-73265000D01*
G75*
G02*
X123925000Y-73115000I0J150000D01*
G01*
X123925000Y-72815000D01*
G75*
G02*
X124075000Y-72665000I150000J0D01*
G01*
X125825000Y-72665000D01*
G75*
G02*
X125975000Y-72815000I0J-150000D01*
G01*
G37*
G36*
G01*
X125975000Y-74085000D02*
X125975000Y-74385000D01*
G75*
G02*
X125825000Y-74535000I-150000J0D01*
G01*
X124075000Y-74535000D01*
G75*
G02*
X123925000Y-74385000I0J150000D01*
G01*
X123925000Y-74085000D01*
G75*
G02*
X124075000Y-73935000I150000J0D01*
G01*
X125825000Y-73935000D01*
G75*
G02*
X125975000Y-74085000I0J-150000D01*
G01*
G37*
G36*
G01*
X125975000Y-75355000D02*
X125975000Y-75655000D01*
G75*
G02*
X125825000Y-75805000I-150000J0D01*
G01*
X124075000Y-75805000D01*
G75*
G02*
X123925000Y-75655000I0J150000D01*
G01*
X123925000Y-75355000D01*
G75*
G02*
X124075000Y-75205000I150000J0D01*
G01*
X125825000Y-75205000D01*
G75*
G02*
X125975000Y-75355000I0J-150000D01*
G01*
G37*
G36*
G01*
X125975000Y-76625000D02*
X125975000Y-76925000D01*
G75*
G02*
X125825000Y-77075000I-150000J0D01*
G01*
X124075000Y-77075000D01*
G75*
G02*
X123925000Y-76925000I0J150000D01*
G01*
X123925000Y-76625000D01*
G75*
G02*
X124075000Y-76475000I150000J0D01*
G01*
X125825000Y-76475000D01*
G75*
G02*
X125975000Y-76625000I0J-150000D01*
G01*
G37*
G36*
G01*
X125975000Y-77895000D02*
X125975000Y-78195000D01*
G75*
G02*
X125825000Y-78345000I-150000J0D01*
G01*
X124075000Y-78345000D01*
G75*
G02*
X123925000Y-78195000I0J150000D01*
G01*
X123925000Y-77895000D01*
G75*
G02*
X124075000Y-77745000I150000J0D01*
G01*
X125825000Y-77745000D01*
G75*
G02*
X125975000Y-77895000I0J-150000D01*
G01*
G37*
G36*
G01*
X125975000Y-79165000D02*
X125975000Y-79465000D01*
G75*
G02*
X125825000Y-79615000I-150000J0D01*
G01*
X124075000Y-79615000D01*
G75*
G02*
X123925000Y-79465000I0J150000D01*
G01*
X123925000Y-79165000D01*
G75*
G02*
X124075000Y-79015000I150000J0D01*
G01*
X125825000Y-79015000D01*
G75*
G02*
X125975000Y-79165000I0J-150000D01*
G01*
G37*
G36*
G01*
X125975000Y-80435000D02*
X125975000Y-80735000D01*
G75*
G02*
X125825000Y-80885000I-150000J0D01*
G01*
X124075000Y-80885000D01*
G75*
G02*
X123925000Y-80735000I0J150000D01*
G01*
X123925000Y-80435000D01*
G75*
G02*
X124075000Y-80285000I150000J0D01*
G01*
X125825000Y-80285000D01*
G75*
G02*
X125975000Y-80435000I0J-150000D01*
G01*
G37*
%TD*%
M02*
