M48
; DRILL file {KiCad (5.1.9)-1} date 02/13/21 21:43:57
; FORMAT={-:-/ absolute / metric / decimal}
; #@! TF.CreationDate,2021-02-13T21:43:57+00:00
; #@! TF.GenerationSoftware,Kicad,Pcbnew,(5.1.9)-1
; #@! TF.FileFunction,Plated,1,2,PTH
FMAT,2
METRIC
T1C0.300
T2C0.400
T3C0.762
T4C0.900
T5C0.950
T6C1.000
T7C1.100
T8C1.200
T9C1.300
T10C1.400
T11C1.600
T12C1.651
T13C3.175
T14C3.200
%
G90
G05
T1
X69.42Y-64.16
X70.17Y-30.95
X74.55Y-53.41
X76.37Y-125.68
X76.75Y-137.33
X78.81Y-42.79
X80.01Y-30.23
X81.19Y-63.97
X81.45Y-52.59
X82.01Y-82.39
X82.07Y-119.21
X82.1Y-89.77
X82.11Y-75.06
X82.15Y-97.13
X82.16Y-67.7
X82.17Y-111.86
X82.19Y-104.46
X82.79Y-136.6
X83.37Y-133.58
X84.76Y-128.11
X85.11Y-41.15
X86.21Y-59.56
X86.45Y-61.4
X86.66Y-56.32
X87.17Y-152.07
X89.42Y-56.28
X89.46Y-54.26
X89.51Y-53.019
X89.57Y-60.11
X90.869Y-47.551
X91.14Y-64.1
X91.4Y-57.56
X91.48Y-87.94
X91.665Y-62.205
X92.185Y-51.235
X92.53Y-38.22
X93.68Y-88.23
X94.67Y-57.57
X96.59Y-123.81
X96.91Y-33.12
X97.09Y-49.74
X97.83Y-56.72
X98.0Y-55.11
X98.1Y-52.84
X98.68Y-151.55
X99.07Y-57.96
X99.147Y-52.093
X99.23Y-38.56
X99.29Y-40.77
X101.23Y-126.96
X102.14Y-84.48
X102.79Y-101.63
X102.9Y-98.98
X103.6Y-49.39
X103.83Y-56.3
X104.535Y-41.405
X105.18Y-51.32
X105.88Y-41.44
X106.65Y-60.94
X106.66Y-56.22
X106.81Y-53.785
X106.88Y-88.78
X106.91Y-54.96
X107.17Y-60.13
X107.54Y-134.07
X107.935Y-47.185
X108.25Y-57.82
X109.313Y-39.247
X109.45Y-86.29
X109.45Y-102.03
X109.49Y-92.54
X109.73Y-119.19
X109.91Y-62.52
X111.34Y-84.42
X111.395Y-51.335
X111.62Y-127.29
X111.84Y-57.58
X112.55Y-100.22
X112.76Y-94.44
X113.457Y-55.037
X113.535Y-50.51
X113.56Y-61.67
X113.7Y-89.25
X113.88Y-53.98
X114.37Y-144.01
X114.44Y-130.36
X114.47Y-56.19
X114.55Y-65.11
X114.93Y-53.86
X114.94Y-83.37
X114.98Y-129.33
X115.16Y-102.7
X115.76Y-109.11
X116.67Y-87.26
X116.78Y-82.69
X116.89Y-64.39
X117.69Y-71.74
X117.71Y-77.28
X118.71Y-79.43
X119.01Y-74.34
X119.12Y-69.27
X119.18Y-107.61
X120.51Y-56.35
X120.56Y-99.67
X121.38Y-100.42
X121.62Y-136.51
X121.96Y-97.08
X122.13Y-74.49
X122.37Y-129.35
X122.4Y-71.16
X122.46Y-77.604
X122.69Y-87.38
X122.77Y-94.84
X123.035Y-50.31
X123.15Y-69.18
X123.3Y-89.86
X123.475Y-60.135
X123.485Y-52.515
X123.58Y-56.33
X123.59Y-61.26
X123.667Y-54.177
X125.21Y-47.16
X125.53Y-57.61
X125.95Y-94.93
X126.06Y-67.18
X126.14Y-90.97
X126.25Y-99.69
X126.37Y-36.08
X126.37Y-37.11
X126.83Y-86.08
X127.18Y-51.4
X127.21Y-96.88
X127.25Y-89.1
X127.37Y-100.53
X127.5Y-93.15
X128.88Y-57.54
X129.03Y-69.39
X129.15Y-129.06
X129.19Y-133.64
X129.31Y-128.27
X129.39Y-130.04
X129.53Y-50.31
X129.68Y-136.21
X130.1Y-128.93
X130.22Y-60.13
X130.55Y-136.4
X131.09Y-57.39
X131.37Y-55.78
X131.39Y-109.11
X132.75Y-52.38
X132.94Y-100.41
X133.19Y-51.63
X133.42Y-104.76
X133.56Y-85.2
X134.148Y-52.742
X134.245Y-80.935
X134.268Y-81.928
X134.75Y-47.885
X135.37Y-63.66
X135.56Y-72.67
X135.72Y-83.14
X136.4Y-136.51
X137.21Y-129.29
X137.358Y-54.432
X137.358Y-59.362
X137.358Y-76.592
X137.46Y-104.66
X137.99Y-98.15
X138.09Y-85.4
X138.12Y-77.31
X143.65Y-100.47
X143.83Y-136.33
X144.32Y-127.6
X144.34Y-76.54
X144.34Y-80.14
X144.42Y-72.71
X144.44Y-128.87
X145.09Y-128.3
X145.19Y-81.61
X145.3Y-129.21
X145.985Y-75.715
X146.53Y-68.73
X146.59Y-103.96
X147.05Y-109.0
X148.69Y-69.11
X148.845Y-81.705
X148.89Y-77.97
X148.947Y-76.207
X148.97Y-75.22
X150.15Y-79.57
X151.08Y-136.33
X152.09Y-129.33
X152.115Y-73.04
X152.24Y-103.76
X152.44Y-100.06
X153.77Y-84.75
X153.97Y-79.26
X154.13Y-81.79
X154.2Y-72.1
X155.94Y-77.42
X157.57Y-73.68
X157.73Y-76.64
X157.84Y-84.2
X158.62Y-136.29
X158.96Y-127.03
X159.02Y-100.03
X159.07Y-129.29
X159.56Y-128.48
X159.7Y-74.1
X159.76Y-79.31
X159.96Y-129.35
X160.45Y-86.89
X160.938Y-50.277
X161.75Y-103.32
X162.54Y-78.48
X162.54Y-87.562
X162.68Y-109.08
X163.94Y-96.16
X164.94Y-68.72
X165.68Y-77.95
X165.79Y-82.61
X165.93Y-75.47
X165.98Y-136.22
X166.1Y-76.69
X166.475Y-80.655
X166.84Y-69.09
X166.87Y-129.3
X167.43Y-86.54
X169.27Y-102.43
X169.83Y-72.96
X170.04Y-115.58
X170.84Y-79.22
X170.84Y-72.84
X171.08Y-76.51
X171.7Y-72.12
X172.15Y-74.19
X172.58Y-86.89
X173.81Y-77.06
X173.99Y-107.73
X175.16Y-127.52
X175.46Y-73.08
X175.61Y-74.28
X176.418Y-49.482
X177.61Y-102.67
X177.77Y-36.79
X177.77Y-77.66
X178.1Y-32.22
X180.18Y-112.3
X181.77Y-67.2
X182.91Y-55.65
X182.91Y-63.37
X182.92Y-71.21
X183.02Y-65.44
X183.555Y-54.855
X183.613Y-61.447
X184.46Y-69.76
X184.98Y-105.21
X185.04Y-71.64
X185.7Y-61.09
X187.94Y-63.32
X188.61Y-39.52
X190.89Y-60.9
X193.49Y-129.75
X193.94Y-136.18
X194.62Y-102.99
X194.78Y-60.4
X194.78Y-71.75
X199.75Y-52.14
X200.91Y-129.55
X201.25Y-136.2
X202.7Y-101.09
X203.06Y-103.35
X204.47Y-100.41
X204.79Y-49.08
X206.09Y-99.78
X207.27Y-29.43
X207.34Y-40.57
X207.75Y-99.19
X207.79Y-96.0
X208.12Y-129.72
X208.7Y-136.16
X208.74Y-96.14
X209.5Y-98.48
X209.84Y-96.03
X210.02Y-90.03
X210.69Y-96.32
X211.23Y-103.39
X211.86Y-96.12
X212.05Y-84.82
X213.19Y-99.22
X215.35Y-130.81
X215.64Y-97.01
X216.18Y-136.09
X216.22Y-81.86
X216.37Y-129.34
X219.84Y-90.94
X220.25Y-87.27
X220.42Y-80.86
X221.65Y-89.66
X223.1Y-129.67
X223.5Y-136.25
X223.99Y-87.51
X226.96Y-82.77
X229.17Y-89.7
X229.23Y-84.61
X230.91Y-136.18
X231.12Y-129.27
X233.1Y-96.49
X237.91Y-129.47
X238.22Y-136.18
X238.78Y-102.56
X245.5Y-136.12
X245.59Y-107.59
X246.18Y-129.16
T2
X118.904Y-62.618
X120.71Y-66.64
X124.413Y-82.817
X124.413Y-85.877
X125.87Y-41.28
X126.318Y-38.152
X127.0Y-41.3
X177.22Y-62.01
X179.577Y-62.117
X184.365Y-57.345
X188.425Y-57.345
T3
X144.955Y-43.4
X144.955Y-45.94
X144.955Y-91.66
X144.955Y-94.2
X147.495Y-43.4
X147.495Y-45.94
X147.495Y-91.66
X147.495Y-94.2
X150.035Y-43.4
X150.035Y-45.94
X150.035Y-91.66
X150.035Y-94.2
X152.575Y-43.4
X152.575Y-45.94
X152.575Y-91.66
X152.575Y-94.2
X155.115Y-43.4
X155.115Y-45.94
X155.115Y-91.66
X155.115Y-94.2
X157.655Y-43.4
X157.655Y-45.94
X157.655Y-91.66
X157.655Y-94.2
X160.195Y-43.4
X160.195Y-45.94
X160.195Y-91.66
X160.195Y-94.2
X162.735Y-43.4
X162.735Y-45.94
X162.735Y-91.66
X162.735Y-94.2
X165.275Y-43.4
X165.275Y-45.94
X165.275Y-91.66
X165.275Y-94.2
X167.815Y-43.4
X167.815Y-45.94
X167.815Y-91.66
X167.815Y-94.2
X170.355Y-43.4
X170.355Y-45.94
X170.355Y-91.66
X170.355Y-94.2
X172.895Y-43.4
X172.895Y-45.94
X172.895Y-91.66
X172.895Y-94.2
X175.435Y-43.4
X175.435Y-45.94
X175.435Y-91.66
X175.435Y-94.2
X177.975Y-43.4
X177.975Y-45.94
X177.975Y-91.66
X177.975Y-94.2
X180.515Y-43.4
X180.515Y-45.94
X180.515Y-91.66
X180.515Y-94.2
X183.055Y-43.4
X183.055Y-45.94
X183.055Y-91.66
X183.055Y-94.2
X185.595Y-43.4
X185.595Y-45.94
X185.595Y-91.66
X185.595Y-94.2
X188.135Y-43.4
X188.135Y-45.94
X188.135Y-91.66
X188.135Y-94.2
X190.675Y-43.4
X190.675Y-45.94
X190.675Y-91.66
X190.675Y-94.2
X193.215Y-43.4
X193.215Y-45.94
X193.215Y-91.66
X193.215Y-94.2
X195.755Y-43.4
X195.755Y-45.94
X195.755Y-91.66
X195.755Y-94.2
X198.295Y-43.4
X198.295Y-45.94
X198.295Y-91.66
X198.295Y-94.2
X200.835Y-43.4
X200.835Y-45.94
X200.835Y-91.66
X200.835Y-94.2
T4
X75.95Y-151.32
X77.219Y-148.78
X78.489Y-151.32
X79.76Y-148.78
X81.029Y-151.32
X82.299Y-148.78
X83.569Y-151.32
X84.84Y-148.78
X86.17Y-45.575
X87.44Y-43.035
X88.71Y-45.575
X89.98Y-43.035
X91.25Y-45.575
X92.52Y-43.035
X93.79Y-45.575
X95.06Y-43.035
X103.345Y-45.6
X104.615Y-43.06
X105.885Y-45.6
X107.155Y-43.06
X108.425Y-45.6
X109.695Y-43.06
X110.965Y-45.6
X112.235Y-43.06
X120.495Y-45.6
X121.765Y-43.06
X123.035Y-45.6
X124.305Y-43.06
X125.575Y-45.6
X126.845Y-43.06
X128.115Y-45.6
X129.385Y-43.06
X143.99Y-67.37
X145.26Y-64.83
X146.53Y-67.37
X147.8Y-64.83
X149.07Y-67.37
X150.34Y-64.83
X151.61Y-67.37
X152.88Y-64.83
X162.41Y-67.27
X163.68Y-64.73
X164.95Y-67.27
X166.22Y-64.73
X167.49Y-67.27
X168.76Y-64.73
X170.03Y-67.27
X171.3Y-64.73
T5
X199.62Y-83.61
X202.12Y-83.61
X204.62Y-83.61
X207.12Y-83.61
T6
X61.929Y-31.16
X64.429Y-31.16
X101.34Y-134.46
X103.84Y-134.46
X180.8Y-134.46
X182.3Y-30.2
X182.3Y-32.74
X182.3Y-35.28
X183.3Y-134.46
X186.0Y-30.2
X186.0Y-32.74
X186.0Y-35.28
X186.976Y-76.334
X189.516Y-76.334
X192.056Y-76.334
X194.596Y-76.334
T7
X176.064Y-81.454
X176.064Y-85.954
X182.564Y-81.454
X182.564Y-85.954
X186.88Y-81.454
X186.88Y-85.954
X193.38Y-81.454
X193.38Y-85.954
T8
X89.11Y-70.58
X89.11Y-74.08
X89.11Y-77.58
X89.11Y-85.988
X89.11Y-89.488
X89.11Y-92.988
X89.11Y-101.397
X89.11Y-104.897
X89.11Y-108.397
X89.11Y-116.805
X89.11Y-120.305
X89.11Y-123.805
X98.585Y-63.03
X98.585Y-66.53
X98.585Y-70.03
X98.585Y-78.622
X98.585Y-82.122
X98.585Y-85.622
X98.585Y-94.213
X98.585Y-97.713
X98.585Y-101.213
X98.585Y-109.805
X98.585Y-113.305
X98.585Y-116.805
X110.62Y-111.485
X114.12Y-111.485
X117.62Y-111.485
X118.17Y-120.96
X121.67Y-120.96
X125.17Y-120.96
X126.212Y-111.485
X129.712Y-111.485
X133.212Y-111.485
X133.578Y-120.96
X137.078Y-120.96
X140.578Y-120.96
X141.783Y-111.485
X145.283Y-111.485
X148.783Y-111.485
X148.987Y-120.96
X152.487Y-120.96
X155.987Y-120.96
X157.395Y-111.485
X160.895Y-111.485
X164.395Y-111.485
X164.395Y-120.96
X167.895Y-120.96
X171.395Y-120.96
X186.2Y-111.585
X189.7Y-111.585
X193.2Y-111.585
X193.68Y-121.06
X197.18Y-121.06
X200.68Y-121.06
X201.792Y-111.585
X205.292Y-111.585
X208.792Y-111.585
X209.088Y-121.06
X212.588Y-121.06
X216.088Y-121.06
X217.383Y-111.585
X220.883Y-111.585
X224.383Y-111.585
X224.497Y-121.06
X227.997Y-121.06
X231.497Y-121.06
X232.975Y-111.585
X236.475Y-111.585
X239.905Y-121.06
X239.975Y-111.585
X243.405Y-121.06
X246.905Y-121.06
T9
X63.444Y-134.67
X63.444Y-139.75
X63.444Y-144.83
X63.444Y-149.91
X67.479Y-41.15
X67.479Y-47.5
X96.76Y-144.45
X103.11Y-144.45
X176.5Y-144.374
X182.85Y-144.374
X200.33Y-31.74
X200.33Y-38.09
T10
X162.084Y-36.456
X172.244Y-36.456
T11
X60.829Y-58.965
X73.529Y-58.965
X110.802Y-138.4
X110.802Y-151.1
X145.574Y-35.694
X158.274Y-35.694
X190.117Y-138.324
X190.117Y-151.024
T12
X61.428Y-69.78
X61.428Y-77.141
X61.428Y-84.501
X61.428Y-91.862
X61.428Y-99.223
X61.428Y-106.584
X61.428Y-113.944
X61.428Y-121.305
X61.428Y-127.65
X64.834Y-69.78
X64.834Y-77.141
X64.834Y-84.501
X64.834Y-91.862
X64.834Y-99.223
X64.834Y-106.584
X64.834Y-113.944
X64.834Y-121.305
X64.834Y-127.65
X69.304Y-69.78
X69.304Y-77.141
X69.304Y-84.501
X69.304Y-91.862
X69.304Y-99.223
X69.304Y-106.584
X69.304Y-113.944
X69.304Y-121.305
X69.304Y-127.65
X72.71Y-69.78
X72.71Y-77.141
X72.71Y-84.501
X72.71Y-91.862
X72.71Y-99.223
X72.71Y-106.584
X72.71Y-113.944
X72.71Y-121.305
X72.71Y-127.65
X117.845Y-139.143
X117.845Y-142.549
X117.845Y-147.019
X117.845Y-150.425
X125.206Y-139.143
X125.206Y-142.549
X125.206Y-147.019
X125.206Y-150.425
X132.566Y-139.143
X132.566Y-142.549
X132.566Y-147.019
X132.566Y-150.425
X139.927Y-139.143
X139.927Y-142.549
X139.927Y-147.019
X139.927Y-150.425
X147.288Y-139.143
X147.288Y-142.549
X147.288Y-147.019
X147.288Y-150.425
X154.648Y-139.143
X154.648Y-142.549
X154.648Y-147.019
X154.648Y-150.425
X162.009Y-139.143
X162.009Y-142.549
X162.009Y-147.019
X162.009Y-150.425
X163.278Y-31.09
X166.684Y-31.09
X169.37Y-139.143
X169.37Y-142.549
X169.37Y-147.019
X169.37Y-150.425
X171.154Y-31.09
X174.56Y-31.09
X196.735Y-139.243
X196.735Y-142.649
X196.735Y-147.119
X196.735Y-150.525
X204.096Y-139.243
X204.096Y-142.649
X204.096Y-147.119
X204.096Y-150.525
X211.456Y-139.243
X211.456Y-142.649
X211.456Y-147.119
X211.456Y-150.525
X218.817Y-139.243
X218.817Y-142.649
X218.817Y-147.119
X218.817Y-150.525
X226.178Y-139.243
X226.178Y-142.649
X226.178Y-147.119
X226.178Y-150.525
X233.538Y-139.243
X233.538Y-142.649
X233.538Y-147.119
X233.538Y-150.525
X240.899Y-139.243
X240.899Y-142.649
X240.899Y-147.119
X240.899Y-150.525
X248.26Y-139.243
X248.26Y-142.649
X248.26Y-147.119
X248.26Y-150.525
T13
X139.875Y-47.845
X139.875Y-89.755
X205.915Y-44.67
X205.915Y-92.93
T14
X76.2Y-35.1
X107.982Y-124.848
X138.58Y-35.16
X181.8Y-123.31
X191.43Y-36.4
X247.32Y-112.46
T0
M30
