#define 9ada4b58673b4a10b3d94c0606c627a1DvTnIegchmWapVah_width  113
#define 9ada4b58673b4a10b3d94c0606c627a1DvTnIegchmWapVah_height 40
static unsigned char 9ada4b58673b4a10b3d94c0606c627a1DvTnIegchmWapVah_bits[] = {
 0x00,0x00,0x00,0x00,0x00,0x00,0x00,0x00,0x00,0x00,0x00,0x00,
 0x00,0x00,0xfe,0x00,0x00,0x00,0x00,0x00,0x00,0x00,0x00,0x00,
 0x00,0x00,0x00,0x00,0x00,0xfe,0x00,0x00,0x00,0x00,0x00,0x00,
 0x00,0x00,0x00,0x00,0x00,0x00,0x00,0x00,0xfe,0x00,0x00,0x00,
 0x00,0x00,0x00,0x00,0x00,0x00,0x00,0x00,0x00,0x00,0x00,0xfe,
 0x00,0x00,0x00,0x00,0x00,0x00,0x00,0x00,0x00,0x00,0x00,0x00,
 0x00,0x00,0xfe,0x00,0x00,0x00,0x00,0x00,0x00,0x00,0x00,0x00,
 0x00,0x00,0x00,0x00,0x00,0xfe,0x00,0x00,0x00,0x00,0x00,0x00,
 0x00,0x00,0x00,0x00,0x00,0x00,0x00,0x00,0xfe,0x00,0x00,0x00,
 0x00,0x00,0x00,0x00,0x00,0x00,0x00,0x00,0x00,0x00,0x00,0xfe,
 0x00,0x00,0x00,0x00,0x00,0x00,0x00,0x00,0x00,0x00,0x00,0x00,
 0x00,0x00,0xfe,0x00,0x00,0x00,0x00,0x00,0x00,0x00,0x00,0x00,
 0x00,0x00,0x00,0x00,0x00,0xfe,0x00,0x00,0x00,0x01,0x0c,0x00,
 0x00,0x00,0x00,0x00,0x00,0x00,0x00,0x00,0xfe,0x00,0xdc,0x81,
 0x06,0x10,0x00,0x00,0x00,0x00,0x00,0x00,0x00,0x00,0x00,0xfe,
 0x00,0x05,0x21,0x0c,0x23,0x00,0x00,0x00,0x00,0x00,0x00,0x00,
 0x00,0x00,0xfe,0x00,0x03,0x03,0x98,0x20,0x00,0x00,0x00,0x00,
 0x00,0x00,0x00,0x00,0x00,0xfe,0x00,0x01,0x12,0x18,0x1d,0x00,
 0x00,0x00,0x00,0x00,0x00,0x00,0x00,0x00,0xfe,0x00,0x01,0x06,
 0x10,0x00,0x00,0x00,0x00,0x00,0x00,0x40,0x36,0x00,0x00,0xfe,
 0x80,0x01,0x04,0x30,0x00,0x00,0x00,0x00,0x00,0x00,0x30,0x00,
 0x01,0x00,0xfe,0x80,0x00,0x04,0x20,0x70,0x00,0x00,0x00,0x00,
 0x00,0x08,0x00,0x03,0x00,0xfe,0x80,0x01,0x0c,0x20,0x90,0xdc,
 0xfc,0x06,0x80,0x16,0x04,0x00,0x02,0x00,0xfe,0x80,0x00,0x00,
 0xa0,0x18,0x00,0x02,0x0c,0xc0,0xe2,0x01,0x00,0x02,0x00,0xfe,
 0x80,0x01,0x00,0x98,0x18,0x00,0x00,0x08,0x60,0x80,0x05,0x00,
 0x02,0x00,0xfe,0x00,0x01,0x00,0xcc,0x00,0x80,0x00,0x14,0x30,
 0x00,0x05,0x00,0x03,0x00,0xfe,0x00,0x01,0x00,0x4c,0x08,0x00,
 0x00,0x10,0x20,0x80,0x85,0xf7,0x00,0x00,0xfe,0x00,0x01,0x00,
 0x4c,0x08,0x40,0x00,0x08,0x20,0x00,0x05,0x00,0x00,0x00,0xfe,
 0x00,0x01,0x00,0x44,0x00,0x00,0x00,0x10,0x20,0x80,0x04,0x00,
 0x00,0x00,0xfe,0x00,0x01,0x00,0x44,0x00,0x40,0x00,0x10,0x30,
 0x00,0x08,0x00,0x00,0x00,0xfe,0x00,0x01,0x00,0x42,0x18,0x40,
 0x00,0x18,0x40,0xc0,0x08,0x00,0x00,0x00,0xfe,0x00,0x01,0x00,
 0x42,0x00,0x40,0x00,0x10,0x88,0x40,0x10,0x00,0x00,0x00,0xfe,
 0x00,0x01,0x00,0x42,0x10,0x80,0x00,0x44,0x08,0xb3,0xa0,0x00,
 0x20,0x00,0xfe,0x80,0x00,0x00,0x42,0x10,0x00,0x03,0x81,0x07,
 0x9e,0x80,0xd3,0x0d,0x00,0xfe,0x80,0x00,0x00,0x41,0x18,0x00,
 0xd4,0x00,0x06,0x00,0x00,0x00,0x00,0x00,0xfe,0x40,0x00,0x00,
 0x42,0x08,0x00,0x00,0x00,0x00,0x80,0x00,0x00,0x00,0x00,0xfe,
 0x20,0x00,0x00,0x00,0x00,0x00,0x00,0x00,0x00,0x80,0x00,0x00,
 0x00,0x00,0xfe,0x00,0x00,0x00,0x00,0x00,0x00,0x00,0x00,0x00,
 0x80,0x00,0x00,0x00,0x00,0xfe,0x00,0x00,0x00,0x00,0x00,0x00,
 0x00,0x00,0x00,0x40,0x00,0x00,0x00,0x00,0xfe,0x00,0x00,0x00,
 0x00,0x00,0x00,0x00,0x00,0x60,0x30,0x00,0x00,0x00,0x00,0xfe,
 0x00,0x00,0x00,0x00,0x00,0x00,0x00,0x00,0x80,0x0f,0x00,0x00,
 0x00,0x00,0xfe,0x00,0x00,0x00,0x00,0x00,0x00,0x00,0x00,0x00,
 0x00,0x00,0x00,0x00,0x00,0xfe,0x00,0x00,0x00,0x00,0x00,0x00,
 0x00,0x00,0x00,0x00,0x00,0x00,0x00,0x00,0xfe,0x00,0x00,0x00,
 0x00,0x00,0x00,0x00,0x00,0x00,0x00,0x00,0x00,0x00,0x00,0xfe};
