%TF.GenerationSoftware,KiCad,Pcbnew,(5.1.9)-1*%
%TF.CreationDate,2021-02-09T22:22:39+00:00*%
%TF.ProjectId,DMX Relay,444d5820-5265-46c6-9179-2e6b69636164,rev?*%
%TF.SameCoordinates,Original*%
%TF.FileFunction,Legend,Top*%
%TF.FilePolarity,Positive*%
%FSLAX46Y46*%
G04 Gerber Fmt 4.6, Leading zero omitted, Abs format (unit mm)*
G04 Created by KiCad (PCBNEW (5.1.9)-1) date 2021-02-09 22:22:39*
%MOMM*%
%LPD*%
G01*
G04 APERTURE LIST*
%ADD10C,0.150000*%
%ADD11C,0.120000*%
%ADD12C,0.127000*%
G04 APERTURE END LIST*
D10*
X78997500Y-55430714D02*
X78235595Y-55716428D01*
X78997500Y-56002142D01*
X79330833Y-55097380D02*
X79902261Y-55097380D01*
X79616547Y-56097380D02*
X79616547Y-55097380D01*
X80378452Y-56097380D02*
X80283214Y-56049761D01*
X80235595Y-56002142D01*
X80187976Y-55906904D01*
X80187976Y-55621190D01*
X80235595Y-55525952D01*
X80283214Y-55478333D01*
X80378452Y-55430714D01*
X80521309Y-55430714D01*
X80616547Y-55478333D01*
X80664166Y-55525952D01*
X80711785Y-55621190D01*
X80711785Y-55906904D01*
X80664166Y-56002142D01*
X80616547Y-56049761D01*
X80521309Y-56097380D01*
X80378452Y-56097380D01*
X81140357Y-55430714D02*
X81140357Y-56430714D01*
X81140357Y-55478333D02*
X81235595Y-55430714D01*
X81426071Y-55430714D01*
X81521309Y-55478333D01*
X81568928Y-55525952D01*
X81616547Y-55621190D01*
X81616547Y-55906904D01*
X81568928Y-56002142D01*
X81521309Y-56049761D01*
X81426071Y-56097380D01*
X81235595Y-56097380D01*
X81140357Y-56049761D01*
X82664166Y-55430714D02*
X83045119Y-55430714D01*
X82807023Y-55097380D02*
X82807023Y-55954523D01*
X82854642Y-56049761D01*
X82949880Y-56097380D01*
X83045119Y-56097380D01*
X83521309Y-56097380D02*
X83426071Y-56049761D01*
X83378452Y-56002142D01*
X83330833Y-55906904D01*
X83330833Y-55621190D01*
X83378452Y-55525952D01*
X83426071Y-55478333D01*
X83521309Y-55430714D01*
X83664166Y-55430714D01*
X83759404Y-55478333D01*
X83807023Y-55525952D01*
X83854642Y-55621190D01*
X83854642Y-55906904D01*
X83807023Y-56002142D01*
X83759404Y-56049761D01*
X83664166Y-56097380D01*
X83521309Y-56097380D01*
X78997500Y-57080714D02*
X78235595Y-57366428D01*
X78997500Y-57652142D01*
X79473690Y-57747380D02*
X79473690Y-56747380D01*
X79473690Y-57128333D02*
X79568928Y-57080714D01*
X79759404Y-57080714D01*
X79854642Y-57128333D01*
X79902261Y-57175952D01*
X79949880Y-57271190D01*
X79949880Y-57556904D01*
X79902261Y-57652142D01*
X79854642Y-57699761D01*
X79759404Y-57747380D01*
X79568928Y-57747380D01*
X79473690Y-57699761D01*
X80521309Y-57747380D02*
X80426071Y-57699761D01*
X80378452Y-57652142D01*
X80330833Y-57556904D01*
X80330833Y-57271190D01*
X80378452Y-57175952D01*
X80426071Y-57128333D01*
X80521309Y-57080714D01*
X80664166Y-57080714D01*
X80759404Y-57128333D01*
X80807023Y-57175952D01*
X80854642Y-57271190D01*
X80854642Y-57556904D01*
X80807023Y-57652142D01*
X80759404Y-57699761D01*
X80664166Y-57747380D01*
X80521309Y-57747380D01*
X81140357Y-57080714D02*
X81521309Y-57080714D01*
X81283214Y-56747380D02*
X81283214Y-57604523D01*
X81330833Y-57699761D01*
X81426071Y-57747380D01*
X81521309Y-57747380D01*
X81711785Y-57080714D02*
X82092738Y-57080714D01*
X81854642Y-56747380D02*
X81854642Y-57604523D01*
X81902261Y-57699761D01*
X81997500Y-57747380D01*
X82092738Y-57747380D01*
X82568928Y-57747380D02*
X82473690Y-57699761D01*
X82426071Y-57652142D01*
X82378452Y-57556904D01*
X82378452Y-57271190D01*
X82426071Y-57175952D01*
X82473690Y-57128333D01*
X82568928Y-57080714D01*
X82711785Y-57080714D01*
X82807023Y-57128333D01*
X82854642Y-57175952D01*
X82902261Y-57271190D01*
X82902261Y-57556904D01*
X82854642Y-57652142D01*
X82807023Y-57699761D01*
X82711785Y-57747380D01*
X82568928Y-57747380D01*
X83330833Y-57747380D02*
X83330833Y-57080714D01*
X83330833Y-57175952D02*
X83378452Y-57128333D01*
X83473690Y-57080714D01*
X83616547Y-57080714D01*
X83711785Y-57128333D01*
X83759404Y-57223571D01*
X83759404Y-57747380D01*
X83759404Y-57223571D02*
X83807023Y-57128333D01*
X83902261Y-57080714D01*
X84045119Y-57080714D01*
X84140357Y-57128333D01*
X84187976Y-57223571D01*
X84187976Y-57747380D01*
X67854761Y-60024285D02*
X67902380Y-59881428D01*
X67902380Y-59643333D01*
X67854761Y-59548095D01*
X67807142Y-59500476D01*
X67711904Y-59452857D01*
X67616666Y-59452857D01*
X67521428Y-59500476D01*
X67473809Y-59548095D01*
X67426190Y-59643333D01*
X67378571Y-59833809D01*
X67330952Y-59929047D01*
X67283333Y-59976666D01*
X67188095Y-60024285D01*
X67092857Y-60024285D01*
X66997619Y-59976666D01*
X66950000Y-59929047D01*
X66902380Y-59833809D01*
X66902380Y-59595714D01*
X66950000Y-59452857D01*
X67902380Y-59024285D02*
X66902380Y-59024285D01*
X67902380Y-58595714D02*
X67378571Y-58595714D01*
X67283333Y-58643333D01*
X67235714Y-58738571D01*
X67235714Y-58881428D01*
X67283333Y-58976666D01*
X67330952Y-59024285D01*
X67902380Y-57976666D02*
X67854761Y-58071904D01*
X67807142Y-58119523D01*
X67711904Y-58167142D01*
X67426190Y-58167142D01*
X67330952Y-58119523D01*
X67283333Y-58071904D01*
X67235714Y-57976666D01*
X67235714Y-57833809D01*
X67283333Y-57738571D01*
X67330952Y-57690952D01*
X67426190Y-57643333D01*
X67711904Y-57643333D01*
X67807142Y-57690952D01*
X67854761Y-57738571D01*
X67902380Y-57833809D01*
X67902380Y-57976666D01*
X67902380Y-57214761D02*
X67235714Y-57214761D01*
X67426190Y-57214761D02*
X67330952Y-57167142D01*
X67283333Y-57119523D01*
X67235714Y-57024285D01*
X67235714Y-56929047D01*
X67235714Y-56738571D02*
X67235714Y-56357619D01*
X66902380Y-56595714D02*
X67759523Y-56595714D01*
X67854761Y-56548095D01*
X67902380Y-56452857D01*
X67902380Y-56357619D01*
X67235714Y-55405238D02*
X67235714Y-55024285D01*
X67902380Y-55262380D02*
X67045238Y-55262380D01*
X66950000Y-55214761D01*
X66902380Y-55119523D01*
X66902380Y-55024285D01*
X67902380Y-54548095D02*
X67854761Y-54643333D01*
X67807142Y-54690952D01*
X67711904Y-54738571D01*
X67426190Y-54738571D01*
X67330952Y-54690952D01*
X67283333Y-54643333D01*
X67235714Y-54548095D01*
X67235714Y-54405238D01*
X67283333Y-54310000D01*
X67330952Y-54262380D01*
X67426190Y-54214761D01*
X67711904Y-54214761D01*
X67807142Y-54262380D01*
X67854761Y-54310000D01*
X67902380Y-54405238D01*
X67902380Y-54548095D01*
X67902380Y-53786190D02*
X67235714Y-53786190D01*
X67426190Y-53786190D02*
X67330952Y-53738571D01*
X67283333Y-53690952D01*
X67235714Y-53595714D01*
X67235714Y-53500476D01*
X68885714Y-59548095D02*
X69552380Y-59548095D01*
X68980952Y-59548095D02*
X68933333Y-59500476D01*
X68885714Y-59405238D01*
X68885714Y-59262380D01*
X68933333Y-59167142D01*
X69028571Y-59119523D01*
X69552380Y-59119523D01*
X69552380Y-58500476D02*
X69504761Y-58595714D01*
X69457142Y-58643333D01*
X69361904Y-58690952D01*
X69076190Y-58690952D01*
X68980952Y-58643333D01*
X68933333Y-58595714D01*
X68885714Y-58500476D01*
X68885714Y-58357619D01*
X68933333Y-58262380D01*
X68980952Y-58214761D01*
X69076190Y-58167142D01*
X69361904Y-58167142D01*
X69457142Y-58214761D01*
X69504761Y-58262380D01*
X69552380Y-58357619D01*
X69552380Y-58500476D01*
X69552380Y-57738571D02*
X68885714Y-57738571D01*
X69076190Y-57738571D02*
X68980952Y-57690952D01*
X68933333Y-57643333D01*
X68885714Y-57548095D01*
X68885714Y-57452857D01*
X69552380Y-57119523D02*
X68885714Y-57119523D01*
X68980952Y-57119523D02*
X68933333Y-57071904D01*
X68885714Y-56976666D01*
X68885714Y-56833809D01*
X68933333Y-56738571D01*
X69028571Y-56690952D01*
X69552380Y-56690952D01*
X69028571Y-56690952D02*
X68933333Y-56643333D01*
X68885714Y-56548095D01*
X68885714Y-56405238D01*
X68933333Y-56310000D01*
X69028571Y-56262380D01*
X69552380Y-56262380D01*
X69552380Y-55357619D02*
X69028571Y-55357619D01*
X68933333Y-55405238D01*
X68885714Y-55500476D01*
X68885714Y-55690952D01*
X68933333Y-55786190D01*
X69504761Y-55357619D02*
X69552380Y-55452857D01*
X69552380Y-55690952D01*
X69504761Y-55786190D01*
X69409523Y-55833809D01*
X69314285Y-55833809D01*
X69219047Y-55786190D01*
X69171428Y-55690952D01*
X69171428Y-55452857D01*
X69123809Y-55357619D01*
X69552380Y-54738571D02*
X69504761Y-54833809D01*
X69409523Y-54881428D01*
X68552380Y-54881428D01*
X70535714Y-58667142D02*
X71202380Y-58667142D01*
X70535714Y-59095714D02*
X71059523Y-59095714D01*
X71154761Y-59048095D01*
X71202380Y-58952857D01*
X71202380Y-58810000D01*
X71154761Y-58714761D01*
X71107142Y-58667142D01*
X71154761Y-58238571D02*
X71202380Y-58143333D01*
X71202380Y-57952857D01*
X71154761Y-57857619D01*
X71059523Y-57810000D01*
X71011904Y-57810000D01*
X70916666Y-57857619D01*
X70869047Y-57952857D01*
X70869047Y-58095714D01*
X70821428Y-58190952D01*
X70726190Y-58238571D01*
X70678571Y-58238571D01*
X70583333Y-58190952D01*
X70535714Y-58095714D01*
X70535714Y-57952857D01*
X70583333Y-57857619D01*
X71154761Y-57000476D02*
X71202380Y-57095714D01*
X71202380Y-57286190D01*
X71154761Y-57381428D01*
X71059523Y-57429047D01*
X70678571Y-57429047D01*
X70583333Y-57381428D01*
X70535714Y-57286190D01*
X70535714Y-57095714D01*
X70583333Y-57000476D01*
X70678571Y-56952857D01*
X70773809Y-56952857D01*
X70869047Y-57429047D01*
X70107142Y-56095714D02*
X71392857Y-55238571D01*
X70154761Y-54381428D02*
X71440476Y-55238571D01*
X73218095Y-53312380D02*
X72884761Y-52836190D01*
X72646666Y-53312380D02*
X72646666Y-52312380D01*
X73027619Y-52312380D01*
X73122857Y-52360000D01*
X73170476Y-52407619D01*
X73218095Y-52502857D01*
X73218095Y-52645714D01*
X73170476Y-52740952D01*
X73122857Y-52788571D01*
X73027619Y-52836190D01*
X72646666Y-52836190D01*
X73551428Y-53312380D02*
X74075238Y-52645714D01*
X73551428Y-52645714D02*
X74075238Y-53312380D01*
X75075238Y-52312380D02*
X75646666Y-52312380D01*
X75360952Y-53312380D02*
X75360952Y-52312380D01*
X75884761Y-53312380D02*
X76408571Y-52645714D01*
X75884761Y-52645714D02*
X76408571Y-53312380D01*
X64780952Y-49048571D02*
X64019047Y-49048571D01*
X64400000Y-48667619D02*
X64400000Y-49429523D01*
X64750952Y-51678571D02*
X63989047Y-51678571D01*
X82920952Y-45862380D02*
X82920952Y-46576666D01*
X82873333Y-46719523D01*
X82778095Y-46814761D01*
X82635238Y-46862380D01*
X82540000Y-46862380D01*
X83873333Y-46862380D02*
X83397142Y-46862380D01*
X83397142Y-45862380D01*
X84778095Y-46767142D02*
X84730476Y-46814761D01*
X84587619Y-46862380D01*
X84492380Y-46862380D01*
X84349523Y-46814761D01*
X84254285Y-46719523D01*
X84206666Y-46624285D01*
X84159047Y-46433809D01*
X84159047Y-46290952D01*
X84206666Y-46100476D01*
X84254285Y-46005238D01*
X84349523Y-45910000D01*
X84492380Y-45862380D01*
X84587619Y-45862380D01*
X84730476Y-45910000D01*
X84778095Y-45957619D01*
X85492380Y-45862380D02*
X85492380Y-46576666D01*
X85444761Y-46719523D01*
X85349523Y-46814761D01*
X85206666Y-46862380D01*
X85111428Y-46862380D01*
X86444761Y-46862380D02*
X85968571Y-46862380D01*
X85968571Y-45862380D01*
X87349523Y-46767142D02*
X87301904Y-46814761D01*
X87159047Y-46862380D01*
X87063809Y-46862380D01*
X86920952Y-46814761D01*
X86825714Y-46719523D01*
X86778095Y-46624285D01*
X86730476Y-46433809D01*
X86730476Y-46290952D01*
X86778095Y-46100476D01*
X86825714Y-46005238D01*
X86920952Y-45910000D01*
X87063809Y-45862380D01*
X87159047Y-45862380D01*
X87301904Y-45910000D01*
X87349523Y-45957619D01*
X88063809Y-45862380D02*
X88063809Y-46576666D01*
X88016190Y-46719523D01*
X87920952Y-46814761D01*
X87778095Y-46862380D01*
X87682857Y-46862380D01*
X89016190Y-46862380D02*
X88540000Y-46862380D01*
X88540000Y-45862380D01*
X89920952Y-46767142D02*
X89873333Y-46814761D01*
X89730476Y-46862380D01*
X89635238Y-46862380D01*
X89492380Y-46814761D01*
X89397142Y-46719523D01*
X89349523Y-46624285D01*
X89301904Y-46433809D01*
X89301904Y-46290952D01*
X89349523Y-46100476D01*
X89397142Y-46005238D01*
X89492380Y-45910000D01*
X89635238Y-45862380D01*
X89730476Y-45862380D01*
X89873333Y-45910000D01*
X89920952Y-45957619D01*
X90635238Y-45862380D02*
X90635238Y-46576666D01*
X90587619Y-46719523D01*
X90492380Y-46814761D01*
X90349523Y-46862380D01*
X90254285Y-46862380D01*
X91587619Y-46862380D02*
X91111428Y-46862380D01*
X91111428Y-45862380D01*
X92492380Y-46767142D02*
X92444761Y-46814761D01*
X92301904Y-46862380D01*
X92206666Y-46862380D01*
X92063809Y-46814761D01*
X91968571Y-46719523D01*
X91920952Y-46624285D01*
X91873333Y-46433809D01*
X91873333Y-46290952D01*
X91920952Y-46100476D01*
X91968571Y-46005238D01*
X92063809Y-45910000D01*
X92206666Y-45862380D01*
X92301904Y-45862380D01*
X92444761Y-45910000D01*
X92492380Y-45957619D01*
X74659047Y-73741428D02*
X75420952Y-73741428D01*
X75040000Y-74122380D02*
X75040000Y-73360476D01*
X102519047Y-73741428D02*
X103280952Y-73741428D01*
D11*
%TO.C,J3*%
X76200000Y-72360000D02*
X76200000Y-75020000D01*
X99120000Y-72360000D02*
X76200000Y-72360000D01*
X99120000Y-75020000D02*
X76200000Y-75020000D01*
X99120000Y-72360000D02*
X99120000Y-75020000D01*
X100390000Y-72360000D02*
X101720000Y-72360000D01*
X101720000Y-72360000D02*
X101720000Y-73690000D01*
%TO.C,J1*%
X116490000Y-24400000D02*
X106330000Y-24400000D01*
X116490000Y-32020000D02*
X116490000Y-24400000D01*
X106330000Y-32020000D02*
X116490000Y-32020000D01*
X106330000Y-24400000D02*
X106330000Y-32020000D01*
X106330000Y-25670000D02*
X116490000Y-25670000D01*
%TO.C,Y1*%
X89365000Y-52105000D02*
X95615000Y-52105000D01*
X89365000Y-57155000D02*
X95615000Y-57155000D01*
X95615000Y-57155000D02*
G75*
G03*
X95615000Y-52105000I0J2525000D01*
G01*
X89365000Y-57155000D02*
G75*
G02*
X89365000Y-52105000I0J2525000D01*
G01*
%TO.C,J4*%
X72230000Y-59540000D02*
X77430000Y-59540000D01*
X72230000Y-56940000D02*
X72230000Y-59540000D01*
X77430000Y-54340000D02*
X77430000Y-59540000D01*
X72230000Y-56940000D02*
X74830000Y-56940000D01*
X74830000Y-56940000D02*
X74830000Y-54340000D01*
X74830000Y-54340000D02*
X77430000Y-54340000D01*
X72230000Y-55670000D02*
X72230000Y-54340000D01*
X72230000Y-54340000D02*
X73560000Y-54340000D01*
%TO.C,C3*%
X86180000Y-53661000D02*
X86180000Y-54919000D01*
X84340000Y-53661000D02*
X84340000Y-54919000D01*
D12*
%TO.C,F1*%
X89600000Y-24460000D02*
X104300000Y-24460000D01*
X104300000Y-29260000D02*
X89600000Y-29260000D01*
X89600000Y-24460000D02*
X89600000Y-25910000D01*
X89600000Y-27810000D02*
X89600000Y-29260000D01*
X104300000Y-27810000D02*
X104300000Y-29260000D01*
X104300000Y-24460000D02*
X104300000Y-25910000D01*
D11*
%TO.C,U2*%
X108545000Y-71150000D02*
X107215000Y-71150000D01*
X107215000Y-71150000D02*
X107215000Y-69820000D01*
X107215000Y-68550000D02*
X107215000Y-60870000D01*
X109875000Y-60870000D02*
X107215000Y-60870000D01*
X109875000Y-68550000D02*
X109875000Y-60870000D01*
X109875000Y-68550000D02*
X107215000Y-68550000D01*
X66255000Y-60810000D02*
X68915000Y-60810000D01*
X66255000Y-71090000D02*
X68915000Y-71090000D01*
X66255000Y-63410000D02*
X66255000Y-71090000D01*
X68915000Y-60810000D02*
X68915000Y-63910000D01*
X68915000Y-63410000D02*
X68915000Y-71090000D01*
X110285000Y-71600000D02*
X65775000Y-71600000D01*
X65775000Y-71600000D02*
X65775000Y-60310000D01*
X65775000Y-60310000D02*
X110285000Y-60310000D01*
X110285000Y-60310000D02*
X110285000Y-71600000D01*
X66255000Y-60810000D02*
X66255000Y-63410000D01*
X71495000Y-66160000D02*
X78135000Y-66160000D01*
X78135000Y-66160000D02*
X76705000Y-64730000D01*
X76705000Y-64730000D02*
X76705000Y-67590000D01*
X76705000Y-67590000D02*
X78135000Y-66160000D01*
%TO.C,R5*%
X69280000Y-29940000D02*
X69280000Y-29610000D01*
X69280000Y-29610000D02*
X75820000Y-29610000D01*
X75820000Y-29610000D02*
X75820000Y-29940000D01*
X69280000Y-32020000D02*
X69280000Y-32350000D01*
X69280000Y-32350000D02*
X75820000Y-32350000D01*
X75820000Y-32350000D02*
X75820000Y-32020000D01*
%TO.C,R4*%
X93970000Y-31650000D02*
X94300000Y-31650000D01*
X94300000Y-31650000D02*
X94300000Y-38190000D01*
X94300000Y-38190000D02*
X93970000Y-38190000D01*
X91890000Y-31650000D02*
X91560000Y-31650000D01*
X91560000Y-31650000D02*
X91560000Y-38190000D01*
X91560000Y-38190000D02*
X91890000Y-38190000D01*
%TO.C,R3*%
X103540000Y-31650000D02*
X103870000Y-31650000D01*
X103870000Y-31650000D02*
X103870000Y-38190000D01*
X103870000Y-38190000D02*
X103540000Y-38190000D01*
X101460000Y-31650000D02*
X101130000Y-31650000D01*
X101130000Y-31650000D02*
X101130000Y-38190000D01*
X101130000Y-38190000D02*
X101460000Y-38190000D01*
%TO.C,R2*%
X94840000Y-38190000D02*
X95170000Y-38190000D01*
X94840000Y-31650000D02*
X94840000Y-38190000D01*
X95170000Y-31650000D02*
X94840000Y-31650000D01*
X97580000Y-38190000D02*
X97250000Y-38190000D01*
X97580000Y-31650000D02*
X97580000Y-38190000D01*
X97250000Y-31650000D02*
X97580000Y-31650000D01*
%TO.C,R1*%
X100395000Y-31650000D02*
X100725000Y-31650000D01*
X100725000Y-31650000D02*
X100725000Y-38190000D01*
X100725000Y-38190000D02*
X100395000Y-38190000D01*
X98315000Y-31650000D02*
X97985000Y-31650000D01*
X97985000Y-31650000D02*
X97985000Y-38190000D01*
X97985000Y-38190000D02*
X98315000Y-38190000D01*
%TO.C,D3*%
X71184000Y-28450000D02*
X71340000Y-28450000D01*
X73500000Y-28450000D02*
X73656000Y-28450000D01*
X73499837Y-25848870D02*
G75*
G02*
X73500000Y-27930961I-1079837J-1041130D01*
G01*
X71340163Y-25848870D02*
G75*
G03*
X71340000Y-27930961I1079837J-1041130D01*
G01*
X73498608Y-25217665D02*
G75*
G02*
X73655516Y-28450000I-1078608J-1672335D01*
G01*
X71341392Y-25217665D02*
G75*
G03*
X71184484Y-28450000I1078608J-1672335D01*
G01*
%TO.C,D2*%
X88895000Y-27130000D02*
X83325000Y-27130000D01*
X83325000Y-27130000D02*
X83325000Y-36890000D01*
X83325000Y-36890000D02*
X88895000Y-36890000D01*
X88895000Y-36890000D02*
X88895000Y-27130000D01*
X86110000Y-27100000D02*
X86110000Y-27130000D01*
X86110000Y-36920000D02*
X86110000Y-36890000D01*
X88895000Y-28678000D02*
X83325000Y-28678000D01*
X88895000Y-28798000D02*
X83325000Y-28798000D01*
X88895000Y-28558000D02*
X83325000Y-28558000D01*
%TO.C,D1*%
X82230000Y-26820000D02*
X82710000Y-26820000D01*
X82710000Y-26820000D02*
X82710000Y-34660000D01*
X82710000Y-34660000D02*
X82230000Y-34660000D01*
X79350000Y-26820000D02*
X78870000Y-26820000D01*
X78870000Y-26820000D02*
X78870000Y-34660000D01*
X78870000Y-34660000D02*
X79350000Y-34660000D01*
X82710000Y-28080000D02*
X78870000Y-28080000D01*
X82710000Y-28200000D02*
X78870000Y-28200000D01*
X82710000Y-27960000D02*
X78870000Y-27960000D01*
%TO.C,U1*%
X69620000Y-47810000D02*
X69620000Y-49460000D01*
X69620000Y-49460000D02*
X105300000Y-49460000D01*
X105300000Y-49460000D02*
X105300000Y-44160000D01*
X105300000Y-44160000D02*
X69620000Y-44160000D01*
X69620000Y-44160000D02*
X69620000Y-45810000D01*
X69620000Y-45810000D02*
G75*
G02*
X69620000Y-47810000I0J-1000000D01*
G01*
%TO.C,SW4*%
X75680000Y-34150000D02*
X71180000Y-34150000D01*
X76930000Y-38150000D02*
X76930000Y-36650000D01*
X71180000Y-40650000D02*
X75680000Y-40650000D01*
X69930000Y-36650000D02*
X69930000Y-38150000D01*
%TO.C,SW3*%
X108410000Y-36660000D02*
X108410000Y-38160000D01*
X109660000Y-40660000D02*
X114160000Y-40660000D01*
X115410000Y-38160000D02*
X115410000Y-36660000D01*
X114160000Y-34160000D02*
X109660000Y-34160000D01*
%TO.C,SW2*%
X108410000Y-54350000D02*
X108410000Y-55850000D01*
X109660000Y-58350000D02*
X114160000Y-58350000D01*
X115410000Y-55850000D02*
X115410000Y-54350000D01*
X114160000Y-51850000D02*
X109660000Y-51850000D01*
%TO.C,SW1*%
X108410000Y-45505000D02*
X108410000Y-47005000D01*
X109660000Y-49505000D02*
X114160000Y-49505000D01*
X115410000Y-47005000D02*
X115410000Y-45505000D01*
X114160000Y-43005000D02*
X109660000Y-43005000D01*
%TO.C,J2*%
X68820000Y-50140000D02*
X66160000Y-50140000D01*
X68820000Y-50140000D02*
X68820000Y-42460000D01*
X68820000Y-42460000D02*
X66160000Y-42460000D01*
X66160000Y-50140000D02*
X66160000Y-42460000D01*
X66160000Y-52740000D02*
X66160000Y-51410000D01*
X67490000Y-52740000D02*
X66160000Y-52740000D01*
%TO.C,C2*%
X89479000Y-59540000D02*
X88221000Y-59540000D01*
X89479000Y-57700000D02*
X88221000Y-57700000D01*
%TO.C,C1*%
X95521000Y-57750000D02*
X96779000Y-57750000D01*
X95521000Y-59590000D02*
X96779000Y-59590000D01*
%TO.C,J3*%
D10*
X98466666Y-73032380D02*
X98466666Y-73746666D01*
X98419047Y-73889523D01*
X98323809Y-73984761D01*
X98180952Y-74032380D01*
X98085714Y-74032380D01*
X98847619Y-73032380D02*
X99466666Y-73032380D01*
X99133333Y-73413333D01*
X99276190Y-73413333D01*
X99371428Y-73460952D01*
X99419047Y-73508571D01*
X99466666Y-73603809D01*
X99466666Y-73841904D01*
X99419047Y-73937142D01*
X99371428Y-73984761D01*
X99276190Y-74032380D01*
X98990476Y-74032380D01*
X98895238Y-73984761D01*
X98847619Y-73937142D01*
%TO.C,J1*%
X111066666Y-30152380D02*
X111066666Y-30866666D01*
X111019047Y-31009523D01*
X110923809Y-31104761D01*
X110780952Y-31152380D01*
X110685714Y-31152380D01*
X112066666Y-31152380D02*
X111495238Y-31152380D01*
X111780952Y-31152380D02*
X111780952Y-30152380D01*
X111685714Y-30295238D01*
X111590476Y-30390476D01*
X111495238Y-30438095D01*
%TO.C,Y1*%
X92053809Y-54566190D02*
X92053809Y-55042380D01*
X91720476Y-54042380D02*
X92053809Y-54566190D01*
X92387142Y-54042380D01*
X93244285Y-55042380D02*
X92672857Y-55042380D01*
X92958571Y-55042380D02*
X92958571Y-54042380D01*
X92863333Y-54185238D01*
X92768095Y-54280476D01*
X92672857Y-54328095D01*
%TO.C,J4*%
X72196666Y-61432380D02*
X72196666Y-62146666D01*
X72149047Y-62289523D01*
X72053809Y-62384761D01*
X71910952Y-62432380D01*
X71815714Y-62432380D01*
X73101428Y-61765714D02*
X73101428Y-62432380D01*
X72863333Y-61384761D02*
X72625238Y-62099047D01*
X73244285Y-62099047D01*
%TO.C,C3*%
X88287142Y-54616666D02*
X88334761Y-54664285D01*
X88382380Y-54807142D01*
X88382380Y-54902380D01*
X88334761Y-55045238D01*
X88239523Y-55140476D01*
X88144285Y-55188095D01*
X87953809Y-55235714D01*
X87810952Y-55235714D01*
X87620476Y-55188095D01*
X87525238Y-55140476D01*
X87430000Y-55045238D01*
X87382380Y-54902380D01*
X87382380Y-54807142D01*
X87430000Y-54664285D01*
X87477619Y-54616666D01*
X87382380Y-54283333D02*
X87382380Y-53664285D01*
X87763333Y-53997619D01*
X87763333Y-53854761D01*
X87810952Y-53759523D01*
X87858571Y-53711904D01*
X87953809Y-53664285D01*
X88191904Y-53664285D01*
X88287142Y-53711904D01*
X88334761Y-53759523D01*
X88382380Y-53854761D01*
X88382380Y-54140476D01*
X88334761Y-54235714D01*
X88287142Y-54283333D01*
%TO.C,F1*%
X96566666Y-25498571D02*
X96233333Y-25498571D01*
X96233333Y-26022380D02*
X96233333Y-25022380D01*
X96709523Y-25022380D01*
X97614285Y-26022380D02*
X97042857Y-26022380D01*
X97328571Y-26022380D02*
X97328571Y-25022380D01*
X97233333Y-25165238D01*
X97138095Y-25260476D01*
X97042857Y-25308095D01*
%TO.C,U2*%
X85943095Y-63312380D02*
X85943095Y-64121904D01*
X85990714Y-64217142D01*
X86038333Y-64264761D01*
X86133571Y-64312380D01*
X86324047Y-64312380D01*
X86419285Y-64264761D01*
X86466904Y-64217142D01*
X86514523Y-64121904D01*
X86514523Y-63312380D01*
X86943095Y-63407619D02*
X86990714Y-63360000D01*
X87085952Y-63312380D01*
X87324047Y-63312380D01*
X87419285Y-63360000D01*
X87466904Y-63407619D01*
X87514523Y-63502857D01*
X87514523Y-63598095D01*
X87466904Y-63740952D01*
X86895476Y-64312380D01*
X87514523Y-64312380D01*
X111200714Y-70282380D02*
X110867380Y-69806190D01*
X110629285Y-70282380D02*
X110629285Y-69282380D01*
X111010238Y-69282380D01*
X111105476Y-69330000D01*
X111153095Y-69377619D01*
X111200714Y-69472857D01*
X111200714Y-69615714D01*
X111153095Y-69710952D01*
X111105476Y-69758571D01*
X111010238Y-69806190D01*
X110629285Y-69806190D01*
X111819761Y-69282380D02*
X112010238Y-69282380D01*
X112105476Y-69330000D01*
X112200714Y-69425238D01*
X112248333Y-69615714D01*
X112248333Y-69949047D01*
X112200714Y-70139523D01*
X112105476Y-70234761D01*
X112010238Y-70282380D01*
X111819761Y-70282380D01*
X111724523Y-70234761D01*
X111629285Y-70139523D01*
X111581666Y-69949047D01*
X111581666Y-69615714D01*
X111629285Y-69425238D01*
X111724523Y-69330000D01*
X111819761Y-69282380D01*
X110705000Y-62632380D02*
X110705000Y-61632380D01*
X110943095Y-61632380D01*
X111085952Y-61680000D01*
X111181190Y-61775238D01*
X111228809Y-61870476D01*
X111276428Y-62060952D01*
X111276428Y-62203809D01*
X111228809Y-62394285D01*
X111181190Y-62489523D01*
X111085952Y-62584761D01*
X110943095Y-62632380D01*
X110705000Y-62632380D01*
X111705000Y-62632380D02*
X111705000Y-61632380D01*
X62791666Y-69292380D02*
X63125000Y-70292380D01*
X63458333Y-69292380D01*
X64363095Y-70197142D02*
X64315476Y-70244761D01*
X64172619Y-70292380D01*
X64077380Y-70292380D01*
X63934523Y-70244761D01*
X63839285Y-70149523D01*
X63791666Y-70054285D01*
X63744047Y-69863809D01*
X63744047Y-69720952D01*
X63791666Y-69530476D01*
X63839285Y-69435238D01*
X63934523Y-69340000D01*
X64077380Y-69292380D01*
X64172619Y-69292380D01*
X64315476Y-69340000D01*
X64363095Y-69387619D01*
X65363095Y-70197142D02*
X65315476Y-70244761D01*
X65172619Y-70292380D01*
X65077380Y-70292380D01*
X64934523Y-70244761D01*
X64839285Y-70149523D01*
X64791666Y-70054285D01*
X64744047Y-69863809D01*
X64744047Y-69720952D01*
X64791666Y-69530476D01*
X64839285Y-69435238D01*
X64934523Y-69340000D01*
X65077380Y-69292380D01*
X65172619Y-69292380D01*
X65315476Y-69340000D01*
X65363095Y-69387619D01*
X63173095Y-61830000D02*
X63077857Y-61782380D01*
X62935000Y-61782380D01*
X62792142Y-61830000D01*
X62696904Y-61925238D01*
X62649285Y-62020476D01*
X62601666Y-62210952D01*
X62601666Y-62353809D01*
X62649285Y-62544285D01*
X62696904Y-62639523D01*
X62792142Y-62734761D01*
X62935000Y-62782380D01*
X63030238Y-62782380D01*
X63173095Y-62734761D01*
X63220714Y-62687142D01*
X63220714Y-62353809D01*
X63030238Y-62353809D01*
X63649285Y-62782380D02*
X63649285Y-61782380D01*
X64220714Y-62782380D01*
X64220714Y-61782380D01*
X64696904Y-62782380D02*
X64696904Y-61782380D01*
X64935000Y-61782380D01*
X65077857Y-61830000D01*
X65173095Y-61925238D01*
X65220714Y-62020476D01*
X65268333Y-62210952D01*
X65268333Y-62353809D01*
X65220714Y-62544285D01*
X65173095Y-62639523D01*
X65077857Y-62734761D01*
X64935000Y-62782380D01*
X64696904Y-62782380D01*
%TO.C,R5*%
X72383333Y-31412380D02*
X72050000Y-30936190D01*
X71811904Y-31412380D02*
X71811904Y-30412380D01*
X72192857Y-30412380D01*
X72288095Y-30460000D01*
X72335714Y-30507619D01*
X72383333Y-30602857D01*
X72383333Y-30745714D01*
X72335714Y-30840952D01*
X72288095Y-30888571D01*
X72192857Y-30936190D01*
X71811904Y-30936190D01*
X73288095Y-30412380D02*
X72811904Y-30412380D01*
X72764285Y-30888571D01*
X72811904Y-30840952D01*
X72907142Y-30793333D01*
X73145238Y-30793333D01*
X73240476Y-30840952D01*
X73288095Y-30888571D01*
X73335714Y-30983809D01*
X73335714Y-31221904D01*
X73288095Y-31317142D01*
X73240476Y-31364761D01*
X73145238Y-31412380D01*
X72907142Y-31412380D01*
X72811904Y-31364761D01*
X72764285Y-31317142D01*
%TO.C,R4*%
X93562380Y-34246666D02*
X93086190Y-34580000D01*
X93562380Y-34818095D02*
X92562380Y-34818095D01*
X92562380Y-34437142D01*
X92610000Y-34341904D01*
X92657619Y-34294285D01*
X92752857Y-34246666D01*
X92895714Y-34246666D01*
X92990952Y-34294285D01*
X93038571Y-34341904D01*
X93086190Y-34437142D01*
X93086190Y-34818095D01*
X92895714Y-33389523D02*
X93562380Y-33389523D01*
X92514761Y-33627619D02*
X93229047Y-33865714D01*
X93229047Y-33246666D01*
%TO.C,R3*%
X103132380Y-34246666D02*
X102656190Y-34580000D01*
X103132380Y-34818095D02*
X102132380Y-34818095D01*
X102132380Y-34437142D01*
X102180000Y-34341904D01*
X102227619Y-34294285D01*
X102322857Y-34246666D01*
X102465714Y-34246666D01*
X102560952Y-34294285D01*
X102608571Y-34341904D01*
X102656190Y-34437142D01*
X102656190Y-34818095D01*
X102132380Y-33913333D02*
X102132380Y-33294285D01*
X102513333Y-33627619D01*
X102513333Y-33484761D01*
X102560952Y-33389523D01*
X102608571Y-33341904D01*
X102703809Y-33294285D01*
X102941904Y-33294285D01*
X103037142Y-33341904D01*
X103084761Y-33389523D01*
X103132380Y-33484761D01*
X103132380Y-33770476D01*
X103084761Y-33865714D01*
X103037142Y-33913333D01*
%TO.C,R2*%
X96842380Y-34246666D02*
X96366190Y-34580000D01*
X96842380Y-34818095D02*
X95842380Y-34818095D01*
X95842380Y-34437142D01*
X95890000Y-34341904D01*
X95937619Y-34294285D01*
X96032857Y-34246666D01*
X96175714Y-34246666D01*
X96270952Y-34294285D01*
X96318571Y-34341904D01*
X96366190Y-34437142D01*
X96366190Y-34818095D01*
X95937619Y-33865714D02*
X95890000Y-33818095D01*
X95842380Y-33722857D01*
X95842380Y-33484761D01*
X95890000Y-33389523D01*
X95937619Y-33341904D01*
X96032857Y-33294285D01*
X96128095Y-33294285D01*
X96270952Y-33341904D01*
X96842380Y-33913333D01*
X96842380Y-33294285D01*
%TO.C,R1*%
X99987380Y-34246666D02*
X99511190Y-34580000D01*
X99987380Y-34818095D02*
X98987380Y-34818095D01*
X98987380Y-34437142D01*
X99035000Y-34341904D01*
X99082619Y-34294285D01*
X99177857Y-34246666D01*
X99320714Y-34246666D01*
X99415952Y-34294285D01*
X99463571Y-34341904D01*
X99511190Y-34437142D01*
X99511190Y-34818095D01*
X99987380Y-33294285D02*
X99987380Y-33865714D01*
X99987380Y-33580000D02*
X98987380Y-33580000D01*
X99130238Y-33675238D01*
X99225476Y-33770476D01*
X99273095Y-33865714D01*
%TO.C,D2*%
X88042380Y-33428095D02*
X87042380Y-33428095D01*
X87042380Y-33190000D01*
X87090000Y-33047142D01*
X87185238Y-32951904D01*
X87280476Y-32904285D01*
X87470952Y-32856666D01*
X87613809Y-32856666D01*
X87804285Y-32904285D01*
X87899523Y-32951904D01*
X87994761Y-33047142D01*
X88042380Y-33190000D01*
X88042380Y-33428095D01*
X87137619Y-32475714D02*
X87090000Y-32428095D01*
X87042380Y-32332857D01*
X87042380Y-32094761D01*
X87090000Y-31999523D01*
X87137619Y-31951904D01*
X87232857Y-31904285D01*
X87328095Y-31904285D01*
X87470952Y-31951904D01*
X88042380Y-32523333D01*
X88042380Y-31904285D01*
X88762380Y-25921904D02*
X87762380Y-25921904D01*
X88762380Y-25350476D02*
X88190952Y-25779047D01*
X87762380Y-25350476D02*
X88333809Y-25921904D01*
%TO.C,D1*%
X82112380Y-32058095D02*
X81112380Y-32058095D01*
X81112380Y-31820000D01*
X81160000Y-31677142D01*
X81255238Y-31581904D01*
X81350476Y-31534285D01*
X81540952Y-31486666D01*
X81683809Y-31486666D01*
X81874285Y-31534285D01*
X81969523Y-31581904D01*
X82064761Y-31677142D01*
X82112380Y-31820000D01*
X82112380Y-32058095D01*
X82112380Y-30534285D02*
X82112380Y-31105714D01*
X82112380Y-30820000D02*
X81112380Y-30820000D01*
X81255238Y-30915238D01*
X81350476Y-31010476D01*
X81398095Y-31105714D01*
X83442380Y-25921904D02*
X82442380Y-25921904D01*
X83442380Y-25350476D02*
X82870952Y-25779047D01*
X82442380Y-25350476D02*
X83013809Y-25921904D01*
%TO.C,U1*%
X77352380Y-46931904D02*
X78161904Y-46931904D01*
X78257142Y-46884285D01*
X78304761Y-46836666D01*
X78352380Y-46741428D01*
X78352380Y-46550952D01*
X78304761Y-46455714D01*
X78257142Y-46408095D01*
X78161904Y-46360476D01*
X77352380Y-46360476D01*
X78352380Y-45360476D02*
X78352380Y-45931904D01*
X78352380Y-45646190D02*
X77352380Y-45646190D01*
X77495238Y-45741428D01*
X77590476Y-45836666D01*
X77638095Y-45931904D01*
%TO.C,SW4*%
X72256666Y-37884761D02*
X72399523Y-37932380D01*
X72637619Y-37932380D01*
X72732857Y-37884761D01*
X72780476Y-37837142D01*
X72828095Y-37741904D01*
X72828095Y-37646666D01*
X72780476Y-37551428D01*
X72732857Y-37503809D01*
X72637619Y-37456190D01*
X72447142Y-37408571D01*
X72351904Y-37360952D01*
X72304285Y-37313333D01*
X72256666Y-37218095D01*
X72256666Y-37122857D01*
X72304285Y-37027619D01*
X72351904Y-36980000D01*
X72447142Y-36932380D01*
X72685238Y-36932380D01*
X72828095Y-36980000D01*
X73161428Y-36932380D02*
X73399523Y-37932380D01*
X73590000Y-37218095D01*
X73780476Y-37932380D01*
X74018571Y-36932380D01*
X74828095Y-37265714D02*
X74828095Y-37932380D01*
X74590000Y-36884761D02*
X74351904Y-37599047D01*
X74970952Y-37599047D01*
X68272380Y-38738095D02*
X67796190Y-39071428D01*
X68272380Y-39309523D02*
X67272380Y-39309523D01*
X67272380Y-38928571D01*
X67320000Y-38833333D01*
X67367619Y-38785714D01*
X67462857Y-38738095D01*
X67605714Y-38738095D01*
X67700952Y-38785714D01*
X67748571Y-38833333D01*
X67796190Y-38928571D01*
X67796190Y-39309523D01*
X68224761Y-37928571D02*
X68272380Y-38023809D01*
X68272380Y-38214285D01*
X68224761Y-38309523D01*
X68129523Y-38357142D01*
X67748571Y-38357142D01*
X67653333Y-38309523D01*
X67605714Y-38214285D01*
X67605714Y-38023809D01*
X67653333Y-37928571D01*
X67748571Y-37880952D01*
X67843809Y-37880952D01*
X67939047Y-38357142D01*
X68224761Y-37500000D02*
X68272380Y-37404761D01*
X68272380Y-37214285D01*
X68224761Y-37119047D01*
X68129523Y-37071428D01*
X68081904Y-37071428D01*
X67986666Y-37119047D01*
X67939047Y-37214285D01*
X67939047Y-37357142D01*
X67891428Y-37452380D01*
X67796190Y-37500000D01*
X67748571Y-37500000D01*
X67653333Y-37452380D01*
X67605714Y-37357142D01*
X67605714Y-37214285D01*
X67653333Y-37119047D01*
X68224761Y-36261904D02*
X68272380Y-36357142D01*
X68272380Y-36547619D01*
X68224761Y-36642857D01*
X68129523Y-36690476D01*
X67748571Y-36690476D01*
X67653333Y-36642857D01*
X67605714Y-36547619D01*
X67605714Y-36357142D01*
X67653333Y-36261904D01*
X67748571Y-36214285D01*
X67843809Y-36214285D01*
X67939047Y-36690476D01*
X67605714Y-35928571D02*
X67605714Y-35547619D01*
X67272380Y-35785714D02*
X68129523Y-35785714D01*
X68224761Y-35738095D01*
X68272380Y-35642857D01*
X68272380Y-35547619D01*
%TO.C,SW3*%
X110596666Y-37794761D02*
X110739523Y-37842380D01*
X110977619Y-37842380D01*
X111072857Y-37794761D01*
X111120476Y-37747142D01*
X111168095Y-37651904D01*
X111168095Y-37556666D01*
X111120476Y-37461428D01*
X111072857Y-37413809D01*
X110977619Y-37366190D01*
X110787142Y-37318571D01*
X110691904Y-37270952D01*
X110644285Y-37223333D01*
X110596666Y-37128095D01*
X110596666Y-37032857D01*
X110644285Y-36937619D01*
X110691904Y-36890000D01*
X110787142Y-36842380D01*
X111025238Y-36842380D01*
X111168095Y-36890000D01*
X111501428Y-36842380D02*
X111739523Y-37842380D01*
X111930000Y-37128095D01*
X112120476Y-37842380D01*
X112358571Y-36842380D01*
X112644285Y-36842380D02*
X113263333Y-36842380D01*
X112930000Y-37223333D01*
X113072857Y-37223333D01*
X113168095Y-37270952D01*
X113215714Y-37318571D01*
X113263333Y-37413809D01*
X113263333Y-37651904D01*
X113215714Y-37747142D01*
X113168095Y-37794761D01*
X113072857Y-37842380D01*
X112787142Y-37842380D01*
X112691904Y-37794761D01*
X112644285Y-37747142D01*
X106032380Y-38038095D02*
X106841904Y-38038095D01*
X106937142Y-37990476D01*
X106984761Y-37942857D01*
X107032380Y-37847619D01*
X107032380Y-37657142D01*
X106984761Y-37561904D01*
X106937142Y-37514285D01*
X106841904Y-37466666D01*
X106032380Y-37466666D01*
X106365714Y-36990476D02*
X107365714Y-36990476D01*
X106413333Y-36990476D02*
X106365714Y-36895238D01*
X106365714Y-36704761D01*
X106413333Y-36609523D01*
X106460952Y-36561904D01*
X106556190Y-36514285D01*
X106841904Y-36514285D01*
X106937142Y-36561904D01*
X106984761Y-36609523D01*
X107032380Y-36704761D01*
X107032380Y-36895238D01*
X106984761Y-36990476D01*
%TO.C,SW2*%
X110736666Y-55504761D02*
X110879523Y-55552380D01*
X111117619Y-55552380D01*
X111212857Y-55504761D01*
X111260476Y-55457142D01*
X111308095Y-55361904D01*
X111308095Y-55266666D01*
X111260476Y-55171428D01*
X111212857Y-55123809D01*
X111117619Y-55076190D01*
X110927142Y-55028571D01*
X110831904Y-54980952D01*
X110784285Y-54933333D01*
X110736666Y-54838095D01*
X110736666Y-54742857D01*
X110784285Y-54647619D01*
X110831904Y-54600000D01*
X110927142Y-54552380D01*
X111165238Y-54552380D01*
X111308095Y-54600000D01*
X111641428Y-54552380D02*
X111879523Y-55552380D01*
X112070000Y-54838095D01*
X112260476Y-55552380D01*
X112498571Y-54552380D01*
X112831904Y-54647619D02*
X112879523Y-54600000D01*
X112974761Y-54552380D01*
X113212857Y-54552380D01*
X113308095Y-54600000D01*
X113355714Y-54647619D01*
X113403333Y-54742857D01*
X113403333Y-54838095D01*
X113355714Y-54980952D01*
X112784285Y-55552380D01*
X113403333Y-55552380D01*
X107032380Y-56550476D02*
X106032380Y-56550476D01*
X106032380Y-56312380D01*
X106080000Y-56169523D01*
X106175238Y-56074285D01*
X106270476Y-56026666D01*
X106460952Y-55979047D01*
X106603809Y-55979047D01*
X106794285Y-56026666D01*
X106889523Y-56074285D01*
X106984761Y-56169523D01*
X107032380Y-56312380D01*
X107032380Y-56550476D01*
X107032380Y-55407619D02*
X106984761Y-55502857D01*
X106937142Y-55550476D01*
X106841904Y-55598095D01*
X106556190Y-55598095D01*
X106460952Y-55550476D01*
X106413333Y-55502857D01*
X106365714Y-55407619D01*
X106365714Y-55264761D01*
X106413333Y-55169523D01*
X106460952Y-55121904D01*
X106556190Y-55074285D01*
X106841904Y-55074285D01*
X106937142Y-55121904D01*
X106984761Y-55169523D01*
X107032380Y-55264761D01*
X107032380Y-55407619D01*
X106365714Y-54740952D02*
X107032380Y-54550476D01*
X106556190Y-54360000D01*
X107032380Y-54169523D01*
X106365714Y-53979047D01*
X106365714Y-53598095D02*
X107032380Y-53598095D01*
X106460952Y-53598095D02*
X106413333Y-53550476D01*
X106365714Y-53455238D01*
X106365714Y-53312380D01*
X106413333Y-53217142D01*
X106508571Y-53169523D01*
X107032380Y-53169523D01*
%TO.C,SW1*%
X110516666Y-46664761D02*
X110659523Y-46712380D01*
X110897619Y-46712380D01*
X110992857Y-46664761D01*
X111040476Y-46617142D01*
X111088095Y-46521904D01*
X111088095Y-46426666D01*
X111040476Y-46331428D01*
X110992857Y-46283809D01*
X110897619Y-46236190D01*
X110707142Y-46188571D01*
X110611904Y-46140952D01*
X110564285Y-46093333D01*
X110516666Y-45998095D01*
X110516666Y-45902857D01*
X110564285Y-45807619D01*
X110611904Y-45760000D01*
X110707142Y-45712380D01*
X110945238Y-45712380D01*
X111088095Y-45760000D01*
X111421428Y-45712380D02*
X111659523Y-46712380D01*
X111850000Y-45998095D01*
X112040476Y-46712380D01*
X112278571Y-45712380D01*
X113183333Y-46712380D02*
X112611904Y-46712380D01*
X112897619Y-46712380D02*
X112897619Y-45712380D01*
X112802380Y-45855238D01*
X112707142Y-45950476D01*
X112611904Y-45998095D01*
X106984761Y-46900000D02*
X107032380Y-46757142D01*
X107032380Y-46519047D01*
X106984761Y-46423809D01*
X106937142Y-46376190D01*
X106841904Y-46328571D01*
X106746666Y-46328571D01*
X106651428Y-46376190D01*
X106603809Y-46423809D01*
X106556190Y-46519047D01*
X106508571Y-46709523D01*
X106460952Y-46804761D01*
X106413333Y-46852380D01*
X106318095Y-46900000D01*
X106222857Y-46900000D01*
X106127619Y-46852380D01*
X106080000Y-46804761D01*
X106032380Y-46709523D01*
X106032380Y-46471428D01*
X106080000Y-46328571D01*
X106984761Y-45519047D02*
X107032380Y-45614285D01*
X107032380Y-45804761D01*
X106984761Y-45900000D01*
X106889523Y-45947619D01*
X106508571Y-45947619D01*
X106413333Y-45900000D01*
X106365714Y-45804761D01*
X106365714Y-45614285D01*
X106413333Y-45519047D01*
X106508571Y-45471428D01*
X106603809Y-45471428D01*
X106699047Y-45947619D01*
X106365714Y-45185714D02*
X106365714Y-44804761D01*
X106032380Y-45042857D02*
X106889523Y-45042857D01*
X106984761Y-44995238D01*
X107032380Y-44900000D01*
X107032380Y-44804761D01*
%TO.C,J2*%
X70436666Y-48052380D02*
X70436666Y-48766666D01*
X70389047Y-48909523D01*
X70293809Y-49004761D01*
X70150952Y-49052380D01*
X70055714Y-49052380D01*
X70865238Y-48147619D02*
X70912857Y-48100000D01*
X71008095Y-48052380D01*
X71246190Y-48052380D01*
X71341428Y-48100000D01*
X71389047Y-48147619D01*
X71436666Y-48242857D01*
X71436666Y-48338095D01*
X71389047Y-48480952D01*
X70817619Y-49052380D01*
X71436666Y-49052380D01*
%TO.C,C2*%
X88343333Y-61427142D02*
X88295714Y-61474761D01*
X88152857Y-61522380D01*
X88057619Y-61522380D01*
X87914761Y-61474761D01*
X87819523Y-61379523D01*
X87771904Y-61284285D01*
X87724285Y-61093809D01*
X87724285Y-60950952D01*
X87771904Y-60760476D01*
X87819523Y-60665238D01*
X87914761Y-60570000D01*
X88057619Y-60522380D01*
X88152857Y-60522380D01*
X88295714Y-60570000D01*
X88343333Y-60617619D01*
X88724285Y-60617619D02*
X88771904Y-60570000D01*
X88867142Y-60522380D01*
X89105238Y-60522380D01*
X89200476Y-60570000D01*
X89248095Y-60617619D01*
X89295714Y-60712857D01*
X89295714Y-60808095D01*
X89248095Y-60950952D01*
X88676666Y-61522380D01*
X89295714Y-61522380D01*
%TO.C,C1*%
X95633333Y-61407142D02*
X95585714Y-61454761D01*
X95442857Y-61502380D01*
X95347619Y-61502380D01*
X95204761Y-61454761D01*
X95109523Y-61359523D01*
X95061904Y-61264285D01*
X95014285Y-61073809D01*
X95014285Y-60930952D01*
X95061904Y-60740476D01*
X95109523Y-60645238D01*
X95204761Y-60550000D01*
X95347619Y-60502380D01*
X95442857Y-60502380D01*
X95585714Y-60550000D01*
X95633333Y-60597619D01*
X96585714Y-61502380D02*
X96014285Y-61502380D01*
X96300000Y-61502380D02*
X96300000Y-60502380D01*
X96204761Y-60645238D01*
X96109523Y-60740476D01*
X96014285Y-60788095D01*
%TD*%
M02*
