%TF.GenerationSoftware,KiCad,Pcbnew,(5.1.9)-1*%
%TF.CreationDate,2021-02-09T22:22:39+00:00*%
%TF.ProjectId,DMX Relay,444d5820-5265-46c6-9179-2e6b69636164,rev?*%
%TF.SameCoordinates,Original*%
%TF.FileFunction,Copper,L2,Bot*%
%TF.FilePolarity,Positive*%
%FSLAX46Y46*%
G04 Gerber Fmt 4.6, Leading zero omitted, Abs format (unit mm)*
G04 Created by KiCad (PCBNEW (5.1.9)-1) date 2021-02-09 22:22:39*
%MOMM*%
%LPD*%
G01*
G04 APERTURE LIST*
%TA.AperFunction,ComponentPad*%
%ADD10O,1.700000X1.700000*%
%TD*%
%TA.AperFunction,ComponentPad*%
%ADD11R,1.700000X1.700000*%
%TD*%
%TA.AperFunction,ComponentPad*%
%ADD12C,3.000000*%
%TD*%
%TA.AperFunction,ComponentPad*%
%ADD13R,3.000000X3.000000*%
%TD*%
%TA.AperFunction,ComponentPad*%
%ADD14C,1.500000*%
%TD*%
%TA.AperFunction,ComponentPad*%
%ADD15C,1.600000*%
%TD*%
%TA.AperFunction,ComponentPad*%
%ADD16C,2.475000*%
%TD*%
%TA.AperFunction,ComponentPad*%
%ADD17C,1.700000*%
%TD*%
%TA.AperFunction,ComponentPad*%
%ADD18O,1.600000X1.600000*%
%TD*%
%TA.AperFunction,ComponentPad*%
%ADD19C,1.800000*%
%TD*%
%TA.AperFunction,ComponentPad*%
%ADD20R,1.800000X1.800000*%
%TD*%
%TA.AperFunction,ComponentPad*%
%ADD21O,2.400000X2.400000*%
%TD*%
%TA.AperFunction,ComponentPad*%
%ADD22R,2.400000X2.400000*%
%TD*%
%TA.AperFunction,ComponentPad*%
%ADD23R,1.600000X1.600000*%
%TD*%
%TA.AperFunction,ComponentPad*%
%ADD24C,2.000000*%
%TD*%
%TA.AperFunction,ViaPad*%
%ADD25C,0.600000*%
%TD*%
%TA.AperFunction,Conductor*%
%ADD26C,3.000000*%
%TD*%
%TA.AperFunction,Conductor*%
%ADD27C,0.400000*%
%TD*%
%TA.AperFunction,Conductor*%
%ADD28C,0.254000*%
%TD*%
%TA.AperFunction,Conductor*%
%ADD29C,0.100000*%
%TD*%
G04 APERTURE END LIST*
D10*
%TO.P,J3,10*%
%TO.N,+5V*%
X77530000Y-73690000D03*
%TO.P,J3,9*%
%TO.N,Relay8*%
X80070000Y-73690000D03*
%TO.P,J3,8*%
%TO.N,Relay7*%
X82610000Y-73690000D03*
%TO.P,J3,7*%
%TO.N,Relay6*%
X85150000Y-73690000D03*
%TO.P,J3,6*%
%TO.N,Relay5*%
X87690000Y-73690000D03*
%TO.P,J3,5*%
%TO.N,Relay4*%
X90230000Y-73690000D03*
%TO.P,J3,4*%
%TO.N,Relay3*%
X92770000Y-73690000D03*
%TO.P,J3,3*%
%TO.N,Relay2*%
X95310000Y-73690000D03*
%TO.P,J3,2*%
%TO.N,Relay1*%
X97850000Y-73690000D03*
D11*
%TO.P,J3,1*%
%TO.N,GND*%
X100390000Y-73690000D03*
%TD*%
D12*
%TO.P,J1,2*%
%TO.N,Net-(F1-Pad2)*%
X108870000Y-28210000D03*
D13*
%TO.P,J1,1*%
%TO.N,GND*%
X113950000Y-28210000D03*
%TD*%
D14*
%TO.P,Y1,2*%
%TO.N,Net-(C1-Pad1)*%
X94930000Y-54630000D03*
%TO.P,Y1,1*%
%TO.N,Net-(C2-Pad1)*%
X90050000Y-54630000D03*
%TD*%
D10*
%TO.P,J4,4*%
%TO.N,Relay8*%
X76100000Y-58210000D03*
%TO.P,J4,3*%
%TO.N,DMX_Data*%
X73560000Y-58210000D03*
%TO.P,J4,2*%
%TO.N,Tx*%
X76100000Y-55670000D03*
D11*
%TO.P,J4,1*%
%TO.N,Rx*%
X73560000Y-55670000D03*
%TD*%
D15*
%TO.P,C3,2*%
%TO.N,GND*%
X85260000Y-55540000D03*
%TO.P,C3,1*%
%TO.N,+5V*%
X85260000Y-53040000D03*
%TD*%
D16*
%TO.P,F1,2*%
%TO.N,Net-(F1-Pad2)*%
X102900000Y-26860000D03*
%TO.P,F1,1*%
%TO.N,+5V*%
X91000000Y-26860000D03*
%TO.P,F1,2*%
%TO.N,Net-(F1-Pad2)*%
X99200000Y-26860000D03*
%TO.P,F1,1*%
%TO.N,+5V*%
X94700000Y-26860000D03*
%TD*%
D10*
%TO.P,U2,8*%
%TO.N,+5V*%
X67585000Y-69760000D03*
%TO.P,U2,7*%
%TO.N,N/C*%
X67585000Y-67220000D03*
%TO.P,U2,6*%
X67585000Y-64680000D03*
D17*
%TO.P,U2,5*%
%TO.N,GND*%
X67585000Y-62140000D03*
D10*
%TO.P,U2,4*%
%TO.N,N/C*%
X108545000Y-62200000D03*
%TO.P,U2,3*%
X108545000Y-64740000D03*
%TO.P,U2,2*%
%TO.N,GND*%
X108545000Y-67280000D03*
D11*
%TO.P,U2,1*%
%TO.N,DMX_Data*%
X108545000Y-69820000D03*
%TD*%
D18*
%TO.P,R5,2*%
%TO.N,GND*%
X76360000Y-30980000D03*
D15*
%TO.P,R5,1*%
%TO.N,Net-(D3-Pad1)*%
X68740000Y-30980000D03*
%TD*%
D18*
%TO.P,R4,2*%
%TO.N,Net-(R4-Pad2)*%
X92930000Y-38730000D03*
D15*
%TO.P,R4,1*%
%TO.N,+5V*%
X92930000Y-31110000D03*
%TD*%
D18*
%TO.P,R3,2*%
%TO.N,Up*%
X102500000Y-38730000D03*
D15*
%TO.P,R3,1*%
%TO.N,+5V*%
X102500000Y-31110000D03*
%TD*%
%TO.P,R2,1*%
%TO.N,+5V*%
X96210000Y-31110000D03*
D18*
%TO.P,R2,2*%
%TO.N,Down*%
X96210000Y-38730000D03*
%TD*%
%TO.P,R1,2*%
%TO.N,Set*%
X99355000Y-38730000D03*
D15*
%TO.P,R1,1*%
%TO.N,+5V*%
X99355000Y-31110000D03*
%TD*%
D19*
%TO.P,D3,2*%
%TO.N,+5V*%
X72420000Y-25620000D03*
D20*
%TO.P,D3,1*%
%TO.N,Net-(D3-Pad1)*%
X72420000Y-28160000D03*
%TD*%
D21*
%TO.P,D2,2*%
%TO.N,GND*%
X86110000Y-38360000D03*
D22*
%TO.P,D2,1*%
%TO.N,+5V*%
X86110000Y-25660000D03*
%TD*%
D21*
%TO.P,D1,2*%
%TO.N,GND*%
X80790000Y-35820000D03*
D22*
%TO.P,D1,1*%
%TO.N,+5V*%
X80790000Y-25660000D03*
%TD*%
D18*
%TO.P,U1,28*%
%TO.N,SCL*%
X70950000Y-43000000D03*
%TO.P,U1,14*%
%TO.N,Relay1*%
X103970000Y-50620000D03*
%TO.P,U1,27*%
%TO.N,SDA*%
X73490000Y-43000000D03*
%TO.P,U1,13*%
%TO.N,Relay2*%
X101430000Y-50620000D03*
%TO.P,U1,26*%
%TO.N,N/C*%
X76030000Y-43000000D03*
%TO.P,U1,12*%
%TO.N,Relay3*%
X98890000Y-50620000D03*
%TO.P,U1,25*%
%TO.N,N/C*%
X78570000Y-43000000D03*
%TO.P,U1,11*%
%TO.N,Relay4*%
X96350000Y-50620000D03*
%TO.P,U1,24*%
%TO.N,N/C*%
X81110000Y-43000000D03*
%TO.P,U1,10*%
%TO.N,Net-(C1-Pad1)*%
X93810000Y-50620000D03*
%TO.P,U1,23*%
%TO.N,N/C*%
X83650000Y-43000000D03*
%TO.P,U1,9*%
%TO.N,Net-(C2-Pad1)*%
X91270000Y-50620000D03*
%TO.P,U1,22*%
%TO.N,GND*%
X86190000Y-43000000D03*
%TO.P,U1,8*%
X88730000Y-50620000D03*
%TO.P,U1,21*%
%TO.N,N/C*%
X88730000Y-43000000D03*
%TO.P,U1,7*%
%TO.N,+5V*%
X86190000Y-50620000D03*
%TO.P,U1,20*%
%TO.N,N/C*%
X91270000Y-43000000D03*
%TO.P,U1,6*%
%TO.N,Relay5*%
X83650000Y-50620000D03*
%TO.P,U1,19*%
%TO.N,N/C*%
X93810000Y-43000000D03*
%TO.P,U1,5*%
%TO.N,Relay6*%
X81110000Y-50620000D03*
%TO.P,U1,18*%
%TO.N,N/C*%
X96350000Y-43000000D03*
%TO.P,U1,4*%
%TO.N,Relay7*%
X78570000Y-50620000D03*
%TO.P,U1,17*%
%TO.N,Down*%
X98890000Y-43000000D03*
%TO.P,U1,3*%
%TO.N,Tx*%
X76030000Y-50620000D03*
%TO.P,U1,16*%
%TO.N,Set*%
X101430000Y-43000000D03*
%TO.P,U1,2*%
%TO.N,Rx*%
X73490000Y-50620000D03*
%TO.P,U1,15*%
%TO.N,Up*%
X103970000Y-43000000D03*
D23*
%TO.P,U1,1*%
%TO.N,Net-(R4-Pad2)*%
X70950000Y-50620000D03*
%TD*%
D24*
%TO.P,SW4,1*%
%TO.N,Net-(R4-Pad2)*%
X70180000Y-39650000D03*
%TO.P,SW4,2*%
%TO.N,GND*%
X70180000Y-35150000D03*
%TO.P,SW4,1*%
%TO.N,Net-(R4-Pad2)*%
X76680000Y-39650000D03*
%TO.P,SW4,2*%
%TO.N,GND*%
X76680000Y-35150000D03*
%TD*%
%TO.P,SW3,2*%
%TO.N,GND*%
X115160000Y-35160000D03*
%TO.P,SW3,1*%
%TO.N,Up*%
X115160000Y-39660000D03*
%TO.P,SW3,2*%
%TO.N,GND*%
X108660000Y-35160000D03*
%TO.P,SW3,1*%
%TO.N,Up*%
X108660000Y-39660000D03*
%TD*%
%TO.P,SW2,2*%
%TO.N,GND*%
X115160000Y-52850000D03*
%TO.P,SW2,1*%
%TO.N,Down*%
X115160000Y-57350000D03*
%TO.P,SW2,2*%
%TO.N,GND*%
X108660000Y-52850000D03*
%TO.P,SW2,1*%
%TO.N,Down*%
X108660000Y-57350000D03*
%TD*%
%TO.P,SW1,2*%
%TO.N,GND*%
X115160000Y-44005000D03*
%TO.P,SW1,1*%
%TO.N,Set*%
X115160000Y-48505000D03*
%TO.P,SW1,2*%
%TO.N,GND*%
X108660000Y-44005000D03*
%TO.P,SW1,1*%
%TO.N,Set*%
X108660000Y-48505000D03*
%TD*%
D10*
%TO.P,J2,4*%
%TO.N,SDA*%
X67490000Y-43790000D03*
%TO.P,J2,3*%
%TO.N,SCL*%
X67490000Y-46330000D03*
%TO.P,J2,2*%
%TO.N,+5V*%
X67490000Y-48870000D03*
D11*
%TO.P,J2,1*%
%TO.N,GND*%
X67490000Y-51410000D03*
%TD*%
D15*
%TO.P,C2,2*%
%TO.N,GND*%
X87600000Y-58620000D03*
%TO.P,C2,1*%
%TO.N,Net-(C2-Pad1)*%
X90100000Y-58620000D03*
%TD*%
%TO.P,C1,2*%
%TO.N,GND*%
X97400000Y-58670000D03*
%TO.P,C1,1*%
%TO.N,Net-(C1-Pad1)*%
X94900000Y-58670000D03*
%TD*%
D25*
%TO.N,*%
X85230000Y-35140000D03*
X87980000Y-35140000D03*
X85230000Y-32390000D03*
X85230000Y-29640000D03*
X87980000Y-29640000D03*
X87980000Y-32390000D03*
X111810000Y-52430000D03*
X111810000Y-55180000D03*
X111620000Y-44560000D03*
X111620000Y-47310000D03*
X90920000Y-35320000D03*
X93670000Y-35320000D03*
X96690000Y-35320000D03*
X99440000Y-35320000D03*
X102130000Y-35320000D03*
X104880000Y-35320000D03*
%TO.N,Net-(R4-Pad2)*%
X73563981Y-47133981D03*
%TO.N,DMX_Data*%
X100870000Y-62590000D03*
X97490000Y-60260000D03*
X84450000Y-60260000D03*
X81140000Y-60260000D03*
%TD*%
D26*
%TO.N,+5V*%
X69070000Y-73690000D02*
X66445000Y-71065000D01*
X67585000Y-69760000D02*
X66445000Y-70900000D01*
X77530000Y-73690000D02*
X69070000Y-73690000D01*
X94700000Y-26860000D02*
X91000000Y-26860000D01*
X91000000Y-26860000D02*
X87310000Y-26860000D01*
X87310000Y-26860000D02*
X86110000Y-25660000D01*
X86110000Y-25660000D02*
X80790000Y-25660000D01*
X80750000Y-25620000D02*
X72420000Y-25620000D01*
X80790000Y-25660000D02*
X80750000Y-25620000D01*
X72420000Y-25620000D02*
X68550000Y-25620000D01*
X68550000Y-25620000D02*
X64240000Y-29930000D01*
X64240000Y-29930000D02*
X64240000Y-47920000D01*
X64240000Y-47920000D02*
X64240000Y-68990000D01*
X64240000Y-68990000D02*
X65010000Y-69760000D01*
X65190000Y-48870000D02*
X64240000Y-47920000D01*
X67490000Y-48870000D02*
X65190000Y-48870000D01*
D27*
%TO.N,Net-(R4-Pad2)*%
X70950000Y-49747962D02*
X73563981Y-47133981D01*
X70950000Y-50620000D02*
X70950000Y-49747962D01*
D26*
%TO.N,Net-(F1-Pad2)*%
X102910000Y-26840000D02*
X99210000Y-26840000D01*
X102890000Y-26840000D02*
X107510000Y-26840000D01*
X107510000Y-26840000D02*
X108860000Y-28190000D01*
D27*
%TO.N,DMX_Data*%
X100870000Y-62590000D02*
X100870000Y-61710000D01*
X100870000Y-61710000D02*
X99420000Y-60260000D01*
X99420000Y-60260000D02*
X97490000Y-60260000D01*
X97490000Y-60260000D02*
X97490000Y-60260000D01*
X84450000Y-60260000D02*
X81140000Y-60260000D01*
X81140000Y-60260000D02*
X81140000Y-60260000D01*
%TD*%
D28*
%TO.N,GND*%
X116200000Y-33940392D02*
X116115807Y-34024585D01*
X116020044Y-33760186D01*
X115730429Y-33619296D01*
X115418892Y-33537616D01*
X115097405Y-33518282D01*
X114778325Y-33562039D01*
X114473912Y-33667205D01*
X114299956Y-33760186D01*
X114204192Y-34024587D01*
X115160000Y-34980395D01*
X115174143Y-34966253D01*
X115353748Y-35145858D01*
X115339605Y-35160000D01*
X115353748Y-35174143D01*
X115174143Y-35353748D01*
X115160000Y-35339605D01*
X114204192Y-36295413D01*
X114299956Y-36559814D01*
X114589571Y-36700704D01*
X114901108Y-36782384D01*
X115222595Y-36801718D01*
X115541675Y-36757961D01*
X115846088Y-36652795D01*
X116020044Y-36559814D01*
X116115807Y-36295415D01*
X116200000Y-36379608D01*
X116200000Y-38388508D01*
X115934463Y-38211082D01*
X115636912Y-38087832D01*
X115321033Y-38025000D01*
X114998967Y-38025000D01*
X114683088Y-38087832D01*
X114385537Y-38211082D01*
X114117748Y-38390013D01*
X113890013Y-38617748D01*
X113711082Y-38885537D01*
X113587832Y-39183088D01*
X113525000Y-39498967D01*
X113525000Y-39821033D01*
X113587832Y-40136912D01*
X113711082Y-40434463D01*
X113890013Y-40702252D01*
X114117748Y-40929987D01*
X114385537Y-41108918D01*
X114683088Y-41232168D01*
X114998967Y-41295000D01*
X115321033Y-41295000D01*
X115636912Y-41232168D01*
X115934463Y-41108918D01*
X116200000Y-40931492D01*
X116200000Y-42785392D01*
X116115807Y-42869585D01*
X116020044Y-42605186D01*
X115730429Y-42464296D01*
X115418892Y-42382616D01*
X115097405Y-42363282D01*
X114778325Y-42407039D01*
X114473912Y-42512205D01*
X114299956Y-42605186D01*
X114204192Y-42869587D01*
X115160000Y-43825395D01*
X115174143Y-43811253D01*
X115353748Y-43990858D01*
X115339605Y-44005000D01*
X115353748Y-44019143D01*
X115174143Y-44198748D01*
X115160000Y-44184605D01*
X114204192Y-45140413D01*
X114299956Y-45404814D01*
X114589571Y-45545704D01*
X114901108Y-45627384D01*
X115222595Y-45646718D01*
X115541675Y-45602961D01*
X115846088Y-45497795D01*
X116020044Y-45404814D01*
X116115807Y-45140415D01*
X116200000Y-45224608D01*
X116200000Y-47233509D01*
X115934463Y-47056082D01*
X115636912Y-46932832D01*
X115321033Y-46870000D01*
X114998967Y-46870000D01*
X114683088Y-46932832D01*
X114385537Y-47056082D01*
X114117748Y-47235013D01*
X113890013Y-47462748D01*
X113711082Y-47730537D01*
X113587832Y-48028088D01*
X113525000Y-48343967D01*
X113525000Y-48666033D01*
X113587832Y-48981912D01*
X113711082Y-49279463D01*
X113890013Y-49547252D01*
X114117748Y-49774987D01*
X114385537Y-49953918D01*
X114683088Y-50077168D01*
X114998967Y-50140000D01*
X115321033Y-50140000D01*
X115636912Y-50077168D01*
X115934463Y-49953918D01*
X116200001Y-49776491D01*
X116200001Y-51630391D01*
X116115807Y-51714585D01*
X116020044Y-51450186D01*
X115730429Y-51309296D01*
X115418892Y-51227616D01*
X115097405Y-51208282D01*
X114778325Y-51252039D01*
X114473912Y-51357205D01*
X114299956Y-51450186D01*
X114204192Y-51714587D01*
X115160000Y-52670395D01*
X115174143Y-52656253D01*
X115353748Y-52835858D01*
X115339605Y-52850000D01*
X115353748Y-52864143D01*
X115174143Y-53043748D01*
X115160000Y-53029605D01*
X114204192Y-53985413D01*
X114299956Y-54249814D01*
X114589571Y-54390704D01*
X114901108Y-54472384D01*
X115222595Y-54491718D01*
X115541675Y-54447961D01*
X115846088Y-54342795D01*
X116020044Y-54249814D01*
X116115807Y-53985415D01*
X116200001Y-54069609D01*
X116200001Y-56078509D01*
X115934463Y-55901082D01*
X115636912Y-55777832D01*
X115321033Y-55715000D01*
X114998967Y-55715000D01*
X114683088Y-55777832D01*
X114385537Y-55901082D01*
X114117748Y-56080013D01*
X113890013Y-56307748D01*
X113711082Y-56575537D01*
X113587832Y-56873088D01*
X113525000Y-57188967D01*
X113525000Y-57511033D01*
X113587832Y-57826912D01*
X113711082Y-58124463D01*
X113890013Y-58392252D01*
X114117748Y-58619987D01*
X114385537Y-58798918D01*
X114683088Y-58922168D01*
X114998967Y-58985000D01*
X115321033Y-58985000D01*
X115636912Y-58922168D01*
X115934463Y-58798918D01*
X116200001Y-58621491D01*
X116200001Y-74985950D01*
X101695481Y-74985950D01*
X101770537Y-74894494D01*
X101829502Y-74784180D01*
X101865812Y-74664482D01*
X101878072Y-74540000D01*
X101875000Y-73975750D01*
X101716250Y-73817000D01*
X100517000Y-73817000D01*
X100517000Y-73837000D01*
X100263000Y-73837000D01*
X100263000Y-73817000D01*
X100243000Y-73817000D01*
X100243000Y-73563000D01*
X100263000Y-73563000D01*
X100263000Y-72363750D01*
X100517000Y-72363750D01*
X100517000Y-73563000D01*
X101716250Y-73563000D01*
X101875000Y-73404250D01*
X101878072Y-72840000D01*
X101865812Y-72715518D01*
X101829502Y-72595820D01*
X101770537Y-72485506D01*
X101691185Y-72388815D01*
X101594494Y-72309463D01*
X101484180Y-72250498D01*
X101364482Y-72214188D01*
X101240000Y-72201928D01*
X100675750Y-72205000D01*
X100517000Y-72363750D01*
X100263000Y-72363750D01*
X100104250Y-72205000D01*
X99540000Y-72201928D01*
X99415518Y-72214188D01*
X99295820Y-72250498D01*
X99185506Y-72309463D01*
X99088815Y-72388815D01*
X99009463Y-72485506D01*
X98950498Y-72595820D01*
X98928487Y-72668380D01*
X98796632Y-72536525D01*
X98553411Y-72374010D01*
X98283158Y-72262068D01*
X97996260Y-72205000D01*
X97703740Y-72205000D01*
X97416842Y-72262068D01*
X97146589Y-72374010D01*
X96903368Y-72536525D01*
X96696525Y-72743368D01*
X96580000Y-72917760D01*
X96463475Y-72743368D01*
X96256632Y-72536525D01*
X96013411Y-72374010D01*
X95743158Y-72262068D01*
X95456260Y-72205000D01*
X95163740Y-72205000D01*
X94876842Y-72262068D01*
X94606589Y-72374010D01*
X94363368Y-72536525D01*
X94156525Y-72743368D01*
X94040000Y-72917760D01*
X93923475Y-72743368D01*
X93716632Y-72536525D01*
X93473411Y-72374010D01*
X93203158Y-72262068D01*
X92916260Y-72205000D01*
X92623740Y-72205000D01*
X92336842Y-72262068D01*
X92066589Y-72374010D01*
X91823368Y-72536525D01*
X91616525Y-72743368D01*
X91500000Y-72917760D01*
X91383475Y-72743368D01*
X91176632Y-72536525D01*
X90933411Y-72374010D01*
X90663158Y-72262068D01*
X90376260Y-72205000D01*
X90083740Y-72205000D01*
X89796842Y-72262068D01*
X89526589Y-72374010D01*
X89283368Y-72536525D01*
X89076525Y-72743368D01*
X88960000Y-72917760D01*
X88843475Y-72743368D01*
X88636632Y-72536525D01*
X88393411Y-72374010D01*
X88123158Y-72262068D01*
X87836260Y-72205000D01*
X87543740Y-72205000D01*
X87256842Y-72262068D01*
X86986589Y-72374010D01*
X86743368Y-72536525D01*
X86536525Y-72743368D01*
X86420000Y-72917760D01*
X86303475Y-72743368D01*
X86096632Y-72536525D01*
X85853411Y-72374010D01*
X85583158Y-72262068D01*
X85296260Y-72205000D01*
X85003740Y-72205000D01*
X84716842Y-72262068D01*
X84446589Y-72374010D01*
X84203368Y-72536525D01*
X83996525Y-72743368D01*
X83880000Y-72917760D01*
X83763475Y-72743368D01*
X83556632Y-72536525D01*
X83313411Y-72374010D01*
X83043158Y-72262068D01*
X82756260Y-72205000D01*
X82463740Y-72205000D01*
X82176842Y-72262068D01*
X81906589Y-72374010D01*
X81663368Y-72536525D01*
X81456525Y-72743368D01*
X81340000Y-72917760D01*
X81223475Y-72743368D01*
X81016632Y-72536525D01*
X80773411Y-72374010D01*
X80503158Y-72262068D01*
X80216260Y-72205000D01*
X79923740Y-72205000D01*
X79636842Y-72262068D01*
X79366589Y-72374010D01*
X79266699Y-72440754D01*
X79046977Y-72173023D01*
X78721881Y-71906223D01*
X78350982Y-71707974D01*
X77948533Y-71585892D01*
X77634882Y-71555000D01*
X69954346Y-71555000D01*
X69360866Y-70961520D01*
X69368776Y-70951881D01*
X69567025Y-70580983D01*
X69689107Y-70178535D01*
X69730329Y-69760001D01*
X69689107Y-69341467D01*
X69576424Y-68970000D01*
X107056928Y-68970000D01*
X107056928Y-70670000D01*
X107069188Y-70794482D01*
X107105498Y-70914180D01*
X107164463Y-71024494D01*
X107243815Y-71121185D01*
X107340506Y-71200537D01*
X107450820Y-71259502D01*
X107570518Y-71295812D01*
X107695000Y-71308072D01*
X109395000Y-71308072D01*
X109519482Y-71295812D01*
X109639180Y-71259502D01*
X109749494Y-71200537D01*
X109846185Y-71121185D01*
X109925537Y-71024494D01*
X109984502Y-70914180D01*
X110020812Y-70794482D01*
X110033072Y-70670000D01*
X110033072Y-68970000D01*
X110020812Y-68845518D01*
X109984502Y-68725820D01*
X109925537Y-68615506D01*
X109846185Y-68518815D01*
X109749494Y-68439463D01*
X109639180Y-68380498D01*
X109558534Y-68356034D01*
X109642588Y-68280269D01*
X109816641Y-68046920D01*
X109941825Y-67784099D01*
X109986476Y-67636890D01*
X109865155Y-67407000D01*
X108672000Y-67407000D01*
X108672000Y-67427000D01*
X108418000Y-67427000D01*
X108418000Y-67407000D01*
X107224845Y-67407000D01*
X107103524Y-67636890D01*
X107148175Y-67784099D01*
X107273359Y-68046920D01*
X107447412Y-68280269D01*
X107531466Y-68356034D01*
X107450820Y-68380498D01*
X107340506Y-68439463D01*
X107243815Y-68518815D01*
X107164463Y-68615506D01*
X107105498Y-68725820D01*
X107069188Y-68845518D01*
X107056928Y-68970000D01*
X69576424Y-68970000D01*
X69567025Y-68939019D01*
X69368776Y-68568119D01*
X69101977Y-68243023D01*
X68834245Y-68023302D01*
X68900990Y-67923411D01*
X69012932Y-67653158D01*
X69070000Y-67366260D01*
X69070000Y-67073740D01*
X69012932Y-66786842D01*
X68900990Y-66516589D01*
X68738475Y-66273368D01*
X68531632Y-66066525D01*
X68357240Y-65950000D01*
X68531632Y-65833475D01*
X68738475Y-65626632D01*
X68900990Y-65383411D01*
X69012932Y-65113158D01*
X69070000Y-64826260D01*
X69070000Y-64533740D01*
X69012932Y-64246842D01*
X68900990Y-63976589D01*
X68738475Y-63733368D01*
X68531632Y-63526525D01*
X68358271Y-63410689D01*
X68433792Y-63168397D01*
X67585000Y-62319605D01*
X66736208Y-63168397D01*
X66811729Y-63410689D01*
X66638368Y-63526525D01*
X66431525Y-63733368D01*
X66375000Y-63817964D01*
X66375000Y-62932188D01*
X66556603Y-62988792D01*
X67405395Y-62140000D01*
X67764605Y-62140000D01*
X68613397Y-62988792D01*
X68862472Y-62911157D01*
X68988371Y-62647117D01*
X69060339Y-62363589D01*
X69075611Y-62071469D01*
X69033599Y-61781981D01*
X68935919Y-61506253D01*
X68862472Y-61368843D01*
X68613397Y-61291208D01*
X67764605Y-62140000D01*
X67405395Y-62140000D01*
X66556603Y-61291208D01*
X66375000Y-61347812D01*
X66375000Y-61111603D01*
X66736208Y-61111603D01*
X67585000Y-61960395D01*
X68433792Y-61111603D01*
X68356157Y-60862528D01*
X68092117Y-60736629D01*
X67808589Y-60664661D01*
X67516469Y-60649389D01*
X67226981Y-60691401D01*
X66951253Y-60789081D01*
X66813843Y-60862528D01*
X66736208Y-61111603D01*
X66375000Y-61111603D01*
X66375000Y-60167911D01*
X80205000Y-60167911D01*
X80205000Y-60352089D01*
X80240932Y-60532729D01*
X80311414Y-60702889D01*
X80413738Y-60856028D01*
X80543972Y-60986262D01*
X80697111Y-61088586D01*
X80867271Y-61159068D01*
X81047911Y-61195000D01*
X81232089Y-61195000D01*
X81412729Y-61159068D01*
X81567404Y-61095000D01*
X84022596Y-61095000D01*
X84177271Y-61159068D01*
X84357911Y-61195000D01*
X84542089Y-61195000D01*
X84722729Y-61159068D01*
X84892889Y-61088586D01*
X85046028Y-60986262D01*
X85176262Y-60856028D01*
X85278586Y-60702889D01*
X85349068Y-60532729D01*
X85385000Y-60352089D01*
X85385000Y-60167911D01*
X96555000Y-60167911D01*
X96555000Y-60352089D01*
X96590932Y-60532729D01*
X96661414Y-60702889D01*
X96763738Y-60856028D01*
X96893972Y-60986262D01*
X97047111Y-61088586D01*
X97217271Y-61159068D01*
X97397911Y-61195000D01*
X97582089Y-61195000D01*
X97762729Y-61159068D01*
X97917404Y-61095000D01*
X99074133Y-61095000D01*
X100035000Y-62055869D01*
X100035000Y-62162596D01*
X99970932Y-62317271D01*
X99935000Y-62497911D01*
X99935000Y-62682089D01*
X99970932Y-62862729D01*
X100041414Y-63032889D01*
X100143738Y-63186028D01*
X100273972Y-63316262D01*
X100427111Y-63418586D01*
X100597271Y-63489068D01*
X100777911Y-63525000D01*
X100962089Y-63525000D01*
X101142729Y-63489068D01*
X101312889Y-63418586D01*
X101466028Y-63316262D01*
X101596262Y-63186028D01*
X101698586Y-63032889D01*
X101769068Y-62862729D01*
X101805000Y-62682089D01*
X101805000Y-62497911D01*
X101769068Y-62317271D01*
X101705000Y-62162596D01*
X101705000Y-62053740D01*
X107060000Y-62053740D01*
X107060000Y-62346260D01*
X107117068Y-62633158D01*
X107229010Y-62903411D01*
X107391525Y-63146632D01*
X107598368Y-63353475D01*
X107772760Y-63470000D01*
X107598368Y-63586525D01*
X107391525Y-63793368D01*
X107229010Y-64036589D01*
X107117068Y-64306842D01*
X107060000Y-64593740D01*
X107060000Y-64886260D01*
X107117068Y-65173158D01*
X107229010Y-65443411D01*
X107391525Y-65686632D01*
X107598368Y-65893475D01*
X107780534Y-66015195D01*
X107663645Y-66084822D01*
X107447412Y-66279731D01*
X107273359Y-66513080D01*
X107148175Y-66775901D01*
X107103524Y-66923110D01*
X107224845Y-67153000D01*
X108418000Y-67153000D01*
X108418000Y-67133000D01*
X108672000Y-67133000D01*
X108672000Y-67153000D01*
X109865155Y-67153000D01*
X109986476Y-66923110D01*
X109941825Y-66775901D01*
X109816641Y-66513080D01*
X109642588Y-66279731D01*
X109426355Y-66084822D01*
X109309466Y-66015195D01*
X109491632Y-65893475D01*
X109698475Y-65686632D01*
X109860990Y-65443411D01*
X109972932Y-65173158D01*
X110030000Y-64886260D01*
X110030000Y-64593740D01*
X109972932Y-64306842D01*
X109860990Y-64036589D01*
X109698475Y-63793368D01*
X109491632Y-63586525D01*
X109317240Y-63470000D01*
X109491632Y-63353475D01*
X109698475Y-63146632D01*
X109860990Y-62903411D01*
X109972932Y-62633158D01*
X110030000Y-62346260D01*
X110030000Y-62053740D01*
X109972932Y-61766842D01*
X109860990Y-61496589D01*
X109698475Y-61253368D01*
X109491632Y-61046525D01*
X109248411Y-60884010D01*
X108978158Y-60772068D01*
X108691260Y-60715000D01*
X108398740Y-60715000D01*
X108111842Y-60772068D01*
X107841589Y-60884010D01*
X107598368Y-61046525D01*
X107391525Y-61253368D01*
X107229010Y-61496589D01*
X107117068Y-61766842D01*
X107060000Y-62053740D01*
X101705000Y-62053740D01*
X101705000Y-61751018D01*
X101709040Y-61710000D01*
X101692918Y-61546312D01*
X101680767Y-61506253D01*
X101645172Y-61388913D01*
X101567636Y-61243854D01*
X101463291Y-61116709D01*
X101431432Y-61090563D01*
X100039446Y-59698578D01*
X100013291Y-59666709D01*
X99886146Y-59562364D01*
X99741087Y-59484828D01*
X99583689Y-59437082D01*
X99461019Y-59425000D01*
X99461018Y-59425000D01*
X99420000Y-59420960D01*
X99378982Y-59425000D01*
X98590708Y-59425000D01*
X98636671Y-59411514D01*
X98757571Y-59156004D01*
X98826300Y-58881816D01*
X98840217Y-58599488D01*
X98798787Y-58319870D01*
X98703603Y-58053708D01*
X98636671Y-57928486D01*
X98392702Y-57856903D01*
X97579605Y-58670000D01*
X97593748Y-58684143D01*
X97414143Y-58863748D01*
X97400000Y-58849605D01*
X96586903Y-59662702D01*
X96644318Y-59858384D01*
X96590932Y-59987271D01*
X96555000Y-60167911D01*
X85385000Y-60167911D01*
X85349068Y-59987271D01*
X85278586Y-59817111D01*
X85176262Y-59663972D01*
X85124992Y-59612702D01*
X86786903Y-59612702D01*
X86858486Y-59856671D01*
X87113996Y-59977571D01*
X87388184Y-60046300D01*
X87670512Y-60060217D01*
X87950130Y-60018787D01*
X88216292Y-59923603D01*
X88341514Y-59856671D01*
X88413097Y-59612702D01*
X87600000Y-58799605D01*
X86786903Y-59612702D01*
X85124992Y-59612702D01*
X85046028Y-59533738D01*
X84892889Y-59431414D01*
X84722729Y-59360932D01*
X84542089Y-59325000D01*
X84357911Y-59325000D01*
X84177271Y-59360932D01*
X84022596Y-59425000D01*
X81567404Y-59425000D01*
X81412729Y-59360932D01*
X81232089Y-59325000D01*
X81047911Y-59325000D01*
X80867271Y-59360932D01*
X80697111Y-59431414D01*
X80543972Y-59533738D01*
X80413738Y-59663972D01*
X80311414Y-59817111D01*
X80240932Y-59987271D01*
X80205000Y-60167911D01*
X66375000Y-60167911D01*
X66375000Y-54820000D01*
X72071928Y-54820000D01*
X72071928Y-56520000D01*
X72084188Y-56644482D01*
X72120498Y-56764180D01*
X72179463Y-56874494D01*
X72258815Y-56971185D01*
X72355506Y-57050537D01*
X72465820Y-57109502D01*
X72538380Y-57131513D01*
X72406525Y-57263368D01*
X72244010Y-57506589D01*
X72132068Y-57776842D01*
X72075000Y-58063740D01*
X72075000Y-58356260D01*
X72132068Y-58643158D01*
X72244010Y-58913411D01*
X72406525Y-59156632D01*
X72613368Y-59363475D01*
X72856589Y-59525990D01*
X73126842Y-59637932D01*
X73413740Y-59695000D01*
X73706260Y-59695000D01*
X73993158Y-59637932D01*
X74263411Y-59525990D01*
X74506632Y-59363475D01*
X74713475Y-59156632D01*
X74830000Y-58982240D01*
X74946525Y-59156632D01*
X75153368Y-59363475D01*
X75396589Y-59525990D01*
X75666842Y-59637932D01*
X75953740Y-59695000D01*
X76246260Y-59695000D01*
X76533158Y-59637932D01*
X76803411Y-59525990D01*
X77046632Y-59363475D01*
X77253475Y-59156632D01*
X77415990Y-58913411D01*
X77508317Y-58690512D01*
X86159783Y-58690512D01*
X86201213Y-58970130D01*
X86296397Y-59236292D01*
X86363329Y-59361514D01*
X86607298Y-59433097D01*
X87420395Y-58620000D01*
X87779605Y-58620000D01*
X88592702Y-59433097D01*
X88836671Y-59361514D01*
X88850324Y-59332659D01*
X88985363Y-59534759D01*
X89185241Y-59734637D01*
X89420273Y-59891680D01*
X89681426Y-59999853D01*
X89958665Y-60055000D01*
X90241335Y-60055000D01*
X90518574Y-59999853D01*
X90779727Y-59891680D01*
X91014759Y-59734637D01*
X91214637Y-59534759D01*
X91371680Y-59299727D01*
X91479853Y-59038574D01*
X91535000Y-58761335D01*
X91535000Y-58528665D01*
X93465000Y-58528665D01*
X93465000Y-58811335D01*
X93520147Y-59088574D01*
X93628320Y-59349727D01*
X93785363Y-59584759D01*
X93985241Y-59784637D01*
X94220273Y-59941680D01*
X94481426Y-60049853D01*
X94758665Y-60105000D01*
X95041335Y-60105000D01*
X95318574Y-60049853D01*
X95579727Y-59941680D01*
X95814759Y-59784637D01*
X96014637Y-59584759D01*
X96148692Y-59384131D01*
X96163329Y-59411514D01*
X96407298Y-59483097D01*
X97220395Y-58670000D01*
X96407298Y-57856903D01*
X96163329Y-57928486D01*
X96149676Y-57957341D01*
X96014637Y-57755241D01*
X95936694Y-57677298D01*
X96586903Y-57677298D01*
X97400000Y-58490395D01*
X98213097Y-57677298D01*
X98141514Y-57433329D01*
X97886004Y-57312429D01*
X97611816Y-57243700D01*
X97329488Y-57229783D01*
X97049870Y-57271213D01*
X96783708Y-57366397D01*
X96658486Y-57433329D01*
X96586903Y-57677298D01*
X95936694Y-57677298D01*
X95814759Y-57555363D01*
X95579727Y-57398320D01*
X95318574Y-57290147D01*
X95041335Y-57235000D01*
X94758665Y-57235000D01*
X94481426Y-57290147D01*
X94220273Y-57398320D01*
X93985241Y-57555363D01*
X93785363Y-57755241D01*
X93628320Y-57990273D01*
X93520147Y-58251426D01*
X93465000Y-58528665D01*
X91535000Y-58528665D01*
X91535000Y-58478665D01*
X91479853Y-58201426D01*
X91371680Y-57940273D01*
X91214637Y-57705241D01*
X91014759Y-57505363D01*
X90779727Y-57348320D01*
X90518574Y-57240147D01*
X90261279Y-57188967D01*
X107025000Y-57188967D01*
X107025000Y-57511033D01*
X107087832Y-57826912D01*
X107211082Y-58124463D01*
X107390013Y-58392252D01*
X107617748Y-58619987D01*
X107885537Y-58798918D01*
X108183088Y-58922168D01*
X108498967Y-58985000D01*
X108821033Y-58985000D01*
X109136912Y-58922168D01*
X109434463Y-58798918D01*
X109702252Y-58619987D01*
X109929987Y-58392252D01*
X110108918Y-58124463D01*
X110232168Y-57826912D01*
X110295000Y-57511033D01*
X110295000Y-57188967D01*
X110232168Y-56873088D01*
X110108918Y-56575537D01*
X109929987Y-56307748D01*
X109702252Y-56080013D01*
X109434463Y-55901082D01*
X109136912Y-55777832D01*
X108821033Y-55715000D01*
X108498967Y-55715000D01*
X108183088Y-55777832D01*
X107885537Y-55901082D01*
X107617748Y-56080013D01*
X107390013Y-56307748D01*
X107211082Y-56575537D01*
X107087832Y-56873088D01*
X107025000Y-57188967D01*
X90261279Y-57188967D01*
X90241335Y-57185000D01*
X89958665Y-57185000D01*
X89681426Y-57240147D01*
X89420273Y-57348320D01*
X89185241Y-57505363D01*
X88985363Y-57705241D01*
X88851308Y-57905869D01*
X88836671Y-57878486D01*
X88592702Y-57806903D01*
X87779605Y-58620000D01*
X87420395Y-58620000D01*
X86607298Y-57806903D01*
X86363329Y-57878486D01*
X86242429Y-58133996D01*
X86173700Y-58408184D01*
X86159783Y-58690512D01*
X77508317Y-58690512D01*
X77527932Y-58643158D01*
X77585000Y-58356260D01*
X77585000Y-58063740D01*
X77527932Y-57776842D01*
X77465990Y-57627298D01*
X86786903Y-57627298D01*
X87600000Y-58440395D01*
X88413097Y-57627298D01*
X88341514Y-57383329D01*
X88086004Y-57262429D01*
X87811816Y-57193700D01*
X87529488Y-57179783D01*
X87249870Y-57221213D01*
X86983708Y-57316397D01*
X86858486Y-57383329D01*
X86786903Y-57627298D01*
X77465990Y-57627298D01*
X77415990Y-57506589D01*
X77253475Y-57263368D01*
X77046632Y-57056525D01*
X76872240Y-56940000D01*
X77046632Y-56823475D01*
X77253475Y-56616632D01*
X77309555Y-56532702D01*
X84446903Y-56532702D01*
X84518486Y-56776671D01*
X84773996Y-56897571D01*
X85048184Y-56966300D01*
X85330512Y-56980217D01*
X85610130Y-56938787D01*
X85876292Y-56843603D01*
X86001514Y-56776671D01*
X86073097Y-56532702D01*
X85260000Y-55719605D01*
X84446903Y-56532702D01*
X77309555Y-56532702D01*
X77415990Y-56373411D01*
X77527932Y-56103158D01*
X77585000Y-55816260D01*
X77585000Y-55610512D01*
X83819783Y-55610512D01*
X83861213Y-55890130D01*
X83956397Y-56156292D01*
X84023329Y-56281514D01*
X84267298Y-56353097D01*
X85080395Y-55540000D01*
X85439605Y-55540000D01*
X86252702Y-56353097D01*
X86496671Y-56281514D01*
X86617571Y-56026004D01*
X86686300Y-55751816D01*
X86700217Y-55469488D01*
X86658787Y-55189870D01*
X86563603Y-54923708D01*
X86496671Y-54798486D01*
X86252702Y-54726903D01*
X85439605Y-55540000D01*
X85080395Y-55540000D01*
X84267298Y-54726903D01*
X84023329Y-54798486D01*
X83902429Y-55053996D01*
X83833700Y-55328184D01*
X83819783Y-55610512D01*
X77585000Y-55610512D01*
X77585000Y-55523740D01*
X77527932Y-55236842D01*
X77415990Y-54966589D01*
X77253475Y-54723368D01*
X77046632Y-54516525D01*
X76803411Y-54354010D01*
X76533158Y-54242068D01*
X76246260Y-54185000D01*
X75953740Y-54185000D01*
X75666842Y-54242068D01*
X75396589Y-54354010D01*
X75153368Y-54516525D01*
X75021513Y-54648380D01*
X74999502Y-54575820D01*
X74940537Y-54465506D01*
X74861185Y-54368815D01*
X74764494Y-54289463D01*
X74654180Y-54230498D01*
X74534482Y-54194188D01*
X74410000Y-54181928D01*
X72710000Y-54181928D01*
X72585518Y-54194188D01*
X72465820Y-54230498D01*
X72355506Y-54289463D01*
X72258815Y-54368815D01*
X72179463Y-54465506D01*
X72120498Y-54575820D01*
X72084188Y-54695518D01*
X72071928Y-54820000D01*
X66375000Y-54820000D01*
X66375000Y-52838373D01*
X66395820Y-52849502D01*
X66515518Y-52885812D01*
X66640000Y-52898072D01*
X67204250Y-52895000D01*
X67363000Y-52736250D01*
X67363000Y-51537000D01*
X67617000Y-51537000D01*
X67617000Y-52736250D01*
X67775750Y-52895000D01*
X68340000Y-52898072D01*
X68464482Y-52885812D01*
X68584180Y-52849502D01*
X68694494Y-52790537D01*
X68791185Y-52711185D01*
X68870537Y-52614494D01*
X68929502Y-52504180D01*
X68965812Y-52384482D01*
X68978072Y-52260000D01*
X68975000Y-51695750D01*
X68816250Y-51537000D01*
X67617000Y-51537000D01*
X67363000Y-51537000D01*
X67343000Y-51537000D01*
X67343000Y-51283000D01*
X67363000Y-51283000D01*
X67363000Y-51263000D01*
X67617000Y-51263000D01*
X67617000Y-51283000D01*
X68816250Y-51283000D01*
X68975000Y-51124250D01*
X68978072Y-50560000D01*
X68965812Y-50435518D01*
X68962228Y-50423702D01*
X69006977Y-50386977D01*
X69273777Y-50061881D01*
X69403064Y-49820000D01*
X69511928Y-49820000D01*
X69511928Y-51420000D01*
X69524188Y-51544482D01*
X69560498Y-51664180D01*
X69619463Y-51774494D01*
X69698815Y-51871185D01*
X69795506Y-51950537D01*
X69905820Y-52009502D01*
X70025518Y-52045812D01*
X70150000Y-52058072D01*
X71750000Y-52058072D01*
X71874482Y-52045812D01*
X71994180Y-52009502D01*
X72104494Y-51950537D01*
X72201185Y-51871185D01*
X72280537Y-51774494D01*
X72339502Y-51664180D01*
X72375812Y-51544482D01*
X72376643Y-51536039D01*
X72575241Y-51734637D01*
X72810273Y-51891680D01*
X73071426Y-51999853D01*
X73348665Y-52055000D01*
X73631335Y-52055000D01*
X73908574Y-51999853D01*
X74169727Y-51891680D01*
X74404759Y-51734637D01*
X74604637Y-51534759D01*
X74760000Y-51302241D01*
X74915363Y-51534759D01*
X75115241Y-51734637D01*
X75350273Y-51891680D01*
X75611426Y-51999853D01*
X75888665Y-52055000D01*
X76171335Y-52055000D01*
X76448574Y-51999853D01*
X76709727Y-51891680D01*
X76944759Y-51734637D01*
X77144637Y-51534759D01*
X77300000Y-51302241D01*
X77455363Y-51534759D01*
X77655241Y-51734637D01*
X77890273Y-51891680D01*
X78151426Y-51999853D01*
X78428665Y-52055000D01*
X78711335Y-52055000D01*
X78988574Y-51999853D01*
X79249727Y-51891680D01*
X79484759Y-51734637D01*
X79684637Y-51534759D01*
X79840000Y-51302241D01*
X79995363Y-51534759D01*
X80195241Y-51734637D01*
X80430273Y-51891680D01*
X80691426Y-51999853D01*
X80968665Y-52055000D01*
X81251335Y-52055000D01*
X81528574Y-51999853D01*
X81789727Y-51891680D01*
X82024759Y-51734637D01*
X82224637Y-51534759D01*
X82380000Y-51302241D01*
X82535363Y-51534759D01*
X82735241Y-51734637D01*
X82970273Y-51891680D01*
X83231426Y-51999853D01*
X83508665Y-52055000D01*
X83791335Y-52055000D01*
X84068574Y-51999853D01*
X84329727Y-51891680D01*
X84564759Y-51734637D01*
X84764637Y-51534759D01*
X84920000Y-51302241D01*
X85075363Y-51534759D01*
X85145604Y-51605000D01*
X85118665Y-51605000D01*
X84841426Y-51660147D01*
X84580273Y-51768320D01*
X84345241Y-51925363D01*
X84145363Y-52125241D01*
X83988320Y-52360273D01*
X83880147Y-52621426D01*
X83825000Y-52898665D01*
X83825000Y-53181335D01*
X83880147Y-53458574D01*
X83988320Y-53719727D01*
X84145363Y-53954759D01*
X84345241Y-54154637D01*
X84545869Y-54288692D01*
X84518486Y-54303329D01*
X84446903Y-54547298D01*
X85260000Y-55360395D01*
X86073097Y-54547298D01*
X86057339Y-54493589D01*
X88665000Y-54493589D01*
X88665000Y-54766411D01*
X88718225Y-55033989D01*
X88822629Y-55286043D01*
X88974201Y-55512886D01*
X89167114Y-55705799D01*
X89393957Y-55857371D01*
X89646011Y-55961775D01*
X89913589Y-56015000D01*
X90186411Y-56015000D01*
X90453989Y-55961775D01*
X90706043Y-55857371D01*
X90932886Y-55705799D01*
X91125799Y-55512886D01*
X91277371Y-55286043D01*
X91381775Y-55033989D01*
X91435000Y-54766411D01*
X91435000Y-54493589D01*
X93545000Y-54493589D01*
X93545000Y-54766411D01*
X93598225Y-55033989D01*
X93702629Y-55286043D01*
X93854201Y-55512886D01*
X94047114Y-55705799D01*
X94273957Y-55857371D01*
X94526011Y-55961775D01*
X94793589Y-56015000D01*
X95066411Y-56015000D01*
X95333989Y-55961775D01*
X95586043Y-55857371D01*
X95812886Y-55705799D01*
X96005799Y-55512886D01*
X96157371Y-55286043D01*
X96239439Y-55087911D01*
X110875000Y-55087911D01*
X110875000Y-55272089D01*
X110910932Y-55452729D01*
X110981414Y-55622889D01*
X111083738Y-55776028D01*
X111213972Y-55906262D01*
X111367111Y-56008586D01*
X111537271Y-56079068D01*
X111717911Y-56115000D01*
X111902089Y-56115000D01*
X112082729Y-56079068D01*
X112252889Y-56008586D01*
X112406028Y-55906262D01*
X112536262Y-55776028D01*
X112638586Y-55622889D01*
X112709068Y-55452729D01*
X112745000Y-55272089D01*
X112745000Y-55087911D01*
X112709068Y-54907271D01*
X112638586Y-54737111D01*
X112536262Y-54583972D01*
X112406028Y-54453738D01*
X112252889Y-54351414D01*
X112082729Y-54280932D01*
X111902089Y-54245000D01*
X111717911Y-54245000D01*
X111537271Y-54280932D01*
X111367111Y-54351414D01*
X111213972Y-54453738D01*
X111083738Y-54583972D01*
X110981414Y-54737111D01*
X110910932Y-54907271D01*
X110875000Y-55087911D01*
X96239439Y-55087911D01*
X96261775Y-55033989D01*
X96315000Y-54766411D01*
X96315000Y-54493589D01*
X96261775Y-54226011D01*
X96162117Y-53985413D01*
X107704192Y-53985413D01*
X107799956Y-54249814D01*
X108089571Y-54390704D01*
X108401108Y-54472384D01*
X108722595Y-54491718D01*
X109041675Y-54447961D01*
X109346088Y-54342795D01*
X109520044Y-54249814D01*
X109615808Y-53985413D01*
X108660000Y-53029605D01*
X107704192Y-53985413D01*
X96162117Y-53985413D01*
X96157371Y-53973957D01*
X96005799Y-53747114D01*
X95812886Y-53554201D01*
X95586043Y-53402629D01*
X95333989Y-53298225D01*
X95066411Y-53245000D01*
X94793589Y-53245000D01*
X94526011Y-53298225D01*
X94273957Y-53402629D01*
X94047114Y-53554201D01*
X93854201Y-53747114D01*
X93702629Y-53973957D01*
X93598225Y-54226011D01*
X93545000Y-54493589D01*
X91435000Y-54493589D01*
X91381775Y-54226011D01*
X91277371Y-53973957D01*
X91125799Y-53747114D01*
X90932886Y-53554201D01*
X90706043Y-53402629D01*
X90453989Y-53298225D01*
X90186411Y-53245000D01*
X89913589Y-53245000D01*
X89646011Y-53298225D01*
X89393957Y-53402629D01*
X89167114Y-53554201D01*
X88974201Y-53747114D01*
X88822629Y-53973957D01*
X88718225Y-54226011D01*
X88665000Y-54493589D01*
X86057339Y-54493589D01*
X86001514Y-54303329D01*
X85972659Y-54289676D01*
X86174759Y-54154637D01*
X86374637Y-53954759D01*
X86531680Y-53719727D01*
X86639853Y-53458574D01*
X86695000Y-53181335D01*
X86695000Y-52912595D01*
X107018282Y-52912595D01*
X107062039Y-53231675D01*
X107167205Y-53536088D01*
X107260186Y-53710044D01*
X107524587Y-53805808D01*
X108480395Y-52850000D01*
X108839605Y-52850000D01*
X109795413Y-53805808D01*
X110059814Y-53710044D01*
X110200704Y-53420429D01*
X110282384Y-53108892D01*
X110301718Y-52787405D01*
X110257961Y-52468325D01*
X110212907Y-52337911D01*
X110875000Y-52337911D01*
X110875000Y-52522089D01*
X110910932Y-52702729D01*
X110981414Y-52872889D01*
X111083738Y-53026028D01*
X111213972Y-53156262D01*
X111367111Y-53258586D01*
X111537271Y-53329068D01*
X111717911Y-53365000D01*
X111902089Y-53365000D01*
X112082729Y-53329068D01*
X112252889Y-53258586D01*
X112406028Y-53156262D01*
X112536262Y-53026028D01*
X112612055Y-52912595D01*
X113518282Y-52912595D01*
X113562039Y-53231675D01*
X113667205Y-53536088D01*
X113760186Y-53710044D01*
X114024587Y-53805808D01*
X114980395Y-52850000D01*
X114024587Y-51894192D01*
X113760186Y-51989956D01*
X113619296Y-52279571D01*
X113537616Y-52591108D01*
X113518282Y-52912595D01*
X112612055Y-52912595D01*
X112638586Y-52872889D01*
X112709068Y-52702729D01*
X112745000Y-52522089D01*
X112745000Y-52337911D01*
X112709068Y-52157271D01*
X112638586Y-51987111D01*
X112536262Y-51833972D01*
X112406028Y-51703738D01*
X112252889Y-51601414D01*
X112082729Y-51530932D01*
X111902089Y-51495000D01*
X111717911Y-51495000D01*
X111537271Y-51530932D01*
X111367111Y-51601414D01*
X111213972Y-51703738D01*
X111083738Y-51833972D01*
X110981414Y-51987111D01*
X110910932Y-52157271D01*
X110875000Y-52337911D01*
X110212907Y-52337911D01*
X110152795Y-52163912D01*
X110059814Y-51989956D01*
X109795413Y-51894192D01*
X108839605Y-52850000D01*
X108480395Y-52850000D01*
X107524587Y-51894192D01*
X107260186Y-51989956D01*
X107119296Y-52279571D01*
X107037616Y-52591108D01*
X107018282Y-52912595D01*
X86695000Y-52912595D01*
X86695000Y-52898665D01*
X86639853Y-52621426D01*
X86531680Y-52360273D01*
X86374637Y-52125241D01*
X86304396Y-52055000D01*
X86331335Y-52055000D01*
X86608574Y-51999853D01*
X86869727Y-51891680D01*
X87104759Y-51734637D01*
X87304637Y-51534759D01*
X87461680Y-51299727D01*
X87466067Y-51289135D01*
X87577615Y-51475131D01*
X87766586Y-51683519D01*
X87992580Y-51851037D01*
X88246913Y-51971246D01*
X88380961Y-52011904D01*
X88603000Y-51889915D01*
X88603000Y-50747000D01*
X88583000Y-50747000D01*
X88583000Y-50493000D01*
X88603000Y-50493000D01*
X88603000Y-49350085D01*
X88857000Y-49350085D01*
X88857000Y-50493000D01*
X88877000Y-50493000D01*
X88877000Y-50747000D01*
X88857000Y-50747000D01*
X88857000Y-51889915D01*
X89079039Y-52011904D01*
X89213087Y-51971246D01*
X89467420Y-51851037D01*
X89693414Y-51683519D01*
X89882385Y-51475131D01*
X89993933Y-51289135D01*
X89998320Y-51299727D01*
X90155363Y-51534759D01*
X90355241Y-51734637D01*
X90590273Y-51891680D01*
X90851426Y-51999853D01*
X91128665Y-52055000D01*
X91411335Y-52055000D01*
X91688574Y-51999853D01*
X91949727Y-51891680D01*
X92184759Y-51734637D01*
X92384637Y-51534759D01*
X92540000Y-51302241D01*
X92695363Y-51534759D01*
X92895241Y-51734637D01*
X93130273Y-51891680D01*
X93391426Y-51999853D01*
X93668665Y-52055000D01*
X93951335Y-52055000D01*
X94228574Y-51999853D01*
X94489727Y-51891680D01*
X94724759Y-51734637D01*
X94924637Y-51534759D01*
X95080000Y-51302241D01*
X95235363Y-51534759D01*
X95435241Y-51734637D01*
X95670273Y-51891680D01*
X95931426Y-51999853D01*
X96208665Y-52055000D01*
X96491335Y-52055000D01*
X96768574Y-51999853D01*
X97029727Y-51891680D01*
X97264759Y-51734637D01*
X97464637Y-51534759D01*
X97620000Y-51302241D01*
X97775363Y-51534759D01*
X97975241Y-51734637D01*
X98210273Y-51891680D01*
X98471426Y-51999853D01*
X98748665Y-52055000D01*
X99031335Y-52055000D01*
X99308574Y-51999853D01*
X99569727Y-51891680D01*
X99804759Y-51734637D01*
X100004637Y-51534759D01*
X100160000Y-51302241D01*
X100315363Y-51534759D01*
X100515241Y-51734637D01*
X100750273Y-51891680D01*
X101011426Y-51999853D01*
X101288665Y-52055000D01*
X101571335Y-52055000D01*
X101848574Y-51999853D01*
X102109727Y-51891680D01*
X102344759Y-51734637D01*
X102544637Y-51534759D01*
X102700000Y-51302241D01*
X102855363Y-51534759D01*
X103055241Y-51734637D01*
X103290273Y-51891680D01*
X103551426Y-51999853D01*
X103828665Y-52055000D01*
X104111335Y-52055000D01*
X104388574Y-51999853D01*
X104649727Y-51891680D01*
X104884759Y-51734637D01*
X104904809Y-51714587D01*
X107704192Y-51714587D01*
X108660000Y-52670395D01*
X109615808Y-51714587D01*
X109520044Y-51450186D01*
X109230429Y-51309296D01*
X108918892Y-51227616D01*
X108597405Y-51208282D01*
X108278325Y-51252039D01*
X107973912Y-51357205D01*
X107799956Y-51450186D01*
X107704192Y-51714587D01*
X104904809Y-51714587D01*
X105084637Y-51534759D01*
X105241680Y-51299727D01*
X105349853Y-51038574D01*
X105405000Y-50761335D01*
X105405000Y-50478665D01*
X105349853Y-50201426D01*
X105241680Y-49940273D01*
X105084637Y-49705241D01*
X104884759Y-49505363D01*
X104649727Y-49348320D01*
X104388574Y-49240147D01*
X104111335Y-49185000D01*
X103828665Y-49185000D01*
X103551426Y-49240147D01*
X103290273Y-49348320D01*
X103055241Y-49505363D01*
X102855363Y-49705241D01*
X102700000Y-49937759D01*
X102544637Y-49705241D01*
X102344759Y-49505363D01*
X102109727Y-49348320D01*
X101848574Y-49240147D01*
X101571335Y-49185000D01*
X101288665Y-49185000D01*
X101011426Y-49240147D01*
X100750273Y-49348320D01*
X100515241Y-49505363D01*
X100315363Y-49705241D01*
X100160000Y-49937759D01*
X100004637Y-49705241D01*
X99804759Y-49505363D01*
X99569727Y-49348320D01*
X99308574Y-49240147D01*
X99031335Y-49185000D01*
X98748665Y-49185000D01*
X98471426Y-49240147D01*
X98210273Y-49348320D01*
X97975241Y-49505363D01*
X97775363Y-49705241D01*
X97620000Y-49937759D01*
X97464637Y-49705241D01*
X97264759Y-49505363D01*
X97029727Y-49348320D01*
X96768574Y-49240147D01*
X96491335Y-49185000D01*
X96208665Y-49185000D01*
X95931426Y-49240147D01*
X95670273Y-49348320D01*
X95435241Y-49505363D01*
X95235363Y-49705241D01*
X95080000Y-49937759D01*
X94924637Y-49705241D01*
X94724759Y-49505363D01*
X94489727Y-49348320D01*
X94228574Y-49240147D01*
X93951335Y-49185000D01*
X93668665Y-49185000D01*
X93391426Y-49240147D01*
X93130273Y-49348320D01*
X92895241Y-49505363D01*
X92695363Y-49705241D01*
X92540000Y-49937759D01*
X92384637Y-49705241D01*
X92184759Y-49505363D01*
X91949727Y-49348320D01*
X91688574Y-49240147D01*
X91411335Y-49185000D01*
X91128665Y-49185000D01*
X90851426Y-49240147D01*
X90590273Y-49348320D01*
X90355241Y-49505363D01*
X90155363Y-49705241D01*
X89998320Y-49940273D01*
X89993933Y-49950865D01*
X89882385Y-49764869D01*
X89693414Y-49556481D01*
X89467420Y-49388963D01*
X89213087Y-49268754D01*
X89079039Y-49228096D01*
X88857000Y-49350085D01*
X88603000Y-49350085D01*
X88380961Y-49228096D01*
X88246913Y-49268754D01*
X87992580Y-49388963D01*
X87766586Y-49556481D01*
X87577615Y-49764869D01*
X87466067Y-49950865D01*
X87461680Y-49940273D01*
X87304637Y-49705241D01*
X87104759Y-49505363D01*
X86869727Y-49348320D01*
X86608574Y-49240147D01*
X86331335Y-49185000D01*
X86048665Y-49185000D01*
X85771426Y-49240147D01*
X85510273Y-49348320D01*
X85275241Y-49505363D01*
X85075363Y-49705241D01*
X84920000Y-49937759D01*
X84764637Y-49705241D01*
X84564759Y-49505363D01*
X84329727Y-49348320D01*
X84068574Y-49240147D01*
X83791335Y-49185000D01*
X83508665Y-49185000D01*
X83231426Y-49240147D01*
X82970273Y-49348320D01*
X82735241Y-49505363D01*
X82535363Y-49705241D01*
X82380000Y-49937759D01*
X82224637Y-49705241D01*
X82024759Y-49505363D01*
X81789727Y-49348320D01*
X81528574Y-49240147D01*
X81251335Y-49185000D01*
X80968665Y-49185000D01*
X80691426Y-49240147D01*
X80430273Y-49348320D01*
X80195241Y-49505363D01*
X79995363Y-49705241D01*
X79840000Y-49937759D01*
X79684637Y-49705241D01*
X79484759Y-49505363D01*
X79249727Y-49348320D01*
X78988574Y-49240147D01*
X78711335Y-49185000D01*
X78428665Y-49185000D01*
X78151426Y-49240147D01*
X77890273Y-49348320D01*
X77655241Y-49505363D01*
X77455363Y-49705241D01*
X77300000Y-49937759D01*
X77144637Y-49705241D01*
X76944759Y-49505363D01*
X76709727Y-49348320D01*
X76448574Y-49240147D01*
X76171335Y-49185000D01*
X75888665Y-49185000D01*
X75611426Y-49240147D01*
X75350273Y-49348320D01*
X75115241Y-49505363D01*
X74915363Y-49705241D01*
X74760000Y-49937759D01*
X74604637Y-49705241D01*
X74404759Y-49505363D01*
X74169727Y-49348320D01*
X73908574Y-49240147D01*
X73631335Y-49185000D01*
X73348665Y-49185000D01*
X73071426Y-49240147D01*
X72810273Y-49348320D01*
X72575241Y-49505363D01*
X72376643Y-49703961D01*
X72375812Y-49695518D01*
X72339502Y-49575820D01*
X72326790Y-49552039D01*
X73534862Y-48343967D01*
X107025000Y-48343967D01*
X107025000Y-48666033D01*
X107087832Y-48981912D01*
X107211082Y-49279463D01*
X107390013Y-49547252D01*
X107617748Y-49774987D01*
X107885537Y-49953918D01*
X108183088Y-50077168D01*
X108498967Y-50140000D01*
X108821033Y-50140000D01*
X109136912Y-50077168D01*
X109434463Y-49953918D01*
X109702252Y-49774987D01*
X109929987Y-49547252D01*
X110108918Y-49279463D01*
X110232168Y-48981912D01*
X110295000Y-48666033D01*
X110295000Y-48343967D01*
X110232168Y-48028088D01*
X110108918Y-47730537D01*
X109929987Y-47462748D01*
X109702252Y-47235013D01*
X109676658Y-47217911D01*
X110685000Y-47217911D01*
X110685000Y-47402089D01*
X110720932Y-47582729D01*
X110791414Y-47752889D01*
X110893738Y-47906028D01*
X111023972Y-48036262D01*
X111177111Y-48138586D01*
X111347271Y-48209068D01*
X111527911Y-48245000D01*
X111712089Y-48245000D01*
X111892729Y-48209068D01*
X112062889Y-48138586D01*
X112216028Y-48036262D01*
X112346262Y-47906028D01*
X112448586Y-47752889D01*
X112519068Y-47582729D01*
X112555000Y-47402089D01*
X112555000Y-47217911D01*
X112519068Y-47037271D01*
X112448586Y-46867111D01*
X112346262Y-46713972D01*
X112216028Y-46583738D01*
X112062889Y-46481414D01*
X111892729Y-46410932D01*
X111712089Y-46375000D01*
X111527911Y-46375000D01*
X111347271Y-46410932D01*
X111177111Y-46481414D01*
X111023972Y-46583738D01*
X110893738Y-46713972D01*
X110791414Y-46867111D01*
X110720932Y-47037271D01*
X110685000Y-47217911D01*
X109676658Y-47217911D01*
X109434463Y-47056082D01*
X109136912Y-46932832D01*
X108821033Y-46870000D01*
X108498967Y-46870000D01*
X108183088Y-46932832D01*
X107885537Y-47056082D01*
X107617748Y-47235013D01*
X107390013Y-47462748D01*
X107211082Y-47730537D01*
X107087832Y-48028088D01*
X107025000Y-48343967D01*
X73534862Y-48343967D01*
X73852195Y-48026635D01*
X74006870Y-47962567D01*
X74160009Y-47860243D01*
X74290243Y-47730009D01*
X74392567Y-47576870D01*
X74463049Y-47406710D01*
X74498981Y-47226070D01*
X74498981Y-47041892D01*
X74463049Y-46861252D01*
X74392567Y-46691092D01*
X74290243Y-46537953D01*
X74160009Y-46407719D01*
X74006870Y-46305395D01*
X73836710Y-46234913D01*
X73656070Y-46198981D01*
X73471892Y-46198981D01*
X73291252Y-46234913D01*
X73121092Y-46305395D01*
X72967953Y-46407719D01*
X72837719Y-46537953D01*
X72735395Y-46691092D01*
X72671327Y-46845767D01*
X70388574Y-49128521D01*
X70356710Y-49154671D01*
X70334341Y-49181928D01*
X70150000Y-49181928D01*
X70025518Y-49194188D01*
X69905820Y-49230498D01*
X69795506Y-49289463D01*
X69698815Y-49368815D01*
X69619463Y-49465506D01*
X69560498Y-49575820D01*
X69524188Y-49695518D01*
X69511928Y-49820000D01*
X69403064Y-49820000D01*
X69472026Y-49690982D01*
X69594108Y-49288533D01*
X69635330Y-48870000D01*
X69594108Y-48451467D01*
X69472026Y-48049018D01*
X69273777Y-47678119D01*
X69006977Y-47353023D01*
X68739246Y-47133301D01*
X68805990Y-47033411D01*
X68917932Y-46763158D01*
X68975000Y-46476260D01*
X68975000Y-46183740D01*
X68917932Y-45896842D01*
X68805990Y-45626589D01*
X68643475Y-45383368D01*
X68436632Y-45176525D01*
X68382587Y-45140413D01*
X107704192Y-45140413D01*
X107799956Y-45404814D01*
X108089571Y-45545704D01*
X108401108Y-45627384D01*
X108722595Y-45646718D01*
X109041675Y-45602961D01*
X109346088Y-45497795D01*
X109520044Y-45404814D01*
X109615808Y-45140413D01*
X108660000Y-44184605D01*
X107704192Y-45140413D01*
X68382587Y-45140413D01*
X68262240Y-45060000D01*
X68436632Y-44943475D01*
X68643475Y-44736632D01*
X68805990Y-44493411D01*
X68917932Y-44223158D01*
X68975000Y-43936260D01*
X68975000Y-43643740D01*
X68917932Y-43356842D01*
X68805990Y-43086589D01*
X68653697Y-42858665D01*
X69515000Y-42858665D01*
X69515000Y-43141335D01*
X69570147Y-43418574D01*
X69678320Y-43679727D01*
X69835363Y-43914759D01*
X70035241Y-44114637D01*
X70270273Y-44271680D01*
X70531426Y-44379853D01*
X70808665Y-44435000D01*
X71091335Y-44435000D01*
X71368574Y-44379853D01*
X71629727Y-44271680D01*
X71864759Y-44114637D01*
X72064637Y-43914759D01*
X72220000Y-43682241D01*
X72375363Y-43914759D01*
X72575241Y-44114637D01*
X72810273Y-44271680D01*
X73071426Y-44379853D01*
X73348665Y-44435000D01*
X73631335Y-44435000D01*
X73908574Y-44379853D01*
X74169727Y-44271680D01*
X74404759Y-44114637D01*
X74604637Y-43914759D01*
X74760000Y-43682241D01*
X74915363Y-43914759D01*
X75115241Y-44114637D01*
X75350273Y-44271680D01*
X75611426Y-44379853D01*
X75888665Y-44435000D01*
X76171335Y-44435000D01*
X76448574Y-44379853D01*
X76709727Y-44271680D01*
X76944759Y-44114637D01*
X77144637Y-43914759D01*
X77300000Y-43682241D01*
X77455363Y-43914759D01*
X77655241Y-44114637D01*
X77890273Y-44271680D01*
X78151426Y-44379853D01*
X78428665Y-44435000D01*
X78711335Y-44435000D01*
X78988574Y-44379853D01*
X79249727Y-44271680D01*
X79484759Y-44114637D01*
X79684637Y-43914759D01*
X79840000Y-43682241D01*
X79995363Y-43914759D01*
X80195241Y-44114637D01*
X80430273Y-44271680D01*
X80691426Y-44379853D01*
X80968665Y-44435000D01*
X81251335Y-44435000D01*
X81528574Y-44379853D01*
X81789727Y-44271680D01*
X82024759Y-44114637D01*
X82224637Y-43914759D01*
X82380000Y-43682241D01*
X82535363Y-43914759D01*
X82735241Y-44114637D01*
X82970273Y-44271680D01*
X83231426Y-44379853D01*
X83508665Y-44435000D01*
X83791335Y-44435000D01*
X84068574Y-44379853D01*
X84329727Y-44271680D01*
X84564759Y-44114637D01*
X84764637Y-43914759D01*
X84921680Y-43679727D01*
X84926067Y-43669135D01*
X85037615Y-43855131D01*
X85226586Y-44063519D01*
X85452580Y-44231037D01*
X85706913Y-44351246D01*
X85840961Y-44391904D01*
X86063000Y-44269915D01*
X86063000Y-43127000D01*
X86043000Y-43127000D01*
X86043000Y-42873000D01*
X86063000Y-42873000D01*
X86063000Y-41730085D01*
X86317000Y-41730085D01*
X86317000Y-42873000D01*
X86337000Y-42873000D01*
X86337000Y-43127000D01*
X86317000Y-43127000D01*
X86317000Y-44269915D01*
X86539039Y-44391904D01*
X86673087Y-44351246D01*
X86927420Y-44231037D01*
X87153414Y-44063519D01*
X87342385Y-43855131D01*
X87453933Y-43669135D01*
X87458320Y-43679727D01*
X87615363Y-43914759D01*
X87815241Y-44114637D01*
X88050273Y-44271680D01*
X88311426Y-44379853D01*
X88588665Y-44435000D01*
X88871335Y-44435000D01*
X89148574Y-44379853D01*
X89409727Y-44271680D01*
X89644759Y-44114637D01*
X89844637Y-43914759D01*
X90000000Y-43682241D01*
X90155363Y-43914759D01*
X90355241Y-44114637D01*
X90590273Y-44271680D01*
X90851426Y-44379853D01*
X91128665Y-44435000D01*
X91411335Y-44435000D01*
X91688574Y-44379853D01*
X91949727Y-44271680D01*
X92184759Y-44114637D01*
X92384637Y-43914759D01*
X92540000Y-43682241D01*
X92695363Y-43914759D01*
X92895241Y-44114637D01*
X93130273Y-44271680D01*
X93391426Y-44379853D01*
X93668665Y-44435000D01*
X93951335Y-44435000D01*
X94228574Y-44379853D01*
X94489727Y-44271680D01*
X94724759Y-44114637D01*
X94924637Y-43914759D01*
X95080000Y-43682241D01*
X95235363Y-43914759D01*
X95435241Y-44114637D01*
X95670273Y-44271680D01*
X95931426Y-44379853D01*
X96208665Y-44435000D01*
X96491335Y-44435000D01*
X96768574Y-44379853D01*
X97029727Y-44271680D01*
X97264759Y-44114637D01*
X97464637Y-43914759D01*
X97620000Y-43682241D01*
X97775363Y-43914759D01*
X97975241Y-44114637D01*
X98210273Y-44271680D01*
X98471426Y-44379853D01*
X98748665Y-44435000D01*
X99031335Y-44435000D01*
X99308574Y-44379853D01*
X99569727Y-44271680D01*
X99804759Y-44114637D01*
X100004637Y-43914759D01*
X100160000Y-43682241D01*
X100315363Y-43914759D01*
X100515241Y-44114637D01*
X100750273Y-44271680D01*
X101011426Y-44379853D01*
X101288665Y-44435000D01*
X101571335Y-44435000D01*
X101848574Y-44379853D01*
X102109727Y-44271680D01*
X102344759Y-44114637D01*
X102544637Y-43914759D01*
X102700000Y-43682241D01*
X102855363Y-43914759D01*
X103055241Y-44114637D01*
X103290273Y-44271680D01*
X103551426Y-44379853D01*
X103828665Y-44435000D01*
X104111335Y-44435000D01*
X104388574Y-44379853D01*
X104649727Y-44271680D01*
X104884759Y-44114637D01*
X104931801Y-44067595D01*
X107018282Y-44067595D01*
X107062039Y-44386675D01*
X107167205Y-44691088D01*
X107260186Y-44865044D01*
X107524587Y-44960808D01*
X108480395Y-44005000D01*
X108839605Y-44005000D01*
X109795413Y-44960808D01*
X110059814Y-44865044D01*
X110200704Y-44575429D01*
X110228893Y-44467911D01*
X110685000Y-44467911D01*
X110685000Y-44652089D01*
X110720932Y-44832729D01*
X110791414Y-45002889D01*
X110893738Y-45156028D01*
X111023972Y-45286262D01*
X111177111Y-45388586D01*
X111347271Y-45459068D01*
X111527911Y-45495000D01*
X111712089Y-45495000D01*
X111892729Y-45459068D01*
X112062889Y-45388586D01*
X112216028Y-45286262D01*
X112346262Y-45156028D01*
X112448586Y-45002889D01*
X112519068Y-44832729D01*
X112555000Y-44652089D01*
X112555000Y-44467911D01*
X112519068Y-44287271D01*
X112448586Y-44117111D01*
X112415501Y-44067595D01*
X113518282Y-44067595D01*
X113562039Y-44386675D01*
X113667205Y-44691088D01*
X113760186Y-44865044D01*
X114024587Y-44960808D01*
X114980395Y-44005000D01*
X114024587Y-43049192D01*
X113760186Y-43144956D01*
X113619296Y-43434571D01*
X113537616Y-43746108D01*
X113518282Y-44067595D01*
X112415501Y-44067595D01*
X112346262Y-43963972D01*
X112216028Y-43833738D01*
X112062889Y-43731414D01*
X111892729Y-43660932D01*
X111712089Y-43625000D01*
X111527911Y-43625000D01*
X111347271Y-43660932D01*
X111177111Y-43731414D01*
X111023972Y-43833738D01*
X110893738Y-43963972D01*
X110791414Y-44117111D01*
X110720932Y-44287271D01*
X110685000Y-44467911D01*
X110228893Y-44467911D01*
X110282384Y-44263892D01*
X110301718Y-43942405D01*
X110257961Y-43623325D01*
X110152795Y-43318912D01*
X110059814Y-43144956D01*
X109795413Y-43049192D01*
X108839605Y-44005000D01*
X108480395Y-44005000D01*
X107524587Y-43049192D01*
X107260186Y-43144956D01*
X107119296Y-43434571D01*
X107037616Y-43746108D01*
X107018282Y-44067595D01*
X104931801Y-44067595D01*
X105084637Y-43914759D01*
X105241680Y-43679727D01*
X105349853Y-43418574D01*
X105405000Y-43141335D01*
X105405000Y-42869587D01*
X107704192Y-42869587D01*
X108660000Y-43825395D01*
X109615808Y-42869587D01*
X109520044Y-42605186D01*
X109230429Y-42464296D01*
X108918892Y-42382616D01*
X108597405Y-42363282D01*
X108278325Y-42407039D01*
X107973912Y-42512205D01*
X107799956Y-42605186D01*
X107704192Y-42869587D01*
X105405000Y-42869587D01*
X105405000Y-42858665D01*
X105349853Y-42581426D01*
X105241680Y-42320273D01*
X105084637Y-42085241D01*
X104884759Y-41885363D01*
X104649727Y-41728320D01*
X104388574Y-41620147D01*
X104111335Y-41565000D01*
X103828665Y-41565000D01*
X103551426Y-41620147D01*
X103290273Y-41728320D01*
X103055241Y-41885363D01*
X102855363Y-42085241D01*
X102700000Y-42317759D01*
X102544637Y-42085241D01*
X102344759Y-41885363D01*
X102109727Y-41728320D01*
X101848574Y-41620147D01*
X101571335Y-41565000D01*
X101288665Y-41565000D01*
X101011426Y-41620147D01*
X100750273Y-41728320D01*
X100515241Y-41885363D01*
X100315363Y-42085241D01*
X100160000Y-42317759D01*
X100004637Y-42085241D01*
X99804759Y-41885363D01*
X99569727Y-41728320D01*
X99308574Y-41620147D01*
X99031335Y-41565000D01*
X98748665Y-41565000D01*
X98471426Y-41620147D01*
X98210273Y-41728320D01*
X97975241Y-41885363D01*
X97775363Y-42085241D01*
X97620000Y-42317759D01*
X97464637Y-42085241D01*
X97264759Y-41885363D01*
X97029727Y-41728320D01*
X96768574Y-41620147D01*
X96491335Y-41565000D01*
X96208665Y-41565000D01*
X95931426Y-41620147D01*
X95670273Y-41728320D01*
X95435241Y-41885363D01*
X95235363Y-42085241D01*
X95080000Y-42317759D01*
X94924637Y-42085241D01*
X94724759Y-41885363D01*
X94489727Y-41728320D01*
X94228574Y-41620147D01*
X93951335Y-41565000D01*
X93668665Y-41565000D01*
X93391426Y-41620147D01*
X93130273Y-41728320D01*
X92895241Y-41885363D01*
X92695363Y-42085241D01*
X92540000Y-42317759D01*
X92384637Y-42085241D01*
X92184759Y-41885363D01*
X91949727Y-41728320D01*
X91688574Y-41620147D01*
X91411335Y-41565000D01*
X91128665Y-41565000D01*
X90851426Y-41620147D01*
X90590273Y-41728320D01*
X90355241Y-41885363D01*
X90155363Y-42085241D01*
X90000000Y-42317759D01*
X89844637Y-42085241D01*
X89644759Y-41885363D01*
X89409727Y-41728320D01*
X89148574Y-41620147D01*
X88871335Y-41565000D01*
X88588665Y-41565000D01*
X88311426Y-41620147D01*
X88050273Y-41728320D01*
X87815241Y-41885363D01*
X87615363Y-42085241D01*
X87458320Y-42320273D01*
X87453933Y-42330865D01*
X87342385Y-42144869D01*
X87153414Y-41936481D01*
X86927420Y-41768963D01*
X86673087Y-41648754D01*
X86539039Y-41608096D01*
X86317000Y-41730085D01*
X86063000Y-41730085D01*
X85840961Y-41608096D01*
X85706913Y-41648754D01*
X85452580Y-41768963D01*
X85226586Y-41936481D01*
X85037615Y-42144869D01*
X84926067Y-42330865D01*
X84921680Y-42320273D01*
X84764637Y-42085241D01*
X84564759Y-41885363D01*
X84329727Y-41728320D01*
X84068574Y-41620147D01*
X83791335Y-41565000D01*
X83508665Y-41565000D01*
X83231426Y-41620147D01*
X82970273Y-41728320D01*
X82735241Y-41885363D01*
X82535363Y-42085241D01*
X82380000Y-42317759D01*
X82224637Y-42085241D01*
X82024759Y-41885363D01*
X81789727Y-41728320D01*
X81528574Y-41620147D01*
X81251335Y-41565000D01*
X80968665Y-41565000D01*
X80691426Y-41620147D01*
X80430273Y-41728320D01*
X80195241Y-41885363D01*
X79995363Y-42085241D01*
X79840000Y-42317759D01*
X79684637Y-42085241D01*
X79484759Y-41885363D01*
X79249727Y-41728320D01*
X78988574Y-41620147D01*
X78711335Y-41565000D01*
X78428665Y-41565000D01*
X78151426Y-41620147D01*
X77890273Y-41728320D01*
X77655241Y-41885363D01*
X77455363Y-42085241D01*
X77300000Y-42317759D01*
X77144637Y-42085241D01*
X76944759Y-41885363D01*
X76709727Y-41728320D01*
X76448574Y-41620147D01*
X76171335Y-41565000D01*
X75888665Y-41565000D01*
X75611426Y-41620147D01*
X75350273Y-41728320D01*
X75115241Y-41885363D01*
X74915363Y-42085241D01*
X74760000Y-42317759D01*
X74604637Y-42085241D01*
X74404759Y-41885363D01*
X74169727Y-41728320D01*
X73908574Y-41620147D01*
X73631335Y-41565000D01*
X73348665Y-41565000D01*
X73071426Y-41620147D01*
X72810273Y-41728320D01*
X72575241Y-41885363D01*
X72375363Y-42085241D01*
X72220000Y-42317759D01*
X72064637Y-42085241D01*
X71864759Y-41885363D01*
X71629727Y-41728320D01*
X71368574Y-41620147D01*
X71091335Y-41565000D01*
X70808665Y-41565000D01*
X70531426Y-41620147D01*
X70270273Y-41728320D01*
X70035241Y-41885363D01*
X69835363Y-42085241D01*
X69678320Y-42320273D01*
X69570147Y-42581426D01*
X69515000Y-42858665D01*
X68653697Y-42858665D01*
X68643475Y-42843368D01*
X68436632Y-42636525D01*
X68193411Y-42474010D01*
X67923158Y-42362068D01*
X67636260Y-42305000D01*
X67343740Y-42305000D01*
X67056842Y-42362068D01*
X66786589Y-42474010D01*
X66543368Y-42636525D01*
X66375000Y-42804893D01*
X66375000Y-39488967D01*
X68545000Y-39488967D01*
X68545000Y-39811033D01*
X68607832Y-40126912D01*
X68731082Y-40424463D01*
X68910013Y-40692252D01*
X69137748Y-40919987D01*
X69405537Y-41098918D01*
X69703088Y-41222168D01*
X70018967Y-41285000D01*
X70341033Y-41285000D01*
X70656912Y-41222168D01*
X70954463Y-41098918D01*
X71222252Y-40919987D01*
X71449987Y-40692252D01*
X71628918Y-40424463D01*
X71752168Y-40126912D01*
X71815000Y-39811033D01*
X71815000Y-39488967D01*
X75045000Y-39488967D01*
X75045000Y-39811033D01*
X75107832Y-40126912D01*
X75231082Y-40424463D01*
X75410013Y-40692252D01*
X75637748Y-40919987D01*
X75905537Y-41098918D01*
X76203088Y-41222168D01*
X76518967Y-41285000D01*
X76841033Y-41285000D01*
X77156912Y-41222168D01*
X77454463Y-41098918D01*
X77722252Y-40919987D01*
X77949987Y-40692252D01*
X78128918Y-40424463D01*
X78252168Y-40126912D01*
X78315000Y-39811033D01*
X78315000Y-39488967D01*
X78252168Y-39173088D01*
X78128918Y-38875537D01*
X78059608Y-38771806D01*
X84321801Y-38771806D01*
X84436500Y-39112754D01*
X84615511Y-39424774D01*
X84851954Y-39695875D01*
X85136743Y-39915639D01*
X85458934Y-40075621D01*
X85698195Y-40148195D01*
X85983000Y-40031432D01*
X85983000Y-38487000D01*
X86237000Y-38487000D01*
X86237000Y-40031432D01*
X86521805Y-40148195D01*
X86761066Y-40075621D01*
X87083257Y-39915639D01*
X87368046Y-39695875D01*
X87604489Y-39424774D01*
X87783500Y-39112754D01*
X87898199Y-38771806D01*
X87823385Y-38588665D01*
X91495000Y-38588665D01*
X91495000Y-38871335D01*
X91550147Y-39148574D01*
X91658320Y-39409727D01*
X91815363Y-39644759D01*
X92015241Y-39844637D01*
X92250273Y-40001680D01*
X92511426Y-40109853D01*
X92788665Y-40165000D01*
X93071335Y-40165000D01*
X93348574Y-40109853D01*
X93609727Y-40001680D01*
X93844759Y-39844637D01*
X94044637Y-39644759D01*
X94201680Y-39409727D01*
X94309853Y-39148574D01*
X94365000Y-38871335D01*
X94365000Y-38588665D01*
X94775000Y-38588665D01*
X94775000Y-38871335D01*
X94830147Y-39148574D01*
X94938320Y-39409727D01*
X95095363Y-39644759D01*
X95295241Y-39844637D01*
X95530273Y-40001680D01*
X95791426Y-40109853D01*
X96068665Y-40165000D01*
X96351335Y-40165000D01*
X96628574Y-40109853D01*
X96889727Y-40001680D01*
X97124759Y-39844637D01*
X97324637Y-39644759D01*
X97481680Y-39409727D01*
X97589853Y-39148574D01*
X97645000Y-38871335D01*
X97645000Y-38588665D01*
X97920000Y-38588665D01*
X97920000Y-38871335D01*
X97975147Y-39148574D01*
X98083320Y-39409727D01*
X98240363Y-39644759D01*
X98440241Y-39844637D01*
X98675273Y-40001680D01*
X98936426Y-40109853D01*
X99213665Y-40165000D01*
X99496335Y-40165000D01*
X99773574Y-40109853D01*
X100034727Y-40001680D01*
X100269759Y-39844637D01*
X100469637Y-39644759D01*
X100626680Y-39409727D01*
X100734853Y-39148574D01*
X100790000Y-38871335D01*
X100790000Y-38588665D01*
X101065000Y-38588665D01*
X101065000Y-38871335D01*
X101120147Y-39148574D01*
X101228320Y-39409727D01*
X101385363Y-39644759D01*
X101585241Y-39844637D01*
X101820273Y-40001680D01*
X102081426Y-40109853D01*
X102358665Y-40165000D01*
X102641335Y-40165000D01*
X102918574Y-40109853D01*
X103179727Y-40001680D01*
X103414759Y-39844637D01*
X103614637Y-39644759D01*
X103712051Y-39498967D01*
X107025000Y-39498967D01*
X107025000Y-39821033D01*
X107087832Y-40136912D01*
X107211082Y-40434463D01*
X107390013Y-40702252D01*
X107617748Y-40929987D01*
X107885537Y-41108918D01*
X108183088Y-41232168D01*
X108498967Y-41295000D01*
X108821033Y-41295000D01*
X109136912Y-41232168D01*
X109434463Y-41108918D01*
X109702252Y-40929987D01*
X109929987Y-40702252D01*
X110108918Y-40434463D01*
X110232168Y-40136912D01*
X110295000Y-39821033D01*
X110295000Y-39498967D01*
X110232168Y-39183088D01*
X110108918Y-38885537D01*
X109929987Y-38617748D01*
X109702252Y-38390013D01*
X109434463Y-38211082D01*
X109136912Y-38087832D01*
X108821033Y-38025000D01*
X108498967Y-38025000D01*
X108183088Y-38087832D01*
X107885537Y-38211082D01*
X107617748Y-38390013D01*
X107390013Y-38617748D01*
X107211082Y-38885537D01*
X107087832Y-39183088D01*
X107025000Y-39498967D01*
X103712051Y-39498967D01*
X103771680Y-39409727D01*
X103879853Y-39148574D01*
X103935000Y-38871335D01*
X103935000Y-38588665D01*
X103879853Y-38311426D01*
X103771680Y-38050273D01*
X103614637Y-37815241D01*
X103414759Y-37615363D01*
X103179727Y-37458320D01*
X102918574Y-37350147D01*
X102641335Y-37295000D01*
X102358665Y-37295000D01*
X102081426Y-37350147D01*
X101820273Y-37458320D01*
X101585241Y-37615363D01*
X101385363Y-37815241D01*
X101228320Y-38050273D01*
X101120147Y-38311426D01*
X101065000Y-38588665D01*
X100790000Y-38588665D01*
X100734853Y-38311426D01*
X100626680Y-38050273D01*
X100469637Y-37815241D01*
X100269759Y-37615363D01*
X100034727Y-37458320D01*
X99773574Y-37350147D01*
X99496335Y-37295000D01*
X99213665Y-37295000D01*
X98936426Y-37350147D01*
X98675273Y-37458320D01*
X98440241Y-37615363D01*
X98240363Y-37815241D01*
X98083320Y-38050273D01*
X97975147Y-38311426D01*
X97920000Y-38588665D01*
X97645000Y-38588665D01*
X97589853Y-38311426D01*
X97481680Y-38050273D01*
X97324637Y-37815241D01*
X97124759Y-37615363D01*
X96889727Y-37458320D01*
X96628574Y-37350147D01*
X96351335Y-37295000D01*
X96068665Y-37295000D01*
X95791426Y-37350147D01*
X95530273Y-37458320D01*
X95295241Y-37615363D01*
X95095363Y-37815241D01*
X94938320Y-38050273D01*
X94830147Y-38311426D01*
X94775000Y-38588665D01*
X94365000Y-38588665D01*
X94309853Y-38311426D01*
X94201680Y-38050273D01*
X94044637Y-37815241D01*
X93844759Y-37615363D01*
X93609727Y-37458320D01*
X93348574Y-37350147D01*
X93071335Y-37295000D01*
X92788665Y-37295000D01*
X92511426Y-37350147D01*
X92250273Y-37458320D01*
X92015241Y-37615363D01*
X91815363Y-37815241D01*
X91658320Y-38050273D01*
X91550147Y-38311426D01*
X91495000Y-38588665D01*
X87823385Y-38588665D01*
X87781854Y-38487000D01*
X86237000Y-38487000D01*
X85983000Y-38487000D01*
X84438146Y-38487000D01*
X84321801Y-38771806D01*
X78059608Y-38771806D01*
X77949987Y-38607748D01*
X77722252Y-38380013D01*
X77454463Y-38201082D01*
X77156912Y-38077832D01*
X76841033Y-38015000D01*
X76518967Y-38015000D01*
X76203088Y-38077832D01*
X75905537Y-38201082D01*
X75637748Y-38380013D01*
X75410013Y-38607748D01*
X75231082Y-38875537D01*
X75107832Y-39173088D01*
X75045000Y-39488967D01*
X71815000Y-39488967D01*
X71752168Y-39173088D01*
X71628918Y-38875537D01*
X71449987Y-38607748D01*
X71222252Y-38380013D01*
X70954463Y-38201082D01*
X70656912Y-38077832D01*
X70341033Y-38015000D01*
X70018967Y-38015000D01*
X69703088Y-38077832D01*
X69405537Y-38201082D01*
X69137748Y-38380013D01*
X68910013Y-38607748D01*
X68731082Y-38875537D01*
X68607832Y-39173088D01*
X68545000Y-39488967D01*
X66375000Y-39488967D01*
X66375000Y-37948194D01*
X84321801Y-37948194D01*
X84438146Y-38233000D01*
X85983000Y-38233000D01*
X85983000Y-36688568D01*
X86237000Y-36688568D01*
X86237000Y-38233000D01*
X87781854Y-38233000D01*
X87898199Y-37948194D01*
X87783500Y-37607246D01*
X87604489Y-37295226D01*
X87368046Y-37024125D01*
X87083257Y-36804361D01*
X86761066Y-36644379D01*
X86521805Y-36571805D01*
X86237000Y-36688568D01*
X85983000Y-36688568D01*
X85698195Y-36571805D01*
X85458934Y-36644379D01*
X85136743Y-36804361D01*
X84851954Y-37024125D01*
X84615511Y-37295226D01*
X84436500Y-37607246D01*
X84321801Y-37948194D01*
X66375000Y-37948194D01*
X66375000Y-36285413D01*
X69224192Y-36285413D01*
X69319956Y-36549814D01*
X69609571Y-36690704D01*
X69921108Y-36772384D01*
X70242595Y-36791718D01*
X70561675Y-36747961D01*
X70866088Y-36642795D01*
X71040044Y-36549814D01*
X71135808Y-36285413D01*
X75724192Y-36285413D01*
X75819956Y-36549814D01*
X76109571Y-36690704D01*
X76421108Y-36772384D01*
X76742595Y-36791718D01*
X77061675Y-36747961D01*
X77366088Y-36642795D01*
X77540044Y-36549814D01*
X77635808Y-36285413D01*
X77582201Y-36231806D01*
X79001801Y-36231806D01*
X79116500Y-36572754D01*
X79295511Y-36884774D01*
X79531954Y-37155875D01*
X79816743Y-37375639D01*
X80138934Y-37535621D01*
X80378195Y-37608195D01*
X80663000Y-37491432D01*
X80663000Y-35947000D01*
X80917000Y-35947000D01*
X80917000Y-37491432D01*
X81201805Y-37608195D01*
X81441066Y-37535621D01*
X81763257Y-37375639D01*
X82048046Y-37155875D01*
X82284489Y-36884774D01*
X82463500Y-36572754D01*
X82556800Y-36295413D01*
X107704192Y-36295413D01*
X107799956Y-36559814D01*
X108089571Y-36700704D01*
X108401108Y-36782384D01*
X108722595Y-36801718D01*
X109041675Y-36757961D01*
X109346088Y-36652795D01*
X109520044Y-36559814D01*
X109615808Y-36295413D01*
X108660000Y-35339605D01*
X107704192Y-36295413D01*
X82556800Y-36295413D01*
X82578199Y-36231806D01*
X82461854Y-35947000D01*
X80917000Y-35947000D01*
X80663000Y-35947000D01*
X79118146Y-35947000D01*
X79001801Y-36231806D01*
X77582201Y-36231806D01*
X76680000Y-35329605D01*
X75724192Y-36285413D01*
X71135808Y-36285413D01*
X70180000Y-35329605D01*
X69224192Y-36285413D01*
X66375000Y-36285413D01*
X66375000Y-35212595D01*
X68538282Y-35212595D01*
X68582039Y-35531675D01*
X68687205Y-35836088D01*
X68780186Y-36010044D01*
X69044587Y-36105808D01*
X70000395Y-35150000D01*
X70359605Y-35150000D01*
X71315413Y-36105808D01*
X71579814Y-36010044D01*
X71720704Y-35720429D01*
X71802384Y-35408892D01*
X71814189Y-35212595D01*
X75038282Y-35212595D01*
X75082039Y-35531675D01*
X75187205Y-35836088D01*
X75280186Y-36010044D01*
X75544587Y-36105808D01*
X76500395Y-35150000D01*
X76859605Y-35150000D01*
X77815413Y-36105808D01*
X78079814Y-36010044D01*
X78220704Y-35720429D01*
X78302384Y-35408892D01*
X78302425Y-35408194D01*
X79001801Y-35408194D01*
X79118146Y-35693000D01*
X80663000Y-35693000D01*
X80663000Y-34148568D01*
X80917000Y-34148568D01*
X80917000Y-35693000D01*
X82461854Y-35693000D01*
X82578199Y-35408194D01*
X82463500Y-35067246D01*
X82452408Y-35047911D01*
X84295000Y-35047911D01*
X84295000Y-35232089D01*
X84330932Y-35412729D01*
X84401414Y-35582889D01*
X84503738Y-35736028D01*
X84633972Y-35866262D01*
X84787111Y-35968586D01*
X84957271Y-36039068D01*
X85137911Y-36075000D01*
X85322089Y-36075000D01*
X85502729Y-36039068D01*
X85672889Y-35968586D01*
X85826028Y-35866262D01*
X85956262Y-35736028D01*
X86058586Y-35582889D01*
X86129068Y-35412729D01*
X86165000Y-35232089D01*
X86165000Y-35047911D01*
X87045000Y-35047911D01*
X87045000Y-35232089D01*
X87080932Y-35412729D01*
X87151414Y-35582889D01*
X87253738Y-35736028D01*
X87383972Y-35866262D01*
X87537111Y-35968586D01*
X87707271Y-36039068D01*
X87887911Y-36075000D01*
X88072089Y-36075000D01*
X88252729Y-36039068D01*
X88422889Y-35968586D01*
X88576028Y-35866262D01*
X88706262Y-35736028D01*
X88808586Y-35582889D01*
X88879068Y-35412729D01*
X88915000Y-35232089D01*
X88915000Y-35227911D01*
X89985000Y-35227911D01*
X89985000Y-35412089D01*
X90020932Y-35592729D01*
X90091414Y-35762889D01*
X90193738Y-35916028D01*
X90323972Y-36046262D01*
X90477111Y-36148586D01*
X90647271Y-36219068D01*
X90827911Y-36255000D01*
X91012089Y-36255000D01*
X91192729Y-36219068D01*
X91362889Y-36148586D01*
X91516028Y-36046262D01*
X91646262Y-35916028D01*
X91748586Y-35762889D01*
X91819068Y-35592729D01*
X91855000Y-35412089D01*
X91855000Y-35227911D01*
X92735000Y-35227911D01*
X92735000Y-35412089D01*
X92770932Y-35592729D01*
X92841414Y-35762889D01*
X92943738Y-35916028D01*
X93073972Y-36046262D01*
X93227111Y-36148586D01*
X93397271Y-36219068D01*
X93577911Y-36255000D01*
X93762089Y-36255000D01*
X93942729Y-36219068D01*
X94112889Y-36148586D01*
X94266028Y-36046262D01*
X94396262Y-35916028D01*
X94498586Y-35762889D01*
X94569068Y-35592729D01*
X94605000Y-35412089D01*
X94605000Y-35227911D01*
X95755000Y-35227911D01*
X95755000Y-35412089D01*
X95790932Y-35592729D01*
X95861414Y-35762889D01*
X95963738Y-35916028D01*
X96093972Y-36046262D01*
X96247111Y-36148586D01*
X96417271Y-36219068D01*
X96597911Y-36255000D01*
X96782089Y-36255000D01*
X96962729Y-36219068D01*
X97132889Y-36148586D01*
X97286028Y-36046262D01*
X97416262Y-35916028D01*
X97518586Y-35762889D01*
X97589068Y-35592729D01*
X97625000Y-35412089D01*
X97625000Y-35227911D01*
X98505000Y-35227911D01*
X98505000Y-35412089D01*
X98540932Y-35592729D01*
X98611414Y-35762889D01*
X98713738Y-35916028D01*
X98843972Y-36046262D01*
X98997111Y-36148586D01*
X99167271Y-36219068D01*
X99347911Y-36255000D01*
X99532089Y-36255000D01*
X99712729Y-36219068D01*
X99882889Y-36148586D01*
X100036028Y-36046262D01*
X100166262Y-35916028D01*
X100268586Y-35762889D01*
X100339068Y-35592729D01*
X100375000Y-35412089D01*
X100375000Y-35227911D01*
X101195000Y-35227911D01*
X101195000Y-35412089D01*
X101230932Y-35592729D01*
X101301414Y-35762889D01*
X101403738Y-35916028D01*
X101533972Y-36046262D01*
X101687111Y-36148586D01*
X101857271Y-36219068D01*
X102037911Y-36255000D01*
X102222089Y-36255000D01*
X102402729Y-36219068D01*
X102572889Y-36148586D01*
X102726028Y-36046262D01*
X102856262Y-35916028D01*
X102958586Y-35762889D01*
X103029068Y-35592729D01*
X103065000Y-35412089D01*
X103065000Y-35227911D01*
X103945000Y-35227911D01*
X103945000Y-35412089D01*
X103980932Y-35592729D01*
X104051414Y-35762889D01*
X104153738Y-35916028D01*
X104283972Y-36046262D01*
X104437111Y-36148586D01*
X104607271Y-36219068D01*
X104787911Y-36255000D01*
X104972089Y-36255000D01*
X105152729Y-36219068D01*
X105322889Y-36148586D01*
X105476028Y-36046262D01*
X105606262Y-35916028D01*
X105708586Y-35762889D01*
X105779068Y-35592729D01*
X105815000Y-35412089D01*
X105815000Y-35227911D01*
X105813943Y-35222595D01*
X107018282Y-35222595D01*
X107062039Y-35541675D01*
X107167205Y-35846088D01*
X107260186Y-36020044D01*
X107524587Y-36115808D01*
X108480395Y-35160000D01*
X108839605Y-35160000D01*
X109795413Y-36115808D01*
X110059814Y-36020044D01*
X110200704Y-35730429D01*
X110282384Y-35418892D01*
X110294189Y-35222595D01*
X113518282Y-35222595D01*
X113562039Y-35541675D01*
X113667205Y-35846088D01*
X113760186Y-36020044D01*
X114024587Y-36115808D01*
X114980395Y-35160000D01*
X114024587Y-34204192D01*
X113760186Y-34299956D01*
X113619296Y-34589571D01*
X113537616Y-34901108D01*
X113518282Y-35222595D01*
X110294189Y-35222595D01*
X110301718Y-35097405D01*
X110257961Y-34778325D01*
X110152795Y-34473912D01*
X110059814Y-34299956D01*
X109795413Y-34204192D01*
X108839605Y-35160000D01*
X108480395Y-35160000D01*
X107524587Y-34204192D01*
X107260186Y-34299956D01*
X107119296Y-34589571D01*
X107037616Y-34901108D01*
X107018282Y-35222595D01*
X105813943Y-35222595D01*
X105779068Y-35047271D01*
X105708586Y-34877111D01*
X105606262Y-34723972D01*
X105476028Y-34593738D01*
X105322889Y-34491414D01*
X105152729Y-34420932D01*
X104972089Y-34385000D01*
X104787911Y-34385000D01*
X104607271Y-34420932D01*
X104437111Y-34491414D01*
X104283972Y-34593738D01*
X104153738Y-34723972D01*
X104051414Y-34877111D01*
X103980932Y-35047271D01*
X103945000Y-35227911D01*
X103065000Y-35227911D01*
X103029068Y-35047271D01*
X102958586Y-34877111D01*
X102856262Y-34723972D01*
X102726028Y-34593738D01*
X102572889Y-34491414D01*
X102402729Y-34420932D01*
X102222089Y-34385000D01*
X102037911Y-34385000D01*
X101857271Y-34420932D01*
X101687111Y-34491414D01*
X101533972Y-34593738D01*
X101403738Y-34723972D01*
X101301414Y-34877111D01*
X101230932Y-35047271D01*
X101195000Y-35227911D01*
X100375000Y-35227911D01*
X100339068Y-35047271D01*
X100268586Y-34877111D01*
X100166262Y-34723972D01*
X100036028Y-34593738D01*
X99882889Y-34491414D01*
X99712729Y-34420932D01*
X99532089Y-34385000D01*
X99347911Y-34385000D01*
X99167271Y-34420932D01*
X98997111Y-34491414D01*
X98843972Y-34593738D01*
X98713738Y-34723972D01*
X98611414Y-34877111D01*
X98540932Y-35047271D01*
X98505000Y-35227911D01*
X97625000Y-35227911D01*
X97589068Y-35047271D01*
X97518586Y-34877111D01*
X97416262Y-34723972D01*
X97286028Y-34593738D01*
X97132889Y-34491414D01*
X96962729Y-34420932D01*
X96782089Y-34385000D01*
X96597911Y-34385000D01*
X96417271Y-34420932D01*
X96247111Y-34491414D01*
X96093972Y-34593738D01*
X95963738Y-34723972D01*
X95861414Y-34877111D01*
X95790932Y-35047271D01*
X95755000Y-35227911D01*
X94605000Y-35227911D01*
X94569068Y-35047271D01*
X94498586Y-34877111D01*
X94396262Y-34723972D01*
X94266028Y-34593738D01*
X94112889Y-34491414D01*
X93942729Y-34420932D01*
X93762089Y-34385000D01*
X93577911Y-34385000D01*
X93397271Y-34420932D01*
X93227111Y-34491414D01*
X93073972Y-34593738D01*
X92943738Y-34723972D01*
X92841414Y-34877111D01*
X92770932Y-35047271D01*
X92735000Y-35227911D01*
X91855000Y-35227911D01*
X91819068Y-35047271D01*
X91748586Y-34877111D01*
X91646262Y-34723972D01*
X91516028Y-34593738D01*
X91362889Y-34491414D01*
X91192729Y-34420932D01*
X91012089Y-34385000D01*
X90827911Y-34385000D01*
X90647271Y-34420932D01*
X90477111Y-34491414D01*
X90323972Y-34593738D01*
X90193738Y-34723972D01*
X90091414Y-34877111D01*
X90020932Y-35047271D01*
X89985000Y-35227911D01*
X88915000Y-35227911D01*
X88915000Y-35047911D01*
X88879068Y-34867271D01*
X88808586Y-34697111D01*
X88706262Y-34543972D01*
X88576028Y-34413738D01*
X88422889Y-34311414D01*
X88252729Y-34240932D01*
X88072089Y-34205000D01*
X87887911Y-34205000D01*
X87707271Y-34240932D01*
X87537111Y-34311414D01*
X87383972Y-34413738D01*
X87253738Y-34543972D01*
X87151414Y-34697111D01*
X87080932Y-34867271D01*
X87045000Y-35047911D01*
X86165000Y-35047911D01*
X86129068Y-34867271D01*
X86058586Y-34697111D01*
X85956262Y-34543972D01*
X85826028Y-34413738D01*
X85672889Y-34311414D01*
X85502729Y-34240932D01*
X85322089Y-34205000D01*
X85137911Y-34205000D01*
X84957271Y-34240932D01*
X84787111Y-34311414D01*
X84633972Y-34413738D01*
X84503738Y-34543972D01*
X84401414Y-34697111D01*
X84330932Y-34867271D01*
X84295000Y-35047911D01*
X82452408Y-35047911D01*
X82284489Y-34755226D01*
X82048046Y-34484125D01*
X81763257Y-34264361D01*
X81441066Y-34104379D01*
X81201805Y-34031805D01*
X80917000Y-34148568D01*
X80663000Y-34148568D01*
X80378195Y-34031805D01*
X80138934Y-34104379D01*
X79816743Y-34264361D01*
X79531954Y-34484125D01*
X79295511Y-34755226D01*
X79116500Y-35067246D01*
X79001801Y-35408194D01*
X78302425Y-35408194D01*
X78321718Y-35087405D01*
X78277961Y-34768325D01*
X78172795Y-34463912D01*
X78079814Y-34289956D01*
X77815413Y-34194192D01*
X76859605Y-35150000D01*
X76500395Y-35150000D01*
X75544587Y-34194192D01*
X75280186Y-34289956D01*
X75139296Y-34579571D01*
X75057616Y-34891108D01*
X75038282Y-35212595D01*
X71814189Y-35212595D01*
X71821718Y-35087405D01*
X71777961Y-34768325D01*
X71672795Y-34463912D01*
X71579814Y-34289956D01*
X71315413Y-34194192D01*
X70359605Y-35150000D01*
X70000395Y-35150000D01*
X69044587Y-34194192D01*
X68780186Y-34289956D01*
X68639296Y-34579571D01*
X68557616Y-34891108D01*
X68538282Y-35212595D01*
X66375000Y-35212595D01*
X66375000Y-34014587D01*
X69224192Y-34014587D01*
X70180000Y-34970395D01*
X71135808Y-34014587D01*
X75724192Y-34014587D01*
X76680000Y-34970395D01*
X77625808Y-34024587D01*
X107704192Y-34024587D01*
X108660000Y-34980395D01*
X109615808Y-34024587D01*
X109520044Y-33760186D01*
X109230429Y-33619296D01*
X108918892Y-33537616D01*
X108597405Y-33518282D01*
X108278325Y-33562039D01*
X107973912Y-33667205D01*
X107799956Y-33760186D01*
X107704192Y-34024587D01*
X77625808Y-34024587D01*
X77635808Y-34014587D01*
X77540044Y-33750186D01*
X77250429Y-33609296D01*
X76938892Y-33527616D01*
X76617405Y-33508282D01*
X76298325Y-33552039D01*
X75993912Y-33657205D01*
X75819956Y-33750186D01*
X75724192Y-34014587D01*
X71135808Y-34014587D01*
X71040044Y-33750186D01*
X70750429Y-33609296D01*
X70438892Y-33527616D01*
X70117405Y-33508282D01*
X69798325Y-33552039D01*
X69493912Y-33657205D01*
X69319956Y-33750186D01*
X69224192Y-34014587D01*
X66375000Y-34014587D01*
X66375000Y-30838665D01*
X67305000Y-30838665D01*
X67305000Y-31121335D01*
X67360147Y-31398574D01*
X67468320Y-31659727D01*
X67625363Y-31894759D01*
X67825241Y-32094637D01*
X68060273Y-32251680D01*
X68321426Y-32359853D01*
X68598665Y-32415000D01*
X68881335Y-32415000D01*
X69158574Y-32359853D01*
X69419727Y-32251680D01*
X69654759Y-32094637D01*
X69854637Y-31894759D01*
X70011680Y-31659727D01*
X70119853Y-31398574D01*
X70133684Y-31329039D01*
X74968096Y-31329039D01*
X75008754Y-31463087D01*
X75128963Y-31717420D01*
X75296481Y-31943414D01*
X75504869Y-32132385D01*
X75746119Y-32277070D01*
X76010960Y-32371909D01*
X76233000Y-32250624D01*
X76233000Y-31107000D01*
X76487000Y-31107000D01*
X76487000Y-32250624D01*
X76709040Y-32371909D01*
X76915681Y-32297911D01*
X84295000Y-32297911D01*
X84295000Y-32482089D01*
X84330932Y-32662729D01*
X84401414Y-32832889D01*
X84503738Y-32986028D01*
X84633972Y-33116262D01*
X84787111Y-33218586D01*
X84957271Y-33289068D01*
X85137911Y-33325000D01*
X85322089Y-33325000D01*
X85502729Y-33289068D01*
X85672889Y-33218586D01*
X85826028Y-33116262D01*
X85956262Y-32986028D01*
X86058586Y-32832889D01*
X86129068Y-32662729D01*
X86165000Y-32482089D01*
X86165000Y-32297911D01*
X87045000Y-32297911D01*
X87045000Y-32482089D01*
X87080932Y-32662729D01*
X87151414Y-32832889D01*
X87253738Y-32986028D01*
X87383972Y-33116262D01*
X87537111Y-33218586D01*
X87707271Y-33289068D01*
X87887911Y-33325000D01*
X88072089Y-33325000D01*
X88252729Y-33289068D01*
X88422889Y-33218586D01*
X88576028Y-33116262D01*
X88706262Y-32986028D01*
X88808586Y-32832889D01*
X88879068Y-32662729D01*
X88915000Y-32482089D01*
X88915000Y-32297911D01*
X88879068Y-32117271D01*
X88808586Y-31947111D01*
X88706262Y-31793972D01*
X88576028Y-31663738D01*
X88422889Y-31561414D01*
X88252729Y-31490932D01*
X88072089Y-31455000D01*
X87887911Y-31455000D01*
X87707271Y-31490932D01*
X87537111Y-31561414D01*
X87383972Y-31663738D01*
X87253738Y-31793972D01*
X87151414Y-31947111D01*
X87080932Y-32117271D01*
X87045000Y-32297911D01*
X86165000Y-32297911D01*
X86129068Y-32117271D01*
X86058586Y-31947111D01*
X85956262Y-31793972D01*
X85826028Y-31663738D01*
X85672889Y-31561414D01*
X85502729Y-31490932D01*
X85322089Y-31455000D01*
X85137911Y-31455000D01*
X84957271Y-31490932D01*
X84787111Y-31561414D01*
X84633972Y-31663738D01*
X84503738Y-31793972D01*
X84401414Y-31947111D01*
X84330932Y-32117271D01*
X84295000Y-32297911D01*
X76915681Y-32297911D01*
X76973881Y-32277070D01*
X77215131Y-32132385D01*
X77423519Y-31943414D01*
X77591037Y-31717420D01*
X77711246Y-31463087D01*
X77751904Y-31329039D01*
X77629915Y-31107000D01*
X76487000Y-31107000D01*
X76233000Y-31107000D01*
X75090085Y-31107000D01*
X74968096Y-31329039D01*
X70133684Y-31329039D01*
X70175000Y-31121335D01*
X70175000Y-30968665D01*
X91495000Y-30968665D01*
X91495000Y-31251335D01*
X91550147Y-31528574D01*
X91658320Y-31789727D01*
X91815363Y-32024759D01*
X92015241Y-32224637D01*
X92250273Y-32381680D01*
X92511426Y-32489853D01*
X92788665Y-32545000D01*
X93071335Y-32545000D01*
X93348574Y-32489853D01*
X93609727Y-32381680D01*
X93844759Y-32224637D01*
X94044637Y-32024759D01*
X94201680Y-31789727D01*
X94309853Y-31528574D01*
X94365000Y-31251335D01*
X94365000Y-30968665D01*
X94775000Y-30968665D01*
X94775000Y-31251335D01*
X94830147Y-31528574D01*
X94938320Y-31789727D01*
X95095363Y-32024759D01*
X95295241Y-32224637D01*
X95530273Y-32381680D01*
X95791426Y-32489853D01*
X96068665Y-32545000D01*
X96351335Y-32545000D01*
X96628574Y-32489853D01*
X96889727Y-32381680D01*
X97124759Y-32224637D01*
X97324637Y-32024759D01*
X97481680Y-31789727D01*
X97589853Y-31528574D01*
X97645000Y-31251335D01*
X97645000Y-30968665D01*
X97920000Y-30968665D01*
X97920000Y-31251335D01*
X97975147Y-31528574D01*
X98083320Y-31789727D01*
X98240363Y-32024759D01*
X98440241Y-32224637D01*
X98675273Y-32381680D01*
X98936426Y-32489853D01*
X99213665Y-32545000D01*
X99496335Y-32545000D01*
X99773574Y-32489853D01*
X100034727Y-32381680D01*
X100269759Y-32224637D01*
X100469637Y-32024759D01*
X100626680Y-31789727D01*
X100734853Y-31528574D01*
X100790000Y-31251335D01*
X100790000Y-30968665D01*
X101065000Y-30968665D01*
X101065000Y-31251335D01*
X101120147Y-31528574D01*
X101228320Y-31789727D01*
X101385363Y-32024759D01*
X101585241Y-32224637D01*
X101820273Y-32381680D01*
X102081426Y-32489853D01*
X102358665Y-32545000D01*
X102641335Y-32545000D01*
X102918574Y-32489853D01*
X103179727Y-32381680D01*
X103414759Y-32224637D01*
X103614637Y-32024759D01*
X103771680Y-31789727D01*
X103879853Y-31528574D01*
X103935000Y-31251335D01*
X103935000Y-30968665D01*
X103879853Y-30691426D01*
X103771680Y-30430273D01*
X103614637Y-30195241D01*
X103414759Y-29995363D01*
X103179727Y-29838320D01*
X102918574Y-29730147D01*
X102641335Y-29675000D01*
X102358665Y-29675000D01*
X102081426Y-29730147D01*
X101820273Y-29838320D01*
X101585241Y-29995363D01*
X101385363Y-30195241D01*
X101228320Y-30430273D01*
X101120147Y-30691426D01*
X101065000Y-30968665D01*
X100790000Y-30968665D01*
X100734853Y-30691426D01*
X100626680Y-30430273D01*
X100469637Y-30195241D01*
X100269759Y-29995363D01*
X100034727Y-29838320D01*
X99773574Y-29730147D01*
X99496335Y-29675000D01*
X99213665Y-29675000D01*
X98936426Y-29730147D01*
X98675273Y-29838320D01*
X98440241Y-29995363D01*
X98240363Y-30195241D01*
X98083320Y-30430273D01*
X97975147Y-30691426D01*
X97920000Y-30968665D01*
X97645000Y-30968665D01*
X97589853Y-30691426D01*
X97481680Y-30430273D01*
X97324637Y-30195241D01*
X97124759Y-29995363D01*
X96889727Y-29838320D01*
X96628574Y-29730147D01*
X96351335Y-29675000D01*
X96068665Y-29675000D01*
X95791426Y-29730147D01*
X95530273Y-29838320D01*
X95295241Y-29995363D01*
X95095363Y-30195241D01*
X94938320Y-30430273D01*
X94830147Y-30691426D01*
X94775000Y-30968665D01*
X94365000Y-30968665D01*
X94309853Y-30691426D01*
X94201680Y-30430273D01*
X94044637Y-30195241D01*
X93844759Y-29995363D01*
X93609727Y-29838320D01*
X93348574Y-29730147D01*
X93071335Y-29675000D01*
X92788665Y-29675000D01*
X92511426Y-29730147D01*
X92250273Y-29838320D01*
X92015241Y-29995363D01*
X91815363Y-30195241D01*
X91658320Y-30430273D01*
X91550147Y-30691426D01*
X91495000Y-30968665D01*
X70175000Y-30968665D01*
X70175000Y-30838665D01*
X70133685Y-30630961D01*
X74968096Y-30630961D01*
X75090085Y-30853000D01*
X76233000Y-30853000D01*
X76233000Y-29709376D01*
X76487000Y-29709376D01*
X76487000Y-30853000D01*
X77629915Y-30853000D01*
X77751904Y-30630961D01*
X77711246Y-30496913D01*
X77591037Y-30242580D01*
X77423519Y-30016586D01*
X77215131Y-29827615D01*
X76973881Y-29682930D01*
X76709040Y-29588091D01*
X76487000Y-29709376D01*
X76233000Y-29709376D01*
X76010960Y-29588091D01*
X75746119Y-29682930D01*
X75504869Y-29827615D01*
X75296481Y-30016586D01*
X75128963Y-30242580D01*
X75008754Y-30496913D01*
X74968096Y-30630961D01*
X70133685Y-30630961D01*
X70119853Y-30561426D01*
X70011680Y-30300273D01*
X69854637Y-30065241D01*
X69654759Y-29865363D01*
X69419727Y-29708320D01*
X69158574Y-29600147D01*
X68881335Y-29545000D01*
X68598665Y-29545000D01*
X68321426Y-29600147D01*
X68060273Y-29708320D01*
X67825241Y-29865363D01*
X67625363Y-30065241D01*
X67468320Y-30300273D01*
X67360147Y-30561426D01*
X67305000Y-30838665D01*
X66375000Y-30838665D01*
X66375000Y-30814345D01*
X68283832Y-28905514D01*
X70881928Y-28925846D01*
X70881928Y-29060000D01*
X70894188Y-29184482D01*
X70930498Y-29304180D01*
X70989463Y-29414494D01*
X71068815Y-29511185D01*
X71165506Y-29590537D01*
X71275820Y-29649502D01*
X71395518Y-29685812D01*
X71520000Y-29698072D01*
X73320000Y-29698072D01*
X73444482Y-29685812D01*
X73564180Y-29649502D01*
X73674494Y-29590537D01*
X73771185Y-29511185D01*
X73850537Y-29414494D01*
X73909502Y-29304180D01*
X73945812Y-29184482D01*
X73958072Y-29060000D01*
X73958072Y-28949919D01*
X84515175Y-29032535D01*
X84503738Y-29043972D01*
X84401414Y-29197111D01*
X84330932Y-29367271D01*
X84295000Y-29547911D01*
X84295000Y-29732089D01*
X84330932Y-29912729D01*
X84401414Y-30082889D01*
X84503738Y-30236028D01*
X84633972Y-30366262D01*
X84787111Y-30468586D01*
X84957271Y-30539068D01*
X85137911Y-30575000D01*
X85322089Y-30575000D01*
X85502729Y-30539068D01*
X85672889Y-30468586D01*
X85826028Y-30366262D01*
X85956262Y-30236028D01*
X86058586Y-30082889D01*
X86129068Y-29912729D01*
X86165000Y-29732089D01*
X86165000Y-29547911D01*
X86129068Y-29367271D01*
X86058586Y-29197111D01*
X85956262Y-29043972D01*
X85956102Y-29043812D01*
X87247095Y-29053914D01*
X87151414Y-29197111D01*
X87080932Y-29367271D01*
X87045000Y-29547911D01*
X87045000Y-29732089D01*
X87080932Y-29912729D01*
X87151414Y-30082889D01*
X87253738Y-30236028D01*
X87383972Y-30366262D01*
X87537111Y-30468586D01*
X87707271Y-30539068D01*
X87887911Y-30575000D01*
X88072089Y-30575000D01*
X88252729Y-30539068D01*
X88422889Y-30468586D01*
X88576028Y-30366262D01*
X88706262Y-30236028D01*
X88808586Y-30082889D01*
X88879068Y-29912729D01*
X88915000Y-29732089D01*
X88915000Y-29547911D01*
X88879068Y-29367271D01*
X88808586Y-29197111D01*
X88720610Y-29065446D01*
X106858039Y-29207384D01*
X107191498Y-29540843D01*
X107211637Y-29570983D01*
X107509017Y-29868363D01*
X107858698Y-30102012D01*
X108247244Y-30262953D01*
X108659721Y-30345000D01*
X109080279Y-30345000D01*
X109492756Y-30262953D01*
X109881302Y-30102012D01*
X110230983Y-29868363D01*
X110389346Y-29710000D01*
X111811928Y-29710000D01*
X111824188Y-29834482D01*
X111860498Y-29954180D01*
X111919463Y-30064494D01*
X111998815Y-30161185D01*
X112095506Y-30240537D01*
X112205820Y-30299502D01*
X112325518Y-30335812D01*
X112450000Y-30348072D01*
X113664250Y-30345000D01*
X113823000Y-30186250D01*
X113823000Y-28337000D01*
X114077000Y-28337000D01*
X114077000Y-30186250D01*
X114235750Y-30345000D01*
X115450000Y-30348072D01*
X115574482Y-30335812D01*
X115694180Y-30299502D01*
X115804494Y-30240537D01*
X115901185Y-30161185D01*
X115980537Y-30064494D01*
X116039502Y-29954180D01*
X116075812Y-29834482D01*
X116088072Y-29710000D01*
X116085000Y-28495750D01*
X115926250Y-28337000D01*
X114077000Y-28337000D01*
X113823000Y-28337000D01*
X111973750Y-28337000D01*
X111815000Y-28495750D01*
X111811928Y-29710000D01*
X110389346Y-29710000D01*
X110528363Y-29570983D01*
X110762012Y-29221302D01*
X110922953Y-28832756D01*
X111005000Y-28420279D01*
X111005000Y-28193339D01*
X111005329Y-28189999D01*
X111005000Y-28186659D01*
X111005000Y-27999721D01*
X110968530Y-27816375D01*
X110964107Y-27771466D01*
X110951007Y-27728282D01*
X110922953Y-27587244D01*
X110867922Y-27454387D01*
X110842025Y-27369017D01*
X110799971Y-27290340D01*
X110762012Y-27198698D01*
X110706905Y-27116224D01*
X110643776Y-26998118D01*
X110558820Y-26894599D01*
X110528363Y-26849017D01*
X110523515Y-26844169D01*
X110554206Y-26710000D01*
X111811928Y-26710000D01*
X111815000Y-27924250D01*
X111973750Y-28083000D01*
X113823000Y-28083000D01*
X113823000Y-26233750D01*
X114077000Y-26233750D01*
X114077000Y-28083000D01*
X115926250Y-28083000D01*
X116085000Y-27924250D01*
X116088072Y-26710000D01*
X116075812Y-26585518D01*
X116039502Y-26465820D01*
X115980537Y-26355506D01*
X115901185Y-26258815D01*
X115804494Y-26179463D01*
X115694180Y-26120498D01*
X115574482Y-26084188D01*
X115450000Y-26071928D01*
X114235750Y-26075000D01*
X114077000Y-26233750D01*
X113823000Y-26233750D01*
X113664250Y-26075000D01*
X112450000Y-26071928D01*
X112325518Y-26084188D01*
X112205820Y-26120498D01*
X112095506Y-26179463D01*
X111998815Y-26258815D01*
X111919463Y-26355506D01*
X111860498Y-26465820D01*
X111824188Y-26585518D01*
X111811928Y-26710000D01*
X110554206Y-26710000D01*
X111050593Y-24540000D01*
X116200000Y-24540000D01*
X116200000Y-33940392D01*
%TA.AperFunction,Conductor*%
D29*
G36*
X116200000Y-33940392D02*
G01*
X116115807Y-34024585D01*
X116020044Y-33760186D01*
X115730429Y-33619296D01*
X115418892Y-33537616D01*
X115097405Y-33518282D01*
X114778325Y-33562039D01*
X114473912Y-33667205D01*
X114299956Y-33760186D01*
X114204192Y-34024587D01*
X115160000Y-34980395D01*
X115174143Y-34966253D01*
X115353748Y-35145858D01*
X115339605Y-35160000D01*
X115353748Y-35174143D01*
X115174143Y-35353748D01*
X115160000Y-35339605D01*
X114204192Y-36295413D01*
X114299956Y-36559814D01*
X114589571Y-36700704D01*
X114901108Y-36782384D01*
X115222595Y-36801718D01*
X115541675Y-36757961D01*
X115846088Y-36652795D01*
X116020044Y-36559814D01*
X116115807Y-36295415D01*
X116200000Y-36379608D01*
X116200000Y-38388508D01*
X115934463Y-38211082D01*
X115636912Y-38087832D01*
X115321033Y-38025000D01*
X114998967Y-38025000D01*
X114683088Y-38087832D01*
X114385537Y-38211082D01*
X114117748Y-38390013D01*
X113890013Y-38617748D01*
X113711082Y-38885537D01*
X113587832Y-39183088D01*
X113525000Y-39498967D01*
X113525000Y-39821033D01*
X113587832Y-40136912D01*
X113711082Y-40434463D01*
X113890013Y-40702252D01*
X114117748Y-40929987D01*
X114385537Y-41108918D01*
X114683088Y-41232168D01*
X114998967Y-41295000D01*
X115321033Y-41295000D01*
X115636912Y-41232168D01*
X115934463Y-41108918D01*
X116200000Y-40931492D01*
X116200000Y-42785392D01*
X116115807Y-42869585D01*
X116020044Y-42605186D01*
X115730429Y-42464296D01*
X115418892Y-42382616D01*
X115097405Y-42363282D01*
X114778325Y-42407039D01*
X114473912Y-42512205D01*
X114299956Y-42605186D01*
X114204192Y-42869587D01*
X115160000Y-43825395D01*
X115174143Y-43811253D01*
X115353748Y-43990858D01*
X115339605Y-44005000D01*
X115353748Y-44019143D01*
X115174143Y-44198748D01*
X115160000Y-44184605D01*
X114204192Y-45140413D01*
X114299956Y-45404814D01*
X114589571Y-45545704D01*
X114901108Y-45627384D01*
X115222595Y-45646718D01*
X115541675Y-45602961D01*
X115846088Y-45497795D01*
X116020044Y-45404814D01*
X116115807Y-45140415D01*
X116200000Y-45224608D01*
X116200000Y-47233509D01*
X115934463Y-47056082D01*
X115636912Y-46932832D01*
X115321033Y-46870000D01*
X114998967Y-46870000D01*
X114683088Y-46932832D01*
X114385537Y-47056082D01*
X114117748Y-47235013D01*
X113890013Y-47462748D01*
X113711082Y-47730537D01*
X113587832Y-48028088D01*
X113525000Y-48343967D01*
X113525000Y-48666033D01*
X113587832Y-48981912D01*
X113711082Y-49279463D01*
X113890013Y-49547252D01*
X114117748Y-49774987D01*
X114385537Y-49953918D01*
X114683088Y-50077168D01*
X114998967Y-50140000D01*
X115321033Y-50140000D01*
X115636912Y-50077168D01*
X115934463Y-49953918D01*
X116200001Y-49776491D01*
X116200001Y-51630391D01*
X116115807Y-51714585D01*
X116020044Y-51450186D01*
X115730429Y-51309296D01*
X115418892Y-51227616D01*
X115097405Y-51208282D01*
X114778325Y-51252039D01*
X114473912Y-51357205D01*
X114299956Y-51450186D01*
X114204192Y-51714587D01*
X115160000Y-52670395D01*
X115174143Y-52656253D01*
X115353748Y-52835858D01*
X115339605Y-52850000D01*
X115353748Y-52864143D01*
X115174143Y-53043748D01*
X115160000Y-53029605D01*
X114204192Y-53985413D01*
X114299956Y-54249814D01*
X114589571Y-54390704D01*
X114901108Y-54472384D01*
X115222595Y-54491718D01*
X115541675Y-54447961D01*
X115846088Y-54342795D01*
X116020044Y-54249814D01*
X116115807Y-53985415D01*
X116200001Y-54069609D01*
X116200001Y-56078509D01*
X115934463Y-55901082D01*
X115636912Y-55777832D01*
X115321033Y-55715000D01*
X114998967Y-55715000D01*
X114683088Y-55777832D01*
X114385537Y-55901082D01*
X114117748Y-56080013D01*
X113890013Y-56307748D01*
X113711082Y-56575537D01*
X113587832Y-56873088D01*
X113525000Y-57188967D01*
X113525000Y-57511033D01*
X113587832Y-57826912D01*
X113711082Y-58124463D01*
X113890013Y-58392252D01*
X114117748Y-58619987D01*
X114385537Y-58798918D01*
X114683088Y-58922168D01*
X114998967Y-58985000D01*
X115321033Y-58985000D01*
X115636912Y-58922168D01*
X115934463Y-58798918D01*
X116200001Y-58621491D01*
X116200001Y-74985950D01*
X101695481Y-74985950D01*
X101770537Y-74894494D01*
X101829502Y-74784180D01*
X101865812Y-74664482D01*
X101878072Y-74540000D01*
X101875000Y-73975750D01*
X101716250Y-73817000D01*
X100517000Y-73817000D01*
X100517000Y-73837000D01*
X100263000Y-73837000D01*
X100263000Y-73817000D01*
X100243000Y-73817000D01*
X100243000Y-73563000D01*
X100263000Y-73563000D01*
X100263000Y-72363750D01*
X100517000Y-72363750D01*
X100517000Y-73563000D01*
X101716250Y-73563000D01*
X101875000Y-73404250D01*
X101878072Y-72840000D01*
X101865812Y-72715518D01*
X101829502Y-72595820D01*
X101770537Y-72485506D01*
X101691185Y-72388815D01*
X101594494Y-72309463D01*
X101484180Y-72250498D01*
X101364482Y-72214188D01*
X101240000Y-72201928D01*
X100675750Y-72205000D01*
X100517000Y-72363750D01*
X100263000Y-72363750D01*
X100104250Y-72205000D01*
X99540000Y-72201928D01*
X99415518Y-72214188D01*
X99295820Y-72250498D01*
X99185506Y-72309463D01*
X99088815Y-72388815D01*
X99009463Y-72485506D01*
X98950498Y-72595820D01*
X98928487Y-72668380D01*
X98796632Y-72536525D01*
X98553411Y-72374010D01*
X98283158Y-72262068D01*
X97996260Y-72205000D01*
X97703740Y-72205000D01*
X97416842Y-72262068D01*
X97146589Y-72374010D01*
X96903368Y-72536525D01*
X96696525Y-72743368D01*
X96580000Y-72917760D01*
X96463475Y-72743368D01*
X96256632Y-72536525D01*
X96013411Y-72374010D01*
X95743158Y-72262068D01*
X95456260Y-72205000D01*
X95163740Y-72205000D01*
X94876842Y-72262068D01*
X94606589Y-72374010D01*
X94363368Y-72536525D01*
X94156525Y-72743368D01*
X94040000Y-72917760D01*
X93923475Y-72743368D01*
X93716632Y-72536525D01*
X93473411Y-72374010D01*
X93203158Y-72262068D01*
X92916260Y-72205000D01*
X92623740Y-72205000D01*
X92336842Y-72262068D01*
X92066589Y-72374010D01*
X91823368Y-72536525D01*
X91616525Y-72743368D01*
X91500000Y-72917760D01*
X91383475Y-72743368D01*
X91176632Y-72536525D01*
X90933411Y-72374010D01*
X90663158Y-72262068D01*
X90376260Y-72205000D01*
X90083740Y-72205000D01*
X89796842Y-72262068D01*
X89526589Y-72374010D01*
X89283368Y-72536525D01*
X89076525Y-72743368D01*
X88960000Y-72917760D01*
X88843475Y-72743368D01*
X88636632Y-72536525D01*
X88393411Y-72374010D01*
X88123158Y-72262068D01*
X87836260Y-72205000D01*
X87543740Y-72205000D01*
X87256842Y-72262068D01*
X86986589Y-72374010D01*
X86743368Y-72536525D01*
X86536525Y-72743368D01*
X86420000Y-72917760D01*
X86303475Y-72743368D01*
X86096632Y-72536525D01*
X85853411Y-72374010D01*
X85583158Y-72262068D01*
X85296260Y-72205000D01*
X85003740Y-72205000D01*
X84716842Y-72262068D01*
X84446589Y-72374010D01*
X84203368Y-72536525D01*
X83996525Y-72743368D01*
X83880000Y-72917760D01*
X83763475Y-72743368D01*
X83556632Y-72536525D01*
X83313411Y-72374010D01*
X83043158Y-72262068D01*
X82756260Y-72205000D01*
X82463740Y-72205000D01*
X82176842Y-72262068D01*
X81906589Y-72374010D01*
X81663368Y-72536525D01*
X81456525Y-72743368D01*
X81340000Y-72917760D01*
X81223475Y-72743368D01*
X81016632Y-72536525D01*
X80773411Y-72374010D01*
X80503158Y-72262068D01*
X80216260Y-72205000D01*
X79923740Y-72205000D01*
X79636842Y-72262068D01*
X79366589Y-72374010D01*
X79266699Y-72440754D01*
X79046977Y-72173023D01*
X78721881Y-71906223D01*
X78350982Y-71707974D01*
X77948533Y-71585892D01*
X77634882Y-71555000D01*
X69954346Y-71555000D01*
X69360866Y-70961520D01*
X69368776Y-70951881D01*
X69567025Y-70580983D01*
X69689107Y-70178535D01*
X69730329Y-69760001D01*
X69689107Y-69341467D01*
X69576424Y-68970000D01*
X107056928Y-68970000D01*
X107056928Y-70670000D01*
X107069188Y-70794482D01*
X107105498Y-70914180D01*
X107164463Y-71024494D01*
X107243815Y-71121185D01*
X107340506Y-71200537D01*
X107450820Y-71259502D01*
X107570518Y-71295812D01*
X107695000Y-71308072D01*
X109395000Y-71308072D01*
X109519482Y-71295812D01*
X109639180Y-71259502D01*
X109749494Y-71200537D01*
X109846185Y-71121185D01*
X109925537Y-71024494D01*
X109984502Y-70914180D01*
X110020812Y-70794482D01*
X110033072Y-70670000D01*
X110033072Y-68970000D01*
X110020812Y-68845518D01*
X109984502Y-68725820D01*
X109925537Y-68615506D01*
X109846185Y-68518815D01*
X109749494Y-68439463D01*
X109639180Y-68380498D01*
X109558534Y-68356034D01*
X109642588Y-68280269D01*
X109816641Y-68046920D01*
X109941825Y-67784099D01*
X109986476Y-67636890D01*
X109865155Y-67407000D01*
X108672000Y-67407000D01*
X108672000Y-67427000D01*
X108418000Y-67427000D01*
X108418000Y-67407000D01*
X107224845Y-67407000D01*
X107103524Y-67636890D01*
X107148175Y-67784099D01*
X107273359Y-68046920D01*
X107447412Y-68280269D01*
X107531466Y-68356034D01*
X107450820Y-68380498D01*
X107340506Y-68439463D01*
X107243815Y-68518815D01*
X107164463Y-68615506D01*
X107105498Y-68725820D01*
X107069188Y-68845518D01*
X107056928Y-68970000D01*
X69576424Y-68970000D01*
X69567025Y-68939019D01*
X69368776Y-68568119D01*
X69101977Y-68243023D01*
X68834245Y-68023302D01*
X68900990Y-67923411D01*
X69012932Y-67653158D01*
X69070000Y-67366260D01*
X69070000Y-67073740D01*
X69012932Y-66786842D01*
X68900990Y-66516589D01*
X68738475Y-66273368D01*
X68531632Y-66066525D01*
X68357240Y-65950000D01*
X68531632Y-65833475D01*
X68738475Y-65626632D01*
X68900990Y-65383411D01*
X69012932Y-65113158D01*
X69070000Y-64826260D01*
X69070000Y-64533740D01*
X69012932Y-64246842D01*
X68900990Y-63976589D01*
X68738475Y-63733368D01*
X68531632Y-63526525D01*
X68358271Y-63410689D01*
X68433792Y-63168397D01*
X67585000Y-62319605D01*
X66736208Y-63168397D01*
X66811729Y-63410689D01*
X66638368Y-63526525D01*
X66431525Y-63733368D01*
X66375000Y-63817964D01*
X66375000Y-62932188D01*
X66556603Y-62988792D01*
X67405395Y-62140000D01*
X67764605Y-62140000D01*
X68613397Y-62988792D01*
X68862472Y-62911157D01*
X68988371Y-62647117D01*
X69060339Y-62363589D01*
X69075611Y-62071469D01*
X69033599Y-61781981D01*
X68935919Y-61506253D01*
X68862472Y-61368843D01*
X68613397Y-61291208D01*
X67764605Y-62140000D01*
X67405395Y-62140000D01*
X66556603Y-61291208D01*
X66375000Y-61347812D01*
X66375000Y-61111603D01*
X66736208Y-61111603D01*
X67585000Y-61960395D01*
X68433792Y-61111603D01*
X68356157Y-60862528D01*
X68092117Y-60736629D01*
X67808589Y-60664661D01*
X67516469Y-60649389D01*
X67226981Y-60691401D01*
X66951253Y-60789081D01*
X66813843Y-60862528D01*
X66736208Y-61111603D01*
X66375000Y-61111603D01*
X66375000Y-60167911D01*
X80205000Y-60167911D01*
X80205000Y-60352089D01*
X80240932Y-60532729D01*
X80311414Y-60702889D01*
X80413738Y-60856028D01*
X80543972Y-60986262D01*
X80697111Y-61088586D01*
X80867271Y-61159068D01*
X81047911Y-61195000D01*
X81232089Y-61195000D01*
X81412729Y-61159068D01*
X81567404Y-61095000D01*
X84022596Y-61095000D01*
X84177271Y-61159068D01*
X84357911Y-61195000D01*
X84542089Y-61195000D01*
X84722729Y-61159068D01*
X84892889Y-61088586D01*
X85046028Y-60986262D01*
X85176262Y-60856028D01*
X85278586Y-60702889D01*
X85349068Y-60532729D01*
X85385000Y-60352089D01*
X85385000Y-60167911D01*
X96555000Y-60167911D01*
X96555000Y-60352089D01*
X96590932Y-60532729D01*
X96661414Y-60702889D01*
X96763738Y-60856028D01*
X96893972Y-60986262D01*
X97047111Y-61088586D01*
X97217271Y-61159068D01*
X97397911Y-61195000D01*
X97582089Y-61195000D01*
X97762729Y-61159068D01*
X97917404Y-61095000D01*
X99074133Y-61095000D01*
X100035000Y-62055869D01*
X100035000Y-62162596D01*
X99970932Y-62317271D01*
X99935000Y-62497911D01*
X99935000Y-62682089D01*
X99970932Y-62862729D01*
X100041414Y-63032889D01*
X100143738Y-63186028D01*
X100273972Y-63316262D01*
X100427111Y-63418586D01*
X100597271Y-63489068D01*
X100777911Y-63525000D01*
X100962089Y-63525000D01*
X101142729Y-63489068D01*
X101312889Y-63418586D01*
X101466028Y-63316262D01*
X101596262Y-63186028D01*
X101698586Y-63032889D01*
X101769068Y-62862729D01*
X101805000Y-62682089D01*
X101805000Y-62497911D01*
X101769068Y-62317271D01*
X101705000Y-62162596D01*
X101705000Y-62053740D01*
X107060000Y-62053740D01*
X107060000Y-62346260D01*
X107117068Y-62633158D01*
X107229010Y-62903411D01*
X107391525Y-63146632D01*
X107598368Y-63353475D01*
X107772760Y-63470000D01*
X107598368Y-63586525D01*
X107391525Y-63793368D01*
X107229010Y-64036589D01*
X107117068Y-64306842D01*
X107060000Y-64593740D01*
X107060000Y-64886260D01*
X107117068Y-65173158D01*
X107229010Y-65443411D01*
X107391525Y-65686632D01*
X107598368Y-65893475D01*
X107780534Y-66015195D01*
X107663645Y-66084822D01*
X107447412Y-66279731D01*
X107273359Y-66513080D01*
X107148175Y-66775901D01*
X107103524Y-66923110D01*
X107224845Y-67153000D01*
X108418000Y-67153000D01*
X108418000Y-67133000D01*
X108672000Y-67133000D01*
X108672000Y-67153000D01*
X109865155Y-67153000D01*
X109986476Y-66923110D01*
X109941825Y-66775901D01*
X109816641Y-66513080D01*
X109642588Y-66279731D01*
X109426355Y-66084822D01*
X109309466Y-66015195D01*
X109491632Y-65893475D01*
X109698475Y-65686632D01*
X109860990Y-65443411D01*
X109972932Y-65173158D01*
X110030000Y-64886260D01*
X110030000Y-64593740D01*
X109972932Y-64306842D01*
X109860990Y-64036589D01*
X109698475Y-63793368D01*
X109491632Y-63586525D01*
X109317240Y-63470000D01*
X109491632Y-63353475D01*
X109698475Y-63146632D01*
X109860990Y-62903411D01*
X109972932Y-62633158D01*
X110030000Y-62346260D01*
X110030000Y-62053740D01*
X109972932Y-61766842D01*
X109860990Y-61496589D01*
X109698475Y-61253368D01*
X109491632Y-61046525D01*
X109248411Y-60884010D01*
X108978158Y-60772068D01*
X108691260Y-60715000D01*
X108398740Y-60715000D01*
X108111842Y-60772068D01*
X107841589Y-60884010D01*
X107598368Y-61046525D01*
X107391525Y-61253368D01*
X107229010Y-61496589D01*
X107117068Y-61766842D01*
X107060000Y-62053740D01*
X101705000Y-62053740D01*
X101705000Y-61751018D01*
X101709040Y-61710000D01*
X101692918Y-61546312D01*
X101680767Y-61506253D01*
X101645172Y-61388913D01*
X101567636Y-61243854D01*
X101463291Y-61116709D01*
X101431432Y-61090563D01*
X100039446Y-59698578D01*
X100013291Y-59666709D01*
X99886146Y-59562364D01*
X99741087Y-59484828D01*
X99583689Y-59437082D01*
X99461019Y-59425000D01*
X99461018Y-59425000D01*
X99420000Y-59420960D01*
X99378982Y-59425000D01*
X98590708Y-59425000D01*
X98636671Y-59411514D01*
X98757571Y-59156004D01*
X98826300Y-58881816D01*
X98840217Y-58599488D01*
X98798787Y-58319870D01*
X98703603Y-58053708D01*
X98636671Y-57928486D01*
X98392702Y-57856903D01*
X97579605Y-58670000D01*
X97593748Y-58684143D01*
X97414143Y-58863748D01*
X97400000Y-58849605D01*
X96586903Y-59662702D01*
X96644318Y-59858384D01*
X96590932Y-59987271D01*
X96555000Y-60167911D01*
X85385000Y-60167911D01*
X85349068Y-59987271D01*
X85278586Y-59817111D01*
X85176262Y-59663972D01*
X85124992Y-59612702D01*
X86786903Y-59612702D01*
X86858486Y-59856671D01*
X87113996Y-59977571D01*
X87388184Y-60046300D01*
X87670512Y-60060217D01*
X87950130Y-60018787D01*
X88216292Y-59923603D01*
X88341514Y-59856671D01*
X88413097Y-59612702D01*
X87600000Y-58799605D01*
X86786903Y-59612702D01*
X85124992Y-59612702D01*
X85046028Y-59533738D01*
X84892889Y-59431414D01*
X84722729Y-59360932D01*
X84542089Y-59325000D01*
X84357911Y-59325000D01*
X84177271Y-59360932D01*
X84022596Y-59425000D01*
X81567404Y-59425000D01*
X81412729Y-59360932D01*
X81232089Y-59325000D01*
X81047911Y-59325000D01*
X80867271Y-59360932D01*
X80697111Y-59431414D01*
X80543972Y-59533738D01*
X80413738Y-59663972D01*
X80311414Y-59817111D01*
X80240932Y-59987271D01*
X80205000Y-60167911D01*
X66375000Y-60167911D01*
X66375000Y-54820000D01*
X72071928Y-54820000D01*
X72071928Y-56520000D01*
X72084188Y-56644482D01*
X72120498Y-56764180D01*
X72179463Y-56874494D01*
X72258815Y-56971185D01*
X72355506Y-57050537D01*
X72465820Y-57109502D01*
X72538380Y-57131513D01*
X72406525Y-57263368D01*
X72244010Y-57506589D01*
X72132068Y-57776842D01*
X72075000Y-58063740D01*
X72075000Y-58356260D01*
X72132068Y-58643158D01*
X72244010Y-58913411D01*
X72406525Y-59156632D01*
X72613368Y-59363475D01*
X72856589Y-59525990D01*
X73126842Y-59637932D01*
X73413740Y-59695000D01*
X73706260Y-59695000D01*
X73993158Y-59637932D01*
X74263411Y-59525990D01*
X74506632Y-59363475D01*
X74713475Y-59156632D01*
X74830000Y-58982240D01*
X74946525Y-59156632D01*
X75153368Y-59363475D01*
X75396589Y-59525990D01*
X75666842Y-59637932D01*
X75953740Y-59695000D01*
X76246260Y-59695000D01*
X76533158Y-59637932D01*
X76803411Y-59525990D01*
X77046632Y-59363475D01*
X77253475Y-59156632D01*
X77415990Y-58913411D01*
X77508317Y-58690512D01*
X86159783Y-58690512D01*
X86201213Y-58970130D01*
X86296397Y-59236292D01*
X86363329Y-59361514D01*
X86607298Y-59433097D01*
X87420395Y-58620000D01*
X87779605Y-58620000D01*
X88592702Y-59433097D01*
X88836671Y-59361514D01*
X88850324Y-59332659D01*
X88985363Y-59534759D01*
X89185241Y-59734637D01*
X89420273Y-59891680D01*
X89681426Y-59999853D01*
X89958665Y-60055000D01*
X90241335Y-60055000D01*
X90518574Y-59999853D01*
X90779727Y-59891680D01*
X91014759Y-59734637D01*
X91214637Y-59534759D01*
X91371680Y-59299727D01*
X91479853Y-59038574D01*
X91535000Y-58761335D01*
X91535000Y-58528665D01*
X93465000Y-58528665D01*
X93465000Y-58811335D01*
X93520147Y-59088574D01*
X93628320Y-59349727D01*
X93785363Y-59584759D01*
X93985241Y-59784637D01*
X94220273Y-59941680D01*
X94481426Y-60049853D01*
X94758665Y-60105000D01*
X95041335Y-60105000D01*
X95318574Y-60049853D01*
X95579727Y-59941680D01*
X95814759Y-59784637D01*
X96014637Y-59584759D01*
X96148692Y-59384131D01*
X96163329Y-59411514D01*
X96407298Y-59483097D01*
X97220395Y-58670000D01*
X96407298Y-57856903D01*
X96163329Y-57928486D01*
X96149676Y-57957341D01*
X96014637Y-57755241D01*
X95936694Y-57677298D01*
X96586903Y-57677298D01*
X97400000Y-58490395D01*
X98213097Y-57677298D01*
X98141514Y-57433329D01*
X97886004Y-57312429D01*
X97611816Y-57243700D01*
X97329488Y-57229783D01*
X97049870Y-57271213D01*
X96783708Y-57366397D01*
X96658486Y-57433329D01*
X96586903Y-57677298D01*
X95936694Y-57677298D01*
X95814759Y-57555363D01*
X95579727Y-57398320D01*
X95318574Y-57290147D01*
X95041335Y-57235000D01*
X94758665Y-57235000D01*
X94481426Y-57290147D01*
X94220273Y-57398320D01*
X93985241Y-57555363D01*
X93785363Y-57755241D01*
X93628320Y-57990273D01*
X93520147Y-58251426D01*
X93465000Y-58528665D01*
X91535000Y-58528665D01*
X91535000Y-58478665D01*
X91479853Y-58201426D01*
X91371680Y-57940273D01*
X91214637Y-57705241D01*
X91014759Y-57505363D01*
X90779727Y-57348320D01*
X90518574Y-57240147D01*
X90261279Y-57188967D01*
X107025000Y-57188967D01*
X107025000Y-57511033D01*
X107087832Y-57826912D01*
X107211082Y-58124463D01*
X107390013Y-58392252D01*
X107617748Y-58619987D01*
X107885537Y-58798918D01*
X108183088Y-58922168D01*
X108498967Y-58985000D01*
X108821033Y-58985000D01*
X109136912Y-58922168D01*
X109434463Y-58798918D01*
X109702252Y-58619987D01*
X109929987Y-58392252D01*
X110108918Y-58124463D01*
X110232168Y-57826912D01*
X110295000Y-57511033D01*
X110295000Y-57188967D01*
X110232168Y-56873088D01*
X110108918Y-56575537D01*
X109929987Y-56307748D01*
X109702252Y-56080013D01*
X109434463Y-55901082D01*
X109136912Y-55777832D01*
X108821033Y-55715000D01*
X108498967Y-55715000D01*
X108183088Y-55777832D01*
X107885537Y-55901082D01*
X107617748Y-56080013D01*
X107390013Y-56307748D01*
X107211082Y-56575537D01*
X107087832Y-56873088D01*
X107025000Y-57188967D01*
X90261279Y-57188967D01*
X90241335Y-57185000D01*
X89958665Y-57185000D01*
X89681426Y-57240147D01*
X89420273Y-57348320D01*
X89185241Y-57505363D01*
X88985363Y-57705241D01*
X88851308Y-57905869D01*
X88836671Y-57878486D01*
X88592702Y-57806903D01*
X87779605Y-58620000D01*
X87420395Y-58620000D01*
X86607298Y-57806903D01*
X86363329Y-57878486D01*
X86242429Y-58133996D01*
X86173700Y-58408184D01*
X86159783Y-58690512D01*
X77508317Y-58690512D01*
X77527932Y-58643158D01*
X77585000Y-58356260D01*
X77585000Y-58063740D01*
X77527932Y-57776842D01*
X77465990Y-57627298D01*
X86786903Y-57627298D01*
X87600000Y-58440395D01*
X88413097Y-57627298D01*
X88341514Y-57383329D01*
X88086004Y-57262429D01*
X87811816Y-57193700D01*
X87529488Y-57179783D01*
X87249870Y-57221213D01*
X86983708Y-57316397D01*
X86858486Y-57383329D01*
X86786903Y-57627298D01*
X77465990Y-57627298D01*
X77415990Y-57506589D01*
X77253475Y-57263368D01*
X77046632Y-57056525D01*
X76872240Y-56940000D01*
X77046632Y-56823475D01*
X77253475Y-56616632D01*
X77309555Y-56532702D01*
X84446903Y-56532702D01*
X84518486Y-56776671D01*
X84773996Y-56897571D01*
X85048184Y-56966300D01*
X85330512Y-56980217D01*
X85610130Y-56938787D01*
X85876292Y-56843603D01*
X86001514Y-56776671D01*
X86073097Y-56532702D01*
X85260000Y-55719605D01*
X84446903Y-56532702D01*
X77309555Y-56532702D01*
X77415990Y-56373411D01*
X77527932Y-56103158D01*
X77585000Y-55816260D01*
X77585000Y-55610512D01*
X83819783Y-55610512D01*
X83861213Y-55890130D01*
X83956397Y-56156292D01*
X84023329Y-56281514D01*
X84267298Y-56353097D01*
X85080395Y-55540000D01*
X85439605Y-55540000D01*
X86252702Y-56353097D01*
X86496671Y-56281514D01*
X86617571Y-56026004D01*
X86686300Y-55751816D01*
X86700217Y-55469488D01*
X86658787Y-55189870D01*
X86563603Y-54923708D01*
X86496671Y-54798486D01*
X86252702Y-54726903D01*
X85439605Y-55540000D01*
X85080395Y-55540000D01*
X84267298Y-54726903D01*
X84023329Y-54798486D01*
X83902429Y-55053996D01*
X83833700Y-55328184D01*
X83819783Y-55610512D01*
X77585000Y-55610512D01*
X77585000Y-55523740D01*
X77527932Y-55236842D01*
X77415990Y-54966589D01*
X77253475Y-54723368D01*
X77046632Y-54516525D01*
X76803411Y-54354010D01*
X76533158Y-54242068D01*
X76246260Y-54185000D01*
X75953740Y-54185000D01*
X75666842Y-54242068D01*
X75396589Y-54354010D01*
X75153368Y-54516525D01*
X75021513Y-54648380D01*
X74999502Y-54575820D01*
X74940537Y-54465506D01*
X74861185Y-54368815D01*
X74764494Y-54289463D01*
X74654180Y-54230498D01*
X74534482Y-54194188D01*
X74410000Y-54181928D01*
X72710000Y-54181928D01*
X72585518Y-54194188D01*
X72465820Y-54230498D01*
X72355506Y-54289463D01*
X72258815Y-54368815D01*
X72179463Y-54465506D01*
X72120498Y-54575820D01*
X72084188Y-54695518D01*
X72071928Y-54820000D01*
X66375000Y-54820000D01*
X66375000Y-52838373D01*
X66395820Y-52849502D01*
X66515518Y-52885812D01*
X66640000Y-52898072D01*
X67204250Y-52895000D01*
X67363000Y-52736250D01*
X67363000Y-51537000D01*
X67617000Y-51537000D01*
X67617000Y-52736250D01*
X67775750Y-52895000D01*
X68340000Y-52898072D01*
X68464482Y-52885812D01*
X68584180Y-52849502D01*
X68694494Y-52790537D01*
X68791185Y-52711185D01*
X68870537Y-52614494D01*
X68929502Y-52504180D01*
X68965812Y-52384482D01*
X68978072Y-52260000D01*
X68975000Y-51695750D01*
X68816250Y-51537000D01*
X67617000Y-51537000D01*
X67363000Y-51537000D01*
X67343000Y-51537000D01*
X67343000Y-51283000D01*
X67363000Y-51283000D01*
X67363000Y-51263000D01*
X67617000Y-51263000D01*
X67617000Y-51283000D01*
X68816250Y-51283000D01*
X68975000Y-51124250D01*
X68978072Y-50560000D01*
X68965812Y-50435518D01*
X68962228Y-50423702D01*
X69006977Y-50386977D01*
X69273777Y-50061881D01*
X69403064Y-49820000D01*
X69511928Y-49820000D01*
X69511928Y-51420000D01*
X69524188Y-51544482D01*
X69560498Y-51664180D01*
X69619463Y-51774494D01*
X69698815Y-51871185D01*
X69795506Y-51950537D01*
X69905820Y-52009502D01*
X70025518Y-52045812D01*
X70150000Y-52058072D01*
X71750000Y-52058072D01*
X71874482Y-52045812D01*
X71994180Y-52009502D01*
X72104494Y-51950537D01*
X72201185Y-51871185D01*
X72280537Y-51774494D01*
X72339502Y-51664180D01*
X72375812Y-51544482D01*
X72376643Y-51536039D01*
X72575241Y-51734637D01*
X72810273Y-51891680D01*
X73071426Y-51999853D01*
X73348665Y-52055000D01*
X73631335Y-52055000D01*
X73908574Y-51999853D01*
X74169727Y-51891680D01*
X74404759Y-51734637D01*
X74604637Y-51534759D01*
X74760000Y-51302241D01*
X74915363Y-51534759D01*
X75115241Y-51734637D01*
X75350273Y-51891680D01*
X75611426Y-51999853D01*
X75888665Y-52055000D01*
X76171335Y-52055000D01*
X76448574Y-51999853D01*
X76709727Y-51891680D01*
X76944759Y-51734637D01*
X77144637Y-51534759D01*
X77300000Y-51302241D01*
X77455363Y-51534759D01*
X77655241Y-51734637D01*
X77890273Y-51891680D01*
X78151426Y-51999853D01*
X78428665Y-52055000D01*
X78711335Y-52055000D01*
X78988574Y-51999853D01*
X79249727Y-51891680D01*
X79484759Y-51734637D01*
X79684637Y-51534759D01*
X79840000Y-51302241D01*
X79995363Y-51534759D01*
X80195241Y-51734637D01*
X80430273Y-51891680D01*
X80691426Y-51999853D01*
X80968665Y-52055000D01*
X81251335Y-52055000D01*
X81528574Y-51999853D01*
X81789727Y-51891680D01*
X82024759Y-51734637D01*
X82224637Y-51534759D01*
X82380000Y-51302241D01*
X82535363Y-51534759D01*
X82735241Y-51734637D01*
X82970273Y-51891680D01*
X83231426Y-51999853D01*
X83508665Y-52055000D01*
X83791335Y-52055000D01*
X84068574Y-51999853D01*
X84329727Y-51891680D01*
X84564759Y-51734637D01*
X84764637Y-51534759D01*
X84920000Y-51302241D01*
X85075363Y-51534759D01*
X85145604Y-51605000D01*
X85118665Y-51605000D01*
X84841426Y-51660147D01*
X84580273Y-51768320D01*
X84345241Y-51925363D01*
X84145363Y-52125241D01*
X83988320Y-52360273D01*
X83880147Y-52621426D01*
X83825000Y-52898665D01*
X83825000Y-53181335D01*
X83880147Y-53458574D01*
X83988320Y-53719727D01*
X84145363Y-53954759D01*
X84345241Y-54154637D01*
X84545869Y-54288692D01*
X84518486Y-54303329D01*
X84446903Y-54547298D01*
X85260000Y-55360395D01*
X86073097Y-54547298D01*
X86057339Y-54493589D01*
X88665000Y-54493589D01*
X88665000Y-54766411D01*
X88718225Y-55033989D01*
X88822629Y-55286043D01*
X88974201Y-55512886D01*
X89167114Y-55705799D01*
X89393957Y-55857371D01*
X89646011Y-55961775D01*
X89913589Y-56015000D01*
X90186411Y-56015000D01*
X90453989Y-55961775D01*
X90706043Y-55857371D01*
X90932886Y-55705799D01*
X91125799Y-55512886D01*
X91277371Y-55286043D01*
X91381775Y-55033989D01*
X91435000Y-54766411D01*
X91435000Y-54493589D01*
X93545000Y-54493589D01*
X93545000Y-54766411D01*
X93598225Y-55033989D01*
X93702629Y-55286043D01*
X93854201Y-55512886D01*
X94047114Y-55705799D01*
X94273957Y-55857371D01*
X94526011Y-55961775D01*
X94793589Y-56015000D01*
X95066411Y-56015000D01*
X95333989Y-55961775D01*
X95586043Y-55857371D01*
X95812886Y-55705799D01*
X96005799Y-55512886D01*
X96157371Y-55286043D01*
X96239439Y-55087911D01*
X110875000Y-55087911D01*
X110875000Y-55272089D01*
X110910932Y-55452729D01*
X110981414Y-55622889D01*
X111083738Y-55776028D01*
X111213972Y-55906262D01*
X111367111Y-56008586D01*
X111537271Y-56079068D01*
X111717911Y-56115000D01*
X111902089Y-56115000D01*
X112082729Y-56079068D01*
X112252889Y-56008586D01*
X112406028Y-55906262D01*
X112536262Y-55776028D01*
X112638586Y-55622889D01*
X112709068Y-55452729D01*
X112745000Y-55272089D01*
X112745000Y-55087911D01*
X112709068Y-54907271D01*
X112638586Y-54737111D01*
X112536262Y-54583972D01*
X112406028Y-54453738D01*
X112252889Y-54351414D01*
X112082729Y-54280932D01*
X111902089Y-54245000D01*
X111717911Y-54245000D01*
X111537271Y-54280932D01*
X111367111Y-54351414D01*
X111213972Y-54453738D01*
X111083738Y-54583972D01*
X110981414Y-54737111D01*
X110910932Y-54907271D01*
X110875000Y-55087911D01*
X96239439Y-55087911D01*
X96261775Y-55033989D01*
X96315000Y-54766411D01*
X96315000Y-54493589D01*
X96261775Y-54226011D01*
X96162117Y-53985413D01*
X107704192Y-53985413D01*
X107799956Y-54249814D01*
X108089571Y-54390704D01*
X108401108Y-54472384D01*
X108722595Y-54491718D01*
X109041675Y-54447961D01*
X109346088Y-54342795D01*
X109520044Y-54249814D01*
X109615808Y-53985413D01*
X108660000Y-53029605D01*
X107704192Y-53985413D01*
X96162117Y-53985413D01*
X96157371Y-53973957D01*
X96005799Y-53747114D01*
X95812886Y-53554201D01*
X95586043Y-53402629D01*
X95333989Y-53298225D01*
X95066411Y-53245000D01*
X94793589Y-53245000D01*
X94526011Y-53298225D01*
X94273957Y-53402629D01*
X94047114Y-53554201D01*
X93854201Y-53747114D01*
X93702629Y-53973957D01*
X93598225Y-54226011D01*
X93545000Y-54493589D01*
X91435000Y-54493589D01*
X91381775Y-54226011D01*
X91277371Y-53973957D01*
X91125799Y-53747114D01*
X90932886Y-53554201D01*
X90706043Y-53402629D01*
X90453989Y-53298225D01*
X90186411Y-53245000D01*
X89913589Y-53245000D01*
X89646011Y-53298225D01*
X89393957Y-53402629D01*
X89167114Y-53554201D01*
X88974201Y-53747114D01*
X88822629Y-53973957D01*
X88718225Y-54226011D01*
X88665000Y-54493589D01*
X86057339Y-54493589D01*
X86001514Y-54303329D01*
X85972659Y-54289676D01*
X86174759Y-54154637D01*
X86374637Y-53954759D01*
X86531680Y-53719727D01*
X86639853Y-53458574D01*
X86695000Y-53181335D01*
X86695000Y-52912595D01*
X107018282Y-52912595D01*
X107062039Y-53231675D01*
X107167205Y-53536088D01*
X107260186Y-53710044D01*
X107524587Y-53805808D01*
X108480395Y-52850000D01*
X108839605Y-52850000D01*
X109795413Y-53805808D01*
X110059814Y-53710044D01*
X110200704Y-53420429D01*
X110282384Y-53108892D01*
X110301718Y-52787405D01*
X110257961Y-52468325D01*
X110212907Y-52337911D01*
X110875000Y-52337911D01*
X110875000Y-52522089D01*
X110910932Y-52702729D01*
X110981414Y-52872889D01*
X111083738Y-53026028D01*
X111213972Y-53156262D01*
X111367111Y-53258586D01*
X111537271Y-53329068D01*
X111717911Y-53365000D01*
X111902089Y-53365000D01*
X112082729Y-53329068D01*
X112252889Y-53258586D01*
X112406028Y-53156262D01*
X112536262Y-53026028D01*
X112612055Y-52912595D01*
X113518282Y-52912595D01*
X113562039Y-53231675D01*
X113667205Y-53536088D01*
X113760186Y-53710044D01*
X114024587Y-53805808D01*
X114980395Y-52850000D01*
X114024587Y-51894192D01*
X113760186Y-51989956D01*
X113619296Y-52279571D01*
X113537616Y-52591108D01*
X113518282Y-52912595D01*
X112612055Y-52912595D01*
X112638586Y-52872889D01*
X112709068Y-52702729D01*
X112745000Y-52522089D01*
X112745000Y-52337911D01*
X112709068Y-52157271D01*
X112638586Y-51987111D01*
X112536262Y-51833972D01*
X112406028Y-51703738D01*
X112252889Y-51601414D01*
X112082729Y-51530932D01*
X111902089Y-51495000D01*
X111717911Y-51495000D01*
X111537271Y-51530932D01*
X111367111Y-51601414D01*
X111213972Y-51703738D01*
X111083738Y-51833972D01*
X110981414Y-51987111D01*
X110910932Y-52157271D01*
X110875000Y-52337911D01*
X110212907Y-52337911D01*
X110152795Y-52163912D01*
X110059814Y-51989956D01*
X109795413Y-51894192D01*
X108839605Y-52850000D01*
X108480395Y-52850000D01*
X107524587Y-51894192D01*
X107260186Y-51989956D01*
X107119296Y-52279571D01*
X107037616Y-52591108D01*
X107018282Y-52912595D01*
X86695000Y-52912595D01*
X86695000Y-52898665D01*
X86639853Y-52621426D01*
X86531680Y-52360273D01*
X86374637Y-52125241D01*
X86304396Y-52055000D01*
X86331335Y-52055000D01*
X86608574Y-51999853D01*
X86869727Y-51891680D01*
X87104759Y-51734637D01*
X87304637Y-51534759D01*
X87461680Y-51299727D01*
X87466067Y-51289135D01*
X87577615Y-51475131D01*
X87766586Y-51683519D01*
X87992580Y-51851037D01*
X88246913Y-51971246D01*
X88380961Y-52011904D01*
X88603000Y-51889915D01*
X88603000Y-50747000D01*
X88583000Y-50747000D01*
X88583000Y-50493000D01*
X88603000Y-50493000D01*
X88603000Y-49350085D01*
X88857000Y-49350085D01*
X88857000Y-50493000D01*
X88877000Y-50493000D01*
X88877000Y-50747000D01*
X88857000Y-50747000D01*
X88857000Y-51889915D01*
X89079039Y-52011904D01*
X89213087Y-51971246D01*
X89467420Y-51851037D01*
X89693414Y-51683519D01*
X89882385Y-51475131D01*
X89993933Y-51289135D01*
X89998320Y-51299727D01*
X90155363Y-51534759D01*
X90355241Y-51734637D01*
X90590273Y-51891680D01*
X90851426Y-51999853D01*
X91128665Y-52055000D01*
X91411335Y-52055000D01*
X91688574Y-51999853D01*
X91949727Y-51891680D01*
X92184759Y-51734637D01*
X92384637Y-51534759D01*
X92540000Y-51302241D01*
X92695363Y-51534759D01*
X92895241Y-51734637D01*
X93130273Y-51891680D01*
X93391426Y-51999853D01*
X93668665Y-52055000D01*
X93951335Y-52055000D01*
X94228574Y-51999853D01*
X94489727Y-51891680D01*
X94724759Y-51734637D01*
X94924637Y-51534759D01*
X95080000Y-51302241D01*
X95235363Y-51534759D01*
X95435241Y-51734637D01*
X95670273Y-51891680D01*
X95931426Y-51999853D01*
X96208665Y-52055000D01*
X96491335Y-52055000D01*
X96768574Y-51999853D01*
X97029727Y-51891680D01*
X97264759Y-51734637D01*
X97464637Y-51534759D01*
X97620000Y-51302241D01*
X97775363Y-51534759D01*
X97975241Y-51734637D01*
X98210273Y-51891680D01*
X98471426Y-51999853D01*
X98748665Y-52055000D01*
X99031335Y-52055000D01*
X99308574Y-51999853D01*
X99569727Y-51891680D01*
X99804759Y-51734637D01*
X100004637Y-51534759D01*
X100160000Y-51302241D01*
X100315363Y-51534759D01*
X100515241Y-51734637D01*
X100750273Y-51891680D01*
X101011426Y-51999853D01*
X101288665Y-52055000D01*
X101571335Y-52055000D01*
X101848574Y-51999853D01*
X102109727Y-51891680D01*
X102344759Y-51734637D01*
X102544637Y-51534759D01*
X102700000Y-51302241D01*
X102855363Y-51534759D01*
X103055241Y-51734637D01*
X103290273Y-51891680D01*
X103551426Y-51999853D01*
X103828665Y-52055000D01*
X104111335Y-52055000D01*
X104388574Y-51999853D01*
X104649727Y-51891680D01*
X104884759Y-51734637D01*
X104904809Y-51714587D01*
X107704192Y-51714587D01*
X108660000Y-52670395D01*
X109615808Y-51714587D01*
X109520044Y-51450186D01*
X109230429Y-51309296D01*
X108918892Y-51227616D01*
X108597405Y-51208282D01*
X108278325Y-51252039D01*
X107973912Y-51357205D01*
X107799956Y-51450186D01*
X107704192Y-51714587D01*
X104904809Y-51714587D01*
X105084637Y-51534759D01*
X105241680Y-51299727D01*
X105349853Y-51038574D01*
X105405000Y-50761335D01*
X105405000Y-50478665D01*
X105349853Y-50201426D01*
X105241680Y-49940273D01*
X105084637Y-49705241D01*
X104884759Y-49505363D01*
X104649727Y-49348320D01*
X104388574Y-49240147D01*
X104111335Y-49185000D01*
X103828665Y-49185000D01*
X103551426Y-49240147D01*
X103290273Y-49348320D01*
X103055241Y-49505363D01*
X102855363Y-49705241D01*
X102700000Y-49937759D01*
X102544637Y-49705241D01*
X102344759Y-49505363D01*
X102109727Y-49348320D01*
X101848574Y-49240147D01*
X101571335Y-49185000D01*
X101288665Y-49185000D01*
X101011426Y-49240147D01*
X100750273Y-49348320D01*
X100515241Y-49505363D01*
X100315363Y-49705241D01*
X100160000Y-49937759D01*
X100004637Y-49705241D01*
X99804759Y-49505363D01*
X99569727Y-49348320D01*
X99308574Y-49240147D01*
X99031335Y-49185000D01*
X98748665Y-49185000D01*
X98471426Y-49240147D01*
X98210273Y-49348320D01*
X97975241Y-49505363D01*
X97775363Y-49705241D01*
X97620000Y-49937759D01*
X97464637Y-49705241D01*
X97264759Y-49505363D01*
X97029727Y-49348320D01*
X96768574Y-49240147D01*
X96491335Y-49185000D01*
X96208665Y-49185000D01*
X95931426Y-49240147D01*
X95670273Y-49348320D01*
X95435241Y-49505363D01*
X95235363Y-49705241D01*
X95080000Y-49937759D01*
X94924637Y-49705241D01*
X94724759Y-49505363D01*
X94489727Y-49348320D01*
X94228574Y-49240147D01*
X93951335Y-49185000D01*
X93668665Y-49185000D01*
X93391426Y-49240147D01*
X93130273Y-49348320D01*
X92895241Y-49505363D01*
X92695363Y-49705241D01*
X92540000Y-49937759D01*
X92384637Y-49705241D01*
X92184759Y-49505363D01*
X91949727Y-49348320D01*
X91688574Y-49240147D01*
X91411335Y-49185000D01*
X91128665Y-49185000D01*
X90851426Y-49240147D01*
X90590273Y-49348320D01*
X90355241Y-49505363D01*
X90155363Y-49705241D01*
X89998320Y-49940273D01*
X89993933Y-49950865D01*
X89882385Y-49764869D01*
X89693414Y-49556481D01*
X89467420Y-49388963D01*
X89213087Y-49268754D01*
X89079039Y-49228096D01*
X88857000Y-49350085D01*
X88603000Y-49350085D01*
X88380961Y-49228096D01*
X88246913Y-49268754D01*
X87992580Y-49388963D01*
X87766586Y-49556481D01*
X87577615Y-49764869D01*
X87466067Y-49950865D01*
X87461680Y-49940273D01*
X87304637Y-49705241D01*
X87104759Y-49505363D01*
X86869727Y-49348320D01*
X86608574Y-49240147D01*
X86331335Y-49185000D01*
X86048665Y-49185000D01*
X85771426Y-49240147D01*
X85510273Y-49348320D01*
X85275241Y-49505363D01*
X85075363Y-49705241D01*
X84920000Y-49937759D01*
X84764637Y-49705241D01*
X84564759Y-49505363D01*
X84329727Y-49348320D01*
X84068574Y-49240147D01*
X83791335Y-49185000D01*
X83508665Y-49185000D01*
X83231426Y-49240147D01*
X82970273Y-49348320D01*
X82735241Y-49505363D01*
X82535363Y-49705241D01*
X82380000Y-49937759D01*
X82224637Y-49705241D01*
X82024759Y-49505363D01*
X81789727Y-49348320D01*
X81528574Y-49240147D01*
X81251335Y-49185000D01*
X80968665Y-49185000D01*
X80691426Y-49240147D01*
X80430273Y-49348320D01*
X80195241Y-49505363D01*
X79995363Y-49705241D01*
X79840000Y-49937759D01*
X79684637Y-49705241D01*
X79484759Y-49505363D01*
X79249727Y-49348320D01*
X78988574Y-49240147D01*
X78711335Y-49185000D01*
X78428665Y-49185000D01*
X78151426Y-49240147D01*
X77890273Y-49348320D01*
X77655241Y-49505363D01*
X77455363Y-49705241D01*
X77300000Y-49937759D01*
X77144637Y-49705241D01*
X76944759Y-49505363D01*
X76709727Y-49348320D01*
X76448574Y-49240147D01*
X76171335Y-49185000D01*
X75888665Y-49185000D01*
X75611426Y-49240147D01*
X75350273Y-49348320D01*
X75115241Y-49505363D01*
X74915363Y-49705241D01*
X74760000Y-49937759D01*
X74604637Y-49705241D01*
X74404759Y-49505363D01*
X74169727Y-49348320D01*
X73908574Y-49240147D01*
X73631335Y-49185000D01*
X73348665Y-49185000D01*
X73071426Y-49240147D01*
X72810273Y-49348320D01*
X72575241Y-49505363D01*
X72376643Y-49703961D01*
X72375812Y-49695518D01*
X72339502Y-49575820D01*
X72326790Y-49552039D01*
X73534862Y-48343967D01*
X107025000Y-48343967D01*
X107025000Y-48666033D01*
X107087832Y-48981912D01*
X107211082Y-49279463D01*
X107390013Y-49547252D01*
X107617748Y-49774987D01*
X107885537Y-49953918D01*
X108183088Y-50077168D01*
X108498967Y-50140000D01*
X108821033Y-50140000D01*
X109136912Y-50077168D01*
X109434463Y-49953918D01*
X109702252Y-49774987D01*
X109929987Y-49547252D01*
X110108918Y-49279463D01*
X110232168Y-48981912D01*
X110295000Y-48666033D01*
X110295000Y-48343967D01*
X110232168Y-48028088D01*
X110108918Y-47730537D01*
X109929987Y-47462748D01*
X109702252Y-47235013D01*
X109676658Y-47217911D01*
X110685000Y-47217911D01*
X110685000Y-47402089D01*
X110720932Y-47582729D01*
X110791414Y-47752889D01*
X110893738Y-47906028D01*
X111023972Y-48036262D01*
X111177111Y-48138586D01*
X111347271Y-48209068D01*
X111527911Y-48245000D01*
X111712089Y-48245000D01*
X111892729Y-48209068D01*
X112062889Y-48138586D01*
X112216028Y-48036262D01*
X112346262Y-47906028D01*
X112448586Y-47752889D01*
X112519068Y-47582729D01*
X112555000Y-47402089D01*
X112555000Y-47217911D01*
X112519068Y-47037271D01*
X112448586Y-46867111D01*
X112346262Y-46713972D01*
X112216028Y-46583738D01*
X112062889Y-46481414D01*
X111892729Y-46410932D01*
X111712089Y-46375000D01*
X111527911Y-46375000D01*
X111347271Y-46410932D01*
X111177111Y-46481414D01*
X111023972Y-46583738D01*
X110893738Y-46713972D01*
X110791414Y-46867111D01*
X110720932Y-47037271D01*
X110685000Y-47217911D01*
X109676658Y-47217911D01*
X109434463Y-47056082D01*
X109136912Y-46932832D01*
X108821033Y-46870000D01*
X108498967Y-46870000D01*
X108183088Y-46932832D01*
X107885537Y-47056082D01*
X107617748Y-47235013D01*
X107390013Y-47462748D01*
X107211082Y-47730537D01*
X107087832Y-48028088D01*
X107025000Y-48343967D01*
X73534862Y-48343967D01*
X73852195Y-48026635D01*
X74006870Y-47962567D01*
X74160009Y-47860243D01*
X74290243Y-47730009D01*
X74392567Y-47576870D01*
X74463049Y-47406710D01*
X74498981Y-47226070D01*
X74498981Y-47041892D01*
X74463049Y-46861252D01*
X74392567Y-46691092D01*
X74290243Y-46537953D01*
X74160009Y-46407719D01*
X74006870Y-46305395D01*
X73836710Y-46234913D01*
X73656070Y-46198981D01*
X73471892Y-46198981D01*
X73291252Y-46234913D01*
X73121092Y-46305395D01*
X72967953Y-46407719D01*
X72837719Y-46537953D01*
X72735395Y-46691092D01*
X72671327Y-46845767D01*
X70388574Y-49128521D01*
X70356710Y-49154671D01*
X70334341Y-49181928D01*
X70150000Y-49181928D01*
X70025518Y-49194188D01*
X69905820Y-49230498D01*
X69795506Y-49289463D01*
X69698815Y-49368815D01*
X69619463Y-49465506D01*
X69560498Y-49575820D01*
X69524188Y-49695518D01*
X69511928Y-49820000D01*
X69403064Y-49820000D01*
X69472026Y-49690982D01*
X69594108Y-49288533D01*
X69635330Y-48870000D01*
X69594108Y-48451467D01*
X69472026Y-48049018D01*
X69273777Y-47678119D01*
X69006977Y-47353023D01*
X68739246Y-47133301D01*
X68805990Y-47033411D01*
X68917932Y-46763158D01*
X68975000Y-46476260D01*
X68975000Y-46183740D01*
X68917932Y-45896842D01*
X68805990Y-45626589D01*
X68643475Y-45383368D01*
X68436632Y-45176525D01*
X68382587Y-45140413D01*
X107704192Y-45140413D01*
X107799956Y-45404814D01*
X108089571Y-45545704D01*
X108401108Y-45627384D01*
X108722595Y-45646718D01*
X109041675Y-45602961D01*
X109346088Y-45497795D01*
X109520044Y-45404814D01*
X109615808Y-45140413D01*
X108660000Y-44184605D01*
X107704192Y-45140413D01*
X68382587Y-45140413D01*
X68262240Y-45060000D01*
X68436632Y-44943475D01*
X68643475Y-44736632D01*
X68805990Y-44493411D01*
X68917932Y-44223158D01*
X68975000Y-43936260D01*
X68975000Y-43643740D01*
X68917932Y-43356842D01*
X68805990Y-43086589D01*
X68653697Y-42858665D01*
X69515000Y-42858665D01*
X69515000Y-43141335D01*
X69570147Y-43418574D01*
X69678320Y-43679727D01*
X69835363Y-43914759D01*
X70035241Y-44114637D01*
X70270273Y-44271680D01*
X70531426Y-44379853D01*
X70808665Y-44435000D01*
X71091335Y-44435000D01*
X71368574Y-44379853D01*
X71629727Y-44271680D01*
X71864759Y-44114637D01*
X72064637Y-43914759D01*
X72220000Y-43682241D01*
X72375363Y-43914759D01*
X72575241Y-44114637D01*
X72810273Y-44271680D01*
X73071426Y-44379853D01*
X73348665Y-44435000D01*
X73631335Y-44435000D01*
X73908574Y-44379853D01*
X74169727Y-44271680D01*
X74404759Y-44114637D01*
X74604637Y-43914759D01*
X74760000Y-43682241D01*
X74915363Y-43914759D01*
X75115241Y-44114637D01*
X75350273Y-44271680D01*
X75611426Y-44379853D01*
X75888665Y-44435000D01*
X76171335Y-44435000D01*
X76448574Y-44379853D01*
X76709727Y-44271680D01*
X76944759Y-44114637D01*
X77144637Y-43914759D01*
X77300000Y-43682241D01*
X77455363Y-43914759D01*
X77655241Y-44114637D01*
X77890273Y-44271680D01*
X78151426Y-44379853D01*
X78428665Y-44435000D01*
X78711335Y-44435000D01*
X78988574Y-44379853D01*
X79249727Y-44271680D01*
X79484759Y-44114637D01*
X79684637Y-43914759D01*
X79840000Y-43682241D01*
X79995363Y-43914759D01*
X80195241Y-44114637D01*
X80430273Y-44271680D01*
X80691426Y-44379853D01*
X80968665Y-44435000D01*
X81251335Y-44435000D01*
X81528574Y-44379853D01*
X81789727Y-44271680D01*
X82024759Y-44114637D01*
X82224637Y-43914759D01*
X82380000Y-43682241D01*
X82535363Y-43914759D01*
X82735241Y-44114637D01*
X82970273Y-44271680D01*
X83231426Y-44379853D01*
X83508665Y-44435000D01*
X83791335Y-44435000D01*
X84068574Y-44379853D01*
X84329727Y-44271680D01*
X84564759Y-44114637D01*
X84764637Y-43914759D01*
X84921680Y-43679727D01*
X84926067Y-43669135D01*
X85037615Y-43855131D01*
X85226586Y-44063519D01*
X85452580Y-44231037D01*
X85706913Y-44351246D01*
X85840961Y-44391904D01*
X86063000Y-44269915D01*
X86063000Y-43127000D01*
X86043000Y-43127000D01*
X86043000Y-42873000D01*
X86063000Y-42873000D01*
X86063000Y-41730085D01*
X86317000Y-41730085D01*
X86317000Y-42873000D01*
X86337000Y-42873000D01*
X86337000Y-43127000D01*
X86317000Y-43127000D01*
X86317000Y-44269915D01*
X86539039Y-44391904D01*
X86673087Y-44351246D01*
X86927420Y-44231037D01*
X87153414Y-44063519D01*
X87342385Y-43855131D01*
X87453933Y-43669135D01*
X87458320Y-43679727D01*
X87615363Y-43914759D01*
X87815241Y-44114637D01*
X88050273Y-44271680D01*
X88311426Y-44379853D01*
X88588665Y-44435000D01*
X88871335Y-44435000D01*
X89148574Y-44379853D01*
X89409727Y-44271680D01*
X89644759Y-44114637D01*
X89844637Y-43914759D01*
X90000000Y-43682241D01*
X90155363Y-43914759D01*
X90355241Y-44114637D01*
X90590273Y-44271680D01*
X90851426Y-44379853D01*
X91128665Y-44435000D01*
X91411335Y-44435000D01*
X91688574Y-44379853D01*
X91949727Y-44271680D01*
X92184759Y-44114637D01*
X92384637Y-43914759D01*
X92540000Y-43682241D01*
X92695363Y-43914759D01*
X92895241Y-44114637D01*
X93130273Y-44271680D01*
X93391426Y-44379853D01*
X93668665Y-44435000D01*
X93951335Y-44435000D01*
X94228574Y-44379853D01*
X94489727Y-44271680D01*
X94724759Y-44114637D01*
X94924637Y-43914759D01*
X95080000Y-43682241D01*
X95235363Y-43914759D01*
X95435241Y-44114637D01*
X95670273Y-44271680D01*
X95931426Y-44379853D01*
X96208665Y-44435000D01*
X96491335Y-44435000D01*
X96768574Y-44379853D01*
X97029727Y-44271680D01*
X97264759Y-44114637D01*
X97464637Y-43914759D01*
X97620000Y-43682241D01*
X97775363Y-43914759D01*
X97975241Y-44114637D01*
X98210273Y-44271680D01*
X98471426Y-44379853D01*
X98748665Y-44435000D01*
X99031335Y-44435000D01*
X99308574Y-44379853D01*
X99569727Y-44271680D01*
X99804759Y-44114637D01*
X100004637Y-43914759D01*
X100160000Y-43682241D01*
X100315363Y-43914759D01*
X100515241Y-44114637D01*
X100750273Y-44271680D01*
X101011426Y-44379853D01*
X101288665Y-44435000D01*
X101571335Y-44435000D01*
X101848574Y-44379853D01*
X102109727Y-44271680D01*
X102344759Y-44114637D01*
X102544637Y-43914759D01*
X102700000Y-43682241D01*
X102855363Y-43914759D01*
X103055241Y-44114637D01*
X103290273Y-44271680D01*
X103551426Y-44379853D01*
X103828665Y-44435000D01*
X104111335Y-44435000D01*
X104388574Y-44379853D01*
X104649727Y-44271680D01*
X104884759Y-44114637D01*
X104931801Y-44067595D01*
X107018282Y-44067595D01*
X107062039Y-44386675D01*
X107167205Y-44691088D01*
X107260186Y-44865044D01*
X107524587Y-44960808D01*
X108480395Y-44005000D01*
X108839605Y-44005000D01*
X109795413Y-44960808D01*
X110059814Y-44865044D01*
X110200704Y-44575429D01*
X110228893Y-44467911D01*
X110685000Y-44467911D01*
X110685000Y-44652089D01*
X110720932Y-44832729D01*
X110791414Y-45002889D01*
X110893738Y-45156028D01*
X111023972Y-45286262D01*
X111177111Y-45388586D01*
X111347271Y-45459068D01*
X111527911Y-45495000D01*
X111712089Y-45495000D01*
X111892729Y-45459068D01*
X112062889Y-45388586D01*
X112216028Y-45286262D01*
X112346262Y-45156028D01*
X112448586Y-45002889D01*
X112519068Y-44832729D01*
X112555000Y-44652089D01*
X112555000Y-44467911D01*
X112519068Y-44287271D01*
X112448586Y-44117111D01*
X112415501Y-44067595D01*
X113518282Y-44067595D01*
X113562039Y-44386675D01*
X113667205Y-44691088D01*
X113760186Y-44865044D01*
X114024587Y-44960808D01*
X114980395Y-44005000D01*
X114024587Y-43049192D01*
X113760186Y-43144956D01*
X113619296Y-43434571D01*
X113537616Y-43746108D01*
X113518282Y-44067595D01*
X112415501Y-44067595D01*
X112346262Y-43963972D01*
X112216028Y-43833738D01*
X112062889Y-43731414D01*
X111892729Y-43660932D01*
X111712089Y-43625000D01*
X111527911Y-43625000D01*
X111347271Y-43660932D01*
X111177111Y-43731414D01*
X111023972Y-43833738D01*
X110893738Y-43963972D01*
X110791414Y-44117111D01*
X110720932Y-44287271D01*
X110685000Y-44467911D01*
X110228893Y-44467911D01*
X110282384Y-44263892D01*
X110301718Y-43942405D01*
X110257961Y-43623325D01*
X110152795Y-43318912D01*
X110059814Y-43144956D01*
X109795413Y-43049192D01*
X108839605Y-44005000D01*
X108480395Y-44005000D01*
X107524587Y-43049192D01*
X107260186Y-43144956D01*
X107119296Y-43434571D01*
X107037616Y-43746108D01*
X107018282Y-44067595D01*
X104931801Y-44067595D01*
X105084637Y-43914759D01*
X105241680Y-43679727D01*
X105349853Y-43418574D01*
X105405000Y-43141335D01*
X105405000Y-42869587D01*
X107704192Y-42869587D01*
X108660000Y-43825395D01*
X109615808Y-42869587D01*
X109520044Y-42605186D01*
X109230429Y-42464296D01*
X108918892Y-42382616D01*
X108597405Y-42363282D01*
X108278325Y-42407039D01*
X107973912Y-42512205D01*
X107799956Y-42605186D01*
X107704192Y-42869587D01*
X105405000Y-42869587D01*
X105405000Y-42858665D01*
X105349853Y-42581426D01*
X105241680Y-42320273D01*
X105084637Y-42085241D01*
X104884759Y-41885363D01*
X104649727Y-41728320D01*
X104388574Y-41620147D01*
X104111335Y-41565000D01*
X103828665Y-41565000D01*
X103551426Y-41620147D01*
X103290273Y-41728320D01*
X103055241Y-41885363D01*
X102855363Y-42085241D01*
X102700000Y-42317759D01*
X102544637Y-42085241D01*
X102344759Y-41885363D01*
X102109727Y-41728320D01*
X101848574Y-41620147D01*
X101571335Y-41565000D01*
X101288665Y-41565000D01*
X101011426Y-41620147D01*
X100750273Y-41728320D01*
X100515241Y-41885363D01*
X100315363Y-42085241D01*
X100160000Y-42317759D01*
X100004637Y-42085241D01*
X99804759Y-41885363D01*
X99569727Y-41728320D01*
X99308574Y-41620147D01*
X99031335Y-41565000D01*
X98748665Y-41565000D01*
X98471426Y-41620147D01*
X98210273Y-41728320D01*
X97975241Y-41885363D01*
X97775363Y-42085241D01*
X97620000Y-42317759D01*
X97464637Y-42085241D01*
X97264759Y-41885363D01*
X97029727Y-41728320D01*
X96768574Y-41620147D01*
X96491335Y-41565000D01*
X96208665Y-41565000D01*
X95931426Y-41620147D01*
X95670273Y-41728320D01*
X95435241Y-41885363D01*
X95235363Y-42085241D01*
X95080000Y-42317759D01*
X94924637Y-42085241D01*
X94724759Y-41885363D01*
X94489727Y-41728320D01*
X94228574Y-41620147D01*
X93951335Y-41565000D01*
X93668665Y-41565000D01*
X93391426Y-41620147D01*
X93130273Y-41728320D01*
X92895241Y-41885363D01*
X92695363Y-42085241D01*
X92540000Y-42317759D01*
X92384637Y-42085241D01*
X92184759Y-41885363D01*
X91949727Y-41728320D01*
X91688574Y-41620147D01*
X91411335Y-41565000D01*
X91128665Y-41565000D01*
X90851426Y-41620147D01*
X90590273Y-41728320D01*
X90355241Y-41885363D01*
X90155363Y-42085241D01*
X90000000Y-42317759D01*
X89844637Y-42085241D01*
X89644759Y-41885363D01*
X89409727Y-41728320D01*
X89148574Y-41620147D01*
X88871335Y-41565000D01*
X88588665Y-41565000D01*
X88311426Y-41620147D01*
X88050273Y-41728320D01*
X87815241Y-41885363D01*
X87615363Y-42085241D01*
X87458320Y-42320273D01*
X87453933Y-42330865D01*
X87342385Y-42144869D01*
X87153414Y-41936481D01*
X86927420Y-41768963D01*
X86673087Y-41648754D01*
X86539039Y-41608096D01*
X86317000Y-41730085D01*
X86063000Y-41730085D01*
X85840961Y-41608096D01*
X85706913Y-41648754D01*
X85452580Y-41768963D01*
X85226586Y-41936481D01*
X85037615Y-42144869D01*
X84926067Y-42330865D01*
X84921680Y-42320273D01*
X84764637Y-42085241D01*
X84564759Y-41885363D01*
X84329727Y-41728320D01*
X84068574Y-41620147D01*
X83791335Y-41565000D01*
X83508665Y-41565000D01*
X83231426Y-41620147D01*
X82970273Y-41728320D01*
X82735241Y-41885363D01*
X82535363Y-42085241D01*
X82380000Y-42317759D01*
X82224637Y-42085241D01*
X82024759Y-41885363D01*
X81789727Y-41728320D01*
X81528574Y-41620147D01*
X81251335Y-41565000D01*
X80968665Y-41565000D01*
X80691426Y-41620147D01*
X80430273Y-41728320D01*
X80195241Y-41885363D01*
X79995363Y-42085241D01*
X79840000Y-42317759D01*
X79684637Y-42085241D01*
X79484759Y-41885363D01*
X79249727Y-41728320D01*
X78988574Y-41620147D01*
X78711335Y-41565000D01*
X78428665Y-41565000D01*
X78151426Y-41620147D01*
X77890273Y-41728320D01*
X77655241Y-41885363D01*
X77455363Y-42085241D01*
X77300000Y-42317759D01*
X77144637Y-42085241D01*
X76944759Y-41885363D01*
X76709727Y-41728320D01*
X76448574Y-41620147D01*
X76171335Y-41565000D01*
X75888665Y-41565000D01*
X75611426Y-41620147D01*
X75350273Y-41728320D01*
X75115241Y-41885363D01*
X74915363Y-42085241D01*
X74760000Y-42317759D01*
X74604637Y-42085241D01*
X74404759Y-41885363D01*
X74169727Y-41728320D01*
X73908574Y-41620147D01*
X73631335Y-41565000D01*
X73348665Y-41565000D01*
X73071426Y-41620147D01*
X72810273Y-41728320D01*
X72575241Y-41885363D01*
X72375363Y-42085241D01*
X72220000Y-42317759D01*
X72064637Y-42085241D01*
X71864759Y-41885363D01*
X71629727Y-41728320D01*
X71368574Y-41620147D01*
X71091335Y-41565000D01*
X70808665Y-41565000D01*
X70531426Y-41620147D01*
X70270273Y-41728320D01*
X70035241Y-41885363D01*
X69835363Y-42085241D01*
X69678320Y-42320273D01*
X69570147Y-42581426D01*
X69515000Y-42858665D01*
X68653697Y-42858665D01*
X68643475Y-42843368D01*
X68436632Y-42636525D01*
X68193411Y-42474010D01*
X67923158Y-42362068D01*
X67636260Y-42305000D01*
X67343740Y-42305000D01*
X67056842Y-42362068D01*
X66786589Y-42474010D01*
X66543368Y-42636525D01*
X66375000Y-42804893D01*
X66375000Y-39488967D01*
X68545000Y-39488967D01*
X68545000Y-39811033D01*
X68607832Y-40126912D01*
X68731082Y-40424463D01*
X68910013Y-40692252D01*
X69137748Y-40919987D01*
X69405537Y-41098918D01*
X69703088Y-41222168D01*
X70018967Y-41285000D01*
X70341033Y-41285000D01*
X70656912Y-41222168D01*
X70954463Y-41098918D01*
X71222252Y-40919987D01*
X71449987Y-40692252D01*
X71628918Y-40424463D01*
X71752168Y-40126912D01*
X71815000Y-39811033D01*
X71815000Y-39488967D01*
X75045000Y-39488967D01*
X75045000Y-39811033D01*
X75107832Y-40126912D01*
X75231082Y-40424463D01*
X75410013Y-40692252D01*
X75637748Y-40919987D01*
X75905537Y-41098918D01*
X76203088Y-41222168D01*
X76518967Y-41285000D01*
X76841033Y-41285000D01*
X77156912Y-41222168D01*
X77454463Y-41098918D01*
X77722252Y-40919987D01*
X77949987Y-40692252D01*
X78128918Y-40424463D01*
X78252168Y-40126912D01*
X78315000Y-39811033D01*
X78315000Y-39488967D01*
X78252168Y-39173088D01*
X78128918Y-38875537D01*
X78059608Y-38771806D01*
X84321801Y-38771806D01*
X84436500Y-39112754D01*
X84615511Y-39424774D01*
X84851954Y-39695875D01*
X85136743Y-39915639D01*
X85458934Y-40075621D01*
X85698195Y-40148195D01*
X85983000Y-40031432D01*
X85983000Y-38487000D01*
X86237000Y-38487000D01*
X86237000Y-40031432D01*
X86521805Y-40148195D01*
X86761066Y-40075621D01*
X87083257Y-39915639D01*
X87368046Y-39695875D01*
X87604489Y-39424774D01*
X87783500Y-39112754D01*
X87898199Y-38771806D01*
X87823385Y-38588665D01*
X91495000Y-38588665D01*
X91495000Y-38871335D01*
X91550147Y-39148574D01*
X91658320Y-39409727D01*
X91815363Y-39644759D01*
X92015241Y-39844637D01*
X92250273Y-40001680D01*
X92511426Y-40109853D01*
X92788665Y-40165000D01*
X93071335Y-40165000D01*
X93348574Y-40109853D01*
X93609727Y-40001680D01*
X93844759Y-39844637D01*
X94044637Y-39644759D01*
X94201680Y-39409727D01*
X94309853Y-39148574D01*
X94365000Y-38871335D01*
X94365000Y-38588665D01*
X94775000Y-38588665D01*
X94775000Y-38871335D01*
X94830147Y-39148574D01*
X94938320Y-39409727D01*
X95095363Y-39644759D01*
X95295241Y-39844637D01*
X95530273Y-40001680D01*
X95791426Y-40109853D01*
X96068665Y-40165000D01*
X96351335Y-40165000D01*
X96628574Y-40109853D01*
X96889727Y-40001680D01*
X97124759Y-39844637D01*
X97324637Y-39644759D01*
X97481680Y-39409727D01*
X97589853Y-39148574D01*
X97645000Y-38871335D01*
X97645000Y-38588665D01*
X97920000Y-38588665D01*
X97920000Y-38871335D01*
X97975147Y-39148574D01*
X98083320Y-39409727D01*
X98240363Y-39644759D01*
X98440241Y-39844637D01*
X98675273Y-40001680D01*
X98936426Y-40109853D01*
X99213665Y-40165000D01*
X99496335Y-40165000D01*
X99773574Y-40109853D01*
X100034727Y-40001680D01*
X100269759Y-39844637D01*
X100469637Y-39644759D01*
X100626680Y-39409727D01*
X100734853Y-39148574D01*
X100790000Y-38871335D01*
X100790000Y-38588665D01*
X101065000Y-38588665D01*
X101065000Y-38871335D01*
X101120147Y-39148574D01*
X101228320Y-39409727D01*
X101385363Y-39644759D01*
X101585241Y-39844637D01*
X101820273Y-40001680D01*
X102081426Y-40109853D01*
X102358665Y-40165000D01*
X102641335Y-40165000D01*
X102918574Y-40109853D01*
X103179727Y-40001680D01*
X103414759Y-39844637D01*
X103614637Y-39644759D01*
X103712051Y-39498967D01*
X107025000Y-39498967D01*
X107025000Y-39821033D01*
X107087832Y-40136912D01*
X107211082Y-40434463D01*
X107390013Y-40702252D01*
X107617748Y-40929987D01*
X107885537Y-41108918D01*
X108183088Y-41232168D01*
X108498967Y-41295000D01*
X108821033Y-41295000D01*
X109136912Y-41232168D01*
X109434463Y-41108918D01*
X109702252Y-40929987D01*
X109929987Y-40702252D01*
X110108918Y-40434463D01*
X110232168Y-40136912D01*
X110295000Y-39821033D01*
X110295000Y-39498967D01*
X110232168Y-39183088D01*
X110108918Y-38885537D01*
X109929987Y-38617748D01*
X109702252Y-38390013D01*
X109434463Y-38211082D01*
X109136912Y-38087832D01*
X108821033Y-38025000D01*
X108498967Y-38025000D01*
X108183088Y-38087832D01*
X107885537Y-38211082D01*
X107617748Y-38390013D01*
X107390013Y-38617748D01*
X107211082Y-38885537D01*
X107087832Y-39183088D01*
X107025000Y-39498967D01*
X103712051Y-39498967D01*
X103771680Y-39409727D01*
X103879853Y-39148574D01*
X103935000Y-38871335D01*
X103935000Y-38588665D01*
X103879853Y-38311426D01*
X103771680Y-38050273D01*
X103614637Y-37815241D01*
X103414759Y-37615363D01*
X103179727Y-37458320D01*
X102918574Y-37350147D01*
X102641335Y-37295000D01*
X102358665Y-37295000D01*
X102081426Y-37350147D01*
X101820273Y-37458320D01*
X101585241Y-37615363D01*
X101385363Y-37815241D01*
X101228320Y-38050273D01*
X101120147Y-38311426D01*
X101065000Y-38588665D01*
X100790000Y-38588665D01*
X100734853Y-38311426D01*
X100626680Y-38050273D01*
X100469637Y-37815241D01*
X100269759Y-37615363D01*
X100034727Y-37458320D01*
X99773574Y-37350147D01*
X99496335Y-37295000D01*
X99213665Y-37295000D01*
X98936426Y-37350147D01*
X98675273Y-37458320D01*
X98440241Y-37615363D01*
X98240363Y-37815241D01*
X98083320Y-38050273D01*
X97975147Y-38311426D01*
X97920000Y-38588665D01*
X97645000Y-38588665D01*
X97589853Y-38311426D01*
X97481680Y-38050273D01*
X97324637Y-37815241D01*
X97124759Y-37615363D01*
X96889727Y-37458320D01*
X96628574Y-37350147D01*
X96351335Y-37295000D01*
X96068665Y-37295000D01*
X95791426Y-37350147D01*
X95530273Y-37458320D01*
X95295241Y-37615363D01*
X95095363Y-37815241D01*
X94938320Y-38050273D01*
X94830147Y-38311426D01*
X94775000Y-38588665D01*
X94365000Y-38588665D01*
X94309853Y-38311426D01*
X94201680Y-38050273D01*
X94044637Y-37815241D01*
X93844759Y-37615363D01*
X93609727Y-37458320D01*
X93348574Y-37350147D01*
X93071335Y-37295000D01*
X92788665Y-37295000D01*
X92511426Y-37350147D01*
X92250273Y-37458320D01*
X92015241Y-37615363D01*
X91815363Y-37815241D01*
X91658320Y-38050273D01*
X91550147Y-38311426D01*
X91495000Y-38588665D01*
X87823385Y-38588665D01*
X87781854Y-38487000D01*
X86237000Y-38487000D01*
X85983000Y-38487000D01*
X84438146Y-38487000D01*
X84321801Y-38771806D01*
X78059608Y-38771806D01*
X77949987Y-38607748D01*
X77722252Y-38380013D01*
X77454463Y-38201082D01*
X77156912Y-38077832D01*
X76841033Y-38015000D01*
X76518967Y-38015000D01*
X76203088Y-38077832D01*
X75905537Y-38201082D01*
X75637748Y-38380013D01*
X75410013Y-38607748D01*
X75231082Y-38875537D01*
X75107832Y-39173088D01*
X75045000Y-39488967D01*
X71815000Y-39488967D01*
X71752168Y-39173088D01*
X71628918Y-38875537D01*
X71449987Y-38607748D01*
X71222252Y-38380013D01*
X70954463Y-38201082D01*
X70656912Y-38077832D01*
X70341033Y-38015000D01*
X70018967Y-38015000D01*
X69703088Y-38077832D01*
X69405537Y-38201082D01*
X69137748Y-38380013D01*
X68910013Y-38607748D01*
X68731082Y-38875537D01*
X68607832Y-39173088D01*
X68545000Y-39488967D01*
X66375000Y-39488967D01*
X66375000Y-37948194D01*
X84321801Y-37948194D01*
X84438146Y-38233000D01*
X85983000Y-38233000D01*
X85983000Y-36688568D01*
X86237000Y-36688568D01*
X86237000Y-38233000D01*
X87781854Y-38233000D01*
X87898199Y-37948194D01*
X87783500Y-37607246D01*
X87604489Y-37295226D01*
X87368046Y-37024125D01*
X87083257Y-36804361D01*
X86761066Y-36644379D01*
X86521805Y-36571805D01*
X86237000Y-36688568D01*
X85983000Y-36688568D01*
X85698195Y-36571805D01*
X85458934Y-36644379D01*
X85136743Y-36804361D01*
X84851954Y-37024125D01*
X84615511Y-37295226D01*
X84436500Y-37607246D01*
X84321801Y-37948194D01*
X66375000Y-37948194D01*
X66375000Y-36285413D01*
X69224192Y-36285413D01*
X69319956Y-36549814D01*
X69609571Y-36690704D01*
X69921108Y-36772384D01*
X70242595Y-36791718D01*
X70561675Y-36747961D01*
X70866088Y-36642795D01*
X71040044Y-36549814D01*
X71135808Y-36285413D01*
X75724192Y-36285413D01*
X75819956Y-36549814D01*
X76109571Y-36690704D01*
X76421108Y-36772384D01*
X76742595Y-36791718D01*
X77061675Y-36747961D01*
X77366088Y-36642795D01*
X77540044Y-36549814D01*
X77635808Y-36285413D01*
X77582201Y-36231806D01*
X79001801Y-36231806D01*
X79116500Y-36572754D01*
X79295511Y-36884774D01*
X79531954Y-37155875D01*
X79816743Y-37375639D01*
X80138934Y-37535621D01*
X80378195Y-37608195D01*
X80663000Y-37491432D01*
X80663000Y-35947000D01*
X80917000Y-35947000D01*
X80917000Y-37491432D01*
X81201805Y-37608195D01*
X81441066Y-37535621D01*
X81763257Y-37375639D01*
X82048046Y-37155875D01*
X82284489Y-36884774D01*
X82463500Y-36572754D01*
X82556800Y-36295413D01*
X107704192Y-36295413D01*
X107799956Y-36559814D01*
X108089571Y-36700704D01*
X108401108Y-36782384D01*
X108722595Y-36801718D01*
X109041675Y-36757961D01*
X109346088Y-36652795D01*
X109520044Y-36559814D01*
X109615808Y-36295413D01*
X108660000Y-35339605D01*
X107704192Y-36295413D01*
X82556800Y-36295413D01*
X82578199Y-36231806D01*
X82461854Y-35947000D01*
X80917000Y-35947000D01*
X80663000Y-35947000D01*
X79118146Y-35947000D01*
X79001801Y-36231806D01*
X77582201Y-36231806D01*
X76680000Y-35329605D01*
X75724192Y-36285413D01*
X71135808Y-36285413D01*
X70180000Y-35329605D01*
X69224192Y-36285413D01*
X66375000Y-36285413D01*
X66375000Y-35212595D01*
X68538282Y-35212595D01*
X68582039Y-35531675D01*
X68687205Y-35836088D01*
X68780186Y-36010044D01*
X69044587Y-36105808D01*
X70000395Y-35150000D01*
X70359605Y-35150000D01*
X71315413Y-36105808D01*
X71579814Y-36010044D01*
X71720704Y-35720429D01*
X71802384Y-35408892D01*
X71814189Y-35212595D01*
X75038282Y-35212595D01*
X75082039Y-35531675D01*
X75187205Y-35836088D01*
X75280186Y-36010044D01*
X75544587Y-36105808D01*
X76500395Y-35150000D01*
X76859605Y-35150000D01*
X77815413Y-36105808D01*
X78079814Y-36010044D01*
X78220704Y-35720429D01*
X78302384Y-35408892D01*
X78302425Y-35408194D01*
X79001801Y-35408194D01*
X79118146Y-35693000D01*
X80663000Y-35693000D01*
X80663000Y-34148568D01*
X80917000Y-34148568D01*
X80917000Y-35693000D01*
X82461854Y-35693000D01*
X82578199Y-35408194D01*
X82463500Y-35067246D01*
X82452408Y-35047911D01*
X84295000Y-35047911D01*
X84295000Y-35232089D01*
X84330932Y-35412729D01*
X84401414Y-35582889D01*
X84503738Y-35736028D01*
X84633972Y-35866262D01*
X84787111Y-35968586D01*
X84957271Y-36039068D01*
X85137911Y-36075000D01*
X85322089Y-36075000D01*
X85502729Y-36039068D01*
X85672889Y-35968586D01*
X85826028Y-35866262D01*
X85956262Y-35736028D01*
X86058586Y-35582889D01*
X86129068Y-35412729D01*
X86165000Y-35232089D01*
X86165000Y-35047911D01*
X87045000Y-35047911D01*
X87045000Y-35232089D01*
X87080932Y-35412729D01*
X87151414Y-35582889D01*
X87253738Y-35736028D01*
X87383972Y-35866262D01*
X87537111Y-35968586D01*
X87707271Y-36039068D01*
X87887911Y-36075000D01*
X88072089Y-36075000D01*
X88252729Y-36039068D01*
X88422889Y-35968586D01*
X88576028Y-35866262D01*
X88706262Y-35736028D01*
X88808586Y-35582889D01*
X88879068Y-35412729D01*
X88915000Y-35232089D01*
X88915000Y-35227911D01*
X89985000Y-35227911D01*
X89985000Y-35412089D01*
X90020932Y-35592729D01*
X90091414Y-35762889D01*
X90193738Y-35916028D01*
X90323972Y-36046262D01*
X90477111Y-36148586D01*
X90647271Y-36219068D01*
X90827911Y-36255000D01*
X91012089Y-36255000D01*
X91192729Y-36219068D01*
X91362889Y-36148586D01*
X91516028Y-36046262D01*
X91646262Y-35916028D01*
X91748586Y-35762889D01*
X91819068Y-35592729D01*
X91855000Y-35412089D01*
X91855000Y-35227911D01*
X92735000Y-35227911D01*
X92735000Y-35412089D01*
X92770932Y-35592729D01*
X92841414Y-35762889D01*
X92943738Y-35916028D01*
X93073972Y-36046262D01*
X93227111Y-36148586D01*
X93397271Y-36219068D01*
X93577911Y-36255000D01*
X93762089Y-36255000D01*
X93942729Y-36219068D01*
X94112889Y-36148586D01*
X94266028Y-36046262D01*
X94396262Y-35916028D01*
X94498586Y-35762889D01*
X94569068Y-35592729D01*
X94605000Y-35412089D01*
X94605000Y-35227911D01*
X95755000Y-35227911D01*
X95755000Y-35412089D01*
X95790932Y-35592729D01*
X95861414Y-35762889D01*
X95963738Y-35916028D01*
X96093972Y-36046262D01*
X96247111Y-36148586D01*
X96417271Y-36219068D01*
X96597911Y-36255000D01*
X96782089Y-36255000D01*
X96962729Y-36219068D01*
X97132889Y-36148586D01*
X97286028Y-36046262D01*
X97416262Y-35916028D01*
X97518586Y-35762889D01*
X97589068Y-35592729D01*
X97625000Y-35412089D01*
X97625000Y-35227911D01*
X98505000Y-35227911D01*
X98505000Y-35412089D01*
X98540932Y-35592729D01*
X98611414Y-35762889D01*
X98713738Y-35916028D01*
X98843972Y-36046262D01*
X98997111Y-36148586D01*
X99167271Y-36219068D01*
X99347911Y-36255000D01*
X99532089Y-36255000D01*
X99712729Y-36219068D01*
X99882889Y-36148586D01*
X100036028Y-36046262D01*
X100166262Y-35916028D01*
X100268586Y-35762889D01*
X100339068Y-35592729D01*
X100375000Y-35412089D01*
X100375000Y-35227911D01*
X101195000Y-35227911D01*
X101195000Y-35412089D01*
X101230932Y-35592729D01*
X101301414Y-35762889D01*
X101403738Y-35916028D01*
X101533972Y-36046262D01*
X101687111Y-36148586D01*
X101857271Y-36219068D01*
X102037911Y-36255000D01*
X102222089Y-36255000D01*
X102402729Y-36219068D01*
X102572889Y-36148586D01*
X102726028Y-36046262D01*
X102856262Y-35916028D01*
X102958586Y-35762889D01*
X103029068Y-35592729D01*
X103065000Y-35412089D01*
X103065000Y-35227911D01*
X103945000Y-35227911D01*
X103945000Y-35412089D01*
X103980932Y-35592729D01*
X104051414Y-35762889D01*
X104153738Y-35916028D01*
X104283972Y-36046262D01*
X104437111Y-36148586D01*
X104607271Y-36219068D01*
X104787911Y-36255000D01*
X104972089Y-36255000D01*
X105152729Y-36219068D01*
X105322889Y-36148586D01*
X105476028Y-36046262D01*
X105606262Y-35916028D01*
X105708586Y-35762889D01*
X105779068Y-35592729D01*
X105815000Y-35412089D01*
X105815000Y-35227911D01*
X105813943Y-35222595D01*
X107018282Y-35222595D01*
X107062039Y-35541675D01*
X107167205Y-35846088D01*
X107260186Y-36020044D01*
X107524587Y-36115808D01*
X108480395Y-35160000D01*
X108839605Y-35160000D01*
X109795413Y-36115808D01*
X110059814Y-36020044D01*
X110200704Y-35730429D01*
X110282384Y-35418892D01*
X110294189Y-35222595D01*
X113518282Y-35222595D01*
X113562039Y-35541675D01*
X113667205Y-35846088D01*
X113760186Y-36020044D01*
X114024587Y-36115808D01*
X114980395Y-35160000D01*
X114024587Y-34204192D01*
X113760186Y-34299956D01*
X113619296Y-34589571D01*
X113537616Y-34901108D01*
X113518282Y-35222595D01*
X110294189Y-35222595D01*
X110301718Y-35097405D01*
X110257961Y-34778325D01*
X110152795Y-34473912D01*
X110059814Y-34299956D01*
X109795413Y-34204192D01*
X108839605Y-35160000D01*
X108480395Y-35160000D01*
X107524587Y-34204192D01*
X107260186Y-34299956D01*
X107119296Y-34589571D01*
X107037616Y-34901108D01*
X107018282Y-35222595D01*
X105813943Y-35222595D01*
X105779068Y-35047271D01*
X105708586Y-34877111D01*
X105606262Y-34723972D01*
X105476028Y-34593738D01*
X105322889Y-34491414D01*
X105152729Y-34420932D01*
X104972089Y-34385000D01*
X104787911Y-34385000D01*
X104607271Y-34420932D01*
X104437111Y-34491414D01*
X104283972Y-34593738D01*
X104153738Y-34723972D01*
X104051414Y-34877111D01*
X103980932Y-35047271D01*
X103945000Y-35227911D01*
X103065000Y-35227911D01*
X103029068Y-35047271D01*
X102958586Y-34877111D01*
X102856262Y-34723972D01*
X102726028Y-34593738D01*
X102572889Y-34491414D01*
X102402729Y-34420932D01*
X102222089Y-34385000D01*
X102037911Y-34385000D01*
X101857271Y-34420932D01*
X101687111Y-34491414D01*
X101533972Y-34593738D01*
X101403738Y-34723972D01*
X101301414Y-34877111D01*
X101230932Y-35047271D01*
X101195000Y-35227911D01*
X100375000Y-35227911D01*
X100339068Y-35047271D01*
X100268586Y-34877111D01*
X100166262Y-34723972D01*
X100036028Y-34593738D01*
X99882889Y-34491414D01*
X99712729Y-34420932D01*
X99532089Y-34385000D01*
X99347911Y-34385000D01*
X99167271Y-34420932D01*
X98997111Y-34491414D01*
X98843972Y-34593738D01*
X98713738Y-34723972D01*
X98611414Y-34877111D01*
X98540932Y-35047271D01*
X98505000Y-35227911D01*
X97625000Y-35227911D01*
X97589068Y-35047271D01*
X97518586Y-34877111D01*
X97416262Y-34723972D01*
X97286028Y-34593738D01*
X97132889Y-34491414D01*
X96962729Y-34420932D01*
X96782089Y-34385000D01*
X96597911Y-34385000D01*
X96417271Y-34420932D01*
X96247111Y-34491414D01*
X96093972Y-34593738D01*
X95963738Y-34723972D01*
X95861414Y-34877111D01*
X95790932Y-35047271D01*
X95755000Y-35227911D01*
X94605000Y-35227911D01*
X94569068Y-35047271D01*
X94498586Y-34877111D01*
X94396262Y-34723972D01*
X94266028Y-34593738D01*
X94112889Y-34491414D01*
X93942729Y-34420932D01*
X93762089Y-34385000D01*
X93577911Y-34385000D01*
X93397271Y-34420932D01*
X93227111Y-34491414D01*
X93073972Y-34593738D01*
X92943738Y-34723972D01*
X92841414Y-34877111D01*
X92770932Y-35047271D01*
X92735000Y-35227911D01*
X91855000Y-35227911D01*
X91819068Y-35047271D01*
X91748586Y-34877111D01*
X91646262Y-34723972D01*
X91516028Y-34593738D01*
X91362889Y-34491414D01*
X91192729Y-34420932D01*
X91012089Y-34385000D01*
X90827911Y-34385000D01*
X90647271Y-34420932D01*
X90477111Y-34491414D01*
X90323972Y-34593738D01*
X90193738Y-34723972D01*
X90091414Y-34877111D01*
X90020932Y-35047271D01*
X89985000Y-35227911D01*
X88915000Y-35227911D01*
X88915000Y-35047911D01*
X88879068Y-34867271D01*
X88808586Y-34697111D01*
X88706262Y-34543972D01*
X88576028Y-34413738D01*
X88422889Y-34311414D01*
X88252729Y-34240932D01*
X88072089Y-34205000D01*
X87887911Y-34205000D01*
X87707271Y-34240932D01*
X87537111Y-34311414D01*
X87383972Y-34413738D01*
X87253738Y-34543972D01*
X87151414Y-34697111D01*
X87080932Y-34867271D01*
X87045000Y-35047911D01*
X86165000Y-35047911D01*
X86129068Y-34867271D01*
X86058586Y-34697111D01*
X85956262Y-34543972D01*
X85826028Y-34413738D01*
X85672889Y-34311414D01*
X85502729Y-34240932D01*
X85322089Y-34205000D01*
X85137911Y-34205000D01*
X84957271Y-34240932D01*
X84787111Y-34311414D01*
X84633972Y-34413738D01*
X84503738Y-34543972D01*
X84401414Y-34697111D01*
X84330932Y-34867271D01*
X84295000Y-35047911D01*
X82452408Y-35047911D01*
X82284489Y-34755226D01*
X82048046Y-34484125D01*
X81763257Y-34264361D01*
X81441066Y-34104379D01*
X81201805Y-34031805D01*
X80917000Y-34148568D01*
X80663000Y-34148568D01*
X80378195Y-34031805D01*
X80138934Y-34104379D01*
X79816743Y-34264361D01*
X79531954Y-34484125D01*
X79295511Y-34755226D01*
X79116500Y-35067246D01*
X79001801Y-35408194D01*
X78302425Y-35408194D01*
X78321718Y-35087405D01*
X78277961Y-34768325D01*
X78172795Y-34463912D01*
X78079814Y-34289956D01*
X77815413Y-34194192D01*
X76859605Y-35150000D01*
X76500395Y-35150000D01*
X75544587Y-34194192D01*
X75280186Y-34289956D01*
X75139296Y-34579571D01*
X75057616Y-34891108D01*
X75038282Y-35212595D01*
X71814189Y-35212595D01*
X71821718Y-35087405D01*
X71777961Y-34768325D01*
X71672795Y-34463912D01*
X71579814Y-34289956D01*
X71315413Y-34194192D01*
X70359605Y-35150000D01*
X70000395Y-35150000D01*
X69044587Y-34194192D01*
X68780186Y-34289956D01*
X68639296Y-34579571D01*
X68557616Y-34891108D01*
X68538282Y-35212595D01*
X66375000Y-35212595D01*
X66375000Y-34014587D01*
X69224192Y-34014587D01*
X70180000Y-34970395D01*
X71135808Y-34014587D01*
X75724192Y-34014587D01*
X76680000Y-34970395D01*
X77625808Y-34024587D01*
X107704192Y-34024587D01*
X108660000Y-34980395D01*
X109615808Y-34024587D01*
X109520044Y-33760186D01*
X109230429Y-33619296D01*
X108918892Y-33537616D01*
X108597405Y-33518282D01*
X108278325Y-33562039D01*
X107973912Y-33667205D01*
X107799956Y-33760186D01*
X107704192Y-34024587D01*
X77625808Y-34024587D01*
X77635808Y-34014587D01*
X77540044Y-33750186D01*
X77250429Y-33609296D01*
X76938892Y-33527616D01*
X76617405Y-33508282D01*
X76298325Y-33552039D01*
X75993912Y-33657205D01*
X75819956Y-33750186D01*
X75724192Y-34014587D01*
X71135808Y-34014587D01*
X71040044Y-33750186D01*
X70750429Y-33609296D01*
X70438892Y-33527616D01*
X70117405Y-33508282D01*
X69798325Y-33552039D01*
X69493912Y-33657205D01*
X69319956Y-33750186D01*
X69224192Y-34014587D01*
X66375000Y-34014587D01*
X66375000Y-30838665D01*
X67305000Y-30838665D01*
X67305000Y-31121335D01*
X67360147Y-31398574D01*
X67468320Y-31659727D01*
X67625363Y-31894759D01*
X67825241Y-32094637D01*
X68060273Y-32251680D01*
X68321426Y-32359853D01*
X68598665Y-32415000D01*
X68881335Y-32415000D01*
X69158574Y-32359853D01*
X69419727Y-32251680D01*
X69654759Y-32094637D01*
X69854637Y-31894759D01*
X70011680Y-31659727D01*
X70119853Y-31398574D01*
X70133684Y-31329039D01*
X74968096Y-31329039D01*
X75008754Y-31463087D01*
X75128963Y-31717420D01*
X75296481Y-31943414D01*
X75504869Y-32132385D01*
X75746119Y-32277070D01*
X76010960Y-32371909D01*
X76233000Y-32250624D01*
X76233000Y-31107000D01*
X76487000Y-31107000D01*
X76487000Y-32250624D01*
X76709040Y-32371909D01*
X76915681Y-32297911D01*
X84295000Y-32297911D01*
X84295000Y-32482089D01*
X84330932Y-32662729D01*
X84401414Y-32832889D01*
X84503738Y-32986028D01*
X84633972Y-33116262D01*
X84787111Y-33218586D01*
X84957271Y-33289068D01*
X85137911Y-33325000D01*
X85322089Y-33325000D01*
X85502729Y-33289068D01*
X85672889Y-33218586D01*
X85826028Y-33116262D01*
X85956262Y-32986028D01*
X86058586Y-32832889D01*
X86129068Y-32662729D01*
X86165000Y-32482089D01*
X86165000Y-32297911D01*
X87045000Y-32297911D01*
X87045000Y-32482089D01*
X87080932Y-32662729D01*
X87151414Y-32832889D01*
X87253738Y-32986028D01*
X87383972Y-33116262D01*
X87537111Y-33218586D01*
X87707271Y-33289068D01*
X87887911Y-33325000D01*
X88072089Y-33325000D01*
X88252729Y-33289068D01*
X88422889Y-33218586D01*
X88576028Y-33116262D01*
X88706262Y-32986028D01*
X88808586Y-32832889D01*
X88879068Y-32662729D01*
X88915000Y-32482089D01*
X88915000Y-32297911D01*
X88879068Y-32117271D01*
X88808586Y-31947111D01*
X88706262Y-31793972D01*
X88576028Y-31663738D01*
X88422889Y-31561414D01*
X88252729Y-31490932D01*
X88072089Y-31455000D01*
X87887911Y-31455000D01*
X87707271Y-31490932D01*
X87537111Y-31561414D01*
X87383972Y-31663738D01*
X87253738Y-31793972D01*
X87151414Y-31947111D01*
X87080932Y-32117271D01*
X87045000Y-32297911D01*
X86165000Y-32297911D01*
X86129068Y-32117271D01*
X86058586Y-31947111D01*
X85956262Y-31793972D01*
X85826028Y-31663738D01*
X85672889Y-31561414D01*
X85502729Y-31490932D01*
X85322089Y-31455000D01*
X85137911Y-31455000D01*
X84957271Y-31490932D01*
X84787111Y-31561414D01*
X84633972Y-31663738D01*
X84503738Y-31793972D01*
X84401414Y-31947111D01*
X84330932Y-32117271D01*
X84295000Y-32297911D01*
X76915681Y-32297911D01*
X76973881Y-32277070D01*
X77215131Y-32132385D01*
X77423519Y-31943414D01*
X77591037Y-31717420D01*
X77711246Y-31463087D01*
X77751904Y-31329039D01*
X77629915Y-31107000D01*
X76487000Y-31107000D01*
X76233000Y-31107000D01*
X75090085Y-31107000D01*
X74968096Y-31329039D01*
X70133684Y-31329039D01*
X70175000Y-31121335D01*
X70175000Y-30968665D01*
X91495000Y-30968665D01*
X91495000Y-31251335D01*
X91550147Y-31528574D01*
X91658320Y-31789727D01*
X91815363Y-32024759D01*
X92015241Y-32224637D01*
X92250273Y-32381680D01*
X92511426Y-32489853D01*
X92788665Y-32545000D01*
X93071335Y-32545000D01*
X93348574Y-32489853D01*
X93609727Y-32381680D01*
X93844759Y-32224637D01*
X94044637Y-32024759D01*
X94201680Y-31789727D01*
X94309853Y-31528574D01*
X94365000Y-31251335D01*
X94365000Y-30968665D01*
X94775000Y-30968665D01*
X94775000Y-31251335D01*
X94830147Y-31528574D01*
X94938320Y-31789727D01*
X95095363Y-32024759D01*
X95295241Y-32224637D01*
X95530273Y-32381680D01*
X95791426Y-32489853D01*
X96068665Y-32545000D01*
X96351335Y-32545000D01*
X96628574Y-32489853D01*
X96889727Y-32381680D01*
X97124759Y-32224637D01*
X97324637Y-32024759D01*
X97481680Y-31789727D01*
X97589853Y-31528574D01*
X97645000Y-31251335D01*
X97645000Y-30968665D01*
X97920000Y-30968665D01*
X97920000Y-31251335D01*
X97975147Y-31528574D01*
X98083320Y-31789727D01*
X98240363Y-32024759D01*
X98440241Y-32224637D01*
X98675273Y-32381680D01*
X98936426Y-32489853D01*
X99213665Y-32545000D01*
X99496335Y-32545000D01*
X99773574Y-32489853D01*
X100034727Y-32381680D01*
X100269759Y-32224637D01*
X100469637Y-32024759D01*
X100626680Y-31789727D01*
X100734853Y-31528574D01*
X100790000Y-31251335D01*
X100790000Y-30968665D01*
X101065000Y-30968665D01*
X101065000Y-31251335D01*
X101120147Y-31528574D01*
X101228320Y-31789727D01*
X101385363Y-32024759D01*
X101585241Y-32224637D01*
X101820273Y-32381680D01*
X102081426Y-32489853D01*
X102358665Y-32545000D01*
X102641335Y-32545000D01*
X102918574Y-32489853D01*
X103179727Y-32381680D01*
X103414759Y-32224637D01*
X103614637Y-32024759D01*
X103771680Y-31789727D01*
X103879853Y-31528574D01*
X103935000Y-31251335D01*
X103935000Y-30968665D01*
X103879853Y-30691426D01*
X103771680Y-30430273D01*
X103614637Y-30195241D01*
X103414759Y-29995363D01*
X103179727Y-29838320D01*
X102918574Y-29730147D01*
X102641335Y-29675000D01*
X102358665Y-29675000D01*
X102081426Y-29730147D01*
X101820273Y-29838320D01*
X101585241Y-29995363D01*
X101385363Y-30195241D01*
X101228320Y-30430273D01*
X101120147Y-30691426D01*
X101065000Y-30968665D01*
X100790000Y-30968665D01*
X100734853Y-30691426D01*
X100626680Y-30430273D01*
X100469637Y-30195241D01*
X100269759Y-29995363D01*
X100034727Y-29838320D01*
X99773574Y-29730147D01*
X99496335Y-29675000D01*
X99213665Y-29675000D01*
X98936426Y-29730147D01*
X98675273Y-29838320D01*
X98440241Y-29995363D01*
X98240363Y-30195241D01*
X98083320Y-30430273D01*
X97975147Y-30691426D01*
X97920000Y-30968665D01*
X97645000Y-30968665D01*
X97589853Y-30691426D01*
X97481680Y-30430273D01*
X97324637Y-30195241D01*
X97124759Y-29995363D01*
X96889727Y-29838320D01*
X96628574Y-29730147D01*
X96351335Y-29675000D01*
X96068665Y-29675000D01*
X95791426Y-29730147D01*
X95530273Y-29838320D01*
X95295241Y-29995363D01*
X95095363Y-30195241D01*
X94938320Y-30430273D01*
X94830147Y-30691426D01*
X94775000Y-30968665D01*
X94365000Y-30968665D01*
X94309853Y-30691426D01*
X94201680Y-30430273D01*
X94044637Y-30195241D01*
X93844759Y-29995363D01*
X93609727Y-29838320D01*
X93348574Y-29730147D01*
X93071335Y-29675000D01*
X92788665Y-29675000D01*
X92511426Y-29730147D01*
X92250273Y-29838320D01*
X92015241Y-29995363D01*
X91815363Y-30195241D01*
X91658320Y-30430273D01*
X91550147Y-30691426D01*
X91495000Y-30968665D01*
X70175000Y-30968665D01*
X70175000Y-30838665D01*
X70133685Y-30630961D01*
X74968096Y-30630961D01*
X75090085Y-30853000D01*
X76233000Y-30853000D01*
X76233000Y-29709376D01*
X76487000Y-29709376D01*
X76487000Y-30853000D01*
X77629915Y-30853000D01*
X77751904Y-30630961D01*
X77711246Y-30496913D01*
X77591037Y-30242580D01*
X77423519Y-30016586D01*
X77215131Y-29827615D01*
X76973881Y-29682930D01*
X76709040Y-29588091D01*
X76487000Y-29709376D01*
X76233000Y-29709376D01*
X76010960Y-29588091D01*
X75746119Y-29682930D01*
X75504869Y-29827615D01*
X75296481Y-30016586D01*
X75128963Y-30242580D01*
X75008754Y-30496913D01*
X74968096Y-30630961D01*
X70133685Y-30630961D01*
X70119853Y-30561426D01*
X70011680Y-30300273D01*
X69854637Y-30065241D01*
X69654759Y-29865363D01*
X69419727Y-29708320D01*
X69158574Y-29600147D01*
X68881335Y-29545000D01*
X68598665Y-29545000D01*
X68321426Y-29600147D01*
X68060273Y-29708320D01*
X67825241Y-29865363D01*
X67625363Y-30065241D01*
X67468320Y-30300273D01*
X67360147Y-30561426D01*
X67305000Y-30838665D01*
X66375000Y-30838665D01*
X66375000Y-30814345D01*
X68283832Y-28905514D01*
X70881928Y-28925846D01*
X70881928Y-29060000D01*
X70894188Y-29184482D01*
X70930498Y-29304180D01*
X70989463Y-29414494D01*
X71068815Y-29511185D01*
X71165506Y-29590537D01*
X71275820Y-29649502D01*
X71395518Y-29685812D01*
X71520000Y-29698072D01*
X73320000Y-29698072D01*
X73444482Y-29685812D01*
X73564180Y-29649502D01*
X73674494Y-29590537D01*
X73771185Y-29511185D01*
X73850537Y-29414494D01*
X73909502Y-29304180D01*
X73945812Y-29184482D01*
X73958072Y-29060000D01*
X73958072Y-28949919D01*
X84515175Y-29032535D01*
X84503738Y-29043972D01*
X84401414Y-29197111D01*
X84330932Y-29367271D01*
X84295000Y-29547911D01*
X84295000Y-29732089D01*
X84330932Y-29912729D01*
X84401414Y-30082889D01*
X84503738Y-30236028D01*
X84633972Y-30366262D01*
X84787111Y-30468586D01*
X84957271Y-30539068D01*
X85137911Y-30575000D01*
X85322089Y-30575000D01*
X85502729Y-30539068D01*
X85672889Y-30468586D01*
X85826028Y-30366262D01*
X85956262Y-30236028D01*
X86058586Y-30082889D01*
X86129068Y-29912729D01*
X86165000Y-29732089D01*
X86165000Y-29547911D01*
X86129068Y-29367271D01*
X86058586Y-29197111D01*
X85956262Y-29043972D01*
X85956102Y-29043812D01*
X87247095Y-29053914D01*
X87151414Y-29197111D01*
X87080932Y-29367271D01*
X87045000Y-29547911D01*
X87045000Y-29732089D01*
X87080932Y-29912729D01*
X87151414Y-30082889D01*
X87253738Y-30236028D01*
X87383972Y-30366262D01*
X87537111Y-30468586D01*
X87707271Y-30539068D01*
X87887911Y-30575000D01*
X88072089Y-30575000D01*
X88252729Y-30539068D01*
X88422889Y-30468586D01*
X88576028Y-30366262D01*
X88706262Y-30236028D01*
X88808586Y-30082889D01*
X88879068Y-29912729D01*
X88915000Y-29732089D01*
X88915000Y-29547911D01*
X88879068Y-29367271D01*
X88808586Y-29197111D01*
X88720610Y-29065446D01*
X106858039Y-29207384D01*
X107191498Y-29540843D01*
X107211637Y-29570983D01*
X107509017Y-29868363D01*
X107858698Y-30102012D01*
X108247244Y-30262953D01*
X108659721Y-30345000D01*
X109080279Y-30345000D01*
X109492756Y-30262953D01*
X109881302Y-30102012D01*
X110230983Y-29868363D01*
X110389346Y-29710000D01*
X111811928Y-29710000D01*
X111824188Y-29834482D01*
X111860498Y-29954180D01*
X111919463Y-30064494D01*
X111998815Y-30161185D01*
X112095506Y-30240537D01*
X112205820Y-30299502D01*
X112325518Y-30335812D01*
X112450000Y-30348072D01*
X113664250Y-30345000D01*
X113823000Y-30186250D01*
X113823000Y-28337000D01*
X114077000Y-28337000D01*
X114077000Y-30186250D01*
X114235750Y-30345000D01*
X115450000Y-30348072D01*
X115574482Y-30335812D01*
X115694180Y-30299502D01*
X115804494Y-30240537D01*
X115901185Y-30161185D01*
X115980537Y-30064494D01*
X116039502Y-29954180D01*
X116075812Y-29834482D01*
X116088072Y-29710000D01*
X116085000Y-28495750D01*
X115926250Y-28337000D01*
X114077000Y-28337000D01*
X113823000Y-28337000D01*
X111973750Y-28337000D01*
X111815000Y-28495750D01*
X111811928Y-29710000D01*
X110389346Y-29710000D01*
X110528363Y-29570983D01*
X110762012Y-29221302D01*
X110922953Y-28832756D01*
X111005000Y-28420279D01*
X111005000Y-28193339D01*
X111005329Y-28189999D01*
X111005000Y-28186659D01*
X111005000Y-27999721D01*
X110968530Y-27816375D01*
X110964107Y-27771466D01*
X110951007Y-27728282D01*
X110922953Y-27587244D01*
X110867922Y-27454387D01*
X110842025Y-27369017D01*
X110799971Y-27290340D01*
X110762012Y-27198698D01*
X110706905Y-27116224D01*
X110643776Y-26998118D01*
X110558820Y-26894599D01*
X110528363Y-26849017D01*
X110523515Y-26844169D01*
X110554206Y-26710000D01*
X111811928Y-26710000D01*
X111815000Y-27924250D01*
X111973750Y-28083000D01*
X113823000Y-28083000D01*
X113823000Y-26233750D01*
X114077000Y-26233750D01*
X114077000Y-28083000D01*
X115926250Y-28083000D01*
X116085000Y-27924250D01*
X116088072Y-26710000D01*
X116075812Y-26585518D01*
X116039502Y-26465820D01*
X115980537Y-26355506D01*
X115901185Y-26258815D01*
X115804494Y-26179463D01*
X115694180Y-26120498D01*
X115574482Y-26084188D01*
X115450000Y-26071928D01*
X114235750Y-26075000D01*
X114077000Y-26233750D01*
X113823000Y-26233750D01*
X113664250Y-26075000D01*
X112450000Y-26071928D01*
X112325518Y-26084188D01*
X112205820Y-26120498D01*
X112095506Y-26179463D01*
X111998815Y-26258815D01*
X111919463Y-26355506D01*
X111860498Y-26465820D01*
X111824188Y-26585518D01*
X111811928Y-26710000D01*
X110554206Y-26710000D01*
X111050593Y-24540000D01*
X116200000Y-24540000D01*
X116200000Y-33940392D01*
G37*
%TD.AperFunction*%
%TD*%
M02*
