M48
; DRILL file {KiCad (5.1.9)-1} date 02/09/21 22:22:43
; FORMAT={-:-/ absolute / inch / decimal}
; #@! TF.CreationDate,2021-02-09T22:22:43+00:00
; #@! TF.GenerationSoftware,Kicad,Pcbnew,(5.1.9)-1
; #@! TF.FileFunction,Plated,1,2,PTH
FMAT,2
INCH
T1C0.0118
T2C0.0315
T3C0.0354
T4C0.0394
T5C0.0433
T6C0.0472
T7C0.0598
T8C0.0650
%
G90
G05
T1
X2.8962Y-1.8557
X3.1945Y-2.3724
X3.3248Y-2.3724
X3.3555Y-1.1669
X3.3555Y-1.2752
X3.3555Y-1.3835
X3.4638Y-1.1669
X3.4638Y-1.2752
X3.4638Y-1.3835
X3.5795Y-1.3906
X3.6878Y-1.3906
X3.8067Y-1.3906
X3.8382Y-2.3724
X3.915Y-1.3906
X3.9713Y-2.4642
X4.0209Y-1.3906
X4.1291Y-1.3906
X4.3945Y-1.7543
X4.3945Y-1.8626
X4.402Y-2.0642
X4.402Y-2.1724
T2
X2.7063Y-1.2197
X2.7933Y-1.6929
X2.7933Y-1.9929
X2.8933Y-1.6929
X2.8933Y-1.9929
X2.9933Y-1.6929
X2.9933Y-1.9929
X3.0063Y-1.2197
X3.0933Y-1.6929
X3.0933Y-1.9929
X3.1933Y-1.6929
X3.1933Y-1.9929
X3.2933Y-1.6929
X3.2933Y-1.9929
X3.3567Y-2.0882
X3.3567Y-2.1866
X3.3933Y-1.6929
X3.3933Y-1.9929
X3.4488Y-2.3079
X3.4933Y-1.6929
X3.4933Y-1.9929
X3.5453Y-2.1508
X3.5472Y-2.3079
X3.5933Y-1.6929
X3.5933Y-1.9929
X3.6587Y-1.2248
X3.6587Y-1.5248
X3.6933Y-1.6929
X3.6933Y-1.9929
X3.7362Y-2.3098
X3.7374Y-2.1508
X3.7878Y-1.2248
X3.7878Y-1.5248
X3.7933Y-1.6929
X3.7933Y-1.9929
X3.8346Y-2.3098
X3.8933Y-1.6929
X3.8933Y-1.9929
X3.9116Y-1.2248
X3.9116Y-1.5248
X3.9933Y-1.6929
X3.9933Y-1.9929
X4.0354Y-1.2248
X4.0354Y-1.5248
X4.0933Y-1.6929
X4.0933Y-1.9929
T3
X2.8512Y-1.0087
X2.8512Y-1.1087
T4
X2.6571Y-1.724
X2.6571Y-1.824
X2.6571Y-1.924
X2.6571Y-2.024
X2.6608Y-2.4465
X2.6608Y-2.5465
X2.6608Y-2.6465
X2.6608Y-2.7465
X2.8961Y-2.1917
X2.8961Y-2.2917
X2.9961Y-2.1917
X2.9961Y-2.2917
X3.0524Y-2.9012
X3.1524Y-2.9012
X3.2524Y-2.9012
X3.3524Y-2.9012
X3.4524Y-2.9012
X3.5524Y-2.9012
X3.6524Y-2.9012
X3.7524Y-2.9012
X3.8524Y-2.9012
X3.9524Y-2.9012
X4.2734Y-2.4488
X4.2734Y-2.5488
X4.2734Y-2.6488
X4.2734Y-2.7488
T5
X2.763Y-1.3839
X2.763Y-1.561
X3.0189Y-1.3839
X3.0189Y-1.561
X4.278Y-1.3843
X4.278Y-1.5614
X4.278Y-1.7325
X4.278Y-1.9096
X4.278Y-2.0807
X4.278Y-2.2579
X4.5339Y-1.3843
X4.5339Y-1.5614
X4.5339Y-1.7325
X4.5339Y-1.9096
X4.5339Y-2.0807
X4.5339Y-2.2579
T6
X3.1807Y-1.0102
X3.1807Y-1.4102
X3.3902Y-1.0102
X3.3902Y-1.5102
T7
X4.2862Y-1.1106
X4.4862Y-1.1106
T8
X3.5827Y-1.0575
X3.7283Y-1.0575
X3.9055Y-1.0575
X4.0512Y-1.0575
T0
M30
