%TF.GenerationSoftware,KiCad,Pcbnew,(5.1.9)-1*%
%TF.CreationDate,2021-02-09T22:22:39+00:00*%
%TF.ProjectId,DMX Relay,444d5820-5265-46c6-9179-2e6b69636164,rev?*%
%TF.SameCoordinates,Original*%
%TF.FileFunction,Legend,Bot*%
%TF.FilePolarity,Positive*%
%FSLAX46Y46*%
G04 Gerber Fmt 4.6, Leading zero omitted, Abs format (unit mm)*
G04 Created by KiCad (PCBNEW (5.1.9)-1) date 2021-02-09 22:22:39*
%MOMM*%
%LPD*%
G01*
G04 APERTURE LIST*
%ADD10C,0.100000*%
G04 APERTURE END LIST*
D10*
X94276428Y-65506785D02*
X94276428Y-64756785D01*
X94097857Y-64756785D01*
X93990714Y-64792500D01*
X93919285Y-64863928D01*
X93883571Y-64935357D01*
X93847857Y-65078214D01*
X93847857Y-65185357D01*
X93883571Y-65328214D01*
X93919285Y-65399642D01*
X93990714Y-65471071D01*
X94097857Y-65506785D01*
X94276428Y-65506785D01*
X93526428Y-65506785D02*
X93526428Y-64756785D01*
X93276428Y-65292500D01*
X93026428Y-64756785D01*
X93026428Y-65506785D01*
X92740714Y-64756785D02*
X92240714Y-65506785D01*
X92240714Y-64756785D02*
X92740714Y-65506785D01*
X90955000Y-65506785D02*
X91205000Y-65149642D01*
X91383571Y-65506785D02*
X91383571Y-64756785D01*
X91097857Y-64756785D01*
X91026428Y-64792500D01*
X90990714Y-64828214D01*
X90955000Y-64899642D01*
X90955000Y-65006785D01*
X90990714Y-65078214D01*
X91026428Y-65113928D01*
X91097857Y-65149642D01*
X91383571Y-65149642D01*
X90347857Y-65471071D02*
X90419285Y-65506785D01*
X90562142Y-65506785D01*
X90633571Y-65471071D01*
X90669285Y-65399642D01*
X90669285Y-65113928D01*
X90633571Y-65042500D01*
X90562142Y-65006785D01*
X90419285Y-65006785D01*
X90347857Y-65042500D01*
X90312142Y-65113928D01*
X90312142Y-65185357D01*
X90669285Y-65256785D01*
X89883571Y-65506785D02*
X89955000Y-65471071D01*
X89990714Y-65399642D01*
X89990714Y-64756785D01*
X89276428Y-65506785D02*
X89276428Y-65113928D01*
X89312142Y-65042500D01*
X89383571Y-65006785D01*
X89526428Y-65006785D01*
X89597857Y-65042500D01*
X89276428Y-65471071D02*
X89347857Y-65506785D01*
X89526428Y-65506785D01*
X89597857Y-65471071D01*
X89633571Y-65399642D01*
X89633571Y-65328214D01*
X89597857Y-65256785D01*
X89526428Y-65221071D01*
X89347857Y-65221071D01*
X89276428Y-65185357D01*
X88990714Y-65006785D02*
X88812142Y-65506785D01*
X88633571Y-65006785D02*
X88812142Y-65506785D01*
X88883571Y-65685357D01*
X88919285Y-65721071D01*
X88990714Y-65756785D01*
X87526428Y-65113928D02*
X87419285Y-65149642D01*
X87383571Y-65185357D01*
X87347857Y-65256785D01*
X87347857Y-65363928D01*
X87383571Y-65435357D01*
X87419285Y-65471071D01*
X87490714Y-65506785D01*
X87776428Y-65506785D01*
X87776428Y-64756785D01*
X87526428Y-64756785D01*
X87455000Y-64792500D01*
X87419285Y-64828214D01*
X87383571Y-64899642D01*
X87383571Y-64971071D01*
X87419285Y-65042500D01*
X87455000Y-65078214D01*
X87526428Y-65113928D01*
X87776428Y-65113928D01*
X86919285Y-65506785D02*
X86990714Y-65471071D01*
X87026428Y-65435357D01*
X87062142Y-65363928D01*
X87062142Y-65149642D01*
X87026428Y-65078214D01*
X86990714Y-65042500D01*
X86919285Y-65006785D01*
X86812142Y-65006785D01*
X86740714Y-65042500D01*
X86705000Y-65078214D01*
X86669285Y-65149642D01*
X86669285Y-65363928D01*
X86705000Y-65435357D01*
X86740714Y-65471071D01*
X86812142Y-65506785D01*
X86919285Y-65506785D01*
X86026428Y-65506785D02*
X86026428Y-65113928D01*
X86062142Y-65042500D01*
X86133571Y-65006785D01*
X86276428Y-65006785D01*
X86347857Y-65042500D01*
X86026428Y-65471071D02*
X86097857Y-65506785D01*
X86276428Y-65506785D01*
X86347857Y-65471071D01*
X86383571Y-65399642D01*
X86383571Y-65328214D01*
X86347857Y-65256785D01*
X86276428Y-65221071D01*
X86097857Y-65221071D01*
X86026428Y-65185357D01*
X85669285Y-65506785D02*
X85669285Y-65006785D01*
X85669285Y-65149642D02*
X85633571Y-65078214D01*
X85597857Y-65042500D01*
X85526428Y-65006785D01*
X85455000Y-65006785D01*
X84883571Y-65506785D02*
X84883571Y-64756785D01*
X84883571Y-65471071D02*
X84955000Y-65506785D01*
X85097857Y-65506785D01*
X85169285Y-65471071D01*
X85205000Y-65435357D01*
X85240714Y-65363928D01*
X85240714Y-65149642D01*
X85205000Y-65078214D01*
X85169285Y-65042500D01*
X85097857Y-65006785D01*
X84955000Y-65006785D01*
X84883571Y-65042500D01*
X84062142Y-64756785D02*
X83812142Y-65506785D01*
X83562142Y-64756785D01*
X83169285Y-64756785D02*
X83097857Y-64756785D01*
X83026428Y-64792500D01*
X82990714Y-64828214D01*
X82955000Y-64899642D01*
X82919285Y-65042500D01*
X82919285Y-65221071D01*
X82955000Y-65363928D01*
X82990714Y-65435357D01*
X83026428Y-65471071D01*
X83097857Y-65506785D01*
X83169285Y-65506785D01*
X83240714Y-65471071D01*
X83276428Y-65435357D01*
X83312142Y-65363928D01*
X83347857Y-65221071D01*
X83347857Y-65042500D01*
X83312142Y-64899642D01*
X83276428Y-64828214D01*
X83240714Y-64792500D01*
X83169285Y-64756785D01*
X82597857Y-65435357D02*
X82562142Y-65471071D01*
X82597857Y-65506785D01*
X82633571Y-65471071D01*
X82597857Y-65435357D01*
X82597857Y-65506785D01*
X82312142Y-64756785D02*
X81847857Y-64756785D01*
X82097857Y-65042500D01*
X81990714Y-65042500D01*
X81919285Y-65078214D01*
X81883571Y-65113928D01*
X81847857Y-65185357D01*
X81847857Y-65363928D01*
X81883571Y-65435357D01*
X81919285Y-65471071D01*
X81990714Y-65506785D01*
X82205000Y-65506785D01*
X82276428Y-65471071D01*
X82312142Y-65435357D01*
X106544285Y-66696071D02*
X106437142Y-66731785D01*
X106258571Y-66731785D01*
X106187142Y-66696071D01*
X106151428Y-66660357D01*
X106115714Y-66588928D01*
X106115714Y-66517500D01*
X106151428Y-66446071D01*
X106187142Y-66410357D01*
X106258571Y-66374642D01*
X106401428Y-66338928D01*
X106472857Y-66303214D01*
X106508571Y-66267500D01*
X106544285Y-66196071D01*
X106544285Y-66124642D01*
X106508571Y-66053214D01*
X106472857Y-66017500D01*
X106401428Y-65981785D01*
X106222857Y-65981785D01*
X106115714Y-66017500D01*
X105508571Y-66696071D02*
X105580000Y-66731785D01*
X105722857Y-66731785D01*
X105794285Y-66696071D01*
X105830000Y-66624642D01*
X105830000Y-66338928D01*
X105794285Y-66267500D01*
X105722857Y-66231785D01*
X105580000Y-66231785D01*
X105508571Y-66267500D01*
X105472857Y-66338928D01*
X105472857Y-66410357D01*
X105830000Y-66481785D01*
X104865714Y-66696071D02*
X104937142Y-66731785D01*
X105080000Y-66731785D01*
X105151428Y-66696071D01*
X105187142Y-66624642D01*
X105187142Y-66338928D01*
X105151428Y-66267500D01*
X105080000Y-66231785D01*
X104937142Y-66231785D01*
X104865714Y-66267500D01*
X104830000Y-66338928D01*
X104830000Y-66410357D01*
X105187142Y-66481785D01*
X104508571Y-66660357D02*
X104472857Y-66696071D01*
X104508571Y-66731785D01*
X104544285Y-66696071D01*
X104508571Y-66660357D01*
X104508571Y-66731785D01*
X104508571Y-66267500D02*
X104472857Y-66303214D01*
X104508571Y-66338928D01*
X104544285Y-66303214D01*
X104508571Y-66267500D01*
X104508571Y-66338928D01*
X103580000Y-66731785D02*
X103580000Y-65981785D01*
X103258571Y-66731785D02*
X103258571Y-66338928D01*
X103294285Y-66267500D01*
X103365714Y-66231785D01*
X103472857Y-66231785D01*
X103544285Y-66267500D01*
X103580000Y-66303214D01*
X103008571Y-66231785D02*
X102722857Y-66231785D01*
X102901428Y-65981785D02*
X102901428Y-66624642D01*
X102865714Y-66696071D01*
X102794285Y-66731785D01*
X102722857Y-66731785D01*
X102580000Y-66231785D02*
X102294285Y-66231785D01*
X102472857Y-65981785D02*
X102472857Y-66624642D01*
X102437142Y-66696071D01*
X102365714Y-66731785D01*
X102294285Y-66731785D01*
X102044285Y-66231785D02*
X102044285Y-66981785D01*
X102044285Y-66267500D02*
X101972857Y-66231785D01*
X101830000Y-66231785D01*
X101758571Y-66267500D01*
X101722857Y-66303214D01*
X101687142Y-66374642D01*
X101687142Y-66588928D01*
X101722857Y-66660357D01*
X101758571Y-66696071D01*
X101830000Y-66731785D01*
X101972857Y-66731785D01*
X102044285Y-66696071D01*
X101401428Y-66696071D02*
X101330000Y-66731785D01*
X101187142Y-66731785D01*
X101115714Y-66696071D01*
X101080000Y-66624642D01*
X101080000Y-66588928D01*
X101115714Y-66517500D01*
X101187142Y-66481785D01*
X101294285Y-66481785D01*
X101365714Y-66446071D01*
X101401428Y-66374642D01*
X101401428Y-66338928D01*
X101365714Y-66267500D01*
X101294285Y-66231785D01*
X101187142Y-66231785D01*
X101115714Y-66267500D01*
X100758571Y-66660357D02*
X100722857Y-66696071D01*
X100758571Y-66731785D01*
X100794285Y-66696071D01*
X100758571Y-66660357D01*
X100758571Y-66731785D01*
X100758571Y-66267500D02*
X100722857Y-66303214D01*
X100758571Y-66338928D01*
X100794285Y-66303214D01*
X100758571Y-66267500D01*
X100758571Y-66338928D01*
X99865714Y-65946071D02*
X100508571Y-66910357D01*
X99079999Y-65946071D02*
X99722857Y-66910357D01*
X98508571Y-66231785D02*
X98508571Y-66838928D01*
X98544285Y-66910357D01*
X98579999Y-66946071D01*
X98651428Y-66981785D01*
X98758571Y-66981785D01*
X98829999Y-66946071D01*
X98508571Y-66696071D02*
X98579999Y-66731785D01*
X98722857Y-66731785D01*
X98794285Y-66696071D01*
X98829999Y-66660357D01*
X98865714Y-66588928D01*
X98865714Y-66374642D01*
X98829999Y-66303214D01*
X98794285Y-66267500D01*
X98722857Y-66231785D01*
X98579999Y-66231785D01*
X98508571Y-66267500D01*
X98151428Y-66731785D02*
X98151428Y-66231785D01*
X98151428Y-65981785D02*
X98187142Y-66017500D01*
X98151428Y-66053214D01*
X98115714Y-66017500D01*
X98151428Y-65981785D01*
X98151428Y-66053214D01*
X97901428Y-66231785D02*
X97615714Y-66231785D01*
X97794285Y-65981785D02*
X97794285Y-66624642D01*
X97758571Y-66696071D01*
X97687142Y-66731785D01*
X97615714Y-66731785D01*
X97365714Y-66731785D02*
X97365714Y-65981785D01*
X97044285Y-66731785D02*
X97044285Y-66338928D01*
X97079999Y-66267500D01*
X97151428Y-66231785D01*
X97258571Y-66231785D01*
X97329999Y-66267500D01*
X97365714Y-66303214D01*
X96365714Y-66231785D02*
X96365714Y-66731785D01*
X96687142Y-66231785D02*
X96687142Y-66624642D01*
X96651428Y-66696071D01*
X96579999Y-66731785D01*
X96472857Y-66731785D01*
X96401428Y-66696071D01*
X96365714Y-66660357D01*
X96008571Y-66731785D02*
X96008571Y-65981785D01*
X96008571Y-66267500D02*
X95937142Y-66231785D01*
X95794285Y-66231785D01*
X95722857Y-66267500D01*
X95687142Y-66303214D01*
X95651428Y-66374642D01*
X95651428Y-66588928D01*
X95687142Y-66660357D01*
X95722857Y-66696071D01*
X95794285Y-66731785D01*
X95937142Y-66731785D01*
X96008571Y-66696071D01*
X95329999Y-66660357D02*
X95294285Y-66696071D01*
X95329999Y-66731785D01*
X95365714Y-66696071D01*
X95329999Y-66660357D01*
X95329999Y-66731785D01*
X94651428Y-66696071D02*
X94722857Y-66731785D01*
X94865714Y-66731785D01*
X94937142Y-66696071D01*
X94972857Y-66660357D01*
X95008571Y-66588928D01*
X95008571Y-66374642D01*
X94972857Y-66303214D01*
X94937142Y-66267500D01*
X94865714Y-66231785D01*
X94722857Y-66231785D01*
X94651428Y-66267500D01*
X94222857Y-66731785D02*
X94294285Y-66696071D01*
X94329999Y-66660357D01*
X94365714Y-66588928D01*
X94365714Y-66374642D01*
X94329999Y-66303214D01*
X94294285Y-66267500D01*
X94222857Y-66231785D01*
X94115714Y-66231785D01*
X94044285Y-66267500D01*
X94008571Y-66303214D01*
X93972857Y-66374642D01*
X93972857Y-66588928D01*
X94008571Y-66660357D01*
X94044285Y-66696071D01*
X94115714Y-66731785D01*
X94222857Y-66731785D01*
X93651428Y-66731785D02*
X93651428Y-66231785D01*
X93651428Y-66303214D02*
X93615714Y-66267500D01*
X93544285Y-66231785D01*
X93437142Y-66231785D01*
X93365714Y-66267500D01*
X93329999Y-66338928D01*
X93329999Y-66731785D01*
X93329999Y-66338928D02*
X93294285Y-66267500D01*
X93222857Y-66231785D01*
X93115714Y-66231785D01*
X93044285Y-66267500D01*
X93008571Y-66338928D01*
X93008571Y-66731785D01*
X92115714Y-65946071D02*
X92758571Y-66910357D01*
X91865714Y-66731785D02*
X91865714Y-65981785D01*
X91437142Y-66731785D02*
X91758571Y-66303214D01*
X91437142Y-65981785D02*
X91865714Y-66410357D01*
X91008571Y-66731785D02*
X91079999Y-66696071D01*
X91115714Y-66660357D01*
X91151428Y-66588928D01*
X91151428Y-66374642D01*
X91115714Y-66303214D01*
X91079999Y-66267500D01*
X91008571Y-66231785D01*
X90901428Y-66231785D01*
X90829999Y-66267500D01*
X90794285Y-66303214D01*
X90758571Y-66374642D01*
X90758571Y-66588928D01*
X90794285Y-66660357D01*
X90829999Y-66696071D01*
X90901428Y-66731785D01*
X91008571Y-66731785D01*
X90472857Y-66696071D02*
X90401428Y-66731785D01*
X90258571Y-66731785D01*
X90187142Y-66696071D01*
X90151428Y-66624642D01*
X90151428Y-66588928D01*
X90187142Y-66517500D01*
X90258571Y-66481785D01*
X90365714Y-66481785D01*
X90437142Y-66446071D01*
X90472857Y-66374642D01*
X90472857Y-66338928D01*
X90437142Y-66267500D01*
X90365714Y-66231785D01*
X90258571Y-66231785D01*
X90187142Y-66267500D01*
X89829999Y-66731785D02*
X89829999Y-65981785D01*
X89508571Y-66731785D02*
X89508571Y-66338928D01*
X89544285Y-66267500D01*
X89615714Y-66231785D01*
X89722857Y-66231785D01*
X89794285Y-66267500D01*
X89829999Y-66303214D01*
X88829999Y-66231785D02*
X88829999Y-66731785D01*
X89008571Y-65946071D02*
X89187142Y-66481785D01*
X88722857Y-66481785D01*
X88472857Y-66053214D02*
X88437142Y-66017500D01*
X88365714Y-65981785D01*
X88187142Y-65981785D01*
X88115714Y-66017500D01*
X88079999Y-66053214D01*
X88044285Y-66124642D01*
X88044285Y-66196071D01*
X88079999Y-66303214D01*
X88508571Y-66731785D01*
X88044285Y-66731785D01*
X87187142Y-65946071D02*
X87829999Y-66910357D01*
X86615714Y-66731785D02*
X86615714Y-66338928D01*
X86651428Y-66267500D01*
X86722857Y-66231785D01*
X86865714Y-66231785D01*
X86937142Y-66267500D01*
X86615714Y-66696071D02*
X86687142Y-66731785D01*
X86865714Y-66731785D01*
X86937142Y-66696071D01*
X86972857Y-66624642D01*
X86972857Y-66553214D01*
X86937142Y-66481785D01*
X86865714Y-66446071D01*
X86687142Y-66446071D01*
X86615714Y-66410357D01*
X86258571Y-66731785D02*
X86258571Y-66231785D01*
X86258571Y-66374642D02*
X86222857Y-66303214D01*
X86187142Y-66267500D01*
X86115714Y-66231785D01*
X86044285Y-66231785D01*
X85472857Y-66731785D02*
X85472857Y-65981785D01*
X85472857Y-66696071D02*
X85544285Y-66731785D01*
X85687142Y-66731785D01*
X85758571Y-66696071D01*
X85794285Y-66660357D01*
X85829999Y-66588928D01*
X85829999Y-66374642D01*
X85794285Y-66303214D01*
X85758571Y-66267500D01*
X85687142Y-66231785D01*
X85544285Y-66231785D01*
X85472857Y-66267500D01*
X84794285Y-66231785D02*
X84794285Y-66731785D01*
X85115714Y-66231785D02*
X85115714Y-66624642D01*
X85079999Y-66696071D01*
X85008571Y-66731785D01*
X84901428Y-66731785D01*
X84829999Y-66696071D01*
X84794285Y-66660357D01*
X84437142Y-66731785D02*
X84437142Y-66231785D01*
X84437142Y-65981785D02*
X84472857Y-66017500D01*
X84437142Y-66053214D01*
X84401428Y-66017500D01*
X84437142Y-65981785D01*
X84437142Y-66053214D01*
X84079999Y-66231785D02*
X84079999Y-66731785D01*
X84079999Y-66303214D02*
X84044285Y-66267500D01*
X83972857Y-66231785D01*
X83865714Y-66231785D01*
X83794285Y-66267500D01*
X83758571Y-66338928D01*
X83758571Y-66731785D01*
X83294285Y-66731785D02*
X83365714Y-66696071D01*
X83401428Y-66660357D01*
X83437142Y-66588928D01*
X83437142Y-66374642D01*
X83401428Y-66303214D01*
X83365714Y-66267500D01*
X83294285Y-66231785D01*
X83187142Y-66231785D01*
X83115714Y-66267500D01*
X83079999Y-66303214D01*
X83044285Y-66374642D01*
X83044285Y-66588928D01*
X83079999Y-66660357D01*
X83115714Y-66696071D01*
X83187142Y-66731785D01*
X83294285Y-66731785D01*
X82187142Y-65946071D02*
X82829999Y-66910357D01*
X82044285Y-66231785D02*
X81758571Y-66231785D01*
X81937142Y-65981785D02*
X81937142Y-66624642D01*
X81901428Y-66696071D01*
X81829999Y-66731785D01*
X81758571Y-66731785D01*
X81508571Y-66731785D02*
X81508571Y-66231785D01*
X81508571Y-66374642D02*
X81472857Y-66303214D01*
X81437142Y-66267500D01*
X81365714Y-66231785D01*
X81294285Y-66231785D01*
X80758571Y-66696071D02*
X80829999Y-66731785D01*
X80972857Y-66731785D01*
X81044285Y-66696071D01*
X81079999Y-66624642D01*
X81079999Y-66338928D01*
X81044285Y-66267500D01*
X80972857Y-66231785D01*
X80829999Y-66231785D01*
X80758571Y-66267500D01*
X80722857Y-66338928D01*
X80722857Y-66410357D01*
X81079999Y-66481785D01*
X80115714Y-66696071D02*
X80187142Y-66731785D01*
X80329999Y-66731785D01*
X80401428Y-66696071D01*
X80437142Y-66624642D01*
X80437142Y-66338928D01*
X80401428Y-66267500D01*
X80329999Y-66231785D01*
X80187142Y-66231785D01*
X80115714Y-66267500D01*
X80079999Y-66338928D01*
X80079999Y-66410357D01*
X80437142Y-66481785D01*
X79222857Y-65946071D02*
X79865714Y-66910357D01*
X78972857Y-66731785D02*
X78972857Y-66231785D01*
X78972857Y-66303214D02*
X78937142Y-66267500D01*
X78865714Y-66231785D01*
X78758571Y-66231785D01*
X78687142Y-66267500D01*
X78651428Y-66338928D01*
X78651428Y-66731785D01*
X78651428Y-66338928D02*
X78615714Y-66267500D01*
X78544285Y-66231785D01*
X78437142Y-66231785D01*
X78365714Y-66267500D01*
X78329999Y-66338928D01*
X78329999Y-66731785D01*
X77651428Y-66731785D02*
X77651428Y-66338928D01*
X77687142Y-66267500D01*
X77758571Y-66231785D01*
X77901428Y-66231785D01*
X77972857Y-66267500D01*
X77651428Y-66696071D02*
X77722857Y-66731785D01*
X77901428Y-66731785D01*
X77972857Y-66696071D01*
X78008571Y-66624642D01*
X78008571Y-66553214D01*
X77972857Y-66481785D01*
X77901428Y-66446071D01*
X77722857Y-66446071D01*
X77651428Y-66410357D01*
X77329999Y-66696071D02*
X77258571Y-66731785D01*
X77115714Y-66731785D01*
X77044285Y-66696071D01*
X77008571Y-66624642D01*
X77008571Y-66588928D01*
X77044285Y-66517500D01*
X77115714Y-66481785D01*
X77222857Y-66481785D01*
X77294285Y-66446071D01*
X77329999Y-66374642D01*
X77329999Y-66338928D01*
X77294285Y-66267500D01*
X77222857Y-66231785D01*
X77115714Y-66231785D01*
X77044285Y-66267500D01*
X76794285Y-66231785D02*
X76508571Y-66231785D01*
X76687142Y-65981785D02*
X76687142Y-66624642D01*
X76651428Y-66696071D01*
X76579999Y-66731785D01*
X76508571Y-66731785D01*
X75972857Y-66696071D02*
X76044285Y-66731785D01*
X76187142Y-66731785D01*
X76258571Y-66696071D01*
X76294285Y-66624642D01*
X76294285Y-66338928D01*
X76258571Y-66267500D01*
X76187142Y-66231785D01*
X76044285Y-66231785D01*
X75972857Y-66267500D01*
X75937142Y-66338928D01*
X75937142Y-66410357D01*
X76294285Y-66481785D01*
X75615714Y-66731785D02*
X75615714Y-66231785D01*
X75615714Y-66374642D02*
X75579999Y-66303214D01*
X75544285Y-66267500D01*
X75472857Y-66231785D01*
X75401428Y-66231785D01*
X74615714Y-65946071D02*
X75258571Y-66910357D01*
X74365714Y-66731785D02*
X74365714Y-65981785D01*
X74187142Y-65981785D01*
X74079999Y-66017500D01*
X74008571Y-66088928D01*
X73972857Y-66160357D01*
X73937142Y-66303214D01*
X73937142Y-66410357D01*
X73972857Y-66553214D01*
X74008571Y-66624642D01*
X74079999Y-66696071D01*
X74187142Y-66731785D01*
X74365714Y-66731785D01*
X73615714Y-66731785D02*
X73615714Y-65981785D01*
X73365714Y-66517500D01*
X73115714Y-65981785D01*
X73115714Y-66731785D01*
X72829999Y-65981785D02*
X72329999Y-66731785D01*
X72329999Y-65981785D02*
X72829999Y-66731785D01*
X72044285Y-66731785D02*
X72044285Y-66231785D01*
X72044285Y-66374642D02*
X72008571Y-66303214D01*
X71972857Y-66267500D01*
X71901428Y-66231785D01*
X71829999Y-66231785D01*
X71294285Y-66696071D02*
X71365714Y-66731785D01*
X71508571Y-66731785D01*
X71579999Y-66696071D01*
X71615714Y-66624642D01*
X71615714Y-66338928D01*
X71579999Y-66267500D01*
X71508571Y-66231785D01*
X71365714Y-66231785D01*
X71294285Y-66267500D01*
X71258571Y-66338928D01*
X71258571Y-66410357D01*
X71615714Y-66481785D01*
X70829999Y-66731785D02*
X70901428Y-66696071D01*
X70937142Y-66624642D01*
X70937142Y-65981785D01*
X70222857Y-66731785D02*
X70222857Y-66338928D01*
X70258571Y-66267500D01*
X70329999Y-66231785D01*
X70472857Y-66231785D01*
X70544285Y-66267500D01*
X70222857Y-66696071D02*
X70294285Y-66731785D01*
X70472857Y-66731785D01*
X70544285Y-66696071D01*
X70579999Y-66624642D01*
X70579999Y-66553214D01*
X70544285Y-66481785D01*
X70472857Y-66446071D01*
X70294285Y-66446071D01*
X70222857Y-66410357D01*
X69937142Y-66231785D02*
X69758571Y-66731785D01*
X69579999Y-66231785D02*
X69758571Y-66731785D01*
X69829999Y-66910357D01*
X69865714Y-66946071D01*
X69937142Y-66981785D01*
M02*
