%TF.GenerationSoftware,KiCad,Pcbnew,(5.1.9)-1*%
%TF.CreationDate,2021-02-17T20:09:15+00:00*%
%TF.ProjectId,TMBuck,544d4275-636b-42e6-9b69-6361645f7063,rev?*%
%TF.SameCoordinates,Original*%
%TF.FileFunction,Copper,L1,Top*%
%TF.FilePolarity,Positive*%
%FSLAX46Y46*%
G04 Gerber Fmt 4.6, Leading zero omitted, Abs format (unit mm)*
G04 Created by KiCad (PCBNEW (5.1.9)-1) date 2021-02-17 20:09:15*
%MOMM*%
%LPD*%
G01*
G04 APERTURE LIST*
%TA.AperFunction,ComponentPad*%
%ADD10C,1.600000*%
%TD*%
%TA.AperFunction,ComponentPad*%
%ADD11R,1.600000X1.600000*%
%TD*%
%TA.AperFunction,ComponentPad*%
%ADD12C,2.000000*%
%TD*%
%TA.AperFunction,ComponentPad*%
%ADD13R,2.000000X2.000000*%
%TD*%
%TA.AperFunction,ComponentPad*%
%ADD14O,1.700000X1.700000*%
%TD*%
%TA.AperFunction,ComponentPad*%
%ADD15R,1.700000X1.700000*%
%TD*%
%TA.AperFunction,SMDPad,CuDef*%
%ADD16R,10.800000X9.400000*%
%TD*%
%TA.AperFunction,SMDPad,CuDef*%
%ADD17R,1.100000X4.600000*%
%TD*%
%TA.AperFunction,SMDPad,CuDef*%
%ADD18R,4.500000X3.300000*%
%TD*%
%TA.AperFunction,ViaPad*%
%ADD19C,0.600000*%
%TD*%
%TA.AperFunction,ViaPad*%
%ADD20C,0.900000*%
%TD*%
%TA.AperFunction,Conductor*%
%ADD21C,1.500000*%
%TD*%
%TA.AperFunction,Conductor*%
%ADD22C,3.000000*%
%TD*%
%TA.AperFunction,Conductor*%
%ADD23C,0.254000*%
%TD*%
%TA.AperFunction,Conductor*%
%ADD24C,0.100000*%
%TD*%
G04 APERTURE END LIST*
D10*
%TO.P,C1,2*%
%TO.N,GND*%
X113390000Y-87470000D03*
D11*
%TO.P,C1,1*%
%TO.N,VCC*%
X115390000Y-87470000D03*
%TD*%
D12*
%TO.P,C2,2*%
%TO.N,GND*%
X114140000Y-96040000D03*
D13*
%TO.P,C2,1*%
%TO.N,+5V*%
X119140000Y-96040000D03*
%TD*%
D14*
%TO.P,J1,3*%
%TO.N,VCC*%
X115775000Y-104610000D03*
%TO.P,J1,2*%
%TO.N,GND*%
X118315000Y-104610000D03*
D15*
%TO.P,J1,1*%
%TO.N,+5V*%
X120855000Y-104610000D03*
%TD*%
D16*
%TO.P,U1,3*%
%TO.N,GND*%
X119580000Y-72295000D03*
D17*
%TO.P,U1,5*%
X122980000Y-81445000D03*
%TO.P,U1,4*%
%TO.N,+5V*%
X121280000Y-81445000D03*
%TO.P,U1,3*%
%TO.N,GND*%
X119580000Y-81445000D03*
%TO.P,U1,2*%
%TO.N,Net-(D1-Pad1)*%
X117880000Y-81445000D03*
%TO.P,U1,1*%
%TO.N,VCC*%
X116180000Y-81445000D03*
%TD*%
D12*
%TO.P,L1,2*%
%TO.N,Net-(D1-Pad1)*%
X119170000Y-87840000D03*
%TO.P,L1,1*%
%TO.N,+5V*%
X123170000Y-87840000D03*
%TD*%
D18*
%TO.P,D1,2*%
%TO.N,GND*%
X113930000Y-63650000D03*
%TO.P,D1,1*%
%TO.N,Net-(D1-Pad1)*%
X122730000Y-63650000D03*
%TD*%
D19*
%TO.N,GND*%
X113120000Y-61290000D03*
X115660000Y-61290000D03*
X118200000Y-61290000D03*
X120740000Y-61290000D03*
X123280000Y-61290000D03*
X118120000Y-66160000D03*
X113610000Y-66120000D03*
X120375000Y-66160000D03*
X115865000Y-66160000D03*
X122630000Y-66160000D03*
X114140000Y-77980000D03*
X116200000Y-77970000D03*
X119850000Y-77990000D03*
X121760000Y-77980000D03*
X124300000Y-77980000D03*
X113200000Y-69280000D03*
X113200000Y-71820000D03*
X113200000Y-74360000D03*
X113200000Y-76900000D03*
D20*
%TO.N,Net-(D1-Pad1)*%
X117880000Y-78430000D03*
X124433940Y-66630000D03*
%TD*%
D21*
%TO.N,VCC*%
X115390000Y-87470000D02*
X116560000Y-88640000D01*
X116560000Y-103825000D02*
X115775000Y-104610000D01*
X116560000Y-88640000D02*
X116560000Y-103825000D01*
X116180000Y-86680000D02*
X115390000Y-87470000D01*
X116180000Y-81445000D02*
X116180000Y-86680000D01*
X116180000Y-88260000D02*
X116180000Y-86680000D01*
X116560000Y-88640000D02*
X116180000Y-88260000D01*
%TO.N,+5V*%
X121280000Y-85950000D02*
X123170000Y-87840000D01*
X121280000Y-81445000D02*
X121280000Y-85950000D01*
D22*
X120855000Y-97755000D02*
X120855000Y-104610000D01*
X119140000Y-96040000D02*
X120855000Y-97755000D01*
X121431601Y-86101601D02*
X121431601Y-85372001D01*
X123170000Y-87840000D02*
X121431601Y-86101601D01*
X123170000Y-92010000D02*
X121570000Y-93610000D01*
X123170000Y-87840000D02*
X123170000Y-92010000D01*
X121570000Y-93610000D02*
X119140000Y-96040000D01*
X120855000Y-94325000D02*
X121570000Y-93610000D01*
X120855000Y-97755000D02*
X120855000Y-94325000D01*
D21*
%TO.N,Net-(D1-Pad1)*%
X117880000Y-81445000D02*
X117880000Y-78430000D01*
X117880000Y-78430000D02*
X117880000Y-78430000D01*
X124433940Y-65353940D02*
X122730000Y-63650000D01*
X124433940Y-66630000D02*
X124433940Y-65353940D01*
X117880000Y-86550000D02*
X117880000Y-81445000D01*
X119170000Y-87840000D02*
X117880000Y-86550000D01*
%TD*%
D23*
%TO.N,GND*%
X118720000Y-98639346D02*
X118720001Y-103468380D01*
X118563000Y-103504731D01*
X118563000Y-104362000D01*
X118583000Y-104362000D01*
X118583000Y-104858000D01*
X118563000Y-104858000D01*
X118563000Y-105715269D01*
X118747930Y-105758086D01*
X118820698Y-105727957D01*
X118982004Y-105634961D01*
X119071224Y-105801881D01*
X119338024Y-106126977D01*
X119663120Y-106393777D01*
X120034019Y-106592026D01*
X120436468Y-106714108D01*
X120855000Y-106755330D01*
X121273533Y-106714108D01*
X121675982Y-106592026D01*
X122046881Y-106393777D01*
X122065950Y-106378127D01*
X122065950Y-108475950D01*
X114584050Y-108475950D01*
X114584050Y-105500547D01*
X114621525Y-105556632D01*
X114828368Y-105763475D01*
X115071589Y-105925990D01*
X115341842Y-106037932D01*
X115628740Y-106095000D01*
X115921260Y-106095000D01*
X116208158Y-106037932D01*
X116478411Y-105925990D01*
X116721632Y-105763475D01*
X116928475Y-105556632D01*
X117090990Y-105313411D01*
X117133922Y-105209763D01*
X117211157Y-105132528D01*
X117273424Y-105258596D01*
X117419972Y-105449335D01*
X117600916Y-105607819D01*
X117809302Y-105727957D01*
X117882070Y-105758086D01*
X118067000Y-105715269D01*
X118067000Y-104858000D01*
X118047000Y-104858000D01*
X118047000Y-104362000D01*
X118067000Y-104362000D01*
X118067000Y-103504731D01*
X117945000Y-103476484D01*
X117945000Y-97864345D01*
X118720000Y-98639346D01*
%TA.AperFunction,Conductor*%
D24*
G36*
X118720000Y-98639346D02*
G01*
X118720001Y-103468380D01*
X118563000Y-103504731D01*
X118563000Y-104362000D01*
X118583000Y-104362000D01*
X118583000Y-104858000D01*
X118563000Y-104858000D01*
X118563000Y-105715269D01*
X118747930Y-105758086D01*
X118820698Y-105727957D01*
X118982004Y-105634961D01*
X119071224Y-105801881D01*
X119338024Y-106126977D01*
X119663120Y-106393777D01*
X120034019Y-106592026D01*
X120436468Y-106714108D01*
X120855000Y-106755330D01*
X121273533Y-106714108D01*
X121675982Y-106592026D01*
X122046881Y-106393777D01*
X122065950Y-106378127D01*
X122065950Y-108475950D01*
X114584050Y-108475950D01*
X114584050Y-105500547D01*
X114621525Y-105556632D01*
X114828368Y-105763475D01*
X115071589Y-105925990D01*
X115341842Y-106037932D01*
X115628740Y-106095000D01*
X115921260Y-106095000D01*
X116208158Y-106037932D01*
X116478411Y-105925990D01*
X116721632Y-105763475D01*
X116928475Y-105556632D01*
X117090990Y-105313411D01*
X117133922Y-105209763D01*
X117211157Y-105132528D01*
X117273424Y-105258596D01*
X117419972Y-105449335D01*
X117600916Y-105607819D01*
X117809302Y-105727957D01*
X117882070Y-105758086D01*
X118067000Y-105715269D01*
X118067000Y-104858000D01*
X118047000Y-104858000D01*
X118047000Y-104362000D01*
X118067000Y-104362000D01*
X118067000Y-103504731D01*
X117945000Y-103476484D01*
X117945000Y-97864345D01*
X118720000Y-98639346D01*
G37*
%TD.AperFunction*%
D23*
X124675950Y-61361928D02*
X120480000Y-61361928D01*
X120355518Y-61374188D01*
X120235820Y-61410498D01*
X120125506Y-61469463D01*
X120028815Y-61548815D01*
X119949463Y-61645506D01*
X119890498Y-61755820D01*
X119854188Y-61875518D01*
X119841928Y-62000000D01*
X119841928Y-65300000D01*
X119854188Y-65424482D01*
X119890498Y-65544180D01*
X119949463Y-65654494D01*
X120028815Y-65751185D01*
X120125506Y-65830537D01*
X120235820Y-65889502D01*
X120355518Y-65925812D01*
X120480000Y-65938072D01*
X123048940Y-65938072D01*
X123048940Y-66698036D01*
X123068980Y-66901506D01*
X123148176Y-67162580D01*
X123276783Y-67403187D01*
X123449859Y-67614080D01*
X123660752Y-67787157D01*
X123901359Y-67915764D01*
X124162433Y-67994960D01*
X124433940Y-68021701D01*
X124675950Y-67997865D01*
X124675951Y-86313974D01*
X124605513Y-86256167D01*
X123561153Y-85211808D01*
X123535709Y-84953469D01*
X123413627Y-84551020D01*
X123215378Y-84180120D01*
X122948578Y-83855024D01*
X122665000Y-83622297D01*
X122665000Y-81376963D01*
X122644960Y-81173493D01*
X122565764Y-80912419D01*
X122468072Y-80729650D01*
X122468072Y-79145000D01*
X122455812Y-79020518D01*
X122419502Y-78900820D01*
X122360537Y-78790506D01*
X122281185Y-78693815D01*
X122184494Y-78614463D01*
X122074180Y-78555498D01*
X121954482Y-78519188D01*
X121830000Y-78506928D01*
X120730000Y-78506928D01*
X120605518Y-78519188D01*
X120485820Y-78555498D01*
X120375506Y-78614463D01*
X120278815Y-78693815D01*
X120199463Y-78790506D01*
X120140498Y-78900820D01*
X120104188Y-79020518D01*
X120091928Y-79145000D01*
X120091928Y-80729651D01*
X119994236Y-80912420D01*
X119915040Y-81173494D01*
X119895000Y-81376964D01*
X119895001Y-83878936D01*
X119647825Y-84180120D01*
X119449575Y-84551019D01*
X119327493Y-84953468D01*
X119296601Y-85267119D01*
X119296601Y-85996729D01*
X119295598Y-86006913D01*
X119265000Y-85976315D01*
X119265000Y-78498037D01*
X119271701Y-78430000D01*
X119244960Y-78158493D01*
X119165764Y-77897419D01*
X119037157Y-77656812D01*
X118864081Y-77445919D01*
X118653188Y-77272843D01*
X118412581Y-77144236D01*
X118151507Y-77065040D01*
X117948037Y-77045000D01*
X117880000Y-77038299D01*
X117811964Y-77045000D01*
X117811963Y-77045000D01*
X117608493Y-77065040D01*
X117347419Y-77144236D01*
X117106812Y-77272843D01*
X116895919Y-77445919D01*
X116722843Y-77656812D01*
X116594236Y-77897419D01*
X116515040Y-78158493D01*
X116488299Y-78430000D01*
X116495001Y-78498046D01*
X116495001Y-78506928D01*
X115630000Y-78506928D01*
X115505518Y-78519188D01*
X115385820Y-78555498D01*
X115275506Y-78614463D01*
X115178815Y-78693815D01*
X115099463Y-78790506D01*
X115040498Y-78900820D01*
X115004188Y-79020518D01*
X114991928Y-79145000D01*
X114991928Y-80729651D01*
X114894236Y-80912420D01*
X114815040Y-81173494D01*
X114795000Y-81376964D01*
X114795001Y-86031928D01*
X114590000Y-86031928D01*
X114465518Y-86044188D01*
X114345820Y-86080498D01*
X114235506Y-86139463D01*
X114138815Y-86218815D01*
X114059463Y-86315506D01*
X114000498Y-86425820D01*
X113964377Y-86544896D01*
X113964039Y-86545234D01*
X113869079Y-86388681D01*
X113648918Y-86315995D01*
X113418808Y-86287656D01*
X113187591Y-86304754D01*
X112964152Y-86366632D01*
X112910921Y-86388681D01*
X112815960Y-86545235D01*
X113390000Y-87119275D01*
X113404143Y-87105133D01*
X113754868Y-87455858D01*
X113740725Y-87470000D01*
X113754868Y-87484143D01*
X113404143Y-87834868D01*
X113390000Y-87820725D01*
X112815960Y-88394765D01*
X112910921Y-88551319D01*
X113131082Y-88624005D01*
X113361192Y-88652344D01*
X113592409Y-88635246D01*
X113815848Y-88573368D01*
X113869079Y-88551319D01*
X113964039Y-88394766D01*
X113964377Y-88395104D01*
X114000498Y-88514180D01*
X114059463Y-88624494D01*
X114138815Y-88721185D01*
X114235506Y-88800537D01*
X114345820Y-88859502D01*
X114465518Y-88895812D01*
X114590000Y-88908072D01*
X114869387Y-88908072D01*
X115152553Y-89191239D01*
X115175000Y-89218590D01*
X115175000Y-95355725D01*
X114490725Y-96040000D01*
X115175001Y-96724276D01*
X115175001Y-103251176D01*
X115071589Y-103294010D01*
X114828368Y-103456525D01*
X114621525Y-103663368D01*
X114584050Y-103719453D01*
X114584050Y-102822117D01*
X114587213Y-102790000D01*
X114584050Y-102757883D01*
X114584050Y-102757875D01*
X114574586Y-102661784D01*
X114537187Y-102538495D01*
X114476453Y-102424871D01*
X114468246Y-102414871D01*
X114415199Y-102350232D01*
X114415192Y-102350225D01*
X114394720Y-102325280D01*
X114369776Y-102304809D01*
X111964050Y-99899085D01*
X111964050Y-97110092D01*
X113420633Y-97110092D01*
X113540509Y-97287051D01*
X113795316Y-97380044D01*
X114063369Y-97421540D01*
X114334367Y-97409944D01*
X114597895Y-97345702D01*
X114739491Y-97287051D01*
X114859367Y-97110092D01*
X114140000Y-96390725D01*
X113420633Y-97110092D01*
X111964050Y-97110092D01*
X111964050Y-95963369D01*
X112758460Y-95963369D01*
X112770056Y-96234367D01*
X112834298Y-96497895D01*
X112892949Y-96639491D01*
X113069908Y-96759367D01*
X113789275Y-96040000D01*
X113069908Y-95320633D01*
X112892949Y-95440509D01*
X112799956Y-95695316D01*
X112758460Y-95963369D01*
X111964050Y-95963369D01*
X111964050Y-94969908D01*
X113420633Y-94969908D01*
X114140000Y-95689275D01*
X114859367Y-94969908D01*
X114739491Y-94792949D01*
X114484684Y-94699956D01*
X114216631Y-94658460D01*
X113945633Y-94670056D01*
X113682105Y-94734298D01*
X113540509Y-94792949D01*
X113420633Y-94969908D01*
X111964050Y-94969908D01*
X111964050Y-87441192D01*
X112207656Y-87441192D01*
X112224754Y-87672409D01*
X112286632Y-87895848D01*
X112308681Y-87949079D01*
X112465235Y-88044040D01*
X113039275Y-87470000D01*
X112465235Y-86895960D01*
X112308681Y-86990921D01*
X112235995Y-87211082D01*
X112207656Y-87441192D01*
X111964050Y-87441192D01*
X111964050Y-60854050D01*
X124675950Y-60854050D01*
X124675950Y-61361928D01*
%TA.AperFunction,Conductor*%
D24*
G36*
X124675950Y-61361928D02*
G01*
X120480000Y-61361928D01*
X120355518Y-61374188D01*
X120235820Y-61410498D01*
X120125506Y-61469463D01*
X120028815Y-61548815D01*
X119949463Y-61645506D01*
X119890498Y-61755820D01*
X119854188Y-61875518D01*
X119841928Y-62000000D01*
X119841928Y-65300000D01*
X119854188Y-65424482D01*
X119890498Y-65544180D01*
X119949463Y-65654494D01*
X120028815Y-65751185D01*
X120125506Y-65830537D01*
X120235820Y-65889502D01*
X120355518Y-65925812D01*
X120480000Y-65938072D01*
X123048940Y-65938072D01*
X123048940Y-66698036D01*
X123068980Y-66901506D01*
X123148176Y-67162580D01*
X123276783Y-67403187D01*
X123449859Y-67614080D01*
X123660752Y-67787157D01*
X123901359Y-67915764D01*
X124162433Y-67994960D01*
X124433940Y-68021701D01*
X124675950Y-67997865D01*
X124675951Y-86313974D01*
X124605513Y-86256167D01*
X123561153Y-85211808D01*
X123535709Y-84953469D01*
X123413627Y-84551020D01*
X123215378Y-84180120D01*
X122948578Y-83855024D01*
X122665000Y-83622297D01*
X122665000Y-81376963D01*
X122644960Y-81173493D01*
X122565764Y-80912419D01*
X122468072Y-80729650D01*
X122468072Y-79145000D01*
X122455812Y-79020518D01*
X122419502Y-78900820D01*
X122360537Y-78790506D01*
X122281185Y-78693815D01*
X122184494Y-78614463D01*
X122074180Y-78555498D01*
X121954482Y-78519188D01*
X121830000Y-78506928D01*
X120730000Y-78506928D01*
X120605518Y-78519188D01*
X120485820Y-78555498D01*
X120375506Y-78614463D01*
X120278815Y-78693815D01*
X120199463Y-78790506D01*
X120140498Y-78900820D01*
X120104188Y-79020518D01*
X120091928Y-79145000D01*
X120091928Y-80729651D01*
X119994236Y-80912420D01*
X119915040Y-81173494D01*
X119895000Y-81376964D01*
X119895001Y-83878936D01*
X119647825Y-84180120D01*
X119449575Y-84551019D01*
X119327493Y-84953468D01*
X119296601Y-85267119D01*
X119296601Y-85996729D01*
X119295598Y-86006913D01*
X119265000Y-85976315D01*
X119265000Y-78498037D01*
X119271701Y-78430000D01*
X119244960Y-78158493D01*
X119165764Y-77897419D01*
X119037157Y-77656812D01*
X118864081Y-77445919D01*
X118653188Y-77272843D01*
X118412581Y-77144236D01*
X118151507Y-77065040D01*
X117948037Y-77045000D01*
X117880000Y-77038299D01*
X117811964Y-77045000D01*
X117811963Y-77045000D01*
X117608493Y-77065040D01*
X117347419Y-77144236D01*
X117106812Y-77272843D01*
X116895919Y-77445919D01*
X116722843Y-77656812D01*
X116594236Y-77897419D01*
X116515040Y-78158493D01*
X116488299Y-78430000D01*
X116495001Y-78498046D01*
X116495001Y-78506928D01*
X115630000Y-78506928D01*
X115505518Y-78519188D01*
X115385820Y-78555498D01*
X115275506Y-78614463D01*
X115178815Y-78693815D01*
X115099463Y-78790506D01*
X115040498Y-78900820D01*
X115004188Y-79020518D01*
X114991928Y-79145000D01*
X114991928Y-80729651D01*
X114894236Y-80912420D01*
X114815040Y-81173494D01*
X114795000Y-81376964D01*
X114795001Y-86031928D01*
X114590000Y-86031928D01*
X114465518Y-86044188D01*
X114345820Y-86080498D01*
X114235506Y-86139463D01*
X114138815Y-86218815D01*
X114059463Y-86315506D01*
X114000498Y-86425820D01*
X113964377Y-86544896D01*
X113964039Y-86545234D01*
X113869079Y-86388681D01*
X113648918Y-86315995D01*
X113418808Y-86287656D01*
X113187591Y-86304754D01*
X112964152Y-86366632D01*
X112910921Y-86388681D01*
X112815960Y-86545235D01*
X113390000Y-87119275D01*
X113404143Y-87105133D01*
X113754868Y-87455858D01*
X113740725Y-87470000D01*
X113754868Y-87484143D01*
X113404143Y-87834868D01*
X113390000Y-87820725D01*
X112815960Y-88394765D01*
X112910921Y-88551319D01*
X113131082Y-88624005D01*
X113361192Y-88652344D01*
X113592409Y-88635246D01*
X113815848Y-88573368D01*
X113869079Y-88551319D01*
X113964039Y-88394766D01*
X113964377Y-88395104D01*
X114000498Y-88514180D01*
X114059463Y-88624494D01*
X114138815Y-88721185D01*
X114235506Y-88800537D01*
X114345820Y-88859502D01*
X114465518Y-88895812D01*
X114590000Y-88908072D01*
X114869387Y-88908072D01*
X115152553Y-89191239D01*
X115175000Y-89218590D01*
X115175000Y-95355725D01*
X114490725Y-96040000D01*
X115175001Y-96724276D01*
X115175001Y-103251176D01*
X115071589Y-103294010D01*
X114828368Y-103456525D01*
X114621525Y-103663368D01*
X114584050Y-103719453D01*
X114584050Y-102822117D01*
X114587213Y-102790000D01*
X114584050Y-102757883D01*
X114584050Y-102757875D01*
X114574586Y-102661784D01*
X114537187Y-102538495D01*
X114476453Y-102424871D01*
X114468246Y-102414871D01*
X114415199Y-102350232D01*
X114415192Y-102350225D01*
X114394720Y-102325280D01*
X114369776Y-102304809D01*
X111964050Y-99899085D01*
X111964050Y-97110092D01*
X113420633Y-97110092D01*
X113540509Y-97287051D01*
X113795316Y-97380044D01*
X114063369Y-97421540D01*
X114334367Y-97409944D01*
X114597895Y-97345702D01*
X114739491Y-97287051D01*
X114859367Y-97110092D01*
X114140000Y-96390725D01*
X113420633Y-97110092D01*
X111964050Y-97110092D01*
X111964050Y-95963369D01*
X112758460Y-95963369D01*
X112770056Y-96234367D01*
X112834298Y-96497895D01*
X112892949Y-96639491D01*
X113069908Y-96759367D01*
X113789275Y-96040000D01*
X113069908Y-95320633D01*
X112892949Y-95440509D01*
X112799956Y-95695316D01*
X112758460Y-95963369D01*
X111964050Y-95963369D01*
X111964050Y-94969908D01*
X113420633Y-94969908D01*
X114140000Y-95689275D01*
X114859367Y-94969908D01*
X114739491Y-94792949D01*
X114484684Y-94699956D01*
X114216631Y-94658460D01*
X113945633Y-94670056D01*
X113682105Y-94734298D01*
X113540509Y-94792949D01*
X113420633Y-94969908D01*
X111964050Y-94969908D01*
X111964050Y-87441192D01*
X112207656Y-87441192D01*
X112224754Y-87672409D01*
X112286632Y-87895848D01*
X112308681Y-87949079D01*
X112465235Y-88044040D01*
X113039275Y-87470000D01*
X112465235Y-86895960D01*
X112308681Y-86990921D01*
X112235995Y-87211082D01*
X112207656Y-87441192D01*
X111964050Y-87441192D01*
X111964050Y-60854050D01*
X124675950Y-60854050D01*
X124675950Y-61361928D01*
G37*
%TD.AperFunction*%
%TD*%
M02*
