M48
; DRILL file {KiCad (5.1.9)-1} date 02/17/21 20:09:18
; FORMAT={-:-/ absolute / metric / decimal}
; #@! TF.CreationDate,2021-02-17T20:09:18+00:00
; #@! TF.GenerationSoftware,Kicad,Pcbnew,(5.1.9)-1
; #@! TF.FileFunction,Plated,1,2,PTH
FMAT,2
METRIC
T1C0.300
T2C0.400
T3C0.800
T4C1.000
%
G90
G05
T1
X113.12Y-61.29
X113.2Y-69.28
X113.2Y-71.82
X113.2Y-74.36
X113.2Y-76.9
X113.61Y-66.12
X114.14Y-77.98
X115.66Y-61.29
X115.865Y-66.16
X116.2Y-77.97
X118.12Y-66.16
X118.2Y-61.29
X119.85Y-77.99
X120.375Y-66.16
X120.74Y-61.29
X121.76Y-77.98
X122.63Y-66.16
X123.28Y-61.29
X124.3Y-77.98
T2
X117.88Y-78.43
X124.434Y-66.63
T3
X113.39Y-87.47
X115.39Y-87.47
T4
X114.14Y-96.04
X115.775Y-104.61
X118.315Y-104.61
X119.14Y-96.04
X119.17Y-87.84
X120.855Y-104.61
X123.17Y-87.84
T0
M30
