%TF.GenerationSoftware,KiCad,Pcbnew,(5.1.9)-1*%
%TF.CreationDate,2021-02-17T20:09:15+00:00*%
%TF.ProjectId,TMBuck,544d4275-636b-42e6-9b69-6361645f7063,rev?*%
%TF.SameCoordinates,Original*%
%TF.FileFunction,Legend,Bot*%
%TF.FilePolarity,Positive*%
%FSLAX46Y46*%
G04 Gerber Fmt 4.6, Leading zero omitted, Abs format (unit mm)*
G04 Created by KiCad (PCBNEW (5.1.9)-1) date 2021-02-17 20:09:15*
%MOMM*%
%LPD*%
G01*
G04 APERTURE LIST*
%ADD10C,0.750000*%
G04 APERTURE END LIST*
D10*
X114912142Y-73185714D02*
X114912142Y-71757142D01*
X116340714Y-71614285D01*
X116197857Y-71757142D01*
X116055000Y-72042857D01*
X116055000Y-72757142D01*
X116197857Y-73042857D01*
X116340714Y-73185714D01*
X116626428Y-73328571D01*
X117340714Y-73328571D01*
X117626428Y-73185714D01*
X117769285Y-73042857D01*
X117912142Y-72757142D01*
X117912142Y-72042857D01*
X117769285Y-71757142D01*
X117626428Y-71614285D01*
X114912142Y-74185714D02*
X117912142Y-75185714D01*
X114912142Y-76185714D01*
X120162142Y-67185714D02*
X120162142Y-69042857D01*
X121305000Y-68042857D01*
X121305000Y-68471428D01*
X121447857Y-68757142D01*
X121590714Y-68900000D01*
X121876428Y-69042857D01*
X122590714Y-69042857D01*
X122876428Y-68900000D01*
X123019285Y-68757142D01*
X123162142Y-68471428D01*
X123162142Y-67614285D01*
X123019285Y-67328571D01*
X122876428Y-67185714D01*
X122305000Y-70185714D02*
X122305000Y-71614285D01*
X123162142Y-69900000D02*
X120162142Y-70900000D01*
X123162142Y-71900000D01*
X123162142Y-75185714D02*
X120162142Y-75185714D01*
X122305000Y-76185714D01*
X120162142Y-77185714D01*
X123162142Y-77185714D01*
X123162142Y-79899999D02*
X121590714Y-79899999D01*
X121305000Y-79757142D01*
X121162142Y-79471428D01*
X121162142Y-78899999D01*
X121305000Y-78614285D01*
X123019285Y-79899999D02*
X123162142Y-79614285D01*
X123162142Y-78899999D01*
X123019285Y-78614285D01*
X122733571Y-78471428D01*
X122447857Y-78471428D01*
X122162142Y-78614285D01*
X122019285Y-78899999D01*
X122019285Y-79614285D01*
X121876428Y-79899999D01*
X123162142Y-81042857D02*
X121162142Y-82614285D01*
X121162142Y-81042857D02*
X123162142Y-82614285D01*
M02*
