%TF.GenerationSoftware,KiCad,Pcbnew,(5.1.9)-1*%
%TF.CreationDate,2021-02-17T20:09:15+00:00*%
%TF.ProjectId,TMBuck,544d4275-636b-42e6-9b69-6361645f7063,rev?*%
%TF.SameCoordinates,Original*%
%TF.FileFunction,Legend,Top*%
%TF.FilePolarity,Positive*%
%FSLAX46Y46*%
G04 Gerber Fmt 4.6, Leading zero omitted, Abs format (unit mm)*
G04 Created by KiCad (PCBNEW (5.1.9)-1) date 2021-02-17 20:09:15*
%MOMM*%
%LPD*%
G01*
G04 APERTURE LIST*
%ADD10C,0.250000*%
%ADD11C,0.150000*%
%ADD12C,0.120000*%
%ADD13C,0.100000*%
G04 APERTURE END LIST*
D10*
X119890000Y-65820000D02*
X119890000Y-61510000D01*
D11*
X120509762Y-101582380D02*
X120700238Y-101582380D01*
X120795476Y-101630000D01*
X120890715Y-101725238D01*
X120938334Y-101915714D01*
X120938334Y-102249047D01*
X120890715Y-102439523D01*
X120795476Y-102534761D01*
X120700238Y-102582380D01*
X120509762Y-102582380D01*
X120414524Y-102534761D01*
X120319286Y-102439523D01*
X120271667Y-102249047D01*
X120271667Y-101915714D01*
X120319286Y-101725238D01*
X120414524Y-101630000D01*
X120509762Y-101582380D01*
X121795476Y-101915714D02*
X121795476Y-102582380D01*
X121366905Y-101915714D02*
X121366905Y-102439523D01*
X121414524Y-102534761D01*
X121509762Y-102582380D01*
X121652619Y-102582380D01*
X121747857Y-102534761D01*
X121795476Y-102487142D01*
X122128810Y-101915714D02*
X122509762Y-101915714D01*
X122271667Y-101582380D02*
X122271667Y-102439523D01*
X122319286Y-102534761D01*
X122414524Y-102582380D01*
X122509762Y-102582380D01*
X114293094Y-102582380D02*
X114293094Y-101582380D01*
X114769284Y-101915714D02*
X114769284Y-102582380D01*
X114769284Y-102010952D02*
X114816903Y-101963333D01*
X114912141Y-101915714D01*
X115054998Y-101915714D01*
X115150236Y-101963333D01*
X115197855Y-102058571D01*
X115197855Y-102582380D01*
D12*
%TO.C,C1*%
X117010000Y-87470000D02*
G75*
G03*
X117010000Y-87470000I-2620000J0D01*
G01*
X114390000Y-86430000D02*
X114390000Y-84890000D01*
X114390000Y-90050000D02*
X114390000Y-88510000D01*
X114350000Y-86430000D02*
X114350000Y-84890000D01*
X114350000Y-90050000D02*
X114350000Y-88510000D01*
X114310000Y-90049000D02*
X114310000Y-88510000D01*
X114310000Y-86430000D02*
X114310000Y-84891000D01*
X114270000Y-90048000D02*
X114270000Y-88510000D01*
X114270000Y-86430000D02*
X114270000Y-84892000D01*
X114230000Y-90046000D02*
X114230000Y-88510000D01*
X114230000Y-86430000D02*
X114230000Y-84894000D01*
X114190000Y-90043000D02*
X114190000Y-88510000D01*
X114190000Y-86430000D02*
X114190000Y-84897000D01*
X114150000Y-90039000D02*
X114150000Y-88510000D01*
X114150000Y-86430000D02*
X114150000Y-84901000D01*
X114110000Y-90035000D02*
X114110000Y-88510000D01*
X114110000Y-86430000D02*
X114110000Y-84905000D01*
X114070000Y-90031000D02*
X114070000Y-88510000D01*
X114070000Y-86430000D02*
X114070000Y-84909000D01*
X114030000Y-90026000D02*
X114030000Y-88510000D01*
X114030000Y-86430000D02*
X114030000Y-84914000D01*
X113990000Y-90020000D02*
X113990000Y-88510000D01*
X113990000Y-86430000D02*
X113990000Y-84920000D01*
X113950000Y-90013000D02*
X113950000Y-88510000D01*
X113950000Y-86430000D02*
X113950000Y-84927000D01*
X113910000Y-90006000D02*
X113910000Y-88510000D01*
X113910000Y-86430000D02*
X113910000Y-84934000D01*
X113870000Y-89998000D02*
X113870000Y-88510000D01*
X113870000Y-86430000D02*
X113870000Y-84942000D01*
X113830000Y-89990000D02*
X113830000Y-88510000D01*
X113830000Y-86430000D02*
X113830000Y-84950000D01*
X113790000Y-89981000D02*
X113790000Y-88510000D01*
X113790000Y-86430000D02*
X113790000Y-84959000D01*
X113750000Y-89971000D02*
X113750000Y-88510000D01*
X113750000Y-86430000D02*
X113750000Y-84969000D01*
X113710000Y-89961000D02*
X113710000Y-88510000D01*
X113710000Y-86430000D02*
X113710000Y-84979000D01*
X113669000Y-89950000D02*
X113669000Y-88510000D01*
X113669000Y-86430000D02*
X113669000Y-84990000D01*
X113629000Y-89938000D02*
X113629000Y-88510000D01*
X113629000Y-86430000D02*
X113629000Y-85002000D01*
X113589000Y-89925000D02*
X113589000Y-88510000D01*
X113589000Y-86430000D02*
X113589000Y-85015000D01*
X113549000Y-89912000D02*
X113549000Y-88510000D01*
X113549000Y-86430000D02*
X113549000Y-85028000D01*
X113509000Y-89898000D02*
X113509000Y-88510000D01*
X113509000Y-86430000D02*
X113509000Y-85042000D01*
X113469000Y-89884000D02*
X113469000Y-88510000D01*
X113469000Y-86430000D02*
X113469000Y-85056000D01*
X113429000Y-89868000D02*
X113429000Y-88510000D01*
X113429000Y-86430000D02*
X113429000Y-85072000D01*
X113389000Y-89852000D02*
X113389000Y-88510000D01*
X113389000Y-86430000D02*
X113389000Y-85088000D01*
X113349000Y-89835000D02*
X113349000Y-88510000D01*
X113349000Y-86430000D02*
X113349000Y-85105000D01*
X113309000Y-89818000D02*
X113309000Y-88510000D01*
X113309000Y-86430000D02*
X113309000Y-85122000D01*
X113269000Y-89799000D02*
X113269000Y-88510000D01*
X113269000Y-86430000D02*
X113269000Y-85141000D01*
X113229000Y-89780000D02*
X113229000Y-88510000D01*
X113229000Y-86430000D02*
X113229000Y-85160000D01*
X113189000Y-89760000D02*
X113189000Y-88510000D01*
X113189000Y-86430000D02*
X113189000Y-85180000D01*
X113149000Y-89738000D02*
X113149000Y-88510000D01*
X113149000Y-86430000D02*
X113149000Y-85202000D01*
X113109000Y-89717000D02*
X113109000Y-88510000D01*
X113109000Y-86430000D02*
X113109000Y-85223000D01*
X113069000Y-89694000D02*
X113069000Y-88510000D01*
X113069000Y-86430000D02*
X113069000Y-85246000D01*
X113029000Y-89670000D02*
X113029000Y-88510000D01*
X113029000Y-86430000D02*
X113029000Y-85270000D01*
X112989000Y-89645000D02*
X112989000Y-88510000D01*
X112989000Y-86430000D02*
X112989000Y-85295000D01*
X112949000Y-89619000D02*
X112949000Y-88510000D01*
X112949000Y-86430000D02*
X112949000Y-85321000D01*
X112909000Y-89592000D02*
X112909000Y-88510000D01*
X112909000Y-86430000D02*
X112909000Y-85348000D01*
X112869000Y-89565000D02*
X112869000Y-88510000D01*
X112869000Y-86430000D02*
X112869000Y-85375000D01*
X112829000Y-89535000D02*
X112829000Y-88510000D01*
X112829000Y-86430000D02*
X112829000Y-85405000D01*
X112789000Y-89505000D02*
X112789000Y-88510000D01*
X112789000Y-86430000D02*
X112789000Y-85435000D01*
X112749000Y-89474000D02*
X112749000Y-88510000D01*
X112749000Y-86430000D02*
X112749000Y-85466000D01*
X112709000Y-89441000D02*
X112709000Y-88510000D01*
X112709000Y-86430000D02*
X112709000Y-85499000D01*
X112669000Y-89407000D02*
X112669000Y-88510000D01*
X112669000Y-86430000D02*
X112669000Y-85533000D01*
X112629000Y-89371000D02*
X112629000Y-88510000D01*
X112629000Y-86430000D02*
X112629000Y-85569000D01*
X112589000Y-89334000D02*
X112589000Y-88510000D01*
X112589000Y-86430000D02*
X112589000Y-85606000D01*
X112549000Y-89296000D02*
X112549000Y-88510000D01*
X112549000Y-86430000D02*
X112549000Y-85644000D01*
X112509000Y-89255000D02*
X112509000Y-88510000D01*
X112509000Y-86430000D02*
X112509000Y-85685000D01*
X112469000Y-89213000D02*
X112469000Y-88510000D01*
X112469000Y-86430000D02*
X112469000Y-85727000D01*
X112429000Y-89169000D02*
X112429000Y-88510000D01*
X112429000Y-86430000D02*
X112429000Y-85771000D01*
X112389000Y-89123000D02*
X112389000Y-88510000D01*
X112389000Y-86430000D02*
X112389000Y-85817000D01*
X112349000Y-89075000D02*
X112349000Y-85865000D01*
X112309000Y-89024000D02*
X112309000Y-85916000D01*
X112269000Y-88970000D02*
X112269000Y-85970000D01*
X112229000Y-88913000D02*
X112229000Y-86027000D01*
X112189000Y-88853000D02*
X112189000Y-86087000D01*
X112149000Y-88789000D02*
X112149000Y-86151000D01*
X112109000Y-88721000D02*
X112109000Y-86219000D01*
X112069000Y-88648000D02*
X112069000Y-86292000D01*
X112029000Y-88568000D02*
X112029000Y-86372000D01*
X111989000Y-88481000D02*
X111989000Y-86459000D01*
X111949000Y-88385000D02*
X111949000Y-86555000D01*
X111909000Y-88275000D02*
X111909000Y-86665000D01*
X111869000Y-88147000D02*
X111869000Y-86793000D01*
X111829000Y-87988000D02*
X111829000Y-86952000D01*
X111789000Y-87754000D02*
X111789000Y-87186000D01*
%TO.C,C2*%
X121760000Y-96040000D02*
G75*
G03*
X121760000Y-96040000I-5120000J0D01*
G01*
X116640000Y-101120000D02*
X116640000Y-90960000D01*
X116600000Y-101120000D02*
X116600000Y-90960000D01*
X116560000Y-101120000D02*
X116560000Y-90960000D01*
X116520000Y-101119000D02*
X116520000Y-90961000D01*
X116480000Y-101118000D02*
X116480000Y-90962000D01*
X116440000Y-101117000D02*
X116440000Y-90963000D01*
X116400000Y-101115000D02*
X116400000Y-90965000D01*
X116360000Y-101113000D02*
X116360000Y-90967000D01*
X116320000Y-101110000D02*
X116320000Y-90970000D01*
X116280000Y-101108000D02*
X116280000Y-90972000D01*
X116240000Y-101105000D02*
X116240000Y-90975000D01*
X116200000Y-101102000D02*
X116200000Y-90978000D01*
X116160000Y-101098000D02*
X116160000Y-90982000D01*
X116120000Y-101094000D02*
X116120000Y-90986000D01*
X116080000Y-101090000D02*
X116080000Y-90990000D01*
X116040000Y-101085000D02*
X116040000Y-90995000D01*
X116000000Y-101080000D02*
X116000000Y-91000000D01*
X115960000Y-101075000D02*
X115960000Y-91005000D01*
X115919000Y-101070000D02*
X115919000Y-91010000D01*
X115879000Y-101064000D02*
X115879000Y-91016000D01*
X115839000Y-101058000D02*
X115839000Y-91022000D01*
X115799000Y-101051000D02*
X115799000Y-91029000D01*
X115759000Y-101044000D02*
X115759000Y-91036000D01*
X115719000Y-101037000D02*
X115719000Y-91043000D01*
X115679000Y-101030000D02*
X115679000Y-91050000D01*
X115639000Y-101022000D02*
X115639000Y-91058000D01*
X115599000Y-101014000D02*
X115599000Y-91066000D01*
X115559000Y-101005000D02*
X115559000Y-91075000D01*
X115519000Y-100996000D02*
X115519000Y-91084000D01*
X115479000Y-100987000D02*
X115479000Y-91093000D01*
X115439000Y-100978000D02*
X115439000Y-91102000D01*
X115399000Y-100968000D02*
X115399000Y-91112000D01*
X115359000Y-100958000D02*
X115359000Y-97281000D01*
X115359000Y-94799000D02*
X115359000Y-91122000D01*
X115319000Y-100947000D02*
X115319000Y-97281000D01*
X115319000Y-94799000D02*
X115319000Y-91133000D01*
X115279000Y-100937000D02*
X115279000Y-97281000D01*
X115279000Y-94799000D02*
X115279000Y-91143000D01*
X115239000Y-100925000D02*
X115239000Y-97281000D01*
X115239000Y-94799000D02*
X115239000Y-91155000D01*
X115199000Y-100914000D02*
X115199000Y-97281000D01*
X115199000Y-94799000D02*
X115199000Y-91166000D01*
X115159000Y-100902000D02*
X115159000Y-97281000D01*
X115159000Y-94799000D02*
X115159000Y-91178000D01*
X115119000Y-100890000D02*
X115119000Y-97281000D01*
X115119000Y-94799000D02*
X115119000Y-91190000D01*
X115079000Y-100877000D02*
X115079000Y-97281000D01*
X115079000Y-94799000D02*
X115079000Y-91203000D01*
X115039000Y-100864000D02*
X115039000Y-97281000D01*
X115039000Y-94799000D02*
X115039000Y-91216000D01*
X114999000Y-100851000D02*
X114999000Y-97281000D01*
X114999000Y-94799000D02*
X114999000Y-91229000D01*
X114959000Y-100837000D02*
X114959000Y-97281000D01*
X114959000Y-94799000D02*
X114959000Y-91243000D01*
X114919000Y-100823000D02*
X114919000Y-97281000D01*
X114919000Y-94799000D02*
X114919000Y-91257000D01*
X114879000Y-100808000D02*
X114879000Y-97281000D01*
X114879000Y-94799000D02*
X114879000Y-91272000D01*
X114839000Y-100794000D02*
X114839000Y-97281000D01*
X114839000Y-94799000D02*
X114839000Y-91286000D01*
X114799000Y-100778000D02*
X114799000Y-97281000D01*
X114799000Y-94799000D02*
X114799000Y-91302000D01*
X114759000Y-100763000D02*
X114759000Y-97281000D01*
X114759000Y-94799000D02*
X114759000Y-91317000D01*
X114719000Y-100747000D02*
X114719000Y-97281000D01*
X114719000Y-94799000D02*
X114719000Y-91333000D01*
X114679000Y-100730000D02*
X114679000Y-97281000D01*
X114679000Y-94799000D02*
X114679000Y-91350000D01*
X114639000Y-100714000D02*
X114639000Y-97281000D01*
X114639000Y-94799000D02*
X114639000Y-91366000D01*
X114599000Y-100697000D02*
X114599000Y-97281000D01*
X114599000Y-94799000D02*
X114599000Y-91383000D01*
X114559000Y-100679000D02*
X114559000Y-97281000D01*
X114559000Y-94799000D02*
X114559000Y-91401000D01*
X114519000Y-100661000D02*
X114519000Y-97281000D01*
X114519000Y-94799000D02*
X114519000Y-91419000D01*
X114479000Y-100643000D02*
X114479000Y-97281000D01*
X114479000Y-94799000D02*
X114479000Y-91437000D01*
X114439000Y-100624000D02*
X114439000Y-97281000D01*
X114439000Y-94799000D02*
X114439000Y-91456000D01*
X114399000Y-100604000D02*
X114399000Y-97281000D01*
X114399000Y-94799000D02*
X114399000Y-91476000D01*
X114359000Y-100585000D02*
X114359000Y-97281000D01*
X114359000Y-94799000D02*
X114359000Y-91495000D01*
X114319000Y-100565000D02*
X114319000Y-97281000D01*
X114319000Y-94799000D02*
X114319000Y-91515000D01*
X114279000Y-100544000D02*
X114279000Y-97281000D01*
X114279000Y-94799000D02*
X114279000Y-91536000D01*
X114239000Y-100523000D02*
X114239000Y-97281000D01*
X114239000Y-94799000D02*
X114239000Y-91557000D01*
X114199000Y-100502000D02*
X114199000Y-97281000D01*
X114199000Y-94799000D02*
X114199000Y-91578000D01*
X114159000Y-100480000D02*
X114159000Y-97281000D01*
X114159000Y-94799000D02*
X114159000Y-91600000D01*
X114119000Y-100457000D02*
X114119000Y-97281000D01*
X114119000Y-94799000D02*
X114119000Y-91623000D01*
X114079000Y-100435000D02*
X114079000Y-97281000D01*
X114079000Y-94799000D02*
X114079000Y-91645000D01*
X114039000Y-100411000D02*
X114039000Y-97281000D01*
X114039000Y-94799000D02*
X114039000Y-91669000D01*
X113999000Y-100387000D02*
X113999000Y-97281000D01*
X113999000Y-94799000D02*
X113999000Y-91693000D01*
X113959000Y-100363000D02*
X113959000Y-97281000D01*
X113959000Y-94799000D02*
X113959000Y-91717000D01*
X113919000Y-100338000D02*
X113919000Y-97281000D01*
X113919000Y-94799000D02*
X113919000Y-91742000D01*
X113879000Y-100313000D02*
X113879000Y-97281000D01*
X113879000Y-94799000D02*
X113879000Y-91767000D01*
X113839000Y-100287000D02*
X113839000Y-97281000D01*
X113839000Y-94799000D02*
X113839000Y-91793000D01*
X113799000Y-100261000D02*
X113799000Y-97281000D01*
X113799000Y-94799000D02*
X113799000Y-91819000D01*
X113759000Y-100234000D02*
X113759000Y-97281000D01*
X113759000Y-94799000D02*
X113759000Y-91846000D01*
X113719000Y-100206000D02*
X113719000Y-97281000D01*
X113719000Y-94799000D02*
X113719000Y-91874000D01*
X113679000Y-100178000D02*
X113679000Y-97281000D01*
X113679000Y-94799000D02*
X113679000Y-91902000D01*
X113639000Y-100150000D02*
X113639000Y-97281000D01*
X113639000Y-94799000D02*
X113639000Y-91930000D01*
X113599000Y-100120000D02*
X113599000Y-97281000D01*
X113599000Y-94799000D02*
X113599000Y-91960000D01*
X113559000Y-100090000D02*
X113559000Y-97281000D01*
X113559000Y-94799000D02*
X113559000Y-91990000D01*
X113519000Y-100060000D02*
X113519000Y-97281000D01*
X113519000Y-94799000D02*
X113519000Y-92020000D01*
X113479000Y-100029000D02*
X113479000Y-97281000D01*
X113479000Y-94799000D02*
X113479000Y-92051000D01*
X113439000Y-99997000D02*
X113439000Y-97281000D01*
X113439000Y-94799000D02*
X113439000Y-92083000D01*
X113399000Y-99965000D02*
X113399000Y-97281000D01*
X113399000Y-94799000D02*
X113399000Y-92115000D01*
X113359000Y-99932000D02*
X113359000Y-97281000D01*
X113359000Y-94799000D02*
X113359000Y-92148000D01*
X113319000Y-99898000D02*
X113319000Y-97281000D01*
X113319000Y-94799000D02*
X113319000Y-92182000D01*
X113279000Y-99864000D02*
X113279000Y-97281000D01*
X113279000Y-94799000D02*
X113279000Y-92216000D01*
X113239000Y-99829000D02*
X113239000Y-97281000D01*
X113239000Y-94799000D02*
X113239000Y-92251000D01*
X113199000Y-99793000D02*
X113199000Y-97281000D01*
X113199000Y-94799000D02*
X113199000Y-92287000D01*
X113159000Y-99756000D02*
X113159000Y-97281000D01*
X113159000Y-94799000D02*
X113159000Y-92324000D01*
X113119000Y-99719000D02*
X113119000Y-97281000D01*
X113119000Y-94799000D02*
X113119000Y-92361000D01*
X113079000Y-99680000D02*
X113079000Y-97281000D01*
X113079000Y-94799000D02*
X113079000Y-92400000D01*
X113039000Y-99641000D02*
X113039000Y-97281000D01*
X113039000Y-94799000D02*
X113039000Y-92439000D01*
X112999000Y-99601000D02*
X112999000Y-97281000D01*
X112999000Y-94799000D02*
X112999000Y-92479000D01*
X112959000Y-99560000D02*
X112959000Y-97281000D01*
X112959000Y-94799000D02*
X112959000Y-92520000D01*
X112919000Y-99518000D02*
X112919000Y-97281000D01*
X112919000Y-94799000D02*
X112919000Y-92562000D01*
X112879000Y-99476000D02*
X112879000Y-92604000D01*
X112839000Y-99432000D02*
X112839000Y-92648000D01*
X112799000Y-99387000D02*
X112799000Y-92693000D01*
X112759000Y-99341000D02*
X112759000Y-92739000D01*
X112719000Y-99294000D02*
X112719000Y-92786000D01*
X112679000Y-99246000D02*
X112679000Y-92834000D01*
X112639000Y-99196000D02*
X112639000Y-92884000D01*
X112599000Y-99146000D02*
X112599000Y-92934000D01*
X112559000Y-99094000D02*
X112559000Y-92986000D01*
X112519000Y-99040000D02*
X112519000Y-93040000D01*
X112479000Y-98985000D02*
X112479000Y-93095000D01*
X112439000Y-98929000D02*
X112439000Y-93151000D01*
X112399000Y-98870000D02*
X112399000Y-93210000D01*
X112359000Y-98810000D02*
X112359000Y-93270000D01*
X112319000Y-98749000D02*
X112319000Y-93331000D01*
X112279000Y-98685000D02*
X112279000Y-93395000D01*
X112239000Y-98619000D02*
X112239000Y-93461000D01*
X112199000Y-98550000D02*
X112199000Y-93530000D01*
X112159000Y-98479000D02*
X112159000Y-93601000D01*
X112119000Y-98405000D02*
X112119000Y-93675000D01*
X112079000Y-98329000D02*
X112079000Y-93751000D01*
X112039000Y-98249000D02*
X112039000Y-93831000D01*
X111999000Y-98165000D02*
X111999000Y-93915000D01*
X111959000Y-98077000D02*
X111959000Y-94003000D01*
X111919000Y-97984000D02*
X111919000Y-94096000D01*
X111879000Y-97886000D02*
X111879000Y-94194000D01*
X111839000Y-97782000D02*
X111839000Y-94298000D01*
X111799000Y-97670000D02*
X111799000Y-94410000D01*
X111759000Y-97550000D02*
X111759000Y-94530000D01*
X111719000Y-97418000D02*
X111719000Y-94662000D01*
X111679000Y-97270000D02*
X111679000Y-94810000D01*
X111639000Y-97102000D02*
X111639000Y-94978000D01*
X111599000Y-96902000D02*
X111599000Y-95178000D01*
X111559000Y-96639000D02*
X111559000Y-95441000D01*
%TO.C,J1*%
X122185000Y-106050000D02*
X114445000Y-106050000D01*
X114445000Y-106050000D02*
X114445000Y-108710000D01*
X114445000Y-108710000D02*
X122185000Y-108710000D01*
X122185000Y-108710000D02*
X122185000Y-106050000D01*
X121235000Y-105720000D02*
X121235000Y-106050000D01*
X120475000Y-105720000D02*
X120475000Y-106050000D01*
X119585000Y-106050000D02*
X119585000Y-108710000D01*
X118695000Y-105652929D02*
X118695000Y-106050000D01*
X117935000Y-105652929D02*
X117935000Y-106050000D01*
X117045000Y-106050000D02*
X117045000Y-108710000D01*
X116155000Y-105652929D02*
X116155000Y-106050000D01*
X115395000Y-105652929D02*
X115395000Y-106050000D01*
X120855000Y-103340000D02*
X122125000Y-103340000D01*
X122125000Y-103340000D02*
X122125000Y-104610000D01*
%TO.C,U1*%
X114380000Y-77120000D02*
X114380000Y-78620000D01*
X114380000Y-78620000D02*
X115330000Y-78620000D01*
X115330000Y-78620000D02*
X115330000Y-83745000D01*
X124780000Y-77120000D02*
X124780000Y-78620000D01*
X124780000Y-78620000D02*
X123830000Y-78620000D01*
X123830000Y-78620000D02*
X123830000Y-79720000D01*
%TO.C,L1*%
X118315740Y-86580000D02*
G75*
G02*
X124024260Y-86580000I2854260J-1260000D01*
G01*
X118315740Y-89100000D02*
G75*
G03*
X124024260Y-89100000I2854260J1260000D01*
G01*
%TO.C,D1*%
X125130000Y-60400000D02*
X125130000Y-66900000D01*
X125130000Y-60400000D02*
X113930000Y-60400000D01*
X125130000Y-66900000D02*
X113930000Y-66900000D01*
%TO.C,C1*%
D13*
X115065000Y-89327857D02*
X115029285Y-89363571D01*
X114922142Y-89399285D01*
X114850714Y-89399285D01*
X114743571Y-89363571D01*
X114672142Y-89292142D01*
X114636428Y-89220714D01*
X114600714Y-89077857D01*
X114600714Y-88970714D01*
X114636428Y-88827857D01*
X114672142Y-88756428D01*
X114743571Y-88685000D01*
X114850714Y-88649285D01*
X114922142Y-88649285D01*
X115029285Y-88685000D01*
X115065000Y-88720714D01*
X115779285Y-89399285D02*
X115350714Y-89399285D01*
X115565000Y-89399285D02*
X115565000Y-88649285D01*
X115493571Y-88756428D01*
X115422142Y-88827857D01*
X115350714Y-88863571D01*
%TO.C,C2*%
D11*
X118083333Y-99297142D02*
X118035714Y-99344761D01*
X117892857Y-99392380D01*
X117797619Y-99392380D01*
X117654761Y-99344761D01*
X117559523Y-99249523D01*
X117511904Y-99154285D01*
X117464285Y-98963809D01*
X117464285Y-98820952D01*
X117511904Y-98630476D01*
X117559523Y-98535238D01*
X117654761Y-98440000D01*
X117797619Y-98392380D01*
X117892857Y-98392380D01*
X118035714Y-98440000D01*
X118083333Y-98487619D01*
X118464285Y-98487619D02*
X118511904Y-98440000D01*
X118607142Y-98392380D01*
X118845238Y-98392380D01*
X118940476Y-98440000D01*
X118988095Y-98487619D01*
X119035714Y-98582857D01*
X119035714Y-98678095D01*
X118988095Y-98820952D01*
X118416666Y-99392380D01*
X119035714Y-99392380D01*
%TO.C,J1*%
X118016666Y-106822380D02*
X118016666Y-107536666D01*
X117969047Y-107679523D01*
X117873809Y-107774761D01*
X117730952Y-107822380D01*
X117635714Y-107822380D01*
X119016666Y-107822380D02*
X118445238Y-107822380D01*
X118730952Y-107822380D02*
X118730952Y-106822380D01*
X118635714Y-106965238D01*
X118540476Y-107060476D01*
X118445238Y-107108095D01*
%TO.C,U1*%
X119148095Y-77222380D02*
X119148095Y-78031904D01*
X119195714Y-78127142D01*
X119243333Y-78174761D01*
X119338571Y-78222380D01*
X119529047Y-78222380D01*
X119624285Y-78174761D01*
X119671904Y-78127142D01*
X119719523Y-78031904D01*
X119719523Y-77222380D01*
X120719523Y-78222380D02*
X120148095Y-78222380D01*
X120433809Y-78222380D02*
X120433809Y-77222380D01*
X120338571Y-77365238D01*
X120243333Y-77460476D01*
X120148095Y-77508095D01*
%TO.C,L1*%
X121013333Y-89982380D02*
X120537142Y-89982380D01*
X120537142Y-88982380D01*
X121870476Y-89982380D02*
X121299047Y-89982380D01*
X121584761Y-89982380D02*
X121584761Y-88982380D01*
X121489523Y-89125238D01*
X121394285Y-89220476D01*
X121299047Y-89268095D01*
%TO.C,D1*%
X117771904Y-64242380D02*
X117771904Y-63242380D01*
X118010000Y-63242380D01*
X118152857Y-63290000D01*
X118248095Y-63385238D01*
X118295714Y-63480476D01*
X118343333Y-63670952D01*
X118343333Y-63813809D01*
X118295714Y-64004285D01*
X118248095Y-64099523D01*
X118152857Y-64194761D01*
X118010000Y-64242380D01*
X117771904Y-64242380D01*
X119295714Y-64242380D02*
X118724285Y-64242380D01*
X119010000Y-64242380D02*
X119010000Y-63242380D01*
X118914761Y-63385238D01*
X118819523Y-63480476D01*
X118724285Y-63528095D01*
%TD*%
M02*
